<?xml version="1.0" encoding="utf-8"?>
<svg xmlns="http://www.w3.org/2000/svg" xmlns:xlink="http://www.w3.org/1999/xlink">

  <symbol viewBox="0 0 512 512" id="ico-cards">
    <path d="m410.487 511.999c-1.923 0-3.875-.249-5.818-.769l-201.823-54.079c-5.805-1.556-10.657-5.279-13.662-10.483-3.005-5.205-3.803-11.269-2.247-17.074l21.261-79.348h-69.669c-12.406 0-22.5-10.093-22.5-22.5v-40.421c-30.008-21.831-39.258-37.585-43.757-54.377-6.913-25.801 8.453-52.415 34.253-59.328 3.147-.843 6.325-1.376 9.504-1.595v-45.187c0-4.142 3.357-7.5 7.5-7.5s7.5 3.358 7.5 7.5v200.908c0 4.136 3.364 7.5 7.5 7.5h73.688l27.952-104.32c1.071-4.001 5.183-6.375 9.186-5.304 4.001 1.072 6.375 5.185 5.303 9.186l-53.232 198.668c-.519 1.936-.252 3.957.749 5.691 1.002 1.735 2.619 2.976 4.555 3.494l201.823 54.079c3.995 1.073 8.114-1.309 9.186-5.304l7.586-28.309c1.071-4.001 5.184-6.375 9.186-5.303 4.001 1.072 6.375 5.185 5.303 9.186l-7.586 28.309c-2.693 10.041-11.809 16.68-21.741 16.68zm-294.459-324.922c-1.875.187-3.753.531-5.621 1.032-17.812 4.772-28.419 23.146-23.647 40.957 2.647 9.88 7.437 21.749 29.269 39.379v-81.368zm324.599 255.43c-.643 0-1.296-.083-1.946-.257-4.001-1.072-6.375-5.185-5.303-9.186l63.362-236.472c1.069-3.995-1.31-8.116-5.304-9.186l-201.824-54.078c-3.993-1.071-8.114 1.308-9.186 5.303l-17.841 66.584c-1.071 4.001-5.184 6.375-9.186 5.304-4.001-1.072-6.375-5.185-5.303-9.186l17.841-66.584c3.211-11.983 15.568-19.124 27.557-15.91l201.824 54.078c11.982 3.211 19.12 15.573 15.909 27.556l-63.362 236.473c-.896 3.351-3.926 5.56-7.238 5.561zm-339.115-.508c-9.934 0-19.048-6.638-21.738-16.679l-79.004-294.846c-3.211-11.984 3.927-24.346 15.909-27.557l99.349-26.62v-53.797c0-12.407 10.094-22.5 22.5-22.5h208.943c12.406 0 22.5 10.093 22.5 22.5v90.462c0 4.142-3.357 7.5-7.5 7.5s-7.5-3.358-7.5-7.5v-90.462c0-4.136-3.364-7.5-7.5-7.5h-208.943c-4.136 0-7.5 3.364-7.5 7.5v74.338c0 4.142-3.357 7.5-7.5 7.5s-7.5-3.358-7.5-7.5v-5.012l-95.466 25.58c-3.994 1.07-6.373 5.191-5.304 9.186l79.004 294.846c1.071 3.994 5.189 6.375 9.186 5.303l63.86-17.111c4.003-1.071 8.114 1.302 9.186 5.304 1.072 4.001-1.302 8.113-5.303 9.186l-63.86 17.111c-1.944.519-3.897.768-5.819.768zm262.107-24.232c-.643 0-1.296-.083-1.946-.257l-73.752-19.762c-4.001-1.072-6.375-5.185-5.303-9.186 1.071-4.001 5.184-6.375 9.186-5.304l6.91 1.852c11.914-6.148 20.89-13.653 27.076-22.682-6.719 1.812-14.789 2.382-23.833-.041-11.702-3.136-21.483-10.642-27.541-21.134s-7.667-22.715-4.53-34.418c2.612-9.749 7.44-21.721 23.446-36.593 15.495-14.397 39.748-30.246 76.325-49.878 3.49-1.874 7.837-.708 9.923 2.659 21.86 35.291 34.939 61.143 41.16 81.358 6.426 20.883 4.621 33.665 2.009 43.414-3.136 11.703-10.641 21.483-21.133 27.542-10.492 6.058-22.714 7.667-34.418 4.531-9.044-2.423-15.749-6.953-20.661-11.882.843 10.914 4.863 21.901 12.107 33.182l6.911 1.852c4.001 1.072 6.375 5.185 5.303 9.186-.898 3.351-3.928 5.561-7.239 5.561zm-44.939-27.307 19.997 5.358c-2.717-6.02-4.675-12.05-5.873-18.077-4.052 4.621-8.762 8.864-14.124 12.719zm22.788-52.546c.646 0 1.299.083 1.94.255 2.611.7 4.645 2.751 5.32 5.369.179.655 4.853 17.153 22.352 21.841 7.829 2.099 16.013 1.021 23.035-3.032 7.022-4.055 12.046-10.601 14.145-18.433 4.243-15.838 4.734-37.212-37.73-106.963-71.651 39.175-81.912 57.93-86.156 73.768-2.099 7.833-1.021 16.014 3.032 23.036 4.055 7.022 10.601 12.046 18.434 14.145 17.751 4.757 30.154-7.614 30.277-7.74 1.428-1.456 3.365-2.246 5.351-2.246zm-159.723-17.667c-2.387 0-4.632-1.136-6.045-3.061l-20.724-28.217c-1.94-2.642-1.94-6.237 0-8.879l20.724-28.217c1.413-1.924 3.657-3.061 6.045-3.061 2.387 0 4.632 1.136 6.045 3.06l20.725 28.218c1.94 2.642 1.94 6.237 0 8.879l-20.725 28.217c-1.414 1.924-3.659 3.061-6.045 3.061zm-11.418-35.717 11.418 15.547 11.419-15.547-11.419-15.547zm11.418-73.69c-2.387 0-4.632-1.136-6.045-3.061l-20.724-28.217c-1.94-2.642-1.94-6.237 0-8.879l20.724-28.217c1.413-1.924 3.657-3.061 6.045-3.061 2.387 0 4.632 1.136 6.045 3.06l20.725 28.218c1.94 2.642 1.94 6.237 0 8.879l-20.725 28.218c-1.414 1.924-3.659 3.06-6.045 3.06zm-11.418-35.716 11.418 15.547 11.419-15.547-11.419-15.547zm133.927-73.69c-2.387 0-4.632-1.136-6.045-3.06l-20.725-28.217c-1.94-2.642-1.94-6.238 0-8.879l20.725-28.218c1.413-1.923 3.658-3.06 6.045-3.06 2.388 0 4.632 1.136 6.045 3.061l20.724 28.217c1.94 2.642 1.94 6.237 0 8.879l-20.724 28.217c-1.413 1.924-3.658 3.06-6.045 3.06zm-11.419-35.717 11.419 15.547 11.418-15.547-11.418-15.547zm-111.09 35.717c-2.387 0-4.632-1.136-6.045-3.061l-20.724-28.217c-1.94-2.642-1.94-6.237 0-8.879l20.724-28.216c1.413-1.924 3.657-3.061 6.045-3.061 2.387 0 4.632 1.136 6.045 3.06l20.725 28.218c1.94 2.642 1.94 6.237 0 8.879l-20.725 28.217c-1.414 1.924-3.659 3.06-6.045 3.06zm-11.418-35.717 11.418 15.547 11.419-15.547-11.419-15.547z"/>
  </symbol>

  <symbol viewBox="0 0 160 160" id="ico-chip">
    <path d="M126.447,49.915A63.426,63.426,0,0,0,118.1,29.806,64.4,64.4,0,0,0,98.186,9.892,63.371,63.371,0,0,0,78.073,1.553a64.866,64.866,0,0,0-28.146,0,63.386,63.386,0,0,0-20.113,8.34A64.386,64.386,0,0,0,9.9,29.8,63.44,63.44,0,0,0,1.552,49.917a64.621,64.621,0,0,0,0,28.155A63.212,63.212,0,0,0,9.9,98.194a64.392,64.392,0,0,0,19.9,19.9,63.209,63.209,0,0,0,20.125,8.349,64.56,64.56,0,0,0,28.146,0A63.231,63.231,0,0,0,98.2,118.1a64.385,64.385,0,0,0,19.9-19.9,63.209,63.209,0,0,0,8.351-20.126,64.61,64.61,0,0,0,0-28.157ZM114,72.95V55.044l9.388-2.556a59.924,59.924,0,0,1,0,23.017Zm.135-42.777-8.446,4.832L93.025,22.344l4.837-8.455A60.942,60.942,0,0,1,114.132,30.173ZM64,3.5A60.939,60.939,0,0,1,75.507,4.616L72.953,14H55.047L52.493,4.615A61.013,61.013,0,0,1,64,3.5ZM30.176,13.865,35,22.293,22.339,34.953,13.9,30.125A60.886,60.886,0,0,1,30.176,13.865ZM4.615,75.5a59.966,59.966,0,0,1,0-23.015l9.393,2.556v17.9ZM13.9,97.869l8.425-4.821,12.661,12.661-4.818,8.417A60.936,60.936,0,0,1,13.9,97.869Zm38.6,25.514,2.554-9.393H72.953l2.555,9.393A61.469,61.469,0,0,1,52.493,123.383ZM97.872,114.1l-4.83-8.443L105.7,93l8.432,4.824A60.919,60.919,0,0,1,97.872,114.1Zm18.151-19.232L106.281,89.3a1.747,1.747,0,0,0-2.107.281L89.622,104.128a1.748,1.748,0,0,0-.282,2.106l5.581,9.756a59.661,59.661,0,0,1-15.991,6.642l-2.952-10.851a1.749,1.749,0,0,0-1.688-1.291H53.71a1.75,1.75,0,0,0-1.689,1.291L49.07,122.632a59.678,59.678,0,0,1-15.953-6.618l5.568-9.728a1.748,1.748,0,0,0-.282-2.106L23.851,89.627a1.748,1.748,0,0,0-2.106-.281l-9.737,5.573A59.665,59.665,0,0,1,5.367,78.927l10.85-2.951a1.75,1.75,0,0,0,1.29-1.689V53.707a1.749,1.749,0,0,0-1.29-1.688L5.368,49.068a59.882,59.882,0,0,1,6.644-15.992l9.75,5.579a1.746,1.746,0,0,0,2.106-.281L38.42,23.822a1.748,1.748,0,0,0,.282-2.106l-5.574-9.738A59.864,59.864,0,0,1,49.07,5.368L52.021,16.21A1.75,1.75,0,0,0,53.71,17.5H74.29a1.748,1.748,0,0,0,1.688-1.29L78.93,5.368A59.845,59.845,0,0,1,94.91,12l-5.587,9.766a1.748,1.748,0,0,0,.282,2.106l14.552,14.552a1.75,1.75,0,0,0,2.107.282l9.756-5.58a59.927,59.927,0,0,1,6.612,15.939l-10.844,2.953a1.75,1.75,0,0,0-1.291,1.688v20.58a1.751,1.751,0,0,0,1.291,1.689l10.845,2.951A59.679,59.679,0,0,1,116.023,94.868Z"/><path d="M64,25a39,39,0,1,0,39,39A39.044,39.044,0,0,0,64,25Zm0,74.5A35.5,35.5,0,1,1,99.5,64,35.54,35.54,0,0,1,64,99.5Z"/><path d="M65.237,41.142a1.748,1.748,0,0,0-2.474,0L47.914,55.99a12.243,12.243,0,0,0,9.319,20.887A24.754,24.754,0,0,1,54.072,84.7a1.749,1.749,0,0,0,1.485,2.676H72.443A1.749,1.749,0,0,0,73.928,84.7a24.754,24.754,0,0,1-3.161-7.818A12.243,12.243,0,0,0,80.086,55.99Zm12.375,29.7a8.786,8.786,0,0,1-8.51,2.243,1.749,1.749,0,0,0-2.2,1.895,28.486,28.486,0,0,0,2.588,8.893H58.51A28.486,28.486,0,0,0,61.1,74.978a1.75,1.75,0,0,0-2.2-1.895,8.746,8.746,0,0,1-8.509-14.618L64,44.853,77.612,58.465A8.762,8.762,0,0,1,77.612,70.84Z"/>
  </symbol>

  <symbol viewBox="0 0 512 512" id="ico-slot-machine">
    <path id="XMLID_195_" d="m126 206h-36c-5.523 0-10 4.477-10 10s4.477 10 10 10h21.777l-23.954 66.616c-1.869 5.197.83 10.925 6.026 12.794 1.118.402 2.26.593 3.383.593 4.099 0 7.944-2.54 9.411-6.619l28.766-80c1.102-3.064.643-6.472-1.23-9.135-1.871-2.664-4.923-4.249-8.179-4.249z"/><path id="XMLID_196_" d="m242 206h-36c-5.523 0-10 4.477-10 10s4.477 10 10 10h21.777l-23.954 66.616c-1.869 5.197.83 10.925 6.026 12.794 1.118.402 2.26.593 3.383.593 4.099 0 7.944-2.54 9.411-6.619l28.766-80c1.102-3.064.643-6.472-1.23-9.135-1.871-2.664-4.923-4.249-8.179-4.249z"/><path id="XMLID_197_" d="m322 226h21.777l-23.954 66.616c-1.869 5.197.83 10.925 6.026 12.794 1.118.402 2.26.593 3.383.593 4.099 0 7.944-2.54 9.411-6.619l28.766-80c1.102-3.064.643-6.472-1.23-9.135s-4.924-4.249-8.18-4.249h-36c-5.523 0-10 4.477-10 10s4.478 10 10.001 10z"/><path id="XMLID_200_" d="m398 162h-348c-5.523 0-10 4.477-10 10v168c0 5.523 4.477 10 10 10h348c5.523 0 10-4.477 10-10v-168c0-5.523-4.477-10-10-10zm-338 20h96v148h-96zm116 0h96v148h-96zm212 148h-96v-148h96z"/><path id="XMLID_1924_" d="m512 34c0-18.748-15.252-34-34-34s-34 15.252-34 34c0 15.269 10.118 28.217 24 32.497v158.316c0 11.309-8.86 20.563-20 21.247v-114.06c0-5.523-4.477-10-10-10h-36.88c-27.888-73.269-98.168-122-177.12-122s-149.232 48.731-177.12 122h-36.88c-5.523 0-10 4.477-10 10v248c0 5.523 4.477 10 10 10h30v112c0 5.523 4.477 10 10 10h348c5.523 0 10-4.477 10-10v-112h30c5.523 0 10-4.477 10-10v-113.906c22.173-.698 40-18.94 40-41.28v-158.317c13.882-4.28 24-17.228 24-32.497zm-124 458h-328v-102h328zm40-122h-408v-228h158.999c5.523 0 10-4.477 10-10s-4.477-10-10-10h-110.532c26.671-61.551 87.501-102 155.533-102s128.862 40.449 155.533 102h-110.533c-5.523 0-10 4.477-10 10s4.477 10 10 10h159zm50-322c-7.72 0-14-6.28-14-14s6.28-14 14-14 14 6.28 14 14-6.28 14-14 14z"/><path id="XMLID_1927_" d="m112.333 451h223.333c5.523 0 10-4.477 10-10s-4.477-10-10-10h-223.333c-5.523 0-10 4.477-10 10s4.478 10 10 10z"/><path id="XMLID_1928_" d="m224 142c2.63 0 5.21-1.07 7.07-2.93s2.93-4.44 2.93-7.07-1.07-5.21-2.93-7.07-4.44-2.93-7.07-2.93-5.21 1.07-7.07 2.93-2.93 4.44-2.93 7.07 1.07 5.21 2.93 7.07 4.44 2.93 7.07 2.93z"/>
  </symbol>

  <symbol viewBox="0 0 512 512" id="ico-roulette">
    <path d="m256 5c-138.6 0-251 112.4-251 251 0 66.6 26.4 130.4 73.5 177.5 97.8 98.2 256.8 98.5 355 .7s98.5-256.8.7-355c-.2-.2-.4-.4-.7-.7-47-47.2-110.9-73.7-177.5-73.5zm100.9 141.6c-11.5-10.6-24.7-19.4-38.9-26l34.2-83.5c25.3 11.2 48.5 26.6 68.5 45.7zm-50-30.6c-14.4-5.3-29.6-8.2-44.9-8.8v-90.1c27.1.6 53.8 5.9 79.1 15.5zm-56.9-8.8c-15.7.6-31.2 3.7-45.9 9.2l-34.8-83.3c25.8-10 53.1-15.4 80.7-16.1zm-57 13.9c-13.9 6.5-26.7 15.1-38 25.5l-63.7-63.8c19.6-18.7 42.2-33.9 66.9-45zm-46.4 34c-10.7 11.5-19.4 24.7-26 38.9l-83.5-34.2c11.2-25.3 26.6-48.5 45.7-68.5zm-30.6 50c-5.3 14.4-8.2 29.6-8.8 44.9h-90.1c.6-27.1 5.9-53.8 15.5-79.1zm-8.8 56.9c.6 15.7 3.7 31.2 9.2 45.9l-83.3 34.8c-10-25.8-15.4-53.1-16.1-80.7zm11.9-6c0-75.5 61.4-136.9 136.9-136.9s136.9 61.4 136.9 136.9-61.4 136.9-136.9 136.9-136.9-61.4-136.9-136.9zm36 109.4c11.5 10.6 24.7 19.4 38.9 26l-34.2 83.5c-25.3-11.2-48.5-26.6-68.5-45.7zm50 30.6c14.4 5.3 29.6 8.2 44.9 8.8v90.1c-27.1-.6-53.8-5.9-79.1-15.5zm56.9 8.8c15.7-.6 31.2-3.7 45.9-9.2l34.8 83.3c-25.8 10-53.1 15.4-80.7 16.1zm57-13.9c13.9-6.5 26.7-15.1 38-25.5l63.8 63.8c-19.6 18.7-42.2 33.9-66.9 45zm46.4-34c10.7-11.5 19.4-24.7 26-38.9l83.5 34.2c-11.2 25.3-26.6 48.5-45.7 68.5zm30.6-50c5.3-14.4 8.2-29.6 8.8-44.9h90.1c-.6 27.1-5.9 53.8-15.5 79.1zm8.8-56.9c-.6-15.7-3.7-31.2-9.2-45.9l83.3-34.8c10 25.8 15.4 53.1 16.1 80.7zm-13.9-57c-6.5-13.9-15.1-26.7-25.5-38l63.8-63.8c18.7 19.6 33.9 42.2 45 66.9zm-353.1 160.8 83.3-34.8c6.5 13.9 15.1 26.7 25.5 38l-63.8 63.8c-18.7-19.7-33.9-42.3-45-67z"/><path d="m184.4 263.5h35.7c3.1 14.8 15 26.1 29.8 28.6v37c-8.3 3.3-12.4 12.7-9.1 21.1 3.3 8.3 12.7 12.4 21.1 9.1 8.3-3.3 12.4-12.7 9.1-21.1-1.6-4.1-4.9-7.4-9.1-9.1v-37c14.9-2.5 26.7-13.8 29.8-28.6h35.7c3.3 8.3 12.7 12.4 21.1 9.1 8.3-3.3 12.4-12.7 9.1-21.1-3.3-8.3-12.7-12.4-21.1-9.1-4.1 1.6-7.4 4.9-9.1 9.1h-35.2c-2-16.1-14.3-29-30.3-31.7v-33.8c8.3-3.3 12.4-12.7 9.1-21.1-3.3-8.3-12.7-12.4-21.1-9.1-8.3 3.3-12.4 12.7-9.1 21.1 1.6 4.1 4.9 7.4 9.1 9.1v33.9c-16 2.7-28.3 15.6-30.3 31.7h-35.2c-3.3-8.3-12.7-12.4-21.1-9.1-8.3 3.3-12.4 12.7-9.1 21.1s12.7 12.4 21.1 9.1c4.2-1.7 7.5-5 9.1-9.2zm158.2-10.2c2.3 0 4.2 1.9 4.2 4.2s-1.9 4.2-4.2 4.2-4.2-1.9-4.2-4.2 1.9-4.2 4.2-4.2zm-86.6 95.1c-2.3 0-4.2-1.9-4.2-4.2s1.9-4.2 4.2-4.2 4.2 1.9 4.2 4.2c0 2.3-1.9 4.2-4.2 4.2zm0-181.7c2.3 0 4.2 1.9 4.2 4.2s-1.9 4.2-4.2 4.2-4.2-1.9-4.2-4.2c0-2.3 1.9-4.2 4.2-4.2zm0 64.7c13.6 0 24.6 11 24.6 24.6s-11 24.6-24.6 24.6-24.6-11-24.6-24.6 11-24.6 24.6-24.6zm-90.8 26.1c0-2.3 1.9-4.2 4.2-4.2s4.2 1.9 4.2 4.2-1.9 4.2-4.2 4.2c-2.3.1-4.2-1.8-4.2-4.2z"/><path d="m256 271c8.3 0 15-6.7 15-15s-6.7-15-15-15-15 6.7-15 15 6.7 15 15 15zm0-18c1.7 0 3 1.3 3 3s-1.3 3-3 3-3-1.3-3-3 1.3-3 3-3z"/><path d="m366.2 393.2c-14.6 0-26.4 11.8-26.4 26.4s11.8 26.4 26.4 26.4 26.4-11.8 26.4-26.4c0-14.5-11.8-26.3-26.4-26.4zm0 40.9c-8 0-14.4-6.5-14.4-14.4 0-8 6.5-14.4 14.4-14.4 8 0 14.4 6.5 14.4 14.4 0 7.9-6.4 14.4-14.4 14.4z"/>
  </symbol>

  <symbol viewBox="0 0 512 512" id="ico-croupier">
    <path d="M477.706,340.959H404.989a40.987,40.987,0,0,0-8.257-19.55V224.932A66.91,66.91,0,0,0,345.7,159.518a154.616,154.616,0,0,1-38.416-15.394l-9.006-5V124.9a53.369,53.369,0,0,0,15.338-37.513v-29.1C313.619,28.9,289.94,5,260.835,5S208.05,28.9,208.05,58.286v29.1a53.374,53.374,0,0,0,15.458,37.64v14.893c0,.266.013.531.015.8l-11.57,5.871a163.808,163.808,0,0,1-35.986,12.933,66.91,66.91,0,0,0-51.029,65.414v96.853a41,41,0,0,0-7.964,19.174H34.294a24.49,24.49,0,0,0,0,48.979H62.879V501a6,6,0,1,0,12,0V419.479H432.2V501a6,6,0,0,0,12,0V389.938h33.5a24.49,24.49,0,0,0,0-48.979Zm-124.273-23.3h11.32a28.777,28.777,0,0,1,28.022,23.011H353.433ZM305.477,156.766l-9.659,29.092-9.369-9.061a54.417,54.417,0,0,0,10.978-24.424l4.034,2.241C302.8,155.357,304.138,156.062,305.477,156.766Zm-40.429,36.128h-8.426l-4.09-9.772h16.606Zm-5.451,12h4.118l12.794,94.5-15.885,18.75-15.431-18.662Zm15.949-33.772H246.329a50.278,50.278,0,0,1-10.821-31.2v-5.8a52.235,52.235,0,0,0,50.773-.07v8.6A42.732,42.732,0,0,1,275.546,171.122ZM220.05,58.286c0-22.765,18.3-41.286,40.785-41.286s40.784,18.521,40.784,41.286v29.1c0,22.765-18.3,41.285-40.784,41.285S220.05,110.15,220.05,87.385Zm4.943,95.139a62.156,62.156,0,0,0,10.438,23.194L225.9,185.9l-9.618-28.073c.363-.181.736-.352,1.1-.535Zm-46.2,17.756a188.566,188.566,0,0,0,26.5-8.418l12.33,35.986a6,6,0,0,0,9.861,2.354l13.9-13.533,4.464,10.662a9.445,9.445,0,0,0,2.076,3.6l-15,98.494a6.007,6.007,0,0,0,1.307,4.727l21.711,26.258a6,6,0,0,0,4.588,2.176h.036a6,6,0,0,0,4.578-2.122l22.245-26.258a6,6,0,0,0,1.367-4.682L275.142,199.854a9.534,9.534,0,0,0,.679-1.622l4.476-10.691,14.038,13.576A6,6,0,0,0,304.2,198.7l12.167-36.646a156.1,156.1,0,0,0,26.512,9.132,54.942,54.942,0,0,1,41.853,53.751v86.046a40.093,40.093,0,0,0-19.979-5.32h-11.32v-63.22a6,6,0,0,0-12,0v98.521h-161.2V233.685a6,6,0,0,0-12,0v71.973H157.211a40.088,40.088,0,0,0-20.273,5.491V224.932A54.941,54.941,0,0,1,178.791,171.181Zm-21.58,146.477h11.026v23.011H129.188A28.778,28.778,0,0,1,157.211,317.658ZM432.2,407.479H74.879V389.938H432.2Zm45.5-29.541H34.294a12.491,12.491,0,0,1,0-24.979H477.706a12.491,12.491,0,0,1,0,24.979Z"/><path d="M161.833,456.994l2.57-14.979a6,6,0,0,0-8.7-6.327l-13.462,7.075-13.462-7.075a6,6,0,0,0-8.705,6.327l2.571,14.979L111.752,467.6a6,6,0,0,0,3.325,10.235l15.05,2.186,6.73,13.631a6,6,0,0,0,10.76,0l6.73-13.631,15.05-2.186a6,6,0,0,0,3.326-10.235ZM149.5,468.6a6,6,0,0,0-4.518,3.281l-2.746,5.562-2.747-5.562a6,6,0,0,0-4.517-3.281l-6.136-.892,4.438-4.325A6,6,0,0,0,135,458.075l-1.049-6.109,5.493,2.887a6,6,0,0,0,5.582,0l5.493-2.887-1.048,6.109a6,6,0,0,0,1.725,5.313l4.44,4.324Z"/><path d="M275.6,456.994l2.57-14.979a6,6,0,0,0-8.7-6.327L256,442.763l-13.462-7.075a6,6,0,0,0-8.705,6.327l2.57,14.979L225.515,467.6a6,6,0,0,0,3.325,10.235l15.05,2.186,6.73,13.631a6,6,0,0,0,10.76,0l6.73-13.631,15.05-2.186a6,6,0,0,0,3.325-10.235ZM263.265,468.6a6,6,0,0,0-4.518,3.281L256,477.448l-2.747-5.563a6,6,0,0,0-4.518-3.281l-6.135-.892,4.438-4.325a6,6,0,0,0,1.727-5.312l-1.049-6.109,5.493,2.887a6,6,0,0,0,5.582,0l5.493-2.887-1.049,6.109a6,6,0,0,0,1.727,5.312l4.438,4.325Z"/><path d="M389.359,456.994l2.571-14.979a6,6,0,0,0-8.7-6.327l-13.462,7.075L356.3,435.688a6,6,0,0,0-8.7,6.327l2.57,14.979-10.89,10.61a6,6,0,0,0,3.326,10.235l15.05,2.186,6.73,13.631a6,6,0,0,0,10.76,0l6.73-13.631,15.05-2.186a6,6,0,0,0,3.325-10.235ZM377.027,468.6a6,6,0,0,0-4.517,3.281l-2.747,5.562-2.746-5.562A6,6,0,0,0,362.5,468.6l-6.137-.892,4.44-4.324a6,6,0,0,0,1.725-5.313l-1.048-6.109,5.493,2.887a6,6,0,0,0,5.582,0l5.493-2.887L377,458.075a6,6,0,0,0,1.727,5.312l4.438,4.325Z"/><path d="M73.837,313.658a7,7,0,1,0-7-7A7.008,7.008,0,0,0,73.837,313.658Z"/><path d="M51.686,275.658h-2.86a6,6,0,0,0-6,6v50a6,6,0,0,0,6,6H98.848a6,6,0,0,0,6-6v-50a6,6,0,0,0-6-6H87.439l21.206-8.566a6,6,0,0,0,3.315-7.813L93.217,212.922a6,6,0,0,0-7.81-3.314L39.029,228.343a6,6,0,0,0-3.315,7.812Zm41.162,50H54.826v-38H92.848ZM84.34,222.981l14.245,35.232L63.334,272.454,49.089,237.221Z"/><path d="M73.846,254.717a7,7,0,1,0-6.5-4.377A6.98,6.98,0,0,0,73.846,254.717Z"/><path d="M432.624,337.658h30.013a6,6,0,1,0,0-12H432.624a6,6,0,0,0,0,12Z"/><path d="M432.624,321.658h30.013a6,6,0,1,0,0-12H432.624a6,6,0,0,0,0,12Z"/><path d="M432.624,305.658h30.013a6,6,0,1,0,0-12H432.624a6,6,0,0,0,0,12Z"/><path d="M432.624,289.658h30.013a6,6,0,1,0,0-12H432.624a6,6,0,0,0,0,12Z"/><path d="M432.624,273.658h30.013a6,6,0,1,0,0-12H432.624a6,6,0,0,0,0,12Z"/>
  </symbol>

<symbol viewBox="0 0 512 512" id="ico-diamond">
    <path d="m475.493 272.762.009-.007L382.3 151.278a6 6 0 0 0-4.76-2.347H134.465a6 6 0 0 0-4.76 2.347L36.5 272.755l.009.007a5.945 5.945 0 0 0 .508 7.887l214.74 214.743a6 6 0 0 0 8.486 0l214.742-214.743a5.945 5.945 0 0 0 .508-7.887zM370.226 160.931l-20.195 101.674L268.5 160.931zm-29.321 109.476H171.1L256 164.521zM243.5 160.931l-81.531 101.674-20.195-101.674zm-112.337 8.162 20.123 101.314H53.424zm-75.42 113.314h98.983L236.9 463.562zM256 476.625l-88.1-194.218h176.2zm19.1-13.063 82.172-181.155h98.983zm85.614-193.155 20.123-101.314 77.737 101.314zM139.866 86.045l31.709 4.608 14.18 28.734a6 6 0 0 0 10.761 0L210.7 90.653l31.709-4.608a6 6 0 0 0 3.325-10.234l-22.948-22.366 5.417-31.58a6 6 0 0 0-8.703-6.325l-28.364 14.91-28.362-14.91a6 6 0 0 0-8.705 6.325l5.416 31.58-22.944 22.366a6 6 0 0 0 3.325 10.234zm30.254-26.208a6 6 0 0 0 1.726-5.312l-3.9-22.707 20.393 10.721a5.994 5.994 0 0 0 5.584 0l20.393-10.721-3.9 22.707a6 6 0 0 0 1.725 5.312l16.5 16.081-22.8 3.313a6 6 0 0 0-4.518 3.283l-10.2 20.66-10.2-20.66a6 6 0 0 0-4.517-3.283l-22.8-3.313zM56.027 170.288a6 6 0 0 0 5.38 3.345 6 6 0 0 0 5.381-3.345l14.181-28.732 31.708-4.609A6 6 0 0 0 116 126.713l-22.942-22.365 5.417-31.581a6 6 0 0 0-8.706-6.326L61.407 81.353 33.046 66.441a6 6 0 0 0-8.706 6.326l5.417 31.581-22.945 22.365a6 6 0 0 0 3.325 10.234l31.709 4.609zm-15.635-59.549a6 6 0 0 0 1.725-5.311l-3.894-22.707 20.392 10.72a5.994 5.994 0 0 0 5.584 0l20.393-10.72-3.892 22.707a6 6 0 0 0 1.726 5.311l16.5 16.081-22.8 3.314a6 6 0 0 0-4.517 3.282l-10.2 20.659-10.2-20.659a6 6 0 0 0-4.517-3.282l-22.8-3.314zM269.594 86.045l31.706 4.608 14.181 28.734a6 6 0 0 0 10.761 0l14.18-28.734 31.709-4.608a6 6 0 0 0 3.325-10.234l-22.941-22.366 5.416-31.58a6 6 0 0 0-8.7-6.325l-28.367 14.91L292.5 15.54a6 6 0 0 0-8.706 6.325l5.417 31.58-22.942 22.366a6 6 0 0 0 3.325 10.234zm30.255-26.208a6 6 0 0 0 1.725-5.312l-3.9-22.707 20.393 10.721a5.994 5.994 0 0 0 5.584 0l20.393-10.721-3.895 22.707a6 6 0 0 0 1.726 5.312l16.5 16.081-22.8 3.313a6 6 0 0 0-4.517 3.283l-10.2 20.66-10.2-20.66a6 6 0 0 0-4.518-3.283l-22.8-3.313zM482.243 104.348l5.417-31.581a6 6 0 0 0-8.706-6.326l-28.361 14.912-28.362-14.912a6 6 0 0 0-8.706 6.326l5.417 31.581L396 126.713a6 6 0 0 0 3.326 10.234l31.708 4.609 14.181 28.732a6 6 0 0 0 10.761 0l14.181-28.732 31.709-4.609a6 6 0 0 0 3.325-10.234zm-16.937 25.786a6 6 0 0 0-4.517 3.282l-10.2 20.659-10.2-20.659a6 6 0 0 0-4.517-3.282l-22.8-3.314 16.5-16.081a6 6 0 0 0 1.726-5.311l-3.895-22.707 20.397 10.72a5.994 5.994 0 0 0 5.584 0l20.392-10.72-3.894 22.707a6 6 0 0 0 1.725 5.311l16.5 16.081z" />
</symbol>

  <symbol viewBox="0 0 512 512" id="ico-crown">
    <path d="M477.12,115.679a29.882,29.882,0,0,0-7.4,58.831,62.64,62.64,0,0,1-123.747-9.5,100.727,100.727,0,0,0,11.163-37.858,29.879,29.879,0,1,0-12.031-.179,89.523,89.523,0,0,1-178.136,0,29.881,29.881,0,1,0-12.031.179,100.755,100.755,0,0,0,11.1,37.744A62.64,62.64,0,0,1,42.284,174.51a29.9,29.9,0,1,0-12.385.506l42.949,209.37a29.987,29.987,0,0,0,29.271,23.875H409.881a29.987,29.987,0,0,0,29.271-23.875L482.1,175.016a29.877,29.877,0,0,0-4.981-59.337ZM17,145.56a17.88,17.88,0,1,1,17.88,17.879A17.9,17.9,0,0,1,17,145.56ZM333.673,97.8a17.88,17.88,0,1,1,17.88,17.88A17.9,17.9,0,0,1,333.673,97.8Zm-173.16,17.88a17.88,17.88,0,1,1,17.88-17.88A17.9,17.9,0,0,1,160.513,115.679ZM427.4,381.974a17.944,17.944,0,0,1-17.515,14.287H102.119A17.944,17.944,0,0,1,84.6,381.974L80.2,360.5H431.8Zm6.867-33.473H77.737L49.994,213.258A74.641,74.641,0,0,0,175.761,180.03a101.4,101.4,0,0,0,160.495.065,74.638,74.638,0,0,0,125.75,33.164ZM477.12,163.439A17.88,17.88,0,1,1,495,145.56,17.9,17.9,0,0,1,477.12,163.439Z"/><path d="M405.48,432.081H106.52a6,6,0,1,0,0,12H405.48a6,6,0,0,0,0-12Z"/>
  </symbol>

  <symbol viewBox="0 0 512 512" id="ico-bubny">
	<path d="M488.363,250.485A429.993,429.993,0,0,1,353.1,158.9,429.993,429.993,0,0,1,261.515,23.637a6,6,0,0,0-11.03,0A429.993,429.993,0,0,1,158.9,158.9,429.993,429.993,0,0,1,23.637,250.485a6,6,0,0,0,0,11.03A430.01,430.01,0,0,1,158.9,353.1a430,430,0,0,1,91.581,135.267,6,6,0,0,0,11.03,0A431.914,431.914,0,0,1,488.363,261.515a6,6,0,0,0,0-11.03ZM344.61,344.61A441.778,441.778,0,0,0,256,471.284,441.778,441.778,0,0,0,167.39,344.61,441.764,441.764,0,0,0,40.716,256,441.764,441.764,0,0,0,167.39,167.39,441.764,441.764,0,0,0,256,40.716,441.764,441.764,0,0,0,344.61,167.39,441.764,441.764,0,0,0,471.284,256,441.764,441.764,0,0,0,344.61,344.61Z"/>
  </symbol>

  <symbol viewBox="0 0 512 512" id="ico-kresti">
	<path d="m383.28 159.955c.376-4 .565-8.048.565-12.095 0-70.502-57.351-127.86-127.845-127.86s-127.845 57.358-127.845 127.86c0 4.047.189 8.1.565 12.1a127.86 127.86 0 1 0 114.88 224.072l-51.664 99.2a6 6 0 0 0 7.549 8.342 151.524 151.524 0 0 1 113.028 0 6 6 0 0 0 7.549-8.342l-51.664-99.2a127.852 127.852 0 1 0 114.882-224.077zm-127.28 308.679a163.48 163.48 0 0 0 -46.448 6.751l46.448-89.185 46.448 89.181a163.48 163.48 0 0 0 -46.448-6.747zm89.612-70.617a116.1 116.1 0 0 1 -85.2-37.37 6 6 0 0 0 -8.83 0 115.855 115.855 0 1 1 -114.8-190.517 6 6 0 0 0 4.417-6.611 115.845 115.845 0 1 1 229.59 0 6 6 0 0 0 4.417 6.611 115.867 115.867 0 0 1 -29.6 227.887z"/>
  </symbol>

  <symbol viewBox="0 0 512 512" id="ico-chervi">
  	<path d="m351.185 38.9a139.778 139.778 0 0 0 -95.969 37.773 140.782 140.782 0 0 0 -193.982 4.891c-54.89 54.891-54.89 144.221 0 199.133l190.666 190.647a6 6 0 0 0 4.242 1.757h.014a6 6 0 0 0 4.247-1.777l190.346-192.042a140.816 140.816 0 0 0 -99.564-240.382zm91.061 231.915-186.121 187.785-186.404-186.388c-50.213-50.232-50.214-131.95 0-182.162a128.771 128.771 0 0 1 181.346-.8 6 6 0 0 0 8.451-.034l.587-.588a128.808 128.808 0 1 1 182.141 182.186z"/>
  </symbol>

  <symbol viewBox="0 0 512 512" id="ico-peaks">
  	<path d="m260.112 21.757a6 6 0 0 0 -4.242-1.757h-.014a6 6 0 0 0 -4.248 1.776l-172.268 173.806a128.028 128.028 0 0 0 162.792 196.206l-38.965 91.869a6 6 0 0 0 7.752 7.914 120.871 120.871 0 0 1 90.163 0 6 6 0 0 0 7.751-7.914l-39.749-93.718a128.026 128.026 0 0 0 163.591-14.608c49.9-49.9 49.9-131.109 0-181.029zm-40.655 454.225 36.543-86.159 36.543 86.159a132.571 132.571 0 0 0 -73.086 0zm204.733-109.135a115.977 115.977 0 0 1 -162.766 1.263 6 6 0 0 0 -3.938-1.69l-1.119-.045a6.057 6.057 0 0 0 -4.485 1.753 116.008 116.008 0 1 1 -164.04-164.079l168.047-169.549 168.3 168.283a116.154 116.154 0 0 1 .001 164.064z"/>
  </symbol>

</svg>