<?xml version="1.0" encoding="UTF-8" standalone="no"?>
<svg
   viewBox="0 0 1580 1580"
   version="1.1"
   id="svg271"
   sodipodi:docname="natalchart-2-i.svg"
   inkscape:version="1.1.1 (26b7af14f2, 2022-01-19)"
   width="1580"
   height="1580"
   xmlns:inkscape="http://www.inkscape.org/namespaces/inkscape"
   xmlns:sodipodi="http://sodipodi.sourceforge.net/DTD/sodipodi-0.dtd"
   xmlns="http://www.w3.org/2000/svg"
   xmlns:svg="http://www.w3.org/2000/svg">
  <sodipodi:namedview
     id="namedview273"
     pagecolor="#ffffff"
     bordercolor="#666666"
     borderopacity="1.0"
     inkscape:pageshadow="2"
     inkscape:pageopacity="0.0"
     inkscape:pagecheckerboard="0"
     showgrid="false"
     inkscape:zoom="0.12314815"
     inkscape:cx="1587.5188"
     inkscape:cy="1481.9549"
     inkscape:window-width="1288"
     inkscape:window-height="704"
     inkscape:window-x="72"
     inkscape:window-y="27"
     inkscape:window-maximized="1"
     inkscape:current-layer="svg271"
     width="1580px" />
  <defs
     id="defs6">
    <clipPath
       id="clipPath4">
      <rect
         width="244"
         height="321.73001"
         x="252.06"
         y="57.34"
         fill="#ffff00"
         stroke="#999999"
         stroke-width="1.014"
         rx="32.150002"
         id="rect2" />
    </clipPath>
  </defs>
  <path
     style="fill:#00ff00;stroke:#00ff00;stroke-width:1.98181;stroke-linecap:butt;stroke-linejoin:miter;stroke-miterlimit:4;stroke-dasharray:none;stroke-opacity:1"
     d="M 60.122682,789.89097 1519.8773,790.10903"
     id="path308" />
  <path
     style="fill:#00ff00;stroke:#00ff00;stroke-width:1.93896;stroke-linecap:butt;stroke-linejoin:miter;stroke-miterlimit:4;stroke-dasharray:none;stroke-opacity:1"
     d="M 284.3914,497.93611 1295.6086,1082.0639"
     id="path308-36" />
  <g
     aria-label="Запад"
     id="text222617-3-4"
     style="font-size:40px;line-height:1.25;font-family:AstrostudiyaFont;-inkscape-font-specification:AstrostudiyaFont">
    <path
       d="m 1409.2264,746.88306 q 0,-2.26563 -1.6601,-3.59375 -1.6406,-1.34766 -4.6289,-1.34766 -2.5,0 -4.1992,1.38672 -1.6797,1.36719 -1.6797,3.39844 h -3.75 q 0,-2.26563 1.2304,-4.0625 1.25,-1.79688 3.4766,-2.79297 2.2266,-1.01563 4.9219,-1.01563 4.7656,0 7.4023,2.14844 2.6367,2.12891 2.6367,5.9375 0,1.97266 -1.2109,3.59375 -1.2109,1.62109 -3.3789,2.55859 5.0195,1.67969 5.0195,6.66016 0,3.82813 -2.8515,6.07422 -2.8516,2.24609 -7.6172,2.24609 -2.8321,0 -5.1563,-0.99609 -2.3047,-1.01563 -3.5937,-2.87109 -1.2891,-1.85547 -1.2891,-4.41407 h 3.75 q 0,2.2461 1.7774,3.75 1.7773,1.48438 4.5117,1.48438 3.0664,0 4.8828,-1.42578 1.8359,-1.42578 1.8359,-3.76953 0,-5 -6.1914,-5.09766 h -3.5156 v -3.08594 h 3.4961 q 2.8516,-0.0586 4.3164,-1.28906 1.4648,-1.23047 1.4648,-3.47656 z"
       style="font-family:Roboto;-inkscape-font-specification:Roboto"
       id="path4942" />
    <path
       d="m 1430.8475,767.68384 q -0.3125,-0.625 -0.5078,-2.22656 -2.5195,2.61718 -6.0156,2.61718 -3.125,0 -5.1367,-1.75781 -1.9922,-1.77734 -1.9922,-4.49219 0,-3.30078 2.5,-5.11718 2.5195,-1.83594 7.0703,-1.83594 h 3.5156 v -1.66016 q 0,-1.89453 -1.1328,-3.00781 -1.1328,-1.13281 -3.3398,-1.13281 -1.9336,0 -3.2422,0.97656 -1.3086,0.97656 -1.3086,2.36328 h -3.6328 q 0,-1.58203 1.1133,-3.04687 1.1328,-1.48438 3.0468,-2.34375 1.9336,-0.85938 4.2383,-0.85938 3.6524,0 5.7227,1.83594 2.0703,1.8164 2.1484,5.01953 v 9.72656 q 0,2.91016 0.7422,4.62891 v 0.3125 z m -5.9961,-2.75391 q 1.6993,0 3.2227,-0.8789 1.5234,-0.87891 2.207,-2.28516 v -4.33594 h -2.832 q -6.6406,0 -6.6406,3.88672 0,1.69922 1.1328,2.65625 1.1328,0.95703 2.9101,0.95703 z"
       style="font-family:Roboto;-inkscape-font-specification:Roboto"
       id="path4944" />
    <path
       d="m 1456.8436,767.68384 h -3.6133 v -18.14453 h -9.7265 v 18.14453 h -3.6328 v -21.13281 h 16.9726 z"
       style="font-family:Roboto;-inkscape-font-specification:Roboto"
       id="path4946" />
    <path
       d="m 1475.6913,767.68384 q -0.3125,-0.625 -0.5078,-2.22656 -2.5196,2.61718 -6.0157,2.61718 -3.125,0 -5.1367,-1.75781 -1.9922,-1.77734 -1.9922,-4.49219 0,-3.30078 2.5,-5.11718 2.5196,-1.83594 7.0704,-1.83594 h 3.5156 v -1.66016 q 0,-1.89453 -1.1328,-3.00781 -1.1328,-1.13281 -3.3399,-1.13281 -1.9336,0 -3.2422,0.97656 -1.3086,0.97656 -1.3086,2.36328 h -3.6328 q 0,-1.58203 1.1133,-3.04687 1.1328,-1.48438 3.0469,-2.34375 1.9336,-0.85938 4.2383,-0.85938 3.6523,0 5.7226,1.83594 2.0703,1.8164 2.1485,5.01953 v 9.72656 q 0,2.91016 0.7421,4.62891 v 0.3125 z m -5.9961,-2.75391 q 1.6992,0 3.2226,-0.8789 1.5235,-0.87891 2.2071,-2.28516 v -4.33594 h -2.8321 q -6.6406,0 -6.6406,3.88672 0,1.69922 1.1328,2.65625 1.1328,0.95703 2.9102,0.95703 z"
       style="font-family:Roboto;-inkscape-font-specification:Roboto"
       id="path4948" />
    <path
       d="m 1484.2264,764.73462 1.25,-1.54297 q 2.1094,-2.73437 2.4024,-8.20312 l 0.332,-8.4375 h 13.6133 v 18.18359 h 2.7148 v 9.16016 h -3.6132 v -6.21094 h -14.7461 v 6.21094 h -3.6133 l 0.02,-9.16016 z m 4.2774,0 h 9.707 v -14.84375 h -6.5039 l -0.2148,5.03906 q -0.3321,6.3086 -2.9883,9.80469 z"
       style="font-family:Roboto;-inkscape-font-specification:Roboto"
       id="path4950" />
  </g>
  <path
     style="fill:#00ff00;stroke:#00ff00;stroke-width:1.97249;stroke-linecap:butt;stroke-linejoin:miter;stroke-miterlimit:4;stroke-dasharray:none;stroke-opacity:1"
     d="M 790.11369,96.616563 789.88631,1483.3834"
     id="path308-3" />
  <g
     id="text3359"
     style="font-size:72px;line-height:1.25;font-family:AstrostudiyaFont;-inkscape-font-specification:AstrostudiyaFont" />
  <g
     aria-label="I"
     id="text19855"
     style="font-size:72px;line-height:1.25;font-family:AstrostudiyaFont;-inkscape-font-specification:AstrostudiyaFont">
    <path
       d="m 187.40945,963.20087 v -1.33594 q 4.35938,0 5.55469,-1.19531 1.26563,-1.26563 1.26563,-5.13282 v -31.21875 q 0,-4.00781 -1.26563,-5.13281 -1.19531,-1.19531 -5.55469,-1.19531 v -1.33594 h 20.88282 v 1.33594 q -4.07813,0 -5.48438,1.19531 -1.40625,1.125 -1.40625,5.13281 v 31.21875 q 0,3.9375 1.40625,5.13282 1.40625,1.19531 5.48438,1.19531 v 1.33594 z"
       style="font-family:aakar;-inkscape-font-specification:aakar"
       id="path4938" />
  </g>
  <g
     aria-label="II"
     id="text78778"
     style="font-size:72px;line-height:1.25;font-family:AstrostudiyaFont;-inkscape-font-specification:AstrostudiyaFont">
    <path
       d="m 317.54779,1240.447 v -1.3359 q 4.35938,0 5.55469,-1.1953 1.26562,-1.2657 1.26562,-5.1328 v -31.2188 q 0,-4.0078 -1.26562,-5.1328 -1.19531,-1.1953 -5.55469,-1.1953 v -1.336 h 20.88281 v 1.336 q -4.07812,0 -5.48437,1.1953 -1.40625,1.125 -1.40625,5.1328 v 31.2188 q 0,3.9375 1.40625,5.1328 1.40625,1.1953 5.48437,1.1953 v 1.3359 z"
       style="font-family:aakar;-inkscape-font-specification:aakar"
       id="path4933" />
    <path
       d="m 340.96185,1240.447 v -1.3359 q 4.35938,0 5.55469,-1.1953 1.26563,-1.2657 1.26563,-5.1328 v -31.2188 q 0,-4.0078 -1.26563,-5.1328 -1.19531,-1.1953 -5.55469,-1.1953 v -1.336 h 20.88282 v 1.336 q -4.07813,0 -5.48438,1.1953 -1.40625,1.125 -1.40625,5.1328 v 31.2188 q 0,3.9375 1.40625,5.1328 1.40625,1.1953 5.48438,1.1953 v 1.3359 z"
       style="font-family:aakar;-inkscape-font-specification:aakar"
       id="path4935" />
  </g>
  <g
     aria-label="III"
     id="text89078"
     style="font-size:72px;line-height:1.25;font-family:AstrostudiyaFont;-inkscape-font-specification:AstrostudiyaFont">
    <path
       d="m 595.68213,1408.8174 v -1.336 q 4.35937,0 5.55469,-1.1953 1.26562,-1.2656 1.26562,-5.1328 v -31.2187 q 0,-4.0078 -1.26562,-5.1328 -1.19532,-1.1954 -5.55469,-1.1954 v -1.3359 h 20.88281 v 1.3359 q -4.07812,0 -5.48437,1.1954 -1.40625,1.125 -1.40625,5.1328 v 31.2187 q 0,3.9375 1.40625,5.1328 1.40625,1.1953 5.48437,1.1953 v 1.336 z"
       style="font-family:aakar;-inkscape-font-specification:aakar"
       id="path4926" />
    <path
       d="m 619.09619,1408.8174 v -1.336 q 4.35938,0 5.55469,-1.1953 1.26562,-1.2656 1.26562,-5.1328 v -31.2187 q 0,-4.0078 -1.26562,-5.1328 -1.19531,-1.1954 -5.55469,-1.1954 v -1.3359 H 639.979 v 1.3359 q -4.07812,0 -5.48437,1.1954 -1.40625,1.125 -1.40625,5.1328 v 31.2187 q 0,3.9375 1.40625,5.1328 1.40625,1.1953 5.48437,1.1953 v 1.336 z"
       style="font-family:aakar;-inkscape-font-specification:aakar"
       id="path4928" />
    <path
       d="m 642.51025,1408.8174 v -1.336 q 4.35938,0 5.55469,-1.1953 1.26563,-1.2656 1.26563,-5.1328 v -31.2187 q 0,-4.0078 -1.26563,-5.1328 -1.19531,-1.1954 -5.55469,-1.1954 v -1.3359 h 20.88282 v 1.3359 q -4.07813,0 -5.48438,1.1954 -1.40625,1.125 -1.40625,5.1328 v 31.2187 q 0,3.9375 1.40625,5.1328 1.40625,1.1953 5.48438,1.1953 v 1.336 z"
       style="font-family:aakar;-inkscape-font-specification:aakar"
       id="path4930" />
  </g>
  <g
     aria-label="IV"
     id="text101240"
     style="font-size:72px;line-height:1.25;font-family:AstrostudiyaFont;-inkscape-font-specification:AstrostudiyaFont">
    <path
       d="m 908.63373,1402.6989 v -1.336 q 4.35937,0 5.55469,-1.1953 1.26562,-1.2656 1.26562,-5.1328 v -31.2188 q 0,-4.0078 -1.26562,-5.1328 -1.19532,-1.1953 -5.55469,-1.1953 v -1.3359 h 20.88281 v 1.3359 q -4.07812,0 -5.48437,1.1953 -1.40625,1.125 -1.40625,5.1328 v 31.2188 q 0,3.9375 1.40625,5.1328 1.40625,1.1953 5.48437,1.1953 v 1.336 z"
       style="font-family:aakar;-inkscape-font-specification:aakar"
       id="path4921" />
    <path
       d="m 979.78998,1356.152 v 1.3359 q -2.46094,0 -3.65625,1.1953 -1.19531,1.1953 -2.8125,5.3438 l -15.60938,39.4453 h -1.05468 l -17.29688,-38.6016 q -2.03906,-4.5703 -3.51562,-5.9765 -1.47657,-1.4063 -3.9375,-1.4063 v -1.3359 h 18.70312 v 1.3359 q -3.09375,0 -4.21875,0.4922 -1.05469,0.4219 -1.05469,2.1094 0,0.9844 1.19532,3.7969 1.125,2.3906 1.6875,3.7265 l 10.61718,23.7656 10.33594,-25.8046 q 0.42188,-1.336 0.91406,-2.7422 0.42188,-1.5469 0.42188,-2.1094 0,-1.9688 -1.40625,-2.6016 -1.33594,-0.6328 -3.72656,-0.6328 v -1.3359 z"
       style="font-family:aakar;-inkscape-font-specification:aakar"
       id="path4923" />
  </g>
  <g
     aria-label="V"
     id="text111912"
     style="font-size:72px;line-height:1.25;font-family:AstrostudiyaFont;-inkscape-font-specification:AstrostudiyaFont">
    <path
       d="m 1250.411,1194.8597 v 1.336 q -2.4609,0 -3.6562,1.1953 -1.1954,1.1953 -2.8125,5.3437 l -15.6094,39.4454 h -1.0547 l -17.2969,-38.6016 q -2.039,-4.5703 -3.5156,-5.9766 -1.4766,-1.4062 -3.9375,-1.4062 v -1.336 h 18.7031 v 1.336 q -3.0937,0 -4.2187,0.4922 -1.0547,0.4218 -1.0547,2.1093 0,0.9844 1.1953,3.7969 1.125,2.3906 1.6875,3.7266 l 10.6172,23.7656 10.3359,-25.8047 q 0.4219,-1.3359 0.9141,-2.7422 0.4219,-1.5468 0.4219,-2.1093 0,-1.9688 -1.4063,-2.6016 -1.3359,-0.6328 -3.7266,-0.6328 v -1.336 z"
       style="font-family:aakar;-inkscape-font-specification:aakar"
       id="path4918" />
  </g>
  <g
     aria-label="VI"
     id="text118426"
     style="font-size:72px;line-height:1.25;font-family:AstrostudiyaFont;-inkscape-font-specification:AstrostudiyaFont">
    <path
       d="m 1391.6333,907.37189 v 1.33593 q -2.4609,0 -3.6562,1.19532 -1.1954,1.19531 -2.8125,5.34375 l -15.6094,39.44531 h -1.0547 l -17.2969,-38.60156 q -2.039,-4.57032 -3.5156,-5.97657 -1.4766,-1.40625 -3.9375,-1.40625 v -1.33593 h 18.7031 v 1.33593 q -3.0937,0 -4.2187,0.49219 -1.0547,0.42188 -1.0547,2.10938 0,0.98437 1.1953,3.79687 1.125,2.39063 1.6875,3.72656 l 10.6172,23.76563 10.3359,-25.80469 q 0.4219,-1.33594 0.9141,-2.74219 0.4219,-1.54687 0.4219,-2.10937 0,-1.96875 -1.4063,-2.60156 -1.3359,-0.63282 -3.7266,-0.63282 v -1.33593 z"
       style="font-family:aakar;-inkscape-font-specification:aakar"
       id="path4913" />
    <path
       d="m 1394.6567,953.91876 v -1.33594 q 4.3594,0 5.5547,-1.19531 1.2657,-1.26562 1.2657,-5.13281 v -31.21875 q 0,-4.00781 -1.2657,-5.13281 -1.1953,-1.19532 -5.5547,-1.19532 v -1.33593 h 20.8829 v 1.33593 q -4.0782,0 -5.4844,1.19532 -1.4063,1.125 -1.4063,5.13281 v 31.21875 q 0,3.9375 1.4063,5.13281 1.4062,1.19531 5.4844,1.19531 v 1.33594 z"
       style="font-family:aakar;-inkscape-font-specification:aakar"
       id="path4915" />
  </g>
  <g
     aria-label="VII"
     id="text124040"
     style="font-size:72px;line-height:1.25;font-family:AstrostudiyaFont;-inkscape-font-specification:AstrostudiyaFont">
    <path
       d="m 1384.0472,597.57288 v 1.33593 q -2.4609,0 -3.6562,1.19532 -1.1953,1.19531 -2.8125,5.34375 l -15.6094,39.44531 h -1.0547 l -17.2968,-38.60156 q -2.0391,-4.57032 -3.5157,-5.97657 -1.4765,-1.40625 -3.9375,-1.40625 v -1.33593 h 18.7032 v 1.33593 q -3.0938,0 -4.2188,0.49219 -1.0547,0.42188 -1.0547,2.10938 0,0.98437 1.1953,3.79687 1.125,2.39063 1.6875,3.72656 l 10.6172,23.76563 10.336,-25.80469 q 0.4218,-1.33594 0.914,-2.74219 0.4219,-1.54687 0.4219,-2.10937 0,-1.96875 -1.4063,-2.60156 -1.3359,-0.63282 -3.7265,-0.63282 v -1.33593 z"
       style="font-family:aakar;-inkscape-font-specification:aakar"
       id="path4906" />
    <path
       d="m 1387.0707,644.11975 v -1.33594 q 4.3594,0 5.5547,-1.19531 1.2656,-1.26562 1.2656,-5.13281 v -31.21875 q 0,-4.00781 -1.2656,-5.13281 -1.1953,-1.19532 -5.5547,-1.19532 v -1.33593 h 20.8828 v 1.33593 q -4.0781,0 -5.4844,1.19532 -1.4062,1.125 -1.4062,5.13281 v 31.21875 q 0,3.9375 1.4062,5.13281 1.4063,1.19531 5.4844,1.19531 v 1.33594 z"
       style="font-family:aakar;-inkscape-font-specification:aakar"
       id="path4908" />
    <path
       d="m 1410.4847,644.11975 v -1.33594 q 4.3594,0 5.5547,-1.19531 1.2657,-1.26562 1.2657,-5.13281 v -31.21875 q 0,-4.00781 -1.2657,-5.13281 -1.1953,-1.19532 -5.5547,-1.19532 v -1.33593 h 20.8829 v 1.33593 q -4.0782,0 -5.4844,1.19532 -1.4063,1.125 -1.4063,5.13281 v 31.21875 q 0,3.9375 1.4063,5.13281 1.4062,1.19531 5.4844,1.19531 v 1.33594 z"
       style="font-family:aakar;-inkscape-font-specification:aakar"
       id="path4910" />
  </g>
  <g
     aria-label="VIII"
     id="text129684"
     style="font-size:72px;line-height:1.25;font-family:AstrostudiyaFont;-inkscape-font-specification:AstrostudiyaFont">
    <path
       d="m 1222.8379,332.20367 v 1.33594 q -2.4609,0 -3.6563,1.19531 -1.1953,1.19532 -2.8125,5.34375 l -15.6093,39.44532 h -1.0547 l -17.2969,-38.60157 q -2.0391,-4.57031 -3.5156,-5.97656 -1.4766,-1.40625 -3.9375,-1.40625 v -1.33594 h 18.7031 v 1.33594 q -3.0937,0 -4.2187,0.49219 -1.0547,0.42187 -1.0547,2.10937 0,0.98438 1.1953,3.79688 1.125,2.39062 1.6875,3.72656 l 10.6172,23.76563 10.3359,-25.80469 q 0.4219,-1.33594 0.9141,-2.74219 0.4218,-1.54687 0.4218,-2.10937 0,-1.96875 -1.4062,-2.60157 -1.3359,-0.63281 -3.7266,-0.63281 v -1.33594 z"
       style="font-family:aakar;-inkscape-font-specification:aakar"
       id="path4897" />
    <path
       d="m 1225.8613,378.75055 v -1.33594 q 4.3594,0 5.5547,-1.19531 1.2656,-1.26563 1.2656,-5.13281 v -31.21875 q 0,-4.00782 -1.2656,-5.13282 -1.1953,-1.19531 -5.5547,-1.19531 v -1.33594 h 20.8828 v 1.33594 q -4.0781,0 -5.4843,1.19531 -1.4063,1.125 -1.4063,5.13282 v 31.21875 q 0,3.9375 1.4063,5.13281 1.4062,1.19531 5.4843,1.19531 v 1.33594 z"
       style="font-family:aakar;-inkscape-font-specification:aakar"
       id="path4899" />
    <path
       d="m 1249.2754,378.75055 v -1.33594 q 4.3594,0 5.5547,-1.19531 1.2656,-1.26563 1.2656,-5.13281 v -31.21875 q 0,-4.00782 -1.2656,-5.13282 -1.1953,-1.19531 -5.5547,-1.19531 v -1.33594 h 20.8828 v 1.33594 q -4.0781,0 -5.4844,1.19531 -1.4062,1.125 -1.4062,5.13282 v 31.21875 q 0,3.9375 1.4062,5.13281 1.4063,1.19531 5.4844,1.19531 v 1.33594 z"
       style="font-family:aakar;-inkscape-font-specification:aakar"
       id="path4901" />
    <path
       d="m 1272.6895,378.75055 v -1.33594 q 4.3593,0 5.5546,-1.19531 1.2657,-1.26563 1.2657,-5.13281 v -31.21875 q 0,-4.00782 -1.2657,-5.13282 -1.1953,-1.19531 -5.5546,-1.19531 v -1.33594 h 20.8828 v 1.33594 q -4.0782,0 -5.4844,1.19531 -1.4063,1.125 -1.4063,5.13282 v 31.21875 q 0,3.9375 1.4063,5.13281 1.4062,1.19531 5.4844,1.19531 v 1.33594 z"
       style="font-family:aakar;-inkscape-font-specification:aakar"
       id="path4903" />
  </g>
  <g
     aria-label="IX"
     id="text136492"
     style="font-size:72px;line-height:1.25;font-family:AstrostudiyaFont;-inkscape-font-specification:AstrostudiyaFont">
    <path
       d="m 910.62091,217.11597 v -1.33594 q 4.35938,0 5.55469,-1.19531 1.26562,-1.26563 1.26562,-5.13282 v -31.21875 q 0,-4.00781 -1.26562,-5.13281 -1.19531,-1.19531 -5.55469,-1.19531 v -1.33594 h 20.88281 v 1.33594 q -4.07812,0 -5.48437,1.19531 -1.40625,1.125 -1.40625,5.13281 v 31.21875 q 0,3.9375 1.40625,5.13282 1.40625,1.19531 5.48437,1.19531 v 1.33594 z"
       style="font-family:aakar;-inkscape-font-specification:aakar"
       id="path4892" />
    <path
       d="m 981.70685,170.56909 v 1.33594 q -3.09375,0 -4.78125,0.98437 -2.17969,1.26563 -5.69531,5.625 l -10.26563,12.79688 13.5,19.26562 q 2.10938,3.02344 3.51563,4.14844 1.47656,1.05469 4.28906,1.05469 v 1.33594 h -20.88281 v -1.33594 q 2.46093,0 3.23437,-0.14063 2.17969,-0.35156 2.17969,-2.25 0,-0.84375 -1.33594,-3.16406 -0.91406,-1.54687 -2.25,-3.51562 l -6.67969,-9.84375 -8.36718,10.40625 q -1.75782,2.17968 -2.39063,3.09375 -1.26562,1.82812 -1.26562,2.8125 0,1.47656 1.47656,2.03906 1.47656,0.5625 3.86719,0.5625 v 1.33594 h -16.38282 v -1.33594 q 3.16407,0 5.55469,-2.46094 0.77344,-0.77344 4.64063,-5.55469 l 11.03906,-13.57031 -7.66406,-11.25 q -4.28907,-6.25781 -7.52344,-9.35156 -1.75781,-1.6875 -5.20313,-1.6875 v -1.33594 h 21.23438 v 1.33594 q -2.8125,0 -3.23438,0.0703 -2.10937,0.35156 -2.10937,2.17969 0,1.05469 1.26562,3.30469 1.33594,2.25 4.71094,7.10156 l 2.95313,4.14844 7.94531,-9.70313 q 0.84375,-1.125 1.54687,-2.03906 1.26563,-1.75781 1.26563,-2.74219 0,-1.47656 -1.33594,-1.89844 -1.26562,-0.42187 -3.58594,-0.42187 v -1.33594 z"
       style="font-family:aakar;-inkscape-font-specification:aakar"
       id="path4894" />
  </g>
  <g
     aria-label="X"
     id="text140588"
     style="font-size:72px;line-height:1.25;font-family:AstrostudiyaFont;-inkscape-font-specification:AstrostudiyaFont">
    <path
       d="m 665.125,164.86017 v 1.33594 q -3.09375,0 -4.78125,0.98437 -2.17969,1.26563 -5.69531,5.625 l -10.26563,12.79688 13.5,19.26562 q 2.10938,3.02344 3.51563,4.14844 1.47656,1.05469 4.28906,1.05469 v 1.33593 h -20.88281 v -1.33593 q 2.46093,0 3.23437,-0.14063 2.17969,-0.35156 2.17969,-2.25 0,-0.84375 -1.33594,-3.16406 -0.91406,-1.54688 -2.25,-3.51563 l -6.67969,-9.84375 -8.36718,10.40625 q -1.75782,2.17969 -2.39063,3.09375 -1.26562,1.82813 -1.26562,2.8125 0,1.47657 1.47656,2.03907 1.47656,0.5625 3.86719,0.5625 v 1.33593 h -16.38282 v -1.33593 q 3.16407,0 5.55469,-2.46094 0.77344,-0.77344 4.64063,-5.55469 l 11.03906,-13.57031 -7.66406,-11.25 q -4.28907,-6.25781 -7.52344,-9.35156 -1.75781,-1.6875 -5.20313,-1.6875 v -1.33594 h 21.23438 v 1.33594 q -2.8125,0 -3.23438,0.0703 -2.10937,0.35156 -2.10937,2.17969 0,1.05468 1.26562,3.30468 1.33594,2.25 4.71094,7.10157 l 2.95313,4.14843 7.94531,-9.70312 q 0.84375,-1.125 1.54687,-2.03906 1.26563,-1.75782 1.26563,-2.74219 0,-1.47656 -1.33594,-1.89844 -1.26562,-0.42187 -3.58594,-0.42187 v -1.33594 z"
       style="font-family:aakar;-inkscape-font-specification:aakar"
       id="path4889" />
  </g>
  <g
     aria-label="XI"
     id="text146994"
     style="font-size:72px;line-height:1.25;font-family:AstrostudiyaFont;-inkscape-font-specification:AstrostudiyaFont">
    <path
       d="m 370.84906,317.90967 v 1.33594 q -3.09375,0 -4.78125,0.98437 -2.17969,1.26563 -5.69531,5.625 l -10.26563,12.79688 13.5,19.26562 q 2.10938,3.02344 3.51563,4.14844 1.47656,1.05469 4.28906,1.05469 v 1.33593 h -20.88281 v -1.33593 q 2.46094,0 3.23437,-0.14063 2.17969,-0.35156 2.17969,-2.25 0,-0.84375 -1.33594,-3.16406 -0.91406,-1.54688 -2.25,-3.51563 l -6.67968,-9.84375 -8.36719,10.40625 q -1.75781,2.17969 -2.39063,3.09375 -1.26562,1.82813 -1.26562,2.8125 0,1.47657 1.47656,2.03907 1.47656,0.5625 3.86719,0.5625 v 1.33593 h -16.38281 v -1.33593 q 3.16406,0 5.55468,-2.46094 0.77344,-0.77344 4.64063,-5.55469 l 11.03906,-13.57031 -7.66406,-11.25 q -4.28906,-6.25781 -7.52344,-9.35156 -1.75781,-1.6875 -5.20312,-1.6875 v -1.33594 h 21.23437 v 1.33594 q -2.8125,0 -3.23437,0.0703 -2.10938,0.35156 -2.10938,2.17969 0,1.05468 1.26563,3.30468 1.33593,2.25 4.71093,7.10157 l 2.95313,4.14843 7.94531,-9.70312 q 0.84375,-1.125 1.54688,-2.03906 1.26562,-1.75782 1.26562,-2.74219 0,-1.47656 -1.33594,-1.89844 -1.26562,-0.42187 -3.58593,-0.42187 v -1.33594 z"
       style="font-family:aakar;-inkscape-font-specification:aakar"
       id="path4884" />
    <path
       d="m 373.94281,364.45654 v -1.33593 q 4.35938,0 5.55469,-1.19532 1.26562,-1.26562 1.26562,-5.13281 v -31.21875 q 0,-4.00781 -1.26562,-5.13281 -1.19531,-1.19531 -5.55469,-1.19531 v -1.33594 h 20.88281 v 1.33594 q -4.07812,0 -5.48437,1.19531 -1.40625,1.125 -1.40625,5.13281 v 31.21875 q 0,3.9375 1.40625,5.13281 1.40625,1.19532 5.48437,1.19532 v 1.33593 z"
       style="font-family:aakar;-inkscape-font-specification:aakar"
       id="path4886" />
  </g>
  <g
     aria-label="XII"
     id="text152608"
     style="font-size:72px;line-height:1.25;font-family:AstrostudiyaFont;-inkscape-font-specification:AstrostudiyaFont">
    <path
       d="m 186.24652,652.00635 h -18.49219 v -3.09375 l 4.14844,-0.42188 q 1.01953,-0.14062 1.01953,-1.01953 0,-0.24609 -0.14062,-0.49219 l -9.5625,-15.04687 -11.10938,15.25781 q -0.17578,0.28125 -0.17578,0.5625 0,0.70313 1.05469,0.8086 l 4.32422,0.35156 v 3.09375 h -15.29297 v -3.09375 l 4.32422,-0.87891 14.48437,-19.86328 -13.11328,-20.53125 -4.74609,-0.84375 v -3.09375 h 18.07031 v 3.09375 l -3.65625,0.35156 q -1.05469,0.0352 -1.05469,0.84375 0,0.31641 0.17578,0.59766 l 8.78907,13.53516 9.70312,-13.32422 q 0.21094,-0.28125 0.21094,-0.5625 0,-0.87891 -0.98438,-0.94922 l -3.6914,-0.49219 v -3.09375 h 15.08203 v 3.09375 l -4.64063,0.70313 -13.35937,18.38671 14.16797,22.14844 4.46484,0.87891 z"
       style="font-family:'Abyssinica SIL';-inkscape-font-specification:'Abyssinica SIL'"
       id="path4877" />
    <path
       d="m 208.32465,652.00635 h -18.98438 v -3.09375 l 4.28906,-0.28125 q 0.77344,-0.0703 1.125,-0.5625 0.38672,-0.49219 0.38672,-1.01953 v -38.39063 q 0,-0.52734 -0.38672,-0.98437 -0.35156,-0.49219 -1.125,-0.52735 l -4.28906,-0.28125 v -3.16406 h 18.98438 v 3.16406 l -4.39454,0.28125 q -0.73828,0.0352 -1.125,0.52735 -0.38671,0.45703 -0.38671,0.98437 v 38.39063 q 0,0.52734 0.38671,1.01953 0.38672,0.49219 1.125,0.5625 l 4.39454,0.28125 z"
       style="font-family:'Abyssinica SIL';-inkscape-font-specification:'Abyssinica SIL'"
       id="path4879" />
    <path
       d="M 232.09027,652.00635 H 213.1059 v -3.09375 l 4.28906,-0.28125 q 0.77344,-0.0703 1.125,-0.5625 0.38672,-0.49219 0.38672,-1.01953 v -38.39063 q 0,-0.52734 -0.38672,-0.98437 -0.35156,-0.49219 -1.125,-0.52735 l -4.28906,-0.28125 v -3.16406 h 18.98437 v 3.16406 l -4.39453,0.28125 q -0.73828,0.0352 -1.125,0.52735 -0.38672,0.45703 -0.38672,0.98437 v 38.39063 q 0,0.52734 0.38672,1.01953 0.38672,0.49219 1.125,0.5625 l 4.39453,0.28125 z"
       style="font-family:'Abyssinica SIL';-inkscape-font-specification:'Abyssinica SIL'"
       id="path4881" />
  </g>
  <g
     aria-label="Юг"
     id="text189413"
     style="font-size:40px;line-height:1.25;font-family:AstrostudiyaFont;-inkscape-font-specification:AstrostudiyaFont">
    <path
       d="m 796.39648,54.821915 q 0,4.179687 -1.40625,7.304687 -1.40625,3.105469 -3.98437,4.746094 -2.57813,1.640625 -6.01563,1.640625 -3.24218,0 -5.82031,-1.5625 -2.55859,-1.5625 -4.02344,-4.472656 -1.44531,-2.910157 -1.60156,-6.796875 h -4.08203 v 12.441406 h -3.75 v -28.4375 h 3.75 v 13.046875 h 4.0625 q 0.0586,-4.023438 1.46484,-7.050781 1.40625,-3.046875 4.00391,-4.707032 2.59766,-1.679687 5.95703,-1.679687 3.41797,0 6.01563,1.660156 2.61718,1.640625 4.02343,4.785156 1.40625,3.125 1.40625,7.285157 z m -3.73046,-1.835938 q 0,-5.058594 -2.03125,-7.753906 -2.03125,-2.714844 -5.6836,-2.714844 -3.55469,0 -5.60547,2.714844 -2.03125,2.695312 -2.08984,7.5 v 2.089844 q 0,4.902343 2.05078,7.714843 2.07031,2.792969 5.68359,2.792969 3.63282,0 5.625,-2.636719 1.99219,-2.65625 2.05079,-7.597656 z"
       style="font-family:Roboto;-inkscape-font-specification:Roboto"
       id="path4872" />
    <path
       d="m 814.28711,49.978165 h -9.74609 V 68.122696 H 800.9082 V 46.989883 h 13.37891 z"
       style="font-family:Roboto;-inkscape-font-specification:Roboto"
       id="path4874" />
  </g>
  <g
     aria-label="Север"
     id="text222617"
     style="font-size:40px;line-height:1.25;font-family:AstrostudiyaFont;-inkscape-font-specification:AstrostudiyaFont">
    <path
       d="m 757.12891,1540.8539 q -0.52735,4.5117 -3.33985,6.9726 -2.79297,2.4414 -7.4414,2.4414 -5.03907,0 -8.08594,-3.6132 -3.02735,-3.6133 -3.02735,-9.668 v -2.7344 q 0,-3.9648 1.40625,-6.9726 1.42579,-3.0078 4.02344,-4.6094 2.59766,-1.6211 6.01563,-1.6211 4.53125,0 7.26562,2.5391 2.73438,2.5195 3.1836,6.9921 h -3.76954 q -0.48828,-3.3984 -2.1289,-4.9218 -1.6211,-1.5235 -4.55078,-1.5235 -3.59375,0 -5.64453,2.6563 -2.03125,2.6562 -2.03125,7.5586 v 2.7539 q 0,4.6289 1.93359,7.3633 1.93359,2.7343 5.41016,2.7343 3.125,0 4.78515,-1.4062 1.67969,-1.4258 2.22656,-4.9414 z"
       style="font-family:Roboto;-inkscape-font-specification:Roboto"
       id="path4861" />
    <path
       d="m 770.44922,1550.2679 q -4.29688,0 -6.99219,-2.8125 -2.69531,-2.832 -2.69531,-7.5585 v -0.6641 q 0,-3.1445 1.1914,-5.6055 1.21094,-2.4804 3.35938,-3.8672 2.16797,-1.4062 4.6875,-1.4062 4.12109,0 6.40625,2.7148 2.28516,2.7149 2.28516,7.7735 v 1.5039 H 764.375 q 0.0781,3.125 1.81641,5.0586 1.75781,1.914 4.45312,1.914 1.91406,0 3.24219,-0.7812 1.32812,-0.7813 2.32422,-2.0703 l 2.20703,1.7187 q -2.65625,4.082 -7.96875,4.082 z M 770,1531.3226 q -2.1875,0 -3.67188,1.6016 -1.48437,1.582 -1.83593,4.4531 h 10.58593 v -0.2734 q -0.15625,-2.7539 -1.48437,-4.2578 -1.32813,-1.5235 -3.59375,-1.5235 z"
       style="font-family:Roboto;-inkscape-font-specification:Roboto"
       id="path4863" />
    <path
       d="m 783.20312,1549.8773 v -21.1328 h 8.24219 q 4.21875,0 6.46485,1.4844 2.26562,1.4648 2.26562,4.3164 0,1.4648 -0.87891,2.6562 -0.8789,1.1719 -2.59765,1.7969 1.91406,0.4492 3.0664,1.7578 1.17188,1.3086 1.17188,3.125 0,2.9102 -2.14844,4.4532 -2.1289,1.5429 -6.03515,1.5429 z m 3.61329,-9.2773 v 6.3672 h 5.97656 q 2.26562,0 3.3789,-0.8399 1.13282,-0.8398 1.13282,-2.3633 0,-3.164 -4.64844,-3.164 z m 0,-2.8906 h 4.66796 q 5.07813,0 5.07813,-2.9688 0,-2.9687 -4.80469,-3.0664 h -4.9414 z"
       style="font-family:Roboto;-inkscape-font-specification:Roboto"
       id="path4865" />
    <path
       d="m 814.49219,1550.2679 q -4.29688,0 -6.99219,-2.8125 -2.69531,-2.832 -2.69531,-7.5585 v -0.6641 q 0,-3.1445 1.1914,-5.6055 1.21094,-2.4804 3.35938,-3.8672 2.16797,-1.4062 4.6875,-1.4062 4.12109,0 6.40625,2.7148 2.28515,2.7149 2.28515,7.7735 v 1.5039 h -14.3164 q 0.0781,3.125 1.8164,5.0586 1.75782,1.914 4.45313,1.914 1.91406,0 3.24219,-0.7812 1.32812,-0.7813 2.32422,-2.0703 l 2.20703,1.7187 q -2.65625,4.082 -7.96875,4.082 z m -0.44922,-18.9453 q -2.1875,0 -3.67188,1.6016 -1.48437,1.582 -1.83593,4.4531 h 10.58593 v -0.2734 q -0.15625,-2.7539 -1.48437,-4.2578 -1.32813,-1.5235 -3.59375,-1.5235 z"
       style="font-family:Roboto;-inkscape-font-specification:Roboto"
       id="path4867" />
    <path
       d="m 844.76562,1539.5453 q 0,4.8242 -2.20703,7.7734 -2.20703,2.9492 -5.97656,2.9492 -3.84766,0 -6.05469,-2.4414 v 10.1758 h -3.61328 v -29.2578 h 3.30078 l 0.17578,2.3438 q 2.20704,-2.7344 6.13282,-2.7344 3.80859,0 6.01562,2.8711 2.22656,2.8711 2.22656,7.9883 z m -3.61328,-0.4102 q 0,-3.5742 -1.52343,-5.6445 -1.52344,-2.0703 -4.17969,-2.0703 -3.28125,0 -4.92188,2.9101 v 10.0977 q 1.6211,2.8906 4.96094,2.8906 2.59766,0 4.12109,-2.0508 1.54297,-2.0703 1.54297,-6.1328 z"
       style="font-family:Roboto;-inkscape-font-specification:Roboto"
       id="path4869" />
  </g>
  <g
     aria-label="Восток"
     id="text222617-3"
     style="font-size:40px;line-height:1.25;font-family:AstrostudiyaFont;-inkscape-font-specification:AstrostudiyaFont">
    <path
       d="m 38.733826,846.77612 v -28.4375 h 9.296875 q 4.628906,0 6.953125,1.91407 2.34375,1.91406 2.34375,5.66406 0,1.99219 -1.132813,3.53515 -1.132812,1.52344 -3.085937,2.36329 2.304687,0.64453 3.632812,2.46093 1.347656,1.79688 1.347656,4.29688 0,3.82812 -2.480468,6.01562 -2.480469,2.1875 -7.011719,2.1875 z m 3.75,-13.30078 v 10.23438 h 6.191406 q 2.617187,0 4.121094,-1.34766 1.523437,-1.36719 1.523437,-3.75 0,-5.13672 -5.585937,-5.13672 z m 0,-3.00781 h 5.664062 q 2.460938,0 3.925781,-1.23047 1.484375,-1.23047 1.484375,-3.33984 0,-2.34375 -1.367187,-3.39844 -1.367188,-1.07422 -4.160156,-1.07422 h -5.546875 z"
       style="font-family:Roboto;-inkscape-font-specification:Roboto"
       id="path4848" />
    <path
       d="m 62.112732,836.0144 q 0,-3.10546 1.210937,-5.58593 1.230469,-2.48047 3.398438,-3.82813 2.1875,-1.34765 4.980469,-1.34765 4.316406,0 6.972656,2.98828 2.675781,2.98828 2.675781,7.94922 v 0.2539 q 0,3.08594 -1.191406,5.54688 -1.171875,2.4414 -3.378906,3.80859 -2.1875,1.36719 -5.039063,1.36719 -4.296875,0 -6.972656,-2.98828 -2.65625,-2.98828 -2.65625,-7.91016 z m 3.632812,0.42969 q 0,3.51563 1.621094,5.64453 1.640625,2.12891 4.375,2.12891 2.753906,0 4.375,-2.14844 1.621094,-2.16797 1.621094,-6.05469 0,-3.47656 -1.660156,-5.625 -1.640625,-2.16796 -4.375,-2.16796 -2.675782,0 -4.316407,2.1289 -1.640625,2.12891 -1.640625,6.09375 z"
       style="font-family:Roboto;-inkscape-font-specification:Roboto"
       id="path4850" />
    <path
       d="m 94.358826,844.21753 q 1.933593,0 3.378906,-1.17188 1.445312,-1.17187 1.601562,-2.92968 h 3.417966 q -0.0977,1.8164 -1.25,3.45703 -1.15234,1.64062 -3.085934,2.61719 -1.914063,0.97656 -4.0625,0.97656 -4.316407,0 -6.875,-2.8711 -2.539063,-2.89062 -2.539063,-7.89062 v -0.60547 q 0,-3.08594 1.132813,-5.48828 1.132812,-2.40234 3.242187,-3.73047 2.128906,-1.32812 5.019531,-1.32812 3.554688,0 5.898436,2.1289 2.36328,2.12891 2.51953,5.52735 h -3.417966 q -0.15625,-2.05079 -1.5625,-3.35938 -1.386718,-1.32812 -3.4375,-1.32812 -2.753906,0 -4.277343,1.99218 -1.503907,1.97266 -1.503907,5.72266 v 0.68359 q 0,3.65235 1.503907,5.625 1.503906,1.97266 4.296875,1.97266 z"
       style="font-family:Roboto;-inkscape-font-specification:Roboto"
       id="path4852" />
    <path
       d="m 122.52289,828.573 h -7.08985 v 18.20312 h -3.61328 V 828.573 h -6.95312 v -2.92969 h 17.65625 z"
       style="font-family:Roboto;-inkscape-font-specification:Roboto"
       id="path4854" />
    <path
       d="m 124.26117,836.0144 q 0,-3.10546 1.21094,-5.58593 1.23047,-2.48047 3.39843,-3.82813 2.1875,-1.34765 4.98047,-1.34765 4.31641,0 6.97266,2.98828 2.67578,2.98828 2.67578,7.94922 v 0.2539 q 0,3.08594 -1.19141,5.54688 -1.17187,2.4414 -3.3789,3.80859 -2.1875,1.36719 -5.03906,1.36719 -4.29688,0 -6.97266,-2.98828 -2.65625,-2.98828 -2.65625,-7.91016 z m 3.63281,0.42969 q 0,3.51563 1.6211,5.64453 1.64062,2.12891 4.375,2.12891 2.7539,0 4.375,-2.14844 1.62109,-2.16797 1.62109,-6.05469 0,-3.47656 -1.66016,-5.625 -1.64062,-2.16796 -4.375,-2.16796 -2.67578,0 -4.3164,2.1289 -1.64063,2.12891 -1.64063,6.09375 z"
       style="font-family:Roboto;-inkscape-font-specification:Roboto"
       id="path4856" />
    <path
       d="m 154.61273,837.77222 h -2.63672 v 9.0039 h -3.63281 v -21.13281 h 3.63281 v 8.94531 h 2.36328 l 7.10938,-8.94531 h 4.375 l -8.35938,10.15625 9.0625,10.97656 h -4.58984 z"
       style="font-family:Roboto;-inkscape-font-specification:Roboto"
       id="path4858" />
  </g>
  <g
     aria-label="Асцендент"
     id="text305669"
     style="font-size:40px;line-height:1.25;font-family:AstrostudiyaFont;-inkscape-font-specification:AstrostudiyaFont">
    <path
       d="M 101.12659,762.46912 H 89.212524 l -2.675781,7.42187 h -3.867187 l 10.859375,-28.4375 h 3.28125 l 10.878909,28.4375 h -3.84766 z m -10.781253,-3.08594 h 9.667973 L 95.169556,746.0824 Z"
       style="font-family:Roboto;-inkscape-font-specification:Roboto;fill:#008000"
       id="path4829" />
    <path
       d="m 119.42737,767.3324 q 1.93359,0 3.3789,-1.17188 1.44532,-1.17187 1.60157,-2.92969 h 3.41797 q -0.0977,1.81641 -1.25,3.45704 -1.15235,1.64062 -3.08594,2.61718 -1.91406,0.97657 -4.0625,0.97657 -4.31641,0 -6.875,-2.8711 -2.53906,-2.89062 -2.53906,-7.89062 v -0.60547 q 0,-3.08594 1.13281,-5.48828 1.13281,-2.40235 3.24219,-3.73047 2.1289,-1.32813 5.01953,-1.32813 3.55468,0 5.89843,2.12891 2.36329,2.12891 2.51954,5.52734 h -3.41797 q -0.15625,-2.05078 -1.5625,-3.35937 -1.38672,-1.32813 -3.4375,-1.32813 -2.75391,0 -4.27735,1.99219 -1.5039,1.97266 -1.5039,5.72266 v 0.68359 q 0,3.65234 1.5039,5.625 1.50391,1.97266 4.29688,1.97266 z"
       style="font-family:Roboto;-inkscape-font-specification:Roboto;fill:#008000"
       id="path4831" />
    <path
       d="m 132.20081,748.75818 h 3.63281 v 18.18359 h 9.72656 v -18.18359 h 3.61328 v 18.18359 h 2.51953 l -0.35156,9.21875 h -3.24219 v -6.26953 h -15.89843 z"
       style="font-family:Roboto;-inkscape-font-specification:Roboto;fill:#008000"
       id="path4833" />
    <path
       d="m 164.34924,770.28162 q -4.29687,0 -6.99218,-2.8125 -2.69532,-2.83204 -2.69532,-7.5586 v -0.66406 q 0,-3.14453 1.19141,-5.60547 1.21094,-2.48047 3.35937,-3.86719 2.16797,-1.40625 4.6875,-1.40625 4.1211,0 6.40625,2.71485 2.28516,2.71484 2.28516,7.77343 v 1.50391 h -14.31641 q 0.0781,3.125 1.81641,5.05859 1.75781,1.91407 4.45313,1.91407 1.91406,0 3.24218,-0.78125 1.32813,-0.78125 2.32422,-2.07032 l 2.20703,1.71875 q -2.65625,4.08204 -7.96875,4.08204 z m -0.44922,-18.94532 q -2.1875,0 -3.67187,1.60157 -1.48438,1.58203 -1.83594,4.45312 h 10.58594 v -0.27344 q -0.15625,-2.7539 -1.48438,-4.25781 -1.32812,-1.52344 -3.59375,-1.52344 z"
       style="font-family:Roboto;-inkscape-font-specification:Roboto;fill:#008000"
       id="path4835" />
    <path
       d="m 194.03674,769.89099 h -3.61328 v -9.02344 h -9.70703 v 9.02344 h -3.63281 v -21.13281 h 3.63281 v 9.16015 h 9.70703 v -9.16015 h 3.61328 z"
       style="font-family:Roboto;-inkscape-font-specification:Roboto;fill:#008000"
       id="path4837" />
    <path
       d="m 199.66174,766.94177 1.25,-1.54297 q 2.10938,-2.73437 2.40235,-8.20312 l 0.33203,-8.4375 h 13.61328 v 18.18359 h 2.71484 v 9.16016 h -3.61328 v -6.21094 h -14.74609 v 6.21094 h -3.61328 l 0.0195,-9.16016 z m 4.27735,0 h 9.70703 v -14.84375 h -6.50391 l -0.21484,5.03906 q -0.33203,6.3086 -2.98828,9.80469 z"
       style="font-family:Roboto;-inkscape-font-specification:Roboto;fill:#008000"
       id="path4839" />
    <path
       d="m 232.74768,770.28162 q -4.29687,0 -6.99219,-2.8125 -2.69531,-2.83204 -2.69531,-7.5586 v -0.66406 q 0,-3.14453 1.19141,-5.60547 1.21093,-2.48047 3.35937,-3.86719 2.16797,-1.40625 4.6875,-1.40625 4.1211,0 6.40625,2.71485 2.28516,2.71484 2.28516,7.77343 v 1.50391 h -14.31641 q 0.0781,3.125 1.81641,5.05859 1.75781,1.91407 4.45312,1.91407 1.91407,0 3.24219,-0.78125 1.32813,-0.78125 2.32422,-2.07032 l 2.20703,1.71875 q -2.65625,4.08204 -7.96875,4.08204 z m -0.44922,-18.94532 q -2.1875,0 -3.67187,1.60157 -1.48438,1.58203 -1.83594,4.45312 h 10.58594 v -0.27344 q -0.15625,-2.7539 -1.48438,-4.25781 -1.32812,-1.52344 -3.59375,-1.52344 z"
       style="font-family:Roboto;-inkscape-font-specification:Roboto;fill:#008000"
       id="path4841" />
    <path
       d="m 262.43518,769.89099 h -3.61328 v -9.02344 h -9.70703 v 9.02344 h -3.63281 v -21.13281 h 3.63281 v 9.16015 h 9.70703 v -9.16015 h 3.61328 z"
       style="font-family:Roboto;-inkscape-font-specification:Roboto;fill:#008000"
       id="path4843" />
    <path
       d="m 283.93909,751.68787 h -7.08985 v 18.20312 h -3.61328 v -18.20312 h -6.95312 v -2.92969 h 17.65625 z"
       style="font-family:Roboto;-inkscape-font-specification:Roboto;fill:#008000"
       id="path4845" />
  </g>
  <g
     aria-label="Десцендент"
     id="text305669-1"
     style="font-size:40px;line-height:1.25;font-family:AstrostudiyaFont;-inkscape-font-specification:AstrostudiyaFont">
    <path
       d="m 1325.9362,837.17651 h -3.7305 v -6.97265 h -20.4102 v 6.99218 h -3.75 l -0.019,-10.05859 h 2.3242 q 1.836,-2.07031 2.9102,-5.54687 1.0937,-3.4961 1.3672,-7.65625 l 0.625,-12.16797 h 17.0117 v 25.37109 h 3.7109 z m -21.3086,-10.03906 h 13.8672 v -22.28516 h -9.629 l -0.4101,8.35938 q -0.2539,4.90234 -1.3086,8.35937 -1.0352,3.45704 -2.5195,5.56641 z"
       style="font-family:Roboto;-inkscape-font-specification:Roboto;fill:#008000"
       id="path4808" />
    <path
       d="m 1338.6315,830.59448 q -4.2969,0 -6.9922,-2.8125 -2.6953,-2.83203 -2.6953,-7.55859 v -0.66406 q 0,-3.14454 1.1914,-5.60547 1.2109,-2.48047 3.3594,-3.86719 2.1679,-1.40625 4.6875,-1.40625 4.121,0 6.4062,2.71484 2.2852,2.71485 2.2852,7.77344 v 1.50391 h -14.3164 q 0.078,3.125 1.8164,5.05859 1.7578,1.91406 4.4531,1.91406 1.914,0 3.2422,-0.78125 1.3281,-0.78125 2.3242,-2.07031 l 2.207,1.71875 q -2.6562,4.08203 -7.9687,4.08203 z m -0.4492,-18.94531 q -2.1875,0 -3.6719,1.60156 -1.4844,1.58203 -1.836,4.45313 h 10.586 v -0.27344 q -0.1563,-2.75391 -1.4844,-4.25781 -1.3281,-1.52344 -3.5937,-1.52344 z"
       style="font-family:Roboto;-inkscape-font-specification:Roboto;fill:#008000"
       id="path4810" />
    <path
       d="m 1359.5299,827.64526 q 1.9336,0 3.3789,-1.17187 1.4453,-1.17188 1.6016,-2.92969 h 3.4179 q -0.098,1.81641 -1.25,3.45703 -1.1523,1.64063 -3.0859,2.61719 -1.9141,0.97656 -4.0625,0.97656 -4.3164,0 -6.875,-2.87109 -2.5391,-2.89063 -2.5391,-7.89063 v -0.60547 q 0,-3.08593 1.1329,-5.48828 1.1328,-2.40234 3.2421,-3.73047 2.129,-1.32812 5.0196,-1.32812 3.5547,0 5.8984,2.12891 2.3633,2.1289 2.5195,5.52734 h -3.4179 q -0.1563,-2.05078 -1.5625,-3.35938 -1.3867,-1.32812 -3.4375,-1.32812 -2.7539,0 -4.2774,1.99219 -1.5039,1.97265 -1.5039,5.72265 v 0.6836 q 0,3.65234 1.5039,5.625 1.5039,1.97265 4.2969,1.97265 z"
       style="font-family:Roboto;-inkscape-font-specification:Roboto;fill:#008000"
       id="path4812" />
    <path
       d="m 1372.3033,809.07104 h 3.6329 v 18.1836 h 9.7265 v -18.1836 h 3.6133 v 18.1836 h 2.5195 l -0.3515,9.21875 h -3.2422 v -6.26953 h -15.8985 z"
       style="font-family:Roboto;-inkscape-font-specification:Roboto;fill:#008000"
       id="path4814" />
    <path
       d="m 1404.4518,830.59448 q -4.2969,0 -6.9922,-2.8125 -2.6953,-2.83203 -2.6953,-7.55859 v -0.66406 q 0,-3.14454 1.1914,-5.60547 1.2109,-2.48047 3.3594,-3.86719 2.1679,-1.40625 4.6875,-1.40625 4.1211,0 6.4062,2.71484 2.2852,2.71485 2.2852,7.77344 v 1.50391 h -14.3164 q 0.078,3.125 1.8164,5.05859 1.7578,1.91406 4.4531,1.91406 1.9141,0 3.2422,-0.78125 1.3281,-0.78125 2.3242,-2.07031 l 2.207,1.71875 q -2.6562,4.08203 -7.9687,4.08203 z m -0.4492,-18.94531 q -2.1875,0 -3.6719,1.60156 -1.4844,1.58203 -1.8359,4.45313 h 10.5859 v -0.27344 q -0.1563,-2.75391 -1.4844,-4.25781 -1.3281,-1.52344 -3.5937,-1.52344 z"
       style="font-family:Roboto;-inkscape-font-specification:Roboto;fill:#008000"
       id="path4816" />
    <path
       d="m 1434.1393,830.20386 h -3.6133 v -9.02344 h -9.707 v 9.02344 h -3.6328 v -21.13282 h 3.6328 v 9.16016 h 9.707 v -9.16016 h 3.6133 z"
       style="font-family:Roboto;-inkscape-font-specification:Roboto;fill:#008000"
       id="path4818" />
    <path
       d="m 1439.7643,827.25464 1.25,-1.54297 q 2.1094,-2.73438 2.4023,-8.20313 l 0.3321,-8.4375 h 13.6132 v 18.1836 h 2.7149 v 9.16015 h -3.6133 v -6.21093 h -14.7461 v 6.21093 h -3.6133 l 0.02,-9.16015 z m 4.2773,0 h 9.7071 v -14.84375 h -6.5039 l -0.2149,5.03906 q -0.332,6.30859 -2.9883,9.80469 z"
       style="font-family:Roboto;-inkscape-font-specification:Roboto;fill:#008000"
       id="path4820" />
    <path
       d="m 1472.8502,830.59448 q -4.2969,0 -6.9922,-2.8125 -2.6953,-2.83203 -2.6953,-7.55859 v -0.66406 q 0,-3.14454 1.1914,-5.60547 1.211,-2.48047 3.3594,-3.86719 2.168,-1.40625 4.6875,-1.40625 4.1211,0 6.4063,2.71484 2.2851,2.71485 2.2851,7.77344 v 1.50391 h -14.3164 q 0.078,3.125 1.8164,5.05859 1.7578,1.91406 4.4531,1.91406 1.9141,0 3.2422,-0.78125 1.3281,-0.78125 2.3242,-2.07031 l 2.2071,1.71875 q -2.6563,4.08203 -7.9688,4.08203 z m -0.4492,-18.94531 q -2.1875,0 -3.6719,1.60156 -1.4843,1.58203 -1.8359,4.45313 h 10.5859 v -0.27344 q -0.1562,-2.75391 -1.4843,-4.25781 -1.3282,-1.52344 -3.5938,-1.52344 z"
       style="font-family:Roboto;-inkscape-font-specification:Roboto;fill:#008000"
       id="path4822" />
    <path
       d="m 1502.5377,830.20386 h -3.6133 v -9.02344 h -9.707 v 9.02344 h -3.6328 v -21.13282 h 3.6328 v 9.16016 h 9.707 v -9.16016 h 3.6133 z"
       style="font-family:Roboto;-inkscape-font-specification:Roboto;fill:#008000"
       id="path4824" />
    <path
       d="m 1524.0416,812.00073 h -7.0898 v 18.20313 h -3.6133 v -18.20313 h -6.9531 v -2.92969 h 17.6562 z"
       style="font-family:Roboto;-inkscape-font-specification:Roboto;fill:#008000"
       id="path4826" />
  </g>
  <g
     aria-label="MC"
     id="text305669-1-9"
     style="font-size:40px;line-height:1.25;font-family:AstrostudiyaFont;-inkscape-font-specification:AstrostudiyaFont">
    <path
       d="m 730.25977,238.88458 9.29687,23.20313 9.29688,-23.20313 h 4.86328 v 28.4375 h -3.75 v -11.07422 l 0.35156,-11.95312 -9.33594,23.02734 h -2.87109 l -9.31641,-22.96875 0.3711,11.89453 v 11.07422 h -3.75 v -28.4375 z"
       style="font-family:Roboto;-inkscape-font-specification:Roboto;fill:#008000"
       id="path4803" />
    <path
       d="m 781.25586,258.29865 q -0.52734,4.51171 -3.33984,6.97265 -2.79297,2.44141 -7.44141,2.44141 -5.03906,0 -8.08594,-3.61328 -3.02734,-3.61328 -3.02734,-9.66797 v -2.73438 q 0,-3.96484 1.40625,-6.97265 1.42578,-3.00782 4.02344,-4.60938 2.59765,-1.62109 6.01562,-1.62109 4.53125,0 7.26563,2.53906 2.73437,2.51953 3.18359,6.99219 h -3.76953 q -0.48828,-3.39844 -2.12891,-4.92188 -1.62109,-1.52343 -4.55078,-1.52343 -3.59375,0 -5.64453,2.65625 -2.03125,2.65625 -2.03125,7.55859 v 2.75391 q 0,4.6289 1.93359,7.36328 1.9336,2.73437 5.41016,2.73437 3.125,0 4.78516,-1.40625 1.67968,-1.42578 2.22656,-4.9414 z"
       style="font-family:Roboto;-inkscape-font-specification:Roboto;fill:#008000"
       id="path4805" />
  </g>
  <g
     aria-label="IC"
     id="text305669-1-9-8"
     style="font-size:40px;line-height:1.25;font-family:AstrostudiyaFont;-inkscape-font-specification:AstrostudiyaFont">
    <path
       d="m 809.1181,1331.8524 h -3.75 v -28.4375 h 3.75 z"
       style="font-family:Roboto;-inkscape-font-specification:Roboto;fill:#008000"
       id="path4798" />
    <path
       d="m 836.89154,1322.829 q -0.52734,4.5117 -3.33984,6.9726 -2.79297,2.4414 -7.44141,2.4414 -5.03906,0 -8.08594,-3.6132 -3.02734,-3.6133 -3.02734,-9.668 v -2.7344 q 0,-3.9648 1.40625,-6.9726 1.42578,-3.0079 4.02344,-4.6094 2.59765,-1.6211 6.01562,-1.6211 4.53125,0 7.26563,2.5391 2.73437,2.5195 3.18359,6.9921 h -3.76953 q -0.48828,-3.3984 -2.12891,-4.9218 -1.62109,-1.5235 -4.55078,-1.5235 -3.59375,0 -5.64453,2.6563 -2.03125,2.6562 -2.03125,7.5586 v 2.7539 q 0,4.6289 1.93359,7.3633 1.9336,2.7343 5.41016,2.7343 3.125,0 4.78516,-1.4062 1.67968,-1.4258 2.22656,-4.9414 z"
       style="font-family:Roboto;-inkscape-font-specification:Roboto;fill:#008000"
       id="path4800" />
  </g>
  <g
     id="text604605"
     style="font-size:72px;line-height:1.25;font-family:AstrostudiyaFont;-inkscape-font-specification:AstrostudiyaFont" />
  <path
     style="fill:#00ff00;stroke:#00ff00;stroke-width:1.93896;stroke-linecap:butt;stroke-linejoin:miter;stroke-miterlimit:4;stroke-dasharray:none;stroke-opacity:1"
     d="M 498.16207,284.26097 1081.8379,1295.739"
     id="path308-36-7" />
  <path
     style="fill:#00ff00;stroke:#00ff00;stroke-width:1.93896;stroke-linecap:butt;stroke-linejoin:miter;stroke-miterlimit:4;stroke-dasharray:none;stroke-opacity:1"
     d="M 1082.0639,284.39143 497.9361,1295.6086"
     id="path308-36-5" />
  <path
     style="fill:#00ff00;stroke:#00ff00;stroke-width:1.93896;stroke-linecap:butt;stroke-linejoin:miter;stroke-miterlimit:4;stroke-dasharray:none;stroke-opacity:1"
     d="M 1295.739,498.16208 284.26097,1081.8379"
     id="path308-36-3" />
</svg>
