<svg width="1580" height="1580" xmlns="http://www.w3.org/2000/svg"><path style="fill:none;fill-rule:evenodd;stroke:#6567a4;stroke-width:4.09587" d="M321.549 1709.492h54.406v41.959h-54.406z" transform="translate(-274.379 -270.608)"/><g aria-label="Пос" style="font-size:40px;line-height:1.25;font-family:AstrostudiyaFont;-inkscape-font-specification:AstrostudiyaFont"><path d="M349.105 1715.778v29.16h-3.945v-25.84h-14.336v25.84h-3.945v-29.16z" style="font-family:'Padauk Book';-inkscape-font-specification:'Padauk Book, ';fill:#6567a4" transform="translate(-274.379 -270.608)"/><path d="M357.93 1737.196q-1.157 0-1.829.906-.672.898-.672 2.469 0 1.57.665 2.476.671.899 1.835.899 1.149 0 1.82-.907.673-.906.673-2.468 0-1.555-.672-2.461-.672-.914-1.82-.914zm0-1.22q1.874 0 2.945 1.22 1.07 1.218 1.07 3.375 0 2.148-1.07 3.375-1.07 1.218-2.946 1.218-1.882 0-2.953-1.218-1.062-1.227-1.062-3.375 0-2.157 1.062-3.375 1.07-1.22 2.953-1.22zM370.625 1736.524v1.344q-.61-.336-1.227-.5-.61-.172-1.234-.172-1.399 0-2.172.89-.773.883-.773 2.485 0 1.601.773 2.492.773.883 2.172.883.625 0 1.234-.164.617-.172 1.227-.508v1.328q-.602.281-1.25.422-.64.14-1.367.14-1.977 0-3.141-1.242t-1.164-3.351q0-2.14 1.172-3.367 1.18-1.227 3.226-1.227.664 0 1.297.14.633.133 1.227.407z" style="font-size:16px;fill:#6567a4;fill-opacity:1" transform="translate(-274.379 -270.608)"/></g><path style="fill:none;fill-rule:evenodd;stroke:#6567a4;stroke-width:4.09587" d="M310.135 1775.524h54.406v41.959h-54.406z" transform="translate(-262.965 -277.785)"/><g aria-label="Пад" style="font-size:40px;line-height:1.25;font-family:AstrostudiyaFont;-inkscape-font-specification:AstrostudiyaFont"><path d="M336.473 1780.818v29.16h-3.946v-25.84h-14.336v25.84h-3.945v-29.16z" style="font-family:'Padauk Book';-inkscape-font-specification:'Padauk Book, ';fill:#6567a4" transform="translate(-262.965 -277.785)"/><path d="M345.883 1805.58q-1.742 0-2.414.398-.672.398-.672 1.359 0 .766.5 1.219.508.445 1.375.445 1.195 0 1.914-.844.726-.851.726-2.257v-.32zm2.867-.595v4.993h-1.438v-1.329q-.492.797-1.226 1.18-.735.375-1.797.375-1.344 0-2.14-.75-.79-.758-.79-2.023 0-1.477.985-2.227.992-.75 2.953-.75h2.015v-.14q0-.993-.656-1.532-.648-.547-1.828-.547-.75 0-1.46.18-.712.18-1.368.54v-1.329q.789-.305 1.531-.453.742-.156 1.445-.156 1.899 0 2.836.984.938.984.938 2.984zM353.664 1808.83h4.172v-6.454h-3.024v1.094q0 3.219-.921 4.937zm-2.086 0q.711-.313 1.023-.977.766-1.649.766-4.97v-1.655h5.914v7.601h1.149v3.36h-1.149v-2.211h-7.094v2.21h-1.148v-3.359z" style="font-size:16px;fill:#6567a4;fill-opacity:1" transform="translate(-262.965 -277.785)"/></g><g style="font-size:40px;line-height:1.25;font-family:AstrostudiyaFont;-inkscape-font-specification:AstrostudiyaFont"><path d="M276.594 1689.839q-.41.976-1.036 1.718-1.543 1.817-6.445 1.817h-1.504v-3.32h1.23q2.325 0 3.223-.528.547-.332.899-1.152l.879-2.07-9.356-22.09h4.238l7.247 17.109 7.285-17.11h4.238z" style="font-family:'Padauk Book';-inkscape-font-specification:'Padauk Book, ';fill:#6567a4" transform="translate(-201.957 -277.785)" aria-label="У"/></g><path style="fill:none;fill-rule:evenodd;stroke:#6567a4;stroke-width:4.09587" d="M249.127 1657.814h54.406v41.96h-54.406z" transform="translate(-201.957 -277.785)"/><g aria-label="- Угловые" style="font-size:40px;line-height:1.25;font-family:AstrostudiyaFont;-inkscape-font-specification:AstrostudiyaFont;fill:#6567a4"><path d="M391.061 1682.202h-9.531v-2.95h9.531zM414.811 1680.874l6.543-16.504h4.356l-10.059 23.691q-1.016 2.266-1.894 3.223-.88.937-2.07 1.445-1.173.489-2.95.489-1.543 0-1.973-.176l.118-2.969 1.777.078q2.05 0 3.047-1.973l.488-1.015.742-1.738-9.687-21.055h4.199zM441.276 1674.663h-9.746v18.144h-3.633v-21.132h13.379zM460.944 1671.675v21.132h-3.633v-18.144h-7.187l-.43 7.91q-.352 5.45-1.836 7.793-1.465 2.344-4.668 2.441h-1.445v-3.183l1.035-.078q1.758-.196 2.52-2.032.761-1.835.976-6.796l.39-9.043zM465.788 1682.046q0-3.106 1.21-5.586 1.231-2.48 3.4-3.828 2.187-1.348 4.98-1.348 4.316 0 6.972 2.988 2.676 2.988 2.676 7.95v.253q0 3.086-1.191 5.547-1.172 2.442-3.38 3.809-2.187 1.367-5.038 1.367-4.297 0-6.973-2.988-2.656-2.989-2.656-7.91zm3.633.43q0 3.515 1.62 5.644 1.641 2.129 4.376 2.129 2.754 0 4.375-2.149 1.62-2.168 1.62-6.054 0-3.477-1.66-5.625-1.64-2.168-4.374-2.168-2.676 0-4.317 2.129-1.64 2.128-1.64 6.093zM489.89 1692.807v-21.132h8.242q4.218 0 6.464 1.484 2.266 1.465 2.266 4.316 0 1.465-.879 2.657-.879 1.171-2.598 1.796 1.914.45 3.067 1.758 1.172 1.309 1.172 3.125 0 2.91-2.149 4.453-2.129 1.543-6.035 1.543zm3.613-9.277v6.367h5.976q2.266 0 3.38-.84 1.132-.84 1.132-2.363 0-3.164-4.649-3.164zm0-2.89h4.668q5.078 0 5.078-2.97 0-2.968-4.805-3.066h-4.941zM516.354 1678.96h5.488q3.594.039 5.684 1.875 2.09 1.836 2.09 4.98 0 3.164-2.149 5.078-2.148 1.914-5.78 1.914h-8.946v-21.132h3.613zm20.8 13.847h-3.632v-21.132h3.633zm-20.8-10.898v7.95h5.371q2.031 0 3.145-1.036 1.113-1.055 1.113-2.871 0-1.758-1.094-2.871-1.074-1.133-3.027-1.172zM552.233 1693.198q-4.297 0-6.992-2.813-2.695-2.831-2.695-7.558v-.664q0-3.145 1.191-5.606 1.21-2.48 3.36-3.867 2.167-1.406 4.687-1.406 4.12 0 6.406 2.715 2.285 2.715 2.285 7.773v1.504H546.16q.078 3.125 1.816 5.059 1.758 1.914 4.453 1.914 1.914 0 3.243-.781 1.328-.782 2.324-2.07l2.207 1.718q-2.656 4.082-7.969 4.082zm-.45-18.945q-2.187 0-3.671 1.601-1.484 1.582-1.836 4.453h10.586v-.273q-.156-2.754-1.484-4.258-1.329-1.523-3.594-1.523z" style="font-family:Roboto;-inkscape-font-specification:Roboto" transform="translate(-262.965 -277.785)"/></g><g aria-label="- Последовательные" style="font-size:40px;line-height:1.25;font-family:AstrostudiyaFont;-inkscape-font-specification:AstrostudiyaFont;fill:#6567a4"><path d="M391.061 1738.156h-9.531v-2.95h9.531zM426.764 1748.762h-3.77v-25.352h-14.023v25.352h-3.75v-28.438h21.543zM432.057 1738q0-3.106 1.211-5.586 1.23-2.48 3.399-3.828 2.187-1.348 4.98-1.348 4.317 0 6.973 2.988 2.676 2.989 2.676 7.95v.254q0 3.085-1.192 5.546-1.172 2.442-3.379 3.809-2.187 1.367-5.039 1.367-4.297 0-6.972-2.988-2.657-2.988-2.657-7.91zm3.633.43q0 3.515 1.621 5.644 1.64 2.129 4.375 2.129 2.754 0 4.375-2.148 1.621-2.168 1.621-6.055 0-3.477-1.66-5.625-1.64-2.168-4.375-2.168-2.676 0-4.316 2.129-1.64 2.129-1.64 6.094zM464.303 1746.203q1.934 0 3.38-1.172 1.445-1.172 1.6-2.93h3.419q-.098 1.817-1.25 3.457-1.153 1.641-3.086 2.618-1.914.976-4.063.976-4.316 0-6.875-2.87-2.539-2.892-2.539-7.892v-.605q0-3.086 1.133-5.488 1.133-2.403 3.242-3.73 2.13-1.329 5.02-1.329 3.555 0 5.898 2.13 2.364 2.128 2.52 5.526h-3.418q-.156-2.05-1.563-3.359-1.386-1.328-3.437-1.328-2.754 0-4.278 1.992-1.503 1.973-1.503 5.723v.683q0 3.653 1.503 5.625 1.504 1.973 4.297 1.973zM494.089 1727.629v21.133h-3.633v-18.145h-7.188l-.43 7.91q-.351 5.45-1.835 7.793-1.465 2.344-4.668 2.442h-1.446v-3.184l1.035-.078q1.758-.195 2.52-2.031t.977-6.797l.39-9.043zM508.659 1749.152q-4.297 0-6.992-2.812-2.696-2.832-2.696-7.559v-.664q0-3.145 1.192-5.605 1.21-2.48 3.36-3.868 2.167-1.406 4.687-1.406 4.12 0 6.406 2.715 2.285 2.715 2.285 7.773v1.504h-14.316q.078 3.125 1.816 5.059 1.758 1.914 4.453 1.914 1.914 0 3.242-.781t2.325-2.07l2.207 1.718q-2.657 4.082-7.97 4.082zm-.45-18.945q-2.187 0-3.671 1.601-1.485 1.582-1.836 4.454h10.586v-.274q-.156-2.754-1.485-4.258-1.328-1.523-3.593-1.523zM520.905 1745.812l1.25-1.543q2.11-2.734 2.402-8.203l.332-8.437h13.614v18.183h2.714v9.16h-3.613v-6.21h-14.746v6.21h-3.613l.02-9.16zm4.277 0h9.707v-14.843h-6.504l-.214 5.039q-.332 6.308-2.989 9.804zM544.264 1738q0-3.106 1.211-5.586 1.23-2.48 3.399-3.828 2.187-1.348 4.98-1.348 4.317 0 6.973 2.988 2.676 2.989 2.676 7.95v.254q0 3.085-1.192 5.546-1.172 2.442-3.379 3.809-2.187 1.367-5.039 1.367-4.297 0-6.972-2.988-2.657-2.988-2.657-7.91zm3.633.43q0 3.515 1.621 5.644 1.64 2.129 4.375 2.129 2.754 0 4.375-2.148 1.621-2.168 1.621-6.055 0-3.477-1.66-5.625-1.64-2.168-4.375-2.168-2.676 0-4.316 2.129-1.64 2.129-1.64 6.094zM568.366 1748.762v-21.133h8.242q4.219 0 6.465 1.484 2.266 1.465 2.266 4.317 0 1.464-.88 2.656-.878 1.172-2.597 1.797 1.914.449 3.066 1.757 1.172 1.31 1.172 3.125 0 2.91-2.148 4.454-2.13 1.543-6.035 1.543zm3.613-9.278v6.367h5.977q2.265 0 3.379-.84 1.132-.84 1.132-2.363 0-3.164-4.648-3.164zm0-2.89h4.668q5.078 0 5.078-2.97 0-2.968-4.804-3.065h-4.942zM603.932 1748.762q-.312-.625-.508-2.227-2.52 2.617-6.015 2.617-3.125 0-5.137-1.758-1.992-1.777-1.992-4.492 0-3.3 2.5-5.117 2.52-1.836 7.07-1.836h3.516v-1.66q0-1.895-1.133-3.008-1.133-1.133-3.34-1.133-1.933 0-3.242.977-1.309.976-1.309 2.363h-3.632q0-1.582 1.113-3.047 1.133-1.484 3.047-2.344 1.933-.859 4.238-.859 3.652 0 5.723 1.836 2.07 1.816 2.148 5.02v9.726q0 2.91.742 4.63v.312zm-5.996-2.754q1.7 0 3.223-.88 1.523-.878 2.207-2.284v-4.336h-2.832q-6.64 0-6.64 3.886 0 1.7 1.132 2.657 1.133.957 2.91.957zM628.034 1730.559h-7.09v18.203h-3.613v-18.203h-6.953v-2.93h17.656zM638.756 1749.152q-4.296 0-6.992-2.812-2.695-2.832-2.695-7.559v-.664q0-3.145 1.191-5.605 1.211-2.48 3.36-3.868 2.168-1.406 4.687-1.406 4.121 0 6.407 2.715 2.285 2.715 2.285 7.773v1.504h-14.317q.078 3.125 1.817 5.059 1.757 1.914 4.453 1.914 1.914 0 3.242-.781t2.324-2.07l2.207 1.718q-2.656 4.082-7.968 4.082zm-.449-18.945q-2.187 0-3.672 1.601-1.484 1.582-1.836 4.454h10.586v-.274q-.156-2.754-1.484-4.258-1.328-1.523-3.594-1.523zM668.503 1727.629v21.133h-3.633v-18.145h-7.188l-.43 7.91q-.351 5.45-1.835 7.793-1.465 2.344-4.668 2.442h-1.446v-3.184l1.036-.078q1.757-.195 2.52-2.031.76-1.836.976-6.797l.39-9.043zM678.249 1734.914h5.488q3.594.039 5.684 1.875 2.09 1.836 2.09 4.98 0 3.164-2.149 5.078-2.148 1.915-5.781 1.915h-8.946v-21.133h3.614zm0 2.95v7.948h5.37q2.032 0 3.145-1.035 1.114-1.055 1.114-2.87 0-1.759-1.094-2.872-1.074-1.133-3.027-1.172zM713.288 1748.762h-3.614v-9.024h-9.707v9.024h-3.632v-21.133h3.632v9.16h9.707v-9.16h3.614zM723.034 1734.914h5.488q3.594.039 5.684 1.875 2.09 1.836 2.09 4.98 0 3.164-2.149 5.078-2.148 1.915-5.781 1.915h-8.945v-21.133h3.613zm20.8 13.848h-3.632v-21.133h3.633zm-20.8-10.899v7.95h5.37q2.032 0 3.145-1.036 1.114-1.055 1.114-2.87 0-1.759-1.094-2.872-1.074-1.133-3.027-1.172zM758.913 1749.152q-4.297 0-6.992-2.812-2.696-2.832-2.696-7.559v-.664q0-3.145 1.192-5.605 1.21-2.48 3.359-3.868 2.168-1.406 4.688-1.406 4.12 0 6.406 2.715 2.285 2.715 2.285 7.773v1.504h-14.316q.078 3.125 1.816 5.059 1.758 1.914 4.453 1.914 1.914 0 3.242-.781t2.324-2.07l2.208 1.718q-2.657 4.082-7.97 4.082zm-.45-18.945q-2.187 0-3.671 1.601-1.485 1.582-1.836 4.454h10.586v-.274q-.157-2.754-1.485-4.258-1.328-1.523-3.593-1.523z" style="font-family:Roboto;-inkscape-font-specification:Roboto" transform="translate(-262.965 -277.785)"/></g><g aria-label="- Падающие" style="font-size:40px;line-height:1.25;font-family:AstrostudiyaFont;-inkscape-font-specification:AstrostudiyaFont;fill:#6567a4"><path d="M391.061 1796.982h-9.531v-2.95h9.531zM426.764 1807.587h-3.77v-25.352h-14.023v25.352h-3.75v-28.438h21.543zM446.061 1807.587q-.312-.625-.508-2.227-2.52 2.618-6.015 2.618-3.125 0-5.137-1.758-1.992-1.778-1.992-4.492 0-3.301 2.5-5.118 2.52-1.835 7.07-1.835h3.516v-1.66q0-1.895-1.133-3.008-1.133-1.133-3.34-1.133-1.933 0-3.242.976-1.309.977-1.309 2.364h-3.632q0-1.582 1.113-3.047 1.133-1.485 3.047-2.344 1.933-.86 4.238-.86 3.652 0 5.723 1.836 2.07 1.817 2.148 5.02v9.727q0 2.91.742 4.628v.313zm-5.996-2.754q1.7 0 3.223-.879t2.207-2.285v-4.336h-2.832q-6.64 0-6.64 3.887 0 1.7 1.132 2.656 1.133.957 2.91.957zM454.596 1804.638l1.25-1.543q2.11-2.734 2.403-8.203l.332-8.438h13.613v18.184h2.715v9.16h-3.613v-6.211h-14.747v6.211h-3.613l.02-9.16zm4.278 0h9.707v-14.844h-6.504l-.215 5.04q-.332 6.308-2.988 9.804zM491.96 1807.587q-.313-.625-.508-2.227-2.52 2.618-6.016 2.618-3.125 0-5.137-1.758-1.992-1.778-1.992-4.492 0-3.301 2.5-5.118 2.52-1.835 7.07-1.835h3.516v-1.66q0-1.895-1.133-3.008-1.132-1.133-3.34-1.133-1.933 0-3.242.976-1.308.977-1.308 2.364h-3.633q0-1.582 1.113-3.047 1.133-1.485 3.047-2.344 1.934-.86 4.238-.86 3.653 0 5.723 1.836 2.07 1.817 2.148 5.02v9.727q0 2.91.743 4.628v.313zm-5.996-2.754q1.699 0 3.222-.879 1.524-.879 2.207-2.285v-4.336h-2.832q-6.64 0-6.64 3.887 0 1.7 1.132 2.656 1.133.957 2.91.957zM504.616 1795.42h5.078q.41-4.22 2.988-6.778 2.598-2.578 6.543-2.578 4.14 0 6.778 2.793 2.636 2.793 2.851 7.265l.02 1.133q0 3.086-1.211 5.566t-3.399 3.829q-2.187 1.328-5 1.328-4.082 0-6.68-2.657-2.597-2.675-2.91-6.933h-5.058v9.199h-3.613v-21.133h3.613zm8.633 1.835q0 3.516 1.62 5.644 1.641 2.13 4.395 2.13 2.754 0 4.356-2.168 1.62-2.168 1.62-6.036 0-3.457-1.64-5.625t-4.375-2.168q-2.695 0-4.336 2.13-1.64 2.128-1.64 6.093zM537.038 1786.454v18.184h7.734v-18.184h3.613v18.184h7.715v-18.184h3.633v18.184h2.969l-.352 9.219h-3.242v-6.27h-25.703v-21.133zM580.065 1786.454h3.613v21.133h-3.613v-15.41l-9.746 15.41h-3.613v-21.133h3.613v15.43zM598.249 1807.978q-4.297 0-6.993-2.813-2.695-2.832-2.695-7.558v-.665q0-3.144 1.192-5.605 1.21-2.48 3.359-3.867 2.168-1.406 4.687-1.406 4.122 0 6.407 2.714 2.285 2.715 2.285 7.774v1.504h-14.317q.079 3.125 1.817 5.058 1.758 1.914 4.453 1.914 1.914 0 3.242-.78 1.328-.782 2.324-2.071l2.207 1.719q-2.656 4.082-7.968 4.082zm-.45-18.946q-2.187 0-3.671 1.602-1.485 1.582-1.836 4.453h10.586v-.273q-.157-2.754-1.485-4.258-1.328-1.524-3.594-1.524z" style="font-family:Roboto;-inkscape-font-specification:Roboto" transform="translate(-262.965 -277.785)"/></g><g><g aria-label="- Мутабельные" style="font-size:40px;line-height:1.25;font-family:AstrostudiyaFont;-inkscape-font-specification:AstrostudiyaFont;fill:#6567a4"><path d="M487.372 1673.592h-9.531v-2.95h9.531zM506.2 1655.76l9.297 23.203 9.297-23.203h4.863v28.438h-3.75v-11.075l.352-11.953-9.336 23.027h-2.871l-9.317-22.968.371 11.894v11.075h-3.75v-28.438zM542.626 1678.905l4.922-15.84h3.867l-8.496 24.394q-1.973 5.274-6.27 5.274l-.683-.06-1.348-.253v-2.93l.977.078q1.836 0 2.851-.742 1.035-.742 1.7-2.715l.8-2.148-7.539-20.899h3.945zM570.34 1665.994h-7.09v18.204h-3.612v-18.204h-6.954v-2.93h17.657zM586.59 1684.197q-.312-.624-.507-2.226-2.52 2.617-6.016 2.617-3.125 0-5.136-1.758-1.993-1.777-1.993-4.492 0-3.3 2.5-5.117 2.52-1.836 7.07-1.836h3.516v-1.66q0-1.895-1.133-3.008-1.132-1.133-3.34-1.133-1.933 0-3.242.977-1.308.976-1.308 2.363h-3.633q0-1.582 1.113-3.047 1.133-1.484 3.047-2.344 1.934-.859 4.238-.859 3.653 0 5.723 1.836 2.07 1.816 2.149 5.02v9.726q0 2.91.742 4.629v.312zm-5.995-2.753q1.699 0 3.222-.88 1.524-.878 2.207-2.284v-4.336h-2.832q-6.64 0-6.64 3.886 0 1.7 1.132 2.657 1.133.957 2.91.957zM604.579 1664.276q3.984 0 6.367 2.675 2.403 2.657 2.403 7.012v.332q0 2.988-1.153 5.352-1.152 2.344-3.32 3.652-2.149 1.29-4.961 1.29-4.258 0-6.856-2.833-2.597-2.852-2.597-7.637v-1.757q0-6.66 2.46-10.586 2.481-3.926 7.305-4.786 2.735-.488 3.692-1.19.957-.704.957-1.935h2.969q0 2.442-1.114 3.81-1.093 1.366-3.515 1.933l-2.696.605q-3.222.762-4.843 2.578-1.602 1.797-2.09 4.805 2.87-3.32 6.992-3.32zm-.703 2.968q-2.656 0-4.219 1.797-1.562 1.778-1.562 4.942v.312q0 3.399 1.562 5.39 1.582 1.973 4.258 1.973 2.695 0 4.258-1.992 1.562-1.992 1.562-5.82 0-2.988-1.582-4.785-1.562-1.817-4.277-1.817zM626.18 1684.588q-4.296 0-6.992-2.812-2.695-2.832-2.695-7.559v-.664q0-3.145 1.191-5.606 1.211-2.48 3.36-3.867 2.168-1.406 4.687-1.406 4.121 0 6.407 2.715 2.285 2.715 2.285 7.773v1.504h-14.317q.078 3.125 1.817 5.059 1.758 1.914 4.453 1.914 1.914 0 3.242-.781 1.328-.782 2.324-2.07l2.207 1.718q-2.656 4.082-7.968 4.082zm-.449-18.945q-2.187 0-3.672 1.601-1.484 1.582-1.835 4.453h10.585v-.273q-.156-2.754-1.484-4.258-1.328-1.523-3.594-1.523zM655.927 1663.065v21.132h-3.633v-18.144h-7.188l-.43 7.91q-.35 5.45-1.835 7.793-1.465 2.344-4.668 2.441h-1.446v-3.183l1.036-.078q1.757-.195 2.52-2.031.76-1.836.976-6.797l.39-9.043zM665.673 1670.35h5.488q3.594.039 5.684 1.875 2.09 1.836 2.09 4.98 0 3.164-2.149 5.078-2.148 1.914-5.781 1.914h-8.946v-21.132h3.614zm0 2.95v7.948h5.37q2.032 0 3.145-1.035 1.114-1.055 1.114-2.871 0-1.758-1.094-2.871-1.074-1.133-3.027-1.172zM700.712 1684.197h-3.613v-9.023h-9.708v9.023h-3.632v-21.132h3.632v9.16h9.708v-9.16h3.613zM710.458 1670.35h5.488q3.594.039 5.684 1.875 2.09 1.836 2.09 4.98 0 3.164-2.149 5.078-2.148 1.914-5.781 1.914h-8.945v-21.132h3.613zm20.8 13.848h-3.632v-21.133h3.633zm-20.8-10.899v7.95h5.371q2.031 0 3.145-1.036 1.113-1.055 1.113-2.871 0-1.758-1.094-2.871-1.074-1.133-3.027-1.172zM746.337 1684.588q-4.297 0-6.992-2.812-2.696-2.832-2.696-7.559v-.664q0-3.145 1.192-5.606 1.21-2.48 3.36-3.867 2.167-1.406 4.687-1.406 4.12 0 6.406 2.715 2.285 2.715 2.285 7.773v1.504h-14.316q.078 3.125 1.816 5.059 1.758 1.914 4.453 1.914 1.914 0 3.242-.781 1.328-.782 2.325-2.07l2.207 1.718q-2.657 4.082-7.97 4.082zm-.45-18.945q-2.187 0-3.671 1.601-1.485 1.582-1.836 4.453h10.586v-.273q-.157-2.754-1.485-4.258-1.328-1.523-3.593-1.523z" style="font-family:Roboto;-inkscape-font-specification:Roboto;fill:#f76383" transform="translate(729.53 -260.524)"/></g><g aria-label="- Фиксированные" style="font-size:40px;line-height:1.25;font-family:AstrostudiyaFont;-inkscape-font-specification:AstrostudiyaFont;fill:#6567a4"><path d="M487.372 1729.546h-9.531v-2.949h9.531zM515.4 1714.566h.605q3.222.019 5.879 1.504 2.656 1.484 4.12 4.101 1.485 2.598 1.485 5.82 0 3.243-1.484 5.88-1.485 2.636-4.102 4.12-2.617 1.465-5.82 1.505h-.684v3.828h-3.633v-3.829h-.546q-3.262 0-5.938-1.484-2.656-1.484-4.14-4.102-1.465-2.617-1.465-5.878 0-3.262 1.464-5.88 1.485-2.616 4.141-4.1 2.676-1.485 5.938-1.485h.546v-4.024h3.633zm-4.18 2.949q-3.672 0-5.82 2.266-2.13 2.246-2.13 6.25 0 4.023 2.13 6.27 2.128 2.226 5.859 2.226h.507v-17.012zm4.18 0v17.012h.546q3.73 0 5.82-2.285 2.11-2.305 2.11-6.25 0-3.907-2.11-6.192-2.09-2.285-5.898-2.285zM545.321 1719.019h3.613v21.133h-3.613v-15.41l-9.746 15.41h-3.613v-21.133h3.613v15.43zM561.317 1731.148h-2.636v9.004h-3.633v-21.133h3.633v8.945h2.363l7.11-8.945h4.374l-8.36 10.156 9.063 10.977h-4.59zM584.5 1737.593q1.934 0 3.38-1.172 1.445-1.172 1.601-2.93h3.418q-.097 1.817-1.25 3.458-1.152 1.64-3.086 2.617-1.914.976-4.062.976-4.317 0-6.875-2.87-2.54-2.891-2.54-7.891v-.606q0-3.086 1.134-5.488 1.132-2.402 3.242-3.73 2.129-1.329 5.02-1.329 3.554 0 5.898 2.13 2.363 2.128 2.52 5.527h-3.419q-.156-2.051-1.562-3.36-1.387-1.328-3.438-1.328-2.754 0-4.277 1.992-1.504 1.973-1.504 5.723v.684q0 3.652 1.504 5.625 1.504 1.972 4.297 1.972zM610.634 1719.019h3.613v21.133h-3.613v-15.41l-9.746 15.41h-3.614v-21.133h3.614v15.43zM637.9 1729.82q0 4.824-2.208 7.773-2.207 2.95-5.976 2.95-3.848 0-6.055-2.442v10.176h-3.613v-29.258h3.3l.176 2.344q2.207-2.735 6.133-2.735 3.809 0 6.016 2.871 2.226 2.872 2.226 7.989zm-3.614-.41q0-3.575-1.523-5.645-1.524-2.07-4.18-2.07-3.281 0-4.922 2.91v10.097q1.621 2.891 4.96 2.891 2.599 0 4.122-2.05 1.543-2.071 1.543-6.134zM641.532 1729.39q0-3.106 1.211-5.586 1.23-2.48 3.398-3.828 2.188-1.348 4.981-1.348 4.316 0 6.973 2.989 2.675 2.988 2.675 7.949v.254q0 3.086-1.191 5.547-1.172 2.441-3.379 3.808-2.187 1.367-5.039 1.367-4.297 0-6.973-2.988-2.656-2.988-2.656-7.91zm3.633.43q0 3.515 1.621 5.644 1.64 2.13 4.375 2.13 2.754 0 4.375-2.15 1.621-2.167 1.621-6.054 0-3.477-1.66-5.625-1.64-2.168-4.375-2.168-2.676 0-4.316 2.129-1.641 2.129-1.641 6.094zM665.634 1740.152v-21.133h8.242q4.219 0 6.465 1.484 2.265 1.465 2.265 4.317 0 1.464-.879 2.656-.878 1.172-2.597 1.797 1.914.449 3.066 1.758 1.172 1.308 1.172 3.125 0 2.91-2.148 4.453-2.13 1.543-6.036 1.543zm3.613-9.278v6.368h5.977q2.265 0 3.378-.84 1.133-.84 1.133-2.364 0-3.164-4.648-3.164zm0-2.89h4.668q5.078 0 5.078-2.969t-4.805-3.066h-4.941zM701.2 1740.152q-.312-.625-.508-2.227-2.52 2.617-6.015 2.617-3.125 0-5.137-1.758-1.992-1.777-1.992-4.492 0-3.3 2.5-5.117 2.52-1.836 7.07-1.836h3.516v-1.66q0-1.895-1.133-3.008-1.133-1.133-3.34-1.133-1.934 0-3.242.977-1.309.977-1.309 2.363h-3.633q0-1.582 1.114-3.047 1.133-1.484 3.047-2.343 1.933-.86 4.238-.86 3.652 0 5.723 1.836 2.07 1.817 2.148 5.02v9.726q0 2.91.742 4.63v.312zm-5.996-2.754q1.7 0 3.223-.88 1.523-.878 2.207-2.284v-4.336h-2.832q-6.641 0-6.641 3.887 0 1.699 1.133 2.656 1.133.957 2.91.957zM727.177 1740.152h-3.614v-9.024h-9.707v9.024h-3.632v-21.133h3.632v9.16h9.707v-9.16h3.614zM750.243 1740.152h-3.613v-9.024h-9.707v9.024h-3.633v-21.133h3.633v9.16h9.707v-9.16h3.613zM759.99 1726.304h5.487q3.594.04 5.684 1.875 2.09 1.836 2.09 4.98 0 3.165-2.149 5.079-2.148 1.914-5.78 1.914h-8.946v-21.133h3.613zm20.8 13.848h-3.633v-21.133h3.633zm-20.8-10.899v7.95h5.37q2.031 0 3.145-1.036 1.113-1.054 1.113-2.87 0-1.759-1.094-2.872-1.074-1.133-3.027-1.172zM795.868 1740.542q-4.297 0-6.992-2.812-2.695-2.832-2.695-7.559v-.664q0-3.144 1.19-5.605 1.212-2.48 3.36-3.867 2.168-1.407 4.688-1.407 4.12 0 6.406 2.715 2.285 2.715 2.285 7.774v1.504h-14.316q.078 3.125 1.816 5.058 1.758 1.914 4.453 1.914 1.914 0 3.243-.781 1.328-.781 2.324-2.07l2.207 1.718q-2.656 4.082-7.969 4.082zm-.45-18.945q-2.187 0-3.671 1.602-1.484 1.582-1.836 4.453h10.586v-.274q-.156-2.754-1.484-4.258-1.329-1.523-3.594-1.523z" style="font-family:Roboto;-inkscape-font-specification:Roboto;fill:#f76383" transform="translate(729.53 -260.524)"/></g><g aria-label="- Кардинальные" style="font-size:40px;line-height:1.25;font-family:AstrostudiyaFont;-inkscape-font-specification:AstrostudiyaFont;fill:#6567a4"><path d="M487.372 1788.372h-9.531v-2.95h9.531zM508.74 1786.204h-3.458v12.773h-3.75v-28.437h3.75v12.539h2.93l9.941-12.54h4.668l-10.86 13.79 11.66 14.648h-4.589zM539.54 1798.977q-.313-.625-.508-2.226-2.52 2.617-6.016 2.617-3.125 0-5.136-1.758-1.992-1.777-1.992-4.492 0-3.301 2.5-5.117 2.52-1.836 7.07-1.836h3.516v-1.66q0-1.895-1.133-3.008-1.133-1.133-3.34-1.133-1.934 0-3.242.976-1.309.977-1.309 2.364h-3.633q0-1.582 1.114-3.047 1.132-1.485 3.046-2.344 1.934-.86 4.239-.86 3.652 0 5.722 1.837 2.07 1.816 2.149 5.02v9.726q0 2.91.742 4.629v.312zm-5.996-2.754q1.699 0 3.222-.879 1.524-.878 2.208-2.285v-4.336h-2.833q-6.64 0-6.64 3.887 0 1.7 1.133 2.656 1.132.957 2.91.957zM566.102 1788.645q0 4.824-2.207 7.774-2.207 2.949-5.976 2.949-3.848 0-6.055-2.442v10.176h-3.613v-29.258h3.3l.176 2.344q2.207-2.734 6.133-2.734 3.809 0 6.016 2.87 2.226 2.872 2.226 7.99zm-3.613-.41q0-3.574-1.523-5.644-1.524-2.07-4.18-2.07-3.281 0-4.922 2.91v10.097q1.621 2.89 4.961 2.89 2.598 0 4.121-2.05 1.543-2.07 1.543-6.133zM570.165 1796.028l1.25-1.543q2.11-2.734 2.402-8.203l.332-8.438h13.614v18.184h2.714v9.16h-3.613v-6.21h-14.746v6.21h-3.613l.02-9.16zm4.277 0h9.707v-14.844h-6.504l-.214 5.04q-.332 6.308-2.989 9.804zM608.153 1777.844h3.613v21.133h-3.613v-15.41l-9.746 15.41h-3.613v-21.133h3.613v15.43zM634.833 1798.977h-3.613v-9.023h-9.707v9.023h-3.633v-21.133h3.633v9.16h9.707v-9.16h3.613zM653.68 1798.977q-.312-.625-.507-2.226-2.52 2.617-6.016 2.617-3.125 0-5.137-1.758-1.992-1.777-1.992-4.492 0-3.301 2.5-5.117 2.52-1.836 7.07-1.836h3.516v-1.66q0-1.895-1.133-3.008-1.132-1.133-3.34-1.133-1.933 0-3.242.976-1.308.977-1.308 2.364h-3.633q0-1.582 1.113-3.047 1.133-1.485 3.047-2.344 1.934-.86 4.238-.86 3.653 0 5.723 1.837 2.07 1.816 2.148 5.02v9.726q0 2.91.743 4.629v.312zm-5.996-2.754q1.7 0 3.223-.879 1.524-.878 2.207-2.285v-4.336h-2.832q-6.64 0-6.64 3.887 0 1.7 1.132 2.656 1.133.957 2.91.957zM679.716 1777.844v21.133h-3.633v-18.144h-7.188l-.43 7.91q-.35 5.449-1.835 7.793-1.465 2.343-4.668 2.441h-1.446v-3.183l1.036-.078q1.757-.196 2.52-2.032.76-1.836.976-6.797l.39-9.043zM689.462 1785.13h5.488q3.594.038 5.684 1.874 2.09 1.837 2.09 4.981 0 3.164-2.149 5.078-2.148 1.914-5.781 1.914h-8.945v-21.133h3.613zm0 2.949v7.949h5.37q2.032 0 3.145-1.035 1.114-1.055 1.114-2.871 0-1.758-1.094-2.871-1.074-1.133-3.027-1.172zM724.5 1798.977h-3.612v-9.023h-9.707v9.023h-3.633v-21.133h3.633v9.16h9.707v-9.16h3.613zM734.247 1785.13h5.488q3.594.038 5.684 1.874 2.09 1.837 2.09 4.981 0 3.164-2.149 5.078-2.148 1.914-5.781 1.914h-8.945v-21.133h3.613zm20.8 13.847h-3.632v-21.133h3.633zm-20.8-10.898v7.949h5.371q2.031 0 3.145-1.035 1.113-1.055 1.113-2.871 0-1.758-1.094-2.871-1.074-1.133-3.027-1.172zM770.126 1799.368q-4.297 0-6.992-2.813-2.696-2.832-2.696-7.558v-.664q0-3.145 1.192-5.606 1.21-2.48 3.36-3.867 2.167-1.406 4.687-1.406 4.12 0 6.406 2.715 2.285 2.714 2.285 7.773v1.504h-14.316q.078 3.125 1.816 5.059 1.758 1.914 4.453 1.914 1.914 0 3.242-.782 1.328-.78 2.325-2.07l2.207 1.719q-2.657 4.082-7.97 4.082zm-.45-18.945q-2.187 0-3.671 1.601-1.485 1.582-1.836 4.453h10.586v-.273q-.156-2.754-1.485-4.258-1.328-1.524-3.593-1.524z" style="font-family:Roboto;-inkscape-font-specification:Roboto;fill:#f76383" transform="translate(729.53 -260.524)"/></g><path style="fill:none;fill-rule:evenodd;stroke:#f76383;stroke-width:3.91841" d="M465.628 1668.904a20.898 20.898 0 0 1-20.899 20.898 20.898 20.898 0 0 1-20.898-20.898 20.898 20.898 0 0 1 20.898-20.899 20.898 20.898 0 0 1 20.899 20.899z" transform="translate(729.53 -256.129)"/><g style="font-size:29.8391px;line-height:1.25;font-family:AstrostudiyaFont;-inkscape-font-specification:AstrostudiyaFont;fill:#6567a4;stroke-width:.745978"><path d="m437.787 1658.297 6.935 17.309 6.935-17.31h3.628v21.215h-2.797v-8.262l.262-8.916-6.964 17.178h-2.142l-6.95-17.135.277 8.873v8.262h-2.797v-21.214z" style="font-family:Roboto;-inkscape-font-specification:Roboto;fill:#f76383" transform="translate(729.53 -256.129)" aria-label="М"/></g><path style="fill:none;fill-rule:evenodd;stroke:#f76383;stroke-width:3.91841" d="M449.39 1734.777a20.898 20.898 0 0 1-20.9 20.899 20.898 20.898 0 0 1-20.898-20.898 20.898 20.898 0 0 1 20.899-20.899 20.898 20.898 0 0 1 20.898 20.898z" transform="translate(745.77 -265.892)"/><g style="font-size:29.8391px;line-height:1.25;font-family:AstrostudiyaFont;-inkscape-font-specification:AstrostudiyaFont;fill:#6567a4;stroke-width:.745978"><path d="M429.846 1726.298h.451q2.404.015 4.386 1.122 1.981 1.107 3.074 3.06 1.108 1.937 1.108 4.341 0 2.419-1.108 4.386-1.107 1.967-3.06 3.074-1.952 1.093-4.341 1.122h-.51v2.856h-2.71v-2.856h-.408q-2.433 0-4.43-1.107-1.98-1.108-3.088-3.06-1.093-1.953-1.093-4.386t1.093-4.385q1.107-1.953 3.089-3.06 1.996-1.107 4.429-1.107h.408v-3.002h2.71zm-3.118 2.2q-2.74 0-4.342 1.69-1.588 1.675-1.588 4.662 0 3.002 1.588 4.677 1.588 1.661 4.37 1.661h.38v-12.69zm3.118 0v12.69h.408q2.783 0 4.342-1.705 1.573-1.719 1.573-4.662 0-2.914-1.573-4.618-1.56-1.705-4.4-1.705z" style="font-family:Roboto;-inkscape-font-specification:Roboto;fill:#f76383" transform="translate(745.77 -265.892)" aria-label="Ф"/></g><g><path style="fill:none;fill-rule:evenodd;stroke:#f76383;stroke-width:3.91841" d="M447.236 1795.068a20.898 20.898 0 0 1-20.898 20.898 20.898 20.898 0 0 1-20.899-20.898 20.898 20.898 0 0 1 20.899-20.899 20.898 20.898 0 0 1 20.898 20.899z" transform="translate(747.923 -266.77)"/><g style="font-size:29.8391px;line-height:1.25;font-family:AstrostudiyaFont;-inkscape-font-specification:AstrostudiyaFont;fill:#6567a4;stroke-width:.745978"><path d="M423.475 1796.146h-2.58v9.528h-2.797v-21.213h2.798v9.354h2.185l7.416-9.354h3.482l-8.1 10.286 8.698 10.927h-3.424z" style="font-family:Roboto;-inkscape-font-specification:Roboto;fill:#f76383" transform="translate(747.923 -266.77)" aria-label="К"/></g></g></g><g><path style="fill:#dd3730;fill-opacity:1;fill-rule:evenodd;stroke:none;stroke-width:1.77901;stroke-miterlimit:4;stroke-dasharray:none;stroke-opacity:1" d="M1139.906-474.661c5.277 1.12 66.223 16.755 66.227 16.989.01.233-60.35 17.631-65.694 18.938l-1.162.284-.957-4.728c-1.777-8.779-1.904-18.072-.371-27.098l.787-4.634z" transform="translate(171.588 520.236)"/><path style="fill:#1463bf;fill-opacity:1;fill-rule:evenodd;stroke:none;stroke-width:1.77901;stroke-miterlimit:4;stroke-dasharray:none;stroke-opacity:1" d="M1204.698-400.362c-1.193.301-16.408 4.36-33.81 9.018-17.404 4.658-31.763 8.354-31.909 8.213-.146-.14-.677-2.439-1.18-5.106-1.514-8.017-1.078-23.88.82-29.833l.4-1.25 33.47 8.99c18.41 4.944 33.676 9.087 33.925 9.205.249.12-.523.463-1.716.763z" transform="translate(171.588 520.236)"/><path style="fill:#bfe7fb;fill-opacity:1;fill-rule:evenodd;stroke:none;stroke-width:1.77901;stroke-miterlimit:4;stroke-dasharray:none;stroke-opacity:1" d="M1172.457-335.585c-18.26 4.419-33.365 7.947-33.566 7.84-.582-.308-1.663-7.572-1.935-12.995-.29-5.793.34-13.139 1.636-19.072.803-3.674 1.016-4.16 1.728-3.93.446.144 15.177 4.483 32.736 9.642 17.559 5.16 32.205 9.514 32.548 9.677.343.162.495.41.339.55-.157.139-15.225 3.868-33.486 8.288z" transform="translate(171.588 520.236)"/><path style="fill:#60cc1b;fill-opacity:1;fill-rule:evenodd;stroke:none;stroke-width:1.77901;stroke-miterlimit:4;stroke-dasharray:none;stroke-opacity:1" d="M1138.081-275.786c-1.73-9.102-1.575-19.667.424-29.102.379-1.788.806-3.362.949-3.497.26-.246 67.15 18.712 67.177 19.039.01.127-66.952 17.046-67.738 17.115-.074.006-.44-1.593-.812-3.555z" transform="translate(171.588 520.236)"/><g aria-label="- Огонь" style="font-size:40px;line-height:1.25;font-family:AstrostudiyaFont;-inkscape-font-specification:AstrostudiyaFont;fill:#666"><path d="M1230.471-455.363h-9.531v-2.949h9.531zM1266.33-458.058q0 4.18-1.406 7.305-1.406 3.105-3.984 4.746-2.578 1.64-6.016 1.64-3.36 0-5.957-1.64-2.597-1.66-4.043-4.707-1.426-3.067-1.465-7.09v-2.05q0-4.102 1.426-7.247 1.426-3.144 4.024-4.805 2.617-1.68 5.976-1.68 3.418 0 6.016 1.66 2.617 1.641 4.023 4.786 1.407 3.125 1.407 7.285zm-3.73-1.836q0-5.059-2.031-7.754-2.031-2.715-5.684-2.715-3.554 0-5.605 2.715-2.031 2.695-2.09 7.5v2.09q0 4.902 2.05 7.715 2.071 2.793 5.684 2.793 3.633 0 5.625-2.637 1.993-2.656 2.051-7.598zM1285.042-462.902h-9.747v18.145h-3.632v-21.133h13.378zM1286.819-455.519q0-3.105 1.21-5.586 1.231-2.48 3.4-3.828 2.187-1.348 4.98-1.348 4.316 0 6.972 2.989 2.676 2.988 2.676 7.949v.254q0 3.086-1.191 5.547-1.172 2.441-3.38 3.808-2.187 1.367-5.038 1.367-4.297 0-6.973-2.988-2.656-2.988-2.656-7.91zm3.633.43q0 3.515 1.62 5.644 1.641 2.13 4.376 2.13 2.754 0 4.375-2.15 1.62-2.167 1.62-6.054 0-3.476-1.66-5.625-1.64-2.168-4.374-2.168-2.676 0-4.317 2.129-1.64 2.129-1.64 6.094zM1327.854-444.757h-3.613v-9.024h-9.707v9.024h-3.633v-21.133h3.633v9.16h9.707v-9.16h3.613zM1337.6-458.605h5.488q3.594.04 5.684 1.875 2.09 1.836 2.09 4.98 0 3.165-2.149 5.079-2.148 1.914-5.78 1.914h-8.946v-21.133h3.613zm0 2.95v7.949h5.371q2.031 0 3.145-1.036 1.113-1.054 1.113-2.87 0-1.758-1.094-2.872-1.074-1.133-3.027-1.172z" style="font-family:Roboto;-inkscape-font-specification:Roboto" transform="translate(171.588 520.236)"/></g><g aria-label="- Вода" style="font-size:40px;line-height:1.25;font-family:AstrostudiyaFont;-inkscape-font-specification:AstrostudiyaFont;fill:#666"><path d="M1229.504-399.446h-9.531v-2.949h9.53zM1243.488-388.84v-28.438h9.297q4.63 0 6.953 1.914 2.344 1.914 2.344 5.664 0 1.993-1.133 3.536-1.133 1.523-3.086 2.363 2.305.644 3.633 2.46 1.348 1.798 1.348 4.298 0 3.828-2.48 6.015-2.481 2.188-7.012 2.188zm3.75-13.301v10.234h6.192q2.617 0 4.12-1.347 1.524-1.368 1.524-3.75 0-5.137-5.586-5.137zm0-3.008h5.664q2.461 0 3.926-1.23 1.484-1.23 1.484-3.34 0-2.344-1.367-3.399-1.367-1.074-4.16-1.074h-5.547zM1266.867-399.602q0-3.105 1.211-5.586 1.23-2.48 3.399-3.828 2.187-1.348 4.98-1.348 4.316 0 6.973 2.989 2.675 2.988 2.675 7.949v.254q0 3.086-1.19 5.547-1.173 2.441-3.38 3.808-2.187 1.367-5.039 1.367-4.297 0-6.973-2.988-2.656-2.988-2.656-7.91zm3.633.43q0 3.515 1.621 5.644 1.64 2.13 4.375 2.13 2.754 0 4.375-2.15 1.621-2.167 1.621-6.054 0-3.477-1.66-5.625-1.64-2.168-4.375-2.168-2.676 0-4.316 2.129-1.641 2.129-1.641 6.094zM1289.055-391.79l1.25-1.542q2.11-2.735 2.402-8.204l.332-8.437h13.613v18.184h2.715v9.16h-3.613v-6.211h-14.746v6.21h-3.614l.02-9.16zm4.277 0h9.707v-14.843h-6.504l-.215 5.039q-.332 6.308-2.988 9.805zM1326.418-388.84q-.313-.625-.508-2.227-2.52 2.617-6.016 2.617-3.125 0-5.136-1.757-1.992-1.778-1.992-4.493 0-3.3 2.5-5.117 2.52-1.836 7.07-1.836h3.516v-1.66q0-1.894-1.133-3.008-1.133-1.133-3.34-1.133-1.934 0-3.242.977-1.309.977-1.309 2.363h-3.633q0-1.582 1.114-3.047 1.132-1.484 3.046-2.343 1.934-.86 4.239-.86 3.652 0 5.722 1.836 2.07 1.817 2.149 5.02v9.726q0 2.91.742 4.63v.312zm-5.996-2.754q1.7 0 3.222-.88 1.524-.878 2.208-2.284v-4.336h-2.833q-6.64 0-6.64 3.887 0 1.699 1.133 2.656 1.133.957 2.91.957z" style="font-family:Roboto;-inkscape-font-specification:Roboto" transform="translate(171.588 520.236)"/></g><g aria-label="- Воздух" style="font-size:40px;line-height:1.25;font-family:AstrostudiyaFont;-inkscape-font-specification:AstrostudiyaFont;fill:#666"><path d="M1230.471-343.959h-9.531v-2.949h9.531zM1244.456-333.353v-28.438h9.296q4.63 0 6.954 1.915 2.343 1.914 2.343 5.664 0 1.992-1.133 3.535-1.132 1.523-3.085 2.363 2.304.645 3.632 2.461 1.348 1.797 1.348 4.297 0 3.828-2.48 6.015-2.48 2.188-7.012 2.188zm3.75-13.3v10.234h6.191q2.617 0 4.121-1.348 1.523-1.367 1.523-3.75 0-5.137-5.585-5.137zm0-3.009h5.664q2.46 0 3.925-1.23 1.485-1.23 1.485-3.34 0-2.344-1.367-3.398-1.368-1.075-4.16-1.075h-5.547zM1267.834-344.115q0-3.105 1.211-5.586 1.23-2.48 3.399-3.828 2.187-1.347 4.98-1.347 4.317 0 6.973 2.988 2.676 2.988 2.676 7.949v.254q0 3.086-1.192 5.547-1.172 2.441-3.379 3.808-2.187 1.368-5.039 1.368-4.296 0-6.972-2.989-2.656-2.988-2.656-7.91zm3.633.43q0 3.516 1.621 5.644 1.641 2.13 4.375 2.13 2.754 0 4.375-2.15 1.622-2.167 1.622-6.054 0-3.476-1.66-5.625-1.641-2.168-4.376-2.168-2.675 0-4.316 2.13-1.64 2.128-1.64 6.093zM1303.225-348.705q0-1.484-1.133-2.343-1.133-.88-3.105-.88-1.914 0-3.203.997-1.27.996-1.27 2.344h-3.594q0-2.754 2.305-4.512 2.305-1.758 5.762-1.758 3.71 0 5.781 1.602 2.07 1.582 2.07 4.53 0 1.427-.859 2.618-.86 1.191-2.441 1.895 3.691 1.25 3.691 4.921 0 2.91-2.246 4.61-2.246 1.7-5.996 1.7-3.653 0-6.035-1.778-2.364-1.797-2.364-4.844h3.594q0 1.543 1.367 2.656 1.387 1.094 3.438 1.094 2.07 0 3.34-.957t1.27-2.48q0-1.778-1.075-2.54-1.055-.78-3.3-.78h-3.614v-3.048h3.926q3.691-.097 3.691-3.047zM1311.74-336.302l1.25-1.543q2.11-2.735 2.403-8.203l.332-8.438h13.613v18.184h2.715v9.16h-3.613v-6.211h-14.746v6.21h-3.613l.02-9.16zm4.278 0h9.707v-14.844h-6.504l-.215 5.04q-.332 6.308-2.988 9.804zM1342.971-338.646l4.922-15.84h3.867l-8.496 24.395q-1.973 5.273-6.27 5.273l-.683-.058-1.348-.254v-2.93l.977.078q1.836 0 2.851-.742 1.036-.742 1.7-2.715l.8-2.148-7.539-20.899h3.946zM1362.073-346.771l4.687-7.715h4.219l-6.914 10.45 7.129 10.683h-4.18l-4.883-7.91-4.883 7.91h-4.199l7.13-10.684-6.915-10.449h4.18z" style="font-family:Roboto;-inkscape-font-specification:Roboto" transform="translate(171.588 520.236)"/></g><g aria-label="- Земля" style="font-size:40px;line-height:1.25;font-family:AstrostudiyaFont;-inkscape-font-specification:AstrostudiyaFont;fill:#666"><path d="M1230.471-287.885h-9.531v-2.95h9.531zM1259.045-298.08q0-2.266-1.66-3.594-1.64-1.348-4.629-1.348-2.5 0-4.199 1.387-1.68 1.367-1.68 3.398h-3.75q0-2.265 1.23-4.062 1.25-1.797 3.478-2.793 2.226-1.016 4.921-1.016 4.766 0 7.403 2.148 2.636 2.13 2.636 5.938 0 1.973-1.21 3.594-1.212 1.62-3.38 2.558 5.02 1.68 5.02 6.66 0 3.829-2.851 6.075-2.852 2.246-7.618 2.246-2.832 0-5.156-.996-2.305-1.016-3.594-2.871-1.289-1.856-1.289-4.414h3.75q0 2.246 1.778 3.75 1.777 1.484 4.511 1.484 3.067 0 4.883-1.426 1.836-1.426 1.836-3.77 0-5-6.191-5.097h-3.516v-3.086h3.496q2.852-.059 4.317-1.29 1.464-1.23 1.464-3.476zM1276.39-276.89q-4.298 0-6.993-2.812-2.695-2.832-2.695-7.558v-.664q0-3.145 1.191-5.606 1.211-2.48 3.36-3.867 2.167-1.406 4.687-1.406 4.121 0 6.406 2.715 2.285 2.714 2.285 7.773v1.504h-14.316q.078 3.125 1.816 5.058 1.758 1.915 4.454 1.915 1.914 0 3.242-.782 1.328-.78 2.324-2.07l2.207 1.719q-2.656 4.082-7.969 4.082zm-.45-18.945q-2.188 0-3.672 1.602-1.484 1.582-1.836 4.453h10.586v-.273q-.156-2.754-1.484-4.258-1.328-1.524-3.594-1.524zM1300.979-282.065l7.188-16.348h4.511v21.133h-3.613v-15.37l-6.836 15.37h-2.5l-6.973-15.703v15.703h-3.613v-21.133h4.688zM1335.803-298.413v21.133h-3.633v-18.144h-7.187l-.43 7.91q-.351 5.449-1.836 7.793-1.465 2.344-4.668 2.441h-1.445v-3.183l1.035-.079q1.758-.195 2.52-2.03.761-1.837.976-6.798l.39-9.043zM1357.756-298.413v21.133h-3.633v-8.223h-5.449l-4.98 8.223h-3.906l5.312-8.77q-2.031-.742-3.125-2.285-1.074-1.562-1.074-3.632 0-2.891 2.168-4.649 2.168-1.777 5.8-1.797zm-13.222 6.485q0 1.543 1.054 2.5 1.055.937 2.793.957h5.742v-7.012h-5.195q-2.012 0-3.203.996-1.191.977-1.191 2.559z" style="font-family:Roboto;-inkscape-font-specification:Roboto" transform="translate(171.588 520.236)"/></g></g></svg>