<?xml version="1.0" encoding="UTF-8" standalone="no"?>
<svg
   viewBox="0 0 1580 1580"
   version="1.1"
   id="svg271"
   sodipodi:docname="natalchart-4-i.svg"
   inkscape:version="1.1.1 (26b7af14f2, 2022-01-19)"
   width="1580"
   height="1580"
   xmlns:inkscape="http://www.inkscape.org/namespaces/inkscape"
   xmlns:sodipodi="http://sodipodi.sourceforge.net/DTD/sodipodi-0.dtd"
   xmlns="http://www.w3.org/2000/svg"
   xmlns:svg="http://www.w3.org/2000/svg">
  <sodipodi:namedview
     id="namedview273"
     pagecolor="#ffffff"
     bordercolor="#666666"
     borderopacity="1.0"
     inkscape:pageshadow="2"
     inkscape:pageopacity="0.0"
     inkscape:pagecheckerboard="0"
     showgrid="false"
     inkscape:zoom="0.24629629"
     inkscape:cx="1585.4887"
     inkscape:cy="745.0376"
     inkscape:window-width="1288"
     inkscape:window-height="704"
     inkscape:window-x="72"
     inkscape:window-y="27"
     inkscape:window-maximized="1"
     inkscape:current-layer="svg271"
     width="1580px" />
  <defs
     id="defs6">
    <clipPath
       id="clipPath4">
      <rect
         width="244"
         height="321.73001"
         x="252.06"
         y="57.34"
         fill="#ffff00"
         stroke="#999999"
         stroke-width="1.014"
         rx="32.150002"
         id="rect2" />
    </clipPath>
  </defs>
  <g
     id="g546501"
     transform="translate(-262.96487,-277.78528)">
    <g
       id="g498757"
       transform="translate(-11.41395,7.1772461)">
      <path
         id="rect427574-0"
         style="fill:none;fill-rule:evenodd;stroke:#6567a4;stroke-width:4.09587"
         d="m 321.54865,1709.4916 h 54.40616 v 41.959 h -54.40616 z" />
      <g
         aria-label="Пос"
         id="text350368-1"
         style="font-size:40px;line-height:1.25;font-family:AstrostudiyaFont;-inkscape-font-specification:AstrostudiyaFont">
        <path
           d="m 349.10526,1715.7777 v 29.1602 h -3.94532 v -25.8399 h -14.33593 v 25.8399 h -3.94532 v -29.1602 z"
           style="font-family:'Padauk Book';-inkscape-font-specification:'Padauk Book, ';fill:#6567a4"
           id="path498770" />
        <path
           d="m 357.92947,1737.1957 q -1.15625,0 -1.82812,0.9062 -0.67188,0.8985 -0.67188,2.4688 0,1.5703 0.66407,2.4765 0.67187,0.8985 1.83593,0.8985 1.14844,0 1.82032,-0.9063 0.67187,-0.9062 0.67187,-2.4687 0,-1.5547 -0.67187,-2.461 -0.67188,-0.914 -1.82032,-0.914 z m 0,-1.2188 q 1.875,0 2.94532,1.2188 1.07031,1.2187 1.07031,3.375 0,2.1484 -1.07031,3.375 -1.07032,1.2187 -2.94532,1.2187 -1.88281,0 -2.95312,-1.2187 -1.0625,-1.2266 -1.0625,-3.375 0,-2.1563 1.0625,-3.375 1.07031,-1.2188 2.95312,-1.2188 z"
           style="font-size:16px;fill:#6567a4;fill-opacity:1"
           id="path498772" />
        <path
           d="m 370.62479,1736.5238 v 1.3438 q -0.60938,-0.336 -1.22657,-0.5 -0.60937,-0.1719 -1.23437,-0.1719 -1.39844,0 -2.17188,0.8906 -0.77343,0.8828 -0.77343,2.4844 0,1.6015 0.77343,2.4922 0.77344,0.8828 2.17188,0.8828 0.625,0 1.23437,-0.1641 0.61719,-0.1719 1.22657,-0.5078 v 1.3281 q -0.60157,0.2813 -1.25,0.4219 -0.64063,0.1406 -1.36719,0.1406 -1.97656,0 -3.14063,-1.2422 -1.16406,-1.2421 -1.16406,-3.3515 0,-2.1406 1.17188,-3.3672 1.17968,-1.2266 3.22656,-1.2266 0.66406,0 1.29687,0.1407 0.63282,0.1328 1.22657,0.4062 z"
           style="font-size:16px;fill:#6567a4;fill-opacity:1"
           id="path498774" />
      </g>
    </g>
    <g
       id="g498763">
      <path
         id="rect427574-0-3"
         style="fill:none;fill-rule:evenodd;stroke:#6567a4;stroke-width:4.09587"
         d="m 310.1347,1775.5236 h 54.40617 v 41.959 H 310.1347 Z" />
      <g
         aria-label="Пад"
         id="text350368-1-0"
         style="font-size:40px;line-height:1.25;font-family:AstrostudiyaFont;-inkscape-font-specification:AstrostudiyaFont">
        <path
           d="m 336.47256,1780.8175 v 29.1602 h -3.94531 v -25.8399 h -14.33594 v 25.8399 H 314.246 v -29.1602 z"
           style="font-family:'Padauk Book';-inkscape-font-specification:'Padauk Book, ';fill:#6567a4"
           id="path498778" />
        <path
           d="m 345.88272,1805.5792 q -1.74219,0 -2.41406,0.3985 -0.67188,0.3984 -0.67188,1.3593 0,0.7657 0.5,1.2188 0.50782,0.4453 1.375,0.4453 1.19532,0 1.91407,-0.8438 0.72656,-0.8515 0.72656,-2.2578 v -0.3203 z m 2.86719,-0.5937 v 4.9922 h -1.4375 v -1.3282 q -0.49219,0.7969 -1.22656,1.1797 -0.73438,0.375 -1.79688,0.375 -1.34375,0 -2.14062,-0.75 -0.78907,-0.7578 -0.78907,-2.0234 0,-1.4766 0.98438,-2.2266 0.99219,-0.75 2.95312,-0.75 h 2.01563 v -0.1406 q 0,-0.9922 -0.65625,-1.5313 -0.64844,-0.5468 -1.82813,-0.5468 -0.75,0 -1.46093,0.1797 -0.71094,0.1796 -1.36719,0.539 v -1.3281 q 0.78906,-0.3047 1.53125,-0.4531 0.74219,-0.1563 1.44531,-0.1563 1.89844,0 2.83594,0.9844 0.9375,0.9844 0.9375,2.9844 z"
           style="font-size:16px;fill:#6567a4;fill-opacity:1"
           id="path498780" />
        <path
           d="m 353.66397,1808.8292 h 4.17188 v -6.4531 h -3.02344 v 1.0937 q 0,3.2188 -0.92188,4.9375 z m -2.08594,0 q 0.71094,-0.3125 1.02344,-0.9765 0.76563,-1.6485 0.76563,-4.9688 v -1.6562 h 5.91406 v 7.6015 h 1.14844 v 3.3594 h -1.14844 v -2.2109 h -7.09375 v 2.2109 h -1.14844 v -3.3594 z"
           style="font-size:16px;fill:#6567a4;fill-opacity:1"
           id="path498782" />
      </g>
    </g>
    <g
       id="g498751"
       transform="translate(61.0079)">
      <g
         aria-label="У "
         id="text350368-3"
         style="font-size:40px;line-height:1.25;font-family:AstrostudiyaFont;-inkscape-font-specification:AstrostudiyaFont">
        <path
           d="m 276.59357,1689.8386 q -0.41016,0.9766 -1.03516,1.7188 -1.54297,1.8164 -6.44531,1.8164 h -1.50391 v -3.3203 h 1.23047 q 2.32422,0 3.22266,-0.5274 0.54687,-0.332 0.89843,-1.1523 l 0.87891,-2.0703 -9.35547,-22.0899 h 4.23828 l 7.2461,17.1094 7.28515,-17.1094 h 4.23828 z"
           style="font-family:'Padauk Book';-inkscape-font-specification:'Padauk Book, ';fill:#6567a4"
           id="path498765" />
      </g>
      <path
         id="rect427574-0-4"
         style="fill:none;fill-rule:evenodd;stroke:#6567a4;stroke-width:4.09587"
         d="m 249.1268,1657.8142 h 54.40617 v 41.9591 H 249.1268 Z" />
    </g>
    <g
       aria-label="- Угловые"
       id="text507546"
       style="font-size:40px;line-height:1.25;font-family:AstrostudiyaFont;-inkscape-font-specification:AstrostudiyaFont;fill:#6567a4">
      <path
         d="m 391.06119,1682.2019 h -9.53125 v -2.9492 h 9.53125 z"
         style="font-family:Roboto;-inkscape-font-specification:Roboto"
         id="path4727" />
      <path
         d="m 414.81119,1680.8738 6.54297,-16.5039 h 4.35547 l -10.0586,23.6914 q -1.01562,2.2656 -1.89453,3.2226 -0.87891,0.9375 -2.07031,1.4453 -1.17188,0.4883 -2.94922,0.4883 -1.54297,0 -1.97266,-0.1758 l 0.11719,-2.9687 1.77734,0.078 q 2.05079,0 3.04688,-1.9726 l 0.48828,-1.0157 0.74219,-1.7382 -9.6875,-21.0547 h 4.19922 z"
         style="font-family:Roboto;-inkscape-font-specification:Roboto"
         id="path4729" />
      <path
         d="m 441.27603,1674.6628 h -9.74609 v 18.1446 h -3.63281 v -21.1328 h 13.3789 z"
         style="font-family:Roboto;-inkscape-font-specification:Roboto"
         id="path4731" />
      <path
         d="m 460.944,1671.6746 v 21.1328 h -3.63281 v -18.1446 h -7.1875 l -0.42969,7.9102 q -0.35156,5.4492 -1.83594,7.793 -1.46484,2.3437 -4.66797,2.4414 h -1.44531 v -3.1836 l 1.03516,-0.078 q 1.75781,-0.1954 2.51953,-2.0313 0.76172,-1.8359 0.97656,-6.7969 l 0.39063,-9.0429 z"
         style="font-family:Roboto;-inkscape-font-specification:Roboto"
         id="path4733" />
      <path
         d="m 465.78775,1682.0457 q 0,-3.1055 1.21094,-5.586 1.23047,-2.4805 3.39844,-3.8281 2.1875,-1.3477 4.98046,-1.3477 4.31641,0 6.97266,2.9883 2.67578,2.9883 2.67578,7.9492 v 0.2539 q 0,3.086 -1.1914,5.5469 -1.17188,2.4414 -3.37891,3.8086 -2.1875,1.3672 -5.03906,1.3672 -4.29688,0 -6.97266,-2.9883 -2.65625,-2.9883 -2.65625,-7.9101 z m 3.63281,0.4296 q 0,3.5157 1.6211,5.6446 1.64062,2.1289 4.375,2.1289 2.7539,0 4.375,-2.1485 1.62109,-2.1679 1.62109,-6.0546 0,-3.4766 -1.66016,-5.625 -1.64062,-2.168 -4.375,-2.168 -2.67578,0 -4.3164,2.1289 -1.64063,2.1289 -1.64063,6.0937 z"
         style="font-family:Roboto;-inkscape-font-specification:Roboto"
         id="path4735" />
      <path
         d="m 489.88931,1692.8074 v -21.1328 h 8.24219 q 4.21875,0 6.46484,1.4843 2.26563,1.4649 2.26563,4.3164 0,1.4649 -0.87891,2.6563 -0.8789,1.1719 -2.59765,1.7969 1.91406,0.4492 3.0664,1.7578 1.17188,1.3086 1.17188,3.125 0,2.9101 -2.14844,4.4531 -2.12891,1.543 -6.03516,1.543 z m 3.61328,-9.2774 v 6.3672 h 5.97657 q 2.26562,0 3.3789,-0.8398 1.13282,-0.8399 1.13282,-2.3633 0,-3.1641 -4.64844,-3.1641 z m 0,-2.8906 h 4.66797 q 5.07813,0 5.07813,-2.9687 0,-2.9688 -4.80469,-3.0665 h -4.94141 z"
         style="font-family:Roboto;-inkscape-font-specification:Roboto"
         id="path4737" />
      <path
         d="m 516.35416,1678.9597 h 5.48828 q 3.59375,0.039 5.68359,1.875 2.08985,1.836 2.08985,4.9805 0,3.164 -2.14844,5.0781 -2.14844,1.9141 -5.78125,1.9141 h -8.94531 v -21.1328 h 3.61328 z m 20.80078,13.8477 h -3.63281 v -21.1328 h 3.63281 z m -20.80078,-10.8985 v 7.9493 h 5.37109 q 2.03125,0 3.14453,-1.0352 1.11328,-1.0547 1.11328,-2.8711 0,-1.7578 -1.09375,-2.8711 -1.07422,-1.1328 -3.02734,-1.1719 z"
         style="font-family:Roboto;-inkscape-font-specification:Roboto"
         id="path4739" />
      <path
         d="m 552.23306,1693.198 q -4.29687,0 -6.99218,-2.8125 -2.69532,-2.832 -2.69532,-7.5586 v -0.6641 q 0,-3.1445 1.19141,-5.6054 1.21094,-2.4805 3.35937,-3.8672 2.16797,-1.4063 4.6875,-1.4063 4.1211,0 6.40625,2.7149 2.28516,2.7148 2.28516,7.7734 v 1.5039 h -14.31641 q 0.0781,3.125 1.81641,5.0586 1.75781,1.9141 4.45313,1.9141 1.91406,0 3.24218,-0.7813 1.32813,-0.7812 2.32422,-2.0703 l 2.20703,1.7188 q -2.65625,4.082 -7.96875,4.082 z m -0.44922,-18.9453 q -2.1875,0 -3.67187,1.6015 -1.48438,1.5821 -1.83594,4.4532 h 10.58594 v -0.2735 q -0.15625,-2.7539 -1.48438,-4.2578 -1.32812,-1.5234 -3.59375,-1.5234 z"
         style="font-family:Roboto;-inkscape-font-specification:Roboto"
         id="path4741" />
    </g>
    <g
       aria-label="- Последовательные"
       id="text507546-5"
       style="font-size:40px;line-height:1.25;font-family:AstrostudiyaFont;-inkscape-font-specification:AstrostudiyaFont;fill:#6567a4">
      <path
         d="m 391.06119,1738.1561 h -9.53125 v -2.9492 h 9.53125 z"
         style="font-family:Roboto;-inkscape-font-specification:Roboto"
         id="path4744" />
      <path
         d="m 426.76431,1748.7616 h -3.76953 V 1723.41 h -14.02344 v 25.3516 h -3.75 v -28.4375 h 21.54297 z"
         style="font-family:Roboto;-inkscape-font-specification:Roboto"
         id="path4746" />
      <path
         d="m 432.05728,1737.9999 q 0,-3.1055 1.21094,-5.586 1.23047,-2.4804 3.39844,-3.8281 2.1875,-1.3476 4.98047,-1.3476 4.3164,0 6.97265,2.9882 2.67578,2.9883 2.67578,7.9493 v 0.2539 q 0,3.0859 -1.1914,5.5468 -1.17188,2.4414 -3.37891,3.8086 -2.1875,1.3672 -5.03906,1.3672 -4.29688,0 -6.97266,-2.9883 -2.65625,-2.9882 -2.65625,-7.9101 z m 3.63281,0.4297 q 0,3.5156 1.6211,5.6445 1.64062,2.1289 4.375,2.1289 2.7539,0 4.375,-2.1484 1.62109,-2.168 1.62109,-6.0547 0,-3.4766 -1.66015,-5.625 -1.64063,-2.168 -4.375,-2.168 -2.67579,0 -4.31641,2.1289 -1.64063,2.1289 -1.64063,6.0938 z"
         style="font-family:Roboto;-inkscape-font-specification:Roboto"
         id="path4748" />
      <path
         d="m 464.30338,1746.203 q 1.93359,0 3.3789,-1.1719 1.44531,-1.1718 1.60156,-2.9297 h 3.41797 q -0.0977,1.8164 -1.25,3.4571 -1.15234,1.6406 -3.08593,2.6172 -1.91407,0.9765 -4.0625,0.9765 -4.31641,0 -6.875,-2.8711 -2.53907,-2.8906 -2.53907,-7.8906 v -0.6055 q 0,-3.0859 1.13282,-5.4882 1.13281,-2.4024 3.24218,-3.7305 2.12891,-1.3281 5.01953,-1.3281 3.55469,0 5.89844,2.1289 2.36328,2.1289 2.51953,5.5273 h -3.41797 q -0.15625,-2.0508 -1.5625,-3.3594 -1.38671,-1.3281 -3.4375,-1.3281 -2.7539,0 -4.27734,1.9922 -1.50391,1.9727 -1.50391,5.7227 v 0.6835 q 0,3.6524 1.50391,5.625 1.50391,1.9727 4.29688,1.9727 z"
         style="font-family:Roboto;-inkscape-font-specification:Roboto"
         id="path4750" />
      <path
         d="m 494.08853,1727.6288 v 21.1328 h -3.63281 v -18.1445 h -7.1875 l -0.42969,7.9101 q -0.35156,5.4492 -1.83594,7.793 -1.46484,2.3437 -4.66796,2.4414 h -1.44532 v -3.1836 l 1.03516,-0.078 q 1.75781,-0.1953 2.51953,-2.0313 0.76172,-1.8359 0.97656,-6.7968 l 0.39063,-9.043 z"
         style="font-family:Roboto;-inkscape-font-specification:Roboto"
         id="path4752" />
      <path
         d="m 508.65884,1749.1522 q -4.29687,0 -6.99218,-2.8125 -2.69532,-2.832 -2.69532,-7.5586 v -0.664 q 0,-3.1446 1.19141,-5.6055 1.21094,-2.4805 3.35938,-3.8672 2.16796,-1.4062 4.6875,-1.4062 4.12109,0 6.40625,2.7148 2.28515,2.7148 2.28515,7.7734 v 1.5039 h -14.3164 q 0.0781,3.125 1.8164,5.0586 1.75781,1.9141 4.45313,1.9141 1.91406,0 3.24218,-0.7812 1.32813,-0.7813 2.32422,-2.0704 l 2.20703,1.7188 q -2.65625,4.082 -7.96875,4.082 z m -0.44921,-18.9453 q -2.1875,0 -3.67188,1.6016 -1.48437,1.582 -1.83594,4.4531 h 10.58594 v -0.2734 q -0.15625,-2.7539 -1.48437,-4.2579 -1.32813,-1.5234 -3.59375,-1.5234 z"
         style="font-family:Roboto;-inkscape-font-specification:Roboto"
         id="path4754" />
      <path
         d="m 520.90494,1745.8124 1.25,-1.543 q 2.10937,-2.7344 2.40234,-8.2031 l 0.33203,-8.4375 h 13.61328 v 18.1836 h 2.71485 v 9.1601 h -3.61328 v -6.2109 h -14.7461 v 6.2109 h -3.61328 l 0.0195,-9.1601 z m 4.27734,0 h 9.70703 v -14.8438 h -6.5039 l -0.21485,5.0391 q -0.33203,6.3086 -2.98828,9.8047 z"
         style="font-family:Roboto;-inkscape-font-specification:Roboto"
         id="path4756" />
      <path
         d="m 544.26431,1737.9999 q 0,-3.1055 1.21094,-5.586 1.23047,-2.4804 3.39844,-3.8281 2.1875,-1.3476 4.98047,-1.3476 4.3164,0 6.97265,2.9882 2.67578,2.9883 2.67578,7.9493 v 0.2539 q 0,3.0859 -1.1914,5.5468 -1.17188,2.4414 -3.37891,3.8086 -2.1875,1.3672 -5.03906,1.3672 -4.29688,0 -6.97266,-2.9883 -2.65625,-2.9882 -2.65625,-7.9101 z m 3.63282,0.4297 q 0,3.5156 1.62109,5.6445 1.64062,2.1289 4.375,2.1289 2.75391,0 4.375,-2.1484 1.62109,-2.168 1.62109,-6.0547 0,-3.4766 -1.66015,-5.625 -1.64063,-2.168 -4.375,-2.168 -2.67578,0 -4.31641,2.1289 -1.64062,2.1289 -1.64062,6.0938 z"
         style="font-family:Roboto;-inkscape-font-specification:Roboto"
         id="path4758" />
      <path
         d="m 568.36588,1748.7616 v -21.1328 h 8.24218 q 4.21875,0 6.46485,1.4844 2.26562,1.4648 2.26562,4.3164 0,1.4648 -0.8789,2.6562 -0.87891,1.1719 -2.59766,1.7969 1.91406,0.4492 3.06641,1.7578 1.17187,1.3086 1.17187,3.125 0,2.9102 -2.14844,4.4531 -2.1289,1.543 -6.03515,1.543 z m 3.61328,-9.2773 v 6.3671 h 5.97656 q 2.26562,0 3.37891,-0.8398 1.13281,-0.8398 1.13281,-2.3633 0,-3.164 -4.64844,-3.164 z m 0,-2.8907 h 4.66797 q 5.07812,0 5.07812,-2.9687 0,-2.9688 -4.80469,-3.0664 h -4.9414 z"
         style="font-family:Roboto;-inkscape-font-specification:Roboto"
         id="path4760" />
      <path
         d="m 603.93228,1748.7616 q -0.3125,-0.625 -0.50781,-2.2266 -2.51953,2.6172 -6.01563,2.6172 -3.125,0 -5.13671,-1.7578 -1.99219,-1.7773 -1.99219,-4.4922 0,-3.3008 2.5,-5.1172 2.51953,-1.8359 7.07031,-1.8359 h 3.51563 v -1.6602 q 0,-1.8945 -1.13282,-3.0078 -1.13281,-1.1328 -3.33984,-1.1328 -1.93359,0 -3.24219,0.9766 -1.30859,0.9765 -1.30859,2.3633 h -3.63281 q 0,-1.5821 1.11328,-3.0469 1.13281,-1.4844 3.04687,-2.3438 1.9336,-0.8593 4.23828,-0.8593 3.65235,0 5.72266,1.8359 2.07031,1.8164 2.14844,5.0195 v 9.7266 q 0,2.9101 0.74218,4.6289 v 0.3125 z m -5.99609,-2.7539 q 1.69922,0 3.22265,-0.8789 1.52344,-0.8789 2.20704,-2.2852 v -4.3359 h -2.83204 q -6.64062,0 -6.64062,3.8867 0,1.6992 1.13281,2.6563 1.13281,0.957 2.91016,0.957 z"
         style="font-family:Roboto;-inkscape-font-specification:Roboto"
         id="path4762" />
      <path
         d="M 628.03384,1730.5585 H 620.944 v 18.2031 h -3.61328 v -18.2031 h -6.95313 v -2.9297 h 17.65625 z"
         style="font-family:Roboto;-inkscape-font-specification:Roboto"
         id="path4764" />
      <path
         d="m 638.7565,1749.1522 q -4.29687,0 -6.99219,-2.8125 -2.69531,-2.832 -2.69531,-7.5586 v -0.664 q 0,-3.1446 1.19141,-5.6055 1.21093,-2.4805 3.35937,-3.8672 2.16797,-1.4062 4.6875,-1.4062 4.1211,0 6.40625,2.7148 2.28516,2.7148 2.28516,7.7734 v 1.5039 h -14.31641 q 0.0781,3.125 1.81641,5.0586 1.75781,1.9141 4.45312,1.9141 1.91407,0 3.24219,-0.7812 1.32813,-0.7813 2.32422,-2.0704 l 2.20703,1.7188 q -2.65625,4.082 -7.96875,4.082 z m -0.44922,-18.9453 q -2.1875,0 -3.67187,1.6016 -1.48438,1.582 -1.83594,4.4531 h 10.58594 v -0.2734 q -0.15625,-2.7539 -1.48438,-4.2579 -1.32812,-1.5234 -3.59375,-1.5234 z"
         style="font-family:Roboto;-inkscape-font-specification:Roboto"
         id="path4766" />
      <path
         d="m 668.50259,1727.6288 v 21.1328 h -3.63281 v -18.1445 h -7.1875 l -0.42969,7.9101 q -0.35156,5.4492 -1.83593,7.793 -1.46485,2.3437 -4.66797,2.4414 h -1.44531 v -3.1836 l 1.03515,-0.078 q 1.75781,-0.1953 2.51953,-2.0313 0.76172,-1.8359 0.97657,-6.7968 l 0.39062,-9.043 z"
         style="font-family:Roboto;-inkscape-font-specification:Roboto"
         id="path4768" />
      <path
         d="m 678.24869,1734.9139 h 5.48828 q 3.59375,0.039 5.68359,1.875 2.08985,1.836 2.08985,4.9805 0,3.1641 -2.14844,5.0781 -2.14844,1.9141 -5.78125,1.9141 h -8.94531 v -21.1328 h 3.61328 z m 0,2.9493 v 7.9492 h 5.37109 q 2.03125,0 3.14453,-1.0352 1.11328,-1.0547 1.11328,-2.8711 0,-1.7578 -1.09375,-2.8711 -1.07421,-1.1328 -3.02734,-1.1718 z"
         style="font-family:Roboto;-inkscape-font-specification:Roboto"
         id="path4770" />
      <path
         d="m 713.28775,1748.7616 h -3.61328 v -9.0234 h -9.70703 v 9.0234 h -3.63281 v -21.1328 h 3.63281 v 9.1601 h 9.70703 v -9.1601 h 3.61328 z"
         style="font-family:Roboto;-inkscape-font-specification:Roboto"
         id="path4772" />
      <path
         d="m 723.03384,1734.9139 h 5.48829 q 3.59375,0.039 5.68359,1.875 2.08984,1.836 2.08984,4.9805 0,3.1641 -2.14843,5.0781 -2.14844,1.9141 -5.78125,1.9141 h -8.94532 v -21.1328 h 3.61328 z m 20.80079,13.8477 h -3.63282 v -21.1328 h 3.63282 z m -20.80079,-10.8984 v 7.9492 h 5.3711 q 2.03125,0 3.14453,-1.0352 1.11328,-1.0547 1.11328,-2.8711 0,-1.7578 -1.09375,-2.8711 -1.07422,-1.1328 -3.02734,-1.1718 z"
         style="font-family:Roboto;-inkscape-font-specification:Roboto"
         id="path4774" />
      <path
         d="m 758.91275,1749.1522 q -4.29687,0 -6.99219,-2.8125 -2.69531,-2.832 -2.69531,-7.5586 v -0.664 q 0,-3.1446 1.19141,-5.6055 1.21093,-2.4805 3.35937,-3.8672 2.16797,-1.4062 4.6875,-1.4062 4.1211,0 6.40625,2.7148 2.28516,2.7148 2.28516,7.7734 v 1.5039 h -14.31641 q 0.0781,3.125 1.81641,5.0586 1.75781,1.9141 4.45312,1.9141 1.91407,0 3.24219,-0.7812 1.32813,-0.7813 2.32422,-2.0704 l 2.20703,1.7188 q -2.65625,4.082 -7.96875,4.082 z m -0.44922,-18.9453 q -2.1875,0 -3.67187,1.6016 -1.48438,1.582 -1.83594,4.4531 h 10.58594 v -0.2734 q -0.15625,-2.7539 -1.48438,-4.2579 -1.32812,-1.5234 -3.59375,-1.5234 z"
         style="font-family:Roboto;-inkscape-font-specification:Roboto"
         id="path4776" />
    </g>
    <g
       aria-label="- Падающие"
       id="text507546-1"
       style="font-size:40px;line-height:1.25;font-family:AstrostudiyaFont;-inkscape-font-specification:AstrostudiyaFont;fill:#6567a4">
      <path
         d="m 391.06119,1796.9816 h -9.53125 v -2.9493 h 9.53125 z"
         style="font-family:Roboto;-inkscape-font-specification:Roboto"
         id="path4779" />
      <path
         d="m 426.76431,1807.587 h -3.76953 v -25.3515 h -14.02344 v 25.3515 h -3.75 v -28.4375 h 21.54297 z"
         style="font-family:Roboto;-inkscape-font-specification:Roboto"
         id="path4781" />
      <path
         d="m 446.06119,1807.587 q -0.3125,-0.625 -0.50781,-2.2265 -2.51954,2.6172 -6.01563,2.6172 -3.125,0 -5.13672,-1.7579 -1.99219,-1.7773 -1.99219,-4.4921 0,-3.3008 2.5,-5.1172 2.51954,-1.836 7.07032,-1.836 h 3.51562 v -1.6601 q 0,-1.8946 -1.13281,-3.0078 -1.13281,-1.1328 -3.33984,-1.1328 -1.9336,0 -3.24219,0.9765 -1.3086,0.9766 -1.3086,2.3633 h -3.63281 q 0,-1.582 1.11328,-3.0469 1.13282,-1.4844 3.04688,-2.3437 1.93359,-0.8594 4.23828,-0.8594 3.65234,0 5.72266,1.8359 2.07031,1.8164 2.14843,5.0196 v 9.7265 q 0,2.9102 0.74219,4.6289 v 0.3125 z m -5.9961,-2.7539 q 1.69922,0 3.22266,-0.8789 1.52344,-0.8789 2.20703,-2.2851 v -4.336 h -2.83203 q -6.64062,0 -6.64062,3.8867 0,1.6993 1.13281,2.6563 1.13281,0.957 2.91015,0.957 z"
         style="font-family:Roboto;-inkscape-font-specification:Roboto"
         id="path4783" />
      <path
         d="m 454.59634,1804.6378 1.25,-1.543 q 2.10938,-2.7343 2.40235,-8.2031 l 0.33203,-8.4375 H 472.194 v 18.1836 h 2.71484 v 9.1602 h -3.61328 v -6.211 h -14.74609 v 6.211 h -3.61328 l 0.0195,-9.1602 z m 4.27735,0 h 9.70703 v -14.8437 h -6.50391 l -0.21484,5.039 q -0.33203,6.3086 -2.98828,9.8047 z"
         style="font-family:Roboto;-inkscape-font-specification:Roboto"
         id="path4785" />
      <path
         d="m 491.95963,1807.587 q -0.3125,-0.625 -0.50782,-2.2265 -2.51953,2.6172 -6.01562,2.6172 -3.125,0 -5.13672,-1.7579 -1.99219,-1.7773 -1.99219,-4.4921 0,-3.3008 2.5,-5.1172 2.51953,-1.836 7.07031,-1.836 h 3.51563 v -1.6601 q 0,-1.8946 -1.13281,-3.0078 -1.13282,-1.1328 -3.33985,-1.1328 -1.93359,0 -3.24218,0.9765 -1.3086,0.9766 -1.3086,2.3633 h -3.63281 q 0,-1.582 1.11328,-3.0469 1.13281,-1.4844 3.04688,-2.3437 1.93359,-0.8594 4.23828,-0.8594 3.65234,0 5.72265,1.8359 2.07032,1.8164 2.14844,5.0196 v 9.7265 q 0,2.9102 0.74219,4.6289 v 0.3125 z m -5.9961,-2.7539 q 1.69922,0 3.22266,-0.8789 1.52344,-0.8789 2.20703,-2.2851 v -4.336 h -2.83203 q -6.64063,0 -6.64063,3.8867 0,1.6993 1.13282,2.6563 1.13281,0.957 2.91015,0.957 z"
         style="font-family:Roboto;-inkscape-font-specification:Roboto"
         id="path4787" />
      <path
         d="m 504.61588,1795.4191 h 5.07812 q 0.41016,-4.2188 2.98828,-6.7774 2.59766,-2.5781 6.54297,-2.5781 4.14063,0 6.77734,2.793 2.63672,2.7929 2.85157,7.2656 l 0.0195,1.1328 q 0,3.0859 -1.21094,5.5664 -1.21094,2.4805 -3.39844,3.8281 -2.1875,1.3282 -5,1.3282 -4.08203,0 -6.67968,-2.6563 -2.59766,-2.6758 -2.91016,-6.9336 h -5.05859 v 9.1992 h -3.61329 v -21.1328 h 3.61329 z m 8.63281,1.8359 q 0,3.5156 1.62109,5.6445 1.64063,2.1289 4.39453,2.1289 2.75391,0 4.35547,-2.1679 1.6211,-2.168 1.6211,-6.0352 0,-3.457 -1.64063,-5.625 -1.64062,-2.168 -4.375,-2.168 -2.69531,0 -4.33594,2.129 -1.64062,2.1289 -1.64062,6.0937 z"
         style="font-family:Roboto;-inkscape-font-specification:Roboto"
         id="path4789" />
      <path
         d="m 537.03775,1786.4542 v 18.1836 h 7.73438 v -18.1836 h 3.61328 v 18.1836 h 7.71484 v -18.1836 h 3.63281 v 18.1836 h 2.96875 l -0.35156,9.2188 h -3.24219 v -6.2696 h -25.70312 v -21.1328 z"
         style="font-family:Roboto;-inkscape-font-specification:Roboto"
         id="path4791" />
      <path
         d="m 580.06509,1786.4542 h 3.61329 v 21.1328 h -3.61329 v -15.4101 l -9.74609,15.4101 h -3.61328 v -21.1328 h 3.61328 v 15.4297 z"
         style="font-family:Roboto;-inkscape-font-specification:Roboto"
         id="path4793" />
      <path
         d="m 598.24869,1807.9777 q -4.29688,0 -6.99219,-2.8125 -2.69531,-2.8321 -2.69531,-7.5586 v -0.6641 q 0,-3.1445 1.1914,-5.6055 1.21094,-2.4804 3.35938,-3.8672 2.16797,-1.4062 4.6875,-1.4062 4.12109,0 6.40625,2.7148 2.28516,2.7149 2.28516,7.7735 v 1.5039 h -14.31641 q 0.0781,3.125 1.81641,5.0586 1.75781,1.914 4.45312,1.914 1.91406,0 3.24219,-0.7812 1.32812,-0.7813 2.32422,-2.0703 l 2.20703,1.7187 q -2.65625,4.0821 -7.96875,4.0821 z m -0.44922,-18.9454 q -2.1875,0 -3.67188,1.6016 -1.48437,1.582 -1.83593,4.4531 h 10.58593 v -0.2734 q -0.15625,-2.7539 -1.48437,-4.2578 -1.32813,-1.5235 -3.59375,-1.5235 z"
         style="font-family:Roboto;-inkscape-font-specification:Roboto"
         id="path4795" />
    </g>
  </g>
  <g
     id="g624339"
     transform="translate(729.53081,-260.52419)">
    <g
       aria-label="- Мутабельные"
       id="text507546-9"
       style="font-size:40px;line-height:1.25;font-family:AstrostudiyaFont;-inkscape-font-specification:AstrostudiyaFont;fill:#6567a4">
      <path
         d="m 487.37195,1673.592 h -9.53125 v -2.9492 h 9.53125 z"
         style="font-family:Roboto;-inkscape-font-specification:Roboto;fill:#f76383"
         id="path4633" />
      <path
         d="m 506.20007,1655.76 9.29688,23.2031 9.29687,-23.2031 h 4.86328 v 28.4375 h -3.75 v -11.0742 l 0.35157,-11.9531 -9.33594,23.0273 h -2.87109 l -9.31641,-22.9687 0.37109,11.8945 v 11.0742 h -3.75 V 1655.76 Z"
         style="font-family:Roboto;-inkscape-font-specification:Roboto;fill:#f76383"
         id="path4635" />
      <path
         d="m 542.62585,1678.9045 4.92188,-15.8398 h 3.86719 l -8.4961,24.3945 q -1.97265,5.2735 -6.26953,5.2735 l -0.68359,-0.059 -1.34766,-0.2539 v -2.9297 l 0.97656,0.078 q 1.83594,0 2.85157,-0.7422 1.03515,-0.7422 1.69922,-2.7148 l 0.80078,-2.1485 -7.53907,-20.8984 h 3.94532 z"
         style="font-family:Roboto;-inkscape-font-specification:Roboto;fill:#f76383"
         id="path4637" />
      <path
         d="m 570.3407,1665.9944 h -7.08985 v 18.2031 h -3.61328 v -18.2031 h -6.95312 v -2.9297 h 17.65625 z"
         style="font-family:Roboto;-inkscape-font-specification:Roboto;fill:#f76383"
         id="path4639" />
      <path
         d="m 586.5907,1684.1975 q -0.3125,-0.625 -0.50781,-2.2266 -2.51954,2.6172 -6.01563,2.6172 -3.125,0 -5.13672,-1.7578 -1.99219,-1.7773 -1.99219,-4.4922 0,-3.3007 2.5,-5.1172 2.51954,-1.8359 7.07032,-1.8359 h 3.51562 v -1.6601 q 0,-1.8946 -1.13281,-3.0079 -1.13281,-1.1328 -3.33984,-1.1328 -1.9336,0 -3.24219,0.9766 -1.3086,0.9766 -1.3086,2.3633 h -3.63281 q 0,-1.5821 1.11328,-3.0469 1.13282,-1.4844 3.04688,-2.3438 1.93359,-0.8593 4.23828,-0.8593 3.65234,0 5.72266,1.8359 2.07031,1.8164 2.14843,5.0195 v 9.7266 q 0,2.9102 0.74219,4.6289 v 0.3125 z m -5.9961,-2.7539 q 1.69922,0 3.22266,-0.8789 1.52344,-0.8789 2.20703,-2.2852 v -4.3359 h -2.83203 q -6.64062,0 -6.64062,3.8867 0,1.6992 1.13281,2.6563 1.13281,0.957 2.91015,0.957 z"
         style="font-family:Roboto;-inkscape-font-specification:Roboto;fill:#f76383"
         id="path4641" />
      <path
         d="m 604.57898,1664.2756 q 3.98437,0 6.36719,2.6758 2.40234,2.6563 2.40234,7.0117 v 0.3321 q 0,2.9882 -1.15234,5.3515 -1.15235,2.3438 -3.32032,3.6524 -2.14843,1.289 -4.96093,1.289 -4.25782,0 -6.85547,-2.832 -2.59766,-2.8516 -2.59766,-7.6367 v -1.7578 q 0,-6.6602 2.46094,-10.586 2.48047,-3.9257 7.30469,-4.7851 2.73437,-0.4883 3.6914,-1.1914 0.95703,-0.7032 0.95703,-1.9336 h 2.96875 q 0,2.4414 -1.11328,3.8086 -1.09375,1.3672 -3.51562,1.9336 l -2.69531,0.6054 q -3.22266,0.7618 -4.84375,2.5782 -1.60157,1.7968 -2.08985,4.8046 2.8711,-3.3203 6.99219,-3.3203 z m -0.70313,2.9688 q -2.65625,0 -4.21875,1.7969 -1.5625,1.7773 -1.5625,4.9414 v 0.3125 q 0,3.3984 1.5625,5.3906 1.58204,1.9726 4.25782,1.9726 2.69531,0 4.25781,-1.9921 1.5625,-1.9922 1.5625,-5.8204 0,-2.9882 -1.58203,-4.7851 -1.5625,-1.8164 -4.27735,-1.8164 z"
         style="font-family:Roboto;-inkscape-font-specification:Roboto;fill:#f76383"
         id="path4643" />
      <path
         d="m 626.18054,1684.5881 q -4.29687,0 -6.99219,-2.8125 -2.69531,-2.832 -2.69531,-7.5586 v -0.664 q 0,-3.1446 1.19141,-5.6055 1.21094,-2.4805 3.35937,-3.8672 2.16797,-1.4062 4.6875,-1.4062 4.1211,0 6.40625,2.7148 2.28516,2.7149 2.28516,7.7735 v 1.5039 h -14.31641 q 0.0781,3.125 1.81641,5.0586 1.75781,1.914 4.45312,1.914 1.91407,0 3.24219,-0.7812 1.32813,-0.7813 2.32422,-2.0703 l 2.20703,1.7187 q -2.65625,4.082 -7.96875,4.082 z m -0.44922,-18.9453 q -2.1875,0 -3.67187,1.6016 -1.48438,1.582 -1.83594,4.4531 h 10.58594 v -0.2734 q -0.15625,-2.7539 -1.48438,-4.2578 -1.32812,-1.5235 -3.59375,-1.5235 z"
         style="font-family:Roboto;-inkscape-font-specification:Roboto;fill:#f76383"
         id="path4645" />
      <path
         d="m 655.92664,1663.0647 v 21.1328 h -3.63282 v -18.1445 h -7.1875 l -0.42968,7.9101 q -0.35157,5.4493 -1.83594,7.793 -1.46485,2.3438 -4.66797,2.4414 h -1.44531 v -3.1836 l 1.03515,-0.078 q 1.75782,-0.1953 2.51953,-2.0313 0.76172,-1.8359 0.97657,-6.7968 l 0.39062,-9.043 z"
         style="font-family:Roboto;-inkscape-font-specification:Roboto;fill:#f76383"
         id="path4647" />
      <path
         d="m 665.67273,1670.3499 h 5.48828 q 3.59375,0.039 5.68359,1.875 2.08985,1.8359 2.08985,4.9804 0,3.1641 -2.14844,5.0781 -2.14844,1.9141 -5.78125,1.9141 h -8.94531 v -21.1328 h 3.61328 z m 0,2.9492 v 7.9492 h 5.37109 q 2.03125,0 3.14453,-1.0352 1.11329,-1.0547 1.11329,-2.8711 0,-1.7578 -1.09375,-2.8711 -1.07422,-1.1328 -3.02735,-1.1718 z"
         style="font-family:Roboto;-inkscape-font-specification:Roboto;fill:#f76383"
         id="path4649" />
      <path
         d="m 700.71179,1684.1975 h -3.61328 v -9.0234 h -9.70703 v 9.0234 h -3.63281 v -21.1328 h 3.63281 v 9.1602 h 9.70703 v -9.1602 h 3.61328 z"
         style="font-family:Roboto;-inkscape-font-specification:Roboto;fill:#f76383"
         id="path4651" />
      <path
         d="m 710.45789,1670.3499 h 5.48828 q 3.59375,0.039 5.68359,1.875 2.08984,1.8359 2.08984,4.9804 0,3.1641 -2.14843,5.0781 -2.14844,1.9141 -5.78125,1.9141 h -8.94532 v -21.1328 h 3.61329 z m 20.80078,13.8476 h -3.63282 v -21.1328 h 3.63282 z m -20.80078,-10.8984 v 7.9492 h 5.37109 q 2.03125,0 3.14453,-1.0352 1.11328,-1.0547 1.11328,-2.8711 0,-1.7578 -1.09375,-2.8711 -1.07422,-1.1328 -3.02734,-1.1718 z"
         style="font-family:Roboto;-inkscape-font-specification:Roboto;fill:#f76383"
         id="path4653" />
      <path
         d="m 746.33679,1684.5881 q -4.29687,0 -6.99219,-2.8125 -2.69531,-2.832 -2.69531,-7.5586 v -0.664 q 0,-3.1446 1.19141,-5.6055 1.21094,-2.4805 3.35937,-3.8672 2.16797,-1.4062 4.6875,-1.4062 4.1211,0 6.40625,2.7148 2.28516,2.7149 2.28516,7.7735 v 1.5039 h -14.31641 q 0.0781,3.125 1.81641,5.0586 1.75781,1.914 4.45312,1.914 1.91407,0 3.24219,-0.7812 1.32813,-0.7813 2.32422,-2.0703 l 2.20703,1.7187 q -2.65625,4.082 -7.96875,4.082 z m -0.44922,-18.9453 q -2.1875,0 -3.67187,1.6016 -1.48438,1.582 -1.83594,4.4531 h 10.58594 v -0.2734 q -0.15625,-2.7539 -1.48438,-4.2578 -1.32812,-1.5235 -3.59375,-1.5235 z"
         style="font-family:Roboto;-inkscape-font-specification:Roboto;fill:#f76383"
         id="path4655" />
    </g>
    <g
       aria-label="- Фиксированные"
       id="text507546-5-1"
       style="font-size:40px;line-height:1.25;font-family:AstrostudiyaFont;-inkscape-font-specification:AstrostudiyaFont;fill:#6567a4">
      <path
         d="m 487.37195,1729.5463 h -9.53125 v -2.9493 h 9.53125 z"
         style="font-family:Roboto;-inkscape-font-specification:Roboto;fill:#f76383"
         id="path4658" />
      <path
         d="m 515.39929,1714.5658 h 0.60547 q 3.22266,0.019 5.87891,1.5039 2.65625,1.4844 4.12109,4.1016 1.48438,2.5976 1.48438,5.8203 0,3.2422 -1.48438,5.8789 -1.48437,2.6367 -4.10156,4.1211 -2.61719,1.4648 -5.82031,1.5039 h -0.6836 v 3.8281 h -3.63281 v -3.8281 h -0.54688 q -3.26171,0 -5.9375,-1.4844 -2.65625,-1.4844 -4.14062,-4.1016 -1.46484,-2.6171 -1.46484,-5.8789 0,-3.2617 1.46484,-5.8789 1.48437,-2.6172 4.14062,-4.1015 2.67579,-1.4844 5.9375,-1.4844 h 0.54688 v -4.0234 h 3.63281 z m -4.17969,2.9492 q -3.67187,0 -5.82031,2.2656 -2.1289,2.2461 -2.1289,6.25 0,4.0235 2.1289,6.2696 2.12891,2.2265 5.85938,2.2265 h 0.50781 v -17.0117 z m 4.17969,0 v 17.0117 h 0.54688 q 3.73047,0 5.82031,-2.2851 2.10937,-2.3047 2.10937,-6.25 0,-3.9063 -2.10937,-6.1914 -2.08984,-2.2852 -5.89844,-2.2852 z"
         style="font-family:Roboto;-inkscape-font-specification:Roboto;fill:#f76383"
         id="path4660" />
      <path
         d="m 545.32117,1719.0189 h 3.61328 v 21.1328 h -3.61328 v -15.4101 l -9.7461,15.4101 h -3.61328 v -21.1328 h 3.61328 v 15.4297 z"
         style="font-family:Roboto;-inkscape-font-specification:Roboto;fill:#f76383"
         id="path4662" />
      <path
         d="m 561.31726,1731.1478 h -2.63672 v 9.0039 h -3.63281 v -21.1328 h 3.63281 v 8.9453 h 2.36328 l 7.10938,-8.9453 h 4.375 l -8.35938,10.1563 9.0625,10.9765 h -4.58984 z"
         style="font-family:Roboto;-inkscape-font-specification:Roboto;fill:#f76383"
         id="path4664" />
      <path
         d="m 584.50085,1737.5931 q 1.9336,0 3.37891,-1.1718 1.44531,-1.1719 1.60156,-2.9297 h 3.41797 q -0.0976,1.8164 -1.25,3.457 -1.15234,1.6406 -3.08594,2.6172 -1.91406,0.9766 -4.0625,0.9766 -4.3164,0 -6.875,-2.8711 -2.53906,-2.8907 -2.53906,-7.8907 v -0.6054 q 0,-3.086 1.13281,-5.4883 1.13282,-2.4024 3.24219,-3.7305 2.12891,-1.3281 5.01953,-1.3281 3.55469,0 5.89844,2.1289 2.36328,2.1289 2.51953,5.5273 h -3.41797 q -0.15625,-2.0507 -1.5625,-3.3593 -1.38672,-1.3282 -3.4375,-1.3282 -2.7539,0 -4.27734,1.9922 -1.50391,1.9727 -1.50391,5.7227 v 0.6836 q 0,3.6523 1.50391,5.625 1.50391,1.9726 4.29687,1.9726 z"
         style="font-family:Roboto;-inkscape-font-specification:Roboto;fill:#f76383"
         id="path4666" />
      <path
         d="m 610.63367,1719.0189 h 3.61328 v 21.1328 h -3.61328 v -15.4101 l -9.7461,15.4101 h -3.61328 v -21.1328 h 3.61328 v 15.4297 z"
         style="font-family:Roboto;-inkscape-font-specification:Roboto;fill:#f76383"
         id="path4668" />
      <path
         d="m 637.89929,1729.8197 q 0,4.8242 -2.20703,7.7734 -2.20703,2.9493 -5.97656,2.9493 -3.84766,0 -6.05469,-2.4414 v 10.1757 h -3.61328 v -29.2578 h 3.30078 l 0.17578,2.3438 q 2.20703,-2.7344 6.13281,-2.7344 3.8086,0 6.01563,2.8711 2.22656,2.8711 2.22656,7.9883 z m -3.61328,-0.4102 q 0,-3.5742 -1.52344,-5.6445 -1.52343,-2.0703 -4.17968,-2.0703 -3.28125,0 -4.92188,2.9102 v 10.0976 q 1.62109,2.8906 4.96094,2.8906 2.59765,0 4.12109,-2.0507 1.54297,-2.0704 1.54297,-6.1329 z"
         style="font-family:Roboto;-inkscape-font-specification:Roboto;fill:#f76383"
         id="path4670" />
      <path
         d="m 641.5321,1729.39 q 0,-3.1055 1.21094,-5.5859 1.23047,-2.4805 3.39844,-3.8281 2.1875,-1.3477 4.98047,-1.3477 4.3164,0 6.97265,2.9883 2.67579,2.9883 2.67579,7.9492 v 0.2539 q 0,3.0859 -1.19141,5.5469 -1.17188,2.4414 -3.37891,3.8086 -2.1875,1.3672 -5.03906,1.3672 -4.29687,0 -6.97266,-2.9883 -2.65625,-2.9883 -2.65625,-7.9102 z m 3.63282,0.4297 q 0,3.5156 1.62109,5.6445 1.64063,2.1289 4.375,2.1289 2.75391,0 4.375,-2.1484 1.62109,-2.168 1.62109,-6.0547 0,-3.4765 -1.66015,-5.625 -1.64063,-2.168 -4.375,-2.168 -2.67578,0 -4.31641,2.129 -1.64062,2.1289 -1.64062,6.0937 z"
         style="font-family:Roboto;-inkscape-font-specification:Roboto;fill:#f76383"
         id="path4672" />
      <path
         d="m 665.63367,1740.1517 v -21.1328 h 8.24218 q 4.21875,0 6.46485,1.4844 2.26562,1.4648 2.26562,4.3164 0,1.4648 -0.8789,2.6563 -0.87891,1.1718 -2.59766,1.7968 1.91406,0.4492 3.06641,1.7578 1.17187,1.3086 1.17187,3.125 0,2.9102 -2.14844,4.4532 -2.1289,1.5429 -6.03515,1.5429 z m 3.61328,-9.2773 v 6.3672 h 5.97656 q 2.26563,0 3.37891,-0.8399 1.13281,-0.8398 1.13281,-2.3632 0,-3.1641 -4.64844,-3.1641 z m 0,-2.8906 h 4.66797 q 5.07812,0 5.07812,-2.9688 0,-2.9687 -4.80469,-3.0664 h -4.9414 z"
         style="font-family:Roboto;-inkscape-font-specification:Roboto;fill:#f76383"
         id="path4674" />
      <path
         d="m 701.20007,1740.1517 q -0.3125,-0.625 -0.50781,-2.2265 -2.51953,2.6172 -6.01562,2.6172 -3.125,0 -5.13672,-1.7579 -1.99219,-1.7773 -1.99219,-4.4921 0,-3.3008 2.5,-5.1172 2.51953,-1.836 7.07031,-1.836 h 3.51563 v -1.6601 q 0,-1.8946 -1.13282,-3.0078 -1.13281,-1.1328 -3.33984,-1.1328 -1.93359,0 -3.24219,0.9765 -1.30859,0.9766 -1.30859,2.3633 h -3.63281 q 0,-1.582 1.11328,-3.0469 1.13281,-1.4844 3.04687,-2.3437 1.9336,-0.8594 4.23828,-0.8594 3.65235,0 5.72266,1.8359 2.07031,1.8164 2.14844,5.0196 v 9.7265 q 0,2.9102 0.74219,4.6289 v 0.3125 z m -5.99609,-2.7539 q 1.69922,0 3.22266,-0.8789 1.52343,-0.8789 2.20703,-2.2851 v -4.336 h -2.83203 q -6.64063,0 -6.64063,3.8867 0,1.6993 1.13281,2.6563 1.13282,0.957 2.91016,0.957 z"
         style="font-family:Roboto;-inkscape-font-specification:Roboto;fill:#f76383"
         id="path4676" />
      <path
         d="m 727.17664,1740.1517 h -3.61329 v -9.0234 h -9.70703 v 9.0234 h -3.63281 v -21.1328 h 3.63281 v 9.1602 h 9.70703 v -9.1602 h 3.61329 z"
         style="font-family:Roboto;-inkscape-font-specification:Roboto;fill:#f76383"
         id="path4678" />
      <path
         d="m 750.24304,1740.1517 h -3.61328 v -9.0234 h -9.70703 v 9.0234 h -3.63281 v -21.1328 h 3.63281 v 9.1602 h 9.70703 v -9.1602 h 3.61328 z"
         style="font-family:Roboto;-inkscape-font-specification:Roboto;fill:#f76383"
         id="path4680" />
      <path
         d="m 759.98914,1726.3041 h 5.48828 q 3.59375,0.039 5.68359,1.875 2.08984,1.8359 2.08984,4.9804 0,3.1641 -2.14843,5.0782 -2.14844,1.914 -5.78125,1.914 h -8.94532 v -21.1328 h 3.61329 z m 20.80078,13.8476 h -3.63282 v -21.1328 h 3.63282 z m -20.80078,-10.8984 v 7.9492 h 5.37109 q 2.03125,0 3.14453,-1.0351 1.11328,-1.0547 1.11328,-2.8711 0,-1.7578 -1.09375,-2.8711 -1.07422,-1.1328 -3.02734,-1.1719 z"
         style="font-family:Roboto;-inkscape-font-specification:Roboto;fill:#f76383"
         id="path4682" />
      <path
         d="m 795.86804,1740.5424 q -4.29687,0 -6.99219,-2.8125 -2.69531,-2.8321 -2.69531,-7.5586 v -0.6641 q 0,-3.1445 1.19141,-5.6055 1.21094,-2.4804 3.35937,-3.8672 2.16797,-1.4062 4.6875,-1.4062 4.1211,0 6.40625,2.7148 2.28516,2.7149 2.28516,7.7735 v 1.5039 h -14.31641 q 0.0781,3.125 1.81641,5.0586 1.75781,1.914 4.45312,1.914 1.91407,0 3.24219,-0.7812 1.32813,-0.7813 2.32422,-2.0703 l 2.20703,1.7187 q -2.65625,4.0821 -7.96875,4.0821 z m -0.44922,-18.9454 q -2.1875,0 -3.67187,1.6016 -1.48438,1.582 -1.83594,4.4531 h 10.58594 v -0.2734 q -0.15625,-2.7539 -1.48438,-4.2578 -1.32812,-1.5235 -3.59375,-1.5235 z"
         style="font-family:Roboto;-inkscape-font-specification:Roboto;fill:#f76383"
         id="path4684" />
    </g>
    <g
       aria-label="- Кардинальные"
       id="text507546-1-1"
       style="font-size:40px;line-height:1.25;font-family:AstrostudiyaFont;-inkscape-font-specification:AstrostudiyaFont;fill:#6567a4">
      <path
         d="m 487.37195,1788.3717 h -9.53125 v -2.9492 h 9.53125 z"
         style="font-family:Roboto;-inkscape-font-specification:Roboto;fill:#f76383"
         id="path4687" />
      <path
         d="m 508.73914,1786.2037 h -3.45704 v 12.7735 h -3.75 v -28.4375 h 3.75 v 12.539 h 2.92969 l 9.94141,-12.539 h 4.66797 l -10.85938,13.789 11.66016,14.6485 h -4.58985 z"
         style="font-family:Roboto;-inkscape-font-specification:Roboto;fill:#f76383"
         id="path4689" />
      <path
         d="m 539.53992,1798.9772 q -0.3125,-0.625 -0.50782,-2.2266 -2.51953,2.6172 -6.01562,2.6172 -3.125,0 -5.13672,-1.7578 -1.99219,-1.7774 -1.99219,-4.4922 0,-3.3008 2.5,-5.1172 2.51953,-1.8359 7.07032,-1.8359 h 3.51562 v -1.6602 q 0,-1.8945 -1.13281,-3.0078 -1.13281,-1.1328 -3.33985,-1.1328 -1.93359,0 -3.24218,0.9766 -1.3086,0.9765 -1.3086,2.3632 h -3.63281 q 0,-1.582 1.11328,-3.0468 1.13281,-1.4844 3.04688,-2.3438 1.93359,-0.8594 4.23828,-0.8594 3.65234,0 5.72265,1.836 2.07032,1.8164 2.14844,5.0195 v 9.7266 q 0,2.9101 0.74219,4.6289 v 0.3125 z m -5.9961,-2.7539 q 1.69922,0 3.22266,-0.8789 1.52344,-0.8789 2.20703,-2.2852 v -4.3359 h -2.83203 q -6.64063,0 -6.64063,3.8867 0,1.6992 1.13282,2.6562 1.13281,0.9571 2.91015,0.9571 z"
         style="font-family:Roboto;-inkscape-font-specification:Roboto;fill:#f76383"
         id="path4691" />
      <path
         d="m 566.10242,1788.6451 q 0,4.8243 -2.20703,7.7735 -2.20704,2.9492 -5.97657,2.9492 -3.84765,0 -6.05468,-2.4414 v 10.1758 h -3.61329 v -29.2578 h 3.30079 l 0.17578,2.3437 q 2.20703,-2.7344 6.13281,-2.7344 3.80859,0 6.01562,2.8711 2.22657,2.8711 2.22657,7.9883 z m -3.61328,-0.4101 q 0,-3.5742 -1.52344,-5.6445 -1.52344,-2.0704 -4.17969,-2.0704 -3.28125,0 -4.92187,2.9102 v 10.0977 q 1.62109,2.8906 4.96093,2.8906 2.59766,0 4.1211,-2.0508 1.54297,-2.0703 1.54297,-6.1328 z"
         style="font-family:Roboto;-inkscape-font-specification:Roboto;fill:#f76383"
         id="path4693" />
      <path
         d="m 570.16492,1796.028 1.25,-1.543 q 2.10937,-2.7344 2.40234,-8.2031 l 0.33203,-8.4375 h 13.61328 v 18.1836 h 2.71485 v 9.1601 h -3.61328 v -6.2109 h -14.7461 v 6.2109 h -3.61328 l 0.0195,-9.1601 z m 4.27734,0 h 9.70703 v -14.8438 h -6.5039 l -0.21485,5.0391 q -0.33203,6.3086 -2.98828,9.8047 z"
         style="font-family:Roboto;-inkscape-font-specification:Roboto;fill:#f76383"
         id="path4695" />
      <path
         d="m 608.1532,1777.8444 h 3.61328 v 21.1328 h -3.61328 v -15.4102 l -9.7461,15.4102 h -3.61328 v -21.1328 h 3.61328 v 15.4296 z"
         style="font-family:Roboto;-inkscape-font-specification:Roboto;fill:#f76383"
         id="path4697" />
      <path
         d="m 634.83289,1798.9772 h -3.61329 v -9.0235 h -9.70703 v 9.0235 h -3.63281 v -21.1328 h 3.63281 v 9.1601 h 9.70703 v -9.1601 h 3.61329 z"
         style="font-family:Roboto;-inkscape-font-specification:Roboto;fill:#f76383"
         id="path4699" />
      <path
         d="m 653.68054,1798.9772 q -0.3125,-0.625 -0.50781,-2.2266 -2.51953,2.6172 -6.01563,2.6172 -3.125,0 -5.13671,-1.7578 -1.99219,-1.7774 -1.99219,-4.4922 0,-3.3008 2.5,-5.1172 2.51953,-1.8359 7.07031,-1.8359 h 3.51563 v -1.6602 q 0,-1.8945 -1.13282,-3.0078 -1.13281,-1.1328 -3.33984,-1.1328 -1.93359,0 -3.24219,0.9766 -1.30859,0.9765 -1.30859,2.3632 h -3.63281 q 0,-1.582 1.11328,-3.0468 1.13281,-1.4844 3.04687,-2.3438 1.9336,-0.8594 4.23828,-0.8594 3.65235,0 5.72266,1.836 2.07031,1.8164 2.14844,5.0195 v 9.7266 q 0,2.9101 0.74218,4.6289 v 0.3125 z m -5.99609,-2.7539 q 1.69922,0 3.22265,-0.8789 1.52344,-0.8789 2.20704,-2.2852 v -4.3359 h -2.83204 q -6.64062,0 -6.64062,3.8867 0,1.6992 1.13281,2.6562 1.13281,0.9571 2.91016,0.9571 z"
         style="font-family:Roboto;-inkscape-font-specification:Roboto;fill:#f76383"
         id="path4701" />
      <path
         d="m 679.7157,1777.8444 v 21.1328 h -3.63281 v -18.1446 h -7.1875 l -0.42969,7.9102 q -0.35156,5.4492 -1.83594,7.793 -1.46484,2.3437 -4.66797,2.4414 h -1.44531 v -3.1836 l 1.03516,-0.078 q 1.75781,-0.1954 2.51953,-2.0313 0.76172,-1.8359 0.97656,-6.7969 l 0.39062,-9.0429 z"
         style="font-family:Roboto;-inkscape-font-specification:Roboto;fill:#f76383"
         id="path4703" />
      <path
         d="m 689.46179,1785.1295 h 5.48828 q 3.59375,0.039 5.6836,1.875 2.08984,1.836 2.08984,4.9805 0,3.164 -2.14844,5.0781 -2.14843,1.9141 -5.78125,1.9141 h -8.94531 v -21.1328 h 3.61328 z m 0,2.9492 v 7.9493 h 5.3711 q 2.03125,0 3.14453,-1.0352 1.11328,-1.0547 1.11328,-2.8711 0,-1.7578 -1.09375,-2.8711 -1.07422,-1.1328 -3.02735,-1.1719 z"
         style="font-family:Roboto;-inkscape-font-specification:Roboto;fill:#f76383"
         id="path4705" />
      <path
         d="m 724.50085,1798.9772 h -3.61328 v -9.0235 h -9.70703 v 9.0235 h -3.63281 v -21.1328 h 3.63281 v 9.1601 h 9.70703 v -9.1601 h 3.61328 z"
         style="font-family:Roboto;-inkscape-font-specification:Roboto;fill:#f76383"
         id="path4707" />
      <path
         d="m 734.24695,1785.1295 h 5.48828 q 3.59375,0.039 5.68359,1.875 2.08985,1.836 2.08985,4.9805 0,3.164 -2.14844,5.0781 -2.14844,1.9141 -5.78125,1.9141 h -8.94531 v -21.1328 h 3.61328 z m 20.80078,13.8477 h -3.63281 v -21.1328 h 3.63281 z m -20.80078,-10.8985 v 7.9493 h 5.37109 q 2.03125,0 3.14453,-1.0352 1.11328,-1.0547 1.11328,-2.8711 0,-1.7578 -1.09375,-2.8711 -1.07421,-1.1328 -3.02734,-1.1719 z"
         style="font-family:Roboto;-inkscape-font-specification:Roboto;fill:#f76383"
         id="path4709" />
      <path
         d="m 770.12585,1799.3678 q -4.29687,0 -6.99218,-2.8125 -2.69532,-2.832 -2.69532,-7.5586 v -0.6641 q 0,-3.1445 1.19141,-5.6054 1.21094,-2.4805 3.35938,-3.8672 2.16796,-1.4063 4.6875,-1.4063 4.12109,0 6.40625,2.7149 2.28515,2.7148 2.28515,7.7734 v 1.5039 h -14.3164 q 0.0781,3.125 1.8164,5.0586 1.75781,1.9141 4.45313,1.9141 1.91406,0 3.24218,-0.7813 1.32813,-0.7812 2.32422,-2.0703 l 2.20703,1.7188 q -2.65625,4.082 -7.96875,4.082 z m -0.44921,-18.9453 q -2.1875,0 -3.67188,1.6015 -1.48437,1.5821 -1.83594,4.4532 h 10.58594 v -0.2735 q -0.15625,-2.7539 -1.48437,-4.2578 -1.32813,-1.5234 -3.59375,-1.5234 z"
         style="font-family:Roboto;-inkscape-font-specification:Roboto;fill:#f76383"
         id="path4711" />
    </g>
    <g
       id="g617146"
       transform="translate(0,4.3953857)">
      <path
         id="path598349"
         style="fill:none;fill-rule:evenodd;stroke:#f76383;stroke-width:3.91841"
         d="m 465.62787,1668.9037 a 20.898439,20.898439 0 0 1 -20.89844,20.8984 20.898439,20.898439 0 0 1 -20.89844,-20.8984 20.898439,20.898439 0 0 1 20.89844,-20.8985 20.898439,20.898439 0 0 1 20.89844,20.8985 z" />
      <g
         aria-label="М"
         id="text507546-9-0"
         style="font-size:29.8391px;line-height:1.25;font-family:AstrostudiyaFont;-inkscape-font-specification:AstrostudiyaFont;fill:#6567a4;stroke-width:0.745978">
        <path
           d="m 437.78688,1658.2968 6.93526,17.309 6.93526,-17.309 h 3.6279 v 21.2137 h -2.79742 v -8.2611 l 0.26226,-8.9168 -6.9644,17.1779 h -2.14177 l -6.94983,-17.1342 0.27683,8.8731 v 8.2611 h -2.79742 v -21.2137 z"
           style="font-family:Roboto;-inkscape-font-specification:Roboto;fill:#f76383"
           id="path4715" />
      </g>
    </g>
    <g
       id="g623925"
       transform="translate(16.238678,-5.3679199)">
      <path
         id="path598349-0"
         style="fill:none;fill-rule:evenodd;stroke:#f76383;stroke-width:3.91841"
         d="m 449.38919,1734.7775 a 20.898439,20.898439 0 0 1 -20.89844,20.8984 20.898439,20.898439 0 0 1 -20.89844,-20.8984 20.898439,20.898439 0 0 1 20.89844,-20.8985 20.898439,20.898439 0 0 1 20.89844,20.8985 z" />
      <g
         aria-label="Ф"
         id="text507546-9-0-3"
         style="font-size:29.8391px;line-height:1.25;font-family:AstrostudiyaFont;-inkscape-font-specification:AstrostudiyaFont;fill:#6567a4;stroke-width:0.745978">
        <path
           d="m 429.84576,1726.2977 h 0.45167 q 2.40403,0.015 4.38553,1.1219 1.9815,1.1073 3.07424,3.0597 1.10731,1.9378 1.10731,4.3418 0,2.4186 -1.10731,4.3856 -1.10731,1.9669 -3.05967,3.0742 -1.95236,1.0927 -4.34182,1.1219 h -0.50995 v 2.8557 h -2.70999 v -2.8557 h -0.40796 q -2.43317,0 -4.42924,-1.1073 -1.9815,-1.1073 -3.08882,-3.0597 -1.09274,-1.9524 -1.09274,-4.3855 0,-2.4332 1.09274,-4.3856 1.10732,-1.9523 3.08882,-3.0596 1.99607,-1.1074 4.42924,-1.1074 h 0.40796 v -3.0014 h 2.70999 z m -3.11795,2.2001 q -2.73914,0 -4.34182,1.6901 -1.58812,1.6755 -1.58812,4.6624 0,3.0014 1.58812,4.6769 1.58811,1.661 4.37096,1.661 h 0.37882 v -12.6904 z m 3.11795,0 v 12.6904 h 0.40796 q 2.78284,0 4.34182,-1.7047 1.57355,-1.7193 1.57355,-4.6624 0,-2.914 -1.57355,-4.6186 -1.55898,-1.7047 -4.4001,-1.7047 z"
           style="font-family:Roboto;-inkscape-font-specification:Roboto;fill:#f76383"
           id="path4719" />
      </g>
    </g>
    <g
       id="g623930"
       transform="translate(18.391876,-6.2467041)">
      <path
         id="path598349-9"
         style="fill:none;fill-rule:evenodd;stroke:#f76383;stroke-width:3.91841"
         d="m 447.23599,1795.0676 a 20.898439,20.898439 0 0 1 -20.89844,20.8985 20.898439,20.898439 0 0 1 -20.89843,-20.8985 20.898439,20.898439 0 0 1 20.89843,-20.8984 20.898439,20.898439 0 0 1 20.89844,20.8984 z" />
      <g
         aria-label="К"
         id="text507546-9-0-6"
         style="font-size:29.8391px;line-height:1.25;font-family:AstrostudiyaFont;-inkscape-font-specification:AstrostudiyaFont;fill:#6567a4;stroke-width:0.745978">
        <path
           d="m 423.47457,1796.1457 h -2.57886 v 9.5287 h -2.79742 v -21.2137 h 2.79742 v 9.3539 h 2.18548 l 7.41606,-9.3539 h 3.4822 l -8.10085,10.2863 8.69822,10.9274 h -3.42392 z"
           style="font-family:Roboto;-inkscape-font-specification:Roboto;fill:#f76383"
           id="path4723" />
      </g>
    </g>
  </g>
  <g
     id="g652844"
     transform="translate(171.5875,520.23617)">
    <path
       style="fill:#dd3730;fill-opacity:1;fill-rule:evenodd;stroke:none;stroke-width:1.77901;stroke-miterlimit:4;stroke-dasharray:none;stroke-opacity:1"
       d="m 1139.9058,-474.66127 c 5.2775,1.12111 66.2235,16.75538 66.2269,16.98898 0.01,0.23291 -60.3505,17.63139 -65.6939,18.93785 l -1.1615,0.28396 -0.957,-4.72787 c -1.7769,-8.77858 -1.9044,-18.07206 -0.3716,-27.09718 l 0.7871,-4.63429 z"
       id="path628948-4" />
    <path
       style="fill:#1463bf;fill-opacity:1;fill-rule:evenodd;stroke:none;stroke-width:1.77901;stroke-miterlimit:4;stroke-dasharray:none;stroke-opacity:1"
       d="m 1204.6982,-400.36151 c -1.1927,0.30094 -16.4077,4.35868 -33.811,9.01718 -17.4032,4.65851 -31.7618,8.35456 -31.9078,8.21344 -0.1462,-0.14105 -0.6777,-2.439 -1.1812,-5.10642 -1.5137,-8.01715 -1.0769,-23.87929 0.8216,-29.8328 l 0.3984,-1.24933 33.4713,8.98942 c 18.4092,4.94419 33.6751,9.08661 33.9243,9.20538 0.2491,0.11878 -0.5228,0.46217 -1.7156,0.76313 z"
       id="path628447-9" />
    <path
       style="fill:#bfe7fb;fill-opacity:1;fill-rule:evenodd;stroke:none;stroke-width:1.77901;stroke-miterlimit:4;stroke-dasharray:none;stroke-opacity:1"
       d="m 1172.4572,-335.58549 c -18.2604,4.41903 -33.3653,7.94746 -33.5662,7.84094 -0.5815,-0.30823 -1.6632,-7.57288 -1.935,-12.99534 -0.2903,-5.79287 0.3398,-13.13879 1.636,-19.07191 0.8026,-3.67407 1.0163,-4.1603 1.7276,-3.93071 0.4463,0.14411 15.1777,4.48339 32.7362,9.64286 17.5587,5.15948 32.2054,9.51387 32.5482,9.67643 0.3429,0.16257 0.4953,0.40977 0.3388,0.54934 -0.1566,0.13962 -15.2251,3.86936 -33.4856,8.28839 z"
       id="path628525-9" />
    <path
       style="fill:#60cc1b;fill-opacity:1;fill-rule:evenodd;stroke:none;stroke-width:1.77901;stroke-miterlimit:4;stroke-dasharray:none;stroke-opacity:1"
       d="m 1138.081,-275.78608 c -1.7294,-9.10205 -1.5755,-19.66645 0.424,-29.10234 0.3789,-1.78783 0.8058,-3.3614 0.9487,-3.49684 0.2596,-0.24596 67.151,18.71228 67.1771,19.03918 0.01,0.12736 -66.9517,17.04632 -67.7378,17.11502 -0.074,0.006 -0.4394,-1.59331 -0.812,-3.55502 z"
       id="path628794-3" />
    <g
       aria-label="- Огонь"
       id="text507546-9-05"
       style="font-size:40px;line-height:1.25;font-family:AstrostudiyaFont;-inkscape-font-specification:AstrostudiyaFont;fill:#666666">
      <path
         d="m 1230.4712,-455.36267 h -9.5313 v -2.94922 h 9.5313 z"
         style="font-family:Roboto;-inkscape-font-specification:Roboto"
         id="path4577" />
      <path
         d="m 1266.3306,-458.05798 q 0,4.17968 -1.4063,7.30468 -1.4062,3.10547 -3.9844,4.7461 -2.5781,1.64062 -6.0156,1.64062 -3.3594,0 -5.957,-1.64062 -2.5977,-1.66016 -4.043,-4.70703 -1.4258,-3.06641 -1.4648,-7.08985 v -2.05078 q 0,-4.10156 1.4258,-7.24609 1.4257,-3.14453 4.0234,-4.80469 2.6172,-1.67969 5.9766,-1.67969 3.4179,0 6.0156,1.66016 2.6172,1.64062 4.0234,4.78516 1.4063,3.125 1.4063,7.28515 z m -3.7305,-1.83594 q 0,-5.05859 -2.0313,-7.75391 -2.0312,-2.71484 -5.6835,-2.71484 -3.5547,0 -5.6055,2.71484 -2.0313,2.69532 -2.0899,7.5 v 2.08985 q 0,4.90234 2.0508,7.71484 2.0703,2.79297 5.6836,2.79297 3.6328,0 5.625,-2.63672 1.9922,-2.65625 2.0508,-7.59766 z"
         style="font-family:Roboto;-inkscape-font-specification:Roboto"
         id="path4579" />
      <path
         d="m 1285.0415,-462.90173 h -9.7461 v 18.14453 h -3.6328 v -21.13281 h 13.3789 z"
         style="font-family:Roboto;-inkscape-font-specification:Roboto"
         id="path4581" />
      <path
         d="m 1286.8188,-455.51892 q 0,-3.10547 1.211,-5.58594 1.2305,-2.48047 3.3984,-3.82812 2.1875,-1.34766 4.9805,-1.34766 4.3164,0 6.9726,2.98828 2.6758,2.98828 2.6758,7.94922 v 0.25391 q 0,3.08593 -1.1914,5.54687 -1.1719,2.44141 -3.3789,3.8086 -2.1875,1.36718 -5.039,1.36718 -4.2969,0 -6.9727,-2.98828 -2.6563,-2.98828 -2.6563,-7.91015 z m 3.6329,0.42969 q 0,3.51562 1.6211,5.64453 1.6406,2.1289 4.375,2.1289 2.7539,0 4.375,-2.14843 1.621,-2.16797 1.621,-6.05469 0,-3.47656 -1.6601,-5.625 -1.6406,-2.16797 -4.375,-2.16797 -2.6758,0 -4.3164,2.12891 -1.6406,2.1289 -1.6406,6.09375 z"
         style="font-family:Roboto;-inkscape-font-specification:Roboto"
         id="path4583" />
      <path
         d="m 1327.854,-444.7572 h -3.6133 v -9.02344 h -9.707 v 9.02344 h -3.6328 v -21.13281 h 3.6328 v 9.16015 h 9.707 v -9.16015 h 3.6133 z"
         style="font-family:Roboto;-inkscape-font-specification:Roboto"
         id="path4585" />
      <path
         d="m 1337.6001,-458.60486 h 5.4883 q 3.5937,0.0391 5.6836,1.875 2.0898,1.83594 2.0898,4.98047 0,3.16406 -2.1484,5.07813 -2.1485,1.91406 -5.7813,1.91406 h -8.9453 v -21.13281 h 3.6133 z m 0,2.94922 v 7.94922 h 5.3711 q 2.0312,0 3.1445,-1.03516 1.1133,-1.05468 1.1133,-2.87109 0,-1.75781 -1.0937,-2.87109 -1.0743,-1.13282 -3.0274,-1.17188 z"
         style="font-family:Roboto;-inkscape-font-specification:Roboto"
         id="path4587" />
    </g>
    <g
       aria-label="- Вода"
       id="text507546-5-1-2"
       style="font-size:40px;line-height:1.25;font-family:AstrostudiyaFont;-inkscape-font-specification:AstrostudiyaFont;fill:#666666">
      <path
         d="m 1229.5039,-399.44574 h -9.5312 v -2.94922 h 9.5312 z"
         style="font-family:Roboto;-inkscape-font-specification:Roboto"
         id="path4590" />
      <path
         d="m 1243.4883,-388.84027 v -28.4375 h 9.2969 q 4.6289,0 6.9531,1.91406 2.3437,1.91406 2.3437,5.66406 0,1.99219 -1.1328,3.53516 -1.1328,1.52344 -3.0859,2.36328 2.3047,0.64453 3.6328,2.46094 1.3477,1.79687 1.3477,4.29687 0,3.82813 -2.4805,6.01563 -2.4805,2.1875 -7.0117,2.1875 z m 3.75,-13.30078 v 10.23437 h 6.1914 q 2.6172,0 4.1211,-1.34765 1.5234,-1.36719 1.5234,-3.75 0,-5.13672 -5.5859,-5.13672 z m 0,-3.00781 h 5.664 q 2.461,0 3.9258,-1.23047 1.4844,-1.23047 1.4844,-3.33985 0,-2.34375 -1.3672,-3.39843 -1.3672,-1.07422 -4.1601,-1.07422 h -5.5469 z"
         style="font-family:Roboto;-inkscape-font-specification:Roboto"
         id="path4592" />
      <path
         d="m 1266.8672,-399.60199 q 0,-3.10547 1.2109,-5.58594 1.2305,-2.48047 3.3985,-3.82812 2.1875,-1.34766 4.9804,-1.34766 4.3164,0 6.9727,2.98828 2.6758,2.98828 2.6758,7.94922 v 0.25391 q 0,3.08594 -1.1914,5.54687 -1.1719,2.44141 -3.3789,3.8086 -2.1875,1.36718 -5.0391,1.36718 -4.2969,0 -6.9727,-2.98828 -2.6562,-2.98828 -2.6562,-7.91015 z m 3.6328,0.42969 q 0,3.51562 1.6211,5.64453 1.6406,2.12891 4.375,2.12891 2.7539,0 4.375,-2.14844 1.6211,-2.16797 1.6211,-6.05469 0,-3.47656 -1.6602,-5.625 -1.6406,-2.16797 -4.375,-2.16797 -2.6757,0 -4.3164,2.12891 -1.6406,2.1289 -1.6406,6.09375 z"
         style="font-family:Roboto;-inkscape-font-specification:Roboto"
         id="path4594" />
      <path
         d="m 1289.0547,-391.78949 1.25,-1.54297 q 2.1094,-2.73437 2.4023,-8.20312 l 0.3321,-8.4375 h 13.6132 v 18.18359 h 2.7149 v 9.16016 h -3.6133 v -6.21094 h -14.7461 v 6.21094 h -3.6133 l 0.02,-9.16016 z m 4.2773,0 h 9.7071 v -14.84375 h -6.5039 l -0.2149,5.03906 q -0.332,6.3086 -2.9883,9.80469 z"
         style="font-family:Roboto;-inkscape-font-specification:Roboto"
         id="path4596" />
      <path
         d="m 1326.418,-388.84027 q -0.3125,-0.625 -0.5078,-2.22656 -2.5196,2.61718 -6.0157,2.61718 -3.125,0 -5.1367,-1.75781 -1.9922,-1.77734 -1.9922,-4.49219 0,-3.30078 2.5,-5.11718 2.5196,-1.83594 7.0703,-1.83594 h 3.5157 v -1.66016 q 0,-1.89453 -1.1328,-3.00781 -1.1329,-1.13281 -3.3399,-1.13281 -1.9336,0 -3.2422,0.97656 -1.3086,0.97656 -1.3086,2.36328 h -3.6328 q 0,-1.58203 1.1133,-3.04687 1.1328,-1.48438 3.0469,-2.34375 1.9336,-0.85938 4.2383,-0.85938 3.6523,0 5.7226,1.83594 2.0703,1.81641 2.1484,5.01953 v 9.72656 q 0,2.91016 0.7422,4.62891 v 0.3125 z m -5.9961,-2.75391 q 1.6992,0 3.2226,-0.8789 1.5235,-0.87891 2.2071,-2.28516 v -4.33594 h -2.8321 q -6.6406,0 -6.6406,3.88672 0,1.69922 1.1328,2.65625 1.1328,0.95703 2.9102,0.95703 z"
         style="font-family:Roboto;-inkscape-font-specification:Roboto"
         id="path4598" />
    </g>
    <g
       aria-label="- Воздух"
       id="text507546-1-1-4"
       style="font-size:40px;line-height:1.25;font-family:AstrostudiyaFont;-inkscape-font-specification:AstrostudiyaFont;fill:#666666">
      <path
         d="m 1230.4712,-343.9585 h -9.5313 v -2.94921 h 9.5313 z"
         style="font-family:Roboto;-inkscape-font-specification:Roboto"
         id="path4601" />
      <path
         d="m 1244.4556,-333.35303 v -28.4375 h 9.2968 q 4.6289,0 6.9532,1.91407 2.3437,1.91406 2.3437,5.66406 0,1.99219 -1.1328,3.53515 -1.1328,1.52344 -3.0859,2.36329 2.3047,0.64453 3.6328,2.46093 1.3476,1.79688 1.3476,4.29688 0,3.82812 -2.4804,6.01562 -2.4805,2.1875 -7.0118,2.1875 z m 3.75,-13.30078 v 10.23438 h 6.1914 q 2.6172,0 4.1211,-1.34766 1.5234,-1.36719 1.5234,-3.75 0,-5.13672 -5.5859,-5.13672 z m 0,-3.00781 h 5.664 q 2.461,0 3.9258,-1.23047 1.4844,-1.23047 1.4844,-3.33984 0,-2.34375 -1.3672,-3.39844 -1.3672,-1.07422 -4.1602,-1.07422 h -5.5468 z"
         style="font-family:Roboto;-inkscape-font-specification:Roboto"
         id="path4603" />
      <path
         d="m 1267.8345,-344.11475 q 0,-3.10546 1.2109,-5.58593 1.2305,-2.48047 3.3984,-3.82813 2.1875,-1.34765 4.9805,-1.34765 4.3164,0 6.9727,2.98828 2.6758,2.98828 2.6758,7.94922 v 0.2539 q 0,3.08594 -1.1915,5.54688 -1.1718,2.4414 -3.3789,3.80859 -2.1875,1.36719 -5.039,1.36719 -4.2969,0 -6.9727,-2.98828 -2.6562,-2.98828 -2.6562,-7.91016 z m 3.6328,0.42969 q 0,3.51563 1.6211,5.64453 1.6406,2.12891 4.375,2.12891 2.7539,0 4.375,-2.14844 1.6211,-2.16797 1.6211,-6.05469 0,-3.47656 -1.6602,-5.625 -1.6406,-2.16796 -4.375,-2.16796 -2.6758,0 -4.3164,2.1289 -1.6406,2.12891 -1.6406,6.09375 z"
         style="font-family:Roboto;-inkscape-font-specification:Roboto"
         id="path4605" />
      <path
         d="m 1303.2251,-348.70459 q 0,-1.48437 -1.1328,-2.34375 -1.1328,-0.87891 -3.1055,-0.87891 -1.914,0 -3.2031,0.9961 -1.2695,0.99609 -1.2695,2.34375 h -3.5938 q 0,-2.75391 2.3047,-4.51172 2.3047,-1.75781 5.7617,-1.75781 3.711,0 5.7813,1.60156 2.0703,1.58203 2.0703,4.53125 0,1.42578 -0.8594,2.61719 -0.8594,1.1914 -2.4414,1.89453 3.6914,1.25 3.6914,4.92187 0,2.91016 -2.2461,4.60938 -2.2461,1.69922 -5.9961,1.69922 -3.6523,0 -6.0351,-1.77735 -2.3633,-1.79687 -2.3633,-4.84375 h 3.5937 q 0,1.54297 1.3672,2.65625 1.3867,1.09375 3.4375,1.09375 2.0703,0 3.3399,-0.95703 1.2695,-0.95703 1.2695,-2.48047 0,-1.77734 -1.0742,-2.53906 -1.0547,-0.78125 -3.3008,-0.78125 h -3.6133 v -3.04687 h 3.9258 q 3.6914,-0.0977 3.6914,-3.04688 z"
         style="font-family:Roboto;-inkscape-font-specification:Roboto"
         id="path4607" />
      <path
         d="m 1311.7407,-336.30225 1.25,-1.54296 q 2.1094,-2.73438 2.4024,-8.20313 l 0.332,-8.4375 h 13.6133 v 18.18359 h 2.7148 v 9.16016 h -3.6133 v -6.21094 h -14.7461 v 6.21094 h -3.6132 l 0.02,-9.16016 z m 4.2774,0 h 9.707 V -351.146 h -6.5039 l -0.2149,5.03907 q -0.332,6.30859 -2.9882,9.80468 z"
         style="font-family:Roboto;-inkscape-font-specification:Roboto"
         id="path4609" />
      <path
         d="m 1342.9712,-338.646 4.9219,-15.83984 h 3.8672 l -8.4961,24.39453 q -1.9727,5.27344 -6.2696,5.27344 l -0.6836,-0.0586 -1.3476,-0.25391 v -2.92969 l 0.9765,0.0781 q 1.836,0 2.8516,-0.74219 1.0352,-0.74219 1.6992,-2.71484 l 0.8008,-2.14844 -7.5391,-20.89844 h 3.9454 z"
         style="font-family:Roboto;-inkscape-font-specification:Roboto"
         id="path4611" />
      <path
         d="m 1362.0728,-346.771 4.6875,-7.71484 h 4.2187 l -6.9141,10.44922 7.1289,10.68359 h -4.1796 l -4.8829,-7.91015 -4.8828,7.91015 h -4.1992 l 7.1289,-10.68359 -6.914,-10.44922 h 4.1796 z"
         style="font-family:Roboto;-inkscape-font-specification:Roboto"
         id="path4613" />
    </g>
    <g
       aria-label="- Земля"
       id="text507546-1-1-4-4"
       style="font-size:40px;line-height:1.25;font-family:AstrostudiyaFont;-inkscape-font-specification:AstrostudiyaFont;fill:#666666">
      <path
         d="m 1230.4712,-287.88531 h -9.5313 v -2.94922 h 9.5313 z"
         style="font-family:Roboto;-inkscape-font-specification:Roboto"
         id="path4616" />
      <path
         d="m 1259.0454,-298.08063 q 0,-2.26562 -1.6601,-3.59375 -1.6407,-1.34765 -4.629,-1.34765 -2.5,0 -4.1992,1.38672 -1.6797,1.36718 -1.6797,3.39843 h -3.75 q 0,-2.26562 1.2305,-4.0625 1.25,-1.79687 3.4766,-2.79297 2.2265,-1.01562 4.9218,-1.01562 4.7657,0 7.4024,2.14844 2.6367,2.1289 2.6367,5.9375 0,1.97265 -1.2109,3.59375 -1.211,1.62109 -3.3789,2.55859 5.0195,1.67969 5.0195,6.66016 0,3.82812 -2.8516,6.07422 -2.8515,2.24609 -7.6172,2.24609 -2.832,0 -5.1562,-0.99609 -2.3047,-1.01563 -3.5938,-2.8711 -1.289,-1.85547 -1.289,-4.41406 h 3.75 q 0,2.24609 1.7773,3.75 1.7774,1.48437 4.5117,1.48437 3.0665,0 4.8829,-1.42578 1.8359,-1.42578 1.8359,-3.76953 0,-5 -6.1914,-5.09765 h -3.5156 v -3.08594 h 3.4961 q 2.8515,-0.0586 4.3164,-1.28906 1.4648,-1.23047 1.4648,-3.47657 z"
         style="font-family:Roboto;-inkscape-font-specification:Roboto"
         id="path4618" />
      <path
         d="m 1276.3892,-276.88922 q -4.2969,0 -6.9922,-2.8125 -2.6953,-2.83203 -2.6953,-7.55859 v -0.66407 q 0,-3.14453 1.1914,-5.60547 1.2109,-2.48046 3.3593,-3.86718 2.168,-1.40625 4.6875,-1.40625 4.1211,0 6.4063,2.71484 2.2851,2.71484 2.2851,7.77344 v 1.5039 h -14.3164 q 0.078,3.125 1.8164,5.0586 1.7579,1.91406 4.4532,1.91406 1.914,0 3.2422,-0.78125 1.3281,-0.78125 2.3242,-2.07031 l 2.207,1.71875 q -2.6562,4.08203 -7.9687,4.08203 z m -0.4493,-18.94531 q -2.1875,0 -3.6718,1.60156 -1.4844,1.58203 -1.836,4.45312 h 10.586 v -0.27343 q -0.1563,-2.75391 -1.4844,-4.25782 -1.3281,-1.52343 -3.5938,-1.52343 z"
         style="font-family:Roboto;-inkscape-font-specification:Roboto"
         id="path4620" />
      <path
         d="m 1300.979,-282.065 7.1875,-16.34766 h 4.5117 v 21.13281 h -3.6133 v -15.37109 l -6.8359,15.37109 h -2.5 l -6.9727,-15.70312 v 15.70312 h -3.6132 v -21.13281 h 4.6875 z"
         style="font-family:Roboto;-inkscape-font-specification:Roboto"
         id="path4622" />
      <path
         d="m 1335.8032,-298.41266 v 21.13281 h -3.6328 v -18.14453 h -7.1875 l -0.4297,7.91016 q -0.3515,5.44922 -1.8359,7.79297 -1.4649,2.34375 -4.668,2.4414 h -1.4453 v -3.18359 l 1.0352,-0.0781 q 1.7578,-0.19532 2.5195,-2.03125 0.7617,-1.83594 0.9766,-6.79688 l 0.3906,-9.04297 z"
         style="font-family:Roboto;-inkscape-font-specification:Roboto"
         id="path4624" />
      <path
         d="m 1357.7563,-298.41266 v 21.13281 h -3.6328 v -8.22265 h -5.4492 l -4.9805,8.22265 h -3.9062 l 5.3125,-8.76953 q -2.0313,-0.74218 -3.125,-2.28515 -1.0742,-1.5625 -1.0742,-3.63282 0,-2.89062 2.1679,-4.64843 2.168,-1.77735 5.8008,-1.79688 z m -13.2226,6.48438 q 0,1.54297 1.0547,2.5 1.0547,0.9375 2.7929,0.95703 h 5.7422 v -7.01172 h -5.1953 q -2.0117,0 -3.2031,0.99609 -1.1914,0.97657 -1.1914,2.5586 z"
         style="font-family:Roboto;-inkscape-font-specification:Roboto"
         id="path4626" />
    </g>
  </g>
</svg>
