<svg xmlns="http://www.w3.org/2000/svg" class="natal" viewBox="-60 -55 980 940"><g fill="none" stroke="#666"><g stroke-width=".7" font-family="Astrostyle" letter-spacing="0" word-spacing="0"><g font-size="40"><path d="m435 545 4-4 8-5q-3 5-7 8zm2-21q2-3 4-3l6-2-6 5zm10-2v-3l2 2 1 4zm0 16 3 2 1 4h1q2-4 4-4l7-4-7 7-4 2-1-1-4-3zm3-13 6-4 12-4-5 3 2 1v4l5-4 6-3h3l-2 1 2 2 1 5-4-5v-1l-6 4-5 1 1 1h-2l1-1-3-3v-1l-7 3zm12 13q4 1 4 3v1h1l2-1 8-4-1 1 3 3 2 5-5-5v-3l-8 6-1 1v1l-1-1h-3l2-2-2-2z" aria-label="x" transform="matrix(.75119 0 0 .74281 -161 -183)"/><path d="m861 354-17 1q1 2 13 2l-4 4-13 13-4-3-9-3 5 3 6 4-3 3q-7 7-10 13l9-8 7-6 3 2 7 7-1-2q0-2-7-9l15-17 5 11zm13 26q-54 13 0 0z" aria-label="l" transform="matrix(.75119 0 0 .74281 -161 -183)"/><path d="M1061 486h-1l-4 3-1 1 2-3v-1l-3-1-2-1-2-3-2-3-1-4 1-11 2-11v-6q0-2-3-2-2 0-6 5l-1 1v8l-1 13-1 6v-6l1-17q-1-10-3-10t-5 5l-2 3 1 5v11l-1 5-1 5v5-27l-1-7-3-6 2 1v1l1 2 1 1 1 2v1l1-2 1-2 1-2 2-2 1-1 2-1 1 1 1 3 1 4q1-4 4-6t5-1q2 1 3 5v4l-1 2v3l-1 4-1 6v8l2 6 2 3q2 2 4 1v-1l-1-2-1-1z" aria-label="k" transform="matrix(.75119 0 0 .74281 -161 -183)"/><path d="m1155 636 5-2 5-1h15l5 1h4l4 1h-31zm0-13 4-1h5l4 1q-7-8-6-14 1-3 5-4 5-2 10-1l9 3q3 4 2 8-2 4-8 8l5 1h11-18q8-6 8-11 0-3-4-6-3-2-8-2-4-1-7 1-4 3-2 8l5 10-8-1z" aria-label="j" transform="matrix(.75119 0 0 .74281 -161 -183)"/><path d="m1185 828 1 1 1 1 1 2 1 1 1 2v1l1-2 1-2 1-2 2-2 1-1 2-1 1 1 1 3 1 4q1-4 4-6t5-1q2 1 3 5l-1 9q4-5 6-2v10q-1 8-4 14l-3 5 4 8-2-3-2-3-1-2v1h-1l-1 1-1 1-2 1-3 1 2-1 2-2 2-1 2-1v-1l-2-8 1-11 2-11v-6q-1-2-3-2t-6 5l-1 1v8l-1 13-1 6v-6l1-17q-1-10-3-10t-5 5l-2 3 1 5v11l-1 5-1 5v5-27l-1-7zm26 39q2-1 4-8l2-13q1-7-1-7l-3 2-2 4-1 4v14l1 2z" aria-label="h" transform="matrix(.75119 0 0 .74281 -161 -183)"/><path d="M1120 1041q-4-9-2-15 2-4 6-6 3-2 8-1 4 1 6 4 3 5 1 12l-2 5-4 5-2 6-2 5-1 5 1 4 2 3 4 2 6 1-6-1-4-1-2-4-1-4v-4l1-5 1-4 2-4 2-4q5-8 3-13-1-4-5-5-3-2-7-1t-6 4q-3 5 0 12 0 3 2 5l-1-1-1-1-2-1h-1l-2-1h-4l-2 1-2 2-1 1-2 2v8l2 2 3 2h7l3-2 1-1v-2l1-2-1-2-1-2-1-3-1-2q5 8 4 13-1 3-4 4t-7-1q-4-1-7-4l-1-3 1-2v-3l2-3 2-3 3-1h3l4 1z" aria-label="g" transform="matrix(.75119 0 0 .74281 -161 -183)"/><path d="m944 1150 18 1 4 1v1l-1-1h-4l-4-1h-18l-4 1q6 2 7 7l-2 6-6 5q-4 2-7 0-4-2-5-7v-4l2-3 2-3 4-1 4-2zm-11 2-4 1-4 3-2 3v4q2 5 6 6 3 1 6-2 3-2 4-5 2-3 0-6-1-3-5-4zm28 9q3 0 5 2l3 6q1 9-9 12-9 2-22 1l-12-2-1-1 1 1h3l5 1h18l4-1-4-3-2-2-1-4 1-3 2-2 3-3 3-1zm0 2h-3l-3 2-2 2-1 3-1 3v3l2 2 4 1h3l2-1 2-1 2-2 1-2 1-2v-2l-3-5z" aria-label="f" transform="matrix(.75119 0 0 .74281 -161 -183)"/><path d="M722 1212h-9l12-3q12-1 17 1l12 4-16-2zm-8-39q3 4 10 4 18 2 30-1l-6 2-8 1-8 1h-6l2 8-1 9v11l-2-16v-12l-7-3q-4-2-4-4zm28 7v28l-1-4-1-3v-6l-1-3v-3l1-2v-3l1-2z" aria-label="d" transform="matrix(.75119 0 0 .74281 -161 -183)"/><path d="M522 1096v-1h1q3 1 9 10 5 5 11 5l4-1-7-1h1l7 1 6-4 7-7q4-3 7-3-3 0-8 4l-7 9-3 2 6 5q3 5 3 9l-2 7q-4 4-12 4t-14-5q-3-3-3-8 0-3 3-7l4-4h1l-7-8-4-6zm8 26q0 6 5 8 5 3 11 3 7 0 11-5l1-4q0-5-5-11l-4-3-7 2h-1l-4-1q-4 1-6 5zm8-14h1z" aria-label="s" transform="matrix(.75119 0 0 .74281 -161 -183)"/><path d="M424 946q4-3 5-7 1-2-1-3h-3q-3 1-6 6-4 7-6 19l-1 6-2 6v-13l-2-12-3-8q-2-3-5-4h-5l-1 1-2 2v4l1 1 1 2h1v1l-1-1-3-4q-1-4 2-6l2-2h6l2 1 3 3 2 4 1 4 1 4 1 4v3l1 3-1 1 2-8q2-10 5-15 4-5 7-5t4 2q2 2 1 5 0 3-3 5z" aria-label="a" transform="matrix(.75119 0 0 .74281 -161 -183)"/><path d="m368 735 7-2v-5l-1-1v-2l-1-1v-1l-1-2v-1l-1-1q7 7 7 13l3 1h7l1-2v-1l1-2v-2l1-2 1-2 1-1 1-2 1-1h2l-2 2-2 4-1 3-1 3v4h11l-2 1h-10q-1 6 2 13 2 6 6 10l-4-4-3-7q-2-3-2-7l-1-5h-10v5l-1 5-2 6-1 4-3 3q3-5 4-12l1-11h-7z" aria-label="c" transform="matrix(.75119 0 0 .74281 -161 -183)"/><path d="M611 388h1q3 0 6 4l1 4 1 6 1 8-3-12-2-5q0-2-3-4zm10 19 2-10q4-11 8-11h1q3 0 5 7l1 6-1 5v2l1 4q3-6 9-6 4 0 6 6l1 1v1q0 5-5 6h-2q-5 0-9-3l-1-2q-3 8-6 11h-1q4-4 7-11l-2-8v-9q0-5-2-7l-2-1q-2 0-6 8-3 4-4 11zm3 19h2l4-2q-2 3-4 3zm14-15 4 4 5 2q4 0 5-4v-2l-2-5-4-1q-4 0-8 6z" aria-label="v" transform="matrix(.75119 0 0 .74281 -161 -183)"/></g><g font-size="64"><path d="m540 459-2 18-2 17 2-16 2-15 1-7 1-3v-5l-1 6-1 6v-2l-1-1-1-1-2 5-1 5-1 3-1 2q3 1 4 5h-3l-1 1h-1v4q-3 2-2 3l-1 2-1-1-1-2v-1h-1v-1h-1v-3h-1v-1l-8-1-1 3v7l-2 5v1h-1v-3h-1l-1 1-1 1h-1v1h-3l-1-1h2l1-2-8 1v2-2h-2l-1-1h-1l-2 1h-1l-1 1h-2v1h10-10l-1-1h2l2-1 2-1 1-1 1-1v-2h1l1-1 3-6 1-2-1-3v-2l1-2 3-1 1-1h-3l-3 1h-1l-1 1h-1l-1 1-1 1-3 4-2 4-2 2-2 3 1-1v-1l1-1v-1l1-1v-1l5-5q1-3 4-5l1-1q-1 0 0 0l-4 2h-1l3-2 2-1v-1l-3 1-2 1 2-1 2-1v-3q0-1 0 0h1l1 2v3h7l3-1h3l2-1h2l2-1 2-1 1-2-1-2-2-1-3 1-3 2h-8l-2 2-1 1v-2h-1v3-1l-1-1v-1l3-2 4-2 3-1 3-1h2l2-2 3-1 2-2 2-2 2-1h3-3v-3h-1v-4l-1-1 1-1h1l3-1h2l2 2v2l1 1-1 1-1 1h1l4 3h1l1 1 1 1 1 2v1-2l1-1v-6l1-2v-4l1-1v6l-1 1 2 2v3l1 2v7l-2 2-3-1-5 35h-1l3-18zm-34 32 1 1 1-1h1v-1h1v-1l2-1h-2l-1 1h-1l-1 1-1 1h-1v1h1zm8-10 1-3-2 2 1-2 1-2h9-1 1v-1h-7l-1 1h-1l-1 1-1 1v1l-1 2-2 5 4-1v2-2l-1 1v6l2-6zm-11 9 2-1h2l1-1h2l1-1-1-1v-1l1-1v-2l1-3-1 1q-4 5-8 7h-3 2l1-1q5-2 8-7l1-1 1-1-2 1-1 2 5-5-2 1h-2 1l-2-1h-1 10l2-1h-2 1l-2-1h-2 1l-1-1v-1q1 2 3 2l2 1 2 1-2-2-2-1 2 1 3 1v-1l-1-1 2 1-1 3v2h2l1 1v-3l-1-4v-2h-1l-1-1 2 1 1 4 1 4v-2l-1-2v3l1 1v7h1v-14h-1v-1h-1l1 1v2-2h-1v-1h-1v-1h-2l-1-1h-8v-1l3 1h5l-1-1-2-1 1 1 3 1h1l1 1h1l1 1h1l-1-1-1-1h1v1l1 2v-1 9l1-1 3-1 1-2-1-1-1-2-2-3-3-2-3-1h-3l-1-1 3 1v-1 1l6 2 1 1 1 1 1 1 1-2h-1l2-1v-4l3-5 1-3-1-1v-1l-1 1 1-2-1 1 2 1 1 2 1 1 1-1v-4h-1 1l-1-1v-2l-1-1-1-1h-3l-1-1-1-1-1-1h-1 1v-1h-1v-1h1v1h1v1-2l-2-1-2-2-3-1 1-1h1l-1 1h3-2 1v1h1v-1 1l1 1v-1 1l1-1v1h-1l1 1v-1 1h1v-1l-2-2-2-1-3 1 1 1 3 1 1 1h1-2 1v2-1 2l-1-1v1h-1v-1h1v-1h1l-1-1v1q-1 0 0 0 0 1 0 0l-1-1h-1v-1l2 1-2-2v1h-1v1-1l-1-1h-1q-1 0 0 0v1h1v1h-1 1l1 1-1 1v-1 2l1 1h-1v2h1v-1h1v1l1-1v-1l1 1-1 1v1-1l-2 1h-1l-2 1-1 1-2 1q1 0 0 0l-4 2-2 2-6 2-4 1-3 2-1 1v1-1h2l-1 1 2-1 1-1h3l4-1h-2q3 1 5-1h1l1-1h1l1-1h2l3-2v-1l1-2-1 3v4l1 1v1l-1 1v1l-1 1-1 1h-1 1v-1l-1 1v-1h1v-1l-2 1-1 1-1 1-1 1v-1l2-1h-2l-1 1 1-1h2v-1l-2 1h-1l-1 1h-2l-1 1h-1 1v-1l-2 1h-3l-2 1-3 1-1 3v2l1 1v2l1-3v-2 2l1-2 2-2 3-1 3-1-2 1-2 1h-2l-1 1-1 1v2l-1 1-2 5-2 3v1l-1 1v-1l-1 2v1h-1l-1 1v1h2l1 1zm3-4q1 1-2 2l-3 1 3-1zm-9 0 1 2zm14-5q0 2-2 3l-2 3 2-3zm-6-5v7zm4 4-2 1zm-1-3v-1h-1v-2l2 4v1-1h-1zm17-1v-5l-1-1 2 3v3zm-14-3 6 1q1 0 0 0h-4v-1zm9-4 2 1h1l1 1-1-1h-2zm-7 0 2 1h-1zm1 0h3zm5-2v1l-1-1zm9-1q1 1 2-1v1h-1l-1 1zm-1-4v-2q1 0 0 0l1 2zm1-6v3-1h-1v1h-1l2-1zm-13 1v1h-1zm15-1h5l-5 1zm-4 0h2-3zm-1-1zm3-1 1-3v3zm2-5v-2 3l1-1h2-1l-2 1zm0 0zm-2 0h1v1zm0-3v1zm1-1 1 1h-1zm0 0zm-2-1v1zm6-1v1zm-1 0q0-1 0 0zm-4-1zm0-1v1zm-2 0zm5-1v-1zm-3-1q-1 0 0 0zm-16 47v2h1zm0 1h-1l1 1zm0-1h-2 1v1h1zm17-3 1-2 1-1v-2l-1 1 1 2v-1l-2-1v5q1 0 0 0zm-1-4-1 1h-1l-1 1h1l1 1h1zm-1 0-1-1v1l-1 2 1-1zm3 0zm3-7v-1h-1v1l1 2 1 2h2q1-2-1-3zm-33-4v-4l-1-1v-1h-1 1v2l1 1zm0-2h-1v1zm-1 0v-2zm0-3-1 1h1zm25-1v-7l-4 2v1h1l1 1v4h1zm20-2 1-3 1-3-2-9-1-1h-1l1 1h-1v1h1-1v1h1-1v1h1l1 1-1 2v4l-1 2v1-3 1l-1 2 1 2zm-1-12-1 5 1 2zm-15-1-1 1h1zm15-3v-2l1-2v-3l-1 3zm-17-1q0-1 0 0zm1-2v-1h-1zm-42 45 1-1zm-3-3-1 1v1zm2 0 1-2zm-2-1 2-2 2-3-3 4v1zm8-7-1 2-3 4zm-3 0-3 3-2 3 1-2 2-3zm-5 2-1 1-1 1zm3-2-1 1-1 2zm3 1 1-1 1-1h1l-2 1zm3-2 2-2 2-2h1v-1l-2 1 3-2v1h-1 1l-2 1-2 3zm-2 0 1-1zm2-5-1 1v-1zm5-2 1-1zm6-3 1 1h-1z" aria-label="S" transform="matrix(.75119 0 0 .74281 -161 -183)"/><path d="M716 407v-2 1l-1 1v-1l1-2 2-2v-1l-1-4-1-2-1-2-1-1v1l-1 1-1-1 1 1 1 1h-1l-1-3h-1v1-4l1 1v1-3 2-1l-1-2-1-3 1 2 1 2q1 0 0 0v-2l-1-1 1 2 1 2v5-1l1-1v-1l-1-2v-1 1-3 1-2 3l1 2v-3l-1-3-1-1 1 1h1l2 2 2 2v3l1-1-1-2v-1 1h1l-1-1-1-1 1 1h1v1-2h-1v-1h-1l-1-1-1-1 1 1 1 1-1-1v-1h-1 1l2 1v1h1l1 1v-1h-1 2v1h1v-1h-1l-2-1-1-1v1h1l1 1-1-1-2-1v-1l1 1-1-1-1-1v1l-1-1-1-2 2 2h1-1l2 1v1-1l-1-2-2-1h1l1 1v-1h-1 1l1 1v2-1q1 0 0 0v-2 1-2q1-3-1-5v-1l1 1v2l1 1v-2 9l1 1h1-1v-1 1-3 3h1l1 2-1-2-1-2v-7 2l1 1v2l1 2h1v-1l1-1v-2l1-1v-3l-1-1h1v1-2l1 1v1h1v1-1l-1-1 1 1v-1l-1-2v1h1q0 1 0 0v-1 2l1 3v-3 5-5l1-1v1l1 2v-1l1 1v1h1l-1-1v-1h-1v-3q0-1 0 0l2 4v5-2l1-1v1l1 2v1l-1-1 1 2h1v3-2 2-2h-1v-1l-1-1v4l1 3v2l-2 7-2 3-2 2q0 1 0 0l1-1v1h-1 3v-1l1-1h1v-1l3-8v-2l2-4-1-3-1-1-1-1-1-2v-1 1l2 3h1v1l1 2v3l-1 2-1 3-2 6-1 2-1 1v-1 2h-1l-2 1h-1v-2l1-1 1-1 2-2 1-5v-8l-1-1v1l-1 1v-1l-1 1v1-1l1-2-1 1 1-1v1l2-2v-2l-1 1v1q0 1 0 0v-2 1l-1 1 1-1-1 1-1 1-1 1 1-1 1-1h-2v1h-1v1l-1-1h-1v1l1 1h-1v-1h-1v-1h-1v1l1 1h-1l-1-1v1q0 1 0 0l-1-1v1h1v1l-1 1v-1h-1v1q0 1 0 0v1h-1v-1h-1v-1h-1 1v2q0 1 0 0v3l-1 1h1v2l1 4v3l1 1v1l-1 1h-1v2h-1zm3-1v-3 1l1-1v-2 2l-1-2-1-4v-1l1 2v2l1 1-1-2v-4l-1-4-2-2h-1v3l1 3 1 3 1 4-1 1-1 2v1zm-2-11v-3 1l1 1v-1l-1-1v-1l-1-1 1 1 1 2v2-1h-1v2zm0 0q-1 0 0 0 0-1 0 0zm-5-2 1-2h-1l1 1v-3 1l-1 1v3zm24-3q1 0 0 0zm-21 1v-4 1h1l1 2h1l-1-1-2-2-1-2v1h1v1l-1 1v4zm-3 0v-1zm5-2v-1l-1-1-1-1 1 1v1l2 1zm-1 0v-1 1h1zm-1 0zm6-2-1-1h-1zm0 0v-1h-1 1zm9-2q0-1 0 0zm-7-1v-1h-1l-1-2v-2h-1l1 1v2l1 1v1-1 1h1v1zm5-1zm-5 0v-1 1l1 1zm5 0-1-1v1zm-3 0zm1 0v-2l1-1-1-1v-1l-1-1v3l-1 1 1 1v-3 3-1 2-1h1zm0-1v-1h-1v-3l1 1zm0-2v-1zm2 3zm-6 1-1-1v-2l-1-1v1l1 2v1zm3-1v-1zm3-2h1v1h2v-2 1h1q0-1 0 0v-2l-1 1v1h-2 1l-1-3v-1 2h1l-1-3h1l-1-1h1l-1-1v1l-1 2 1 2v2-1l-1 1v1zm1-3zm-5 3v2zm3 0v1h1v-1 1-4l-1 1v-1q1 0 0 0v2-1l-2-4v1l1 2v-1l-1-1 1 2 1 1v3zm1-1zm0-1v1zm5 1v-1zm-3 0v-1 1q0 1 0 0zm2 0q1 0 0 0zm-2 0zm1-1h1v-2l-1-1v4zm-1 0v1zm1 0-1-2v1zm0 0v-2zm-13 1h-1zm-1 0zm10-3v-1 1h1-1l1-1q0 1 0 0h-1l-1-2-1-1q0-1 0 0v2l1 1v-1 1q0 1 0 0l1 1v1zm3-1v-1 2zm1 1v-1h-1zm-11 1q1 0 0 0v-1zm10-3zm1-1zm-2 0v-1zm17 27 1-1 1-2 1-1v-5l-1-4-2-2v-1h-1v-1l-1-1h1v1l1 1 2 3 1 4 1 3-1 1v1l-1 1v1l-1 1v1h1l2-1h1l-1-1v-3h1v2l1-1v-1l-1-2-1-6-1-6-1-1-2-2v-1l-1-1v-3 1h-1v-2 1h-1l1-1v-3 1-2q-1 0 0 0v-6l-1-2v-1h-2v-1l1 1h1l1 1v-1 2h1l-1-2-1-1-3-2h-1l1 1v1l-1-1-1-1h-2l-2 1h-4l-2 1h-1l-1 1-2 1h-1v1h-2l-1 1v1h-2l-1 1h-4l-5 1h-2l-2 1v1h-2l-2 1h-1l-1 1-1 1-2 1h-1l-1 2h-1v1h-1v1-1 2h-1v2-1h-1l1 1v1-1 1h-1 1v1l-2-2v-1h1v-1 1-2h1v-1h1v-1l2-1v-1 1l1-1 2-2h1l3-1 1-1h2l1-1 1-1h2l3-1h4l4-1 2-1v-1h1v1-1l3-1 2-1 2-1 3-1h1l2-1h2l1-1 1 1h1v-1l1 1 3 2 2 1v2l-1 2v6l1 2v3l2 2 1 1h-1l1 1-1-1h-1l1 1 2 2 1 4 2 10v2l-1 1v2l-1 1zm1-1zm-2-16zm0 0h-1zm2-6-1-1v-1 2zm-1-1h-1l1 1zm-1-1zm-56 2v-1 2zm1-1zm2-3h-1zm1-1zm2-1h-1zm6-4h1zm0 41v-2l1-2q2-1 2-3l1-3v-4l1-1v-4 2l-1-1v-1h1-1l1-1 1-4v-3 2l1 2v-2 1l1 2v1l1 1v1h1v-1l-1-1-1-2 1 1 1 2v-1l-1-1-1-2 1 2 1 2v3h-1v-1q0-1 0 0l-1 5-1 3-1 2-1 2v2l-1 1h-1v2h-1zm3-1v-2h1v-2 1l1-2v-2h1l-1 1 1-1v-2l1-3 1-3 1-1v-2l-1-2-1-1v1-2l-1-1v1l1 1h-1v2l-1 4v2l-1 2v2l-1 5-1 1-2 2v1zm4-11v-5zm-1 0v-1zm1-4v-1zm3-4v1zm-5 1v-1zm1-2q-1 1 0 0zm42 11zm-18 2zm2-2v-2l1-2v2h-1zm18-3v-2l-1-2 1 1zm-17-4 1-2v-2 2-1 3zm15-4-1-2q-1-1 0 0l1 1v2zm0-1v-2 1zm-50 7h-1l-1-1-2-1h-1l-1-1-1-1h-2l-1-1-3-1-2-1-2-1-2-2-1-3v-2l2-2 2-2h1l1-1 1 1h1l-1 1h-1l-2 2-1 2 1 2 2 2h1v-2l-2-2v-1h2l2 1v-1 1l1 1h-1l1 1h-1q0-1 0 0v-2l-2-1h-2l1 1v1l2 1q0-1 0 0l1 1v1h1-1v1-1h1v1h-1v1h-1v-1h-1l-3-1-1-2v-4l1-1 1-1 2-1h1-1l-2 1q-2 0-3 2l-1 3 1 2v1l1 1 1 1q0-1 0 0h1v1-1 1h1v-1 1-1h1l-1 1h1v-1 2l1-1v1h1l1 1 1 1h2l1 1h2l1 1 1 1 2 1 1-1h1l-1-1-1-1v-1 1h2l-1-1h-1 2v1-1h-1 1v-1h-1l-1-1h-1v-1l-1 1v-1h2l2 1 2 1h-1l-2-1v-1h-2l1 1h1l1 2 1 1h-1v2h-1v1zm1-4zm-1-3h-1zm-11-1v-1h-1v1zm-1-1v-1h-1l-2-1-2-2 1-3v-1 1l-1 2 2 4 2 1zm1-1-1-1v1zm-1 0zm-6 0-1-3v-2l1-2 4-2h-2l-2 2q-2 3-1 6v1h1v1zm55 2v-3 1l1 1v1h-1v2zm-37 7zm49-8-1-3h-1 2v1h1-1v1zm0-2h-1zm-8 4v-1l-1-4v-2 1l-1-1-1-1q-1-1 0 0l1-1v-2l-1-1v2l-1-1q0-1 0 0v1-1l-1-2-1-2 1 1 1 2 1 1v-1l-1-1 1 1 1 2v2h-1 1l1 1h1v2-3h-1l1-1v-1l-1 1h-1l1-1-1-1v-1h1v1-3 1h1l-1-2-1-2 1 2h1v-1 2l1 3v5q-1 0 0 0v1-6 3l1-1v-1 5l-1 2 1 1v-2q1 0 0 0v1-5q0-1 0 0l1 1v2-3 1q0 1 0 0l1-1h-1l-1-2h1v1l1 1v-2l1 2h1-1l-1-1v1l2 1v1l-1-1-1-1v1q0-1 0 0v2-1l1 1v1-1h-1v-1l-1 1v1-1 1l1 2-1-1v-1 1l-1 1v-1h1v-1l-1 1v1h-1v-1l-1-1h1v-1l1-1-1 1-1 1zm1-4 1-1h-1v2zm-1 0v-1zm1-4v-2l-1-3v5-2 3h1zm-1-2zm0-3v-1 1q0 1 0 0zm0-1v1zm0-1v1zm0 14h1zm-42 7v-1zm41-8v-3l-3-3-1-1v-2l-1-1-1-2-2-2h1l1 2v1h1v1l1 1v1l1 1q-1 0 0 0v1q0-1 0 0l2 2 1 1v4zm2 0h1zm-44 7h1zm46-8h1zm-38 6v-1l1-3v-1 3zm34-6-1-1v-1h-1v-1h-1l-1-2-1-2v-1 1-1 1l1 2 1 1 1 1zm-41 7v-1zm-2 0zm3-1zm15-3v1zm-19 3h-1zm41-7v-1 2zm10-1h-1zm-49 8v-1zm1-1q0-1 0 0v1q0-1 0 0zm4 0-1-2-2-1h-1 1l1 1h1l-1-1h-3 1-3l2-1 3 1-1-1h-2v-1q-1 0 0 0l3 1-1-1q1 0 0 0l-1-1h1l1 1 1 1-1-1-2-1-1-1 3 1q0 1 0 0h-1l-1-1-1-1h-2 3l-1-1h-3q-1 0 0 0v-1l2 1h2v-1 1h1l-1-1h1v1l-1-1v-1l1 1h1l-1-1h1l1 1v1l1 1-1-3h-1l-1-2h-1 1-1l-1-1 1 1h1l-1-1 1 1 1 1 1 1v1l1 1v1h1l-1-1-1-1v-1l1 1h1l-1-1-1-1 3 3v3-2l-1-2v-1h1v1-1 1h1v-2 6-3 6-1 1-1l1-1v-1 1h-1v1l1-2 1-1-1 1v2q0 1 0 0l-1 1v1-1 2-5h-1v-1 1h-1 1v1h-1v-1 1h-1 1v-1l-3-2v-1 1l1 1 2 1h-1l-1-1 1 1h-2l1 1h1-1v-1 1h1-1v1h2l-1 1h-1 1l1 1h-2l1 1zm0-3v-1zm-2 0v-1zm0-1h1zm-1 0h-1v-1 1zm1 0v-1zm3-2v-1zm0-1h1zm-3 0-1-3 1 1v3zm3 0h-1zm-4-2h-1l1 1v1h1zm3 1-1-1 1 1 1 1zm2 0h-1v-1 1zm-1 0zm-4 0-1-1v1h1q0 1 0 0zm6-1q-1 0 0 0 0 1 0 0zm-1-1-1-1 1 2v1zm-1 1-1-1v1h1l1 1zm-2 1v-1l-1-1v1zm-2-1h1zm6 0v-1zm11 6-2-1v-1l1 1 2 1zm-21 3zm40-7v-1 1h-1v-1h1zm0 0v-1h-1zm-40 7v-1zm3-1zm-8 1zm1 0q-1 0 0 0v-2h1v1h1v-1l-1 1zm1-1v1zm-1 0zm45-6v-1zm-18 2h-1zm-7 0-1-1h1v1l1 1zm24-3-2-4v-2 2l2 4h1zm-42 7zm1 0v-1zm3-1v-1l1 1zm-4 0zm23-4-1-1v-1l1 1zm-25 4-1-1h1zm2-1zm-5 1v-1zm35-6v-2l-1-2v-1 1-1 1l1 2v-5 2-1l-1-1-1-1-1-1h1l2 3-1-1v-1l1 1v-2 2l1 1v-5 5h-1 1v3q0 1 0 0v-2 1l-1 3zm0-1v-1h1-1zm0-2v-1q0-1 0 0v2zm-9 5v-1zm-24 3q-1 0 0 0 0 1 0 0zm4-1h2-1l-1 1zm49-8zm-52 9q-1 0 0 0zm29-5v-2 1zm-12 2zm4-1-1-1-1-1 2 1h-1v-1l1 1zm7-1zm-6 1-1-1-1-1h1v1zm0-1v-1q-1 0 0 0v2zm-19 4zm20-4-1-1zm-18 3h1zm-6 1zm54-9h-1l-1-1-1-2q1 2 1 0v2h1v1zm-46 8q0-1 0 0zm-2 0 1-1v1zm40-7-1-3-1-1h-1 1v1l-1-2v-2 1l1 3 1 1v1zm-43 7h-1q1 0 0 0l1-1zm13-3v1zm13-1v-1zm2-1v-1 1q1 0 0 0zm-28 4 1 1zm16-2zm1 0-1-2-1-1-1-1h1v1q0-1 0 0h1l1 2zm9-1v-1zm-23 3zm-6 1zm8-2h-1 1q1 0 0 0zm19-3-1-1zm16-3-2-3v-1 1l1 1zm10-1v-1l1-2-1 1v1zm-36 5-1-1q0-1 0 0zm1 0h-1v-3 2zm-12 2q0-1 0 0zm-4 0h1zm47-7-1-1v-2 1l1 1zm-50 8v-1zm4-1h-1 2zm28-5zm22-3v-2zm-25 3-2-3-2-2h-1v-1l3 3 1 1v-1l-1-1 1 1 1 1-1-1v-1 1l1 2v2zm-23 4h-1zm-4 0h3-3v1zm-1 0h1-1 1q0-1 0 0l-1 1zm18-2v-1zm34-6 1-1v-1 2zm-26 4v-1l-2-1h1l1 1 1 1zm21-4-1-2 1 2v1zm-51 8-1-1h1v1h1zm0 0h-1zm35-5q1 0 0 0zm16-3v-1zm-31 5v-2zm15-3h-1v-1 1zm3 0v-1zm-28 4h-1q0-1 0 0h1v-1h-1zm18-3h-1zm24-4-1-3 1 2zm-29 5v-1zm-13 1v1zm37-5-1-2v-2 2zm-10 0v-1 2zm20-3v-1h-1v1-2h1v-1 2l1 2zm0-2-1 1h1zm-47 9h-1 1v1h1zm9-1v-1 2zm-14 3v-1zm13-3v-1 1h1zm-11 2 1-1v1zm4-1h-1l-1-1 1 1zm15-2v-1zm28-6-1-1v-3q0-1 0 0v1h1v-1 3-1 3zm-1-2zm-47 11h-1 2zm8-2-1-1zm2-1h-1l1 1zm-5 1h-1zm11-1zm21-4zm12-2v-3zm-12 1-1-2 1 2v1zm-28 5h-2 1l1 1zm41-6v-1h-1 1zm-2 0v-2zm-37 6zm28-4zm-29 4-1-1v-1 1zm0-1v-1 1l1 1h-1zm1 1v-1zm5-1h-1v-1zm0 0v-1l1 1zm14-3v-1zm14-2v-2zm-7 1v-2 1zm-26 4v-1zm32-6v1-5l1 2v1l-1 1v1zm-30 5v1zm-1 1v-1h-1 1zm3-1h1zm36-6v-2l1-1h-1zm-6 1v-2 1q0-1 0 0zm-29 4h-1 1v1zm3 0v-1l1 1zm-7 1zm34-6v-3zm-29 5h-2zm25-4v-2zm-38 6h1zm6-1v-1 1h1zm-6 0h1v1zm15-2zm22-4v-1zm-36 6h1zm10-2h1zm26-4v-1q-1 0 0 0zm-25 4v-1l1 1zm1-1h1-1 1zm33-5v-1zm-39 6v1zm1 0-1-1zm1 0v-1zm18-3v-1l1 1zm-25 4zm24-4v-1zm1 0-1-1h1zm-23 3q-1 0 0 0 0 1 0 0zm43-7v-2zm-39 6 1 1zm27-4zm11-1-1-2h1q0-1 0 0zm-42 6zm13-2v-1 1h1zm11-2zm-23 4zm5-1zm4-1v-1 1h1zm1 0v-1l1 1zm7-1v-1q1 0 0 0zm3-1v-1zm-12 2h1zm2 0-1-1h1zm7-1-1-1v-1h1zm10-3h-1v-1l1 1v1zm-1 1v-1q-1 0 0 0zm14-3zm1 0v-1l-1-1h1v1-1zm-17 3v-1zm1-1h-1zm14-2v-1 1h-1v-2l1 1zm-20 3zm-10 1 1 1zm1 0zm5 0v-1zm0-1v1zm1 0zm-4 1-1-1 1 1h1zm19-3v-1zm6-2v-1zm-6 0q-1 0 0 0v1zm-2 1zm3-1q0 1 0 0zm-2 0v1zm-7 2v-1zm3-1v-1zm13-3v1zm-4 1v-1zm0 0v-1zm3-1h1zm-7 1v-1l1 1zm1-1h-1zm0 0h1z" aria-label="N" transform="matrix(.75119 0 0 .74281 -161 -183)"/><path d="m927 429 1-1 1-1 1-1h1l1-1 2-2 3-1 1-2-1-1-1-2h-1v3h-8l-1 1h-1l-1 1-1 1h-3l1-2 1-1 2-1 1-1h6l1-1-1-1v-2l-1-2v-1h-2l-1 1h-9l-1-1h-4l-7-2h-2l-4 2-1 2-1 1h-1v2l-1 1-2 1v-1l1-3v-1l2-2 5-4 1-1 1-1h-1l-1-1-3 2-2 1-1 1h-1l1 1v1l-2 1-1 1v-3l1-1v-2l2-1 5-3 1-1 2 1 4 1 1-2v-2l1-2v-2l1-1v-1h-1l-1 2-4 3-1 2-1 1-1-1v-1h1l-1-4-2-4-3-4v-6l1-2h-2 1v1h-1l-1-1h-1l-1-1h4-1l1 1h1v-1l1-2 4-4 5-4 2-3-1-1 1-1v1l1 1v3l2 3v2l1 2 1 1v1l-1-3-1-1-2-5-1-2v1l-2 3-5 4-3 4v1l6 1 7 2v-1h4-1v-2l-1-2 1 1v2h1v1h1v-1h-1v-6l1-1h3l2 1 1 1v3h-1l-1 2v1l1 1 1 1 2 1h1l4 4v1l-1 1h-1l-2-1-2-1-1 1-2 3-2 2v2l2 1 7 1h4l1-1 2 1 4 1 3 2 1 1 2-1 4 1 4 2 3 2v1l1 2v4l-1 4-2 2-1 1v5l-1 2 1-1q0-1 0 0l-1-1v-2l1 1v-4l1-1 1-1 2-5v-5l-2-3v1l1 3-1 5h-1q2-2 2-5l-1-1v-2l-3-3-3-1h-7l-1-1-2-2h-2l-2-1h-12l-4-2-1-1 1-2 1-1 3-3 1-1 2 1h2l1 1v-1l1-1-1-1-3-2-1-1-2-1-2-2v-3h-1v-1l-1-1v-1l-1-1 1 1v-1 1h1-1 1l-1 1h1l1-1h-1v-2 2l1-1v1q0-1 0 0v1l1 1v-2 1h1l-1-2-1-1h-4v2q0-1 0 0v1h1-1v-1l-1 1v2h1-1l1 1h-1l1 1v2h1l1 2v1l-1 3-2 1q3-2 3-5v-1l-2-1h-10l-4-1h-3l-1-1h-2v1h-1l1 1h-1 1v1h4l2 1h6-1v1h2l4 1v1h-1v-1h-1v1l-1 2-1 3v1q0 1 0 0h1v-1l-1 2-1 4h1l1-1 2-1-2 1-1 1-1 1-1 1v2-1l1 1-1 1-1 1 1 1v1h1l2-1h1-1v1h1v1-1h-7l-2-1-2 2-2 2-3 2-1 2-1 1-1 2v1h1l2-2-1-1h1q0-1 0 0l1-1 2-3 2-1 2-1h2l3 1 5 1 1 1v-1l1-1q1 0 0 0v1l4 1h9l2-1h2v-1h1-2l-2 1v-1l3-1h-1q0 1 0 0h2v1l-1 1v3l2 3 3 3h1l-1 1v1l-3 3-2 1-2 1-1 1h-1l-1 1-1 1h3l1-1 1-1h1l1-1 4-3 2-1 2-1v-1l-1-3-1-1-1-1 1-1 1-2 1-2 1-1 1-3v-3h5l2 3h1l-1-1q1 0 0 0v-1l2 3v3l-1 1-1 2-2 2-3 3-1 1v1l1 3h-1v-4l4-4 2-3 1-3-1-3-2-2-2-1h-3l1 1v2l-2 3-1 1-1 3-1 1v2l1 2 1 2v1l-2 1-2 1-2 2-2 2h-2v1l-2 1zm-5-6 1-1h1v-1l1-1h10v-3l-1-1-2-4h-1v2l1 2v2h-5l-2 1h-1l-1 1-1 1-1 2zm8-4zm24 5v1zm-60-13 1-1 1-1h-1v-1h1l1-1 2-2 2-1h2v1h3l2 1v-2l-4-2h-2l-2 1-3 2-2 1-1 2-1 1v3-1zm2-4 2-1 1-1-1 1h-1v1zm8-2v-1l1 1zm-2-1v-1 1h-1zm30 7h1-3zm20 1v-5 1-1l-1-1v1l1 3zm-49-12v-1 1q0 1 0 0zm0-1h1zm1-2-1-3-2-2-3-5v-3h1v-1h-1l-1 2q-1 2 2 6l4 4v3l1 1zm0 1 3-2 3-4 1-1 1-3 1-2-2-1h-4l-2-1-5-1-1 1v1l-1-1v3l3 4 2 3 1 3zm49 9h-1zm-1-1v-1zm-47-25h1l-3-1h-2v1zm-9-2h-1v-1h1-2zm3 1 1-1v-2l2-3 6-4 2-4q-1 3-6 6l-5 4v3q-1 0 0 0zm10 2-1-1zm-12-3zm1 0zm8 2v-1zm1 0zm1 0h-1zm-5-1zm7 1h-1zm12-2q1 0 0 0v-2h1q0-1 0 0h-1v1h-1 1zm1-1 1-1h-1v1q0 1 0 0zm-2-2zm3 0v1zm-2 0zm0 0q-1 0 0 0zm-12-11v1zm0 0v-1zm23 61 1-1 1-1-1 1zm14 0v-3q0-2 3-5l3-3 2-4v-2 1l-1 4-5 5-2 4v2l1 1q0 1 0 0zm3 0-1-2v-2l-1 2v1-1l2-4h1v-1l-1 1-1 1v4zm-11-4 1-1h1-1zm13 1v-3 1l1 2v1zm-6-1v-2l1-2 1-1 1-1v1l1-2 3-3v-1q-1 1 0 0v-2h1-1v-2l-1-2-1-1h1l1 1 1 2v3l-1 3-3 3-1 1 3-2 2-4 1-1v-2l-2 5-3 4-2 2 1-1h-1 1l1-2 1-1 1-1h-1l-1 1-2 3v-1 1l-1 1-1 1zm2-5zm4-3v-1zm1-1v-1h-1v1zm0-1 1-2-1 1zm0-1zm1-3h-1zm-6 14 1-2 1-1 1-1-1 1-2 2zm-8-2h1zm13 2zm-12-2-1-1h1zm-43-8 1-1v-1h1l1-1 1-1h1l-2 1-2 2zm54 8 2-2h-1l1-1h1v-1l1-2-1 1-1 1-1 2-1 1 2-2 2-3v-1l1-3v-2 6l-2 3h-1v1l-1 1zm2-1h-1zm0 0v-1h1v-1 1zm-51-12h1v-1 1zm8 2-1-1h-1 3l1 1h1zm1 0zm44 7zm-3 0 3-4v-1 1l-2 3zm-2-2v-1l1-1-1 1zm5-7-1-1h1zm-38-11-1-1h1zm-2 0 1-1v-1 1zm-2-2zm0-1h1zm3 0 2-3 1-3h1l-2 3-1 3zm-2-1h-1l1-1zm-1-2h-1v-1zm9-2h2-2v1zm6 1h-1zm-21-5h1-2zm-1 0v-1zm2 0q0-1 0 0zm6 1h1zm-2-1h1v1zm-15-3v-1zm23 2v-1zm1 0zm-2-5q1 0 0 0zm1 0v-1zm-2-3h1zm0-1q0 1 0 0zm4 1v-1zm-3-1h1z" aria-label="L" transform="matrix(.75119 0 0 .74281 -161 -183)"/><path d="m1111 551-2-2-1-3v-2l-1-1q-1 0 0 0h1l3 1h2l1 1 2 1v3h1l1-1h2v-1h1l2-1 1-1h1v-1l1-1 1-3 1-1v-1h1l-2-3-1-1h-7v1l-2-1h-2l-2-1h-7l-2-1v-1l-1 1-1-1h-2l-1-1-1-1h-1l-1-1-1-1-1-1-1-1-1-1h-1 1v2l1 1v1h-1v1h-3v1h-1q0-1 0 0h-6l-1 1h-1v1-1l2-2h2q-1 0 0 0h2q-1 0 0 0h1l1-1h2l1-1q0 1 0 0h1-1v-1h-1 1l-1-1q0 1 0 0v-2h-1v-2h-1v-2h1v-1l-1-1h-1v4h1v2h-1v1-1 1h-2v1h-5l-1 1h-1l-1 1-2 1v-1l1-1 1-1h1l1-1h3-1 2l1-1h1l-1-1h2v-4h-1 1q-1 0 0 0v-1h-1 1v-4h-1q0 1 0 0v1-1h-1v1-1 1h-1v1l-1 2q0-1 0 0h-1q0 1 0 0v1h-1l-1 1h-2l-1 1h-3l-1 1v1-1l1-1 3-2h1l2-1 1-1h1v-1l1-1v-1l1-1 1-1v-1h-1v-1h-1l1 1-1 2-3 2-2 1-2-1-2-1h-1q1 0 0 0h5l2-1 2-1v-1l1-1q0-1 0 0l-1 1-1 1-1 1h-5l-1-1q-2-1-2-3l-1-3v-2l1-2v-1 1q0 4 3 5l1 1 1 1v2h1v-1h1-1 1v-1h1q0 1 0 0h-1 1q1 0 0 0v-1l1 1-1-1h1l-1-1 1 1v-1h-1 1-1v-1h1v1-2 1-1l1 1v-1h1l-1-1 1 1v-1 1l1 1-1-1v-1h1v-1h1v-1 1h1l-1-1h1-1 1l1 1v-1h-1v-1 1h1l-1-1h2l-1-1h1v1-1l1 1v-1 1-1l1 1-1 1h1v-2h1v-1h-1l-2-2-4-4h-2l1-1h3l3 1 4 2v2l1 1v2l-1 1v1l-2 1-1 1h1v1h1l-1-1 1-1h2v-2l1-2-1-2 1-2v-2 4l1 3v2l-1 2h-2v1h-2l1 1h2l1-1 1-1h2q0-1 0 0l1-1v-2 1-1l-1-4v-1q1 1 0 0v-3 1l1 2v1l1 1v2h1v1h-1 1v1l-1 2v1h-1 1-1v1h-3v1q1 0 0 0h-1q0 1 0 0v1h-1l1 1v1h2v-1 1h-1 2l1 1h2v1h1q-1 0 0 0v-1l1 1v-2h1v1-1l1-1v-3 1h1v-8h1v1h-1l1 1v7l-1 1 1-1v1h-1v1l-1 2v-1h1l-1 1h-1 1l-2 1v1h-2v-1 1-1h-2v-1 1l-1-1h-1l1 1v1h2l2 1h1v1h1v1h2v-2l1 1v-2l1-1 1-4v-1l1-1v-1 1-1h1v-1h2v-1 1l-2 1v1q-1 0 0 0l-1 1h1-1v3h-1v2q0-1 0 0v1l-1 1v1h1-1v1l-1 1h1v-1 1h-1v1q-1 0 0 0h-1v1h1-1l-1-1h-1l-1-1h1-1l-1-1 1 1-1-1v1l1 1 2 2 2 1 2 1v1l1 2 2 1h1l2 1v1h2l2 1h1l1 1h7v1h2l2 3 1 2v4l-1 1-1 2-1 2-1 1-1 1h-1l-2 2-5 2-2 1h-5zm3 0 1-1 1-1v-2l-1-1-2-1-2-1h-3l-1-1 1 1 1 1v4l2 2zm2 0h1v-1l-1-1v1l-1 1zm1 0h3l1-1h2l1-1 1-1h1v-1l-1-1-1-1v1l-3 1q-1 0 0 0l-1 1h-1l-1 1h-1zm9-4-1-1zm0-1 1 1-1-2h-1v1zm2 0v-1h1v-1l1-1 1-1v-2l-1-1h-1q0-1 0 0l-1 1h-1v1l-1 1v1l-1 2h1v1zm-47-16h-1zm3 0h2v-1h-2l-2 1q-1 0 0 0zm-7-3v-1l-1 1zm9 3h1l1-1h-2zm-9-4h1v-1h1q0 1 0 0h1v-1l-2 1v1h-1q0 1 0 0zm11 3 4-1v-2l-1-2-1-1v-1l-1-2v-1 3h1v3l2 2v1h-2zm-7-4h2l2-1 1-1h1v-1h-1l-2 2h-4zm22 6v-2l3-3 1-2v-2l-2-1h-1l-1 1-2 3-2 4v1h2l1 1zm5 2h4l2-1v-4l-2-1-1-1-2-1-1-1h-1l-1 1-1 2-2 3v1h1l1 1h1zm0-2h4v-1l-1-1h1v1q1 0 0 0l-1 1zm23 8 1-1h-2l-1 1zm-31-13 1-2 2-3 1-1h1-1l-1-1h-2l-1 1-1 1-1 1-1 1-2 2v1l2 2 1 1 1-1zm15 8h4l1-1 1-2-1-1h-1l-2-1h-3q1 2-1 4zm14 4h1l2-1-2-4-1-2-2 2v1l1 2zm-57-17zm0-1h1l1-1h2-3v1zm51 14h3v-4h-6l1 1v2h-1l1 1zm-28-9 1-2 2-1 1-1v-1l2-2h1v-1l-1-1-1-1-2 1-1 1-4 3-1 2v2l1 1zm-3 0v-1zm0-1v-1h-1v-1 1zm-15-5h1l-1-1-1 1zm10 3v-4l-1-1v5zm4 0q0 1 0 0zm-13-3h1l1-1 2-2h-1l-2 1-1 1zm49 14v-1l1-1h-1zm-36-11 1-1 2-2 1-1 1-1h1l1-1v-2h-2l-1 1-1 1-1 1-1 1h-1l-1 2v1zm-1-2v-1l2-2 1-1 2-1 2-2h-1q0-1 0 0-2 0-5 3l-2 2v2zm-8-4v-1l1-2h-1l-1 2zm-4-2 2-1 2-2v-1l-1 1-1 1-1 1-2 1zm-5-1q1 0 0 0zm2 1q0-1 0 0h2-1l-1-1h-1zm14 4 1-2 2-1 2-1 1-1 1-1-1-1v-1l-1-1-2 2v1l-1-1h-1v2h-1l-1 1h-1q0 1 0 0h-1l1 1 1 1v1zm-2-1v-2h-1v1zm-12-6h3-1v-1h-1v-1l-1-1v-1h-1l-2-1v-1l-1-3q0-1 0 0h-1v3l1 4 3 2zm4 1 1-1 1-1v-2h-2l-1 1v2zm5 1v-2l-1 1zm3 1h1l1-1 1-1v-1h2v-1l1-2-1-1-3-3-2-2-1 1h-1l-1 1-2 1 1 2v2l1 2 1 1zm0-5-1-1 1 1h1zm2-1-1-1 1 1v1zm-3-1q0 1 0 0zm16 9 3 2v-1l-1-1-3-1v-1l-2-1h-2l1 1 2 1h1zm4 1 1-3 1-2v-2h-1v3l-1 2-1 2zm-6-2h-1zm-1-1h-1zm-16-5v-1l-1-1v-2h-1v1-1h-1v2l1 1zm13 3v-2h-1v1h1zm6 0v-1h-3l-1-1v1h1l1 1zm-5-1v-2h-2l-1 1h1zm5 1 1-1 1-1 1-2v-1l1-1v-2l-1 2-1 1-1 2-1 2zm-19-8-1-1zm0 0h1zm10 2h1l-1-1-1 1zm-9-2h1v-2h-1q-1 1 0 0zm24 6v-2l-1 1zm-14-4 2-1 2-1v-1h-2l-1 1-2 1zm-8-4h-1v-1 1zm-1 0zm6 1h3v-1h-3zm-4-1h2v-1l-2-1-1 1v1zm4-1 1-1h-1 1v-1h-1v1h-1l-1 1v1zm17 7 1-1v-1l1-1 1-1h-1l-2 3zm-14-7 1-3h-1v1l-1 3h1zm-6-1zm11 3v-3l-1 1v2zm7 1v-3zm-15-5 1-1v-2h-1l-1 2zm-1-2v-1l1-1h1l-1-1-4-3h-3l-2 1h-1 1l3 1 2 2 2 2q0 1 0 0zm9 3v-3h-1v-2 3zm-5-2 1-1h-1v-1zm11 2v-1 2zm-11-4v-1h-1zm11 3zm-19 29h-1 1q0 1 0 0zm3-4q1 0 0 0h1zm-18-10 1-1v1zm37 0zm-2-2zm-20-12v-1zm23 5z" aria-label="K" transform="matrix(.75119 0 0 .74281 -161 -183)"/><path d="M1192 693h2l1 1 1 2v2l-2 2 1 5v1h8l9-1v-1h3l1 1v1l-1 1 4 13 5 14 2 6h3q1 2-1 3l-5 3-8 1q-4 0-6-2l-1-2 2-1 2-11 1-13 1-11v-1l-19 3 5 39v1l1 1v1l2 1h1v1l1 3h-2v-1l-9 1v1h-2l1-4 2-1v-1l1-1v-2l-4-39-18 2-1 1v1l1 3 10 29h1l2 1-1 2-5 3-8 1-6-1q-2-2-1-3l2-1h1l3-34v-1h-1v-1l1-1h1l1-1h1l1 1 8-2 6-1 1-1v-6h-3v-3l1-3zm-1 0-1 1-1 3v-2h1l4-1 1 2-1 2 1-1h1l-1-1v-1l-1-1-1-1zm1 2h-2 1l1 1h-2 1v-1l-1 1v2l1 1h3v-4h-2 2zm1 1h1zm-1 0v1l1 1h-1zm-3 1v1h-1 1l1 1v-1h-1zm7 0-1 1h-1v1l1-1zm0 1h-1v1h-1 2zm-7 1q-1 0 0 0l2 1-1-1zm3 0h1zm-3 0v1h2zm5 0-3 1 1 6v-5h1l1 1v3h1l-1-1zm-1 3 1 1zm-1 0v1q1 0 0 0zm1 1v2l-1 1-2 1-6 2-8 1v1h-1v-1h-2l-2 1 1 1v-1h1-2 2l19-2 20-3h-1v-1l-8 1-7 1-2-1-1-1zm-19 6v1l1-1v1h1l-1-1zm39-4h-1v1l1-1q1-1 0 0zm2 0h-2v1h-1 2v-1h1v2l1-1-1-1q0-1 0 0zm0 0v1zm0 1-1 1h1zm-1 0v1zm-41 5v1h-1 1zm22-2h-1v7-7h-2l2 6 1 5zm20-1-1 15-1 17h-1l1 1h1l8-1v-1zm-23 2 1 7 2 16 2 16 2-1-1-9-2-19-1-10v10h1v2l-1 1-1-1v-1l1-1zm-20 4v32h1l8-1h1v-1l-5-16zm44-2 4 15 3 12 2 1zm-44 6v-1 1l-1 11-1 13-1 5 2-2v-12zm42-4-1 11-2 11v5h1v-1l1-13zm-40 5 3 8 3 10 2 7v1h2l-2-5-4-11-3-10zm21 1v2q0 1 0 0h1v-2zm22 20-6 2-1 1 1 1h9l5-1 1-2-1-1zm-40 5-8 2v1l1 1 5 1 5-1 4-1v-3zm49-5v2h2l1-1-1-1zm-16 2h-1v1l1 1v-1zm-41 5h-1l-2 1v1h3v-1zm15-2 1 2 1-1-1-1zm24-1 1 1 4 1h5l6-1 4-3h1l-5 1-4 1-6 1zm-22 3-5 2-5 1h-5l-5-1 1 1 5 2h5l5-2 4-2zm14 2h-4v2l-1 1v1h-2l1 1h1l4-1h5v-1h-2l-1-1zm-7 5v3h1v-2h2l4-1h3l1 1h1l-1-2-6 1z" aria-label="J" transform="matrix(.75119 0 0 .74281 -161 -183)"/><path d="M1173 951v-2l2-4 1-1v1l-2 2-1 3v1l1-1 1-1 2-3 2-3v-1 1h-2 1l-3 1h-2l-2 1-2 1 2-1 3-1h1-1l-1-1v-1h-1l-2-1-2 2v4l3-1h2l2-1 1-1 1-1v1h-1l-1 1-2 1-2 1h-2v1l-2 1h-1l-1-1v-1 1-1 1l1 1h1l1-1v-1h-1q0-1 0 0v1-3l1-2h-1l-2 1-1 1-4 1-3 1v4h3l1-1h2v-1l-1-2v-1 1l1 2v1h2q0-1 0 0v-1 1l-4 1h-2l-3 1h-4l-1-1-1-1v1-2h-1l-2 2-2 1h-1v1h-1l1-1 1-1 2-1 1-1v-1l3-4v-1 2l-1 1v1h-1 4v1h-1l-1-1h-1v1-1l-1 1h-1l1 1 1 1 1 1h6v-4h-2l6-1 7-4 3-2 1-1v1l-1 1 2 1v1h1v-1 1l1 1 2-1 1-1 2-1h2q-1 0 0 0l1-1 3-2h1-1l-1 1h1-1v1l-3 4-2 2 1-1 1-2 1-2 1-1-2 1v2h-1l1-2q1 0 0 0v1l-2 2-1 1 2-4q1 0 0 0v1h-1l-3 4-2 3-1 1zm9-7 2-3 1-2-1 1h-1 1l1-1-1 1-1 2-2 2v1zm-13 4v-1zm9-5zm3-1v-1h-1v1zm-4 5 1-1v1l2-2 1-1-3 3zm4-3q0-1 0 0zm-17 5-1-2v-1l1 1zm13-5q1 0 0 0v1zm-17 6zm9-4zm-9 3zm-1 1-1-1v-1l1 1zm-8 2h-2l-2 1-4 1v-1l1 1h-1 1l3-1 3-1zm26-10-1-3h-1v-1l1 1v-1h1-1v1l1 2 1 1zm-13 4h1v1zm-3 2v-1zm-15 5 1-1v1zm4-1v-1zm0-1zm37-13 1-1zm1-1 1-1-1 1h-1 1l1-2 1-4 1-2v-1l-1 1v-1h-6 3l3-1h-2l-1-1h-1l-4 1-4-1h9l1-1v-1l-1 1h-2l-1-1 2 1 1-1-2-2v-1 1l1 1 1 1v-3l1 1v-1l-1-3v-4 4-7 1h1v15h2v1h1v-1h-1l1-2-1-2-1-6v-1l1 4 1 4v4l1-2v-1l-1-1-1-2 1 1v1l1 1v-4l-1-1v-1l1 1v2h1l-1-2v-1h1v4l-1 3-1 4-2 4v2-1 1l1 1zm-1 0v1zm3-1zm1 0q-1 0 0 0v-1zm-17 4v-2 2-1l-1-2h1l1 3zm18-5v-1l1-4 2-4 1-4v-4l-1-1h1l1 1 1 1 1 1h-1l-2-2v6l-1 3 1 1 1 1v1l-1 1v1l-1-1v-2l-2 1-1 3v1l1-1h2v-1h1l-1 1zm2-1 1-1h1-3l-1 1zm2-3 1-1h-2zm1-1v-1l-1-1-1-1v-1 1l-1 1h1v1l-1-1v1h1l1 1zm-23 11zm29-12v-1 2-1l1-1v-1q0 1 0 0v2l-1 1zm-32 12h1v-3l-1 1v-1l1-2v2l1 2h-1zm2-1v-1zm-12 4 2-1 3-2-4 2-2 1zm16-7q0 1 0 0v-1q2 0 3-2l1-1h1-4l-1 1-1 1v-1q1 0 0 0h-2v2-1l-1-1h1l4-1q2-1 0-1l-1 1h-4v1h-1v1l-1 1-4 3-2 1h1l1-1 4-3v-1q1 0 0 0l-2 1h-2q-1 1 0 0h1l2-1 2-1h-6 5l1-1h-4 7l3-1h-5 3l1-1h-2 1l-1-1-4-2h-1 1l3 1 2 2 3 1 1 1h1v-1h-2v-1l1 1 3 1v-1h-1 5l1-1 1-1-4 1-3 1h-1l1-1h3v-1h4l-1 1-2 1-3 1-2 1-3 2zm-19 7h-1 1-2l2-1h3l1-1zm9-3h-1l2-2 2-1 1-1-4 3zm-14 4-1 1 1-1h3zm23-8h1zm-14 5zm40-15h-1l-1-1h-1l-2 1 3-1 1 1zm-38 14zm1 0zm39-15v-1zm-44 15-4 1h-1 1l6-2h2v-1l-2 1zm4-2 2-1h2-1l-2 1zm9-3v-2 1zm-21 7h-1l1-1 1-2 1-1v-2l1-1 1-1 1-2 1-2 1-1 1-1h1-1l-2 2-1 2v2q-1 0 0 0v-1l-1 1-1 2 1-1h-1l-1 3h-1v3h-1zm16-6h1zm35-13zm-34 13zm-3 1 3-2v1h-1zm3-2h1zm18-7-4-1 3 1 2-1h1l-1 1h-1 2zm16-5v-1l-1-3-2-3-1-2 1 1v-1l-1-2-2-1-3-4-1-1h-1l-2-1h-1v1l-1-1-1-1h1l1 1 2-1h-1l2 1 1 2h2v1h1v-1h-1v-1 1h1v1-1 2h1-1l3 3 1 3 1 2 1 1 1 3zm-14-18h-1zm-28 32zm4-1h-2l-3 1h-4 1l6-1 2-1zm16-6-2-1-1-1v1h4zm-26 9-1-1zm44-16v-1zm2-2zm-12 4v-2zm-7 2h1zm19-6zm-24 7-2-1 2 1h1zm22-8-1-1h1zm-7 2-2-4v-3l-1-4-1-2h1v2l1 5 1 2 1 4v1zm-3 1v-2zm-4 2h-2zm-7 2zm-20 7 1-1 2-1 2-1-1-1h1q-1 0 0 0 0 1 0 0h1l-1 1zm17-7h-2l-1-1h-1 1l1 1zm7-3h-1 1v1zm7-3v-1zm-19 6h-2v1-1h3zm5-1zm7-3zm-18 6v1zm1 0 1-1h2-1zm-5 2v-1l2-1 1-2-1 2-1 1zm24-9zm-20 6h1zm3-1zm3-1h-1zm3-1zm-6 2h1zm11-4-1-1h1l1 1zm13-8-1-4-1-1 1 2v1-2 2l1 4h1v-1 2zm-8 6v-1 1h-1zm1 0v-3 1l-1-1h1v-3 3l1 1 1 1h-1 1l-1-1-1-1v1zm9-5v-2 1-2l-1-3v-1 1-1l-1 1v-1h1l-1-1h1l1 1v-1 1l1 2 1 1v-1h-1v1-1l-1-1v-1 1h-1v1l1 2q0 1 0 0l1-1v1l-1 2v3zm-25 10zm4-1h-1zm2-2-7 1-2 1h2-1l-1 1h-1l-1 1h-2 1l2-1h1-1 1l2-2 2-1 3-1h1l1-1v-1l-1-2h1v3h1-1v1h2-1l-6 1-2 1h3v-1h-1q0 1 0 0h6zm12-5-1-3v-1l1 3 1 2zm-16 7h1zm26-10h1zm-28 11q0-1 0 0zm-1 0zm2-1h-1 2zm25-10v-2zm3-1h-2zm-15 5zm-7 2h1v-1l-1-1-1-3v-3h1v7l1-1-1-1 1 1v1l1-1v-2l-1-1v-1l1 1v1l1-1v-4 1l1 1-1-1v-2l1-2 1-2v2l-1 2v2q0 1 0 0l1-1-1 2-2 3v1h1l1-1v-3l1-1-1 1v2l1-2v-1 1l-1 2v2l-2 1v1h-1v1zm2-3v1zm8-1h1zm-2 1v-1h1-1zm11-4v-1h1v1zm2-2-1-1h1v1h1zm-14 5q-1 0 0 0zm3-1zm-3 1v-1zm0-1h-1l-2 1q1 0 0 0 0-1 0 0l2-1 1 1zm17-6-1-1h-1q0-1 0 0h2zm1-1v-1l1 1zm-18 7zm12-4zm-9 2zm-9 3-1-2v-3 2l1 2zm23-9-1-1h-1 3v1zm-2 0h1zm-15 5v-1zm7-3v-2zm-15 6v-3h-4l-5-2-4-2-2-2-1-1h-1 2-1l1 1h1-1l1 1h1-1l1 1h2v1-1q-2 0 1 1l1 1q6 3 8 2h1v-4l-1 1h-1l-4-1-5-1-1-1-2-1 2 1 2 1 4 1 4 1h1l1-1h1v1l-1 3zm-15-9v-1zm-1 0v-1zm30 3h-1l1-1zm11-4h-1v-1zm-11 3zm6-2v-1 1h1zm-12 4 1-2q0-1 0 0v1zm15-6h1v1zm-2 1h1zm0 0h-1 1v-1zm2-1zm-22 8v-2 1zm15-7v1zm-9 4v-1zm-4 1v-3l1-1-2 1-1 1 2-2h1l2-1h2v-1 1h-3l-1 1v2-1l-1 1zm7-2zm9-4zm-9 3h1zm13-5-1-1-2-1v-1 1q1 0 0 0v-1l-1-1-1 1h-2l1-1 1 1 1-1 1 1 1 1v1h1zm-14 5 1-1v1zm1 0v-1zm-9 2v-1l1 1zm17-6-1-1h-1l1-1-1 1h1zm4-1zm-9 3zm8-3q-1 0 0 0zm1 0q0-1 0 0zm-14 4v-1l1-1v-2h-1v-1l1 1v-1l-1-1v2l1 1h-1v-8l3-1h2l1 2v-1 1q0 1 0 0v-1h-1l-2-1h-1l1 1-1-1-1 1-1 1v2l1-1v1h-1v2q1 0 0 0v-1l1 1v3q0 1 0 0v2-1zm12-4zm-13 5v-1zm-1 0zm9-4zm1-1h-1 1q1 1 0 0 0 1 0 0zm-11 5v-1h1-1zm1-1h1zm8-3v-1q-1 0 0 0l1 1zm3-1zm-9 2zm8-3h1zm-5 2h1zm2-1 1-3-1-2h-3 1v-1l1 1h1l1 1v1-1 2l-1 1zm1-2v-1zm2 1zm-1 0-1-1h1zm1-1h-1zm-5 1h1zm5-1v-1zm-1-1q-1 0 0 0l1 1zm-4 1q0 1 0 0zm4-1v-1zm0-1v-1zm-3 1v-1h1v1zm1-1h-1zm1-1v-1 2zm-4 2q-1 0 0 0v-1 1q1 0 0 0zm-1 0zm1-1h-1 2zm2-2h1zm1 0zm-28 9q1 0 0 0zm26-9h-1v-1zm-1-1z" aria-label="H" transform="matrix(.75119 0 0 .74281 -161 -183)"/><path d="m1064 1128-1 1-1 1h-2l-1-1 1-2 1-1v-1l-1-1-2-1-1-1h-1l1 1v1l-1-2 1 1v1l-1-1v1h-2l-2-2v-1 1h1l1 1 1-1h-2l-1-1-1-1 2 1 1 1-1-1h1-1l-1-1h-5l1-1h4l2 1v2h1v-1l-1-1v1-1l-2-1v-1h-6l-1-1 1 1h4l2-1 1 1h1l-2-1h-1 2l1 1v1h1l1-1v1h-1v1h1v2h1l2 1q3 2 2 3v1h-1v3h1v-4h1-1v1l1 2v-1l1-2-1 1 1 1q1 1 0 0l1-1h1v-1 1l1-1-1-1v-1l-1-2-2-1-3-3-3-2-1-1-2-1h-1l2 2h-1 1v1l1 1-1-1-2-1-1-1h1v1h1l-2-1-1-1h2-2v-1h-1q0-1 0 0l-1-1-1-1h-1 1v1l-1-1-2-1q1 0 0 0h-4 1l2-1h-1 2l1-1v1h1v-1l1-1v-3l1 3-1 1h1l1 1h4-3l1 1h1-1l-1-1h-6l1 1 2 1 1 1 2 1h1-1 2-1l-2-1-1-1-1-1 3 2 2 1q1 0 0 0h1l2 1 1 1h1v-1h-1 1v-1l1-1v2l-1 1q1 0 0 0l1 2 2 2 2 1 3 2 1 2v3zm-4 2v-2l-1 1h1zm-4-7h-1zm0 0-1-1v1zm-1 0q-1 0 0 0zm-1 0zm2-1v-1l-1-1v2zm-2-3q-1 0 0 0 0 1 0 0zm0 0v-1zm-1-1 1 1zm0 0-1-1v1zm-4-6v-1zm38-3h-1v-5l-2-1-2-1h-9l-3 1v1l1 2 1 1h2l1 1 1 3v4l-1 1-1 2-1 1h-1v1h-2v-3l1-1 1-1v-1l-1-3-2-1h-2l-1-1h-3l-1-1-1-2-1 1-1 2v1l-1 1h-1 1v-1h-1 1q1 0 0 0v-1h-1 2l-1-1h1v-1l1-1h-1l-1 1v-1h-1 3v-1h1l-1-2h-1 1l1 1v-1 1h1v-2 1-2 1l1 1-1-1h1q0-1 0 0h1v-1q0 1 0 0l-1-2 1 1v-1l-1-1h1v1-1h-1v-1h-1 1l1 1 1 1v1l2 1 3 1h3l2-1h1l1 1h7-1 1l3 3h1-1v2l1 1v-1h1l-1-2h1v1q0 1 0 0h1l1-1v-2l-1-1-2-2-2-1-2-1h-2l-3-1-2-2h-1l-1-1h-1l-1-1-1-1-2-2-2-1h-1l-2-1h-1 3q1 0 0 0h7v-1h2l2-2 1-1q0-1 0 0v-1l1-1v-1 2-4l-1-2-1-1h-6l-3 1-3 3-3 2h-1l-4 1v1h-1 3-2l1 1q0-1 0 0v-1l2-1h1q1 0 0 0v1l-3 2h-1 2l1-1 1-1 2-2 4-3 5-2h3q3 0 3 2v3l-2 3-2 1-7 1h-5l-2 1h-1l-1 1-4 2-1 1-2 1-3 4-2 2v1l-1 1-1 1-1 1h-1v2-2h1v-1l-1 1v1l-1 1v-5h1l-1 1v1-1 1h1l1-1v1l1-1 1-1 1-1 3-4 3-3 8-5h6l7-1 3-1 2-4v-2l-1-2h-3l-5 1-1 1-3 2-3 3-2 1-3 1h-4v-1h1-2 3v-1h-3 4v-1l2-1h4l2-2 5-3 3-2 5 1 2 1 1 4-3 5-2 1-5 1-2 1 4 3 4 3 1 1 5 1h1l2 1 4 4 2 1v2l-1 1-2 2zm0-1v-3l-1 1v2zm-15 11v-2l1-1v2q1 0 0 0l1-1 2-2v-1l-1-1v-5l-2-1-2-1-1-2-1-1-1-1h-2v1h-1v-1l1-1h-1v1l-1 1v1-1l-1-1 1 2h-1v-1l-1 1-1 1 1 1 1 2 3 1h2l1 1h2l1 1v6l-1 1v1zm3-4v-1h-1v1-4l-1-2-1-1h-1l-1-1 1 1h1l1 1q0-1 0 0h1v4q0-1 0 0zm-1-5zm-4-2h-1v-1 1l-1-1v-1l-1-1 1 1v1-1h1v1h1v1-1 1h1zm-2-1zm-1 0zm-1 0v-1l1 1zm5 12v-3 1h-1l1 2q0 1 0 0zm-12-11zm7-6-1 1zm-6 4v1zm4-4v1zm0 1v-1zm-1-1zm9-14zm-2 0h-1zm-1 0v1zm-2 0zm-24 14zm18-18h-1l-1 1h-2l-2 1h1v-1h3zm-6 1h1zm-8 55-2 1-1-1 1-3 1-1 1-1v-1h-1l1-2h1l-1 1v1l-1 2v1l-1 2 1 1h1l1-1 1-1-1 1h-1v-3h1l-1 1v2-1h1l1-1 1-2v-1 2l1-1v-3l-1-4-1-2h-2 2l2 2v-1h-1l1 1v2-1 7l-1 2zm-2 0h1zm5-3q-1 0 0 0zm-5 1 1-1-1 1v2zm-1 1zm7-10zm39-26h-1v-1q-1 0 0 0l1 2h1zm-26 22v-1zm0-1v-1h-1l-1-1-2-1h1l1 1 2 1zm-12 6v-3q0-1 0 0v1l-1-1-1-1 1 1v-1l-1-1h-6 1l2-1h-1 1l1 1h3-1 1l1 2v1l1 1v-2l-1-2-2-3 1 1 1 1h1l-1-1-1-1 1 2h1l1 1h1l-2-2h-1 1l1 1h1-2l2 1v-1h1q0 1 0 0v1h-3l-1-1v1l3 1h1-1l-2-1h-1l1 1zm35-29v-1h-3l1-1q0 1 0 0h-2v-1h-1l1 1h1q0-1 0 0h1l1 1h1zm-3-2zm-25 25zm-10 6v-1q0 1 0 0v2zm-4 4-1-1h-3q2 0 0 0l-1-1q-2 0-2-3v-1 1l2 2h1l1-1v-1l-1-1v-1l-1-3v-2 3h1v-1l-1-1v-1l-1-1v-2 2-2h-1l-1-1-2 1h-3 3l2-1h1l-1-1h-1 2-1v-1l1 1-2-2h-1 2l1 1 1 4 2 2 2 1 1-1 2-1 2-1-3 2v1h-4q0-1 0 0l1 2h1-1l-1-2q-1 0 0 0v3l1 2v1-3q-1-2 0 0v5l-1 1-1-1h-1v-1h-1l2 2 1 1h3v-1h-1 1l1 1v-1l-1-1q-1 0 0 0 0 1 0 0h-1l-1-1h1v-3l-1-1 1 1 1 1h2-3v2h2-1 1v1h1v1-2 1-1l-1-1 2 1v3-3 1l-1 1v1q0-1 0 0v-1l-1-1-2-1v1h1l1 1 1 1zm0-1zm-2 0zm0 0h-1zm-2-8h-1l1 1zm-2-7h-1l1 1zm10 12v-2 1l1 1-1 1zm-1 2-1-3-1-1 1 1 1 1v1zm9-9h1zm-7 6v-1q-1-2-4-1l-3-1-1-1h1v1h6v1l1 1zm-7 5h-3l-1-1-1-2-1-1-1 1v2l-1 1-2-1h-2v1-1h-1v1-1l-1-1h-2v-7l-1-1v-3l-1-2-1-1v-6h-1l1-1 1 2q0 1 0 0v4h1v1-1h-1l-1-1 1 1 1 1h-1v-1h-1v1l1 1h1v2l1 3v6l1 2h1v-2 2h1q-1-1 0 0h1l2-1-1-1q0 1 0 0h1v-1 1-2h2-1l-1 2 1-1v1h-1v2l1 1h1q-1 0 0 0l1-1h-1q1 0 0 0v-1h1l1-2h1v1l1 3h1l1 1zm-4-1q1 0 0 0zm-7-1h-1v1zm-2 1v-1zm18-4v-1 1l-1-1-2-1h-1 2l1 1h1v1q1 0 0 0zm0-1-1-1 1 1 1 1zm-4 4h-2v-1l1 1zm15-13h-1zm-8 6-1-1h-1 1zm-6 5-1-1h1zm-4 2h-1q0-1 0 0zm3-3zm2-1h-1zm34-29q-1 0 0 0zm1-1-3-1 2 1zm-40 32v-2zm-1-1v-1h-1q0 1 0 0l1 1 1 1zm7-5h-1l-1-1zm1-2v1l1-1zm-12 10q1 0 0 0zm3-3-1-2-1-1v-1l1 1v-1 1l1 1h-1l1 2 1 1zm6-5h1zm-8 8h-1v-1h1zm18-16h-1v-1 1h1v1zm-10 8h-2 3zm-5 4v-1zm-8 6zm45-37h-1l1 1zm-24 20-2-1q-1 0 0 0l-1 1h-2 1q1 0 0 0l1-1v-1l2 1zm-14 11v-2l-1-2v-1l1 2zm38-31h1zm-42 35h-1zm1-1h-1zm4-4v-1l-1-1v-1h1zm34-28h-1l-1-1 1 1h2zm-37 30v-1h-1l-1 1h-1l1-1h1v-1h-1v-1l1 1 1 2h1zm-2 2zm41-34zm-39 32-1-1h1zm21-17h-1l1-1zm-2 1h-1zm-18 15h-1v-1zm34-29-1-1h1v1h1zm-37 31 1-1zm-1 0zm21-17zm-18 14q-1-1 0 0 1 0 0 0zm39-32zm-39 32-1-1 1 1h1zm6-5h-1l-1-2-1-1 1 1 1 2zm-11 9q0 1 0 0zm13-11-2 1-2-3-2-4 1 1v-1l-1-1h-1l1 1h1v1-1l1 1 1 3-1-1v-1 1-1l-1-1v1l1 1 2 3h-1v-1q2 2 3 1h1zm-5-5h1zm-2 11-1-2v-1l1 2zm17-14-1-1-1-1 1 1 2 1zm-24 20v-1zm43-35v-1l-1-1 1 1zm-43 35h-1zm1-1zm22-18h-1zm1-1h-2zm-10 8-2-1-1-3-1-2h1l2 1h1-1l-2-1h-1l1 1 1 1 1 2-1-2h-1v1l1 2zm3-4-1-1h-1l2 1 1 1v-2h-1v-1l-1-1-2-1h-1 3l2 3v2zm21-16zm-38 31h-1zm9-7h-1v-1l-1-2-1-1 1 1 1 2v1-2 1zm10-9h1zm-7 6h-2v-2 1l1 1zm3-2h-1l-1-1v1l-1-1v-1 1h1-1 2zm-15 12v-1zm10-9h1zm-7 6zm12-11q-1 0 0 0zm6-5h-2q-1-2-3-2l3 1q2 2 3 1zm4-2h-1l1-1v-1h1l-1 1v1-1zm-22 17zm-4 3q0 1 0 0 1 0 0 0zm2-1v-1l1-1v1zm9-8-1-1 1 1v1zm6-5h-4zm-16 13zm-3 2q0 1 0 0 1 0 0 0zm9-8v-1l1 1q0 1 0 0zm30-23v-1zm6-5zm-43 35v-1h1-1zm24-20q0-1 0 0zm12-10v-1l1 1zm-34 28v-1zm17-14v-1zm-18 15v-1zm22-19-2 1-1-1-1-1h-1l2 1 1 1h1l-2-1zm-9 7v-1zm-8 6zm11-9-1-1h-3 4l1 1zm-16 13h-1zm7-5-2-2v1l-1-1h-1v1q0-1 0 0h-1l1-1h-1 3l1 1zm34-28h-1v-1zm-13 10v-1zm3-3v-1h-2 2-1v-1h1l1 1h-1l1 1zm1-1q1 0 0 0v-1h-1 1zm2-1v-1zm0-1h1zm6-4h-1zm-11 8h-2 1v-1h1v1-1zm9-7-1-1h1v1h1zm-10 9-1-1zm-6 4h-2zm8-7v-1 1h1zm-32 26-1-1zm8-7h-1l1-1 1 1zm24-19h-1zm8-7v-1zm-33 27q-1 0 0 0zm8-7h-3v-1q-2-2-5-2h-1 3l3 2 2 1zm10-8v1h-1v-1zm4-3h-1zm-24 19h1zm5-4-1-2v-1h-1q1-1 2 1zm32-26h-1v-1h-1v-1l1 1v1zm-36 29h-1zm19-16h1zm15-11-1-1h1zm-13 10zm-27 22v-1zm34-28zm-3 2h-1 1q1 0 0 0zm-20 16h-1v-1zm5-5h-2 3zm23-18v-1zm-40 32q1 1 0 0l-1-1v-1l-1-1 1 1h1l1-1h1v2-1l-1 1zm1-1h-1zm0-1q1 0 0 0v1zm6-3h-3 1l2-1 1 1zm6-5v-1l-2-2 1 1 1 1zm8-7q0-1 0 0zm18-16v1zm-6 5h1zm-19 15-2-1v1h2-2 3zm-8 7v-1 1h-2l1-1 2-1v1h-1 1zm25-20zm-22 17-2 1-1 1 1-1 1-1zm2-2h-1zm-9 7v1-1h-1zm12-10h-1 2zm26-21zm-37 30zm-1 1q0-1 0 0zm1-1zm15-13 1-1v-1 1zm-1 1v-3 1h1l-1-2h1v3-2zm3-2 1-1zm0-1h1zm14-12v1zm-35 29zm34-27-1-1h1zm-25 19-1 1h-1 1zm-3 3v-1l1-1v-1 1l-1 1zm11-9h-1l-1 1 1-1h1l1-1zm-12 10h-1q0-1 0 0l-1-1v-2h-1v-1l1 1 1 1v1zm16-14h1zm15-12h-1zm-26 20-2 1 3-1zm23-18zm-28 23h-1 1v-1l1-1v-1 1zm11-10-1 1-5 1 1-1q2 0 2-2l1-3v-2 6h-1 1l1-1v-4 4l-1 1h1-1l-1 1q-1 0 0 0l2-1h2-1 1v-1l1 1zm20-16h-1zm-24 19h-2 3zm27-21h-1zm-28 22v-1h-3 3zm-1-1zm-1 0h1zm8-4v-2l-1 2v-1l1-1q0-1 0 0v1l1 1zm-12 10v-2 2h-1zm13-11zm-16 13v-1zm1-1zm-2 1v-3 2zm3-2v-2l1-2 1-1-2 2zm15-13q0 1 0 0zm16-14-1 1v-1zm1-1zm0 0q-1 0 0 0zm-31 25 1-2h1l-1 1zm7-6zm1-2v-3 4h-1l1-1-1-3v-1 1l-1-1-1-1v1h1v-1l1 1 2 3-1 2zm-13 11v-2l-1 2 1-2 1-2v1l-1 1v-3h1v2l1-1v-1 1l-1 2zm9-8h1zm2-1-3 1-3 1-2 1h1l2-2 2-1h-1l3-1-1 1h1q2 0 2-3v-1 1zm-3 2h-3l-2 3v1l1-3 2-1zm-6 4v-1l1-1 1-2v-1 1l-1 2-1 2q0 1 0 0zm0-1zm7-6-1 1 1-1 2-1-1 1zm-11 9v-2l1-1v-1l-1-1v1h-1l1-1h1v2zm1-2v1zm12-9v-2l-1-1v1l-1 2v-1l1-2-1-1 1 1 1 1zm-2 1h-1l2-1v1zm-1 1h-2l-2 1q-1 0 0 0l2-1zm2-2v-1h1-1zm-10 8-1-1zm35-29h-2 2q1 0 0 0zm-33 26v-1l1-1 2-1-2 1zm-4 3v-1zm10-8-3 1 1-1 2-1 1-2v-1h-1v2-3h1v4zm1-1h-1v1-1zm0-2v1zm-9 8zm-1 1v-4h2l1-2 1-2h1l-1 1-1 1v1l-3 2v2zm1 0v-2zm7-9-1 1h-2 2l1-1 1-1zm1-1-1-1h1z" aria-label="G" transform="matrix(.75119 0 0 .74281 -161 -183)"/><path d="m887 1206 1-1h-1v-1q1 0 0 0v-2 1-2h-1l-1-1v-1 1l-1-1h-1v-1 1-1h-2v-1h-1 1-1l-1-1h-1 1-1 1l4 2h1v1l1-1v1-1l1 1v1l1 1v1q0-1 0 0v1l1 1v-2l-1-3v-1l-1-1-1 1v-1h1l-1-1-3-1h-5v1-1h1v-1h-2l-2 2-4 4-1 2v2l1-2 1-2 2-1 1-1h1l1-1h2q0-1 0 0l-2 1h-1l2 1h3v1l2 1 1 1 1 4-1 2v1-4l-1-1v-1h-1q0 1 0 0h-1v-1h-1l-1-1h-2l-2 1h2l1 1h1l1 1 1 1 1 3-1 3h-1v1h-1 1v-3 1-2l-1-1v-1h-1l-1-1h-1l-1-1v1l-2 1-4 2-2 1-1 1-1 1h-6l-3 1h-3l-1-1h-3q-2 2-4 0h-2v2-1 1l-1 1v2-1 1l1 1h-1v3h-1l1 1v2l1 1-2-2-1-3v-1h-1v-6l1-1 1-1 1-1 1-1 1-1h-4v2h-1v2l-1-1v2h-1v4-1l-1 1v5l-1-1v-1l-1-3 1-2v-2l1-3 1-1 2-2v-2h-2l-1 1-1 1h-1v3h-1v-1 2q1 1 0 0v1h-1l1 1h-1v1l1 2-1-1-1-3v-3l1-2 1-1q-1-1 2-2v-1l1-1h2l4 1h1l-3-1-4-1h-2l-2 1-1 3v1-2 1l-1 1v1-1h-1v2l-1 1v-1 2q1 1 0 0v1l1 1h-1l-1-2v-5l2-3 1-1 1-1h2v-1l1-1h3l3 2 2 1h1-1l-2-4v-1h-1l-2-1h-3l-2-1-1-1v-1l-1-2v-7l2-3 2-2 7-2h3l3 1v1h-2l-3 1h-1 4l-2 1-2 2-1 2-1 1-2 2-2 2 2 1 2 3h1v-3h1l1-1 3-2 1-1h2v-2h1l1 1h2l6-1h3l1 1v-1l1-1-1-1-1 1v1-2h2v2h-1 2l1-1h3l4 2h1v-2l1-2h-1l-2-1h-8l-2-1h-2 1l1-1h1l-1 1h2l3 1 2-1h2l3 1h1l1-1 1-1-1 1v1l1 1 1 1h2l1-2v-2l-1-1-1-1h-1l-1-1v-1l-2-1-4-1q-4 0-9 4l-1 2 1-1 4-1h2l-3 2h-2l4-1 1-1h-2l-1 1h-2l-3 2v-1l1-1 2-2 1-1 6-2h4l3 1 1 1v1h1v1l1 1 1 1 1 2-1 1-1 1h1v1l-1 2-2 2h-1v1h-1l-1 1v3l-1 3v1-1h1v-1l2-2q2-3 4-2l1-1 1-1h6l2 2v3-2l-1-2-1-1h-4l-1 1h-2v1h-2l-3 3-3 4-3 5 2-2 2-3 5-4h1l-1-2h1q0-1 0 0v1h1l1-1h1v-1h4v-1l1 1 1 1h1v1h-1v-1h-1l-1-1v1l-1-1v1h1-1l-1-1h-1l-1 1-1 1h-1l-2 2h-1l-1 1h2l2 1h4l2 2 1 1 1 2v6zm-3 0-1-3v-1l-1 1 1 2v2h1zm-4 4v-4l-1-2-2-1-3-1-1 1 1 1h2l1 1 1 1v1h1v2-1l1 1v1l-1 1zm2-8h1v-1h-1l-2-1h-1v-1h-3v1l2 1h1l2 1 1 1zm-8 2-1-1 1-1-2 1-3 2-2 3h1l2-1zm1-3q1 0 0 0v-2h1-3l-2 2-2 2-1 1v1l1 1v-1l1-2 4-2zm-7 5v-1l1-4 2-5 2-5-1-5-1-2-2-1h-7l-1 1-1-1h-3l-6 1-1 1h-1v-1h-2l1 1h-2l-1 1h-1l-2 1-2 2-1 1v2l1 4 1 3 1 2 2 2 4 6 1 2 2-1 3-1h3l2-1h8zm-7-5v-1h-1v1h-1v-1h-1v1-1q-1 0 0 0h3zm-2-1q1 0 0 0zm4-2 1-1zm-1 1zm3-3v-1l1-4h-1 1v2l-1 2zm-8 5h-3v1q0-2 2-2zm-1 0h-1zm-5 0-1-1 2 1zm0 0-3-2-1-1-2-4 1-2v-1l-1 4 2 3v-1 1zm7-7-1-1h1v1-1h1v1zm3-5 1-1v-1 1zm0 0zm0-1zm-6 6-1 1v-1h-1 1q1 0 0 0zm-6-8-1-1v1l1-1h1-1zm15 24-2-1-2 1h-4l-2 1h-1v1h1l4-1 1-1zm1-1v-1l-4 1h-4l-2 1h-3l-1 1h2l2-1h4l2-1zm15-17v-1h-1v1zm-11 9v1zm-29 21v-3 1l1-1v-7l1-1 1-1h-1 2l2 2 2-1v-1l-2-2h-4l-1 1h-1v1l-1 2-1 1 1 1-1 2v2h1v2l2 2q0 1 0 0zm0-7v1-2zm0-1v-1h1v1zm38-30v-1l1-1-1-1-1 1h1-2v-1h-2v-1h-1v3q-1 1 0 0v1h-1v2l1 1v1-1l2-1h1zm-31 24-1-2-6-2h-1v2h-1l-2 2v1l-2 2v1h1v1l1-1-1 1h-1v6l1-1v-3 1-2l1-1v-2l1-1 1-1h-1 1v-1l2-2 1 1h1l4 1 1 1zm-12 12-1-1zm11-12h-1zm28-29h-1v1zm-28 27-1-1q-1-2-5-3l-5-1v1l1 1h1-1v1h6zm-2 2v-1zm0-4v-1zm-1-1-1-1zm0-1-4-3-3-1h-3v1h-1l-2 1q-1 0 0 0l-1 1q-2 0-2 2v1h2v1-1l2-3v-1 1l1-1h1l1-1v1h2l4 1 4 2zm-12 9v-1l1-1v-1l1-1v-2h1l-1 1h1l1-1 1-2h-1l-3 1v1l-1 1-1 2v4l1 2zm0-3h1zm-4 2q0-1 0 0zm0-1v-3 1h1v-2h1v-1h-2l-1 3v1h1zm12-15v-2l-2-2-2-1h-1q-1 0 0 0v1l-1-1v-1q-1 0 0 0h1l2-2 2-2v-1l4-4 1-1-3 1-3 2-1 1v-1l3-2 4-2h3-1v-1h-1l-3-1q-4 0-8 3l-2 1-2 4v7l1 1 1 1 1-1h1l-1 1h-1 1-1v1l4 1h3l1 1zm-6-4v1zm5-10h-1l-1 2 1-1v-1zm44 9v-1zm-49 20z" aria-label="F" transform="matrix(.75119 0 0 .74281 -161 -183)"/><path d="M645 1151h1v3l1 1v2l-1 1v1l-1-1h-1v1h1v1l1 1q1 4-1 10-2 5-6 9h-2l-1 1-1 1v2l-1 3v-1l-1-4v1l-1 2-1 1-1-1-1-1h-1l-1-1 1-1v-1l-1 1h-1l-2-3v-8l-2 1-2 2-1 2-1 2h-1l-1-1h-2l-2-1h-2l-1-1h-1v-1h-1l1-1h6l1-2 3-3 4-3 3-2v-1l1-1h1l7-1h7l-1-1h-1l-1-1-1-1v-3l-1-2 1-1 1-1h3zm0 0-3-1h-4l-1 2h1l1-1-1 1-1 1h1l1-1-1 1h1l1-1q-2 1-1 2h2v-1h1l-1 1 1 1 1-1 1-1v-1 1l-1 1v1l1 1v1h1v-1 2l1-1-1-2v-1 1l1 1v2-5l-1-1zm-4 3h-2l-2-1v1h1v1l-1 1 1 1v-1 1h1v1q-1 0 0 0v1h2v-1h1l-1 1v1l1 1h-16v2l6 1q7 1 9 3v2-2l-3-1-2-1v4l-1 1-1 1-1 1h1v1h1v5l1 2h1l3-2-2-2-1-4 3 6 3-5q2-2 2-5l1-6-2-4v-2h-1v1l-1 1 1-2-1-1zm-2 1-1 1v-1zm-3 10v1l-1 1-1 2-1 1-1 2 1 2v-2l1-1 1-1v-1zm-1 0h-2l-2-1h-1l1 3 1 4 1-2 2-2zm-6-1h-2l1 3 2 3v2h1v-4l-1-1v-2zm-3-1q-2 0-7 5l-2 2-1 2h-1l-2 2-4-1h-1q-1 0 0 0-1 2 1 2l2 1 2 1h2l1-2h1v-1l1-1 1-1 1-1 3-1 2-2-1-2v-1h1v4l-1 1v8l5-4 1-2-1-4-1-3zm-3 4h1v-1 1h-1l-2 2-2 1 2-2zm10 6v2l-1-2v-1h-1v6l-1 1-1 1-1 3h1l1 1 1 1h1l1-4v-3 3l1 4v1l1-6-1-6zm-3-2v3l-1 1-2 2h-1l-1 1-1 1h1v1l1 1h2l1-1 1-2 1-2v-3zm-6-1-1 1-2 1h-2l-2 3-1 2h2l1-2 1-1 1-1 1-1h1zm37-12 3 2 2 2v3l-2 1h-1l-1 2h-4l-1-1 4 5 5 6v18l1 2 2 1q2 1 0 2h-2l-1-1h-1l-2-1-1-1-1-1h-1l-1-1 1-2 1-2v-3l-1-2v1l-3 2-3 2h-3l-1-1v1l-1 1h-1v-1h-3l-1-2 1-1 1-1-4 2v-1l1-1 1-1v-1h1v-2l-1-2q0-6 2-11 3-5 7-7h3v-1h-1v-1l1-1 1-1 1-1 1-1zm0 0h-1l-1 1-2 1-2 2 2-1 1-1h1-1l-2 1-1 2h1l1-2v2l1-1h2v-2l1-1-1 2v2h1l1-2v1h-1v1h1v1q2 1 1-1v-1 1l1 1q0 1 0 0h1v1-3 2l1 1v-2l-1-2-2-1zm0 5h-2l-1 1v-1h1l-1-1-1 1-1 1-4 1-4 4-3 5v6l6-1-4 1h-3l1 3q0 2 2 1l1-1 4-2h1v-3l1-1 1-1 1-2-1-1-3-1h-1l-1 1 1-1h1l8 4 5 4h1v-1l-2-3-5-6-3-3h2v-2 2h1v1h1v-1h2q-1 0 0 0l1-1v-1 1h1v-1h1l-2-1h-2zm1 2 1 1h-1zm-6 9-2 3-1 1v3l-1 2 2-1 1-2v-2l1-1zm1 1h-1v2l-1 2v2l3-1 3-2h-1l-1-2-1-1zm5 4h-2l-1 1h-1l-1 1h-1q-2 1-1 2h1l1-1h1l3-1 2-1zm2 1h-1l-4 1-3 2-2 2 1 6h1l1-1 1-1 1-1 1-1 1-1v-1h1l1-2h1l-2 1-1 3 2 3v5l-1 1v2l2 1 2 1 1 1h3v-1l-1-1-3-2-1-2v-1l1-2v-3l-1-8zm0 5v5-6zm-11-4h-2l-5 4-4 5 2-1 3-2 2-2-1 1-1 1-2 4h2l1 1h1l1-3v-2l1-1 1-1 1-1h1v-1h1v-1h-2l-1 1v-1h1zm3 2h-1l-2 1-2 1v2l-1 2v2l1 1h3v-6l1-1zm5 3v8l-1 2q-1 1 1 1l2-2v-3l-1-2-1-2z" aria-label="D" transform="matrix(.75119 0 0 .74281 -161 -183)"/><path d="m469 1075-1-2h1v-1l1-1 1-3v-2l1-4v-2h-1l-1-1v-1h1v1h3-1v1h-1 2-1 1v1-1h1v1q-1 0 0 0l2-1 1-1h2-1l-2 1-1 1h1l1-1h1-1l-1 2-2 2-1 2-1 2-1 4v6l-1-1zm2 2v-1l1-1v2-7l1-1v-1h-1q0-1 0 0h1l1-1v-1l1-2 2-3h-4v-1l-1 1v3l1-2v1h-1v2l-1 3v1l-1 2v1l-1 1h-1v1l1 1 1 1zm1-10 1-1zm0-8q0 1 0 0h-1zm-32-14-1-2-1-1h1l1-1h1-1v-1l2-2 3-3 1-1 1-1h1v-1l1-3 3-3 3-1 3-2h1l2-2 2-1h5l3 1 1 2 2 3 1 1 2 3 2 2 2 1 1 1q0-1 0 0h1l1 1 1 1 1 1h1l1 1 1 1 1 1v1h1v1l1 1 1 1 1 1v1l1 2v1l1 1 1 3h1-1v-1l-2-2-1-3v-1h-1v-2l-1-1-2-2-1-1v-1l-3-2h-1l-1-1-1-1-1-1-3-2-2-1-1-2-1-1-1-2-2-3-1-1-2-1h-8l-1 1-1 1v1h-1 1-1v1l-2 3-2 2q1 0 0 0l-2 2h-1v1-3h-1v2-1l1-2 1-2 4-2 2-1h-1l-2 1-4 1-2 2-1 3 1-1v-1 4-1l-1-1v3-1l-1 1-2 1-2 2-3 3q1 0 0 0l1 1h-1l-1 1v1l1 2h1v-1l1-1v1-1l1-2 2-2 1-2 2-1v-1 3-2l-2 1-2 3-1 2v1l-2 3zm12-14 3-2 1-2 1-1v-1h-1l-5 3v3q0 1 0 0zm13-10h3l-1-1h-2l-1 1zm-13 35v-1l2-2h2l1 1 1 1v1h1l2-1h2l2-2 1-1 1-1-1-1v-2 1h1v2h1v-3 2-1 1l1-1h1-1v1h-1v1l-2 2-4 2-1 1h-2l-2-1h-1v-1h1l-1-1h-2l-1 1-1 1 1 1 1 1h1l5 1 2 1 2-1v-1h2l1-1h-1 2l2-1h2l-1 1h2-1q0 1 0 0l-1 1h-1v1-2l-3 1-3 1-3 1-2-1h-3l-2-1zm19 0h-1zm-1 0q1 0 0 0zm-21-3-1-2 1-1h1-1v-1l1-1 2-2 2-4v-1l1-1 1-1 1-1 1-2h-7v1l-1 3-1 1v1l-1 1 1-1 2-3v-4 1h7l3-1h2l-1 1 1-1-1 1v1l-1 1-1 1 1-1v-2h-2l-1 1v1l-3 2-1 1v2l-1 1v1l-2 2-1 3h-1v1l1 2 1 1v-1l1-1v1h-1v1l1-1v-2l1-4 3-4 1-1h3l1-1q0-1 0 0v-1h-1v-1h1v-1l1-1-1 1v1l1-1v-1 1l-1 1v1l1-1v-1 2q0 1 0 0l-1 1v1-1h1v1h-1 1v-1l-1 1h-2l-2 1-1 1-1 2-1 1-1 3-1 3-1 1zm1-5zm11-9zm0-2v1zm0-1q-1 0 0 0zm-14 7v-1 1h-1zm0-1h1zm1-2v1zm0 1zm16 14h2-1l-1 1zm-15-14zm0-1v1zm-4-3v-1zm3 3zm0-1q0-1 0 0v1zm18 17zm0-1zm0 0h1zm-20-20v-1 2-1 1h-1zm2 3h1zm1 1v-2zm-2-3h1zm2 1q0 1 0 0zm1 1v-1zm13 11v-1l-1-4v-1 1l1 1v-1 2h1v1l1 1v1h1v1l-1-1h-1q0-1 0 0l-1 1h-1zm1 0v-2l-1 1v1zm-1-1v-1zm1 0zm-1-1q1 0 0 0zm-16-12zm2 1v-1 2zm23 21h1-2zm-17-15v-1h1-1zm16 15h1l1-1h1-1l-1 1zm4 3h1zm-25-23zm24 22h1l-1-1h2-1 1v1zm-26-24v-1zm2 1v-1 2zm21 19 1-1zm1 1 1-1h1l-1 1h1v-1 1l1-1h1l-1 1zm15 12v-2q2-2 1-3l-1-2-1-1h-6q-1 0 0 0l1-1h3-1 2l1 1v-2 1l1 2v-1l2-2-1 2v3-3l1-1 1-1-1 1v2h1-1v3h-1v1l1-1-1 1-1 1v1l1 1 1 1 2 1 1-1h-1v-1 1l-1-1h2-1 1v1l1-2 1-1 1-1v1l1-1 1-1h1v-1l1-1h1l1-1-1 1v1l2 2 1 1h2l1-1 4-2h1-2l-3 1h-1l-1 1v-1l-2-4h-2 1v-1q-1 0 0 0v-2l-1 1v-1l-1-1v1h-1v-1h1v-1h-1l-1-1h-1v-1h-1v1-1h2v1h1v1l2 1 1 1v1l1 1 1 3q0 2 2 2l1-1h2l2-1 1 1h-1q-2 0-3 2l-2 1h-2l-2-2-2-1h-1l-1 2h-1l-1 1-1 1-2 2-1 1h-2l-1-1zm1 1 1 1h1l-1-1h-1l-1-1v1zm-31-28zm19 17 1-1 1-2 2-2v1l-1 1v-1h1l-2 1-1 1v1l1-1-1 1h-1v1h-1zm-14-13v-2 1-1zm14 13zm-10-10h-1l1-1zm-15-13v-1zm-2-2q0-1 0 0zm8 7h1v1zm8 7v-1 1q0 1 0 0zm0 0v-2zm13 11 1-1zm-17-15zm1 0h1l-1 1zm16 15h2l1-1-1 1h-1zm-29-26zm26 23 1-1zm12 12 1-1h1v1q0 1 0 0h-1l1-1h-1zm-25-24v-1zm-13-12zm29 25 1-1v1l-1 1h-1zm-26-22 1-1h1l1-1-1 1zm2-1h-1zm13 14zm-18-16v-1zm19 16h-1zm2 3v-1zm10 8h1-2zm-30-28v-1 2zm31 29h-1zm-19-17v-1zm-7-7h1-1 2-2q0 1 0 0zm8 7zm27 24h-1v-1h1-1l1 1h-1zm-9-7h1zm-26-25h1zm0 0h1zm27 24 1-1v1-1l1-1v-1 2l1-1 1-1v-1 1h-1 1l-1 1v3h1-2 1v-1l-1-1h1-1v1zm3-1v-1q0-1 0 0zm7 10zm-11-10 1-1v1zm-31-29zm42 39v-1zm0 0zm-11-11zm-21-21 1-1h1l-1 1-2 1zm-6-4zm1 0v-1h1l-1 1v1zm33 30v-1 2zm-26-24v-1h1zm18 16v1zm7 6q0 1 0 0v-3h1q0-1 0 0l-1 2q0 1 0 0l1-1 1-1v1l-1 1zm-23-21zm27 25zm-31-28v-1h1zm-5-5zm34 30h1v1h-1zm2 2h1zm2 2zm-29-27v1zm-9-8h1zm36 32zm1 1zm-28-25zm-2-2v-1zm33 29zm-33-30zm28 26v-4q1 0 0 0v1l1 1v-3l-3-1-1-2 1-3 1-4v-1 2l-1 3-1 3 1 1 1 1h2l1 1h1v1h-2 1-1v1h1v-1h1l-1 1h1v-1 2h1l-3-1-1 2zm1-4v-1h1-1zm-29-23v1zm2 3v-1h1-1zm-1-2v-1h1q1 0 0 0h-1v1h-1zm5 5zm27 24v1zm-1 0q0-1 0 0zm-29-27zm26 23 1-1q-1 0 0 0l1 1v1-1 1h-2zm1 0zm1 2zm-28-26zm24 22h1zm7 6v-1h2-1v1h-1q0 1 0 0zm-32-29v-1zm1 1zm23 20v1zm7 7 1-1h1-2 2l-1 1zm-5-5zm-27-25 1-1h-1zm3 2q0 1 0 0zm-3-2zm31 28 1-1v1q0-1 0 0zm-24-23 1-1v1zm24 22zm2 0v-1 2q-1 0 0 0zm2 3 1-1v1zm-2-2q0-1 0 0zm-8-8 1-2 1-3v-2l-1-1 1 3-1 3v1l1 1h5q-1 0 0 0h-1v-1l1 1v1h-2l-1-1-3-1h-1l1 1v1-1zm10 9v-1zm-27-25v-1h1zm24 22v-1zm0-1zm-3-3h1zm2 2v-1h-1l1-1v-1zm6 5zm3 3h1-1q-1 0 0 0zm-25-22 1-1v1zm18 15v-1 1q0 1 0 0zm-7-6h1v-1l1-1v1h-1v1zm-17-16zm27 24q-1 0 0 0zm1 1v1zm-3-3q-1 0 0 0zm4 4v-1zm-7-6q0-1 0 0zm1 0v-1zm4 4h1zm-26-24 1-1q1 0 0 0v1zm7 6v-1zm17 15h-1zm-1-1h1zm3 3h1zm-27-25h1zm20 18q0-1 0 0zm4 4h1zm-5-5h1zm6 5 1 1zm-24-22zm0-1zm18 16v1zm-18-16h1zm8 7h1zm14 13h1v1zm-22-21h1zm22 20v-1zm-29-27h1zm28 25zm-1-2zm-26-23v-1h1v1zm26 23v-1zm-22-21v1zm7 6v1h-1v-1zm14 13zm-23-21zm1 1h1zm0-1q-1 0 0 0zm-2-1h1v-1 1z" aria-label="B" transform="matrix(.75119 0 0 .74281 -161 -183)"/><path d="M359 855v-1h6l3-1 2-2h1l1-2h-1l-2 1h-3l-4 1h-2v-1l-1-2v-1h1l2 1h3l2-1h2l3-1 2-1 1-1h1v-2l1-1h2l3-1h4-4l-2 1h-1 3l2-1v1h-3l-1 1h-1q1 0 0 0h-1 1-2v1h-1v1l-1 1h1-1l-4 1-2 1-2 1h-5l-1-1h-2v2l2 2h1l1-1h-1 4l4-1h2-1 1l2-2h2l-1 1-2 1-2 2q0 1 0 0h-1l-2 2-2 1-3 1h-1v-1h-2 1l-1 1v2h2l2-1v1l2-1 1-1h2l3-1 1-1 3-2h1v1h2v-1h-2 4-1l1 1h-1l1 1h1l1-1h-2 5-2l-1 1h-2l-1-1h-2l1 1 2 1h3-4l-2-1v-1h-1l3 3h1-1l-1-1v1l2 2 2-1v1h-2 4-5l-1-1v2h1l2 1h4-6l1 1h3l-1 1 3 1h1-1l-3-1h-1 1-1l-2-1v-1 2q1 0 0 0l1 2h1l1 1 1 1h2-3l-1-1v1l1 1h2v1l4-1v1h-4q-1 0 0 0h1-4l3 1h1-3l1 1 1 1 1 1h1l-3-1 2 2h1-1v1h1l-1 1h3v-1h-1 1-1l1-1 2-1h2-1l-3 2h2-1l-2 1h-1v1h1l1 1h-1l-1-1v1h-1l-1 2-1 2q0 1 0 0l-1 1h1v1l-1-1v2h-1l-1 1-1 2-2 1h-7l-2-1h-1 2-2v1l1 1q0 2 1 1h2v-1h1l-2 1h-2l-1-3h3v1h4l2-1h2l1-1 1-1 1-1 1-2v-1h-2l-1 1-3-1-4-1h-4v-1h-2l-1-1v-3l2 1h1l3 2h8l1-1 1-1 1-1 1-1h1v-1l-1-1-1-1-1-3-1-2v-3l-1-2-1-4-1-3-1-1h-1l-4 2-3 1-3 1-3 1h-3v-1zm7 22 1 1h3-1l1 1h1l6 1h3l1-1h3v-1l2-2v-2l-1-1-1 1-1 1v-1l-1 1v1-1 1h-1l-1 1h-9l-2-2h-3zm11 2h3-4zm5-2v1h-1zm1 2h-1zm0-2v-1q1 0 0 0zm1-2zm1 1q0-1 0 0zm-1-2zm0-1h1zm-18 2h2zm15-11h1zm-3-23zm-6 48h2l5-1h3l1-1 1-1 1-1h-1 2v-1h3v-1h-1 3l3-1h-2q-1 0 0 0l2-1h1-1v1h1v-1 1h-1l-1 1h1l1-1 3-1h1-1v1h1l1-1 2-1h-2l2-1h1l1-1-1 1-1 1 1-1 1-1v-1h1v-2l1-1v-3l-1-1v-3l-1-1v-1h-1q0 1 0 0v-2 1l1 1v1l1 1 1 3v3l-1 4-1 1v4h-1q-1 2-6 3l-2 1-1 1-5 2-1 1h-2v-1l2 1 1-1h-1 1v-1h1l1-1h2l3-2h2l1-1 2-1 1-1h1l1-1v-3 1l-2 1-1 1-3 1-4 1h-3l-2 1q-1 0 0 0h2l1-1h1v1h-3l-1 1h-2l1 1h-2v1q1 0 0 0h-1l1 1v-1 1h-1 1v1h2-3v-2l1-1 1-1 1-1h-1l-1 1h-1l-2 2-1 1-2 1-7 1h-2zm-9-56 3-2 1-1v-1q-1-1 1-2v-1h-3v-1h2l1-1 1 1v-1l-2 1h-2l1 1 1-1h1v3h-1l1 1v-1h1v-2h2v-2l1-1 1 1v1l1-1h1-1v1h1-2l1 1h1l-1 1v-1h1-5v2l-1 1-2 2-4 2q1 0 0 0l1 1h1-1l-1 1h3l-1 1h-1 2l2-1h3q0 1 0 0h1l1 1h1l-1-1v-1l1-1 1-1h2-1 1l1 1v1-1l-3-1-1 1v3l2 1h2l-1-1h-1 1-1v-1h-1 2-2v-1 1-1h2l1 2v1h1q-1 0 0 0l2-2 1-3v-1l-1-2-2-1-3-1h-1v-1h1l-1 1h4l1 1h1v1l1 1v1-1 5-1h1v-1 1l-1 1v1-1h1l-1 1h-1l-1 1v-1 1h-1v1h-2 3l-2 1h-1 3-1v1h-1v-1l-1 1 1-1v1h-1v1-3h-1v-1h-1l-1-1h-2v-1l-2 1h-6l-1-1-1-1zm0 1zm4-5 1 1v-1zm2 0v-1zm3 6h-1zm0-9 1-1-1-1zm0-1v-1q0-1 0 0zm4 12zm0-2-1-1h2v1zm2 2h-1zm1 3v-1zm2-4q0-1 0 0zm-3 52 1-1h1-1v1l1-1h1l-2 1h-2zm-10-35h2zm0-5h1v-1 1zm-2-13h1zm6 17h1v-1 1l-1 1zm-3-18zm13 50v1zm-12-50zm13 50v1zm-12-50h-1zm-1-3v1zm13 52v-1zm-13-53 1-1h3-1l-2 1zm1 2v-1zm4 17 1-1v1zm0-3h1l-1 1zm-4-14zm13 50v1zm1 2h-1zm-13-50h1zm-1-4h2-1 1v1h-2 1-1zm1 2h2zm0 0h1zm13 50h2v-1 1zm0 1h2zm-8-34h3zm10 39zm-1-7h1q1-1 0 0h-2zm-9-35h1zm8 32v1-1l1 1h1v1h1-1l-1-1h-1zm-8-33v-1h1-1zm9 35h-1zm-9-36v-1h4-2zm10 43h1v-1l1 1zm-9-39 2-1v1zm-3-15q0 1 0 0v1zm3 13h1l-1 1zm1 4h2-1l-1 1zm2 11h1v1h1zm-7-32zm4 16h2zm-4-15q1 0 0 0zm1 3zm1 3zm12 49h6zm-15-59h1zm2 4zm10 38h2l1-1-1 1h-3v-1zm4 18h1-2zm-13-53zm6 22q-1 0 0 0h1zm6 24q1 0 0 0 0 1 0 0h-1zm-2-9h1l2-1h1l-2 1h-3zm1 8h2v1-1zm2 8h1zm1 1q-1 0 0 0zm-13-54zm7 31h4zm-8-34v-1 1h3l1 1 1 1v1h-1v2h-2 2-1v1h-1v1-4h2v-1l-2-1h-1zm1 1v-1zm1 4h1v-1zm0-4v-1zm0 0h1v-1h-1zm1 3h1zm-2-3 2 1h-1l-2-1zm5 19h1l-1 1h-1zm-5-16zm7 24h1-2zm-2-7 1-1 2-1 1-1-1 1v1h-1l-1 1h-2zm-7-27h2v2h4l1 1 1 1 2 1h1l1 1 1 1h1-1l-1-1h-1l-1-1v1-1l-1-1h-1v1l2 1v3-3l-1-1v1l-1-1-1-1v-1h-1l-1-1v1h-1v-1h-2l-1 1v-2h1l-1-1zm10 8v-1zm-7 3zm9 38v1zm2 9h1zm1 4h2zm-4-17zm-10-44v1zm4 19h1zm10 36h3l-1 1h-2 1v-1 1h-1q-1 0 0 0zm-1-3zm-4-17h-1zm-4-15 1-1h2-1zm1-1-1 1zm7 34h2zm-9-35 2-1 1-1 1 1h1-3 1-1l-1 1zm3 12h1zm-6-26zm2 9 1-1q1 0 0 0zm9 30h1l-1 1h-1zm0 4h1l1-1-1 1zm-4-18v-1h1-1zm7 28h1zm-11-43 4-1h1l1-1 1-1-1 2h-1l-2 1zm-2-10h1q0 1 0 0v1h-1zm2 5q1 0 0 0zm1 4h1l-1 1zm0 0v-1h2v-1 1zm3 11 1-1zm0 2h2l1-1h1l-2 1zm1-1 3-1v-1 1h-1l-2 1h-1zm5 25h1zm2 4h1zm-12-49zm0 0zm0-1zm0 2v-1q1 0 0 0zm2 7 1-1 2-1v-1 1l-1 1zm12 48 1-1h1l1-1h1-1l-1 1h-1zm-2-10h2v-1l-1 1zm-8-30h1zm6 22zm2 7zm1 3h1zm-12-51v1zm9 34h2l1-1h1-1l-1 1-1 1h-1zm-7-29v-1zm9 37h2zm-4-17 1-1h1v1zm7 29q1 0 0 0zm2 2h-1zm0-2v-1zm-2-6zm0-1 1-1h1l-1 1zm-1-6 2-1h1-2 1-1l-1 1h-1zm1 7 1-1h1l-1 1zm-6-29 1-1v-1 1l-2 1zm1 5v-1 1h-1zm6 22v-1 1h-1zm-1-2h1-1q0 1 0 0zm-2-12h2v-1 1h-1l-1 1zm-6-25v-1zm12 46 1-1 1-1v1h-1l-2 1zm1 2h1-1v1zm-12-45 1-1v1h-1q0 1 0 0zm7 27 1-1 1-1-1 2zm4 15 1-1zm-11-45v-2zm11 47 2-1-1 1zm1-1zm-1-5v-1zm0 0h1zm-10-40v-1 2zm9 37h1zm1-1 1-1v-1l1-1v1h-1l-1 1zm-8-35v1l-1-1zm10 40v1zm-1-4v1zm-10-40 1 1 1 1 2 1 1 1 1 2v1l1 2v-1h-1v-2 1h-1v-2l-1-2v1l-1-1-1-1v1l1 1v2-1l-1-1v-1l-1-1zm4 13q1 0 0 0v-1l1-2v2h-1v1l-1 1zm4 19 1-2 1-1-1 2zm-5-21 1-1v1l-1 1zm6 25 1-1v-1zm-2-10 1-1v-1 1zm3 13v-1zm2 7h1v-1 1h-1q0 1 0 0zm-2-10v-1l1-1v1zm2 5v-1 2h-1zm0 5 1-1v-1 1zm-2-12 1-1v-1 1zm-4-16zm2 9zm-1-5 1-1v-2 3zm-2-9 1-2v1zm0 2 1-1v-1 1zm2 4v-2l1-1v-1h-1l1-1v-1 2l1 2v2l1 2v3l1 2h-1v-3l-1-2v-2l-1-3v1zm0 0v-1zm1 2v1q1 0 0 0 0 1 0 0zm1 7 1-1zm0-2h1l-1 1zm-1-2 1-1zm1 2v-1zm2 5v-5l1 2v2l1 1h-1v3-4l-1-1v2h-1zm1 5v-1zm-5-25v-2 4zm7 28v-2h1v1l-1 1v1zm1 2v-1 1q0 1 0 0zm-1-4v-1z" aria-label="A" transform="matrix(.75119 0 0 .74281 -161 -183)"/><path d="m379 654 1-2 1-1 2-1v-9l1-1v-1h-1v1h-1v1l-1 2v2l-1 1-1 6zm28-5 2-2h2-2q-2 1-1 3l2 1 1-2v-2 2l-1 2h-2zm3-2 1 1-1 1-1-1zm-27 24-1 1-1 1 2 3 2-3zm-3-2-1-3v-1h-1l1 5 2 3 1-1v-1zm-1-4 1 2 1-2zm1-2q-2 1-1 2h2v-1l1-1zm-2-1 1 2 1-1zm2-2-2 2h1l2 1-1-1h1v-1h1v-1h-2l2-2h-3l-1 1 1 1zm-2 0v2l2-2zm0-3v2l1-1zm2-2-1 1-1 1 2 1 1-2h-1zm-2 0v2l2-2zm2-2h-1v2h1l1-2zm4-30q-2 2-2 5l-1 4v5l2 2v-13l1-1zm17-4-9 4-6 7h-1l-1 2v3l-1 3 2-4 3-4 3-4 4-4zm-16 11h-1l-1-1v9zm-2 9 1-1 5-8 9-9q-5 3-8 7-4 4-6 10zm0 13v-2l-1 1zm0 0-1-1 1-1h-1l-1 2zm-2-1v1h-1v1h1l1-1h-1zm2 1h-1l-1 1v1h2zm0 2v-1 2zm1 3-1-2v1zm2 2-2-2q-2 0 0 2zm4-2-1 1-1 2 4 1h3l2-1-4-2zm4-2h-1l-3 2 2 1 5 2-2-3zm4 1-1 1h-1l1 3-2 1-1 1v1h2q-1-1 2-3l1-2-1 3 1 1 3-2-1-2v-1h-2zm0 0 1 1h1l2-1-2-3-1 2zm3-3 3 3 4 1h3l-2 1h-3q0 3 2 2l3-3-1 1v2l1 1 2-3h-2v-1 1h2l1-7v-8l-2-5-3 2-2 3-2 4-2 5q4-10 8-14l-2 1-2 3-2 3-2 4-1 1 1 3 1 2 3 1-4-2-1-3zm10 8-1-1v-2l-1 2-1 2 1 2zm-5 6 3-3-1-1-2 1zm0 0v-3l-2 2-1-1-1 2-1 1 1 1 1-1 1-2-1 1 1 1zm-11 7q5-2 9-6h-1l-1 1h-1l-1 2v-1l1-1h-2l-1 2h2-2l-1 1h-2zm-4 6h3l6-8h-1l-2 1-1 1zm0-5h-1v-1h-2l-3 4 3 1zm-8-5v1l1 1h1v-2zm0 0h-1l1 1zm-1-2-1 2h2v-1l1-1zm0 0h-2l1 1zm0 0v-2l1-1h-2l-1 2v1zm1-9-1-1-1 1-1 1h2zm0-2h-1v2h2l-1-1 1-1zm1 4v-2h-1l-1 2h2l-1 2h2l-1-1zm3-1-1-1h-2v2l1-1h1l-2 1 1 2 2-1v-1h-1v-1zm2 1h1l-2-1h-1l-1 1 1 1zm5 2h-3l1-2h-2l-1 1 2 1-1 1 1 1h2q-1 0 0 0v-1zm-2-2v2h2l1-2zm6 2v1h-1l-1-1-1 3h2v-1l1-1zm1-1-1-1v-1l-2 3h2zm7-2v3h2l1-3zm-6 6-1 1v2h2v-2h-1zm0-2-2-1-1 3h3zm-7 10h2l1-2-3-1-1 2zm-5-1h-1l3 1h2-2v-1l1-2-1-1h-2l-1 3h3zm-2-4-1 2v1h2l1-2zm-2-1-1 2h2l1-1v-1zm6-5-1-1v-1l-1 1h-1v1l1 1-2 1 1 1 1-1v-1l1-1zm-1 5-2-1v1h-1l1 1 1 1zm1-2-2-1-1 2 2 1zm5 0-1 1v2h2l1-3zm-2 5h-2l-1 2v1h2v-2zm1-2-1-1h-1q-2 2-1 3h2v-1zm1-3-2-1v1l-2 2h2zm-2 0-3-1 1-2h-1l-2 2 2 1v-1l-1 2 1 1h1-2l-1 2h2l2-2-1-1 1-1zm-9-3v1l-1 1 1 1h1l1-1-1 2-1 1h2l1-1v-1l-1-1 2-1-1-1v-1l-2 1 1 2-1-2zm1 3-2-1q-2 2-1 3h2v-1zm0 7h3-1v-1h-1zm0-1v1l1-1zm3 7 3 1 4-6h-1l-3 1zm10-8v-1l1-1q-1-1 1-3l-2 1-1-1-1 2v1h3-5l-1 2 1 1h2v-3 3zm5-6v-2 2l1 1 2-2v-3l-2 2h-2l-2 1v2l1 1zm3-7q-1 2-4 2-1 4 2 2l2-1zm0 0-4-2-1 1v2l2 1zm-4 2-2 1-1 1v2h1l2-1zm-6 3h-2l-1 2v1h2zm-13-6-2-1-1 1v1h2v-1zm-1-3-1 2 2 1v-3zm-1-1-1 2 1 1 1-1-1-1zm1 7-1 2 2 1h-1l-1 2h2l1-2h-1l1-2h-1zm3 13-2 3 1 1h1l3-3zm8 8-4-1-4-2-3-3-3-5-1-6 1-10 3-15-1-3v-4l1-5 2-4v3l-1 1v2h1l1 1 7-7 10-4-10 8q-5 5-8 12l-1 4v10l2 4 3 3q2-4 6-5v-1l2 3 2-1 3-4 3-5 3-5 3-4q2 0 3 2l1 5v7l-1 6q-4 8-13 14l-3 4-2 3-1 1zm30-43-1 2-1 1-2 1v9l-1 2v1l1-1h1v-2l1-1v-3l1-1 1-6zm-28 5q0 2-2 2h-2l1 1 1-1q2-1 1-2 0-2-2-1l-1 1v2-2l1-2h2zm-3 2h-1v-1h1v-1l1 1v1zm27-24h1l1-1v-1l-2-2-2 3zm3 3 1 3h1l-1-4-2-4-1 1v1zm1 3-1-2-1 2zm-1 3q2-2 1-3h-2v2l-1 1zm2 0-1-2-1 2zm-2 2 2-1-1-1h-2 1l-1 1-1 1h2l-2 2h2l1 1 1-2-1-1zm2 1v-2l-2 1zm0 2v-2l-1 2zm-2 2 1-1 1-1-2-1-1 2zm2 0v-1l-2 1zm-2 3 1-1v-1h1l-1-1h-1l-1 2h1zm-4 29 2-4 1-5v-4l-2-3v13l-1 2zm-17 4q5-1 9-4l6-7h1l1-2v-3l1-3-2 5-3 4-3 3-4 4zm16-11 1 1h1v-9zm2-8h-1l-5 8q-4 6-9 9 5-2 8-6 4-5 6-11zm0-14v2l1-1zm0 0 1 1-1 1h1l1-2zm2 1 1-1v-1h-1l-1 1h1zm-2-1h1l1-1v-1h-2zm0-2v2zm-1-2 1 2v-1zm-2-2 2 2q2-1 0-3zm-4 1 1-1 1-1q-1-2-4-2l-3 1-2 1 4 1zm-4 3 2-1 2-1-2-1-5-2 2 2zm-4-2 1-1h1l-1-2 2-2 1-1v-1h-2q1 1-2 4l-1 2 1-3-1-1-2 1h-1l1 2v2l1-1h1zm0 0-1-1h-1l-2 2 2 2 1-1zm-3 3q0-2-3-3l-4-1-3 1 2-1h3q0-3-2-3l-3 3v1l1-1v-3l-1-1-2 3h2v2-2l-2 1-1 7v8l2 4q2 0 3-2l2-3 2-4 2-5q-4 10-8 14l2-1 2-3 2-3 2-4 1-1-1-3-1-1-3-1 4 2 1 3zm-10-8 1 1v2l2-1v-3l-1-2zm5-5-3 2 1 1h2zm0 0v2l2-1h1l2-1v-2l-1-1-1 1-1 3 1-2-1-1zm11-7q-5 1-9 5h1l1-1 1 1 1-3v1l-1 2h2l1-3h-2 2l1-1 2 1zm4-7h-3l-6 9 1-1 2-1h1zm0 6h3l3-3-3-2zm8 4v-1l-1-1h-1v2zm0 0h1l-1-1zm1 2 1-1-1-1h-1v1l-1 1zm0 0h2l-1-1zm0 0 1 1-1 1-1 1h2l1-2v-1zm-1 9 1 1h1l1-1v-1h-2zm0 3 1-1v-1h-2l1 1-1 1zm-1-5v2q1 0 0 0v1l1-1 1-1-2-1 1-1-2-1v1zm-3 2 1 1h2v-3l-1 1h-1l2-1-1-1h-2v1l1 1zm-2-2-1 1h2l1 1 1-1-1-2zm-5-2 3 1-1 1h2l1-1-2-1v1l1-2-1-1h-2v2zm2 2 1-1-3-1-1 2zm-6-2h2l1-2-2-1v1l-1 1zm-1 2 1 1v1l2-4h-2zm-7 1v-3h-2v4zm6-6 1-1v-2l-2 1v2zm0 2 2 1 1-3h-3zm7-10-2 1v2h2l1-2zm5 1h1l-3-1h-2v1l2-1v1l-1 2 1 1h2l1-2-3-1zm2 4 1-2v-1h-2l-1 2v1zm2 2 1-2-2-1-1 1v1zm-6 5h1v1h1l1-1v-1l-1-1v1l2-2-1-1-1 1v1l-1 1h-1zm1-5 2 1 1-1v-2h-2zm-1 2h2l1-1-2-1zm-5-1 2-1-1-1-2-1-1 3zm2-5h2l1-1v-1h-2v1zm-1 2 1 1h1q2-1 1-2l-2-1v1zm-1 4h3l1-2-2-1-2 2zm3 0h2l-1 2 1 1 2-2-2-1 1-2-1-1h-1l2 1 1-3h-2l-2 2 1 1-1 1zm8 2v-1h1v-1h-3l1-1 1-1-2-1-1 2 1 1-1 2v1l2-1-1-1 1 1zm-1-2h2q2-1 1-2l-2-1v2zm0-7-2-1h-1l1 1zm1 0h-1zm-4-7-3-1-4 7 1-1h3zm-10 8v1l-1 2-1 2h3l1-1v-2h-1l-2 1 3-1h2l1-1-1-1h-1l-1 1v1-2zm-5 6v3-3h-1l-2 1v4l2-2h2l2-2v-2h-1zm-3 8 4-3q1-4-2-2l-2 2zm0 0 4 2v-1h1v-3h-2zm4-3h1l1-1h1v-2l-1-1-2 2zm6-3h2l1-1v-1h-2zm13 7h3v-2h-2v1h-1zm1 2 1-2h-2v2zm1 1 1-2-1-1-1 2h1zm-1-7q2-1 1-2h-2 1q2-2 1-3h-2l-1 2 1 1-1 1h2zm-3-12 2-3-1-2h-1l-3 3zm-8-8 4 1 4 2 3 3 3 4 1 7-1 10-3 14 1 3v5l-1 4q0 3-2 4v-1l1-1v-3l-1-1h-1l-7 7-10 4 10-8 8-12 1-4v-10l-2-5q-1-2-3-2l-5 5h-1l-2-3-2 2-3 4-3 5-3 5-3 4q-2 0-3-2l-1-6v-7l1-6q4-8 13-13l3-5 2-3 1-1z" aria-label="V" transform="matrix(.75119 0 0 .74281 -161 -183)"/></g></g><path stroke-width="1.3" d="m553 361 9 17m73 133 9 16m-84-170 9 17m71 134 9 17m-81-172 8 17m69 136 9 16m-79-172 8 16m67 137 8 17m-75-174 11 24m59 125 10 23m-72-176 7 17m62 140 8 16m-69-176 7 17m59 140 8 17m-66-177 6 17m58 141 7 17m-63-178 6 17m55 142 6 17m-6-31 11 30m-64-178 11 32m-3-35 6 17m49 144 6 18m-53-182 5 18m48 145 5 17m-50-183 5 18m45 146 5 18m-47-184 5 18m42 146 5 18m-44-184 7 26m36 132 6 25m-40-185 4 17m37 148 4 18m-37-185 4 18m34 148 4 18m-34-186 4 18m32 149 4 18m-31-187 3 18m29 150 4 18m-1-32 6 31m-33-187 6 34m2-35 3 18m24 151 3 18m-21-188 2 18m22 151 2 18m-18-188 3 18m18 151 2 19m-14-189 2 18m16 152 2 18m-12-189 3 27m12 137 2 25m-8-190 1 19m11 152 1 18m-5-189 1 18m8 152 1 19m-1-190 1 19m5 152 1 19m1-190 1 19m2 152 1 18m5-189v189m9-189-1 19m-2 152-1 19m12-190v19m-6 152v19m15-189-1 18m-8 152-1 19m18-189-1 19m-11 152-1 18m22-188-3 27m-11 137-3 25m25-188-2 18m-16 152-1 18m28-187-2 18m-19 151-2 19m31-187-2 18m-21 151-3 18m35-186-3 18m-24 151-3 18m11-30-6 31m33-187-6 35m15-33-4 18m-29 150-4 18m45-184-4 18m-32 149-3 18m47-183-4 18m-34 148-4 18m51-182-5 18m-37 147-4 18m54-181-7 26m-36 132-6 25m57-181-5 18m-42 146-5 18m60-180-5 18m-45 146-5 18m63-179-5 18m-47 145-6 17m67-177-6 17m-50 144-6 18m16-28-11 30m65-178-12 32m20-29-7 17m-55 142-6 17m76-173-7 17m-57 141-7 17m78-172-7 17m-59 140-8 17m82-171-7 17m-62 140-8 16m85-169-11 24m-58 125-11 23m88-168-8 16m-67 137-8 17m90-167-8 17m-69 136-9 16m94-165-9 17m-71 134-9 17m97-164-9 17m-74 133-9 16m99-161-95 164m103-160-10 16m-79 131-9 15m105-157-10 15m-81 130-10 15m108-156-10 16m-83 128-10 15m110-154-10 15m-85 127-11 15m113-152-15 22m-79 112-14 21m115-150-11 15m-89 123-11 15m118-148-11 15m-92 121-11 15m121-146-12 15m-93 120-12 14m123-144-11 15m-96 118-12 15m25-21-21 24m122-145-22 26m29-21-13 14M999 549l-12 14m131-137-12 14m-102 113-13 14m133-135-12 13m-104 112-13 13m135-132-12 13m-106 110-13 13m138-130-20 19m-97 97-17 18m140-128-14 13m-109 105-14 13m142-125-13 12m-112 104-13 13m144-123-14 13m-113 102-14 12m147-120-14 12m-115 100-14 12m28-16-25 20m145-122-26 22m32-15-15 11m-118 96-14 12m152-113-14 12m-121 94-14 11m154-110-14 11m-122 92-15 11m156-107-14 11m-124 90-15 10m158-104-22 15m-112 79-21 15m160-102-15 10m-126 86-16 10m162-99-16 10m-127 83-16 10m164-96-16 10m-129 81-16 10m165-93-16 9m-131 79-15 9m166-90-164 95m169-87-17 9m-133 73-16 9m170-84-17 9m-134 71-17 9m172-81-17 8m-136 69-16 9m172-79-16 8m-137 67-17 8m174-75-24 11m-125 59-23 10m176-72-17 7m-140 62-16 8m176-69-17 7m-140 59-17 8m177-66-17 6m-141 58-17 7m178-63-17 6m-142 55-17 6m31-6-30 11m178-64-32 11m35-3-17 6m-144 49-18 6m182-53-18 5m-145 48-17 5m183-50-18 5m-146 45-18 5m184-47-18 5m-146 42-18 5m184-44-26 7m-132 36-25 6m185-40-17 4m-148 37-18 4m185-37-18 4m-148 34-18 4m186-34-18 4m-149 32-18 4m187-31-18 3m-150 29-18 4m32-1-31 6m187-33-34 6m35 2-18 3m-151 24-18 3m188-21-18 2m-151 22-18 2m188-18-18 3m-151 18-19 2m189-14-18 2m-152 16-18 2m189-12-27 3m-137 12-25 2m190-8-19 1m-152 11-18 1m189-5-18 1m-152 8-19 1m190-1-19 1m-152 5-19 1m190 1-19 1m-152 2-18 1m189 5h-189m189 9-19-1m-152-2-19-1m190 12h-19m-152-6h-19m189 15-18-1m-152-8-19-1m189 18-19-1m-152-11-18-1m188 22-27-3m-137-11-25-3m188 25-18-2m-152-16-18-1m187 28-18-2m-151-19-19-2m187 31-18-2m-151-21-18-3m186 35-18-3m-151-24-18-3m30 11-31-6m187 33-35-6m33 15-18-4m-150-29-18-4m184 45-18-4m-149-32-18-3m183 47-18-4m-148-34-18-4m182 51-18-5m-147-37-18-4m181 54-26-7m-132-36-25-6m181 57-18-5m-146-42-18-5m180 60-18-5m-146-45-18-5m179 63-18-5m-145-47-17-6m177 67-17-6m-144-50-18-6m28 16-30-11m178 65-32-12m29 20-17-7m-142-55-17-6m173 76-17-7m-141-57-17-7m172 78-17-7m-140-59-17-8m171 82-17-7m-140-62-16-8m169 85-24-11m-125-58-23-11m168 88-16-8m-137-67-17-8m167 90-17-8m-136-69-16-9m165 94-17-9m-134-71-17-9m164 97-17-9m-133-74-16-9m161 99-164-95m160 103-16-10m-131-79-15-9m157 105-15-10m-130-81-15-10m156 108-16-10m-128-83-15-10m154 110-15-10m-127-85-15-11m152 113-22-15m-112-79-21-14m150 115-15-11m-123-89-15-11m148 118-15-11m-121-92-15-11m146 121-15-12m-120-93-14-12m144 123-15-11m-118-96-15-12m21 25-24-21m145 122-26-22m21 29-14-13m-115-100-14-12m137 131-14-12m-113-102-14-13m135 133-13-12m-112-104-13-13m132 135-13-12m-110-106-13-13m130 138-19-20m-97-97-18-17m128 140-13-14m-105-109-13-14m125 142-12-13m-104-112-13-13m123 144-13-14m-102-113-12-14m120 147-12-14m-100-115-12-14m17 28-21-25m122 145-22-26m15 32-11-15m-96-118-12-14m113 152-12-14m-94-121-11-14m110 154-11-14m-92-122-11-15m107 156-11-14m-89-124-11-15m104 158-15-22m-79-112-15-21m102 160-10-15m-86-126-10-16m99 162-10-16m-83-127-10-16m96 164-10-16m-81-129-10-16m93 165-9-16m-79-131-9-15m90 166-95-164" transform="matrix(.75119 0 0 .74281 -161 -183)"/><g stroke-width="1.3"><path d="M1091 790a301 301 0 0 1-301 301 301 301 0 0 1-301-301 301 301 0 0 1 301-301 301 301 0 0 1 301 301Z" transform="matrix(.75119 0 0 .74281 -161 -183)"/><path d="M1108 790a318 318 0 0 1-318 318 318 318 0 0 1-318-318 318 318 0 0 1 318-318 318 318 0 0 1 318 318Z" transform="matrix(.75119 0 0 .74281 -161 -183)"/><path d="M1115 790a325 325 0 0 1-325 325 325 325 0 0 1-325-325 325 325 0 0 1 325-325 325 325 0 0 1 325 325Z" transform="matrix(.75119 0 0 .74281 -161 -183)"/><path d="M1122 790a332 332 0 0 1-332 332 332 332 0 0 1-332-332 332 332 0 0 1 332-332 332 332 0 0 1 332 332Z" transform="matrix(.75119 0 0 .74281 -161 -183)"/><path d="M1246 790a456 456 0 0 1-456 456 456 456 0 0 1-456-456 456 456 0 0 1 456-456 456 456 0 0 1 456 456Z" transform="matrix(.75119 0 0 .74281 -161 -183)"/><path d="M1253 790a463 463 0 0 1-463 463 463 463 0 0 1-463-463 463 463 0 0 1 463-463 463 463 0 0 1 463 463Z" transform="matrix(.75119 0 0 .74281 -161 -183)"/><path d="M1262 790a472 472 0 0 1-472 472 472 472 0 0 1-472-472 472 472 0 0 1 472-472 472 472 0 0 1 472 472Z" transform="matrix(.75119 0 0 .74281 -161 -183)"/><path d="M1279 790a489 489 0 0 1-489 489 489 489 0 0 1-489-489 489 489 0 0 1 489-489 489 489 0 0 1 489 489Z" transform="matrix(.75119 0 0 .74281 -161 -183)"/></g><path stroke-width="1.3" d="m1027 1219-9-17m-73-133-9-16m84 170-9-17m-71-134-9-17m81 172-8-17m-69-136-9-16m79 172-8-16m-67-137-8-17m75 174-11-24m-58-125-11-23m72 176-7-17m-62-140-8-16m69 176-7-17m-59-140-8-17m66 177-6-17m-58-141-7-17m64 178-7-17m-55-142-6-17m6 31-11-30m64 178-11-32m3 35-6-17m-49-144-6-18m53 182-5-18m-47-145-6-17m50 183-5-18m-45-146-5-18m47 184-5-18m-42-146-5-18m44 184-7-26m-36-132-6-25m40 185-4-17m-37-148-4-18m37 185-4-18m-34-148-4-18m34 186-4-18m-32-149-4-18m31 187-3-18m-29-150-4-18m1 32-6-31m33 187-6-34m-2 35-3-18m-24-151-3-18m21 188-2-18m-22-151-2-18m18 188-3-18m-18-151-2-19m14 189-2-18m-16-152-2-18m12 189-3-27m-12-137-2-25m8 190-1-19m-11-152-1-18m5 189-1-18m-8-152-1-19m1 190-1-19m-5-152-1-19m-1 190-1-19m-2-152-1-18m-5 189v-189m-9 189 1-19m2-152 1-19m-12 190v-19m6-152v-19m-15 189 1-18m8-152 1-19m-18 189 1-19m11-152 1-18m-22 188 3-27m11-137 3-25m-25 188 2-18m16-152 1-18m-28 187 2-18m19-151 2-19m-31 187 2-18m21-151 3-18m-35 186 3-18m24-151 3-18m-11 30 6-31m-33 187 6-35m-15 33 4-18m29-150 4-18m-45 184 4-18m32-149 3-18m-47 183 4-18m34-148 4-18m-51 182 5-18m37-147 4-18m-54 181 7-26m36-132 6-25m-57 181 5-18m42-146 5-18m-60 180 5-18m45-146 5-18m-63 179 5-18m47-145 6-17m-67 177 6-17m50-144 6-18m-16 28 11-30m-65 178 12-32m-20 29 7-17m55-142 6-17m-76 173 7-17m57-141 7-17m-78 172 7-17m59-140 8-17m-82 171 7-17m62-140 8-16m-85 169 11-24m58-125 11-23m-88 168 8-16m67-137 8-17m-90 167 8-17m69-136 9-16m-94 165 9-17m71-134 9-17m-97 164 9-17m74-133 9-16m-99 161 95-164m-103 160 10-16m79-131 9-15m-105 157 10-15m81-130 10-15m-108 156 10-16m83-128 10-15m-110 154 10-15m85-127 11-15m-113 152 15-22m79-112 14-21m-115 150 11-15m89-123 11-15m-118 148 11-14m92-122 11-15m-121 146 12-15m93-120 12-14m-123 144 11-15m96-118 12-14m-25 20 21-24m-122 145 22-26m-29 21 13-14m100-115 12-14m-131 137 12-14m102-113 13-14m-133 135 12-13m104-112 13-13m-135 132 12-13m106-110 13-13m-138 130 20-19m97-97 17-17m-140 127 14-12m109-106 14-13m-142 125 13-12m112-104 13-13m-144 123 14-13m113-102 14-12m-147 120 14-12m115-100 14-12m-28 17 25-21m-145 122 26-22m-32 15 15-11m118-96 14-12m-152 113 14-12m121-94 14-11m-154 110 14-11m122-92 15-11m-156 107 15-11m123-89 15-11m-158 104 22-15m112-79 21-15m-160 102 15-10m126-86 16-10m-162 99 16-10m127-83 16-10m-164 96 16-10m129-81 16-10m-165 93 16-9m131-79 15-9m-166 90 164-95m-169 87 17-9m133-73 16-9m-170 84 17-9m134-71 17-9m-172 81 17-8m136-69 16-9m-172 79 16-8m137-67 17-8m-174 75 24-11m125-59 23-10m-176 72 17-7m140-62 16-8m-176 69 17-7m140-59 17-8m-177 66 17-6m141-58 17-7m-178 63 17-6m142-55 17-6m-31 6 30-11m-178 64 32-11m-35 3 17-6m144-49 18-6m-182 53 18-5m145-48 17-5m-183 50 18-5m146-45 18-5m-184 47 18-5m146-42 18-5m-184 44 26-7m132-36 25-6m-185 40 17-4m148-37 18-4m-185 37 18-4m148-34 18-4m-186 34 18-4m149-32 18-4m-187 31 18-3m150-29 18-4m-32 1 31-6m-187 33 34-6m-35-2 18-3m151-24 18-3m-188 21 18-2m151-22 18-2m-188 18 18-3m151-18 19-2m-189 14 18-2m152-16 18-2m-189 12 27-3m137-12 25-2m-190 8 19-1m152-11 18-1m-189 5 18-1m152-8 19-1m-190 1 19-1m152-5 19-1m-190-1 19-1m152-2 18-1m-189-5h189m-189-9 19 1m152 2 19 1m-190-12h19m152 6h19m-189-15 18 1m152 8 19 1m-189-18 19 1m152 11 18 1m-188-22 27 3m137 11 25 3m-188-25 18 2m152 16 18 1m-187-28 18 2m151 19 19 2m-187-31 18 2m151 21 18 3m-186-35 18 3m151 24 18 3m-30-11 31 6m-187-33 35 6m-33-15 18 4m150 29 18 4m-184-45 18 4m149 32 18 3m-183-47 18 4m148 34 18 4m-182-51 18 5m147 37 18 4m-181-54 26 7m132 36 25 6m-181-57 18 5m146 42 18 5m-180-60 18 5m146 45 18 5m-179-63 18 5m145 47 17 6m-177-67 17 6m144 50 18 6m-28-16 30 11m-178-65 32 12m-29-20 17 7m142 55 17 6m-173-76 17 7m141 57 17 7m-172-78 17 7m140 59 17 8m-171-82 17 7m140 62 16 8m-169-85 24 11m125 58 23 11m-168-88 16 8m137 67 17 8m-167-90 17 8m136 69 16 9m-165-94 17 9m134 71 17 9m-164-97 17 9m133 74 16 9m-161-99 164 95M370 537l16 10m131 79 15 9M375 530l15 10m130 81 15 10M379 523l16 10m128 83 15 10M384 516l15 10m127 85 15 11M389 509l22 15m112 79 21 14M394 502l15 11m123 89 15 11M399 495l14 11m122 92 15 11M404 488l15 12m120 93 14 12M409 482l15 11m118 96 14 12m-20-25 24 21M415 475l26 22m-21-29 14 13m115 100 14 12M426 462l14 12m113 102 14 13M432 456l13 12m112 104 13 13M438 450l13 12m110 106 13 13M444 443l19 20m97 97 17 17M450 437l12 14m106 109 13 14M456 432l12 13m104 112 13 13M462 426l13 14m102 113 12 14M469 420l12 14m100 115 12 14m-17-28 21 25M475 415l22 26m-15-32 11 15m96 118 12 14M488 404l12 14m94 121 11 14M495 399l11 14m92 122 11 15M502 394l11 14m89 124 11 15M509 389l15 22m79 112 15 21M516 384l10 15m86 126 10 16m-99-162 10 16m83 127 10 16m-96-164 10 16m81 129 10 16m-93-165 9 16m79 131 9 15m-90-166 95 164" transform="matrix(.75119 0 0 .74281 -161 -183)"/></g></svg>