<svg viewBox="-60 -55 980 940" class="natal" version="1.1" id="svg413" width="980" height="940" xmlns:xlink="http://www.w3.org/1999/xlink" xmlns="http://www.w3.org/2000/svg"><style id="style2">@font-face{font-family:&apos;astrostyle&apos;;src:url(../fonts/astrostyle.eot);src:url(../fonts/astrostyle.eot?#iefix) format(&apos;embedded-opentype&apos;),url(../fonts/astrostyle.svg#astrostyle) format(&apos;svg&apos;),url(../fonts/astrostyle.woff) format(&apos;woff&apos;),url(../fonts/astrostyle.ttf) format(&apos;truetype&apos;);font-weight:400;font-style:normal}</style><defs id="defs355"><ellipse id="ellipse20" cx="357.938" cy="102.644" rx="30.587" ry="15.314" style="fill:none;stroke:#fe0c00;stroke-width:1px"/></defs><g id="g3664" transform="translate(-53.1 -57.047)"><g id="g5518"><use xlink:href="#ellipse20" transform="matrix(.9503 .34202 -.34588 .9397 264.35 -7.083)" id="use357" x="0" y="0" width="100%" height="100%"/><use xlink:href="#ellipse20" transform="matrix(.94413 -.35837 .36242 .93358 8.078 250.79)" id="use359" x="0" y="0" width="100%" height="100%"/><path stroke="red" id="line361" style="stroke-width:1.00563" d="M656.636 318.301 313.293 603.182"/><path stroke="#00c" id="line363" style="stroke-width:1.00563" d="M625.993 288.525 264.98 418.459"/><path stroke="red" id="line365" style="stroke-width:1.00563" d="M625.993 288.525 303.662 330.49"/><path stroke="red" id="line367" style="stroke-width:1.00563" d="m346.994 286.119-33.701 317.063"/><path stroke="red" id="line369" style="stroke-width:1.00563" d="m656.636 318.301-309.642-32.182"/><path stroke="#00c" id="line371" style="stroke-width:1.00563" d="m557.919 251.22-210.925 34.899"/><path stroke="#00c" id="line373" style="stroke-width:1.00563" d="m264.98 418.459 128.833-160.155"/><path stroke="#00c" id="line375" style="stroke-width:1.00563" d="m565.272 253.866-218.278 32.253"/><path stroke="#00c" id="line377" style="stroke-width:1.00563" d="M408.318 252.511 264.98 418.459"/><path stroke="#00c" id="line379" style="stroke-width:1.00563" d="m408.318 252.511 217.675 36.014"/><path stroke="#00c" id="line381" style="stroke-width:1.00563" d="m625.993 288.525-232.18-30.221"/><path stroke="red" stroke-dasharray="18, 12" stroke-width="1.006" id="line383" d="m557.919 251.22-164.106 7.084"/><path stroke="red" stroke-dasharray="18, 12" stroke-width="1.006" id="line385" d="m565.272 253.866-171.459 4.438"/><path stroke="red" stroke-dasharray="18, 12" stroke-width="1.006" id="line387" d="m346.994 286.119-82.014 132.34"/><path stroke="#00ะก" stroke-dasharray="18, 12, 0" stroke-width="1.006" id="line389" d="m565.272 253.866 91.364 64.435"/><path stroke="#00ะก" stroke-dasharray="18, 12, 0" stroke-width="1.006" id="line391" d="m656.636 318.301-98.717-67.081"/><path stroke="#00ะก" stroke-dasharray="18, 12, 0" stroke-width="1.006" id="line393" d="m303.662 330.49 90.151-72.186"/><path stroke="#00c" stroke-dasharray="18, 12" stroke-width="1.006" id="line395" d="M557.919 251.22 313.293 603.182"/><path stroke="#00c" stroke-dasharray="18, 12" stroke-width="1.006" id="line397" d="M565.272 253.866 313.293 603.182"/><path stroke="#0f0" id="line399" style="stroke-width:1.00563" d="m557.919 251.22-254.257 79.27"/><path stroke="#0f0" id="line401" style="stroke-width:1.00563" d="m565.272 253.866-261.61 76.624"/><path stroke="#0f0" id="line403" style="stroke-width:1.00563" d="m656.636 318.301-262.823-59.997"/><path stroke="#0f0" id="line405" style="stroke-width:1.00563" d="m656.636 318.301-248.318-65.79"/><path stroke="red" id="line407" style="stroke-width:1.00563" d="M313.293 603.182 264.98 418.459"/><path stroke="sienna" id="line409" style="stroke-width:1.00563" d="m557.919 251.22-149.601 1.291"/><path stroke="sienna" id="line411" style="stroke-width:1.00563" d="m565.272 253.866-156.954-1.355"/></g></g></svg>