<svg xmlns="http://www.w3.org/2000/svg" xmlns:xlink="http://www.w3.org/1999/xlink" class="natal" viewBox="-60 -55 980 940"><defs><path id="a" fill="#f0f" fill-opacity="1" fill-rule="evenodd" stroke="#f0f" stroke-opacity="1" d="m964 293-8 7-2-10z"/><path id="b" fill="none" stroke="none" stroke-linecap="butt" stroke-linejoin="miter" stroke-opacity="1" stroke-width="1" d="M150 642c-25-51-36-68-47-137"/><path id="c" fill="none" stroke="none" stroke-linecap="butt" stroke-linejoin="miter" stroke-opacity="1" stroke-width="1" d="m216 621-17-40"/><path id="d" fill="red" fill-opacity="1" fill-rule="evenodd" stroke="none" stroke-opacity="1" d="m964 293-8 7-2-10z"/><path id="e" fill="#00f" fill-opacity="1" fill-rule="evenodd" stroke="none" stroke-opacity="1" d="m964 293-8 7-2-10z"/></defs><g transform="translate(-53 -57)"><path fill="none" stroke="#f0f" d="m865 181-51 41"/><path fill="none" stroke="red" d="m530 72 99-29"/><path fill="none" stroke="#f0f" d="M836 232a405 405 0 0 1 8 448"/><use xlink:href="#a" fill-rule="evenodd" transform="matrix(1.00494 .11197 -.11323 .99371 -92 -166)"/><use xlink:href="#a" fill-rule="evenodd" transform="matrix(1.00494 .11197 -.11323 .99371 -84 278)"/><path fill="none" stroke="#f0f" d="M69 469c1 65 18 127 47 181"/><use xlink:href="#a" fill-rule="evenodd" transform="matrix(-1.00494 .11197 .11323 .99371 1046 252)"/><use xlink:href="#a" fill-rule="evenodd" transform="matrix(-.76951 .64885 .65618 .76092 614 -375)"/><g style="line-height:1.25;-inkscape-font-specification:AstrostudiyaFont"><path fill="#f0f" d="m73 640-1 1 1 2 1 2h1l1 2h-3l-2-3-1-4 3-2h1l2 1q0-2 2-3h3l2 3v4l-2 2-1-2 2-1-1-2-1-2h-1l-2 1 1 2v2l-1 1-1-3q-1-2-3-1zm3-18 1 2-5 2 2 6 5-2 1 2-12 4-1-2 5-2-2-5-5 2-1-2zm-4-10h-1l3 3v3l-2 2h-4l-2-3-1-2h-1l-1 1v2l1 2h2v2h-2l-2-1-1-2v-4l2-2 6-2 2-1 1-1zm0 4-1-2-2-1-2 1v2q2 3 4 3l1-2v-1zm-8-11 1 1 5-2v2l-12 4v-2l5-1-1-2-6-2-1-3 8 3 4-7 1 3zm-10-27 4-1 4 2 2 3-1 4q0 2-2 3l-4 2h-5l-4-1-1-4v-3q0-2 2-3 1-2 4-2zm-1 2-4 2-1 4 3 3h6l4-3 1-3q-1-3-3-3h-4zm8-8-12 3-1-5v-4l2-2h2l1 2 1-2 1-1h3l2 4zm-6-1h4l-1-4-1-2h-1q-2 0-2 3zm-2 1v-3q-1-3-3-3l-1 4 1 2zm5-18-1 4-4 3h-4l-3-2-1-3q-1-2 1-4l4-2h1l1 9 3-2 1-3-1-2-1-1v-1q3 1 4 4zm-12 2 2 2 3 1-1-6h-1l-2 1-1 2zm9-20v3h-5v6l6-1v2l-12 2-1-2 6-1-1-5-6 1v-3z" aria-label="знак Овен" font-family="Roboto" font-size="24" style="-inkscape-font-specification:Roboto" transform="matrix(1.0113 0 0 1 0 -20)"/></g><path fill="none" d="M86 625c-19-47-24-65-32-118m0-91c8-50 12-67 33-117"/><g style="line-height:1.25;-inkscape-font-specification:AstrostudiyaFont"><path fill="#f0f" d="m64 608 2 1 1 2v3l-1 2-3 2h-3l-3-1-1-2v-5l5-3q5-2 8-1t4 5v1h-2l-2-4h-5zm1 3-1-1-2-1h-1l-3 2v3l1 2h3l3-2v-3zm1-15-1-1h-5l-5 1-2-8 10-3v-1l5-2 1 2-4 1 2 9 4-1 1 2-6 2zm-1-3-1-5-9 2 1 4 3-1h6zm-7-10h-4l-2-1q-2-1-2-3-1-2 1-4l4-3h4l2 1 2 3-1 4-4 3zm-1-2q2 0 3-2l1-3-2-2h-4l-3 2v3l2 2h3zm-1-20-10-2-1-3 13-2v2l-9 2 10 2v1l-8 6 9-2v3l-12 2-1-3z" aria-label="9 дом" font-family="Roboto" font-size="24" style="-inkscape-font-specification:Roboto" transform="matrix(-.98643 -.22038 .22287 -.97541 853 1031)"/></g><path fill="none" d="M915 403c5 31 5 65 4 89"/><path fill="none" stroke="#f0f" d="m400 190 69-146"/><use xlink:href="#a" fill-rule="evenodd" transform="matrix(1.00923 .0639 -.06463 .99796 -550 -163)"/><path fill="none" stroke="#f0f" d="M537 190 469 44"/><use xlink:href="#a" fill-rule="evenodd" transform="matrix(-1.00923 .0639 .06463 .99796 1486 -163)"/><g transform="matrix(-.31174 .9513 -.96205 -.30826 1059 99)"><g style="line-height:1.25;-inkscape-font-specification:AstrostudiyaFont"><path fill="#f0f" d="M139 632h4l3 3q2 3 1 5l-5 5h-1l-4 1-4-1-2-2q-2-3-1-5l3-4 1 2-2 3v3q1 2 3 2 2 1 5-1l1-1 4-2v-4l-2-2h-3zm-2-2-4 1-3-1-2-2v-5l4-3 3-1 3 1 2 2v5l-3 3zm-1-2 3-2v-3q-1-2-3-2l-3 1-3 2v3l2 2 4-1zm-2-18v4q0 2-3 4l-4 1-3-1-2-2v-4l4-4h1l3 8 3-3-1-3-1-1-1-1v-1q3 0 4 3zm-10 5 2 1h3l-3-5q-2 0-2 2v2zm5-11h-6l-5 2-3-7 10-5-1-1 5-2 1 2-3 1 3 8 4-1 1 2-5 2zm-1-2-2-6-8 4 1 3 3-1h6zm-18-15-1-2 12-5 1 2-9 4 11 2 1 2-12 4-1-2 9-3zm7-20v2l-5 2 2 5 5-1 1 2-12 4-1-2 5-2-2-5-5 1v-2zm-3-8v4l-4 3h-4l-3-1-1-2v-5l4-2h1l3 8 2-2 1-3-1-2-2-1 1-1 3 4zm-11 3 2 2h3l-2-6-2 2-1 2zm7-20v2l-5 1 1 6 6-2v2l-12 3-1-2 6-1-2-6-5 2-1-3zm-15-9-1-2 13-3v2l-9 2 10 4 1 2-13 3v-3l9-1zm10-14v5q-2 2-5 2h-3l-3-1-1-3v-4q2-2 5-2h1l1 8q2 0 3-2l1-2-1-2-2-1 1-2q3 1 3 4zm-11 3 2 2h2l-1-6-2 1-1 3z" aria-label="Соединение" font-family="Roboto" font-size="24" style="-inkscape-font-specification:Roboto"/></g><use xlink:href="#b"/></g><use xlink:href="#a" fill-rule="evenodd" transform="matrix(.97568 .26306 -.26603 .96478 -316 -206)"/><use xlink:href="#a" fill-rule="evenodd" transform="matrix(1.01122 -.0124 .01255 .99992 -548 185)"/><use xlink:href="#a" fill-rule="evenodd" transform="matrix(.95763 -.32141 .32504 .94694 -642 597)"/><g transform="matrix(-.2193 -.9762 .98723 -.21685 177 1068)"><g style="line-height:1.25;-inkscape-font-specification:AstrostudiyaFont"><path fill="#f0f" d="m141 634 3 7 5-1 1 2-19 2v-2l12-13 1 2zm1 7-3-5-5 6zm-3-18-2-2h-2l-1-1 2-1 3 1 1 2v5q0 2-3 3l-4 1-3-1-2-2v-4q0-2 2-3l1 2-1 2v2l2 2 4-1 3-2v-3zm-7-17 1 2-10 5 3 5 10-5 1 2-12 6-4-9zm-3-8v5l-4 3-3 1-3-1-2-2v-4l3-4h1l4 8 2-2v-3l-1-2-2-1 1-1q2 0 4 3zm-10 5 1 2h3l-2-6h-1l-2 2 1 2zm0-13 1 1 5-2v2l-11 5-1-2 5-2-1-1-6-2-1-3 7 3 4-8 1 3zm-12-16 2 4 10-3 1 2-11 3 2 4-2 1-3-10zm1-5-1-4 1-3q0-2 2-2h3q2 1 2 3l2 5-12 4-1-2zm5-15v2l-12 4v-2zm-3 14 5-1-1-3-1-2h-2l-2 1v2z" aria-label="Аспекты" font-family="Roboto" font-size="24" style="-inkscape-font-specification:Roboto"/></g><use xlink:href="#b"/></g><path fill="none" stroke="#f0f" d="m373 569 363 236-309-336m115-137 194 473"/><use xlink:href="#b" transform="matrix(.72411 .69808 -.70596 .71602 401 -210)"/><path fill="none" stroke="#f0f" d="m258 292-66-133 116 85"/><g transform="matrix(.47902 .8807 -.89065 .47367 580 -274)"><path id="f" fill="none" stroke="none" stroke-linecap="butt" stroke-linejoin="miter" stroke-opacity="1" stroke-width="1" d="M216 621c-20-41-29-76-38-127"/></g><path fill="none" stroke="#00f" d="m190 80 197 125"/><g fill="red" aria-label="Куспид" font-family="Roboto" font-size="24" style="line-height:1.25;-inkscape-font-specification:AstrostudiyaFont"><path d="m206 619 1 1 7-3 1 2-16 8-1-3 7-3v-1l-10-3-1-2 10 2 5-10 1 3z" style="-inkscape-font-specification:Roboto" transform="matrix(.15128 .98875 -.99992 .14959 846 -237)"/><path d="m204 604-10 1-1-3 16-1q3 0 4 3l1 1h-2l-1-1-2-1h-2l-9 9-1-2zm-3-12-1-2h-2l-1-2h2l2 1 2 2v4l-4 4h-4l-3-1-1-2-1-4 3-3 1 2-2 2v2l2 2h4v-1q2 0 3-2v-2zm-4-18v2l-10 4 2 5 10-3 1 2-12 4-3-10zm-16-7-1-2 12-4 1 2-9 3 11 3v2l-12 3v-2l9-2zm9-9h-6l-5 1-2-8 10-3v-2l5-1 1 2-4 1 2 9 4-1v2l-5 1zm-1-2-1-6-9 2 1 4h9z" style="-inkscape-font-specification:Roboto" transform="matrix(.15128 .98875 -.99992 .14959 846 -237)"/></g><path fill="none" d="M258 97c25-16 47-29 75-40m129 835c-46-4-88-18-137-37"/><g transform="matrix(-.67343 .74603 -.75446 -.66591 1220 301)"><g style="line-height:1.25;-inkscape-font-specification:AstrostudiyaFont"><path fill="red" d="m207 613 3 6h5l1 2-19 1v-2l12-13 1 2zm1 6-2-5-6 6zm-5-19-1 1v5l-1 2-1 1h-3l-2-3v-3q0-2 2-3v2l-1 2v2l2 1h1l1-1v-7l2-1h3l2 3v5l-2 1-1-2 2-1-1-2-1-2h-1zm-2-10-2-2h-2l-1-2h3l2 1 1 2v5l-4 3h-4l-2-1q-2 0-2-2v-4q0-2 2-2l1 1-1 2v2q0 2 2 2h3l3-2 1-3z" aria-label="Asc" font-family="Roboto" font-size="24" style="-inkscape-font-specification:Roboto" transform="translate(-17 4)"/></g><use xlink:href="#c"/></g><g transform="matrix(1.007 -.09209 .09313 .99575 -165 77)"><g style="line-height:1.25;-inkscape-font-specification:AstrostudiyaFont"><path fill="red" d="m214 617 1 2-15 8-1-2zm-12-13h5l3 4v5q-1 3-5 4l-1 1-4 1-4-1-2-3-1-5 3-3 1 2-2 2v3q1 2 3 2h5l1-1 4-3v-3l-2-3h-3z" aria-label="IC" font-family="Roboto" font-size="24" style="-inkscape-font-specification:Roboto" transform="translate(-15 24)"/></g><use xlink:href="#c"/></g><path fill="none" stroke="red" d="m471 859 60 14"/><path fill="red" stroke="red" d="m95 693 53 8"/><path fill="none" stroke="#00f" d="m391 868 15-141"/><path fill="none" stroke="red" d="m298 53 53 31"/><use xlink:href="#d" fill-rule="evenodd" transform="matrix(.6835 .74478 -.73996 .67328 -84 -826)"/><use xlink:href="#e" fill-rule="evenodd" transform="matrix(.25216 -.96953 .97907 .24611 -123 1581)"/><use xlink:href="#a" fill-rule="evenodd" transform="matrix(.64982 .76562 -.77486 .64333 -85 -677)"/><use xlink:href="#e" fill-rule="evenodd" transform="matrix(-.01579 -1.0081 1.00276 -.02574 346 1201)"/><use xlink:href="#e" fill-rule="evenodd" transform="matrix(.75942 .66551 -.66587 .74813 -143 -651)"/><use xlink:href="#a" fill-rule="evenodd" transform="matrix(.19327 -.98953 .98637 .18242 337 1117)"/><path fill="#f0f" d="m876 155-8 13 15-4 1 2-13 11-1-2 5-4 6-4-15 4-1-1 7-13-5 4-5 4-2-1 14-11zm9 32-4 1-4-3q-2-2-1-5 0-3 3-5l2-1 4-2 3 1q2 0 3 2 2 2 2 5l-3 4-1-2 2-3-1-3-4-2-4 2-1 1q-3 2-3 4v3q1 2 3 2l3-1z" font-family="Roboto" font-size="24" style="line-height:1.25;-inkscape-font-specification:Roboto"/><use xlink:href="#d" fill-rule="evenodd" transform="matrix(.55194 .83625 -.8471 .54881 248 -890)"/><path fill="#00f" d="m133 94-6 5 4 4 3-3 4-2q2 0 3 2 2 1 2 3l-2 4-5 5-12-12 8-8zm-1 10 5 5 2-3 2-2-1-3-3-1-2 1zm19-6-4 2q-3 0-5-3l-2-3v-3l2-2 4-2q2 0 4 3h1l-7 6 3 2 3-1 1-2v-2h2q0 3-2 5zm-8-8-1 2 1 3 5-4v-1l-3-1-2 1zm13-13 9 9-2 2-7-9-4 3 3 4 3 4q0 2-2 3v1l-2-2h1v-2l-2-4-3-4zm17 2-1-1-1 4-4 1-2-1-1-4 3-3 1-2-2-1h-2l-1 2v2l-2 1v-4l2-2 4-1 2 1 4 5 2 2zm-3 1 1-1v-2l-2-2-1 1q-3 2-2 4l2 1 2-1zm8-20 8 10-2 2-3-4-3 2 1 5-2 2-1-6h-2l-2-2v-3l2-3zm-4 8 1 1 2-1 3-2-3-3-2 2-1 1v2zm21-24 10 14-2 1-9-13-5 4 4 6 2 4v3l-2 2v1l-1-2 1-2v-2l-2-4-5-7zm15 7-3-10 2-1 4 15q0 4-2 5h-1l-1-1 2-2v-2l-1-1-10-8 2-1zm17-6-2 1-3-5-5 3 3 5-2 1-7-11 2-1 3 5 5-3-3-5 2-1zm9-6-1-1q0 2-2 3l-3 1-3-2v-3l3-3 2-2-2-2-2 1-1 1v2l-2 1v-4l2-2 4-1 3 2 3 5 1 3zm-4 0 2-1v-2l-1-2-1 1q-4 2-3 4l2 1 1-1z" font-family="Roboto" font-size="24" style="line-height:1.25;-inkscape-font-specification:Roboto"/><text xml:space="preserve" fill="#00f" font-family="AstrostudiyaFont" font-size="24" style="line-height:1.25;-inkscape-font-specification:AstrostudiyaFont" transform="matrix(-.69611 .72148 -.71936 -.7072 1239 292)"><textPath xlink:href="#f"/></text><path fill="none" stroke="#000" d="M690 26c69 37 122 78 160 123"/><path fill="#00f" d="m703 33-2-1 4-7-7-4-4 7-2-1 8-15 2 1-3 6 7 4 4-6 2 1zm17-5 2 1-7 11-1-1 4-8-9 5-2-1 6-11 2 1-5 8zm4 15 2 1 1-1 2 1-2 1h-4q-3-2-3-4l1-5 3-3h5l3 3-1 4-1-1v-2l-1-2h-3q-2 0-3 2l-1 4 2 2zm13 1 5-3 2 2-7 3v8l-2-2v-5l-5 2-2-1 7-3v-8l2 1zm5 5 3-3h3l2 1q3 1 3 3l-1 5-3 3-3 1-3-1-2-4q-1-3 1-5zm2 1-1 4 1 2 3 1 3-3 1-3q0-2-2-3h-2q-2 0-3 2zm7 10h1l4-3 3-5 7 5-7 9 2 1-3 5-2-2 2-3-7-5-2 3-2-1 3-4zm2 2 5 3 5-8-4-2-1 3-5 4zm24 3-7 10-2-1 3-4-3-2-5 3-2-2 6-2-1-2 1-3 2-1 4 1zm-9-1v1l1 2 3 2 2-4-2-1-2-1-2 1zm14 5-7 8 4 3 7-8 1 1-6 9 3 2 7-8 2 1-7 9 2 1-4 4-1-1 2-3-12-9 7-11zm21 16 1 1-8 10-1-1 5-7-10 3-2-1 8-10 2 1-6 7zm10 9 2 1-8 10-2-1 6-7-10 3-2-2 8-9 2 1-6 7zm4-3-2 1-3-1-1-2 1-3 1 1-1 2 1 1h3zm2 21 9-5 1 1-13 8q-3 1-5-1h-1l1-2 1 1 1 1 2-1 1-1 5-12 2 2zm15 5v-1l-1-2-2-1-1 1-2-2 3-1 3 2 2 3-1 3-1 1-2-1q1 3-1 4l-3 1-3-2-2-3 1-3 2 1-1 2 1 2 2 1h2v-2l-1-2-1-1 1-2 2 2q1 2 3 0zm0 15-1-5 2-4 3-2h3l3 1 1 4-2 4-1 1-6-6-1 3 1 2 1 2h2v1q-2 1-5-1zm8-8-2-1-3 1 5 4 1-2-1-2zm14 12-9 9-2-2 8-7-3-4-3 3-5 3-3-1v-1l1-1h3l3-2 4-3z" font-family="Roboto" font-size="24" style="line-height:1.25;-inkscape-font-specification:Roboto"/><path fill="none" stroke="#00f" d="M626 227 772 88"/><path fill="#00f" d="m311 854-9 15-5-3-3-3q-1-2 1-4l1-1 3-1-2-2 1-3q1-2 3-2l4 1zm-6 6 3-5-4-2-2-1-2 2q-2 2 1 4zm-1 1-3-1-3-1-2 1v3l2 1 3 2zm-9-9-2 3-3 1-3-1-3-4 1-5 3-2 3-1 3 1q2 1 2 3 1 3-1 5zm-2-1 1-3-1-3h-3q-2 0-3 2l-1 4 2 2 3 1 2-3zm-12-13-2-1-2 1-1-1 1-1h5l3 4-2 5-2 3h-3l-3-1-2-2v-4l2 1v2l1 2h3l3-2 1-4-2-2zm-13-1-5 2-2-1 7-3v-8l2 2v5l5-2 2 1-7 3v8l-2-2zm-5-5-3 2-3 1-2-1q-3-2-3-4 0-3 2-5l2-2 3-1 3 1q2 1 2 4 1 2-1 5zm-2-2 1-3-1-3h-3l-3 2-1 4 2 2 2 1 3-3zm-6-10-2 1-4 3-3 4-6-5 6-9-1-1 3-4 2 1-2 3 7 5 2-3 2 1-4 5zm-2-1-5-4-5 8 3 2 2-3q2-3 5-3zm-24-5 7-10 2 2-3 4 3 2 5-3 2 2-6 2 1 2-1 2q-1 2-3 2l-3-1zm8 2 1-1-1-2-3-2-3 3 3 2 2 1 1-1zm-13-5 7-9-4-3-7 9-2-2 7-8-3-3-7 9-2-2 7-8-1-1 3-5 2 2-3 3 12 9-8 10zm-20-17-2-1 8-10 2 1-6 7 10-3 2 2-8 9-2-1 6-7zm-11-9-2-2 9-9 1 1-6 7 11-3 1 2-8 9-2-2 6-6zm-4 3 3-1 2 1 1 2v2l-2-1 1-1-1-1-1-1-1 1zm-1-21-9 4-2-1 14-7q3-2 5 0l1 1-1 1h-1l-1-1-2 1h-1l-6 12-2-1zm-15-6v1l1 2 2 1 1-1 2 2-3 1q-2 0-3-2l-2-3 1-3 1-1 2 1q-1-2 1-4l3-1 3 2 2 3-1 3-2-1 1-2-1-2-2-1-2 1v1l1 2 1 1-1 2-2-2q-1-2-3 0zm0-15q2 2 2 5l-3 4-3 2h-3l-2-1-2-4q0-3 3-5l6 6 2-3-1-2-2-2h-2v-1q3-1 5 1zm-8 8 2 1 3-1-5-4-1 2 1 2zm-14-13 10-8 2 2-9 7 3 3 4-3 4-2 3 1 1 1-2 1-2-1-4 3-4 3z" font-family="Roboto" font-size="24" style="line-height:1.25;-inkscape-font-specification:Roboto"/><path fill="none" d="M312 855c-68-40-119-82-156-128"/><path fill="none" stroke="#00f" d="m245 800 95-101"/><path fill="#f0f" d="m160 181-1 2-12-10-6 7 12 10-1 1-14-11 9-10zm-1-19 10 9-1 1-9-7-2 4 3 3 3 4-1 3-2-1h1v-2l-3-3-4-4zm18 0h-2q1 2-1 3-1 2-3 2l-3-1-1-3 2-4 1-2-2-1-2 1-1 2 1 1-2 2-1-2 1-2 1-2q1-2 3-2l3 1 5 4 2 1zm-4 2 1-2v-2l-2-2-1 2q-3 3-1 4l1 1 2-1zm14-13-1 1-4-3-4 4 4 3-2 2-9-9 1-1 4 4 4-5-4-3 2-2zm6-6-4 1-4-2q-2-1-2-3l-1-3 2-3 4-1 4 2 1 1-6 6 3 1 2-1 1-1v-2l2-1q1 3-2 6zm-8-8-1 2 1 3 5-5-3-1-2 1zm13-12-3 3 7 8-1 1-8-8-3 3-1-1 8-7zm6-1 2-3 4-1 2 2q2 1 1 3 0 2-2 3l-4 3-8-9 2-2zm15-2-2 2-8-10 1-2zm-14 3 3 4 2-2 1-2v-2l-2-1-2 1z" font-family="Roboto" font-size="24" style="line-height:1.25;-inkscape-font-specification:Roboto"/><use xlink:href="#a" fill-rule="evenodd" transform="matrix(.24444 .9808 -.9719 .23749 310 -715)"/><use xlink:href="#e" fill-rule="evenodd" transform="matrix(.7434 -.67152 .6828 .74359 -571 1122)"/><path fill="#00f" d="m461 902-1-17h2l1 7 2-1h2l5 1 1 4v6h-2v-6l-1-2-3-1-4 1v8zm-10-17 4 1q2 2 2 5l-1 4-2 2-3 1q-3 0-4-2l-1-5v-1l9 1-1-4-3-1-2 1-1 1-2-1q2-3 5-2zm0 11 2-1 1-3h-6l1 3 2 1zm-19-6 2-5 4-1q2 0 3 2l1-7 2 1-1 17h-2v-1l-4 1-4-2-1-5zm3 0v4l3 1 3-1v-6q-1-2-3-2l-2 1-1 3zm-15-8 2 1-1 5 6 1 1-6 2 1-2 12h-2l1-6h-6l-1 5h-2zm-12-1v1l4-1 3 2 1 3q0 2-2 2l-4 1h-2l-1 1 1 2 2 1 2-1 1-1h2l-1 2-2 1h-3l-3-1-1-3 1-6v-3zm4 2h-2l-2 2v2h1q4 1 5-1l-1-2-1-1zm-21 8 2-12h3l-1 5h3l4-4h2l-4 5 2 2v2q0 2-2 3h-3zm9-2-1-2-1-1h-4v4h5l1-1zm-33 2 4-16h2l-3 15 6 1 2-6 1-5 2-3h4v2h-3l-1 2-1 4-2 8zm-5-15-5 9-2-1 8-13q2-3 5-2h1l-1 2h-2l-1 1-1 1 2 13h-3zm-16-7 2 1-1 5 5 1 2-5h2l-3 13-2-1 1-5-6-1-1 5h-2zm-11-2v1l3-1 3 2 1 3-2 3h-5l-2-1v3l2 1h2l1-1h2l-1 2-2 1h-3l-3-2v-3l1-6v-3zm3 2h-2l-2 1-1 3h2q4 1 5-1l-1-2-1-1z" font-family="Roboto" font-size="24" style="line-height:1.25;-inkscape-font-specification:Roboto"/><path fill="#f0f" d="m43 403-1 1-1 1v2l1 1v3l-2-2-1-4q0-2 2-3l3-1 1 1 1 2q1-2 3-2t3 2v4q0 2-2 3l-3 1 1-2 1-1 1-2v-2l-1-1h-2l-1 2v2h-2l1-2q0-2-2-3zm12-13v2l-6-1-1 5 6 1-1 3-12-3v-2l6 1 1-6-6-1 1-2zm2-12h-1l1 4-2 3-3 1-2-2-1-5 1-2h-3l-1 2v2l1 1v2l-2-1-1-2v-3l2-3h3l6 1h3zm-2 4v-2l-1-2-3-1v2q-1 4 1 4h2l1-1zm-1-14v2l5 1v2l-13-3 1-2 5 1v-1l-4-6 1-2 4 6 8-4-1 3zm4-18 6 2-1 3-16-6 2-6 3-4h4l3 3v4zm-2 0 1-4v-3l-2-2h-3l-1 3-2 4zm5-15 1-3 2-3h4l2 2v4l-2 5-12-4 1-2zm12-9-1 2-12-4 1-2zm-10 10 4 1 1-3v-2l-1-1h-2l-1 2zm2-23 3-3h5l3 2 1 3v3l-3 3h-6l-6-4-1-6 1-2-1-1v-1l2 1v4l1 3q0 2 2 3l-1-5zm2 1v3l2 2h4l2-2v-2l-3-3h-3l-2 2zm6-9 1-3 2-3h4l2 3v3l-2 5-12-5 1-2zm12-8v2l-12-5 1-2zm-11 9 5 2 1-3v-2l-1-2h-2l-1 2z" font-family="Roboto" font-size="24" style="line-height:1.25;-inkscape-font-specification:Roboto"/><path fill="none" stroke="#f0f" d="M118 268c-32 58-47 120-50 181"/><use xlink:href="#a" fill-rule="evenodd" transform="matrix(.32552 -.95033 -.94881 -.33672 86 1275)"/><use xlink:href="#a" fill-rule="evenodd" transform="matrix(.74464 -.67424 -.6675 -.7537 -449 1320)"/><use xlink:href="#d" fill-rule="evenodd" transform="matrix(.9723 .2719 -.2775 .9625 -699 157)"/><path fill="red" d="m570 874 3 17-5 1-4-1q-2 0-3-2l-2-4v-5l2-3 4-2zm1 15-3-13-2 1q-3 0-4 2l-1 5 1 1q0 3 2 4l4 1zm-23-8 1 2h5l1 1 1 2-1 3-3 1h-4l-1-3h2l1 1 2 1 1-1 1-2-1-1h-2l-3-1-2-1v-1q-1-2 1-3l3-2h3l2 2 1 2h-2l-2-2h-2l-2 1v1zm-11 0-2 1v2h-3l1-2 2-2 2-1 4 1q2 2 2 5h1l-1 3-1 3-3 1-4-1q-2-1-2-3h2l1 2h2l3-1v-4l-1-3-3-1z" font-family="Roboto" font-size="24" style="line-height:1.25;-inkscape-font-specification:Roboto"/><use xlink:href="#d" fill-rule="evenodd" transform="matrix(.81391 -.5912 .59993 .80674 -488 1188)"/></g></svg>