<?xml version="1.0" encoding="UTF-8" standalone="no"?>
<!-- <svg xmlns="http://www.w3.org/2000/svg" xmlns:xlink="http://www.w3.org/1999/xlink" viewBox="0 0 1080 1080" class="natal"> -->

<svg
   viewBox="-60 -55 980 940"
   class="natal"
   version="1.1"
   id="svg413"
   sodipodi:docname="trine-1-i.svg"
   width="980"
   height="940"
   inkscape:version="1.1.1 (26b7af14f2, 2022-01-19)"
   xmlns:inkscape="http://www.inkscape.org/namespaces/inkscape"
   xmlns:sodipodi="http://sodipodi.sourceforge.net/DTD/sodipodi-0.dtd"
   xmlns="http://www.w3.org/2000/svg"
   xmlns:svg="http://www.w3.org/2000/svg">
  <sodipodi:namedview
     id="namedview415"
     pagecolor="#ffffff"
     bordercolor="#666666"
     borderopacity="1.0"
     inkscape:pageshadow="2"
     inkscape:pageopacity="0.0"
     inkscape:pagecheckerboard="0"
     showgrid="false"
     width="980px"
     inkscape:zoom="0.90509668"
     inkscape:cx="313.22621"
     inkscape:cy="238.09611"
     inkscape:window-width="1288"
     inkscape:window-height="704"
     inkscape:window-x="72"
     inkscape:window-y="27"
     inkscape:window-maximized="1"
     inkscape:current-layer="g5518"
     height="940px" />
  <style
     id="style2">
          @font-face {
  font-family: 'astrostyle';
  src:url('../fonts/astrostyle.eot');
  src:url('../fonts/astrostyle.eot?#iefix') format('embedded-opentype'),
    url('../fonts/astrostyle.svg#astrostyle') format('svg'),
    url('../fonts/astrostyle.woff') format('woff'),
    url('../fonts/astrostyle.ttf') format('truetype');
  font-weight: normal;
  font-style: normal;
  }

/** Natal Card **/
        #circle circle {
            fill: none;
            stroke: #575757;
            stroke-width: 1px;
            }
        #line path {
            fill: none;
            stroke: #575757;
            stroke-width: 1px;
            }
        ellipse {
          fill: none;
            stroke:#fe0c00;
            stroke-width: 1px;
      }
        #znaki-big, #znaki, #sun, #znak, #housenumber {
            letter-spacing: 0;
            word-spacing: 0;
            line-height: 125%;
            font-family: astrostyle;
            }
        #znaki-big {
            font-size: 64px;
            fill: #4d4d4d;
            }
        #znaki {
            font-size: 40px;
            fill: #4d4d4d;
            }
        #znak text {
            font-size: 18px;
            fill: green;
            }
        #housenumber text {
            font-size: 14px;
            fill: green;
            }
        #sun {
            font-size: 100px;
            fill: green;
            }
        #dot circle {
            fill: #00e200;
            }
        #dot-4 circle {
            fill: #f80000;
            }
        #house path {
            stroke: lime;
            }
        </style>
  <!-- Дома -->
  <!-- /Дома -->
  <!-- Планеты -->
  <!-- /Планеты -->
  <!-- Аспекты между планетами -->
  <defs
     id="defs355">
    <ellipse
       id="ellipse20"
       cx="357.93793"
       cy="102.64423"
       rx="30.587343"
       ry="15.314463" />
  </defs>
  <!-- Соединение -->
  <!-- Соединение -->
  <!-- Оппозиция -->
  <!-- Трин -->
  <!-- Квадрат -->
  <!-- Квадрат -->
  <!-- Квадрат -->
  <!-- Секстиль -->
  <!-- Секстиль -->
  <!-- Секстиль -->
  <!-- Секстиль -->
  <!-- Секстиль -->
  <!-- Секстиль -->
  <!-- Полуквадрат -->
  <!-- Полуквадрат -->
  <!-- Полуквадрат -->
  <!-- Полусикстиль -->
  <!-- Полусикстиль -->
  <!-- Полусикстиль -->
  <!-- Квиканс -->
  <!-- Квиканс -->
  <!-- Квинтиль -->
  <!-- Квинтиль -->
  <!-- Квинтиль -->
  <!-- Квинтиль -->
  <!-- Септель -->
  <!-- Наногон -->
  <!-- Наногон -->
  <!-- /Аспекты между планетами -->
  <g
     id="g3664"
     transform="translate(-53.099748,-57.046571)">
    <g
       id="g5518">
      <g
         fill="none"
         stroke="#666666"
         id="g78"
         transform="matrix(0.75118976,0,0,0.74281081,-108.47488,-126.07832)">
        <g
           stroke-width="0.7"
           font-family="Astrostyle"
           letter-spacing="0"
           word-spacing="0"
           id="g54">
          <g
             font-size="40px"
             id="g26">
            <path
               d="m 435,545 4,-4 8,-5 q -3,5 -7,8 z m 2,-21 q 2,-3 4,-3 l 6,-2 -6,5 z m 10,-2 v -3 l 2,2 1,4 z m 0,16 3,2 1,4 h 1 q 2,-4 4,-4 l 7,-4 -7,7 -4,2 -1,-1 -4,-3 z m 3,-13 6,-4 12,-4 -5,3 2,1 v 4 l 5,-4 6,-3 h 3 l -2,1 2,2 1,5 -4,-5 v -1 l -6,4 -5,1 1,1 h -2 l 1,-1 -3,-3 v -1 l -7,3 z m 12,13 q 4,1 4,3 v 1 h 1 l 2,-1 8,-4 -1,1 3,3 2,5 -5,-5 v -3 l -8,6 -1,1 v 1 l -1,-1 h -3 l 2,-2 -2,-2 z"
               aria-label="x"
               id="path2" />
            <path
               d="m 861,354 -17,1 q 1,2 13,2 l -4,4 -13,13 -4,-3 -9,-3 5,3 6,4 -3,3 q -7,7 -10,13 l 9,-8 7,-6 3,2 7,7 -1,-2 q 0,-2 -7,-9 l 15,-17 5,11 z m 13,26 q -54,13 0,0 z"
               aria-label="l"
               id="path4" />
            <path
               d="m 1061,486 h -1 l -4,3 -1,1 2,-3 v -1 l -3,-1 -2,-1 -2,-3 -2,-3 -1,-4 1,-11 2,-11 v -6 q 0,-2 -3,-2 -2,0 -6,5 l -1,1 v 8 l -1,13 -1,6 v -6 l 1,-17 q -1,-10 -3,-10 -2,0 -5,5 l -2,3 1,5 v 11 l -1,5 -1,5 v 5 -27 l -1,-7 -3,-6 2,1 v 1 l 1,2 1,1 1,2 v 1 l 1,-2 1,-2 1,-2 2,-2 1,-1 2,-1 1,1 1,3 1,4 q 1,-4 4,-6 3,-2 5,-1 2,1 3,5 v 4 l -1,2 v 3 l -1,4 -1,6 v 8 l 2,6 2,3 q 2,2 4,1 v -1 l -1,-2 -1,-1 z"
               aria-label="k"
               id="path6" />
            <path
               d="m 1155,636 5,-2 5,-1 h 15 l 5,1 h 4 l 4,1 h -31 z m 0,-13 4,-1 h 5 l 4,1 q -7,-8 -6,-14 1,-3 5,-4 5,-2 10,-1 l 9,3 q 3,4 2,8 -2,4 -8,8 l 5,1 h 11 -18 q 8,-6 8,-11 0,-3 -4,-6 -3,-2 -8,-2 -4,-1 -7,1 -4,3 -2,8 l 5,10 -8,-1 z"
               aria-label="j"
               id="path8" />
            <path
               d="m 1185,828 1,1 1,1 1,2 1,1 1,2 v 1 l 1,-2 1,-2 1,-2 2,-2 1,-1 2,-1 1,1 1,3 1,4 q 1,-4 4,-6 3,-2 5,-1 2,1 3,5 l -1,9 q 4,-5 6,-2 v 10 q -1,8 -4,14 l -3,5 4,8 -2,-3 -2,-3 -1,-2 v 1 h -1 l -1,1 -1,1 -2,1 -3,1 2,-1 2,-2 2,-1 2,-1 v -1 l -2,-8 1,-11 2,-11 v -6 q -1,-2 -3,-2 -2,0 -6,5 l -1,1 v 8 l -1,13 -1,6 v -6 l 1,-17 q -1,-10 -3,-10 -2,0 -5,5 l -2,3 1,5 v 11 l -1,5 -1,5 v 5 -27 l -1,-7 z m 26,39 q 2,-1 4,-8 l 2,-13 q 1,-7 -1,-7 l -3,2 -2,4 -1,4 v 14 l 1,2 z"
               aria-label="h"
               id="path10" />
            <path
               d="m 1120,1041 q -4,-9 -2,-15 2,-4 6,-6 3,-2 8,-1 4,1 6,4 3,5 1,12 l -2,5 -4,5 -2,6 -2,5 -1,5 1,4 2,3 4,2 6,1 -6,-1 -4,-1 -2,-4 -1,-4 v -4 l 1,-5 1,-4 2,-4 2,-4 q 5,-8 3,-13 -1,-4 -5,-5 -3,-2 -7,-1 -4,1 -6,4 -3,5 0,12 0,3 2,5 l -1,-1 -1,-1 -2,-1 h -1 l -2,-1 h -4 l -2,1 -2,2 -1,1 -2,2 v 8 l 2,2 3,2 h 7 l 3,-2 1,-1 v -2 l 1,-2 -1,-2 -1,-2 -1,-3 -1,-2 q 5,8 4,13 -1,3 -4,4 -3,1 -7,-1 -4,-1 -7,-4 l -1,-3 1,-2 v -3 l 2,-3 2,-3 3,-1 h 3 l 4,1 z"
               aria-label="g"
               id="path12" />
            <path
               d="m 944,1150 18,1 4,1 v 1 l -1,-1 h -4 l -4,-1 h -18 l -4,1 q 6,2 7,7 l -2,6 -6,5 q -4,2 -7,0 -4,-2 -5,-7 v -4 l 2,-3 2,-3 4,-1 4,-2 z m -11,2 -4,1 -4,3 -2,3 v 4 q 2,5 6,6 3,1 6,-2 3,-2 4,-5 2,-3 0,-6 -1,-3 -5,-4 z m 28,9 q 3,0 5,2 l 3,6 q 1,9 -9,12 -9,2 -22,1 l -12,-2 -1,-1 1,1 h 3 l 5,1 h 18 l 4,-1 -4,-3 -2,-2 -1,-4 1,-3 2,-2 3,-3 3,-1 z m 0,2 h -3 l -3,2 -2,2 -1,3 -1,3 v 3 l 2,2 4,1 h 3 l 2,-1 2,-1 2,-2 1,-2 1,-2 v -2 l -3,-5 z"
               aria-label="f"
               id="path14" />
            <path
               d="m 722,1212 h -9 l 12,-3 q 12,-1 17,1 l 12,4 -16,-2 z m -8,-39 q 3,4 10,4 18,2 30,-1 l -6,2 -8,1 -8,1 h -6 l 2,8 -1,9 v 11 l -2,-16 v -12 l -7,-3 q -4,-2 -4,-4 z m 28,7 v 28 l -1,-4 -1,-3 v -6 l -1,-3 v -3 l 1,-2 v -3 l 1,-2 z"
               aria-label="d"
               id="path16" />
            <path
               d="m 522,1096 v -1 h 1 q 3,1 9,10 5,5 11,5 l 4,-1 -7,-1 h 1 l 7,1 6,-4 7,-7 q 4,-3 7,-3 -3,0 -8,4 l -7,9 -3,2 6,5 q 3,5 3,9 l -2,7 q -4,4 -12,4 -8,0 -14,-5 -3,-3 -3,-8 0,-3 3,-7 l 4,-4 h 1 l -7,-8 -4,-6 z m 8,26 q 0,6 5,8 5,3 11,3 7,0 11,-5 l 1,-4 q 0,-5 -5,-11 l -4,-3 -7,2 h -1 l -4,-1 q -4,1 -6,5 z m 8,-14 h 1 z"
               aria-label="s"
               id="path18" />
            <path
               d="m 424,946 q 4,-3 5,-7 1,-2 -1,-3 h -3 q -3,1 -6,6 -4,7 -6,19 l -1,6 -2,6 v -13 l -2,-12 -3,-8 q -2,-3 -5,-4 h -5 l -1,1 -2,2 v 4 l 1,1 1,2 h 1 v 1 l -1,-1 -3,-4 q -1,-4 2,-6 l 2,-2 h 6 l 2,1 3,3 2,4 1,4 1,4 1,4 v 3 l 1,3 -1,1 2,-8 q 2,-10 5,-15 4,-5 7,-5 3,0 4,2 2,2 1,5 0,3 -3,5 z"
               aria-label="a"
               id="path20" />
            <path
               d="m 368,735 7,-2 v -5 l -1,-1 v -2 l -1,-1 v -1 l -1,-2 v -1 l -1,-1 q 7,7 7,13 l 3,1 h 7 l 1,-2 v -1 l 1,-2 v -2 l 1,-2 1,-2 1,-1 1,-2 1,-1 h 2 l -2,2 -2,4 -1,3 -1,3 v 4 h 11 l -2,1 h -10 q -1,6 2,13 2,6 6,10 l -4,-4 -3,-7 q -2,-3 -2,-7 l -1,-5 h -10 v 5 l -1,5 -2,6 -1,4 -3,3 q 3,-5 4,-12 l 1,-11 h -7 z"
               aria-label="c"
               id="path22" />
            <path
               d="m 611,388 h 1 q 3,0 6,4 l 1,4 1,6 1,8 -3,-12 -2,-5 q 0,-2 -3,-4 z m 10,19 2,-10 q 4,-11 8,-11 h 1 q 3,0 5,7 l 1,6 -1,5 v 2 l 1,4 q 3,-6 9,-6 4,0 6,6 l 1,1 v 1 q 0,5 -5,6 h -2 q -5,0 -9,-3 l -1,-2 q -3,8 -6,11 h -1 q 4,-4 7,-11 l -2,-8 v -9 q 0,-5 -2,-7 l -2,-1 q -2,0 -6,8 -3,4 -4,11 z m 3,19 h 2 l 4,-2 q -2,3 -4,3 z m 14,-15 4,4 5,2 q 4,0 5,-4 v -2 l -2,-5 -4,-1 q -4,0 -8,6 z"
               aria-label="v"
               id="path24" />
          </g>
          <g
             font-size="64px"
             id="g52">
            <path
               d="m 540,459 -2,18 -2,17 2,-16 2,-15 1,-7 1,-3 v -5 l -1,6 -1,6 v -2 l -1,-1 -1,-1 -2,5 -1,5 -1,3 -1,2 q 3,1 4,5 h -3 l -1,1 h -1 v 4 q -3,2 -2,3 l -1,2 -1,-1 -1,-2 v -1 h -1 v -1 h -1 v -3 h -1 v -1 l -8,-1 -1,3 v 7 l -2,5 v 1 h -1 v -3 h -1 l -1,1 -1,1 h -1 v 1 h -3 l -1,-1 h 2 l 1,-2 -8,1 v 2 -2 h -2 l -1,-1 h -1 l -2,1 h -1 l -1,1 h -2 v 1 h 10 -10 l -1,-1 h 2 l 2,-1 2,-1 1,-1 1,-1 v -2 h 1 l 1,-1 3,-6 1,-2 -1,-3 v -2 l 1,-2 3,-1 1,-1 h -3 l -3,1 h -1 l -1,1 h -1 l -1,1 -1,1 -3,4 -2,4 -2,2 -2,3 1,-1 v -1 l 1,-1 v -1 l 1,-1 v -1 l 5,-5 q 1,-3 4,-5 l 1,-1 q -1,0 0,0 l -4,2 h -1 l 3,-2 2,-1 v -1 l -3,1 -2,1 2,-1 2,-1 v -3 q 0,-1 0,0 h 1 l 1,2 v 3 h 7 l 3,-1 h 3 l 2,-1 h 2 l 2,-1 2,-1 1,-2 -1,-2 -2,-1 -3,1 -3,2 h -8 l -2,2 -1,1 v -2 h -1 v 3 -1 l -1,-1 v -1 l 3,-2 4,-2 3,-1 3,-1 h 2 l 2,-2 3,-1 2,-2 2,-2 2,-1 h 3 -3 v -3 h -1 v -4 l -1,-1 1,-1 h 1 l 3,-1 h 2 l 2,2 v 2 l 1,1 -1,1 -1,1 h 1 l 4,3 h 1 l 1,1 1,1 1,2 v 1 -2 l 1,-1 v -6 l 1,-2 v -4 l 1,-1 v 6 l -1,1 2,2 v 3 l 1,2 v 7 l -2,2 -3,-1 -5,35 h -1 l 3,-18 z m -34,32 1,1 1,-1 h 1 v -1 h 1 v -1 l 2,-1 h -2 l -1,1 h -1 l -1,1 -1,1 h -1 v 1 h 1 z m 8,-10 1,-3 -2,2 1,-2 1,-2 h 9 -1 1 v -1 h -7 l -1,1 h -1 l -1,1 -1,1 v 1 l -1,2 -2,5 4,-1 v 2 -2 l -1,1 v 6 l 2,-6 z m -11,9 2,-1 h 2 l 1,-1 h 2 l 1,-1 -1,-1 v -1 l 1,-1 v -2 l 1,-3 -1,1 q -4,5 -8,7 h -3 2 l 1,-1 q 5,-2 8,-7 l 1,-1 1,-1 -2,1 -1,2 5,-5 -2,1 h -2 1 l -2,-1 h -1 10 l 2,-1 h -2 1 l -2,-1 h -2 1 l -1,-1 v -1 q 1,2 3,2 l 2,1 2,1 -2,-2 -2,-1 2,1 3,1 v -1 l -1,-1 2,1 -1,3 v 2 h 2 l 1,1 v -3 l -1,-4 v -2 h -1 l -1,-1 2,1 1,4 1,4 v -2 l -1,-2 v 3 l 1,1 v 7 h 1 v -14 h -1 v -1 h -1 l 1,1 v 2 -2 h -1 v -1 h -1 v -1 h -2 l -1,-1 h -8 v -1 l 3,1 h 5 l -1,-1 -2,-1 1,1 3,1 h 1 l 1,1 h 1 l 1,1 h 1 l -1,-1 -1,-1 h 1 v 1 l 1,2 v -1 9 l 1,-1 3,-1 1,-2 -1,-1 -1,-2 -2,-3 -3,-2 -3,-1 h -3 l -1,-1 3,1 v -1 1 l 6,2 1,1 1,1 1,1 1,-2 h -1 l 2,-1 v -4 l 3,-5 1,-3 -1,-1 v -1 l -1,1 1,-2 -1,1 2,1 1,2 1,1 1,-1 v -4 h -1 1 l -1,-1 v -2 l -1,-1 -1,-1 h -3 l -1,-1 -1,-1 -1,-1 h -1 1 v -1 h -1 v -1 h 1 v 1 h 1 v 1 -2 l -2,-1 -2,-2 -3,-1 1,-1 h 1 l -1,1 h 3 -2 1 v 1 h 1 v -1 1 l 1,1 v -1 1 l 1,-1 v 1 h -1 l 1,1 v -1 1 h 1 v -1 l -2,-2 -2,-1 -3,1 1,1 3,1 1,1 h 1 -2 1 v 2 -1 2 l -1,-1 v 1 h -1 v -1 h 1 v -1 h 1 l -1,-1 v 1 q -1,0 0,0 0,1 0,0 l -1,-1 h -1 v -1 l 2,1 -2,-2 v 1 h -1 v 1 -1 l -1,-1 h -1 q -1,0 0,0 v 1 h 1 v 1 h -1 1 l 1,1 -1,1 v -1 2 l 1,1 h -1 v 2 h 1 v -1 h 1 v 1 l 1,-1 v -1 l 1,1 -1,1 v 1 -1 l -2,1 h -1 l -2,1 -1,1 -2,1 q 1,0 0,0 l -4,2 -2,2 -6,2 -4,1 -3,2 -1,1 v 1 -1 h 2 l -1,1 2,-1 1,-1 h 3 l 4,-1 h -2 q 3,1 5,-1 h 1 l 1,-1 h 1 l 1,-1 h 2 l 3,-2 v -1 l 1,-2 -1,3 v 4 l 1,1 v 1 l -1,1 v 1 l -1,1 -1,1 h -1 1 v -1 l -1,1 v -1 h 1 v -1 l -2,1 -1,1 -1,1 -1,1 v -1 l 2,-1 h -2 l -1,1 1,-1 h 2 v -1 l -2,1 h -1 l -1,1 h -2 l -1,1 h -1 1 v -1 l -2,1 h -3 l -2,1 -3,1 -1,3 v 2 l 1,1 v 2 l 1,-3 v -2 2 l 1,-2 2,-2 3,-1 3,-1 -2,1 -2,1 h -2 l -1,1 -1,1 v 2 l -1,1 -2,5 -2,3 v 1 l -1,1 v -1 l -1,2 v 1 h -1 l -1,1 v 1 h 2 l 1,1 z m 3,-4 q 1,1 -2,2 l -3,1 3,-1 z m -9,0 1,2 z m 14,-5 q 0,2 -2,3 l -2,3 2,-3 z m -6,-5 v 7 z m 4,4 -2,1 z m -1,-3 v -1 h -1 v -2 l 2,4 v 1 -1 h -1 z m 17,-1 v -5 l -1,-1 2,3 v 3 z m -14,-3 6,1 q 1,0 0,0 h -4 v -1 z m 9,-4 2,1 h 1 l 1,1 -1,-1 h -2 z m -7,0 2,1 h -1 z m 1,0 h 3 z m 5,-2 v 1 l -1,-1 z m 9,-1 q 1,1 2,-1 v 1 h -1 l -1,1 z m -1,-4 v -2 q 1,0 0,0 l 1,2 z m 1,-6 v 3 -1 h -1 v 1 h -1 l 2,-1 z m -13,1 v 1 h -1 z m 15,-1 h 5 l -5,1 z m -4,0 h 2 -3 z m -1,-1 z m 3,-1 1,-3 v 3 z m 2,-5 v -2 3 l 1,-1 h 2 -1 l -2,1 z m 0,0 z m -2,0 h 1 v 1 z m 0,-3 v 1 z m 1,-1 1,1 h -1 z m 0,0 z m -2,-1 v 1 z m 6,-1 v 1 z m -1,0 q 0,-1 0,0 z m -4,-1 z m 0,-1 v 1 z m -2,0 z m 5,-1 v -1 z m -3,-1 q -1,0 0,0 z m -16,47 v 2 h 1 z m 0,1 h -1 l 1,1 z m 0,-1 h -2 1 v 1 h 1 z m 17,-3 1,-2 1,-1 v -2 l -1,1 1,2 v -1 l -2,-1 v 5 q 1,0 0,0 z m -1,-4 -1,1 h -1 l -1,1 h 1 l 1,1 h 1 z m -1,0 -1,-1 v 1 l -1,2 1,-1 z m 3,0 z m 3,-7 v -1 h -1 v 1 l 1,2 1,2 h 2 q 1,-2 -1,-3 z m -33,-4 v -4 l -1,-1 v -1 h -1 1 v 2 l 1,1 z m 0,-2 h -1 v 1 z m -1,0 v -2 z m 0,-3 -1,1 h 1 z m 25,-1 v -7 l -4,2 v 1 h 1 l 1,1 v 4 h 1 z m 20,-2 1,-3 1,-3 -2,-9 -1,-1 h -1 l 1,1 h -1 v 1 h 1 -1 v 1 h 1 -1 v 1 h 1 l 1,1 -1,2 v 4 l -1,2 v 1 -3 1 l -1,2 1,2 z m -1,-12 -1,5 1,2 z m -15,-1 -1,1 h 1 z m 15,-3 v -2 l 1,-2 v -3 l -1,3 z m -17,-1 q 0,-1 0,0 z m 1,-2 v -1 h -1 z m -42,45 1,-1 z m -3,-3 -1,1 v 1 z m 2,0 1,-2 z m -2,-1 2,-2 2,-3 -3,4 v 1 z m 8,-7 -1,2 -3,4 z m -3,0 -3,3 -2,3 1,-2 2,-3 z m -5,2 -1,1 -1,1 z m 3,-2 -1,1 -1,2 z m 3,1 1,-1 1,-1 h 1 l -2,1 z m 3,-2 2,-2 2,-2 h 1 v -1 l -2,1 3,-2 v 1 h -1 1 l -2,1 -2,3 z m -2,0 1,-1 z m 2,-5 -1,1 v -1 z m 5,-2 1,-1 z m 6,-3 1,1 h -1 z"
               aria-label="S"
               id="path28" />
            <path
               d="m 716,407 v -2 1 l -1,1 v -1 l 1,-2 2,-2 v -1 l -1,-4 -1,-2 -1,-2 -1,-1 v 1 l -1,1 -1,-1 1,1 1,1 h -1 l -1,-3 h -1 v 1 -4 l 1,1 v 1 -3 2 -1 l -1,-2 -1,-3 1,2 1,2 q 1,0 0,0 v -2 l -1,-1 1,2 1,2 v 5 -1 l 1,-1 v -1 l -1,-2 v -1 1 -3 1 -2 3 l 1,2 v -3 l -1,-3 -1,-1 1,1 h 1 l 2,2 2,2 v 3 l 1,-1 -1,-2 v -1 1 h 1 l -1,-1 -1,-1 1,1 h 1 v 1 -2 h -1 v -1 h -1 l -1,-1 -1,-1 1,1 1,1 -1,-1 v -1 h -1 1 l 2,1 v 1 h 1 l 1,1 v -1 h -1 2 v 1 h 1 v -1 h -1 l -2,-1 -1,-1 v 1 h 1 l 1,1 -1,-1 -2,-1 v -1 l 1,1 -1,-1 -1,-1 v 1 l -1,-1 -1,-2 2,2 h 1 -1 l 2,1 v 1 -1 l -1,-2 -2,-1 h 1 l 1,1 v -1 h -1 1 l 1,1 v 2 -1 q 1,0 0,0 v -2 1 -2 q 1,-3 -1,-5 v -1 l 1,1 v 2 l 1,1 v -2 9 l 1,1 h 1 -1 v -1 1 -3 3 h 1 l 1,2 -1,-2 -1,-2 v -7 2 l 1,1 v 2 l 1,2 h 1 v -1 l 1,-1 v -2 l 1,-1 v -3 l -1,-1 h 1 v 1 -2 l 1,1 v 1 h 1 v 1 -1 l -1,-1 1,1 v -1 l -1,-2 v 1 h 1 q 0,1 0,0 v -1 2 l 1,3 v -3 5 -5 l 1,-1 v 1 l 1,2 v -1 l 1,1 v 1 h 1 l -1,-1 v -1 h -1 v -3 q 0,-1 0,0 l 2,4 v 5 -2 l 1,-1 v 1 l 1,2 v 1 l -1,-1 1,2 h 1 v 3 -2 2 -2 h -1 v -1 l -1,-1 v 4 l 1,3 v 2 l -2,7 -2,3 -2,2 q 0,1 0,0 l 1,-1 v 1 h -1 3 v -1 l 1,-1 h 1 v -1 l 3,-8 v -2 l 2,-4 -1,-3 -1,-1 -1,-1 -1,-2 v -1 1 l 2,3 h 1 v 1 l 1,2 v 3 l -1,2 -1,3 -2,6 -1,2 -1,1 v -1 2 h -1 l -2,1 h -1 v -2 l 1,-1 1,-1 2,-2 1,-5 v -8 l -1,-1 v 1 l -1,1 v -1 l -1,1 v 1 -1 l 1,-2 -1,1 1,-1 v 1 l 2,-2 v -2 l -1,1 v 1 q 0,1 0,0 v -2 1 l -1,1 1,-1 -1,1 -1,1 -1,1 1,-1 1,-1 h -2 v 1 h -1 v 1 l -1,-1 h -1 v 1 l 1,1 h -1 v -1 h -1 v -1 h -1 v 1 l 1,1 h -1 l -1,-1 v 1 q 0,1 0,0 l -1,-1 v 1 h 1 v 1 l -1,1 v -1 h -1 v 1 q 0,1 0,0 v 1 h -1 v -1 h -1 v -1 h -1 1 v 2 q 0,1 0,0 v 3 l -1,1 h 1 v 2 l 1,4 v 3 l 1,1 v 1 l -1,1 h -1 v 2 h -1 z m 3,-1 v -3 1 l 1,-1 v -2 2 l -1,-2 -1,-4 v -1 l 1,2 v 2 l 1,1 -1,-2 v -4 l -1,-4 -2,-2 h -1 v 3 l 1,3 1,3 1,4 -1,1 -1,2 v 1 z m -2,-11 v -3 1 l 1,1 v -1 l -1,-1 v -1 l -1,-1 1,1 1,2 v 2 -1 h -1 v 2 z m 0,0 q -1,0 0,0 0,-1 0,0 z m -5,-2 1,-2 h -1 l 1,1 v -3 1 l -1,1 v 3 z m 24,-3 q 1,0 0,0 z m -21,1 v -4 1 h 1 l 1,2 h 1 l -1,-1 -2,-2 -1,-2 v 1 h 1 v 1 l -1,1 v 4 z m -3,0 v -1 z m 5,-2 v -1 l -1,-1 -1,-1 1,1 v 1 l 2,1 z m -1,0 v -1 1 h 1 z m -1,0 z m 6,-2 -1,-1 h -1 z m 0,0 v -1 h -1 1 z m 9,-2 q 0,-1 0,0 z m -7,-1 v -1 h -1 l -1,-2 v -2 h -1 l 1,1 v 2 l 1,1 v 1 -1 1 h 1 v 1 z m 5,-1 z m -5,0 v -1 1 l 1,1 z m 5,0 -1,-1 v 1 z m -3,0 z m 1,0 v -2 l 1,-1 -1,-1 v -1 l -1,-1 v 3 l -1,1 1,1 v -3 3 -1 2 -1 h 1 z m 0,-1 v -1 h -1 v -3 l 1,1 z m 0,-2 v -1 z m 2,3 z m -6,1 -1,-1 v -2 l -1,-1 v 1 l 1,2 v 1 z m 3,-1 v -1 z m 3,-2 h 1 v 1 h 2 v -2 1 h 1 q 0,-1 0,0 v -2 l -1,1 v 1 h -2 1 l -1,-3 v -1 2 h 1 l -1,-3 h 1 l -1,-1 h 1 l -1,-1 v 1 l -1,2 1,2 v 2 -1 l -1,1 v 1 z m 1,-3 z m -5,3 v 2 z m 3,0 v 1 h 1 v -1 1 -4 l -1,1 v -1 q 1,0 0,0 v 2 -1 l -2,-4 v 1 l 1,2 v -1 l -1,-1 1,2 1,1 v 3 z m 1,-1 z m 0,-1 v 1 z m 5,1 v -1 z m -3,0 v -1 1 q 0,1 0,0 z m 2,0 q 1,0 0,0 z m -2,0 z m 1,-1 h 1 v -2 l -1,-1 v 4 z m -1,0 v 1 z m 1,0 -1,-2 v 1 z m 0,0 v -2 z m -13,1 h -1 z m -1,0 z m 10,-3 v -1 1 h 1 -1 l 1,-1 q 0,1 0,0 h -1 l -1,-2 -1,-1 q 0,-1 0,0 v 2 l 1,1 v -1 1 q 0,1 0,0 l 1,1 v 1 z m 3,-1 v -1 2 z m 1,1 v -1 h -1 z m -11,1 q 1,0 0,0 v -1 z m 10,-3 z m 1,-1 z m -2,0 v -1 z m 17,27 1,-1 1,-2 1,-1 v -5 l -1,-4 -2,-2 v -1 h -1 v -1 l -1,-1 h 1 v 1 l 1,1 2,3 1,4 1,3 -1,1 v 1 l -1,1 v 1 l -1,1 v 1 h 1 l 2,-1 h 1 l -1,-1 v -3 h 1 v 2 l 1,-1 v -1 l -1,-2 -1,-6 -1,-6 -1,-1 -2,-2 v -1 l -1,-1 v -3 1 h -1 v -2 1 h -1 l 1,-1 v -3 1 -2 q -1,0 0,0 v -6 l -1,-2 v -1 h -2 v -1 l 1,1 h 1 l 1,1 v -1 2 h 1 l -1,-2 -1,-1 -3,-2 h -1 l 1,1 v 1 l -1,-1 -1,-1 h -2 l -2,1 h -4 l -2,1 h -1 l -1,1 -2,1 h -1 v 1 h -2 l -1,1 v 1 h -2 l -1,1 h -4 l -5,1 h -2 l -2,1 v 1 h -2 l -2,1 h -1 l -1,1 -1,1 -2,1 h -1 l -1,2 h -1 v 1 h -1 v 1 -1 2 h -1 v 2 -1 h -1 l 1,1 v 1 -1 1 h -1 1 v 1 l -2,-2 v -1 h 1 v -1 1 -2 h 1 v -1 h 1 v -1 l 2,-1 v -1 1 l 1,-1 2,-2 h 1 l 3,-1 1,-1 h 2 l 1,-1 1,-1 h 2 l 3,-1 h 4 l 4,-1 2,-1 v -1 h 1 v 1 -1 l 3,-1 2,-1 2,-1 3,-1 h 1 l 2,-1 h 2 l 1,-1 1,1 h 1 v -1 l 1,1 3,2 2,1 v 2 l -1,2 v 6 l 1,2 v 3 l 2,2 1,1 h -1 l 1,1 -1,-1 h -1 l 1,1 2,2 1,4 2,10 v 2 l -1,1 v 2 l -1,1 z m 1,-1 z m -2,-16 z m 0,0 h -1 z m 2,-6 -1,-1 v -1 2 z m -1,-1 h -1 l 1,1 z m -1,-1 z m -56,2 v -1 2 z m 1,-1 z m 2,-3 h -1 z m 1,-1 z m 2,-1 h -1 z m 6,-4 h 1 z m 0,41 v -2 l 1,-2 q 2,-1 2,-3 l 1,-3 v -4 l 1,-1 v -4 2 l -1,-1 v -1 h 1 -1 l 1,-1 1,-4 v -3 2 l 1,2 v -2 1 l 1,2 v 1 l 1,1 v 1 h 1 v -1 l -1,-1 -1,-2 1,1 1,2 v -1 l -1,-1 -1,-2 1,2 1,2 v 3 h -1 v -1 q 0,-1 0,0 l -1,5 -1,3 -1,2 -1,2 v 2 l -1,1 h -1 v 2 h -1 z m 3,-1 v -2 h 1 v -2 1 l 1,-2 v -2 h 1 l -1,1 1,-1 v -2 l 1,-3 1,-3 1,-1 v -2 l -1,-2 -1,-1 v 1 -2 l -1,-1 v 1 l 1,1 h -1 v 2 l -1,4 v 2 l -1,2 v 2 l -1,5 -1,1 -2,2 v 1 z m 4,-11 v -5 z m -1,0 v -1 z m 1,-4 v -1 z m 3,-4 v 1 z m -5,1 v -1 z m 1,-2 q -1,1 0,0 z m 42,11 z m -18,2 z m 2,-2 v -2 l 1,-2 v 2 h -1 z m 18,-3 v -2 l -1,-2 1,1 z m -17,-4 1,-2 v -2 2 -1 3 z m 15,-4 -1,-2 q -1,-1 0,0 l 1,1 v 2 z m 0,-1 v -2 1 z m -50,7 h -1 l -1,-1 -2,-1 h -1 l -1,-1 -1,-1 h -2 l -1,-1 -3,-1 -2,-1 -2,-1 -2,-2 -1,-3 v -2 l 2,-2 2,-2 h 1 l 1,-1 1,1 h 1 l -1,1 h -1 l -2,2 -1,2 1,2 2,2 h 1 v -2 l -2,-2 v -1 h 2 l 2,1 v -1 1 l 1,1 h -1 l 1,1 h -1 q 0,-1 0,0 v -2 l -2,-1 h -2 l 1,1 v 1 l 2,1 q 0,-1 0,0 l 1,1 v 1 h 1 -1 v 1 -1 h 1 v 1 h -1 v 1 h -1 v -1 h -1 l -3,-1 -1,-2 v -4 l 1,-1 1,-1 2,-1 h 1 -1 l -2,1 q -2,0 -3,2 l -1,3 1,2 v 1 l 1,1 1,1 q 0,-1 0,0 h 1 v 1 -1 1 h 1 v -1 1 -1 h 1 l -1,1 h 1 v -1 2 l 1,-1 v 1 h 1 l 1,1 1,1 h 2 l 1,1 h 2 l 1,1 1,1 2,1 1,-1 h 1 l -1,-1 -1,-1 v -1 1 h 2 l -1,-1 h -1 2 v 1 -1 h -1 1 v -1 h -1 l -1,-1 h -1 v -1 l -1,1 v -1 h 2 l 2,1 2,1 h -1 l -2,-1 v -1 h -2 l 1,1 h 1 l 1,2 1,1 h -1 v 2 h -1 v 1 z m 1,-4 z m -1,-3 h -1 z m -11,-1 v -1 h -1 v 1 z m -1,-1 v -1 h -1 l -2,-1 -2,-2 1,-3 v -1 1 l -1,2 2,4 2,1 z m 1,-1 -1,-1 v 1 z m -1,0 z m -6,0 -1,-3 v -2 l 1,-2 4,-2 h -2 l -2,2 q -2,3 -1,6 v 1 h 1 v 1 z m 55,2 v -3 1 l 1,1 v 1 h -1 v 2 z m -37,7 z m 49,-8 -1,-3 h -1 2 v 1 h 1 -1 v 1 z m 0,-2 h -1 z m -8,4 v -1 l -1,-4 v -2 1 l -1,-1 -1,-1 q -1,-1 0,0 l 1,-1 v -2 l -1,-1 v 2 l -1,-1 q 0,-1 0,0 v 1 -1 l -1,-2 -1,-2 1,1 1,2 1,1 v -1 l -1,-1 1,1 1,2 v 2 h -1 1 l 1,1 h 1 v 2 -3 h -1 l 1,-1 v -1 l -1,1 h -1 l 1,-1 -1,-1 v -1 h 1 v 1 -3 1 h 1 l -1,-2 -1,-2 1,2 h 1 v -1 2 l 1,3 v 5 q -1,0 0,0 v 1 -6 3 l 1,-1 v -1 5 l -1,2 1,1 v -2 q 1,0 0,0 v 1 -5 q 0,-1 0,0 l 1,1 v 2 -3 1 q 0,1 0,0 l 1,-1 h -1 l -1,-2 h 1 v 1 l 1,1 v -2 l 1,2 h 1 -1 l -1,-1 v 1 l 2,1 v 1 l -1,-1 -1,-1 v 1 q 0,-1 0,0 v 2 -1 l 1,1 v 1 -1 h -1 v -1 l -1,1 v 1 -1 1 l 1,2 -1,-1 v -1 1 l -1,1 v -1 h 1 v -1 l -1,1 v 1 h -1 v -1 l -1,-1 h 1 v -1 l 1,-1 -1,1 -1,1 z m 1,-4 1,-1 h -1 v 2 z m -1,0 v -1 z m 1,-4 v -2 l -1,-3 v 5 -2 3 h 1 z m -1,-2 z m 0,-3 v -1 1 q 0,1 0,0 z m 0,-1 v 1 z m 0,-1 v 1 z m 0,14 h 1 z m -42,7 v -1 z m 41,-8 v -3 l -3,-3 -1,-1 v -2 l -1,-1 -1,-2 -2,-2 h 1 l 1,2 v 1 h 1 v 1 l 1,1 v 1 l 1,1 q -1,0 0,0 v 1 q 0,-1 0,0 l 2,2 1,1 v 4 z m 2,0 h 1 z m -44,7 h 1 z m 46,-8 h 1 z m -38,6 v -1 l 1,-3 v -1 3 z m 34,-6 -1,-1 v -1 h -1 v -1 h -1 l -1,-2 -1,-2 v -1 1 -1 1 l 1,2 1,1 1,1 z m -41,7 v -1 z m -2,0 z m 3,-1 z m 15,-3 v 1 z m -19,3 h -1 z m 41,-7 v -1 2 z m 10,-1 h -1 z m -49,8 v -1 z m 1,-1 q 0,-1 0,0 v 1 q 0,-1 0,0 z m 4,0 -1,-2 -2,-1 h -1 1 l 1,1 h 1 l -1,-1 h -3 1 -3 l 2,-1 3,1 -1,-1 h -2 v -1 q -1,0 0,0 l 3,1 -1,-1 q 1,0 0,0 l -1,-1 h 1 l 1,1 1,1 -1,-1 -2,-1 -1,-1 3,1 q 0,1 0,0 h -1 l -1,-1 -1,-1 h -2 3 l -1,-1 h -3 q -1,0 0,0 v -1 l 2,1 h 2 v -1 1 h 1 l -1,-1 h 1 v 1 l -1,-1 v -1 l 1,1 h 1 l -1,-1 h 1 l 1,1 v 1 l 1,1 -1,-3 h -1 l -1,-2 h -1 1 -1 l -1,-1 1,1 h 1 l -1,-1 1,1 1,1 1,1 v 1 l 1,1 v 1 h 1 l -1,-1 -1,-1 v -1 l 1,1 h 1 l -1,-1 -1,-1 3,3 v 3 -2 l -1,-2 v -1 h 1 v 1 -1 1 h 1 v -2 6 -3 6 -1 1 -1 l 1,-1 v -1 1 h -1 v 1 l 1,-2 1,-1 -1,1 v 2 q 0,1 0,0 l -1,1 v 1 -1 2 -5 h -1 v -1 1 h -1 1 v 1 h -1 v -1 1 h -1 1 v -1 l -3,-2 v -1 1 l 1,1 2,1 h -1 l -1,-1 1,1 h -2 l 1,1 h 1 -1 v -1 1 h 1 -1 v 1 h 2 l -1,1 h -1 1 l 1,1 h -2 l 1,1 z m 0,-3 v -1 z m -2,0 v -1 z m 0,-1 h 1 z m -1,0 h -1 v -1 1 z m 1,0 v -1 z m 3,-2 v -1 z m 0,-1 h 1 z m -3,0 -1,-3 1,1 v 3 z m 3,0 h -1 z m -4,-2 h -1 l 1,1 v 1 h 1 z m 3,1 -1,-1 1,1 1,1 z m 2,0 h -1 v -1 1 z m -1,0 z m -4,0 -1,-1 v 1 h 1 q 0,1 0,0 z m 6,-1 q -1,0 0,0 0,1 0,0 z m -1,-1 -1,-1 1,2 v 1 z m -1,1 -1,-1 v 1 h 1 l 1,1 z m -2,1 v -1 l -1,-1 v 1 z m -2,-1 h 1 z m 6,0 v -1 z m 11,6 -2,-1 v -1 l 1,1 2,1 z m -21,3 z m 40,-7 v -1 1 h -1 v -1 h 1 z m 0,0 v -1 h -1 z m -40,7 v -1 z m 3,-1 z m -8,1 z m 1,0 q -1,0 0,0 v -2 h 1 v 1 h 1 v -1 l -1,1 z m 1,-1 v 1 z m -1,0 z m 45,-6 v -1 z m -18,2 h -1 z m -7,0 -1,-1 h 1 v 1 l 1,1 z m 24,-3 -2,-4 v -2 2 l 2,4 h 1 z m -42,7 z m 1,0 v -1 z m 3,-1 v -1 l 1,1 z m -4,0 z m 23,-4 -1,-1 v -1 l 1,1 z m -25,4 -1,-1 h 1 z m 2,-1 z m -5,1 v -1 z m 35,-6 v -2 l -1,-2 v -1 1 -1 1 l 1,2 v -5 2 -1 l -1,-1 -1,-1 -1,-1 h 1 l 2,3 -1,-1 v -1 l 1,1 v -2 2 l 1,1 v -5 5 h -1 1 v 3 q 0,1 0,0 v -2 1 l -1,3 z m 0,-1 v -1 h 1 -1 z m 0,-2 v -1 q 0,-1 0,0 v 2 z m -9,5 v -1 z m -24,3 q -1,0 0,0 0,1 0,0 z m 4,-1 h 2 -1 l -1,1 z m 49,-8 z m -52,9 q -1,0 0,0 z m 29,-5 v -2 1 z m -12,2 z m 4,-1 -1,-1 -1,-1 2,1 h -1 v -1 l 1,1 z m 7,-1 z m -6,1 -1,-1 -1,-1 h 1 v 1 z m 0,-1 v -1 q -1,0 0,0 v 2 z m -19,4 z m 20,-4 -1,-1 z m -18,3 h 1 z m -6,1 z m 54,-9 h -1 l -1,-1 -1,-2 q 1,2 1,0 v 2 h 1 v 1 z m -46,8 q 0,-1 0,0 z m -2,0 1,-1 v 1 z m 40,-7 -1,-3 -1,-1 h -1 1 v 1 l -1,-2 v -2 1 l 1,3 1,1 v 1 z m -43,7 h -1 q 1,0 0,0 l 1,-1 z m 13,-3 v 1 z m 13,-1 v -1 z m 2,-1 v -1 1 q 1,0 0,0 z m -28,4 1,1 z m 16,-2 z m 1,0 -1,-2 -1,-1 -1,-1 h 1 v 1 q 0,-1 0,0 h 1 l 1,2 z m 9,-1 v -1 z m -23,3 z m -6,1 z m 8,-2 h -1 1 q 1,0 0,0 z m 19,-3 -1,-1 z m 16,-3 -2,-3 v -1 1 l 1,1 z m 10,-1 v -1 l 1,-2 -1,1 v 1 z m -36,5 -1,-1 q 0,-1 0,0 z m 1,0 h -1 v -3 2 z m -12,2 q 0,-1 0,0 z m -4,0 h 1 z m 47,-7 -1,-1 v -2 1 l 1,1 z m -50,8 v -1 z m 4,-1 h -1 2 z m 28,-5 z m 22,-3 v -2 z m -25,3 -2,-3 -2,-2 h -1 v -1 l 3,3 1,1 v -1 l -1,-1 1,1 1,1 -1,-1 v -1 1 l 1,2 v 2 z m -23,4 h -1 z m -4,0 h 3 -3 v 1 z m -1,0 h 1 -1 1 q 0,-1 0,0 l -1,1 z m 18,-2 v -1 z m 34,-6 1,-1 v -1 2 z m -26,4 v -1 l -2,-1 h 1 l 1,1 1,1 z m 21,-4 -1,-2 1,2 v 1 z m -51,8 -1,-1 h 1 v 1 h 1 z m 0,0 h -1 z m 35,-5 q 1,0 0,0 z m 16,-3 v -1 z m -31,5 v -2 z m 15,-3 h -1 v -1 1 z m 3,0 v -1 z m -28,4 h -1 q 0,-1 0,0 h 1 v -1 h -1 z m 18,-3 h -1 z m 24,-4 -1,-3 1,2 z m -29,5 v -1 z m -13,1 v 1 z m 37,-5 -1,-2 v -2 2 z m -10,0 v -1 2 z m 20,-3 v -1 h -1 v 1 -2 h 1 v -1 2 l 1,2 z m 0,-2 -1,1 h 1 z m -47,9 h -1 1 v 1 h 1 z m 9,-1 v -1 2 z m -14,3 v -1 z m 13,-3 v -1 1 h 1 z m -11,2 1,-1 v 1 z m 4,-1 h -1 l -1,-1 1,1 z m 15,-2 v -1 z m 28,-6 -1,-1 v -3 q 0,-1 0,0 v 1 h 1 v -1 3 -1 3 z m -1,-2 z m -47,11 h -1 2 z m 8,-2 -1,-1 z m 2,-1 h -1 l 1,1 z m -5,1 h -1 z m 11,-1 z m 21,-4 z m 12,-2 v -3 z m -12,1 -1,-2 1,2 v 1 z m -28,5 h -2 1 l 1,1 z m 41,-6 v -1 h -1 1 z m -2,0 v -2 z m -37,6 z m 28,-4 z m -29,4 -1,-1 v -1 1 z m 0,-1 v -1 1 l 1,1 h -1 z m 1,1 v -1 z m 5,-1 h -1 v -1 z m 0,0 v -1 l 1,1 z m 14,-3 v -1 z m 14,-2 v -2 z m -7,1 v -2 1 z m -26,4 v -1 z m 32,-6 v 1 -5 l 1,2 v 1 l -1,1 v 1 z m -30,5 v 1 z m -1,1 v -1 h -1 1 z m 3,-1 h 1 z m 36,-6 v -2 l 1,-1 h -1 z m -6,1 v -2 1 q 0,-1 0,0 z m -29,4 h -1 1 v 1 z m 3,0 v -1 l 1,1 z m -7,1 z m 34,-6 v -3 z m -29,5 h -2 z m 25,-4 v -2 z m -38,6 h 1 z m 6,-1 v -1 1 h 1 z m -6,0 h 1 v 1 z m 15,-2 z m 22,-4 v -1 z m -36,6 h 1 z m 10,-2 h 1 z m 26,-4 v -1 q -1,0 0,0 z m -25,4 v -1 l 1,1 z m 1,-1 h 1 -1 1 z m 33,-5 v -1 z m -39,6 v 1 z m 1,0 -1,-1 z m 1,0 v -1 z m 18,-3 v -1 l 1,1 z m -25,4 z m 24,-4 v -1 z m 1,0 -1,-1 h 1 z m -23,3 q -1,0 0,0 0,1 0,0 z m 43,-7 v -2 z m -39,6 1,1 z m 27,-4 z m 11,-1 -1,-2 h 1 q 0,-1 0,0 z m -42,6 z m 13,-2 v -1 1 h 1 z m 11,-2 z m -23,4 z m 5,-1 z m 4,-1 v -1 1 h 1 z m 1,0 v -1 l 1,1 z m 7,-1 v -1 q 1,0 0,0 z m 3,-1 v -1 z m -12,2 h 1 z m 2,0 -1,-1 h 1 z m 7,-1 -1,-1 v -1 h 1 z m 10,-3 h -1 v -1 l 1,1 v 1 z m -1,1 v -1 q -1,0 0,0 z m 14,-3 z m 1,0 v -1 l -1,-1 h 1 v 1 -1 z m -17,3 v -1 z m 1,-1 h -1 z m 14,-2 v -1 1 h -1 v -2 l 1,1 z m -20,3 z m -10,1 1,1 z m 1,0 z m 5,0 v -1 z m 0,-1 v 1 z m 1,0 z m -4,1 -1,-1 1,1 h 1 z m 19,-3 v -1 z m 6,-2 v -1 z m -6,0 q -1,0 0,0 v 1 z m -2,1 z m 3,-1 q 0,1 0,0 z m -2,0 v 1 z m -7,2 v -1 z m 3,-1 v -1 z m 13,-3 v 1 z m -4,1 v -1 z m 0,0 v -1 z m 3,-1 h 1 z m -7,1 v -1 l 1,1 z m 1,-1 h -1 z m 0,0 h 1 z"
               aria-label="N"
               id="path30" />
            <path
               d="m 927,429 1,-1 1,-1 1,-1 h 1 l 1,-1 2,-2 3,-1 1,-2 -1,-1 -1,-2 h -1 v 3 h -8 l -1,1 h -1 l -1,1 -1,1 h -3 l 1,-2 1,-1 2,-1 1,-1 h 6 l 1,-1 -1,-1 v -2 l -1,-2 v -1 h -2 l -1,1 h -9 l -1,-1 h -4 l -7,-2 h -2 l -4,2 -1,2 -1,1 h -1 v 2 l -1,1 -2,1 v -1 l 1,-3 v -1 l 2,-2 5,-4 1,-1 1,-1 h -1 l -1,-1 -3,2 -2,1 -1,1 h -1 l 1,1 v 1 l -2,1 -1,1 v -3 l 1,-1 v -2 l 2,-1 5,-3 1,-1 2,1 4,1 1,-2 v -2 l 1,-2 v -2 l 1,-1 v -1 h -1 l -1,2 -4,3 -1,2 -1,1 -1,-1 v -1 h 1 l -1,-4 -2,-4 -3,-4 v -6 l 1,-2 h -2 1 v 1 h -1 l -1,-1 h -1 l -1,-1 h 4 -1 l 1,1 h 1 v -1 l 1,-2 4,-4 5,-4 2,-3 -1,-1 1,-1 v 1 l 1,1 v 3 l 2,3 v 2 l 1,2 1,1 v 1 l -1,-3 -1,-1 -2,-5 -1,-2 v 1 l -2,3 -5,4 -3,4 v 1 l 6,1 7,2 v -1 h 4 -1 v -2 l -1,-2 1,1 v 2 h 1 v 1 h 1 v -1 h -1 v -6 l 1,-1 h 3 l 2,1 1,1 v 3 h -1 l -1,2 v 1 l 1,1 1,1 2,1 h 1 l 4,4 v 1 l -1,1 h -1 l -2,-1 -2,-1 -1,1 -2,3 -2,2 v 2 l 2,1 7,1 h 4 l 1,-1 2,1 4,1 3,2 1,1 2,-1 4,1 4,2 3,2 v 1 l 1,2 v 4 l -1,4 -2,2 -1,1 v 5 l -1,2 1,-1 q 0,-1 0,0 l -1,-1 v -2 l 1,1 v -4 l 1,-1 1,-1 2,-5 v -5 l -2,-3 v 1 l 1,3 -1,5 h -1 q 2,-2 2,-5 l -1,-1 v -2 l -3,-3 -3,-1 h -7 l -1,-1 -2,-2 h -2 l -2,-1 h -12 l -4,-2 -1,-1 1,-2 1,-1 3,-3 1,-1 2,1 h 2 l 1,1 v -1 l 1,-1 -1,-1 -3,-2 -1,-1 -2,-1 -2,-2 v -3 h -1 v -1 l -1,-1 v -1 l -1,-1 1,1 v -1 1 h 1 -1 1 l -1,1 h 1 l 1,-1 h -1 v -2 2 l 1,-1 v 1 q 0,-1 0,0 v 1 l 1,1 v -2 1 h 1 l -1,-2 -1,-1 h -4 v 2 q 0,-1 0,0 v 1 h 1 -1 v -1 l -1,1 v 2 h 1 -1 l 1,1 h -1 l 1,1 v 2 h 1 l 1,2 v 1 l -1,3 -2,1 q 3,-2 3,-5 v -1 l -2,-1 h -10 l -4,-1 h -3 l -1,-1 h -2 v 1 h -1 l 1,1 h -1 1 v 1 h 4 l 2,1 h 6 -1 v 1 h 2 l 4,1 v 1 h -1 v -1 h -1 v 1 l -1,2 -1,3 v 1 q 0,1 0,0 h 1 v -1 l -1,2 -1,4 h 1 l 1,-1 2,-1 -2,1 -1,1 -1,1 -1,1 v 2 -1 l 1,1 -1,1 -1,1 1,1 v 1 h 1 l 2,-1 h 1 -1 v 1 h 1 v 1 -1 h -7 l -2,-1 -2,2 -2,2 -3,2 -1,2 -1,1 -1,2 v 1 h 1 l 2,-2 -1,-1 h 1 q 0,-1 0,0 l 1,-1 2,-3 2,-1 2,-1 h 2 l 3,1 5,1 1,1 v -1 l 1,-1 q 1,0 0,0 v 1 l 4,1 h 9 l 2,-1 h 2 v -1 h 1 -2 l -2,1 v -1 l 3,-1 h -1 q 0,1 0,0 h 2 v 1 l -1,1 v 3 l 2,3 3,3 h 1 l -1,1 v 1 l -3,3 -2,1 -2,1 -1,1 h -1 l -1,1 -1,1 h 3 l 1,-1 1,-1 h 1 l 1,-1 4,-3 2,-1 2,-1 v -1 l -1,-3 -1,-1 -1,-1 1,-1 1,-2 1,-2 1,-1 1,-3 v -3 h 5 l 2,3 h 1 l -1,-1 q 1,0 0,0 v -1 l 2,3 v 3 l -1,1 -1,2 -2,2 -3,3 -1,1 v 1 l 1,3 h -1 v -4 l 4,-4 2,-3 1,-3 -1,-3 -2,-2 -2,-1 h -3 l 1,1 v 2 l -2,3 -1,1 -1,3 -1,1 v 2 l 1,2 1,2 v 1 l -2,1 -2,1 -2,2 -2,2 h -2 v 1 l -2,1 z m -5,-6 1,-1 h 1 v -1 l 1,-1 h 10 v -3 l -1,-1 -2,-4 h -1 v 2 l 1,2 v 2 h -5 l -2,1 h -1 l -1,1 -1,1 -1,2 z m 8,-4 z m 24,5 v 1 z m -60,-13 1,-1 1,-1 h -1 v -1 h 1 l 1,-1 2,-2 2,-1 h 2 v 1 h 3 l 2,1 v -2 l -4,-2 h -2 l -2,1 -3,2 -2,1 -1,2 -1,1 v 3 -1 z m 2,-4 2,-1 1,-1 -1,1 h -1 v 1 z m 8,-2 v -1 l 1,1 z m -2,-1 v -1 1 h -1 z m 30,7 h 1 -3 z m 20,1 v -5 1 -1 l -1,-1 v 1 l 1,3 z m -49,-12 v -1 1 q 0,1 0,0 z m 0,-1 h 1 z m 1,-2 -1,-3 -2,-2 -3,-5 v -3 h 1 v -1 h -1 l -1,2 q -1,2 2,6 l 4,4 v 3 l 1,1 z m 0,1 3,-2 3,-4 1,-1 1,-3 1,-2 -2,-1 h -4 l -2,-1 -5,-1 -1,1 v 1 l -1,-1 v 3 l 3,4 2,3 1,3 z m 49,9 h -1 z m -1,-1 v -1 z m -47,-25 h 1 l -3,-1 h -2 v 1 z m -9,-2 h -1 v -1 h 1 -2 z m 3,1 1,-1 v -2 l 2,-3 6,-4 2,-4 q -1,3 -6,6 l -5,4 v 3 q -1,0 0,0 z m 10,2 -1,-1 z m -12,-3 z m 1,0 z m 8,2 v -1 z m 1,0 z m 1,0 h -1 z m -5,-1 z m 7,1 h -1 z m 12,-2 q 1,0 0,0 v -2 h 1 q 0,-1 0,0 h -1 v 1 h -1 1 z m 1,-1 1,-1 h -1 v 1 q 0,1 0,0 z m -2,-2 z m 3,0 v 1 z m -2,0 z m 0,0 q -1,0 0,0 z m -12,-11 v 1 z m 0,0 v -1 z m 23,61 1,-1 1,-1 -1,1 z m 14,0 v -3 q 0,-2 3,-5 l 3,-3 2,-4 v -2 1 l -1,4 -5,5 -2,4 v 2 l 1,1 q 0,1 0,0 z m 3,0 -1,-2 v -2 l -1,2 v 1 -1 l 2,-4 h 1 v -1 l -1,1 -1,1 v 4 z m -11,-4 1,-1 h 1 -1 z m 13,1 v -3 1 l 1,2 v 1 z m -6,-1 v -2 l 1,-2 1,-1 1,-1 v 1 l 1,-2 3,-3 v -1 q -1,1 0,0 v -2 h 1 -1 v -2 l -1,-2 -1,-1 h 1 l 1,1 1,2 v 3 l -1,3 -3,3 -1,1 3,-2 2,-4 1,-1 v -2 l -2,5 -3,4 -2,2 1,-1 h -1 1 l 1,-2 1,-1 1,-1 h -1 l -1,1 -2,3 v -1 1 l -1,1 -1,1 z m 2,-5 z m 4,-3 v -1 z m 1,-1 v -1 h -1 v 1 z m 0,-1 1,-2 -1,1 z m 0,-1 z m 1,-3 h -1 z m -6,14 1,-2 1,-1 1,-1 -1,1 -2,2 z m -8,-2 h 1 z m 13,2 z m -12,-2 -1,-1 h 1 z m -43,-8 1,-1 v -1 h 1 l 1,-1 1,-1 h 1 l -2,1 -2,2 z m 54,8 2,-2 h -1 l 1,-1 h 1 v -1 l 1,-2 -1,1 -1,1 -1,2 -1,1 2,-2 2,-3 v -1 l 1,-3 v -2 6 l -2,3 h -1 v 1 l -1,1 z m 2,-1 h -1 z m 0,0 v -1 h 1 v -1 1 z m -51,-12 h 1 v -1 1 z m 8,2 -1,-1 h -1 3 l 1,1 h 1 z m 1,0 z m 44,7 z m -3,0 3,-4 v -1 1 l -2,3 z m -2,-2 v -1 l 1,-1 -1,1 z m 5,-7 -1,-1 h 1 z m -38,-11 -1,-1 h 1 z m -2,0 1,-1 v -1 1 z m -2,-2 z m 0,-1 h 1 z m 3,0 2,-3 1,-3 h 1 l -2,3 -1,3 z m -2,-1 h -1 l 1,-1 z m -1,-2 h -1 v -1 z m 9,-2 h 2 -2 v 1 z m 6,1 h -1 z m -21,-5 h 1 -2 z m -1,0 v -1 z m 2,0 q 0,-1 0,0 z m 6,1 h 1 z m -2,-1 h 1 v 1 z m -15,-3 v -1 z m 23,2 v -1 z m 1,0 z m -2,-5 q 1,0 0,0 z m 1,0 v -1 z m -2,-3 h 1 z m 0,-1 q 0,1 0,0 z m 4,1 v -1 z m -3,-1 h 1 z"
               aria-label="L"
               id="path32" />
            <path
               d="m 1111,551 -2,-2 -1,-3 v -2 l -1,-1 q -1,0 0,0 h 1 l 3,1 h 2 l 1,1 2,1 v 3 h 1 l 1,-1 h 2 v -1 h 1 l 2,-1 1,-1 h 1 v -1 l 1,-1 1,-3 1,-1 v -1 h 1 l -2,-3 -1,-1 h -7 v 1 l -2,-1 h -2 l -2,-1 h -7 l -2,-1 v -1 l -1,1 -1,-1 h -2 l -1,-1 -1,-1 h -1 l -1,-1 -1,-1 -1,-1 -1,-1 -1,-1 h -1 1 v 2 l 1,1 v 1 h -1 v 1 h -3 v 1 h -1 q 0,-1 0,0 h -6 l -1,1 h -1 v 1 -1 l 2,-2 h 2 q -1,0 0,0 h 2 q -1,0 0,0 h 1 l 1,-1 h 2 l 1,-1 q 0,1 0,0 h 1 -1 v -1 h -1 1 l -1,-1 q 0,1 0,0 v -2 h -1 v -2 h -1 v -2 h 1 v -1 l -1,-1 h -1 v 4 h 1 v 2 h -1 v 1 -1 1 h -2 v 1 h -5 l -1,1 h -1 l -1,1 -2,1 v -1 l 1,-1 1,-1 h 1 l 1,-1 h 3 -1 2 l 1,-1 h 1 l -1,-1 h 2 v -4 h -1 1 q -1,0 0,0 v -1 h -1 1 v -4 h -1 q 0,1 0,0 v 1 -1 h -1 v 1 -1 1 h -1 v 1 l -1,2 q 0,-1 0,0 h -1 q 0,1 0,0 v 1 h -1 l -1,1 h -2 l -1,1 h -3 l -1,1 v 1 -1 l 1,-1 3,-2 h 1 l 2,-1 1,-1 h 1 v -1 l 1,-1 v -1 l 1,-1 1,-1 v -1 h -1 v -1 h -1 l 1,1 -1,2 -3,2 -2,1 -2,-1 -2,-1 h -1 q 1,0 0,0 h 5 l 2,-1 2,-1 v -1 l 1,-1 q 0,-1 0,0 l -1,1 -1,1 -1,1 h -5 l -1,-1 q -2,-1 -2,-3 l -1,-3 v -2 l 1,-2 v -1 1 q 0,4 3,5 l 1,1 1,1 v 2 h 1 v -1 h 1 -1 1 v -1 h 1 q 0,1 0,0 h -1 1 q 1,0 0,0 v -1 l 1,1 -1,-1 h 1 l -1,-1 1,1 v -1 h -1 1 -1 v -1 h 1 v 1 -2 1 -1 l 1,1 v -1 h 1 l -1,-1 1,1 v -1 1 l 1,1 -1,-1 v -1 h 1 v -1 h 1 v -1 1 h 1 l -1,-1 h 1 -1 1 l 1,1 v -1 h -1 v -1 1 h 1 l -1,-1 h 2 l -1,-1 h 1 v 1 -1 l 1,1 v -1 1 -1 l 1,1 -1,1 h 1 v -2 h 1 v -1 h -1 l -2,-2 -4,-4 h -2 l 1,-1 h 3 l 3,1 4,2 v 2 l 1,1 v 2 l -1,1 v 1 l -2,1 -1,1 h 1 v 1 h 1 l -1,-1 1,-1 h 2 v -2 l 1,-2 -1,-2 1,-2 v -2 4 l 1,3 v 2 l -1,2 h -2 v 1 h -2 l 1,1 h 2 l 1,-1 1,-1 h 2 q 0,-1 0,0 l 1,-1 v -2 1 -1 l -1,-4 v -1 q 1,1 0,0 v -3 1 l 1,2 v 1 l 1,1 v 2 h 1 v 1 h -1 1 v 1 l -1,2 v 1 h -1 1 -1 v 1 h -3 v 1 q 1,0 0,0 h -1 q 0,1 0,0 v 1 h -1 l 1,1 v 1 h 2 v -1 1 h -1 2 l 1,1 h 2 v 1 h 1 q -1,0 0,0 v -1 l 1,1 v -2 h 1 v 1 -1 l 1,-1 v -3 1 h 1 v -8 h 1 v 1 h -1 l 1,1 v 7 l -1,1 1,-1 v 1 h -1 v 1 l -1,2 v -1 h 1 l -1,1 h -1 1 l -2,1 v 1 h -2 v -1 1 -1 h -2 v -1 1 l -1,-1 h -1 l 1,1 v 1 h 2 l 2,1 h 1 v 1 h 1 v 1 h 2 v -2 l 1,1 v -2 l 1,-1 1,-4 v -1 l 1,-1 v -1 1 -1 h 1 v -1 h 2 v -1 1 l -2,1 v 1 q -1,0 0,0 l -1,1 h 1 -1 v 3 h -1 v 2 q 0,-1 0,0 v 1 l -1,1 v 1 h 1 -1 v 1 l -1,1 h 1 v -1 1 h -1 v 1 q -1,0 0,0 h -1 v 1 h 1 -1 l -1,-1 h -1 l -1,-1 h 1 -1 l -1,-1 1,1 -1,-1 v 1 l 1,1 2,2 2,1 2,1 v 1 l 1,2 2,1 h 1 l 2,1 v 1 h 2 l 2,1 h 1 l 1,1 h 7 v 1 h 2 l 2,3 1,2 v 4 l -1,1 -1,2 -1,2 -1,1 -1,1 h -1 l -2,2 -5,2 -2,1 h -5 z m 3,0 1,-1 1,-1 v -2 l -1,-1 -2,-1 -2,-1 h -3 l -1,-1 1,1 1,1 v 4 l 2,2 z m 2,0 h 1 v -1 l -1,-1 v 1 l -1,1 z m 1,0 h 3 l 1,-1 h 2 l 1,-1 1,-1 h 1 v -1 l -1,-1 -1,-1 v 1 l -3,1 q -1,0 0,0 l -1,1 h -1 l -1,1 h -1 z m 9,-4 -1,-1 z m 0,-1 1,1 -1,-2 h -1 v 1 z m 2,0 v -1 h 1 v -1 l 1,-1 1,-1 v -2 l -1,-1 h -1 q 0,-1 0,0 l -1,1 h -1 v 1 l -1,1 v 1 l -1,2 h 1 v 1 z m -47,-16 h -1 z m 3,0 h 2 v -1 h -2 l -2,1 q -1,0 0,0 z m -7,-3 v -1 l -1,1 z m 9,3 h 1 l 1,-1 h -2 z m -9,-4 h 1 v -1 h 1 q 0,1 0,0 h 1 v -1 l -2,1 v 1 h -1 q 0,1 0,0 z m 11,3 4,-1 v -2 l -1,-2 -1,-1 v -1 l -1,-2 v -1 3 h 1 v 3 l 2,2 v 1 h -2 z m -7,-4 h 2 l 2,-1 1,-1 h 1 v -1 h -1 l -2,2 h -4 z m 22,6 v -2 l 3,-3 1,-2 v -2 l -2,-1 h -1 l -1,1 -2,3 -2,4 v 1 h 2 l 1,1 z m 5,2 h 4 l 2,-1 v -4 l -2,-1 -1,-1 -2,-1 -1,-1 h -1 l -1,1 -1,2 -2,3 v 1 h 1 l 1,1 h 1 z m 0,-2 h 4 v -1 l -1,-1 h 1 v 1 q 1,0 0,0 l -1,1 z m 23,8 1,-1 h -2 l -1,1 z m -31,-13 1,-2 2,-3 1,-1 h 1 -1 l -1,-1 h -2 l -1,1 -1,1 -1,1 -1,1 -2,2 v 1 l 2,2 1,1 1,-1 z m 15,8 h 4 l 1,-1 1,-2 -1,-1 h -1 l -2,-1 h -3 q 1,2 -1,4 z m 14,4 h 1 l 2,-1 -2,-4 -1,-2 -2,2 v 1 l 1,2 z m -57,-17 z m 0,-1 h 1 l 1,-1 h 2 -3 v 1 z m 51,14 h 3 v -4 h -6 l 1,1 v 2 h -1 l 1,1 z m -28,-9 1,-2 2,-1 1,-1 v -1 l 2,-2 h 1 v -1 l -1,-1 -1,-1 -2,1 -1,1 -4,3 -1,2 v 2 l 1,1 z m -3,0 v -1 z m 0,-1 v -1 h -1 v -1 1 z m -15,-5 h 1 l -1,-1 -1,1 z m 10,3 v -4 l -1,-1 v 5 z m 4,0 q 0,1 0,0 z m -13,-3 h 1 l 1,-1 2,-2 h -1 l -2,1 -1,1 z m 49,14 v -1 l 1,-1 h -1 z m -36,-11 1,-1 2,-2 1,-1 1,-1 h 1 l 1,-1 v -2 h -2 l -1,1 -1,1 -1,1 -1,1 h -1 l -1,2 v 1 z m -1,-2 v -1 l 2,-2 1,-1 2,-1 2,-2 h -1 q 0,-1 0,0 -2,0 -5,3 l -2,2 v 2 z m -8,-4 v -1 l 1,-2 h -1 l -1,2 z m -4,-2 2,-1 2,-2 v -1 l -1,1 -1,1 -1,1 -2,1 z m -5,-1 q 1,0 0,0 z m 2,1 q 0,-1 0,0 h 2 -1 l -1,-1 h -1 z m 14,4 1,-2 2,-1 2,-1 1,-1 1,-1 -1,-1 v -1 l -1,-1 -2,2 v 1 l -1,-1 h -1 v 2 h -1 l -1,1 h -1 q 0,1 0,0 h -1 l 1,1 1,1 v 1 z m -2,-1 v -2 h -1 v 1 z m -12,-6 h 3 -1 v -1 h -1 v -1 l -1,-1 v -1 h -1 l -2,-1 v -1 l -1,-3 q 0,-1 0,0 h -1 v 3 l 1,4 3,2 z m 4,1 1,-1 1,-1 v -2 h -2 l -1,1 v 2 z m 5,1 v -2 l -1,1 z m 3,1 h 1 l 1,-1 1,-1 v -1 h 2 v -1 l 1,-2 -1,-1 -3,-3 -2,-2 -1,1 h -1 l -1,1 -2,1 1,2 v 2 l 1,2 1,1 z m 0,-5 -1,-1 1,1 h 1 z m 2,-1 -1,-1 1,1 v 1 z m -3,-1 q 0,1 0,0 z m 16,9 3,2 v -1 l -1,-1 -3,-1 v -1 l -2,-1 h -2 l 1,1 2,1 h 1 z m 4,1 1,-3 1,-2 v -2 h -1 v 3 l -1,2 -1,2 z m -6,-2 h -1 z m -1,-1 h -1 z m -16,-5 v -1 l -1,-1 v -2 h -1 v 1 -1 h -1 v 2 l 1,1 z m 13,3 v -2 h -1 v 1 h 1 z m 6,0 v -1 h -3 l -1,-1 v 1 h 1 l 1,1 z m -5,-1 v -2 h -2 l -1,1 h 1 z m 5,1 1,-1 1,-1 1,-2 v -1 l 1,-1 v -2 l -1,2 -1,1 -1,2 -1,2 z m -19,-8 -1,-1 z m 0,0 h 1 z m 10,2 h 1 l -1,-1 -1,1 z m -9,-2 h 1 v -2 h -1 q -1,1 0,0 z m 24,6 v -2 l -1,1 z m -14,-4 2,-1 2,-1 v -1 h -2 l -1,1 -2,1 z m -8,-4 h -1 v -1 1 z m -1,0 z m 6,1 h 3 v -1 h -3 z m -4,-1 h 2 v -1 l -2,-1 -1,1 v 1 z m 4,-1 1,-1 h -1 1 v -1 h -1 v 1 h -1 l -1,1 v 1 z m 17,7 1,-1 v -1 l 1,-1 1,-1 h -1 l -2,3 z m -14,-7 1,-3 h -1 v 1 l -1,3 h 1 z m -6,-1 z m 11,3 v -3 l -1,1 v 2 z m 7,1 v -3 z m -15,-5 1,-1 v -2 h -1 l -1,2 z m -1,-2 v -1 l 1,-1 h 1 l -1,-1 -4,-3 h -3 l -2,1 h -1 1 l 3,1 2,2 2,2 q 0,1 0,0 z m 9,3 v -3 h -1 v -2 3 z m -5,-2 1,-1 h -1 v -1 z m 11,2 v -1 2 z m -11,-4 v -1 h -1 z m 11,3 z m -19,29 h -1 1 q 0,1 0,0 z m 3,-4 q 1,0 0,0 h 1 z m -18,-10 1,-1 v 1 z m 37,0 z m -2,-2 z m -20,-12 v -1 z m 23,5 z"
               aria-label="K"
               id="path34" />
            <path
               d="m 1192,693 h 2 l 1,1 1,2 v 2 l -2,2 1,5 v 1 h 8 l 9,-1 v -1 h 3 l 1,1 v 1 l -1,1 4,13 5,14 2,6 h 3 q 1,2 -1,3 l -5,3 -8,1 q -4,0 -6,-2 l -1,-2 2,-1 2,-11 1,-13 1,-11 v -1 l -19,3 5,39 v 1 l 1,1 v 1 l 2,1 h 1 v 1 l 1,3 h -2 v -1 l -9,1 v 1 h -2 l 1,-4 2,-1 v -1 l 1,-1 v -2 l -4,-39 -18,2 -1,1 v 1 l 1,3 10,29 h 1 l 2,1 -1,2 -5,3 -8,1 -6,-1 q -2,-2 -1,-3 l 2,-1 h 1 l 3,-34 v -1 h -1 v -1 l 1,-1 h 1 l 1,-1 h 1 l 1,1 8,-2 6,-1 1,-1 v -6 h -3 v -3 l 1,-3 z m -1,0 -1,1 -1,3 v -2 h 1 l 4,-1 1,2 -1,2 1,-1 h 1 l -1,-1 v -1 l -1,-1 -1,-1 z m 1,2 h -2 1 l 1,1 h -2 1 v -1 l -1,1 v 2 l 1,1 h 3 v -4 h -2 2 z m 1,1 h 1 z m -1,0 v 1 l 1,1 h -1 z m -3,1 v 1 h -1 1 l 1,1 v -1 h -1 z m 7,0 -1,1 h -1 v 1 l 1,-1 z m 0,1 h -1 v 1 h -1 2 z m -7,1 q -1,0 0,0 l 2,1 -1,-1 z m 3,0 h 1 z m -3,0 v 1 h 2 z m 5,0 -3,1 1,6 v -5 h 1 l 1,1 v 3 h 1 l -1,-1 z m -1,3 1,1 z m -1,0 v 1 q 1,0 0,0 z m 1,1 v 2 l -1,1 -2,1 -6,2 -8,1 v 1 h -1 v -1 h -2 l -2,1 1,1 v -1 h 1 -2 2 l 19,-2 20,-3 h -1 v -1 l -8,1 -7,1 -2,-1 -1,-1 z m -19,6 v 1 l 1,-1 v 1 h 1 l -1,-1 z m 39,-4 h -1 v 1 l 1,-1 q 1,-1 0,0 z m 2,0 h -2 v 1 h -1 2 v -1 h 1 v 2 l 1,-1 -1,-1 q 0,-1 0,0 z m 0,0 v 1 z m 0,1 -1,1 h 1 z m -1,0 v 1 z m -41,5 v 1 h -1 1 z m 22,-2 h -1 v 7 -7 h -2 l 2,6 1,5 z m 20,-1 -1,15 -1,17 h -1 l 1,1 h 1 l 8,-1 v -1 z m -23,2 1,7 2,16 2,16 2,-1 -1,-9 -2,-19 -1,-10 v 10 h 1 v 2 l -1,1 -1,-1 v -1 l 1,-1 z m -20,4 v 32 h 1 l 8,-1 h 1 v -1 l -5,-16 z m 44,-2 4,15 3,12 2,1 z m -44,6 v -1 1 l -1,11 -1,13 -1,5 2,-2 v -12 z m 42,-4 -1,11 -2,11 v 5 h 1 v -1 l 1,-13 z m -40,5 3,8 3,10 2,7 v 1 h 2 l -2,-5 -4,-11 -3,-10 z m 21,1 v 2 q 0,1 0,0 h 1 v -2 z m 22,20 -6,2 -1,1 1,1 h 9 l 5,-1 1,-2 -1,-1 z m -40,5 -8,2 v 1 l 1,1 5,1 5,-1 4,-1 v -3 z m 49,-5 v 2 h 2 l 1,-1 -1,-1 z m -16,2 h -1 v 1 l 1,1 v -1 z m -41,5 h -1 l -2,1 v 1 h 3 v -1 z m 15,-2 1,2 1,-1 -1,-1 z m 24,-1 1,1 4,1 h 5 l 6,-1 4,-3 h 1 l -5,1 -4,1 -6,1 z m -22,3 -5,2 -5,1 h -5 l -5,-1 1,1 5,2 h 5 l 5,-2 4,-2 z m 14,2 h -4 v 2 l -1,1 v 1 h -2 l 1,1 h 1 l 4,-1 h 5 v -1 h -2 l -1,-1 z m -7,5 v 3 h 1 v -2 h 2 l 4,-1 h 3 l 1,1 h 1 l -1,-2 -6,1 z"
               aria-label="J"
               id="path36" />
            <path
               d="m 1173,951 v -2 l 2,-4 1,-1 v 1 l -2,2 -1,3 v 1 l 1,-1 1,-1 2,-3 2,-3 v -1 1 h -2 1 l -3,1 h -2 l -2,1 -2,1 2,-1 3,-1 h 1 -1 l -1,-1 v -1 h -1 l -2,-1 -2,2 v 4 l 3,-1 h 2 l 2,-1 1,-1 1,-1 v 1 h -1 l -1,1 -2,1 -2,1 h -2 v 1 l -2,1 h -1 l -1,-1 v -1 1 -1 1 l 1,1 h 1 l 1,-1 v -1 h -1 q 0,-1 0,0 v 1 -3 l 1,-2 h -1 l -2,1 -1,1 -4,1 -3,1 v 4 h 3 l 1,-1 h 2 v -1 l -1,-2 v -1 1 l 1,2 v 1 h 2 q 0,-1 0,0 v -1 1 l -4,1 h -2 l -3,1 h -4 l -1,-1 -1,-1 v 1 -2 h -1 l -2,2 -2,1 h -1 v 1 h -1 l 1,-1 1,-1 2,-1 1,-1 v -1 l 3,-4 v -1 2 l -1,1 v 1 h -1 4 v 1 h -1 l -1,-1 h -1 v 1 -1 l -1,1 h -1 l 1,1 1,1 1,1 h 6 v -4 h -2 l 6,-1 7,-4 3,-2 1,-1 v 1 l -1,1 2,1 v 1 h 1 v -1 1 l 1,1 2,-1 1,-1 2,-1 h 2 q -1,0 0,0 l 1,-1 3,-2 h 1 -1 l -1,1 h 1 -1 v 1 l -3,4 -2,2 1,-1 1,-2 1,-2 1,-1 -2,1 v 2 h -1 l 1,-2 q 1,0 0,0 v 1 l -2,2 -1,1 2,-4 q 1,0 0,0 v 1 h -1 l -3,4 -2,3 -1,1 z m 9,-7 2,-3 1,-2 -1,1 h -1 1 l 1,-1 -1,1 -1,2 -2,2 v 1 z m -13,4 v -1 z m 9,-5 z m 3,-1 v -1 h -1 v 1 z m -4,5 1,-1 v 1 l 2,-2 1,-1 -3,3 z m 4,-3 q 0,-1 0,0 z m -17,5 -1,-2 v -1 l 1,1 z m 13,-5 q 1,0 0,0 v 1 z m -17,6 z m 9,-4 z m -9,3 z m -1,1 -1,-1 v -1 l 1,1 z m -8,2 h -2 l -2,1 -4,1 v -1 l 1,1 h -1 1 l 3,-1 3,-1 z m 26,-10 -1,-3 h -1 v -1 l 1,1 v -1 h 1 -1 v 1 l 1,2 1,1 z m -13,4 h 1 v 1 z m -3,2 v -1 z m -15,5 1,-1 v 1 z m 4,-1 v -1 z m 0,-1 z m 37,-13 1,-1 z m 1,-1 1,-1 -1,1 h -1 1 l 1,-2 1,-4 1,-2 v -1 l -1,1 v -1 h -6 3 l 3,-1 h -2 l -1,-1 h -1 l -4,1 -4,-1 h 9 l 1,-1 v -1 l -1,1 h -2 l -1,-1 2,1 1,-1 -2,-2 v -1 1 l 1,1 1,1 v -3 l 1,1 v -1 l -1,-3 v -4 4 -7 1 h 1 v 15 h 2 v 1 h 1 v -1 h -1 l 1,-2 -1,-2 -1,-6 v -1 l 1,4 1,4 v 4 l 1,-2 v -1 l -1,-1 -1,-2 1,1 v 1 l 1,1 v -4 l -1,-1 v -1 l 1,1 v 2 h 1 l -1,-2 v -1 h 1 v 4 l -1,3 -1,4 -2,4 v 2 -1 1 l 1,1 z m -1,0 v 1 z m 3,-1 z m 1,0 q -1,0 0,0 v -1 z m -17,4 v -2 2 -1 l -1,-2 h 1 l 1,3 z m 18,-5 v -1 l 1,-4 2,-4 1,-4 v -4 l -1,-1 h 1 l 1,1 1,1 1,1 h -1 l -2,-2 v 6 l -1,3 1,1 1,1 v 1 l -1,1 v 1 l -1,-1 v -2 l -2,1 -1,3 v 1 l 1,-1 h 2 v -1 h 1 l -1,1 z m 2,-1 1,-1 h 1 -3 l -1,1 z m 2,-3 1,-1 h -2 z m 1,-1 v -1 l -1,-1 -1,-1 v -1 1 l -1,1 h 1 v 1 l -1,-1 v 1 h 1 l 1,1 z m -23,11 z m 29,-12 v -1 2 -1 l 1,-1 v -1 q 0,1 0,0 v 2 l -1,1 z m -32,12 h 1 v -3 l -1,1 v -1 l 1,-2 v 2 l 1,2 h -1 z m 2,-1 v -1 z m -12,4 2,-1 3,-2 -4,2 -2,1 z m 16,-7 q 0,1 0,0 v -1 q 2,0 3,-2 l 1,-1 h 1 -4 l -1,1 -1,1 v -1 q 1,0 0,0 h -2 v 2 -1 l -1,-1 h 1 l 4,-1 q 2,-1 0,-1 l -1,1 h -4 v 1 h -1 v 1 l -1,1 -4,3 -2,1 h 1 l 1,-1 4,-3 v -1 q 1,0 0,0 l -2,1 h -2 q -1,1 0,0 h 1 l 2,-1 2,-1 h -6 5 l 1,-1 h -4 7 l 3,-1 h -5 3 l 1,-1 h -2 1 l -1,-1 -4,-2 h -1 1 l 3,1 2,2 3,1 1,1 h 1 v -1 h -2 v -1 l 1,1 3,1 v -1 h -1 5 l 1,-1 1,-1 -4,1 -3,1 h -1 l 1,-1 h 3 v -1 h 4 l -1,1 -2,1 -3,1 -2,1 -3,2 z m -19,7 h -1 1 -2 l 2,-1 h 3 l 1,-1 z m 9,-3 h -1 l 2,-2 2,-1 1,-1 -4,3 z m -14,4 -1,1 1,-1 h 3 z m 23,-8 h 1 z m -14,5 z m 40,-15 h -1 l -1,-1 h -1 l -2,1 3,-1 1,1 z m -38,14 z m 1,0 z m 39,-15 v -1 z m -44,15 -4,1 h -1 1 l 6,-2 h 2 v -1 l -2,1 z m 4,-2 2,-1 h 2 -1 l -2,1 z m 9,-3 v -2 1 z m -21,7 h -1 l 1,-1 1,-2 1,-1 v -2 l 1,-1 1,-1 1,-2 1,-2 1,-1 1,-1 h 1 -1 l -2,2 -1,2 v 2 q -1,0 0,0 v -1 l -1,1 -1,2 1,-1 h -1 l -1,3 h -1 v 3 h -1 z m 16,-6 h 1 z m 35,-13 z m -34,13 z m -3,1 3,-2 v 1 h -1 z m 3,-2 h 1 z m 18,-7 -4,-1 3,1 2,-1 h 1 l -1,1 h -1 2 z m 16,-5 v -1 l -1,-3 -2,-3 -1,-2 1,1 v -1 l -1,-2 -2,-1 -3,-4 -1,-1 h -1 l -2,-1 h -1 v 1 l -1,-1 -1,-1 h 1 l 1,1 2,-1 h -1 l 2,1 1,2 h 2 v 1 h 1 v -1 h -1 v -1 1 h 1 v 1 -1 2 h 1 -1 l 3,3 1,3 1,2 1,1 1,3 z m -14,-18 h -1 z m -28,32 z m 4,-1 h -2 l -3,1 h -4 1 l 6,-1 2,-1 z m 16,-6 -2,-1 -1,-1 v 1 h 4 z m -26,9 -1,-1 z m 44,-16 v -1 z m 2,-2 z m -12,4 v -2 z m -7,2 h 1 z m 19,-6 z m -24,7 -2,-1 2,1 h 1 z m 22,-8 -1,-1 h 1 z m -7,2 -2,-4 v -3 l -1,-4 -1,-2 h 1 v 2 l 1,5 1,2 1,4 v 1 z m -3,1 v -2 z m -4,2 h -2 z m -7,2 z m -20,7 1,-1 2,-1 2,-1 -1,-1 h 1 q -1,0 0,0 0,1 0,0 h 1 l -1,1 z m 17,-7 h -2 l -1,-1 h -1 1 l 1,1 z m 7,-3 h -1 1 v 1 z m 7,-3 v -1 z m -19,6 h -2 v 1 -1 h 3 z m 5,-1 z m 7,-3 z m -18,6 v 1 z m 1,0 1,-1 h 2 -1 z m -5,2 v -1 l 2,-1 1,-2 -1,2 -1,1 z m 24,-9 z m -20,6 h 1 z m 3,-1 z m 3,-1 h -1 z m 3,-1 z m -6,2 h 1 z m 11,-4 -1,-1 h 1 l 1,1 z m 13,-8 -1,-4 -1,-1 1,2 v 1 -2 2 l 1,4 h 1 v -1 2 z m -8,6 v -1 1 h -1 z m 1,0 v -3 1 l -1,-1 h 1 v -3 3 l 1,1 1,1 h -1 1 l -1,-1 -1,-1 v 1 z m 9,-5 v -2 1 -2 l -1,-3 v -1 1 -1 l -1,1 v -1 h 1 l -1,-1 h 1 l 1,1 v -1 1 l 1,2 1,1 v -1 h -1 v 1 -1 l -1,-1 v -1 1 h -1 v 1 l 1,2 q 0,1 0,0 l 1,-1 v 1 l -1,2 v 3 z m -25,10 z m 4,-1 h -1 z m 2,-2 -7,1 -2,1 h 2 -1 l -1,1 h -1 l -1,1 h -2 1 l 2,-1 h 1 -1 1 l 2,-2 2,-1 3,-1 h 1 l 1,-1 v -1 l -1,-2 h 1 v 3 h 1 -1 v 1 h 2 -1 l -6,1 -2,1 h 3 v -1 h -1 q 0,1 0,0 h 6 z m 12,-5 -1,-3 v -1 l 1,3 1,2 z m -16,7 h 1 z m 26,-10 h 1 z m -28,11 q 0,-1 0,0 z m -1,0 z m 2,-1 h -1 2 z m 25,-10 v -2 z m 3,-1 h -2 z m -15,5 z m -7,2 h 1 v -1 l -1,-1 -1,-3 v -3 h 1 v 7 l 1,-1 -1,-1 1,1 v 1 l 1,-1 v -2 l -1,-1 v -1 l 1,1 v 1 l 1,-1 v -4 1 l 1,1 -1,-1 v -2 l 1,-2 1,-2 v 2 l -1,2 v 2 q 0,1 0,0 l 1,-1 -1,2 -2,3 v 1 h 1 l 1,-1 v -3 l 1,-1 -1,1 v 2 l 1,-2 v -1 1 l -1,2 v 2 l -2,1 v 1 h -1 v 1 z m 2,-3 v 1 z m 8,-1 h 1 z m -2,1 v -1 h 1 -1 z m 11,-4 v -1 h 1 v 1 z m 2,-2 -1,-1 h 1 v 1 h 1 z m -14,5 q -1,0 0,0 z m 3,-1 z m -3,1 v -1 z m 0,-1 h -1 l -2,1 q 1,0 0,0 0,-1 0,0 l 2,-1 1,1 z m 17,-6 -1,-1 h -1 q 0,-1 0,0 h 2 z m 1,-1 v -1 l 1,1 z m -18,7 z m 12,-4 z m -9,2 z m -9,3 -1,-2 v -3 2 l 1,2 z m 23,-9 -1,-1 h -1 3 v 1 z m -2,0 h 1 z m -15,5 v -1 z m 7,-3 v -2 z m -15,6 v -3 h -4 l -5,-2 -4,-2 -2,-2 -1,-1 h -1 2 -1 l 1,1 h 1 -1 l 1,1 h 1 -1 l 1,1 h 2 v 1 -1 q -2,0 1,1 l 1,1 q 6,3 8,2 h 1 v -4 l -1,1 h -1 l -4,-1 -5,-1 -1,-1 -2,-1 2,1 2,1 4,1 4,1 h 1 l 1,-1 h 1 v 1 l -1,3 z m -15,-9 v -1 z m -1,0 v -1 z m 30,3 h -1 l 1,-1 z m 11,-4 h -1 v -1 z m -11,3 z m 6,-2 v -1 1 h 1 z m -12,4 1,-2 q 0,-1 0,0 v 1 z m 15,-6 h 1 v 1 z m -2,1 h 1 z m 0,0 h -1 1 v -1 z m 2,-1 z m -22,8 v -2 1 z m 15,-7 v 1 z m -9,4 v -1 z m -4,1 v -3 l 1,-1 -2,1 -1,1 2,-2 h 1 l 2,-1 h 2 v -1 1 h -3 l -1,1 v 2 -1 l -1,1 z m 7,-2 z m 9,-4 z m -9,3 h 1 z m 13,-5 -1,-1 -2,-1 v -1 1 q 1,0 0,0 v -1 l -1,-1 -1,1 h -2 l 1,-1 1,1 1,-1 1,1 1,1 v 1 h 1 z m -14,5 1,-1 v 1 z m 1,0 v -1 z m -9,2 v -1 l 1,1 z m 17,-6 -1,-1 h -1 l 1,-1 -1,1 h 1 z m 4,-1 z m -9,3 z m 8,-3 q -1,0 0,0 z m 1,0 q 0,-1 0,0 z m -14,4 v -1 l 1,-1 v -2 h -1 v -1 l 1,1 v -1 l -1,-1 v 2 l 1,1 h -1 v -8 l 3,-1 h 2 l 1,2 v -1 1 q 0,1 0,0 v -1 h -1 l -2,-1 h -1 l 1,1 -1,-1 -1,1 -1,1 v 2 l 1,-1 v 1 h -1 v 2 q 1,0 0,0 v -1 l 1,1 v 3 q 0,1 0,0 v 2 -1 z m 12,-4 z m -13,5 v -1 z m -1,0 z m 9,-4 z m 1,-1 h -1 1 q 1,1 0,0 0,1 0,0 z m -11,5 v -1 h 1 -1 z m 1,-1 h 1 z m 8,-3 v -1 q -1,0 0,0 l 1,1 z m 3,-1 z m -9,2 z m 8,-3 h 1 z m -5,2 h 1 z m 2,-1 1,-3 -1,-2 h -3 1 v -1 l 1,1 h 1 l 1,1 v 1 -1 2 l -1,1 z m 1,-2 v -1 z m 2,1 z m -1,0 -1,-1 h 1 z m 1,-1 h -1 z m -5,1 h 1 z m 5,-1 v -1 z m -1,-1 q -1,0 0,0 l 1,1 z m -4,1 q 0,1 0,0 z m 4,-1 v -1 z m 0,-1 v -1 z m -3,1 v -1 h 1 v 1 z m 1,-1 h -1 z m 1,-1 v -1 2 z m -4,2 q -1,0 0,0 v -1 1 q 1,0 0,0 z m -1,0 z m 1,-1 h -1 2 z m 2,-2 h 1 z m 1,0 z m -28,9 q 1,0 0,0 z m 26,-9 h -1 v -1 z m -1,-1 z"
               aria-label="H"
               id="path38" />
            <path
               d="m 1064,1128 -1,1 -1,1 h -2 l -1,-1 1,-2 1,-1 v -1 l -1,-1 -2,-1 -1,-1 h -1 l 1,1 v 1 l -1,-2 1,1 v 1 l -1,-1 v 1 h -2 l -2,-2 v -1 1 h 1 l 1,1 1,-1 h -2 l -1,-1 -1,-1 2,1 1,1 -1,-1 h 1 -1 l -1,-1 h -5 l 1,-1 h 4 l 2,1 v 2 h 1 v -1 l -1,-1 v 1 -1 l -2,-1 v -1 h -6 l -1,-1 1,1 h 4 l 2,-1 1,1 h 1 l -2,-1 h -1 2 l 1,1 v 1 h 1 l 1,-1 v 1 h -1 v 1 h 1 v 2 h 1 l 2,1 q 3,2 2,3 v 1 h -1 v 3 h 1 v -4 h 1 -1 v 1 l 1,2 v -1 l 1,-2 -1,1 1,1 q 1,1 0,0 l 1,-1 h 1 v -1 1 l 1,-1 -1,-1 v -1 l -1,-2 -2,-1 -3,-3 -3,-2 -1,-1 -2,-1 h -1 l 2,2 h -1 1 v 1 l 1,1 -1,-1 -2,-1 -1,-1 h 1 v 1 h 1 l -2,-1 -1,-1 h 2 -2 v -1 h -1 q 0,-1 0,0 l -1,-1 -1,-1 h -1 1 v 1 l -1,-1 -2,-1 q 1,0 0,0 h -4 1 l 2,-1 h -1 2 l 1,-1 v 1 h 1 v -1 l 1,-1 v -3 l 1,3 -1,1 h 1 l 1,1 h 4 -3 l 1,1 h 1 -1 l -1,-1 h -6 l 1,1 2,1 1,1 2,1 h 1 -1 2 -1 l -2,-1 -1,-1 -1,-1 3,2 2,1 q 1,0 0,0 h 1 l 2,1 1,1 h 1 v -1 h -1 1 v -1 l 1,-1 v 2 l -1,1 q 1,0 0,0 l 1,2 2,2 2,1 3,2 1,2 v 3 z m -4,2 v -2 l -1,1 h 1 z m -4,-7 h -1 z m 0,0 -1,-1 v 1 z m -1,0 q -1,0 0,0 z m -1,0 z m 2,-1 v -1 l -1,-1 v 2 z m -2,-3 q -1,0 0,0 0,1 0,0 z m 0,0 v -1 z m -1,-1 1,1 z m 0,0 -1,-1 v 1 z m -4,-6 v -1 z m 38,-3 h -1 v -5 l -2,-1 -2,-1 h -9 l -3,1 v 1 l 1,2 1,1 h 2 l 1,1 1,3 v 4 l -1,1 -1,2 -1,1 h -1 v 1 h -2 v -3 l 1,-1 1,-1 v -1 l -1,-3 -2,-1 h -2 l -1,-1 h -3 l -1,-1 -1,-2 -1,1 -1,2 v 1 l -1,1 h -1 1 v -1 h -1 1 q 1,0 0,0 v -1 h -1 2 l -1,-1 h 1 v -1 l 1,-1 h -1 l -1,1 v -1 h -1 3 v -1 h 1 l -1,-2 h -1 1 l 1,1 v -1 1 h 1 v -2 1 -2 1 l 1,1 -1,-1 h 1 q 0,-1 0,0 h 1 v -1 q 0,1 0,0 l -1,-2 1,1 v -1 l -1,-1 h 1 v 1 -1 h -1 v -1 h -1 1 l 1,1 1,1 v 1 l 2,1 3,1 h 3 l 2,-1 h 1 l 1,1 h 7 -1 1 l 3,3 h 1 -1 v 2 l 1,1 v -1 h 1 l -1,-2 h 1 v 1 q 0,1 0,0 h 1 l 1,-1 v -2 l -1,-1 -2,-2 -2,-1 -2,-1 h -2 l -3,-1 -2,-2 h -1 l -1,-1 h -1 l -1,-1 -1,-1 -2,-2 -2,-1 h -1 l -2,-1 h -1 3 q 1,0 0,0 h 7 v -1 h 2 l 2,-2 1,-1 q 0,-1 0,0 v -1 l 1,-1 v -1 2 -4 l -1,-2 -1,-1 h -6 l -3,1 -3,3 -3,2 h -1 l -4,1 v 1 h -1 3 -2 l 1,1 q 0,-1 0,0 v -1 l 2,-1 h 1 q 1,0 0,0 v 1 l -3,2 h -1 2 l 1,-1 1,-1 2,-2 4,-3 5,-2 h 3 q 3,0 3,2 v 3 l -2,3 -2,1 -7,1 h -5 l -2,1 h -1 l -1,1 -4,2 -1,1 -2,1 -3,4 -2,2 v 1 l -1,1 -1,1 -1,1 h -1 v 2 -2 h 1 v -1 l -1,1 v 1 l -1,1 v -5 h 1 l -1,1 v 1 -1 1 h 1 l 1,-1 v 1 l 1,-1 1,-1 1,-1 3,-4 3,-3 8,-5 h 6 l 7,-1 3,-1 2,-4 v -2 l -1,-2 h -3 l -5,1 -1,1 -3,2 -3,3 -2,1 -3,1 h -4 v -1 h 1 -2 3 v -1 h -3 4 v -1 l 2,-1 h 4 l 2,-2 5,-3 3,-2 5,1 2,1 1,4 -3,5 -2,1 -5,1 -2,1 4,3 4,3 1,1 5,1 h 1 l 2,1 4,4 2,1 v 2 l -1,1 -2,2 z m 0,-1 v -3 l -1,1 v 2 z m -15,11 v -2 l 1,-1 v 2 q 1,0 0,0 l 1,-1 2,-2 v -1 l -1,-1 v -5 l -2,-1 -2,-1 -1,-2 -1,-1 -1,-1 h -2 v 1 h -1 v -1 l 1,-1 h -1 v 1 l -1,1 v 1 -1 l -1,-1 1,2 h -1 v -1 l -1,1 -1,1 1,1 1,2 3,1 h 2 l 1,1 h 2 l 1,1 v 6 l -1,1 v 1 z m 3,-4 v -1 h -1 v 1 -4 l -1,-2 -1,-1 h -1 l -1,-1 1,1 h 1 l 1,1 q 0,-1 0,0 h 1 v 4 q 0,-1 0,0 z m -1,-5 z m -4,-2 h -1 v -1 1 l -1,-1 v -1 l -1,-1 1,1 v 1 -1 h 1 v 1 h 1 v 1 -1 1 h 1 z m -2,-1 z m -1,0 z m -1,0 v -1 l 1,1 z m 5,12 v -3 1 h -1 l 1,2 q 0,1 0,0 z m -12,-11 z m 7,-6 -1,1 z m -6,4 v 1 z m 4,-4 v 1 z m 0,1 v -1 z m -1,-1 z m 9,-14 z m -2,0 h -1 z m -1,0 v 1 z m -2,0 z m -24,14 z m 18,-18 h -1 l -1,1 h -2 l -2,1 h 1 v -1 h 3 z m -6,1 h 1 z m -8,55 -2,1 -1,-1 1,-3 1,-1 1,-1 v -1 h -1 l 1,-2 h 1 l -1,1 v 1 l -1,2 v 1 l -1,2 1,1 h 1 l 1,-1 1,-1 -1,1 h -1 v -3 h 1 l -1,1 v 2 -1 h 1 l 1,-1 1,-2 v -1 2 l 1,-1 v -3 l -1,-4 -1,-2 h -2 2 l 2,2 v -1 h -1 l 1,1 v 2 -1 7 l -1,2 z m -2,0 h 1 z m 5,-3 q -1,0 0,0 z m -5,1 1,-1 -1,1 v 2 z m -1,1 z m 7,-10 z m 39,-26 h -1 v -1 q -1,0 0,0 l 1,2 h 1 z m -26,22 v -1 z m 0,-1 v -1 h -1 l -1,-1 -2,-1 h 1 l 1,1 2,1 z m -12,6 v -3 q 0,-1 0,0 v 1 l -1,-1 -1,-1 1,1 v -1 l -1,-1 h -6 1 l 2,-1 h -1 1 l 1,1 h 3 -1 1 l 1,2 v 1 l 1,1 v -2 l -1,-2 -2,-3 1,1 1,1 h 1 l -1,-1 -1,-1 1,2 h 1 l 1,1 h 1 l -2,-2 h -1 1 l 1,1 h 1 -2 l 2,1 v -1 h 1 q 0,1 0,0 v 1 h -3 l -1,-1 v 1 l 3,1 h 1 -1 l -2,-1 h -1 l 1,1 z m 35,-29 v -1 h -3 l 1,-1 q 0,1 0,0 h -2 v -1 h -1 l 1,1 h 1 q 0,-1 0,0 h 1 l 1,1 h 1 z m -3,-2 z m -25,25 z m -10,6 v -1 q 0,1 0,0 v 2 z m -4,4 -1,-1 h -3 q 2,0 0,0 l -1,-1 q -2,0 -2,-3 v -1 1 l 2,2 h 1 l 1,-1 v -1 l -1,-1 v -1 l -1,-3 v -2 3 h 1 v -1 l -1,-1 v -1 l -1,-1 v -2 2 -2 h -1 l -1,-1 -2,1 h -3 3 l 2,-1 h 1 l -1,-1 h -1 2 -1 v -1 l 1,1 -2,-2 h -1 2 l 1,1 1,4 2,2 2,1 1,-1 2,-1 2,-1 -3,2 v 1 h -4 q 0,-1 0,0 l 1,2 h 1 -1 l -1,-2 q -1,0 0,0 v 3 l 1,2 v 1 -3 q -1,-2 0,0 v 5 l -1,1 -1,-1 h -1 v -1 h -1 l 2,2 1,1 h 3 v -1 h -1 1 l 1,1 v -1 l -1,-1 q -1,0 0,0 0,1 0,0 h -1 l -1,-1 h 1 v -3 l -1,-1 1,1 1,1 h 2 -3 v 2 h 2 -1 1 v 1 h 1 v 1 -2 1 -1 l -1,-1 2,1 v 3 -3 1 l -1,1 v 1 q 0,-1 0,0 v -1 l -1,-1 -2,-1 v 1 h 1 l 1,1 1,1 z m 0,-1 z m -2,0 z m 0,0 h -1 z m -2,-8 h -1 l 1,1 z m -2,-7 h -1 l 1,1 z m 10,12 v -2 1 l 1,1 -1,1 z m -1,2 -1,-3 -1,-1 1,1 1,1 v 1 z m 9,-9 h 1 z m -7,6 v -1 q -1,-2 -4,-1 l -3,-1 -1,-1 h 1 v 1 h 6 v 1 l 1,1 z m -7,5 h -3 l -1,-1 -1,-2 -1,-1 -1,1 v 2 l -1,1 -2,-1 h -2 v 1 -1 h -1 v 1 -1 l -1,-1 h -2 v -7 l -1,-1 v -3 l -1,-2 -1,-1 v -6 h -1 l 1,-1 1,2 q 0,1 0,0 v 4 h 1 v 1 -1 h -1 l -1,-1 1,1 1,1 h -1 v -1 h -1 v 1 l 1,1 h 1 v 2 l 1,3 v 6 l 1,2 h 1 v -2 2 h 1 q -1,-1 0,0 h 1 l 2,-1 -1,-1 q 0,1 0,0 h 1 v -1 1 -2 h 2 -1 l -1,2 1,-1 v 1 h -1 v 2 l 1,1 h 1 q -1,0 0,0 l 1,-1 h -1 q 1,0 0,0 v -1 h 1 l 1,-2 h 1 v 1 l 1,3 h 1 l 1,1 z m -4,-1 q 1,0 0,0 z m -7,-1 h -1 v 1 z m -2,1 v -1 z m 18,-4 v -1 1 l -1,-1 -2,-1 h -1 2 l 1,1 h 1 v 1 q 1,0 0,0 z m 0,-1 -1,-1 1,1 1,1 z m -4,4 h -2 v -1 l 1,1 z m 15,-13 h -1 z m -8,6 -1,-1 h -1 1 z m -6,5 -1,-1 h 1 z m -4,2 h -1 q 0,-1 0,0 z m 3,-3 z m 2,-1 h -1 z m 34,-29 q -1,0 0,0 z m 1,-1 -3,-1 2,1 z m -40,32 v -2 z m -1,-1 v -1 h -1 q 0,1 0,0 l 1,1 1,1 z m 7,-5 h -1 l -1,-1 z m 1,-2 v 1 l 1,-1 z m -12,10 q 1,0 0,0 z m 3,-3 -1,-2 -1,-1 v -1 l 1,1 v -1 1 l 1,1 h -1 l 1,2 1,1 z m 6,-5 h 1 z m -8,8 h -1 v -1 h 1 z m 18,-16 h -1 v -1 1 h 1 v 1 z m -10,8 h -2 3 z m -5,4 v -1 z m -8,6 z m 45,-37 h -1 l 1,1 z m -24,20 -2,-1 q -1,0 0,0 l -1,1 h -2 1 q 1,0 0,0 l 1,-1 v -1 l 2,1 z m -14,11 v -2 l -1,-2 v -1 l 1,2 z m 38,-31 h 1 z m -42,35 h -1 z m 1,-1 h -1 z m 4,-4 v -1 l -1,-1 v -1 h 1 z m 34,-28 h -1 l -1,-1 1,1 h 2 z m -37,30 v -1 h -1 l -1,1 h -1 l 1,-1 h 1 v -1 h -1 v -1 l 1,1 1,2 h 1 z m -2,2 z m 41,-34 z m -39,32 -1,-1 h 1 z m 21,-17 h -1 l 1,-1 z m -2,1 h -1 z m -18,15 h -1 v -1 z m 34,-29 -1,-1 h 1 v 1 h 1 z m -37,31 1,-1 z m -1,0 z m 21,-17 z m -18,14 q -1,-1 0,0 1,0 0,0 z m 39,-32 z m -39,32 -1,-1 1,1 h 1 z m 6,-5 h -1 l -1,-2 -1,-1 1,1 1,2 z m -11,9 q 0,1 0,0 z m 13,-11 -2,1 -2,-3 -2,-4 1,1 v -1 l -1,-1 h -1 l 1,1 h 1 v 1 -1 l 1,1 1,3 -1,-1 v -1 1 -1 l -1,-1 v 1 l 1,1 2,3 h -1 v -1 q 2,2 3,1 h 1 z m -5,-5 h 1 z m -2,11 -1,-2 v -1 l 1,2 z m 17,-14 -1,-1 -1,-1 1,1 2,1 z m -24,20 v -1 z m 43,-35 v -1 l -1,-1 1,1 z m -43,35 h -1 z m 1,-1 z m 22,-18 h -1 z m 1,-1 h -2 z m -10,8 -2,-1 -1,-3 -1,-2 h 1 l 2,1 h 1 -1 l -2,-1 h -1 l 1,1 1,1 1,2 -1,-2 h -1 v 1 l 1,2 z m 3,-4 -1,-1 h -1 l 2,1 1,1 v -2 h -1 v -1 l -1,-1 -2,-1 h -1 3 l 2,3 v 2 z m 21,-16 z m -38,31 h -1 z m 9,-7 h -1 v -1 l -1,-2 -1,-1 1,1 1,2 v 1 -2 1 z m 10,-9 h 1 z m -7,6 h -2 v -2 1 l 1,1 z m 3,-2 h -1 l -1,-1 v 1 l -1,-1 v -1 1 h 1 -1 2 z m -15,12 v -1 z m 10,-9 h 1 z m -7,6 z m 12,-11 q -1,0 0,0 z m 6,-5 h -2 q -1,-2 -3,-2 l 3,1 q 2,2 3,1 z m 4,-2 h -1 l 1,-1 v -1 h 1 l -1,1 v 1 -1 z m -22,17 z m -4,3 q 0,1 0,0 1,0 0,0 z m 2,-1 v -1 l 1,-1 v 1 z m 9,-8 -1,-1 1,1 v 1 z m 6,-5 h -4 z m -16,13 z m -3,2 q 0,1 0,0 1,0 0,0 z m 9,-8 v -1 l 1,1 q 0,1 0,0 z m 30,-23 v -1 z m 6,-5 z m -43,35 v -1 h 1 -1 z m 24,-20 q 0,-1 0,0 z m 12,-10 v -1 l 1,1 z m -34,28 v -1 z m 17,-14 v -1 z m -18,15 v -1 z m 22,-19 -2,1 -1,-1 -1,-1 h -1 l 2,1 1,1 h 1 l -2,-1 z m -9,7 v -1 z m -8,6 z m 11,-9 -1,-1 h -3 4 l 1,1 z m -16,13 h -1 z m 7,-5 -2,-2 v 1 l -1,-1 h -1 v 1 q 0,-1 0,0 h -1 l 1,-1 h -1 3 l 1,1 z m 34,-28 h -1 v -1 z m -13,10 v -1 z m 3,-3 v -1 h -2 2 -1 v -1 h 1 l 1,1 h -1 l 1,1 z m 1,-1 q 1,0 0,0 v -1 h -1 1 z m 2,-1 v -1 z m 0,-1 h 1 z m 6,-4 h -1 z m -11,8 h -2 1 v -1 h 1 v 1 -1 z m 9,-7 -1,-1 h 1 v 1 h 1 z m -10,9 -1,-1 z m -6,4 h -2 z m 8,-7 v -1 1 h 1 z m -32,26 -1,-1 z m 8,-7 h -1 l 1,-1 1,1 z m 24,-19 h -1 z m 8,-7 v -1 z m -33,27 q -1,0 0,0 z m 8,-7 h -3 v -1 q -2,-2 -5,-2 h -1 3 l 3,2 2,1 z m 10,-8 v 1 h -1 v -1 z m 4,-3 h -1 z m -24,19 h 1 z m 5,-4 -1,-2 v -1 h -1 q 1,-1 2,1 z m 32,-26 h -1 v -1 h -1 v -1 l 1,1 v 1 z m -36,29 h -1 z m 19,-16 h 1 z m 15,-11 -1,-1 h 1 z m -13,10 z m -27,22 v -1 z m 34,-28 z m -3,2 h -1 1 q 1,0 0,0 z m -20,16 h -1 v -1 z m 5,-5 h -2 3 z m 23,-18 v -1 z m -40,32 q 1,1 0,0 l -1,-1 v -1 l -1,-1 1,1 h 1 l 1,-1 h 1 v 2 -1 l -1,1 z m 1,-1 h -1 z m 0,-1 q 1,0 0,0 v 1 z m 6,-3 h -3 1 l 2,-1 1,1 z m 6,-5 v -1 l -2,-2 1,1 1,1 z m 8,-7 q 0,-1 0,0 z m 18,-16 v 1 z m -6,5 h 1 z m -19,15 -2,-1 v 1 h 2 -2 3 z m -8,7 v -1 1 h -2 l 1,-1 2,-1 v 1 h -1 1 z m 25,-20 z m -22,17 -2,1 -1,1 1,-1 1,-1 z m 2,-2 h -1 z m -9,7 v 1 -1 h -1 z m 12,-10 h -1 2 z m 26,-21 z m -37,30 z m -1,1 q 0,-1 0,0 z m 1,-1 z m 15,-13 1,-1 v -1 1 z m -1,1 v -3 1 h 1 l -1,-2 h 1 v 3 -2 z m 3,-2 1,-1 z m 0,-1 h 1 z m 14,-12 v 1 z m -35,29 z m 34,-27 -1,-1 h 1 z m -25,19 -1,1 h -1 1 z m -3,3 v -1 l 1,-1 v -1 1 l -1,1 z m 11,-9 h -1 l -1,1 1,-1 h 1 l 1,-1 z m -12,10 h -1 q 0,-1 0,0 l -1,-1 v -2 h -1 v -1 l 1,1 1,1 v 1 z m 16,-14 h 1 z m 15,-12 h -1 z m -26,20 -2,1 3,-1 z m 23,-18 z m -28,23 h -1 1 v -1 l 1,-1 v -1 1 z m 11,-10 -1,1 -5,1 1,-1 q 2,0 2,-2 l 1,-3 v -2 6 h -1 1 l 1,-1 v -4 4 l -1,1 h 1 -1 l -1,1 q -1,0 0,0 l 2,-1 h 2 -1 1 v -1 l 1,1 z m 20,-16 h -1 z m -24,19 h -2 3 z m 27,-21 h -1 z m -28,22 v -1 h -3 3 z m -1,-1 z m -1,0 h 1 z m 8,-4 v -2 l -1,2 v -1 l 1,-1 q 0,-1 0,0 v 1 l 1,1 z m -12,10 v -2 2 h -1 z m 13,-11 z m -16,13 v -1 z m 1,-1 z m -2,1 v -3 2 z m 3,-2 v -2 l 1,-2 1,-1 -2,2 z m 15,-13 q 0,1 0,0 z m 16,-14 -1,1 v -1 z m 1,-1 z m 0,0 q -1,0 0,0 z m -31,25 1,-2 h 1 l -1,1 z m 7,-6 z m 1,-2 v -3 4 h -1 l 1,-1 -1,-3 v -1 1 l -1,-1 -1,-1 v 1 h 1 v -1 l 1,1 2,3 -1,2 z m -13,11 v -2 l -1,2 1,-2 1,-2 v 1 l -1,1 v -3 h 1 v 2 l 1,-1 v -1 1 l -1,2 z m 9,-8 h 1 z m 2,-1 -3,1 -3,1 -2,1 h 1 l 2,-2 2,-1 h -1 l 3,-1 -1,1 h 1 q 2,0 2,-3 v -1 1 z m -3,2 h -3 l -2,3 v 1 l 1,-3 2,-1 z m -6,4 v -1 l 1,-1 1,-2 v -1 1 l -1,2 -1,2 q 0,1 0,0 z m 0,-1 z m 7,-6 -1,1 1,-1 2,-1 -1,1 z m -11,9 v -2 l 1,-1 v -1 l -1,-1 v 1 h -1 l 1,-1 h 1 v 2 z m 1,-2 v 1 z m 12,-9 v -2 l -1,-1 v 1 l -1,2 v -1 l 1,-2 -1,-1 1,1 1,1 z m -2,1 h -1 l 2,-1 v 1 z m -1,1 h -2 l -2,1 q -1,0 0,0 l 2,-1 z m 2,-2 v -1 h 1 -1 z m -10,8 -1,-1 z m 35,-29 h -2 2 q 1,0 0,0 z m -33,26 v -1 l 1,-1 2,-1 -2,1 z m -4,3 v -1 z m 10,-8 -3,1 1,-1 2,-1 1,-2 v -1 h -1 v 2 -3 h 1 v 4 z m 1,-1 h -1 v 1 -1 z m 0,-2 v 1 z m -9,8 z m -1,1 v -4 h 2 l 1,-2 1,-2 h 1 l -1,1 -1,1 v 1 l -3,2 v 2 z m 1,0 v -2 z m 7,-9 -1,1 h -2 2 l 1,-1 1,-1 z m 1,-1 -1,-1 h 1 z"
               aria-label="G"
               id="path40" />
            <path
               d="m 887,1206 1,-1 h -1 v -1 q 1,0 0,0 v -2 1 -2 h -1 l -1,-1 v -1 1 l -1,-1 h -1 v -1 1 -1 h -2 v -1 h -1 1 -1 l -1,-1 h -1 1 -1 1 l 4,2 h 1 v 1 l 1,-1 v 1 -1 l 1,1 v 1 l 1,1 v 1 q 0,-1 0,0 v 1 l 1,1 v -2 l -1,-3 v -1 l -1,-1 -1,1 v -1 h 1 l -1,-1 -3,-1 h -5 v 1 -1 h 1 v -1 h -2 l -2,2 -4,4 -1,2 v 2 l 1,-2 1,-2 2,-1 1,-1 h 1 l 1,-1 h 2 q 0,-1 0,0 l -2,1 h -1 l 2,1 h 3 v 1 l 2,1 1,1 1,4 -1,2 v 1 -4 l -1,-1 v -1 h -1 q 0,1 0,0 h -1 v -1 h -1 l -1,-1 h -2 l -2,1 h 2 l 1,1 h 1 l 1,1 1,1 1,3 -1,3 h -1 v 1 h -1 1 v -3 1 -2 l -1,-1 v -1 h -1 l -1,-1 h -1 l -1,-1 v 1 l -2,1 -4,2 -2,1 -1,1 -1,1 h -6 l -3,1 h -3 l -1,-1 h -3 q -2,2 -4,0 h -2 v 2 -1 1 l -1,1 v 2 -1 1 l 1,1 h -1 v 3 h -1 l 1,1 v 2 l 1,1 -2,-2 -1,-3 v -1 h -1 v -6 l 1,-1 1,-1 1,-1 1,-1 1,-1 h -4 v 2 h -1 v 2 l -1,-1 v 2 h -1 v 4 -1 l -1,1 v 5 l -1,-1 v -1 l -1,-3 1,-2 v -2 l 1,-3 1,-1 2,-2 v -2 h -2 l -1,1 -1,1 h -1 v 3 h -1 v -1 2 q 1,1 0,0 v 1 h -1 l 1,1 h -1 v 1 l 1,2 -1,-1 -1,-3 v -3 l 1,-2 1,-1 q -1,-1 2,-2 v -1 l 1,-1 h 2 l 4,1 h 1 l -3,-1 -4,-1 h -2 l -2,1 -1,3 v 1 -2 1 l -1,1 v 1 -1 h -1 v 2 l -1,1 v -1 2 q 1,1 0,0 v 1 l 1,1 h -1 l -1,-2 v -5 l 2,-3 1,-1 1,-1 h 2 v -1 l 1,-1 h 3 l 3,2 2,1 h 1 -1 l -2,-4 v -1 h -1 l -2,-1 h -3 l -2,-1 -1,-1 v -1 l -1,-2 v -7 l 2,-3 2,-2 7,-2 h 3 l 3,1 v 1 h -2 l -3,1 h -1 4 l -2,1 -2,2 -1,2 -1,1 -2,2 -2,2 2,1 2,3 h 1 v -3 h 1 l 1,-1 3,-2 1,-1 h 2 v -2 h 1 l 1,1 h 2 l 6,-1 h 3 l 1,1 v -1 l 1,-1 -1,-1 -1,1 v 1 -2 h 2 v 2 h -1 2 l 1,-1 h 3 l 4,2 h 1 v -2 l 1,-2 h -1 l -2,-1 h -8 l -2,-1 h -2 1 l 1,-1 h 1 l -1,1 h 2 l 3,1 2,-1 h 2 l 3,1 h 1 l 1,-1 1,-1 -1,1 v 1 l 1,1 1,1 h 2 l 1,-2 v -2 l -1,-1 -1,-1 h -1 l -1,-1 v -1 l -2,-1 -4,-1 q -4,0 -9,4 l -1,2 1,-1 4,-1 h 2 l -3,2 h -2 l 4,-1 1,-1 h -2 l -1,1 h -2 l -3,2 v -1 l 1,-1 2,-2 1,-1 6,-2 h 4 l 3,1 1,1 v 1 h 1 v 1 l 1,1 1,1 1,2 -1,1 -1,1 h 1 v 1 l -1,2 -2,2 h -1 v 1 h -1 l -1,1 v 3 l -1,3 v 1 -1 h 1 v -1 l 2,-2 q 2,-3 4,-2 l 1,-1 1,-1 h 6 l 2,2 v 3 -2 l -1,-2 -1,-1 h -4 l -1,1 h -2 v 1 h -2 l -3,3 -3,4 -3,5 2,-2 2,-3 5,-4 h 1 l -1,-2 h 1 q 0,-1 0,0 v 1 h 1 l 1,-1 h 1 v -1 h 4 v -1 l 1,1 1,1 h 1 v 1 h -1 v -1 h -1 l -1,-1 v 1 l -1,-1 v 1 h 1 -1 l -1,-1 h -1 l -1,1 -1,1 h -1 l -2,2 h -1 l -1,1 h 2 l 2,1 h 4 l 2,2 1,1 1,2 v 6 z m -3,0 -1,-3 v -1 l -1,1 1,2 v 2 h 1 z m -4,4 v -4 l -1,-2 -2,-1 -3,-1 -1,1 1,1 h 2 l 1,1 1,1 v 1 h 1 v 2 -1 l 1,1 v 1 l -1,1 z m 2,-8 h 1 v -1 h -1 l -2,-1 h -1 v -1 h -3 v 1 l 2,1 h 1 l 2,1 1,1 z m -8,2 -1,-1 1,-1 -2,1 -3,2 -2,3 h 1 l 2,-1 z m 1,-3 q 1,0 0,0 v -2 h 1 -3 l -2,2 -2,2 -1,1 v 1 l 1,1 v -1 l 1,-2 4,-2 z m -7,5 v -1 l 1,-4 2,-5 2,-5 -1,-5 -1,-2 -2,-1 h -7 l -1,1 -1,-1 h -3 l -6,1 -1,1 h -1 v -1 h -2 l 1,1 h -2 l -1,1 h -1 l -2,1 -2,2 -1,1 v 2 l 1,4 1,3 1,2 2,2 4,6 1,2 2,-1 3,-1 h 3 l 2,-1 h 8 z m -7,-5 v -1 h -1 v 1 h -1 v -1 h -1 v 1 -1 q -1,0 0,0 h 3 z m -2,-1 q 1,0 0,0 z m 4,-2 1,-1 z m -1,1 z m 3,-3 v -1 l 1,-4 h -1 1 v 2 l -1,2 z m -8,5 h -3 v 1 q 0,-2 2,-2 z m -1,0 h -1 z m -5,0 -1,-1 2,1 z m 0,0 -3,-2 -1,-1 -2,-4 1,-2 v -1 l -1,4 2,3 v -1 1 z m 7,-7 -1,-1 h 1 v 1 -1 h 1 v 1 z m 3,-5 1,-1 v -1 1 z m 0,0 z m 0,-1 z m -6,6 -1,1 v -1 h -1 1 q 1,0 0,0 z m -6,-8 -1,-1 v 1 l 1,-1 h 1 -1 z m 15,24 -2,-1 -2,1 h -4 l -2,1 h -1 v 1 h 1 l 4,-1 1,-1 z m 1,-1 v -1 l -4,1 h -4 l -2,1 h -3 l -1,1 h 2 l 2,-1 h 4 l 2,-1 z m 15,-17 v -1 h -1 v 1 z m -11,9 v 1 z m -29,21 v -3 1 l 1,-1 v -7 l 1,-1 1,-1 h -1 2 l 2,2 2,-1 v -1 l -2,-2 h -4 l -1,1 h -1 v 1 l -1,2 -1,1 1,1 -1,2 v 2 h 1 v 2 l 2,2 q 0,1 0,0 z m 0,-7 v 1 -2 z m 0,-1 v -1 h 1 v 1 z m 38,-30 v -1 l 1,-1 -1,-1 -1,1 h 1 -2 v -1 h -2 v -1 h -1 v 3 q -1,1 0,0 v 1 h -1 v 2 l 1,1 v 1 -1 l 2,-1 h 1 z m -31,24 -1,-2 -6,-2 h -1 v 2 h -1 l -2,2 v 1 l -2,2 v 1 h 1 v 1 l 1,-1 -1,1 h -1 v 6 l 1,-1 v -3 1 -2 l 1,-1 v -2 l 1,-1 1,-1 h -1 1 v -1 l 2,-2 1,1 h 1 l 4,1 1,1 z m -12,12 -1,-1 z m 11,-12 h -1 z m 28,-29 h -1 v 1 z m -28,27 -1,-1 q -1,-2 -5,-3 l -5,-1 v 1 l 1,1 h 1 -1 v 1 h 6 z m -2,2 v -1 z m 0,-4 v -1 z m -1,-1 -1,-1 z m 0,-1 -4,-3 -3,-1 h -3 v 1 h -1 l -2,1 q -1,0 0,0 l -1,1 q -2,0 -2,2 v 1 h 2 v 1 -1 l 2,-3 v -1 1 l 1,-1 h 1 l 1,-1 v 1 h 2 l 4,1 4,2 z m -12,9 v -1 l 1,-1 v -1 l 1,-1 v -2 h 1 l -1,1 h 1 l 1,-1 1,-2 h -1 l -3,1 v 1 l -1,1 -1,2 v 4 l 1,2 z m 0,-3 h 1 z m -4,2 q 0,-1 0,0 z m 0,-1 v -3 1 h 1 v -2 h 1 v -1 h -2 l -1,3 v 1 h 1 z m 12,-15 v -2 l -2,-2 -2,-1 h -1 q -1,0 0,0 v 1 l -1,-1 v -1 q -1,0 0,0 h 1 l 2,-2 2,-2 v -1 l 4,-4 1,-1 -3,1 -3,2 -1,1 v -1 l 3,-2 4,-2 h 3 -1 v -1 h -1 l -3,-1 q -4,0 -8,3 l -2,1 -2,4 v 7 l 1,1 1,1 1,-1 h 1 l -1,1 h -1 1 -1 v 1 l 4,1 h 3 l 1,1 z m -6,-4 v 1 z m 5,-10 h -1 l -1,2 1,-1 v -1 z m 44,9 v -1 z m -49,20 z"
               aria-label="F"
               id="path42" />
            <path
               d="m 645,1151 h 1 v 3 l 1,1 v 2 l -1,1 v 1 l -1,-1 h -1 v 1 h 1 v 1 l 1,1 q 1,4 -1,10 -2,5 -6,9 h -2 l -1,1 -1,1 v 2 l -1,3 v -1 l -1,-4 v 1 l -1,2 -1,1 -1,-1 -1,-1 h -1 l -1,-1 1,-1 v -1 l -1,1 h -1 l -2,-3 v -8 l -2,1 -2,2 -1,2 -1,2 h -1 l -1,-1 h -2 l -2,-1 h -2 l -1,-1 h -1 v -1 h -1 l 1,-1 h 6 l 1,-2 3,-3 4,-3 3,-2 v -1 l 1,-1 h 1 l 7,-1 h 7 l -1,-1 h -1 l -1,-1 -1,-1 v -3 l -1,-2 1,-1 1,-1 h 3 z m 0,0 -3,-1 h -4 l -1,2 h 1 l 1,-1 -1,1 -1,1 h 1 l 1,-1 -1,1 h 1 l 1,-1 q -2,1 -1,2 h 2 v -1 h 1 l -1,1 1,1 1,-1 1,-1 v -1 1 l -1,1 v 1 l 1,1 v 1 h 1 v -1 2 l 1,-1 -1,-2 v -1 1 l 1,1 v 2 -5 l -1,-1 z m -4,3 h -2 l -2,-1 v 1 h 1 v 1 l -1,1 1,1 v -1 1 h 1 v 1 q -1,0 0,0 v 1 h 2 v -1 h 1 l -1,1 v 1 l 1,1 h -16 v 2 l 6,1 q 7,1 9,3 v 2 -2 l -3,-1 -2,-1 v 4 l -1,1 -1,1 -1,1 h 1 v 1 h 1 v 5 l 1,2 h 1 l 3,-2 -2,-2 -1,-4 3,6 3,-5 q 2,-2 2,-5 l 1,-6 -2,-4 v -2 h -1 v 1 l -1,1 1,-2 -1,-1 z m -2,1 -1,1 v -1 z m -3,10 v 1 l -1,1 -1,2 -1,1 -1,2 1,2 v -2 l 1,-1 1,-1 v -1 z m -1,0 h -2 l -2,-1 h -1 l 1,3 1,4 1,-2 2,-2 z m -6,-1 h -2 l 1,3 2,3 v 2 h 1 v -4 l -1,-1 v -2 z m -3,-1 q -2,0 -7,5 l -2,2 -1,2 h -1 l -2,2 -4,-1 h -1 q -1,0 0,0 -1,2 1,2 l 2,1 2,1 h 2 l 1,-2 h 1 v -1 l 1,-1 1,-1 1,-1 3,-1 2,-2 -1,-2 v -1 h 1 v 4 l -1,1 v 8 l 5,-4 1,-2 -1,-4 -1,-3 z m -3,4 h 1 v -1 1 h -1 l -2,2 -2,1 2,-2 z m 10,6 v 2 l -1,-2 v -1 h -1 v 6 l -1,1 -1,1 -1,3 h 1 l 1,1 1,1 h 1 l 1,-4 v -3 3 l 1,4 v 1 l 1,-6 -1,-6 z m -3,-2 v 3 l -1,1 -2,2 h -1 l -1,1 -1,1 h 1 v 1 l 1,1 h 2 l 1,-1 1,-2 1,-2 v -3 z m -6,-1 -1,1 -2,1 h -2 l -2,3 -1,2 h 2 l 1,-2 1,-1 1,-1 1,-1 h 1 z m 37,-12 3,2 2,2 v 3 l -2,1 h -1 l -1,2 h -4 l -1,-1 4,5 5,6 v 18 l 1,2 2,1 q 2,1 0,2 h -2 l -1,-1 h -1 l -2,-1 -1,-1 -1,-1 h -1 l -1,-1 1,-2 1,-2 v -3 l -1,-2 v 1 l -3,2 -3,2 h -3 l -1,-1 v 1 l -1,1 h -1 v -1 h -3 l -1,-2 1,-1 1,-1 -4,2 v -1 l 1,-1 1,-1 v -1 h 1 v -2 l -1,-2 q 0,-6 2,-11 3,-5 7,-7 h 3 v -1 h -1 v -1 l 1,-1 1,-1 1,-1 1,-1 z m 0,0 h -1 l -1,1 -2,1 -2,2 2,-1 1,-1 h 1 -1 l -2,1 -1,2 h 1 l 1,-2 v 2 l 1,-1 h 2 v -2 l 1,-1 -1,2 v 2 h 1 l 1,-2 v 1 h -1 v 1 h 1 v 1 q 2,1 1,-1 v -1 1 l 1,1 q 0,1 0,0 h 1 v 1 -3 2 l 1,1 v -2 l -1,-2 -2,-1 z m 0,5 h -2 l -1,1 v -1 h 1 l -1,-1 -1,1 -1,1 -4,1 -4,4 -3,5 v 6 l 6,-1 -4,1 h -3 l 1,3 q 0,2 2,1 l 1,-1 4,-2 h 1 v -3 l 1,-1 1,-1 1,-2 -1,-1 -3,-1 h -1 l -1,1 1,-1 h 1 l 8,4 5,4 h 1 v -1 l -2,-3 -5,-6 -3,-3 h 2 v -2 2 h 1 v 1 h 1 v -1 h 2 q -1,0 0,0 l 1,-1 v -1 1 h 1 v -1 h 1 l -2,-1 h -2 z m 1,2 1,1 h -1 z m -6,9 -2,3 -1,1 v 3 l -1,2 2,-1 1,-2 v -2 l 1,-1 z m 1,1 h -1 v 2 l -1,2 v 2 l 3,-1 3,-2 h -1 l -1,-2 -1,-1 z m 5,4 h -2 l -1,1 h -1 l -1,1 h -1 q -2,1 -1,2 h 1 l 1,-1 h 1 l 3,-1 2,-1 z m 2,1 h -1 l -4,1 -3,2 -2,2 1,6 h 1 l 1,-1 1,-1 1,-1 1,-1 1,-1 v -1 h 1 l 1,-2 h 1 l -2,1 -1,3 2,3 v 5 l -1,1 v 2 l 2,1 2,1 1,1 h 3 v -1 l -1,-1 -3,-2 -1,-2 v -1 l 1,-2 v -3 l -1,-8 z m 0,5 v 5 -6 z m -11,-4 h -2 l -5,4 -4,5 2,-1 3,-2 2,-2 -1,1 -1,1 -2,4 h 2 l 1,1 h 1 l 1,-3 v -2 l 1,-1 1,-1 1,-1 h 1 v -1 h 1 v -1 h -2 l -1,1 v -1 h 1 z m 3,2 h -1 l -2,1 -2,1 v 2 l -1,2 v 2 l 1,1 h 3 v -6 l 1,-1 z m 5,3 v 8 l -1,2 q -1,1 1,1 l 2,-2 v -3 l -1,-2 -1,-2 z"
               aria-label="D"
               id="path44" />
            <path
               d="m 469,1075 -1,-2 h 1 v -1 l 1,-1 1,-3 v -2 l 1,-4 v -2 h -1 l -1,-1 v -1 h 1 v 1 h 3 -1 v 1 h -1 2 -1 1 v 1 -1 h 1 v 1 q -1,0 0,0 l 2,-1 1,-1 h 2 -1 l -2,1 -1,1 h 1 l 1,-1 h 1 -1 l -1,2 -2,2 -1,2 -1,2 -1,4 v 6 l -1,-1 z m 2,2 v -1 l 1,-1 v 2 -7 l 1,-1 v -1 h -1 q 0,-1 0,0 h 1 l 1,-1 v -1 l 1,-2 2,-3 h -4 v -1 l -1,1 v 3 l 1,-2 v 1 h -1 v 2 l -1,3 v 1 l -1,2 v 1 l -1,1 h -1 v 1 l 1,1 1,1 z m 1,-10 1,-1 z m 0,-8 q 0,1 0,0 h -1 z m -32,-14 -1,-2 -1,-1 h 1 l 1,-1 h 1 -1 v -1 l 2,-2 3,-3 1,-1 1,-1 h 1 v -1 l 1,-3 3,-3 3,-1 3,-2 h 1 l 2,-2 2,-1 h 5 l 3,1 1,2 2,3 1,1 2,3 2,2 2,1 1,1 q 0,-1 0,0 h 1 l 1,1 1,1 1,1 h 1 l 1,1 1,1 1,1 v 1 h 1 v 1 l 1,1 1,1 1,1 v 1 l 1,2 v 1 l 1,1 1,3 h 1 -1 v -1 l -2,-2 -1,-3 v -1 h -1 v -2 l -1,-1 -2,-2 -1,-1 v -1 l -3,-2 h -1 l -1,-1 -1,-1 -1,-1 -3,-2 -2,-1 -1,-2 -1,-1 -1,-2 -2,-3 -1,-1 -2,-1 h -8 l -1,1 -1,1 v 1 h -1 1 -1 v 1 l -2,3 -2,2 q 1,0 0,0 l -2,2 h -1 v 1 -3 h -1 v 2 -1 l 1,-2 1,-2 4,-2 2,-1 h -1 l -2,1 -4,1 -2,2 -1,3 1,-1 v -1 4 -1 l -1,-1 v 3 -1 l -1,1 -2,1 -2,2 -3,3 q 1,0 0,0 l 1,1 h -1 l -1,1 v 1 l 1,2 h 1 v -1 l 1,-1 v 1 -1 l 1,-2 2,-2 1,-2 2,-1 v -1 3 -2 l -2,1 -2,3 -1,2 v 1 l -2,3 z m 12,-14 3,-2 1,-2 1,-1 v -1 h -1 l -5,3 v 3 q 0,1 0,0 z m 13,-10 h 3 l -1,-1 h -2 l -1,1 z m -13,35 v -1 l 2,-2 h 2 l 1,1 1,1 v 1 h 1 l 2,-1 h 2 l 2,-2 1,-1 1,-1 -1,-1 v -2 1 h 1 v 2 h 1 v -3 2 -1 1 l 1,-1 h 1 -1 v 1 h -1 v 1 l -2,2 -4,2 -1,1 h -2 l -2,-1 h -1 v -1 h 1 l -1,-1 h -2 l -1,1 -1,1 1,1 1,1 h 1 l 5,1 2,1 2,-1 v -1 h 2 l 1,-1 h -1 2 l 2,-1 h 2 l -1,1 h 2 -1 q 0,1 0,0 l -1,1 h -1 v 1 -2 l -3,1 -3,1 -3,1 -2,-1 h -3 l -2,-1 z m 19,0 h -1 z m -1,0 q 1,0 0,0 z m -21,-3 -1,-2 1,-1 h 1 -1 v -1 l 1,-1 2,-2 2,-4 v -1 l 1,-1 1,-1 1,-1 1,-2 h -7 v 1 l -1,3 -1,1 v 1 l -1,1 1,-1 2,-3 v -4 1 h 7 l 3,-1 h 2 l -1,1 1,-1 -1,1 v 1 l -1,1 -1,1 1,-1 v -2 h -2 l -1,1 v 1 l -3,2 -1,1 v 2 l -1,1 v 1 l -2,2 -1,3 h -1 v 1 l 1,2 1,1 v -1 l 1,-1 v 1 h -1 v 1 l 1,-1 v -2 l 1,-4 3,-4 1,-1 h 3 l 1,-1 q 0,-1 0,0 v -1 h -1 v -1 h 1 v -1 l 1,-1 -1,1 v 1 l 1,-1 v -1 1 l -1,1 v 1 l 1,-1 v -1 2 q 0,1 0,0 l -1,1 v 1 -1 h 1 v 1 h -1 1 v -1 l -1,1 h -2 l -2,1 -1,1 -1,2 -1,1 -1,3 -1,3 -1,1 z m 1,-5 z m 11,-9 z m 0,-2 v 1 z m 0,-1 q -1,0 0,0 z m -14,7 v -1 1 h -1 z m 0,-1 h 1 z m 1,-2 v 1 z m 0,1 z m 16,14 h 2 -1 l -1,1 z m -15,-14 z m 0,-1 v 1 z m -4,-3 v -1 z m 3,3 z m 0,-1 q 0,-1 0,0 v 1 z m 18,17 z m 0,-1 z m 0,0 h 1 z m -20,-20 v -1 2 -1 1 h -1 z m 2,3 h 1 z m 1,1 v -2 z m -2,-3 h 1 z m 2,1 q 0,1 0,0 z m 1,1 v -1 z m 13,11 v -1 l -1,-4 v -1 1 l 1,1 v -1 2 h 1 v 1 l 1,1 v 1 h 1 v 1 l -1,-1 h -1 q 0,-1 0,0 l -1,1 h -1 z m 1,0 v -2 l -1,1 v 1 z m -1,-1 v -1 z m 1,0 z m -1,-1 q 1,0 0,0 z m -16,-12 z m 2,1 v -1 2 z m 23,21 h 1 -2 z m -17,-15 v -1 h 1 -1 z m 16,15 h 1 l 1,-1 h 1 -1 l -1,1 z m 4,3 h 1 z m -25,-23 z m 24,22 h 1 l -1,-1 h 2 -1 1 v 1 z m -26,-24 v -1 z m 2,1 v -1 2 z m 21,19 1,-1 z m 1,1 1,-1 h 1 l -1,1 h 1 v -1 1 l 1,-1 h 1 l -1,1 z m 15,12 v -2 q 2,-2 1,-3 l -1,-2 -1,-1 h -6 q -1,0 0,0 l 1,-1 h 3 -1 2 l 1,1 v -2 1 l 1,2 v -1 l 2,-2 -1,2 v 3 -3 l 1,-1 1,-1 -1,1 v 2 h 1 -1 v 3 h -1 v 1 l 1,-1 -1,1 -1,1 v 1 l 1,1 1,1 2,1 1,-1 h -1 v -1 1 l -1,-1 h 2 -1 1 v 1 l 1,-2 1,-1 1,-1 v 1 l 1,-1 1,-1 h 1 v -1 l 1,-1 h 1 l 1,-1 -1,1 v 1 l 2,2 1,1 h 2 l 1,-1 4,-2 h 1 -2 l -3,1 h -1 l -1,1 v -1 l -2,-4 h -2 1 v -1 q -1,0 0,0 v -2 l -1,1 v -1 l -1,-1 v 1 h -1 v -1 h 1 v -1 h -1 l -1,-1 h -1 v -1 h -1 v 1 -1 h 2 v 1 h 1 v 1 l 2,1 1,1 v 1 l 1,1 1,3 q 0,2 2,2 l 1,-1 h 2 l 2,-1 1,1 h -1 q -2,0 -3,2 l -2,1 h -2 l -2,-2 -2,-1 h -1 l -1,2 h -1 l -1,1 -1,1 -2,2 -1,1 h -2 l -1,-1 z m 1,1 1,1 h 1 l -1,-1 h -1 l -1,-1 v 1 z m -31,-28 z m 19,17 1,-1 1,-2 2,-2 v 1 l -1,1 v -1 h 1 l -2,1 -1,1 v 1 l 1,-1 -1,1 h -1 v 1 h -1 z m -14,-13 v -2 1 -1 z m 14,13 z m -10,-10 h -1 l 1,-1 z m -15,-13 v -1 z m -2,-2 q 0,-1 0,0 z m 8,7 h 1 v 1 z m 8,7 v -1 1 q 0,1 0,0 z m 0,0 v -2 z m 13,11 1,-1 z m -17,-15 z m 1,0 h 1 l -1,1 z m 16,15 h 2 l 1,-1 -1,1 h -1 z m -29,-26 z m 26,23 1,-1 z m 12,12 1,-1 h 1 v 1 q 0,1 0,0 h -1 l 1,-1 h -1 z m -25,-24 v -1 z m -13,-12 z m 29,25 1,-1 v 1 l -1,1 h -1 z m -26,-22 1,-1 h 1 l 1,-1 -1,1 z m 2,-1 h -1 z m 13,14 z m -18,-16 v -1 z m 19,16 h -1 z m 2,3 v -1 z m 10,8 h 1 -2 z m -30,-28 v -1 2 z m 31,29 h -1 z m -19,-17 v -1 z m -7,-7 h 1 -1 2 -2 q 0,1 0,0 z m 8,7 z m 27,24 h -1 v -1 h 1 -1 l 1,1 h -1 z m -9,-7 h 1 z m -26,-25 h 1 z m 0,0 h 1 z m 27,24 1,-1 v 1 -1 l 1,-1 v -1 2 l 1,-1 1,-1 v -1 1 h -1 1 l -1,1 v 3 h 1 -2 1 v -1 l -1,-1 h 1 -1 v 1 z m 3,-1 v -1 q 0,-1 0,0 z m 7,10 z m -11,-10 1,-1 v 1 z m -31,-29 z m 42,39 v -1 z m 0,0 z m -11,-11 z m -21,-21 1,-1 h 1 l -1,1 -2,1 z m -6,-4 z m 1,0 v -1 h 1 l -1,1 v 1 z m 33,30 v -1 2 z m -26,-24 v -1 h 1 z m 18,16 v 1 z m 7,6 q 0,1 0,0 v -3 h 1 q 0,-1 0,0 l -1,2 q 0,1 0,0 l 1,-1 1,-1 v 1 l -1,1 z m -23,-21 z m 27,25 z m -31,-28 v -1 h 1 z m -5,-5 z m 34,30 h 1 v 1 h -1 z m 2,2 h 1 z m 2,2 z m -29,-27 v 1 z m -9,-8 h 1 z m 36,32 z m 1,1 z m -28,-25 z m -2,-2 v -1 z m 33,29 z m -33,-30 z m 28,26 v -4 q 1,0 0,0 v 1 l 1,1 v -3 l -3,-1 -1,-2 1,-3 1,-4 v -1 2 l -1,3 -1,3 1,1 1,1 h 2 l 1,1 h 1 v 1 h -2 1 -1 v 1 h 1 v -1 h 1 l -1,1 h 1 v -1 2 h 1 l -3,-1 -1,2 z m 1,-4 v -1 h 1 -1 z m -29,-23 v 1 z m 2,3 v -1 h 1 -1 z m -1,-2 v -1 h 1 q 1,0 0,0 h -1 v 1 h -1 z m 5,5 z m 27,24 v 1 z m -1,0 q 0,-1 0,0 z m -29,-27 z m 26,23 1,-1 q -1,0 0,0 l 1,1 v 1 -1 1 h -2 z m 1,0 z m 1,2 z m -28,-26 z m 24,22 h 1 z m 7,6 v -1 h 2 -1 v 1 h -1 q 0,1 0,0 z m -32,-29 v -1 z m 1,1 z m 23,20 v 1 z m 7,7 1,-1 h 1 -2 2 l -1,1 z m -5,-5 z m -27,-25 1,-1 h -1 z m 3,2 q 0,1 0,0 z m -3,-2 z m 31,28 1,-1 v 1 q 0,-1 0,0 z m -24,-23 1,-1 v 1 z m 24,22 z m 2,0 v -1 2 q -1,0 0,0 z m 2,3 1,-1 v 1 z m -2,-2 q 0,-1 0,0 z m -8,-8 1,-2 1,-3 v -2 l -1,-1 1,3 -1,3 v 1 l 1,1 h 5 q -1,0 0,0 h -1 v -1 l 1,1 v 1 h -2 l -1,-1 -3,-1 h -1 l 1,1 v 1 -1 z m 10,9 v -1 z m -27,-25 v -1 h 1 z m 24,22 v -1 z m 0,-1 z m -3,-3 h 1 z m 2,2 v -1 h -1 l 1,-1 v -1 z m 6,5 z m 3,3 h 1 -1 q -1,0 0,0 z m -25,-22 1,-1 v 1 z m 18,15 v -1 1 q 0,1 0,0 z m -7,-6 h 1 v -1 l 1,-1 v 1 h -1 v 1 z m -17,-16 z m 27,24 q -1,0 0,0 z m 1,1 v 1 z m -3,-3 q -1,0 0,0 z m 4,4 v -1 z m -7,-6 q 0,-1 0,0 z m 1,0 v -1 z m 4,4 h 1 z m -26,-24 1,-1 q 1,0 0,0 v 1 z m 7,6 v -1 z m 17,15 h -1 z m -1,-1 h 1 z m 3,3 h 1 z m -27,-25 h 1 z m 20,18 q 0,-1 0,0 z m 4,4 h 1 z m -5,-5 h 1 z m 6,5 1,1 z m -24,-22 z m 0,-1 z m 18,16 v 1 z m -18,-16 h 1 z m 8,7 h 1 z m 14,13 h 1 v 1 z m -22,-21 h 1 z m 22,20 v -1 z m -29,-27 h 1 z m 28,25 z m -1,-2 z m -26,-23 v -1 h 1 v 1 z m 26,23 v -1 z m -22,-21 v 1 z m 7,6 v 1 h -1 v -1 z m 14,13 z m -23,-21 z m 1,1 h 1 z m 0,-1 q -1,0 0,0 z m -2,-1 h 1 v -1 1 z"
               aria-label="B"
               id="path46" />
            <path
               d="m 359,855 v -1 h 6 l 3,-1 2,-2 h 1 l 1,-2 h -1 l -2,1 h -3 l -4,1 h -2 v -1 l -1,-2 v -1 h 1 l 2,1 h 3 l 2,-1 h 2 l 3,-1 2,-1 1,-1 h 1 v -2 l 1,-1 h 2 l 3,-1 h 4 -4 l -2,1 h -1 3 l 2,-1 v 1 h -3 l -1,1 h -1 q 1,0 0,0 h -1 1 -2 v 1 h -1 v 1 l -1,1 h 1 -1 l -4,1 -2,1 -2,1 h -5 l -1,-1 h -2 v 2 l 2,2 h 1 l 1,-1 h -1 4 l 4,-1 h 2 -1 1 l 2,-2 h 2 l -1,1 -2,1 -2,2 q 0,1 0,0 h -1 l -2,2 -2,1 -3,1 h -1 v -1 h -2 1 l -1,1 v 2 h 2 l 2,-1 v 1 l 2,-1 1,-1 h 2 l 3,-1 1,-1 3,-2 h 1 v 1 h 2 v -1 h -2 4 -1 l 1,1 h -1 l 1,1 h 1 l 1,-1 h -2 5 -2 l -1,1 h -2 l -1,-1 h -2 l 1,1 2,1 h 3 -4 l -2,-1 v -1 h -1 l 3,3 h 1 -1 l -1,-1 v 1 l 2,2 2,-1 v 1 h -2 4 -5 l -1,-1 v 2 h 1 l 2,1 h 4 -6 l 1,1 h 3 l -1,1 3,1 h 1 -1 l -3,-1 h -1 1 -1 l -2,-1 v -1 2 q 1,0 0,0 l 1,2 h 1 l 1,1 1,1 h 2 -3 l -1,-1 v 1 l 1,1 h 2 v 1 l 4,-1 v 1 h -4 q -1,0 0,0 h 1 -4 l 3,1 h 1 -3 l 1,1 1,1 1,1 h 1 l -3,-1 2,2 h 1 -1 v 1 h 1 l -1,1 h 3 v -1 h -1 1 -1 l 1,-1 2,-1 h 2 -1 l -3,2 h 2 -1 l -2,1 h -1 v 1 h 1 l 1,1 h -1 l -1,-1 v 1 h -1 l -1,2 -1,2 q 0,1 0,0 l -1,1 h 1 v 1 l -1,-1 v 2 h -1 l -1,1 -1,2 -2,1 h -7 l -2,-1 h -1 2 -2 v 1 l 1,1 q 0,2 1,1 h 2 v -1 h 1 l -2,1 h -2 l -1,-3 h 3 v 1 h 4 l 2,-1 h 2 l 1,-1 1,-1 1,-1 1,-2 v -1 h -2 l -1,1 -3,-1 -4,-1 h -4 v -1 h -2 l -1,-1 v -3 l 2,1 h 1 l 3,2 h 8 l 1,-1 1,-1 1,-1 1,-1 h 1 v -1 l -1,-1 -1,-1 -1,-3 -1,-2 v -3 l -1,-2 -1,-4 -1,-3 -1,-1 h -1 l -4,2 -3,1 -3,1 -3,1 h -3 v -1 z m 7,22 1,1 h 3 -1 l 1,1 h 1 l 6,1 h 3 l 1,-1 h 3 v -1 l 2,-2 v -2 l -1,-1 -1,1 -1,1 v -1 l -1,1 v 1 -1 1 h -1 l -1,1 h -9 l -2,-2 h -3 z m 11,2 h 3 -4 z m 5,-2 v 1 h -1 z m 1,2 h -1 z m 0,-2 v -1 q 1,0 0,0 z m 1,-2 z m 1,1 q 0,-1 0,0 z m -1,-2 z m 0,-1 h 1 z m -18,2 h 2 z m 15,-11 h 1 z m -3,-23 z m -6,48 h 2 l 5,-1 h 3 l 1,-1 1,-1 1,-1 h -1 2 v -1 h 3 v -1 h -1 3 l 3,-1 h -2 q -1,0 0,0 l 2,-1 h 1 -1 v 1 h 1 v -1 1 h -1 l -1,1 h 1 l 1,-1 3,-1 h 1 -1 v 1 h 1 l 1,-1 2,-1 h -2 l 2,-1 h 1 l 1,-1 -1,1 -1,1 1,-1 1,-1 v -1 h 1 v -2 l 1,-1 v -3 l -1,-1 v -3 l -1,-1 v -1 h -1 q 0,1 0,0 v -2 1 l 1,1 v 1 l 1,1 1,3 v 3 l -1,4 -1,1 v 4 h -1 q -1,2 -6,3 l -2,1 -1,1 -5,2 -1,1 h -2 v -1 l 2,1 1,-1 h -1 1 v -1 h 1 l 1,-1 h 2 l 3,-2 h 2 l 1,-1 2,-1 1,-1 h 1 l 1,-1 v -3 1 l -2,1 -1,1 -3,1 -4,1 h -3 l -2,1 q -1,0 0,0 h 2 l 1,-1 h 1 v 1 h -3 l -1,1 h -2 l 1,1 h -2 v 1 q 1,0 0,0 h -1 l 1,1 v -1 1 h -1 1 v 1 h 2 -3 v -2 l 1,-1 1,-1 1,-1 h -1 l -1,1 h -1 l -2,2 -1,1 -2,1 -7,1 h -2 z m -9,-56 3,-2 1,-1 v -1 q -1,-1 1,-2 v -1 h -3 v -1 h 2 l 1,-1 1,1 v -1 l -2,1 h -2 l 1,1 1,-1 h 1 v 3 h -1 l 1,1 v -1 h 1 v -2 h 2 v -2 l 1,-1 1,1 v 1 l 1,-1 h 1 -1 v 1 h 1 -2 l 1,1 h 1 l -1,1 v -1 h 1 -5 v 2 l -1,1 -2,2 -4,2 q 1,0 0,0 l 1,1 h 1 -1 l -1,1 h 3 l -1,1 h -1 2 l 2,-1 h 3 q 0,1 0,0 h 1 l 1,1 h 1 l -1,-1 v -1 l 1,-1 1,-1 h 2 -1 1 l 1,1 v 1 -1 l -3,-1 -1,1 v 3 l 2,1 h 2 l -1,-1 h -1 1 -1 v -1 h -1 2 -2 v -1 1 -1 h 2 l 1,2 v 1 h 1 q -1,0 0,0 l 2,-2 1,-3 v -1 l -1,-2 -2,-1 -3,-1 h -1 v -1 h 1 l -1,1 h 4 l 1,1 h 1 v 1 l 1,1 v 1 -1 5 -1 h 1 v -1 1 l -1,1 v 1 -1 h 1 l -1,1 h -1 l -1,1 v -1 1 h -1 v 1 h -2 3 l -2,1 h -1 3 -1 v 1 h -1 v -1 l -1,1 1,-1 v 1 h -1 v 1 -3 h -1 v -1 h -1 l -1,-1 h -2 v -1 l -2,1 h -6 l -1,-1 -1,-1 z m 0,1 z m 4,-5 1,1 v -1 z m 2,0 v -1 z m 3,6 h -1 z m 0,-9 1,-1 -1,-1 z m 0,-1 v -1 q 0,-1 0,0 z m 4,12 z m 0,-2 -1,-1 h 2 v 1 z m 2,2 h -1 z m 1,3 v -1 z m 2,-4 q 0,-1 0,0 z m -3,52 1,-1 h 1 -1 v 1 l 1,-1 h 1 l -2,1 h -2 z m -10,-35 h 2 z m 0,-5 h 1 v -1 1 z m -2,-13 h 1 z m 6,17 h 1 v -1 1 l -1,1 z m -3,-18 z m 13,50 v 1 z m -12,-50 z m 13,50 v 1 z m -12,-50 h -1 z m -1,-3 v 1 z m 13,52 v -1 z m -13,-53 1,-1 h 3 -1 l -2,1 z m 1,2 v -1 z m 4,17 1,-1 v 1 z m 0,-3 h 1 l -1,1 z m -4,-14 z m 13,50 v 1 z m 1,2 h -1 z m -13,-50 h 1 z m -1,-4 h 2 -1 1 v 1 h -2 1 -1 z m 1,2 h 2 z m 0,0 h 1 z m 13,50 h 2 v -1 1 z m 0,1 h 2 z m -8,-34 h 3 z m 10,39 z m -1,-7 h 1 q 1,-1 0,0 h -2 z m -9,-35 h 1 z m 8,32 v 1 -1 l 1,1 h 1 v 1 h 1 -1 l -1,-1 h -1 z m -8,-33 v -1 h 1 -1 z m 9,35 h -1 z m -9,-36 v -1 h 4 -2 z m 10,43 h 1 v -1 l 1,1 z m -9,-39 2,-1 v 1 z m -3,-15 q 0,1 0,0 v 1 z m 3,13 h 1 l -1,1 z m 1,4 h 2 -1 l -1,1 z m 2,11 h 1 v 1 h 1 z m -7,-32 z m 4,16 h 2 z m -4,-15 q 1,0 0,0 z m 1,3 z m 1,3 z m 12,49 h 6 z m -15,-59 h 1 z m 2,4 z m 10,38 h 2 l 1,-1 -1,1 h -3 v -1 z m 4,18 h 1 -2 z m -13,-53 z m 6,22 q -1,0 0,0 h 1 z m 6,24 q 1,0 0,0 0,1 0,0 h -1 z m -2,-9 h 1 l 2,-1 h 1 l -2,1 h -3 z m 1,8 h 2 v 1 -1 z m 2,8 h 1 z m 1,1 q -1,0 0,0 z m -13,-54 z m 7,31 h 4 z m -8,-34 v -1 1 h 3 l 1,1 1,1 v 1 h -1 v 2 h -2 2 -1 v 1 h -1 v 1 -4 h 2 v -1 l -2,-1 h -1 z m 1,1 v -1 z m 1,4 h 1 v -1 z m 0,-4 v -1 z m 0,0 h 1 v -1 h -1 z m 1,3 h 1 z m -2,-3 2,1 h -1 l -2,-1 z m 5,19 h 1 l -1,1 h -1 z m -5,-16 z m 7,24 h 1 -2 z m -2,-7 1,-1 2,-1 1,-1 -1,1 v 1 h -1 l -1,1 h -2 z m -7,-27 h 2 v 2 h 4 l 1,1 1,1 2,1 h 1 l 1,1 1,1 h 1 -1 l -1,-1 h -1 l -1,-1 v 1 -1 l -1,-1 h -1 v 1 l 2,1 v 3 -3 l -1,-1 v 1 l -1,-1 -1,-1 v -1 h -1 l -1,-1 v 1 h -1 v -1 h -2 l -1,1 v -2 h 1 l -1,-1 z m 10,8 v -1 z m -7,3 z m 9,38 v 1 z m 2,9 h 1 z m 1,4 h 2 z m -4,-17 z m -10,-44 v 1 z m 4,19 h 1 z m 10,36 h 3 l -1,1 h -2 1 v -1 1 h -1 q -1,0 0,0 z m -1,-3 z m -4,-17 h -1 z m -4,-15 1,-1 h 2 -1 z m 1,-1 -1,1 z m 7,34 h 2 z m -9,-35 2,-1 1,-1 1,1 h 1 -3 1 -1 l -1,1 z m 3,12 h 1 z m -6,-26 z m 2,9 1,-1 q 1,0 0,0 z m 9,30 h 1 l -1,1 h -1 z m 0,4 h 1 l 1,-1 -1,1 z m -4,-18 v -1 h 1 -1 z m 7,28 h 1 z m -11,-43 4,-1 h 1 l 1,-1 1,-1 -1,2 h -1 l -2,1 z m -2,-10 h 1 q 0,1 0,0 v 1 h -1 z m 2,5 q 1,0 0,0 z m 1,4 h 1 l -1,1 z m 0,0 v -1 h 2 v -1 1 z m 3,11 1,-1 z m 0,2 h 2 l 1,-1 h 1 l -2,1 z m 1,-1 3,-1 v -1 1 h -1 l -2,1 h -1 z m 5,25 h 1 z m 2,4 h 1 z m -12,-49 z m 0,0 z m 0,-1 z m 0,2 v -1 q 1,0 0,0 z m 2,7 1,-1 2,-1 v -1 1 l -1,1 z m 12,48 1,-1 h 1 l 1,-1 h 1 -1 l -1,1 h -1 z m -2,-10 h 2 v -1 l -1,1 z m -8,-30 h 1 z m 6,22 z m 2,7 z m 1,3 h 1 z m -12,-51 v 1 z m 9,34 h 2 l 1,-1 h 1 -1 l -1,1 -1,1 h -1 z m -7,-29 v -1 z m 9,37 h 2 z m -4,-17 1,-1 h 1 v 1 z m 7,29 q 1,0 0,0 z m 2,2 h -1 z m 0,-2 v -1 z m -2,-6 z m 0,-1 1,-1 h 1 l -1,1 z m -1,-6 2,-1 h 1 -2 1 -1 l -1,1 h -1 z m 1,7 1,-1 h 1 l -1,1 z m -6,-29 1,-1 v -1 1 l -2,1 z m 1,5 v -1 1 h -1 z m 6,22 v -1 1 h -1 z m -1,-2 h 1 -1 q 0,1 0,0 z m -2,-12 h 2 v -1 1 h -1 l -1,1 z m -6,-25 v -1 z m 12,46 1,-1 1,-1 v 1 h -1 l -2,1 z m 1,2 h 1 -1 v 1 z m -12,-45 1,-1 v 1 h -1 q 0,1 0,0 z m 7,27 1,-1 1,-1 -1,2 z m 4,15 1,-1 z m -11,-45 v -2 z m 11,47 2,-1 -1,1 z m 1,-1 z m -1,-5 v -1 z m 0,0 h 1 z m -10,-40 v -1 2 z m 9,37 h 1 z m 1,-1 1,-1 v -1 l 1,-1 v 1 h -1 l -1,1 z m -8,-35 v 1 l -1,-1 z m 10,40 v 1 z m -1,-4 v 1 z m -10,-40 1,1 1,1 2,1 1,1 1,2 v 1 l 1,2 v -1 h -1 v -2 1 h -1 v -2 l -1,-2 v 1 l -1,-1 -1,-1 v 1 l 1,1 v 2 -1 l -1,-1 v -1 l -1,-1 z m 4,13 q 1,0 0,0 v -1 l 1,-2 v 2 h -1 v 1 l -1,1 z m 4,19 1,-2 1,-1 -1,2 z m -5,-21 1,-1 v 1 l -1,1 z m 6,25 1,-1 v -1 z m -2,-10 1,-1 v -1 1 z m 3,13 v -1 z m 2,7 h 1 v -1 1 h -1 q 0,1 0,0 z m -2,-10 v -1 l 1,-1 v 1 z m 2,5 v -1 2 h -1 z m 0,5 1,-1 v -1 1 z m -2,-12 1,-1 v -1 1 z m -4,-16 z m 2,9 z m -1,-5 1,-1 v -2 3 z m -2,-9 1,-2 v 1 z m 0,2 1,-1 v -1 1 z m 2,4 v -2 l 1,-1 v -1 h -1 l 1,-1 v -1 2 l 1,2 v 2 l 1,2 v 3 l 1,2 h -1 v -3 l -1,-2 v -2 l -1,-3 v 1 z m 0,0 v -1 z m 1,2 v 1 q 1,0 0,0 0,1 0,0 z m 1,7 1,-1 z m 0,-2 h 1 l -1,1 z m -1,-2 1,-1 z m 1,2 v -1 z m 2,5 v -5 l 1,2 v 2 l 1,1 h -1 v 3 -4 l -1,-1 v 2 h -1 z m 1,5 v -1 z m -5,-25 v -2 4 z m 7,28 v -2 h 1 v 1 l -1,1 v 1 z m 1,2 v -1 1 q 0,1 0,0 z m -1,-4 v -1 z"
               aria-label="A"
               id="path48" />
            <path
               d="m 379,654 1,-2 1,-1 2,-1 v -9 l 1,-1 v -1 h -1 v 1 h -1 v 1 l -1,2 v 2 l -1,1 -1,6 z m 28,-5 2,-2 h 2 -2 q -2,1 -1,3 l 2,1 1,-2 v -2 2 l -1,2 h -2 z m 3,-2 1,1 -1,1 -1,-1 z m -27,24 -1,1 -1,1 2,3 2,-3 z m -3,-2 -1,-3 v -1 h -1 l 1,5 2,3 1,-1 v -1 z m -1,-4 1,2 1,-2 z m 1,-2 q -2,1 -1,2 h 2 v -1 l 1,-1 z m -2,-1 1,2 1,-1 z m 2,-2 -2,2 h 1 l 2,1 -1,-1 h 1 v -1 h 1 v -1 h -2 l 2,-2 h -3 l -1,1 1,1 z m -2,0 v 2 l 2,-2 z m 0,-3 v 2 l 1,-1 z m 2,-2 -1,1 -1,1 2,1 1,-2 h -1 z m -2,0 v 2 l 2,-2 z m 2,-2 h -1 v 2 h 1 l 1,-2 z m 4,-30 q -2,2 -2,5 l -1,4 v 5 l 2,2 v -13 l 1,-1 z m 17,-4 -9,4 -6,7 h -1 l -1,2 v 3 l -1,3 2,-4 3,-4 3,-4 4,-4 z m -16,11 h -1 l -1,-1 v 9 z m -2,9 1,-1 5,-8 9,-9 q -5,3 -8,7 -4,4 -6,10 z m 0,13 v -2 l -1,1 z m 0,0 -1,-1 1,-1 h -1 l -1,2 z m -2,-1 v 1 h -1 v 1 h 1 l 1,-1 h -1 z m 2,1 h -1 l -1,1 v 1 h 2 z m 0,2 v -1 2 z m 1,3 -1,-2 v 1 z m 2,2 -2,-2 q -2,0 0,2 z m 4,-2 -1,1 -1,2 4,1 h 3 l 2,-1 -4,-2 z m 4,-2 h -1 l -3,2 2,1 5,2 -2,-3 z m 4,1 -1,1 h -1 l 1,3 -2,1 -1,1 v 1 h 2 q -1,-1 2,-3 l 1,-2 -1,3 1,1 3,-2 -1,-2 v -1 h -2 z m 0,0 1,1 h 1 l 2,-1 -2,-3 -1,2 z m 3,-3 3,3 4,1 h 3 l -2,1 h -3 q 0,3 2,2 l 3,-3 -1,1 v 2 l 1,1 2,-3 h -2 v -1 1 h 2 l 1,-7 v -8 l -2,-5 -3,2 -2,3 -2,4 -2,5 q 4,-10 8,-14 l -2,1 -2,3 -2,3 -2,4 -1,1 1,3 1,2 3,1 -4,-2 -1,-3 z m 10,8 -1,-1 v -2 l -1,2 -1,2 1,2 z m -5,6 3,-3 -1,-1 -2,1 z m 0,0 v -3 l -2,2 -1,-1 -1,2 -1,1 1,1 1,-1 1,-2 -1,1 1,1 z m -11,7 q 5,-2 9,-6 h -1 l -1,1 h -1 l -1,2 v -1 l 1,-1 h -2 l -1,2 h 2 -2 l -1,1 h -2 z m -4,6 h 3 l 6,-8 h -1 l -2,1 -1,1 z m 0,-5 h -1 v -1 h -2 l -3,4 3,1 z m -8,-5 v 1 l 1,1 h 1 v -2 z m 0,0 h -1 l 1,1 z m -1,-2 -1,2 h 2 v -1 l 1,-1 z m 0,0 h -2 l 1,1 z m 0,0 v -2 l 1,-1 h -2 l -1,2 v 1 z m 1,-9 -1,-1 -1,1 -1,1 h 2 z m 0,-2 h -1 v 2 h 2 l -1,-1 1,-1 z m 1,4 v -2 h -1 l -1,2 h 2 l -1,2 h 2 l -1,-1 z m 3,-1 -1,-1 h -2 v 2 l 1,-1 h 1 l -2,1 1,2 2,-1 v -1 h -1 v -1 z m 2,1 h 1 l -2,-1 h -1 l -1,1 1,1 z m 5,2 h -3 l 1,-2 h -2 l -1,1 2,1 -1,1 1,1 h 2 q -1,0 0,0 v -1 z m -2,-2 v 2 h 2 l 1,-2 z m 6,2 v 1 h -1 l -1,-1 -1,3 h 2 v -1 l 1,-1 z m 1,-1 -1,-1 v -1 l -2,3 h 2 z m 7,-2 v 3 h 2 l 1,-3 z m -6,6 -1,1 v 2 h 2 v -2 h -1 z m 0,-2 -2,-1 -1,3 h 3 z m -7,10 h 2 l 1,-2 -3,-1 -1,2 z m -5,-1 h -1 l 3,1 h 2 -2 v -1 l 1,-2 -1,-1 h -2 l -1,3 h 3 z m -2,-4 -1,2 v 1 h 2 l 1,-2 z m -2,-1 -1,2 h 2 l 1,-1 v -1 z m 6,-5 -1,-1 v -1 l -1,1 h -1 v 1 l 1,1 -2,1 1,1 1,-1 v -1 l 1,-1 z m -1,5 -2,-1 v 1 h -1 l 1,1 1,1 z m 1,-2 -2,-1 -1,2 2,1 z m 5,0 -1,1 v 2 h 2 l 1,-3 z m -2,5 h -2 l -1,2 v 1 h 2 v -2 z m 1,-2 -1,-1 h -1 q -2,2 -1,3 h 2 v -1 z m 1,-3 -2,-1 v 1 l -2,2 h 2 z m -2,0 -3,-1 1,-2 h -1 l -2,2 2,1 v -1 l -1,2 1,1 h 1 -2 l -1,2 h 2 l 2,-2 -1,-1 1,-1 z m -9,-3 v 1 l -1,1 1,1 h 1 l 1,-1 -1,2 -1,1 h 2 l 1,-1 v -1 l -1,-1 2,-1 -1,-1 v -1 l -2,1 1,2 -1,-2 z m 1,3 -2,-1 q -2,2 -1,3 h 2 v -1 z m 0,7 h 3 -1 v -1 h -1 z m 0,-1 v 1 l 1,-1 z m 3,7 3,1 4,-6 h -1 l -3,1 z m 10,-8 v -1 l 1,-1 q -1,-1 1,-3 l -2,1 -1,-1 -1,2 v 1 h 3 -5 l -1,2 1,1 h 2 v -3 3 z m 5,-6 v -2 2 l 1,1 2,-2 v -3 l -2,2 h -2 l -2,1 v 2 l 1,1 z m 3,-7 q -1,2 -4,2 -1,4 2,2 l 2,-1 z m 0,0 -4,-2 -1,1 v 2 l 2,1 z m -4,2 -2,1 -1,1 v 2 h 1 l 2,-1 z m -6,3 h -2 l -1,2 v 1 h 2 z m -13,-6 -2,-1 -1,1 v 1 h 2 v -1 z m -1,-3 -1,2 2,1 v -3 z m -1,-1 -1,2 1,1 1,-1 -1,-1 z m 1,7 -1,2 2,1 h -1 l -1,2 h 2 l 1,-2 h -1 l 1,-2 h -1 z m 3,13 -2,3 1,1 h 1 l 3,-3 z m 8,8 -4,-1 -4,-2 -3,-3 -3,-5 -1,-6 1,-10 3,-15 -1,-3 v -4 l 1,-5 2,-4 v 3 l -1,1 v 2 h 1 l 1,1 7,-7 10,-4 -10,8 q -5,5 -8,12 l -1,4 v 10 l 2,4 3,3 q 2,-4 6,-5 v -1 l 2,3 2,-1 3,-4 3,-5 3,-5 3,-4 q 2,0 3,2 l 1,5 v 7 l -1,6 q -4,8 -13,14 l -3,4 -2,3 -1,1 z m 30,-43 -1,2 -1,1 -2,1 v 9 l -1,2 v 1 l 1,-1 h 1 v -2 l 1,-1 v -3 l 1,-1 1,-6 z m -28,5 q 0,2 -2,2 h -2 l 1,1 1,-1 q 2,-1 1,-2 0,-2 -2,-1 l -1,1 v 2 -2 l 1,-2 h 2 z m -3,2 h -1 v -1 h 1 v -1 l 1,1 v 1 z m 27,-24 h 1 l 1,-1 v -1 l -2,-2 -2,3 z m 3,3 1,3 h 1 l -1,-4 -2,-4 -1,1 v 1 z m 1,3 -1,-2 -1,2 z m -1,3 q 2,-2 1,-3 h -2 v 2 l -1,1 z m 2,0 -1,-2 -1,2 z m -2,2 2,-1 -1,-1 h -2 1 l -1,1 -1,1 h 2 l -2,2 h 2 l 1,1 1,-2 -1,-1 z m 2,1 v -2 l -2,1 z m 0,2 v -2 l -1,2 z m -2,2 1,-1 1,-1 -2,-1 -1,2 z m 2,0 v -1 l -2,1 z m -2,3 1,-1 v -1 h 1 l -1,-1 h -1 l -1,2 h 1 z m -4,29 2,-4 1,-5 v -4 l -2,-3 v 13 l -1,2 z m -17,4 q 5,-1 9,-4 l 6,-7 h 1 l 1,-2 v -3 l 1,-3 -2,5 -3,4 -3,3 -4,4 z m 16,-11 1,1 h 1 v -9 z m 2,-8 h -1 l -5,8 q -4,6 -9,9 5,-2 8,-6 4,-5 6,-11 z m 0,-14 v 2 l 1,-1 z m 0,0 1,1 -1,1 h 1 l 1,-2 z m 2,1 1,-1 v -1 h -1 l -1,1 h 1 z m -2,-1 h 1 l 1,-1 v -1 h -2 z m 0,-2 v 2 z m -1,-2 1,2 v -1 z m -2,-2 2,2 q 2,-1 0,-3 z m -4,1 1,-1 1,-1 q -1,-2 -4,-2 l -3,1 -2,1 4,1 z m -4,3 2,-1 2,-1 -2,-1 -5,-2 2,2 z m -4,-2 1,-1 h 1 l -1,-2 2,-2 1,-1 v -1 h -2 q 1,1 -2,4 l -1,2 1,-3 -1,-1 -2,1 h -1 l 1,2 v 2 l 1,-1 h 1 z m 0,0 -1,-1 h -1 l -2,2 2,2 1,-1 z m -3,3 q 0,-2 -3,-3 l -4,-1 -3,1 2,-1 h 3 q 0,-3 -2,-3 l -3,3 v 1 l 1,-1 v -3 l -1,-1 -2,3 h 2 v 2 -2 l -2,1 -1,7 v 8 l 2,4 q 2,0 3,-2 l 2,-3 2,-4 2,-5 q -4,10 -8,14 l 2,-1 2,-3 2,-3 2,-4 1,-1 -1,-3 -1,-1 -3,-1 4,2 1,3 z m -10,-8 1,1 v 2 l 2,-1 v -3 l -1,-2 z m 5,-5 -3,2 1,1 h 2 z m 0,0 v 2 l 2,-1 h 1 l 2,-1 v -2 l -1,-1 -1,1 -1,3 1,-2 -1,-1 z m 11,-7 q -5,1 -9,5 h 1 l 1,-1 1,1 1,-3 v 1 l -1,2 h 2 l 1,-3 h -2 2 l 1,-1 2,1 z m 4,-7 h -3 l -6,9 1,-1 2,-1 h 1 z m 0,6 h 3 l 3,-3 -3,-2 z m 8,4 v -1 l -1,-1 h -1 v 2 z m 0,0 h 1 l -1,-1 z m 1,2 1,-1 -1,-1 h -1 v 1 l -1,1 z m 0,0 h 2 l -1,-1 z m 0,0 1,1 -1,1 -1,1 h 2 l 1,-2 v -1 z m -1,9 1,1 h 1 l 1,-1 v -1 h -2 z m 0,3 1,-1 v -1 h -2 l 1,1 -1,1 z m -1,-5 v 2 q 1,0 0,0 v 1 l 1,-1 1,-1 -2,-1 1,-1 -2,-1 v 1 z m -3,2 1,1 h 2 v -3 l -1,1 h -1 l 2,-1 -1,-1 h -2 v 1 l 1,1 z m -2,-2 -1,1 h 2 l 1,1 1,-1 -1,-2 z m -5,-2 3,1 -1,1 h 2 l 1,-1 -2,-1 v 1 l 1,-2 -1,-1 h -2 v 2 z m 2,2 1,-1 -3,-1 -1,2 z m -6,-2 h 2 l 1,-2 -2,-1 v 1 l -1,1 z m -1,2 1,1 v 1 l 2,-4 h -2 z m -7,1 v -3 h -2 v 4 z m 6,-6 1,-1 v -2 l -2,1 v 2 z m 0,2 2,1 1,-3 h -3 z m 7,-10 -2,1 v 2 h 2 l 1,-2 z m 5,1 h 1 l -3,-1 h -2 v 1 l 2,-1 v 1 l -1,2 1,1 h 2 l 1,-2 -3,-1 z m 2,4 1,-2 v -1 h -2 l -1,2 v 1 z m 2,2 1,-2 -2,-1 -1,1 v 1 z m -6,5 h 1 v 1 h 1 l 1,-1 v -1 l -1,-1 v 1 l 2,-2 -1,-1 -1,1 v 1 l -1,1 h -1 z m 1,-5 2,1 1,-1 v -2 h -2 z m -1,2 h 2 l 1,-1 -2,-1 z m -5,-1 2,-1 -1,-1 -2,-1 -1,3 z m 2,-5 h 2 l 1,-1 v -1 h -2 v 1 z m -1,2 1,1 h 1 q 2,-1 1,-2 l -2,-1 v 1 z m -1,4 h 3 l 1,-2 -2,-1 -2,2 z m 3,0 h 2 l -1,2 1,1 2,-2 -2,-1 1,-2 -1,-1 h -1 l 2,1 1,-3 h -2 l -2,2 1,1 -1,1 z m 8,2 v -1 h 1 v -1 h -3 l 1,-1 1,-1 -2,-1 -1,2 1,1 -1,2 v 1 l 2,-1 -1,-1 1,1 z m -1,-2 h 2 q 2,-1 1,-2 l -2,-1 v 2 z m 0,-7 -2,-1 h -1 l 1,1 z m 1,0 h -1 z m -4,-7 -3,-1 -4,7 1,-1 h 3 z m -10,8 v 1 l -1,2 -1,2 h 3 l 1,-1 v -2 h -1 l -2,1 3,-1 h 2 l 1,-1 -1,-1 h -1 l -1,1 v 1 -2 z m -5,6 v 3 -3 h -1 l -2,1 v 4 l 2,-2 h 2 l 2,-2 v -2 h -1 z m -3,8 4,-3 q 1,-4 -2,-2 l -2,2 z m 0,0 4,2 v -1 h 1 v -3 h -2 z m 4,-3 h 1 l 1,-1 h 1 v -2 l -1,-1 -2,2 z m 6,-3 h 2 l 1,-1 v -1 h -2 z m 13,7 h 3 v -2 h -2 v 1 h -1 z m 1,2 1,-2 h -2 v 2 z m 1,1 1,-2 -1,-1 -1,2 h 1 z m -1,-7 q 2,-1 1,-2 h -2 1 q 2,-2 1,-3 h -2 l -1,2 1,1 -1,1 h 2 z m -3,-12 2,-3 -1,-2 h -1 l -3,3 z m -8,-8 4,1 4,2 3,3 3,4 1,7 -1,10 -3,14 1,3 v 5 l -1,4 q 0,3 -2,4 v -1 l 1,-1 v -3 l -1,-1 h -1 l -7,7 -10,4 10,-8 8,-12 1,-4 v -10 l -2,-5 q -1,-2 -3,-2 l -5,5 h -1 l -2,-3 -2,2 -3,4 -3,5 -3,5 -3,4 q -2,0 -3,-2 l -1,-6 v -7 l 1,-6 q 4,-8 13,-13 l 3,-5 2,-3 1,-1 z"
               aria-label="V"
               id="path50" />
          </g>
        </g>
        <path
           stroke-width="1.3"
           d="m 553,361 9,17 m 73,133 9,16 m -84,-170 9,17 m 71,134 9,17 m -81,-172 8,17 m 69,136 9,16 m -79,-172 8,16 m 67,137 8,17 m -75,-174 11,24 m 59,125 10,23 m -72,-176 7,17 m 62,140 8,16 m -69,-176 7,17 m 59,140 8,17 m -66,-177 6,17 m 58,141 7,17 m -63,-178 6,17 m 55,142 6,17 m -6,-31 11,30 m -64,-178 11,32 m -3,-35 6,17 m 49,144 6,18 m -53,-182 5,18 m 48,145 5,17 m -50,-183 5,18 m 45,146 5,18 m -47,-184 5,18 m 42,146 5,18 m -44,-184 7,26 m 36,132 6,25 m -40,-185 4,17 m 37,148 4,18 m -37,-185 4,18 m 34,148 4,18 m -34,-186 4,18 m 32,149 4,18 m -31,-187 3,18 m 29,150 4,18 m -1,-32 6,31 m -33,-187 6,34 m 2,-35 3,18 m 24,151 3,18 m -21,-188 2,18 m 22,151 2,18 m -18,-188 3,18 m 18,151 2,19 m -14,-189 2,18 m 16,152 2,18 m -12,-189 3,27 m 12,137 2,25 m -8,-190 1,19 m 11,152 1,18 m -5,-189 1,18 m 8,152 1,19 m -1,-190 1,19 m 5,152 1,19 m 1,-190 1,19 m 2,152 1,18 m 5,-189 v 189 m 9,-189 -1,19 m -2,152 -1,19 m 12,-190 v 19 m -6,152 v 19 m 15,-189 -1,18 m -8,152 -1,19 m 18,-189 -1,19 m -11,152 -1,18 m 22,-188 -3,27 m -11,137 -3,25 m 25,-188 -2,18 m -16,152 -1,18 m 28,-187 -2,18 m -19,151 -2,19 m 31,-187 -2,18 m -21,151 -3,18 m 35,-186 -3,18 m -24,151 -3,18 m 11,-30 -6,31 m 33,-187 -6,35 m 15,-33 -4,18 m -29,150 -4,18 m 45,-184 -4,18 m -32,149 -3,18 m 47,-183 -4,18 m -34,148 -4,18 m 51,-182 -5,18 m -37,147 -4,18 m 54,-181 -7,26 m -36,132 -6,25 m 57,-181 -5,18 m -42,146 -5,18 m 60,-180 -5,18 m -45,146 -5,18 m 63,-179 -5,18 m -47,145 -6,17 m 67,-177 -6,17 m -50,144 -6,18 m 16,-28 -11,30 m 65,-178 -12,32 m 20,-29 -7,17 m -55,142 -6,17 m 76,-173 -7,17 m -57,141 -7,17 m 78,-172 -7,17 m -59,140 -8,17 m 82,-171 -7,17 m -62,140 -8,16 m 85,-169 -11,24 m -58,125 -11,23 m 88,-168 -8,16 m -67,137 -8,17 m 90,-167 -8,17 m -69,136 -9,16 m 94,-165 -9,17 m -71,134 -9,17 m 97,-164 -9,17 m -74,133 -9,16 m 99,-161 -95,164 m 103,-160 -10,16 m -79,131 -9,15 m 105,-157 -10,15 m -81,130 -10,15 m 108,-156 -10,16 m -83,128 -10,15 m 110,-154 -10,15 m -85,127 -11,15 m 113,-152 -15,22 m -79,112 -14,21 m 115,-150 -11,15 m -89,123 -11,15 m 118,-148 -11,15 m -92,121 -11,15 m 121,-146 -12,15 m -93,120 -12,14 m 123,-144 -11,15 m -96,118 -12,15 m 25,-21 -21,24 m 122,-145 -22,26 m 29,-21 -13,14 m -100,115 -12,14 m 131,-137 -12,14 m -102,113 -13,14 m 133,-135 -12,13 m -104,112 -13,13 m 135,-132 -12,13 m -106,110 -13,13 m 138,-130 -20,19 m -97,97 -17,18 m 140,-128 -14,13 m -109,105 -14,13 m 142,-125 -13,12 m -112,104 -13,13 m 144,-123 -14,13 m -113,102 -14,12 m 147,-120 -14,12 m -115,100 -14,12 m 28,-16 -25,20 m 145,-122 -26,22 m 32,-15 -15,11 m -118,96 -14,12 m 152,-113 -14,12 m -121,94 -14,11 m 154,-110 -14,11 m -122,92 -15,11 m 156,-107 -14,11 m -124,90 -15,10 m 158,-104 -22,15 m -112,79 -21,15 m 160,-102 -15,10 m -126,86 -16,10 m 162,-99 -16,10 m -127,83 -16,10 m 164,-96 -16,10 m -129,81 -16,10 m 165,-93 -16,9 m -131,79 -15,9 m 166,-90 -164,95 m 169,-87 -17,9 m -133,73 -16,9 m 170,-84 -17,9 m -134,71 -17,9 m 172,-81 -17,8 m -136,69 -16,9 m 172,-79 -16,8 m -137,67 -17,8 m 174,-75 -24,11 m -125,59 -23,10 m 176,-72 -17,7 m -140,62 -16,8 m 176,-69 -17,7 m -140,59 -17,8 m 177,-66 -17,6 m -141,58 -17,7 m 178,-63 -17,6 m -142,55 -17,6 m 31,-6 -30,11 m 178,-64 -32,11 m 35,-3 -17,6 m -144,49 -18,6 m 182,-53 -18,5 m -145,48 -17,5 m 183,-50 -18,5 m -146,45 -18,5 m 184,-47 -18,5 m -146,42 -18,5 m 184,-44 -26,7 m -132,36 -25,6 m 185,-40 -17,4 m -148,37 -18,4 m 185,-37 -18,4 m -148,34 -18,4 m 186,-34 -18,4 m -149,32 -18,4 m 187,-31 -18,3 m -150,29 -18,4 m 32,-1 -31,6 m 187,-33 -34,6 m 35,2 -18,3 m -151,24 -18,3 m 188,-21 -18,2 m -151,22 -18,2 m 188,-18 -18,3 m -151,18 -19,2 m 189,-14 -18,2 m -152,16 -18,2 m 189,-12 -27,3 m -137,12 -25,2 m 190,-8 -19,1 m -152,11 -18,1 m 189,-5 -18,1 m -152,8 -19,1 m 190,-1 -19,1 m -152,5 -19,1 m 190,1 -19,1 m -152,2 -18,1 m 189,5 h -189 m 189,9 -19,-1 m -152,-2 -19,-1 m 190,12 h -19 m -152,-6 h -19 m 189,15 -18,-1 m -152,-8 -19,-1 m 189,18 -19,-1 m -152,-11 -18,-1 m 188,22 -27,-3 m -137,-11 -25,-3 m 188,25 -18,-2 m -152,-16 -18,-1 m 187,28 -18,-2 m -151,-19 -19,-2 m 187,31 -18,-2 m -151,-21 -18,-3 m 186,35 -18,-3 m -151,-24 -18,-3 m 30,11 -31,-6 m 187,33 -35,-6 m 33,15 -18,-4 m -150,-29 -18,-4 m 184,45 -18,-4 m -149,-32 -18,-3 m 183,47 -18,-4 m -148,-34 -18,-4 m 182,51 -18,-5 m -147,-37 -18,-4 m 181,54 -26,-7 m -132,-36 -25,-6 m 181,57 -18,-5 m -146,-42 -18,-5 m 180,60 -18,-5 m -146,-45 -18,-5 m 179,63 -18,-5 m -145,-47 -17,-6 m 177,67 -17,-6 m -144,-50 -18,-6 m 28,16 -30,-11 m 178,65 -32,-12 m 29,20 -17,-7 m -142,-55 -17,-6 m 173,76 -17,-7 m -141,-57 -17,-7 m 172,78 -17,-7 m -140,-59 -17,-8 m 171,82 -17,-7 m -140,-62 -16,-8 m 169,85 -24,-11 m -125,-58 -23,-11 m 168,88 -16,-8 m -137,-67 -17,-8 m 167,90 -17,-8 m -136,-69 -16,-9 m 165,94 -17,-9 m -134,-71 -17,-9 m 164,97 -17,-9 m -133,-74 -16,-9 m 161,99 -164,-95 m 160,103 -16,-10 m -131,-79 -15,-9 m 157,105 -15,-10 m -130,-81 -15,-10 m 156,108 -16,-10 m -128,-83 -15,-10 m 154,110 -15,-10 m -127,-85 -15,-11 m 152,113 -22,-15 m -112,-79 -21,-14 m 150,115 -15,-11 m -123,-89 -15,-11 m 148,118 -15,-11 m -121,-92 -15,-11 m 146,121 -15,-12 m -120,-93 -14,-12 m 144,123 -15,-11 m -118,-96 -15,-12 m 21,25 -24,-21 m 145,122 -26,-22 m 21,29 -14,-13 m -115,-100 -14,-12 m 137,131 -14,-12 m -113,-102 -14,-13 m 135,133 -13,-12 m -112,-104 -13,-13 m 132,135 -13,-12 m -110,-106 -13,-13 m 130,138 -19,-20 m -97,-97 -18,-17 m 128,140 -13,-14 m -105,-109 -13,-14 m 125,142 -12,-13 m -104,-112 -13,-13 m 123,144 -13,-14 m -102,-113 -12,-14 m 120,147 -12,-14 m -100,-115 -12,-14 m 17,28 -21,-25 m 122,145 -22,-26 m 15,32 -11,-15 m -96,-118 -12,-14 m 113,152 -12,-14 m -94,-121 -11,-14 m 110,154 -11,-14 m -92,-122 -11,-15 m 107,156 -11,-14 m -89,-124 -11,-15 m 104,158 -15,-22 m -79,-112 -15,-21 m 102,160 -10,-15 m -86,-126 -10,-16 m 99,162 -10,-16 m -83,-127 -10,-16 m 96,164 -10,-16 m -81,-129 -10,-16 m 93,165 -9,-16 m -79,-131 -9,-15 m 90,166 -95,-164"
           id="path56" />
        <g
           stroke-width="1.3"
           id="g74">
          <path
             d="M 1091,790 A 301,301 0 0 1 790,1091 301,301 0 0 1 489,790 301,301 0 0 1 790,489 301,301 0 0 1 1091,790 Z"
             id="path58" />
          <path
             d="M 1108,790 A 318,318 0 0 1 790,1108 318,318 0 0 1 472,790 318,318 0 0 1 790,472 318,318 0 0 1 1108,790 Z"
             id="path60" />
          <path
             d="M 1115,790 A 325,325 0 0 1 790,1115 325,325 0 0 1 465,790 325,325 0 0 1 790,465 325,325 0 0 1 1115,790 Z"
             id="path62" />
          <path
             d="M 1122,790 A 332,332 0 0 1 790,1122 332,332 0 0 1 458,790 332,332 0 0 1 790,458 332,332 0 0 1 1122,790 Z"
             id="path64" />
          <path
             d="M 1246,790 A 456,456 0 0 1 790,1246 456,456 0 0 1 334,790 456,456 0 0 1 790,334 456,456 0 0 1 1246,790 Z"
             id="path66" />
          <path
             d="M 1253,790 A 463,463 0 0 1 790,1253 463,463 0 0 1 327,790 463,463 0 0 1 790,327 463,463 0 0 1 1253,790 Z"
             id="path68" />
          <path
             d="M 1262,790 A 472,472 0 0 1 790,1262 472,472 0 0 1 318,790 472,472 0 0 1 790,318 472,472 0 0 1 1262,790 Z"
             id="path70" />
          <path
             d="M 1279,790 A 489,489 0 0 1 790,1279 489,489 0 0 1 301,790 489,489 0 0 1 790,301 489,489 0 0 1 1279,790 Z"
             id="path72" />
        </g>
        <path
           stroke-width="1.3"
           d="m 1027,1219 -9,-17 m -73,-133 -9,-16 m 84,170 -9,-17 m -71,-134 -9,-17 m 81,172 -8,-17 m -69,-136 -9,-16 m 79,172 -8,-16 m -67,-137 -8,-17 m 75,174 -11,-24 m -58,-125 -11,-23 m 72,176 -7,-17 m -62,-140 -8,-16 m 69,176 -7,-17 m -59,-140 -8,-17 m 66,177 -6,-17 m -58,-141 -7,-17 m 64,178 -7,-17 m -55,-142 -6,-17 m 6,31 -11,-30 m 64,178 -11,-32 m 3,35 -6,-17 m -49,-144 -6,-18 m 53,182 -5,-18 m -47,-145 -6,-17 m 50,183 -5,-18 m -45,-146 -5,-18 m 47,184 -5,-18 m -42,-146 -5,-18 m 44,184 -7,-26 m -36,-132 -6,-25 m 40,185 -4,-17 m -37,-148 -4,-18 m 37,185 -4,-18 m -34,-148 -4,-18 m 34,186 -4,-18 m -32,-149 -4,-18 m 31,187 -3,-18 m -29,-150 -4,-18 m 1,32 -6,-31 m 33,187 -6,-34 m -2,35 -3,-18 m -24,-151 -3,-18 m 21,188 -2,-18 m -22,-151 -2,-18 m 18,188 -3,-18 m -18,-151 -2,-19 m 14,189 -2,-18 m -16,-152 -2,-18 m 12,189 -3,-27 m -12,-137 -2,-25 m 8,190 -1,-19 m -11,-152 -1,-18 m 5,189 -1,-18 m -8,-152 -1,-19 m 1,190 -1,-19 m -5,-152 -1,-19 m -1,190 -1,-19 m -2,-152 -1,-18 m -5,189 v -189 m -9,189 1,-19 m 2,-152 1,-19 m -12,190 v -19 m 6,-152 v -19 m -15,189 1,-18 m 8,-152 1,-19 m -18,189 1,-19 m 11,-152 1,-18 m -22,188 3,-27 m 11,-137 3,-25 m -25,188 2,-18 m 16,-152 1,-18 m -28,187 2,-18 m 19,-151 2,-19 m -31,187 2,-18 m 21,-151 3,-18 m -35,186 3,-18 m 24,-151 3,-18 m -11,30 6,-31 m -33,187 6,-35 m -15,33 4,-18 m 29,-150 4,-18 m -45,184 4,-18 m 32,-149 3,-18 m -47,183 4,-18 m 34,-148 4,-18 m -51,182 5,-18 m 37,-147 4,-18 m -54,181 7,-26 m 36,-132 6,-25 m -57,181 5,-18 m 42,-146 5,-18 m -60,180 5,-18 m 45,-146 5,-18 m -63,179 5,-18 m 47,-145 6,-17 m -67,177 6,-17 m 50,-144 6,-18 m -16,28 11,-30 m -65,178 12,-32 m -20,29 7,-17 m 55,-142 6,-17 m -76,173 7,-17 m 57,-141 7,-17 m -78,172 7,-17 m 59,-140 8,-17 m -82,171 7,-17 m 62,-140 8,-16 m -85,169 11,-24 m 58,-125 11,-23 m -88,168 8,-16 m 67,-137 8,-17 m -90,167 8,-17 m 69,-136 9,-16 m -94,165 9,-17 m 71,-134 9,-17 m -97,164 9,-17 m 74,-133 9,-16 m -99,161 95,-164 m -103,160 10,-16 m 79,-131 9,-15 m -105,157 10,-15 m 81,-130 10,-15 m -108,156 10,-16 m 83,-128 10,-15 m -110,154 10,-15 m 85,-127 11,-15 m -113,152 15,-22 m 79,-112 14,-21 m -115,150 11,-15 m 89,-123 11,-15 m -118,148 11,-14 m 92,-122 11,-15 m -121,146 12,-15 m 93,-120 12,-14 m -123,144 11,-15 m 96,-118 12,-14 m -25,20 21,-24 m -122,145 22,-26 m -29,21 13,-14 m 100,-115 12,-14 m -131,137 12,-14 m 102,-113 13,-14 m -133,135 12,-13 m 104,-112 13,-13 m -135,132 12,-13 m 106,-110 13,-13 m -138,130 20,-19 m 97,-97 17,-17 m -140,127 14,-12 m 109,-106 14,-13 m -142,125 13,-12 m 112,-104 13,-13 m -144,123 14,-13 m 113,-102 14,-12 m -147,120 14,-12 m 115,-100 14,-12 m -28,17 25,-21 m -145,122 26,-22 m -32,15 15,-11 m 118,-96 14,-12 m -152,113 14,-12 m 121,-94 14,-11 m -154,110 14,-11 m 122,-92 15,-11 m -156,107 15,-11 m 123,-89 15,-11 m -158,104 22,-15 m 112,-79 21,-15 m -160,102 15,-10 m 126,-86 16,-10 m -162,99 16,-10 m 127,-83 16,-10 m -164,96 16,-10 m 129,-81 16,-10 m -165,93 16,-9 m 131,-79 15,-9 m -166,90 164,-95 m -169,87 17,-9 m 133,-73 16,-9 m -170,84 17,-9 m 134,-71 17,-9 m -172,81 17,-8 m 136,-69 16,-9 m -172,79 16,-8 m 137,-67 17,-8 m -174,75 24,-11 m 125,-59 23,-10 m -176,72 17,-7 m 140,-62 16,-8 m -176,69 17,-7 m 140,-59 17,-8 m -177,66 17,-6 m 141,-58 17,-7 m -178,63 17,-6 m 142,-55 17,-6 m -31,6 30,-11 m -178,64 32,-11 m -35,3 17,-6 m 144,-49 18,-6 m -182,53 18,-5 m 145,-48 17,-5 m -183,50 18,-5 m 146,-45 18,-5 m -184,47 18,-5 m 146,-42 18,-5 m -184,44 26,-7 m 132,-36 25,-6 m -185,40 17,-4 m 148,-37 18,-4 m -185,37 18,-4 m 148,-34 18,-4 m -186,34 18,-4 m 149,-32 18,-4 m -187,31 18,-3 m 150,-29 18,-4 m -32,1 31,-6 m -187,33 34,-6 m -35,-2 18,-3 m 151,-24 18,-3 m -188,21 18,-2 m 151,-22 18,-2 m -188,18 18,-3 m 151,-18 19,-2 m -189,14 18,-2 m 152,-16 18,-2 m -189,12 27,-3 m 137,-12 25,-2 m -190,8 19,-1 m 152,-11 18,-1 m -189,5 18,-1 m 152,-8 19,-1 m -190,1 19,-1 m 152,-5 19,-1 m -190,-1 19,-1 m 152,-2 18,-1 m -189,-5 h 189 m -189,-9 19,1 m 152,2 19,1 M 300,773 h 19 m 152,6 h 19 m -189,-15 18,1 m 152,8 19,1 m -189,-18 19,1 m 152,11 18,1 m -188,-22 27,3 m 137,11 25,3 m -188,-25 18,2 m 152,16 18,1 m -187,-28 18,2 m 151,19 19,2 m -187,-31 18,2 m 151,21 18,3 m -186,-35 18,3 m 151,24 18,3 m -30,-11 31,6 m -187,-33 35,6 m -33,-15 18,4 m 150,29 18,4 m -184,-45 18,4 m 149,32 18,3 m -183,-47 18,4 m 148,34 18,4 m -182,-51 18,5 m 147,37 18,4 m -181,-54 26,7 m 132,36 25,6 m -181,-57 18,5 m 146,42 18,5 m -180,-60 18,5 m 146,45 18,5 m -179,-63 18,5 m 145,47 17,6 m -177,-67 17,6 m 144,50 18,6 m -28,-16 30,11 m -178,-65 32,12 m -29,-20 17,7 m 142,55 17,6 m -173,-76 17,7 m 141,57 17,7 m -172,-78 17,7 m 140,59 17,8 m -171,-82 17,7 m 140,62 16,8 m -169,-85 24,11 m 125,58 23,11 m -168,-88 16,8 m 137,67 17,8 m -167,-90 17,8 m 136,69 16,9 m -165,-94 17,9 m 134,71 17,9 m -164,-97 17,9 m 133,74 16,9 m -161,-99 164,95 m -160,-103 16,10 m 131,79 15,9 m -157,-105 15,10 m 130,81 15,10 m -156,-108 16,10 m 128,83 15,10 m -154,-110 15,10 m 127,85 15,11 m -152,-113 22,15 m 112,79 21,14 m -150,-115 15,11 m 123,89 15,11 m -148,-118 14,11 m 122,92 15,11 m -146,-121 15,12 m 120,93 14,12 m -144,-123 15,11 m 118,96 14,12 m -20,-25 24,21 m -145,-122 26,22 m -21,-29 14,13 m 115,100 14,12 m -137,-131 14,12 m 113,102 14,13 m -135,-133 13,12 m 112,104 13,13 m -132,-135 13,12 m 110,106 13,13 m -130,-138 19,20 m 97,97 17,17 m -127,-140 12,14 m 106,109 13,14 m -125,-142 12,13 m 104,112 13,13 m -123,-144 13,14 m 102,113 12,14 m -120,-147 12,14 m 100,115 12,14 m -17,-28 21,25 m -122,-145 22,26 m -15,-32 11,15 m 96,118 12,14 m -113,-152 12,14 m 94,121 11,14 m -110,-154 11,14 m 92,122 11,15 m -107,-156 11,14 m 89,124 11,15 m -104,-158 15,22 m 79,112 15,21 m -102,-160 10,15 m 86,126 10,16 m -99,-162 10,16 m 83,127 10,16 m -96,-164 10,16 m 81,129 10,16 m -93,-165 9,16 m 79,131 9,15 m -90,-166 95,164"
           id="path76-3" />
      </g>
    </g>
  </g>
</svg>
