<svg xmlns="http://www.w3.org/2000/svg" xmlns:xlink="http://www.w3.org/1999/xlink" class="natal" viewBox="-60 -55 980 940"><defs><path id="a" d="M365-26v160"/></defs><g transform="matrix(1.0113 0 0 1 63 39)"><use xlink:href="#a" transform="rotate(8 365 365)"/><use xlink:href="#a" transform="rotate(-15 365 365)"/><use xlink:href="#a" transform="rotate(-57 365 365)"/><use xlink:href="#a" transform="rotate(-125 365 365)"/><use xlink:href="#a" transform="rotate(-140 365 365)"/><use xlink:href="#a" transform="rotate(-155 365 365)"/><use xlink:href="#a" transform="rotate(-172 365 365)"/><use xlink:href="#a" transform="rotate(165 365 365)"/><use xlink:href="#a" transform="rotate(123 365 365)"/><use xlink:href="#a" transform="rotate(55 365 365)"/><use xlink:href="#a" transform="rotate(40 365 365)"/><use xlink:href="#a" transform="rotate(25 365 365)"/></g><g fill="green" font-family="astrostyle" font-size="14" letter-spacing="0" style="line-height:125%" word-spacing="0"><path d="M463 26V9h4v17z" aria-label="^"/><path d="M307 41V23h2v18zm6 0V23h3v18z" aria-label="^^"/><path d="M81 215v-18h4v18zm7 0v-18h4v18zm7 0v-18h2v18z" aria-label="^^^"/><path d="M104 653v-18h4v18zm13 0-7-18h1l6 14 2 2v-2l5-14h2l-7 18z" aria-label="^«"/><path d="m183 728-7-18h2l5 12v4l2-4 4-12h3l-7 18z" aria-label="«"/><path d="m271 779-7-18h4l5 13v3l2-3 3-13h4l-7 18zm13 0v-18h2v18z" aria-label="«^"/><path d="m386 807-7-17h2l5 14v2l2-2 5-14h2l-7 17zm11 0v-17h3v17zm7 0v-17h4v17z" aria-label="«^^"/><path d="m544 793-7-18h2l5 13v3l2-3 5-13h2l-7 18zm11 0v-18h3v18zm7 0v-18h4v18zm7 0v-18h4v18z" aria-label="«^^^"/><path d="M763 619v-18h4v18zm5 0 8-9-8-9h4l4 6 1 2v-2l4-6h4l-8 9 8 9h-4l-4-5-1-2v2l-6 5z" aria-label="^»"/><path d="m738 181 7-11-7-7h4l3 4 2 1v-1l5-4h2l-7 7 7 11h-2l-5-7v-2l-2 2-3 7z" aria-label="»"/><path d="m664 106 8-9-6-8h4l2 5 1 2 2-2 4-5h2l-6 8 7 9h-3l-4-5-2-2v2l-5 5zm20 0V89h2v17z" aria-label="»^"/><path d="m576 55 8-9-8-9h4l4 5v2l1-2 4-5h4l-8 9 8 9h-4l-4-7h-1v1l-6 6zm18 0V37h4v18zm8 0V37h1v18z" aria-label="»^^"/></g><g fill="green" font-family="astrostyle" font-size="18" letter-spacing="0" style="line-height:125%" word-spacing="0"><path d="m529 167-5 2-6-2-2-5 2-6 6-1 5 1 2 6-2 5zm-5-11-5 2-2 4q0 3 2 4 2 2 5 2l4-2q2-1 2-4l-1-3-3-1-2-2zm-1 5h1l1 1h-1v1l-1-1v-1z" aria-label="Q"/><path d="m629 244-5-2 4-2q2-1 2-3t-2-4l-4-1 5-2 5 1 2 4v2l-1 5-6 2zm0-13h-1q3 2 3 6t-3 6h1l5-3 1-3-1-4-5-2z" aria-label="W"/><path d="M512 162v1h3v3h-3v1h-1v-1h-2v-3h2v-1l-2-2-2-2q0-3 3-4l-3-2h2q0 2 3 2l1-1 2-1h1l-1 2 1 4-1 2-3 2zm1-7h-3l-1 3 1 2 2 1 1-1 2-2-2-3z" aria-label="E"/><path d="m340 161-3 1v3h3v1h-3v2h-1v-2h-4v-1h4v-3l-4-1-1-3 1-4 4-1 4 1 1 4-1 3zm-2-6-2-1-2 1-2 3 2 2 2 1 2-1 2-2-2-3z" aria-label="R"/><path d="M601 202v-5l-4 5 1 3-2 4-4 1-2-1-3-4q0-2 3-3l2-1h4l4-5h-4v-1h7v7zm-5 1h-2l-2-1-2 1v5l2 1 4-1v-5z" aria-label="T"/><path d="M218 256v3h-1v-3h-8v-3l3-3v-1l-1-3h-2v-2l3 1 1 4-2 4h6v-7h1v7h2v3z" aria-label="Y"/><path d="m272 203-2 1-1 3v1l1 1h-1l-1-2 1-3 1-2v-2l-3-2h-1l-2 3v4h-2v-10h-2v-1h2v-1h2v1h3v1h-3v3l3-1 3 1 2 3v2z" aria-label="U"/><path d="M229 571v-3h-4v4l3 1 1 2-1 3-3 1-2-1-1-3v-2l2-1v-4h-4v3h-1v-8h1v3h4v-2h1v2h4v-3h1v8zm-3 2h-3v4l2 1 1-1 2-2-2-2z" aria-label="I"/><path d="m175 355-5 2v1h4v3h-4v2h-1v-2h-3v-3h3v-1l-3-2-3-3-1-3v-1h2v1l2 5 3 1v-7h1v7l4-1 1-3 1-2v-1h2v1q0 3-3 6z" aria-label="O"/><path d="M324 166h-1l-1 1-3-1-1-3 1-2 3-1 2 1v5zm-2 4v3h3v1h-3v2h-2v-2h-3v-1h3v-3l-4-2-2-5h2l1 4 5 1 3-1 1-4h2l-2 5-4 2zm1-8-1-1-3 1v3h4v-3z" aria-label="P"/><path d="M344 159v3h4v1h-4v3h-1v-3h-2v-1h2v-3l-2-1 1-2 1-1-1-2-1-1 3-1 3 1q2 1 2 3l-1 3-4 1zm0-7h-1l1 3-1 3h4l1-3-1-2-3-1z" aria-label="C"/><path d="m353 654-3-2-1-3 1-2 4-2 3 2h-3l-1 2 1 2 2 1h1l-3 2v3h3v1h-3v3h-1v-3h-3v-1h3z" aria-label="i"/><path d="m295 633-1 1-1 1-2-1-2-1 2-3h1l-1-3 1-5 2-1 3-1 4 2 2 1 1 4-1 3h1v4l-3 1-2-1v-3l1-1 1-2v-1l-1-4-3-1-4 1-1 4 1 1 1 2 1 3zm6-2h-1v2l1 1 2-1v-2h-2zm-8 0h-1v2l1 1v-1h1l-1-2z" aria-label="M"/><path d="M559 175v1l-2 1-1 2v2l1 3 4 2 4-2 1-3-1-2-2-2-1-1v-1l1-2h4l1 2-1 1-1 1 1 4v2l-2 3-4 1h-2l-3-3q-2-1-2-3l1-4-1-1v-1l1-2h4v2zm7 1 1-1-1-1h-1v2h1zm-10 0h1v-2h-2v2h1z" aria-label="Z"/></g><g stroke="red" transform="matrix(1.13183 0 0 1.11789 19 -4)"><circle cx="444.4" cy="158.1" r=".5"/><circle cx="534.8" cy="222.6" r=".5"/><circle cx="437.1" cy="155.5" r=".5"/><circle cx="289.2" cy="156.8" r=".5"/><circle cx="504.5" cy="192.8" r=".5"/><circle cx="185.7" cy="234.7" r=".5"/><circle cx="228.6" cy="190.4" r=".5"/><circle cx="195.2" cy="507.4" r=".5"/><circle cx="147.5" cy="322.7" r=".5"/><circle cx="274.9" cy="162.6" r=".5"/><circle cx="296.5" cy="154.2" r=".5"/><circle cx="303.9" cy="578" r=".5"/><circle cx="254.2" cy="556.9" r=".5"/><circle cx="475.8" cy="173.1" r=".5"/></g><path stroke="#00С" stroke-dasharray="18 12 0" d="m512 197 92 64m0 0-99-67"/></svg>