<svg xmlns="http://www.w3.org/2000/svg" xmlns:xlink="http://www.w3.org/1999/xlink" class="natal" viewBox="-60 -55 980 940"><defs><ellipse id="a" cx="357.9" cy="102.6" fill="none" stroke="#fe0c00" stroke-width="1" rx="30.6" ry="15.3"/></defs><g transform="translate(-53 -57)"><use xlink:href="#a" width="100%" height="100%" transform="matrix(.9503 .34202 -.34588 .9397 264 -7)"/><use xlink:href="#a" width="100%" height="100%" transform="matrix(.94413 -.35837 .36242 .93358 8 251)"/><path stroke="red" d="M657 318 313 603"/><path stroke="#00c" d="M626 289 265 419"/><path stroke="red" d="m626 289-322 42m43-45-34 317m344-285-310-32"/><path stroke="#00c" d="m558 251-211 35m-82 133 129-161m171-4-218 32m61-33L265 419m143-166 218 36m0 0-232-31"/><path stroke="red" stroke-dasharray="18 12" d="m558 251-164 7m171-4-171 4m-47 28-82 133"/><path stroke="#00ะก" stroke-dasharray="18 12 0" d="m565 254 92 64m0 0-99-67m-254 80 90-73"/><path stroke="#00c" stroke-dasharray="18 12" d="M558 251 313 603m252-349L313 603"/><path stroke="#0f0" d="m558 251-254 80m261-77-261 77m353-13-263-60m263 60-249-65"/><path stroke="red" d="m313 603-48-184"/><path stroke="sienna" d="m558 251-150 2m157 1-157-1"/></g></svg>