<?xml version="1.0" encoding="UTF-8" standalone="no"?>
<!-- <svg xmlns="http://www.w3.org/2000/svg" xmlns:xlink="http://www.w3.org/1999/xlink" viewBox="0 0 1080 1080" class="natal"> -->

<svg
   viewBox="-60 -55 980 940"
   class="natal"
   version="1.1"
   id="svg413"
   sodipodi:docname="trine-2-i.svg"
   width="980"
   height="940"
   inkscape:version="1.1.1 (26b7af14f2, 2022-01-19)"
   xmlns:inkscape="http://www.inkscape.org/namespaces/inkscape"
   xmlns:sodipodi="http://sodipodi.sourceforge.net/DTD/sodipodi-0.dtd"
   xmlns="http://www.w3.org/2000/svg"
   xmlns:svg="http://www.w3.org/2000/svg">
  <sodipodi:namedview
     id="namedview415"
     pagecolor="#ffffff"
     bordercolor="#666666"
     borderopacity="1.0"
     inkscape:pageshadow="2"
     inkscape:pageopacity="0.0"
     inkscape:pagecheckerboard="0"
     showgrid="false"
     width="980px"
     inkscape:zoom="0.8851313"
     inkscape:cx="528.17023"
     inkscape:cy="266.06222"
     inkscape:window-width="1288"
     inkscape:window-height="704"
     inkscape:window-x="72"
     inkscape:window-y="27"
     inkscape:window-maximized="1"
     inkscape:current-layer="g5518"
     height="940px" />
  <style
     id="style2">
          @font-face {
  font-family: 'astrostyle';
  src:url('../fonts/astrostyle.eot');
  src:url('../fonts/astrostyle.eot?#iefix') format('embedded-opentype'),
    url('../fonts/astrostyle.svg#astrostyle') format('svg'),
    url('../fonts/astrostyle.woff') format('woff'),
    url('../fonts/astrostyle.ttf') format('truetype');
  font-weight: normal;
  font-style: normal;
  }

/** Natal Card **/
        #circle circle {
            fill: none;
            stroke: #575757;
            stroke-width: 1px;
            }
        #line path {
            fill: none;
            stroke: #575757;
            stroke-width: 1px;
            }
        ellipse {
          fill: none;
            stroke:#fe0c00;
            stroke-width: 1px;
      }
        #znaki-big, #znaki, #sun, #znak, #housenumber {
            letter-spacing: 0;
            word-spacing: 0;
            line-height: 125%;
            font-family: astrostyle;
            }
        #znaki-big {
            font-size: 64px;
            fill: #4d4d4d;
            }
        #znaki {
            font-size: 40px;
            fill: #4d4d4d;
            }
        #znak text {
            font-size: 18px;
            fill: green;
            }
        #housenumber text {
            font-size: 14px;
            fill: green;
            }
        #sun {
            font-size: 100px;
            fill: green;
            }
        #dot circle {
            fill: #00e200;
            }
        #dot-4 circle {
            fill: #f80000;
            }
        #house path {
            stroke: lime;
            }
        </style>
  <!-- Дома -->
  <!-- /Дома -->
  <!-- Планеты -->
  <!-- /Планеты -->
  <!-- Аспекты между планетами -->
  <defs
     id="defs355">
    <ellipse
       id="ellipse20"
       cx="357.93793"
       cy="102.64423"
       rx="30.587343"
       ry="15.314463" />
  </defs>
  <!-- Соединение -->
  <!-- Соединение -->
  <!-- Оппозиция -->
  <!-- Трин -->
  <!-- Квадрат -->
  <!-- Квадрат -->
  <!-- Квадрат -->
  <!-- Секстиль -->
  <!-- Секстиль -->
  <!-- Секстиль -->
  <!-- Секстиль -->
  <!-- Секстиль -->
  <!-- Секстиль -->
  <!-- Полуквадрат -->
  <!-- Полуквадрат -->
  <!-- Полуквадрат -->
  <!-- Полусикстиль -->
  <!-- Полусикстиль -->
  <!-- Полусикстиль -->
  <!-- Квиканс -->
  <!-- Квиканс -->
  <!-- Квинтиль -->
  <!-- Квинтиль -->
  <!-- Квинтиль -->
  <!-- Квинтиль -->
  <!-- Септель -->
  <!-- Наногон -->
  <!-- Наногон -->
  <!-- /Аспекты между планетами -->
  <g
     id="g3664"
     transform="translate(-53.099748,-57.046571)">
    <g
       id="g5518">
      <g
         id="house"
         transform="matrix(1.011295,0,0,1,115.84234,95.74223)">
        <path
           d="M 365,-26 V 134"
           transform="rotate(7.5,365,365)"
           id="house1" />
        <path
           d="M 365,-26 V 134"
           transform="rotate(-15.33,365,365)"
           id="house2" />
        <path
           d="M 365,-26 V 134"
           transform="rotate(-57.06,365,365)"
           id="house3" />
        <path
           d="M 365,-26 V 134"
           transform="rotate(-125.11,365,365)"
           id="house4" />
        <path
           d="M 365,-26 V 134"
           transform="rotate(-140.1,365,365)"
           id="house5" />
        <path
           d="M 365,-26 V 134"
           transform="rotate(-155.37,365,365)"
           id="house6" />
        <path
           d="M 365,-26 V 134"
           transform="rotate(-172.5,365,365)"
           id="house7" />
        <path
           d="M 365,-26 V 134"
           transform="rotate(164.67,365,365)"
           id="house8" />
        <path
           d="M 365,-26 V 134"
           transform="rotate(122.94,365,365)"
           id="house9" />
        <path
           d="M 365,-26 V 134"
           transform="rotate(54.89,365,365)"
           id="house10" />
        <path
           d="M 365,-26 V 134"
           transform="rotate(39.9,365,365)"
           id="house11" />
        <path
           d="M 365,-26 V 134"
           transform="rotate(24.63,365,365)"
           id="house12" />
      </g>
      <g
         id="housenumber"
         transform="matrix(1.7950923,0,0,1.7750432,-181.63728,-173.99625)">
        <g
           aria-label="^"
           id="hn1"
           style="font-size:14px;fill:#008000">
          <path
             d="m 389.47272,144.61662 v -10.02148 h 1.32617 v 10.02148 z"
             id="path9079" />
        </g>
        <g
           aria-label="^^"
           id="hn2"
           style="font-size:14px;fill:#008000">
          <path
             d="M 301.51498,153.08528 V 143.0638 h 1.32618 v 10.02148 z"
             id="path9074" />
          <path
             d="M 305.40463,153.08528 V 143.0638 h 1.32617 v 10.02148 z"
             id="path9076" />
        </g>
        <g
           aria-label="^^^"
           id="hn3"
           style="font-size:14px;fill:#008000">
          <path
             d="m 176.35959,250.8692 v -10.02148 h 1.32617 v 10.02148 z"
             id="path9693" />
          <path
             d="m 180.24924,250.8692 v -10.02148 h 1.32617 v 10.02148 z"
             id="path9695" />
          <path
             d="m 184.13889,250.8692 v -10.02148 h 1.32617 v 10.02148 z"
             id="path9697" />
        </g>
        <g
           aria-label="^«"
           id="hn4"
           style="font-size:14px;fill:#008000">
          <path
             d="M 189.32834,498.36139 V 488.3399 h 1.32617 v 10.02149 z"
             id="path9287" />
          <path
             d="m 195.85666,498.36139 -3.88281,-10.02149 h 1.43554 l 2.6045,7.28028 q 0.31445,0.875 0.52636,1.64062 0.23242,-0.82031 0.54004,-1.64062 l 2.70703,-7.28028 h 1.35352 l -3.92383,10.02149 z"
             id="path9289" />
        </g>
        <g
           aria-label="«"
           id="hn5"
           style="font-size:14px;fill:#008000">
          <path
             d="m 232.51389,539.6192 -3.88282,-10.02148 h 1.43555 l 2.60449,7.28027 q 0.31446,0.875 0.52637,1.64063 0.23242,-0.82032 0.54004,-1.64063 l 2.70703,-7.28027 h 1.35352 l -3.92383,10.02148 z"
             id="path9284" />
        </g>
        <g
           aria-label="«^"
           id="hn6"
           style="font-size:14px;fill:#008000">
          <path
             d="m 282.35764,568.97858 -3.88282,-10.02149 h 1.43555 l 2.60449,7.28028 q 0.31446,0.875 0.52637,1.64062 0.23242,-0.82031 0.54004,-1.64062 l 2.70703,-7.28028 h 1.35352 l -3.92383,10.02149 z"
             id="path9251" />
          <path
             d="m 289.05685,568.97858 v -10.02149 h 1.32618 v 10.02149 z"
             id="path9253" />
        </g>
        <g
           aria-label="«^^"
           id="hn7"
           style="font-size:14px;fill:#008000">
          <path
             d="m 345.77826,585.38312 -3.88281,-10.02149 h 1.43554 l 2.6045,7.28028 q 0.31445,0.875 0.52636,1.64062 0.23242,-0.82031 0.54004,-1.64062 l 2.70703,-7.28028 h 1.35352 l -3.92383,10.02149 z"
             id="path9238" />
          <path
             d="m 352.47748,585.38312 v -10.02149 h 1.32617 v 10.02149 z"
             id="path9240" />
          <path
             d="m 356.36713,585.38312 v -10.02149 h 1.32617 v 10.02149 z"
             id="path9242" />
        </g>
        <g
           aria-label="«^^^"
           id="hn8"
           style="font-size:14px;fill:#008000">
          <path
             d="m 433.73141,576.91302 -3.88281,-10.02148 h 1.43555 l 2.60449,7.28027 q 0.31445,0.875 0.52637,1.64063 0.23242,-0.82031 0.54004,-1.64063 l 2.70703,-7.28027 h 1.35351 l -3.92382,10.02148 z"
             id="path9226" />
          <path
             d="m 440.43063,576.91302 v -10.02148 h 1.32618 v 10.02148 z"
             id="path9228" />
          <path
             d="m 444.32028,576.91302 v -10.02148 h 1.32617 v 10.02148 z"
             id="path9230" />
          <path
             d="m 448.20993,576.91302 v -10.02148 h 1.32617 v 10.02148 z"
             id="path9232" />
        </g>
        <g
           aria-label="^»"
           id="hn9"
           style="font-size:14px;fill:#008000">
          <path
             d="m 556.25067,479.12787 v -10.02149 h 1.32617 v 10.02149 z"
             id="path9193" />
          <path
             d="m 558.89618,479.12787 3.87598,-5.22266 -3.41797,-4.79883 h 1.5791 l 1.81836,2.57032 q 0.56738,0.7998 0.80664,1.23047 0.33496,-0.54688 0.79297,-1.14161 l 2.0166,-2.65918 h 1.44238 l -3.52051,4.72364 3.79395,5.29785 h -1.64063 l -2.52246,-3.5752 q -0.21191,-0.30761 -0.4375,-0.66992 -0.33496,0.54688 -0.47851,0.75195 l -2.51563,3.49317 z"
             id="path9195" />
        </g>
        <g
           aria-label="»"
           id="hn10"
           style="font-size:14px;fill:#008000">
          <path
             d="m 542.03522,231.6405 3.87597,-5.22265 -3.41796,-4.79883 h 1.5791 l 1.81836,2.57031 q 0.56738,0.79981 0.80664,1.23047 0.33496,-0.54688 0.79297,-1.1416 l 2.0166,-2.65918 h 1.44238 l -3.52051,4.72363 3.79395,5.29785 h -1.64063 l -2.52246,-3.57519 q -0.21191,-0.30762 -0.4375,-0.66992 -0.33496,0.54687 -0.47851,0.75195 l -2.51563,3.49316 z"
             id="path9137" />
        </g>
        <g
           aria-label="»^"
           id="hn11"
           style="font-size:14px;fill:#008000">
          <path
             d="m 501.49268,190.3797 3.87597,-5.22266 -3.41797,-4.79882 h 1.57911 l 1.81835,2.57031 q 0.56739,0.7998 0.80665,1.23047 0.33496,-0.54688 0.79296,-1.1416 l 2.01661,-2.65918 h 1.44238 l -3.52051,4.72363 3.79395,5.29785 h -1.64063 l -2.52246,-3.5752 q -0.21191,-0.30761 -0.4375,-0.66992 -0.33496,0.54688 -0.47852,0.75196 l -2.51562,3.49316 z"
             id="path9120" />
          <path
             d="m 512.07471,190.3797 v -10.02148 h 1.32617 v 10.02148 z"
             id="path9122" />
        </g>
        <g
           aria-label="»^^"
           id="hn12"
           style="font-size:14px;fill:#008000">
          <path
             d="m 451.64719,161.01819 3.87597,-5.22266 -3.41797,-4.79883 h 1.57911 l 1.81836,2.57032 q 0.56738,0.7998 0.80664,1.23047 0.33496,-0.54688 0.79296,-1.14161 l 2.01661,-2.65918 h 1.44238 l -3.52051,4.72364 3.79395,5.29785 h -1.64063 l -2.52246,-3.5752 q -0.21191,-0.30761 -0.4375,-0.66992 -0.33496,0.54688 -0.47852,0.75195 l -2.51562,3.49317 z"
             id="path9088" />
          <path
             d="M 462.22922,161.01819 V 150.9967 h 1.32617 v 10.02149 z"
             id="path9090" />
          <path
             d="M 466.11887,161.01819 V 150.9967 h 1.32617 v 10.02149 z"
             id="path9092" />
        </g>
      </g>
      <g
         id="znak"
         transform="matrix(1.1908751,0,0,1.1671284,40.344789,43.488796)">
        <g
           aria-label="Q"
           id="text270"
           style="font-size:18px;fill:#008000">
          <path
             d="m 454.98285,155.10883 v -0.0176 q -1.79297,1.82812 -4.39453,1.82812 -2.55762,0 -4.36817,-1.79297 -1.81054,-1.79296 -1.81054,-4.35058 0,-2.56641 1.81054,-4.35938 1.81055,-1.79297 4.36817,-1.79297 2.58398,0 4.38574,1.79297 1.80176,1.79297 1.80176,4.35059 0,2.54883 -1.79297,4.3418 z m -4.39453,-9.39551 q -2.11817,0 -3.60352,1.46777 -1.48535,1.46777 -1.48535,3.58594 0,2.11816 1.48535,3.58594 1.48535,1.46777 3.60352,1.46777 2.13574,0 3.6123,-1.46777 1.47657,-1.46778 1.47657,-3.60352 0,-1.25684 -0.60645,-2.38184 -0.60645,-1.13378 -1.66113,-1.82812 -1.26563,-0.82617 -2.82129,-0.82617 z m -0.65918,4.36816 q 0.29004,-0.28125 0.67676,-0.28125 0.3955,0 0.67675,0.28125 0.28125,0.28125 0.28125,0.67676 0,0.38672 -0.28125,0.65918 -0.28125,0.27246 -0.67675,0.27246 -0.38672,0 -0.67676,-0.27246 -0.28125,-0.27246 -0.28125,-0.65918 0,-0.39551 0.28125,-0.67676 z"
             id="path9098" />
        </g>
        <!-- Солнце -->
        <g
           aria-label="W"
           id="text274"
           style="font-size:18px;fill:#008000">
          <path
             d="m 539.2359,220.91504 v 0.0176 q -2.58398,0 -4.48242,-1.88965 1.90723,-0.0879 3.35742,-1.08985 1.66992,-1.13378 1.66992,-2.94433 0,-1.81934 -1.66992,-2.98828 -1.43262,-1.00196 -3.35742,-1.08106 1.90723,-1.88086 4.46484,-1.88086 1.82813,0 3.375,0.97559 1.54688,0.9668 2.29395,2.62793 0.47461,1.05469 0.47461,2.31152 0,2.50489 -1.81055,4.22754 -1.81055,1.71387 -4.31543,1.71387 z m 0,-10.74902 -0.0176,0.009 q -0.67676,0 -1.66113,0.25489 3.30469,1.70508 3.30469,4.58789 0,2.85644 -3.30469,4.57031 0.9668,0.26367 1.67871,0.26367 2.05664,0 3.5332,-1.39746 1.48536,-1.40625 1.48536,-3.44531 0,-2.04785 -1.48536,-3.44531 -1.47656,-1.39746 -3.5332,-1.39746 z"
             id="path9134" />
        </g>
        <!-- Луна -->
        <g
           aria-label="E"
           id="text278"
           style="font-size:18px;fill:#008000">
          <path
             d="m 441.12109,150.6082 v 1.88086 h 1.94239 v 1.01953 h -1.94239 v 1.46777 h -1.00195 v -1.46777 h -1.95117 v -1.01953 h 1.95117 l -0.0176,-1.88086 q -1.30078,-0.2373 -2.13574,-1.17773 -0.82617,-0.94922 -0.82617,-2.25879 0,-1.70508 1.53808,-2.87403 -1.46777,-0.8789 -1.5205,-2.32031 h 1.01074 q 0.12305,1.72266 2.46094,1.72266 0.96679,0 1.60839,-0.38672 0.73829,-0.43945 0.84375,-1.33594 h 1.01954 q -0.0703,1.47656 -1.54688,2.30274 1.54688,1.18652 1.5293,2.90917 -0.0176,1.31836 -0.83496,2.24122 -0.8086,0.92285 -2.12696,1.17773 z m 1.23047,-5.15918 v -0.0176 q -0.71191,-0.71191 -1.72265,-0.71191 -1.03711,0 -1.75782,0.71191 -0.71191,0.71192 -0.71191,1.74024 0,1.01953 0.71191,1.74023 0.72071,0.7207 1.74024,0.7207 1.02832,0 1.74902,-0.71191 0.7207,-0.71191 0.7207,-1.74023 0,-1.03711 -0.72949,-1.73145 z"
             id="path9095" />
        </g>
        <!-- Меркурий -->
        <g
           aria-label="R"
           id="text282"
           style="font-size:18px;fill:#008000">
          <path
             d="m 295.80112,149.86067 0.0176,0.0176 q -0.84375,0.84375 -2.1709,1.08984 v 2.10938 h 2.1709 v 1.125 h -2.1709 v 1.65234 h -1.14258 v -1.65234 h -2.1709 v -1.125 h 2.1709 v -2.10938 q -1.45899,-0.26367 -2.38184,-1.30957 -0.91406,-1.05468 -0.91406,-2.53125 0,-1.60839 1.125,-2.73339 1.125,-1.125 2.7334,-1.125 1.6084,0 2.74219,1.125 1.13379,1.125 1.13379,2.73339 0,1.59082 -1.14258,2.7334 z m -0.76465,-4.64062 h 0.0176 q -0.8086,-0.8086 -1.96875,-0.8086 -1.14258,0 -1.9336,0.79981 -0.78222,0.79101 -0.78222,1.93359 0,1.14258 0.79101,1.95117 0.79981,0.79981 1.94238,0.79981 1.14258,0 1.9336,-0.79102 0.7998,-0.7998 0.7998,-1.94238 0,-1.14258 -0.7998,-1.94238 z"
             id="path9062" />
        </g>
        <!-- Венера -->
        <g
           aria-label="T"
           id="text286"
           style="font-size:18px;fill:#008000">
          <path
             d="m 515.61505,185.07475 v -3.70019 l -3.87598,3.86718 q 0.76465,1.15137 0.76465,2.39942 0,1.6875 -1.16894,2.86523 -1.16895,1.17774 -2.85645,1.17774 -1.6875,0 -2.85644,-1.17774 -1.16895,-1.17773 -1.16895,-2.86523 0,-1.6875 1.17774,-2.85645 1.17773,-1.16894 2.86523,-1.16894 1.26563,0 2.39941,0.80859 l 3.94629,-3.97265 H 510.992 v -1.16895 h 5.792 v 5.79199 z m -5.10644,0.55371 -0.0176,0.0176 q -0.86133,-0.86133 -2.03028,-0.86133 -1.18652,0 -2.01269,0.84375 -0.82617,0.84375 -0.82617,2.03028 0,1.16894 0.84375,2.01269 0.84375,0.84375 2.01269,0.84375 1.18653,0 2.03028,-0.84375 0.84375,-0.84375 0.84375,-2.03027 0,-1.16895 -0.84375,-2.0127 z"
             id="path9131" />
        </g>
        <!-- Марс -->
        <g
           aria-label="Y"
           id="text290"
           style="font-size:18px;fill:#008000">
          <path
             d="m 193.90451,230.75787 v 3.71778 h -1.30957 v -3.71778 h -6.87305 l 0.0176,-1.37109 q 2.16211,-1.01953 2.96192,-2.97949 0.22851,-0.54492 0.22851,-1.03711 0,-1.30957 -0.98437,-2.08301 -0.87891,-0.69434 -2.22364,-0.72949 v -1.30957 q 1.91602,0.0791 3.16407,1.125 1.34472,1.11621 1.34472,2.97949 0,1.93359 -2.22363,4.12207 h 4.58789 v -6.12598 h 1.30957 v 6.12598 h 1.95996 v 1.2832 z"
             id="path9335" />
        </g>
        <!-- Юпитер -->
        <g
           aria-label="U"
           id="text294"
           style="font-size:18px;fill:#008000">
          <path
             d="m 238.54514,185.85944 v -0.0176 q -0.18457,0.27246 -0.95801,1.08984 -0.94922,0.97559 -0.94922,1.90723 0,0.88769 0.7998,1.47656 0.14942,0.10547 0.167,0.29004 0,0.16699 -0.12305,0.27246 -0.35156,0.29004 -0.67676,0.0703 -0.59766,-0.41308 -0.9668,-1.47656 -0.16699,-0.49219 -0.16699,-0.63281 0,-1.21289 0.93164,-2.10059 1.06348,-1.02832 1.4502,-1.89844 0.12304,-0.28125 0.12304,-0.62402 0,-0.47461 -0.20214,-0.81738 -0.81739,-1.35352 -2.56641,-1.35352 -0.94043,0 -1.72266,0.43946 -0.78222,0.43066 -1.15136,1.14257 v 4.8252 h -1.19532 v -9.09668 h -2.76855 v -0.98438 h 2.76855 v -1.49414 h 1.19532 v 1.49414 h 2.75097 v 0.98438 h -2.75097 l -0.0176,2.67187 q 1.43262,-0.94921 2.93555,-0.94921 1.45898,0 2.57519,0.8789 1.11621,0.87012 1.11621,2.07422 0,0.93164 -0.59765,1.82813 z"
             id="path9338" />
        </g>
        <!-- Сатурн -->
        <g
           aria-label="I"
           id="text298"
           style="font-size:18px;fill:#008000">
          <path
             d="m 203.0676,501.37506 v -2.85644 h -2.76856 v 3.26074 q 1.09863,0.26367 1.81055,1.09863 0.71191,0.82617 0.71191,1.93359 0,1.27442 -0.90527,2.17969 -0.90527,0.90528 -2.18848,0.90528 -1.27441,0 -2.17968,-0.90528 -0.89649,-0.90527 -0.89649,-2.17969 0,-1.10742 0.70313,-1.93359 0.71191,-0.83496 1.80175,-1.09863 v -3.26074 h -2.76855 v 2.85644 h -1.14258 v -7.43555 h 1.14258 v 3.43653 h 2.76855 v -2.71582 h 1.14258 v 2.71582 h 2.76856 v -3.43653 h 1.13379 v 7.43555 z m -1.96875,2.06543 v 0.0176 q -0.59766,-0.59766 -1.37989,-0.59766 -0.80859,0 -1.37109,0.57129 -0.5625,0.57129 -0.5625,1.37988 0,0.8086 0.5625,1.37989 0.5625,0.5625 1.3623,0.5625 0.8086,0 1.37989,-0.55371 0.57129,-0.5625 0.58886,-1.3711 0,-0.77343 -0.58007,-1.38867 z"
             id="path9292" />
        </g>
        <!-- Уран -->
        <g
           aria-label="O"
           id="text302"
           style="font-size:18px;fill:#008000">
          <path
             d="m 158.10666,315.86139 q -1.5293,1.5293 -3.79688,1.80176 v 1.7666 h 2.74219 v 1.21289 h -2.74219 v 2.10937 h -1.22168 v -2.10937 h -2.8125 v -1.21289 h 2.8125 l 0.0176,-1.7666 q -1.77539,-0.21973 -3.17285,-1.25684 -1.38867,-1.0459 -2.03906,-2.70703 -0.42188,-1.05469 -0.42188,-2.23242 v -1.54688 h 1.2041 v 1.54688 q 0,1.90722 1.24805,3.31347 1.25684,1.39747 3.16406,1.66993 v -6.49512 h 1.22168 v 6.51269 q 1.41504,-0.2373 2.51368,-1.08105 1.09863,-0.85254 1.59082,-2.16211 0.30761,-0.81738 0.30761,-1.75781 v -1.54688 h 1.2041 l 0.0176,1.5293 q 0.0352,2.54004 -1.83691,4.41211 z"
             id="path9326" />
        </g>
        <!-- Нептун -->
        <g
           aria-label="P"
           id="text306"
           style="font-size:18px;fill:#008000">
          <path
             d="m 282.61752,153.7552 q -0.58007,0.5625 -1.01074,0.70313 -0.29004,0.11426 -0.95801,0.11426 -1.16015,0 -1.95996,-0.79981 -0.79101,-0.80859 -0.79101,-1.95996 0,-1.16016 0.80859,-1.95117 0.81738,-0.79981 1.96875,-0.79981 1.16016,0 1.95117,0.8086 0.79981,0.7998 0.79981,1.95117 0,1.14258 -0.8086,1.93359 z m -1.41504,3.81446 v 2.02148 h 2.80372 v 1.11621 h -2.80372 v 2.18848 h -1.15136 v -2.18848 h -2.78614 v -1.11621 h 2.78614 l 0.0176,-2.00391 q -2.25879,-0.29003 -3.7002,-1.88964 -1.43262,-1.59961 -1.50293,-3.89356 h 1.09863 q 0.0615,1.96875 1.38867,3.32227 1.32715,1.34472 3.2959,1.34472 1.98633,0 3.31348,-1.35351 1.32715,-1.36231 1.3623,-3.31348 h 1.11622 q -0.0527,2.31152 -1.50293,3.89356 -1.44141,1.58203 -3.73536,1.87207 z m 0.63282,-6.917 v -0.0176 q -0.46582,-0.47461 -1.16895,-0.47461 -0.68555,0 -1.16894,0.4834 -0.47461,0.4746 -0.47461,1.16015 0,0.68555 0.47461,1.16895 0.48339,0.47461 1.16894,0.47461 0.68555,0 1.16016,-0.47461 0.4834,-0.4834 0.4834,-1.16895 0,-0.68555 -0.47461,-1.15137 z"
             id="path9059" />
        </g>
        <!-- Плутон -->
        <g
           aria-label="C"
           id="text310"
           style="font-size:18px;fill:#008000">
          <path
             d="m 300.3187,148.36555 v 2.55762 h 2.20605 v 1.14258 h -2.20605 v 1.63477 h -0.9668 v -1.63477 h -2.29395 v -1.14258 h 2.29395 v -2.55762 q -1.86328,-0.32519 -2.83008,-1.2041 1.09863,-0.10547 1.82813,-0.80859 0.73828,-0.70313 0.73828,-1.79297 0,-1.06348 -0.73828,-1.7666 -0.7295,-0.70313 -1.81055,-0.81738 1.38867,-1.23047 3.25195,-1.23047 1.59082,0 2.70703,1.125 1.125,1.11621 1.125,2.71582 0,1.42383 -0.94043,2.46972 -0.94043,1.03711 -2.36425,1.30957 z m -0.54493,-6.63574 q -0.40429,0 -1.01074,0.17578 1.27442,1.21289 1.27442,2.68067 0,1.45898 -1.27442,2.67187 0.60645,0.17578 1.01074,0.17578 1.17774,0 2.0127,-0.83496 0.83496,-0.83496 0.83496,-2.01269 0,-1.17774 -0.83496,-2.0127 -0.83496,-0.84375 -2.0127,-0.84375 z"
             id="path9065" />
        </g>
        <!-- Белая луна -->
        <g
           aria-label="i"
           id="text314"
           style="font-size:18px;fill:#008000">
          <path
             d="m 307.26096,572.29694 q -1.45899,-0.26368 -2.39942,-1.33594 -0.94043,-1.08106 -0.94043,-2.54004 0,-1.62598 1.13379,-2.76856 1.13379,-1.14257 2.75977,-1.14257 1.82812,0 3.30468,1.30078 -0.5625,-0.11426 -1.09863,-0.11426 -1.15137,0 -1.95117,0.79102 -0.79102,0.78222 -0.79102,1.93359 0,1.15137 0.79981,1.95117 0.80859,0.79981 1.95996,0.79981 0.51855,0 1.08105,-0.12305 -1.13378,0.98437 -2.70703,1.24805 l -0.0176,2.49609 h 2.22364 v 1.13379 h -2.22364 v 1.6875 h -1.13378 v -1.6875 h -2.22364 v -1.13379 h 2.22364 z"
             id="path9256" />
        </g>
        <!-- Черная луна -->
        <g
           aria-label="M"
           id="text318"
           style="font-size:18px;fill:#008000">
          <path
             d="m 258.82541,553.72662 q 0,0.94043 -0.67676,1.63477 -0.70312,0.65918 -1.63476,0.65918 -0.90528,0 -1.55567,-0.58887 -0.75586,-0.67676 -0.75586,-1.70508 0,-0.7207 0.42188,-1.32714 0.42187,-0.60645 1.14258,-0.86133 -0.91407,-1.30957 -0.91407,-2.91797 0,-2.00391 1.39746,-3.49805 0.74707,-0.80859 1.74903,-1.24805 1.05468,-0.46582 2.23242,-0.46582 1.89844,0 3.41016,1.18653 0.90527,0.73828 1.41503,1.75781 0.54493,1.07227 0.54493,2.26758 0,1.59961 -0.92286,2.91797 0.68555,0.22851 1.125,0.83496 0.43946,0.59765 0.43946,1.35351 0,0.97559 -0.71192,1.66993 -0.67675,0.62402 -1.59082,0.62402 -0.958,0 -1.63476,-0.66797 -0.67676,-0.66797 -0.67676,-1.62598 0,-0.58007 0.27246,-1.08984 0.27246,-0.50977 0.74707,-0.82617 0.72949,-0.52735 1.18652,-1.3711 0.46582,-0.85253 0.46582,-1.81933 0,-1.74024 -1.33593,-2.91797 -1.17774,-1.03711 -2.7334,-1.03711 -1.81055,0 -3.02344,1.30957 -1.05469,1.125 -1.05469,2.64551 0,0.99316 0.45704,1.83691 0.46582,0.84375 1.23925,1.37989 0.33399,0.26367 0.61524,0.65039 0.36035,0.57128 0.36035,1.23925 z m 5.11523,-1.00195 q -0.42187,0 -0.7207,0.29883 -0.29004,0.29004 -0.29004,0.70312 0,0.4043 0.29883,0.70313 0.30762,0.29883 0.71191,0.29883 0.4043,0 0.69434,-0.29004 0.29883,-0.29883 0.29883,-0.71192 0,-0.42187 -0.29004,-0.71191 -0.28125,-0.29004 -0.70313,-0.29004 z m -7.42675,0 q -0.43946,0 -0.72071,0.30762 -0.28125,0.28125 -0.28125,0.69433 0,0.41309 0.29004,0.71192 0.29883,0.29004 0.71192,0.29004 0.3955,0 0.71191,-0.29883 0.29004,-0.30762 0.29004,-0.70313 0,-0.42187 -0.30762,-0.72949 -0.30762,-0.27246 -0.69433,-0.27246 z"
             id="path9259" />
        </g>
        <!-- Восходящий узел -->
        <g
           aria-label="Z"
           id="text322"
           style="font-size:18px;fill:#008000">
          <path
             d="m 480.42157,161.89697 q 0,0.66797 -0.36035,1.23926 -0.28125,0.38672 -0.61524,0.6416 -0.77343,0.54492 -1.23925,1.38867 -0.45704,0.84375 -0.45704,1.82813 0,1.52051 1.05469,2.6543 1.21289,1.30078 3.02344,1.30078 1.55566,0 2.7334,-1.03711 1.33594,-1.16895 1.33594,-2.91797 0,-0.9668 -0.46582,-1.81055 -0.45704,-0.84375 -1.18653,-1.37109 -0.47461,-0.3252 -0.74707,-0.83496 -0.27246,-0.50977 -0.27246,-1.08106 0,-0.96679 0.67676,-1.63476 0.67676,-0.66797 1.63476,-0.66797 0.91407,0 1.59082,0.62402 0.71192,0.69434 0.71192,1.67871 0,0.74707 -0.43945,1.35352 -0.43946,0.59765 -1.125,0.83496 0.92285,1.30957 0.92285,2.90918 0,1.19531 -0.54492,2.27637 -0.50977,1.01953 -1.41504,1.74902 -1.51172,1.18652 -3.41016,1.18652 -1.17773,0 -2.23242,-0.45703 -1.00196,-0.43945 -1.74903,-1.25683 -1.39746,-1.48536 -1.39746,-3.49805 0,-1.6084 0.91407,-2.90918 -0.72071,-0.25488 -1.14258,-0.86133 -0.42188,-0.60644 -0.42188,-1.32715 0,-1.03711 0.75586,-1.70508 0.65039,-0.59765 1.55567,-0.59765 0.93164,0 1.63476,0.66797 0.67676,0.69433 0.67676,1.63476 z m 5.11523,0.99317 q 0.42188,0 0.70313,-0.29004 0.29004,-0.29004 0.29004,-0.70313 0,-0.42187 -0.29883,-0.71191 -0.29004,-0.29004 -0.69434,-0.29004 -0.40429,0 -0.71191,0.29883 -0.29883,0.29004 -0.29883,0.70312 0,0.41309 0.29004,0.70313 0.29883,0.29004 0.7207,0.29004 z m -7.42675,0 q 0.38672,0 0.69433,-0.26368 0.30762,-0.3164 0.30762,-0.72949 0,-0.40429 -0.29004,-0.71191 -0.31641,-0.29004 -0.71191,-0.29004 -0.41309,0 -0.71192,0.29004 -0.29004,0.29004 -0.29004,0.71191 0,0.41309 0.28125,0.68555 0.28125,0.30762 0.72071,0.30762 z"
             id="path9128" />
        </g>
        <!-- Нисходящий узел -->
      </g>
      <g
         transform="matrix(1.1318295,0,0,1.1178877,71.647517,52.712725)"
         id="g352">
        <circle
           r="0.5"
           cy="158.12347"
           cx="444.40961"
           id="1"
           style="stroke:#ff0000" />
        <circle
           r="0.5"
           cy="222.55859"
           cx="534.75348"
           id="circle326"
           style="stroke:#ff0000" />
        <circle
           r="0.5"
           cy="155.47734"
           cx="437.13965"
           id="circle328"
           style="stroke:#ff0000" />
        <circle
           r="0.5"
           cy="156.76888"
           cx="289.20932"
           id="circle330"
           style="stroke:#ff0000" />
        <circle
           r="0.5"
           cy="192.78276"
           cx="504.45294"
           id="circle332"
           style="stroke:#ff0000" />
        <circle
           r="0.5"
           cy="234.74811"
           cx="185.72189"
           id="circle334"
           style="stroke:#ff0000" />
        <circle
           r="0.5"
           cy="190.37701"
           cx="228.56955"
           id="circle336"
           style="stroke:#ff0000" />
        <circle
           r="0.5"
           cy="507.43951"
           cx="195.24533"
           id="circle338"
           style="stroke:#ff0000" />
        <circle
           r="0.5"
           cy="322.71686"
           cx="147.47189"
           id="circle340"
           style="stroke:#ff0000" />
        <circle
           r="0.5"
           cy="162.56184"
           cx="274.86557"
           id="circle342"
           style="stroke:#ff0000" />
        <circle
           r="0.5"
           cy="154.24544"
           cx="296.52182"
           id="circle344"
           style="stroke:#ff0000" />
        <circle
           r="0.5"
           cy="578.00983"
           cx="303.92111"
           id="circle346"
           style="stroke:#ff0000" />
        <circle
           r="0.5"
           cy="556.90826"
           cx="254.20236"
           id="circle348"
           style="stroke:#ff0000" />
        <circle
           r="0.5"
           cy="173.09424"
           cx="475.79852"
           id="circle350"
           style="stroke:#ff0000" />
      </g>
      <line
         x1="565.27155"
         y1="253.86571"
         x2="656.63586"
         y2="318.30081"
         stroke="#00С"
         stroke-dasharray="18, 12, 0"
         stroke-width="1.00563"
         id="line389" />
      <line
         x1="656.63586"
         y1="318.30081"
         x2="557.91949"
         y2="251.21957"
         stroke="#00С"
         stroke-dasharray="18, 12, 0"
         stroke-width="1.00563"
         id="line391" />
    </g>
  </g>
</svg>
