<svg width="1580" height="1580" xmlns="http://www.w3.org/2000/svg"><path style="fill:#fff;stroke:#0f0;stroke-width:1.98181;stroke-linecap:butt;stroke-linejoin:miter;stroke-miterlimit:4;stroke-dasharray:none;stroke-opacity:1" d="m60.123 789.891 1459.754.218"/><path style="fill:#fff;stroke:#0f0;stroke-width:1.93896;stroke-linecap:butt;stroke-linejoin:miter;stroke-miterlimit:4;stroke-dasharray:none;stroke-opacity:1" d="m284.391 497.936 1011.218 584.128"/><g style="font-size:40px;line-height:1.25;font-family:AstrostudiyaFont;-inkscape-font-specification:AstrostudiyaFont;fill:#fff"><path d="M1409.226 746.883q0-2.266-1.66-3.594-1.64-1.347-4.629-1.347-2.5 0-4.199 1.386-1.68 1.368-1.68 3.399h-3.75q0-2.266 1.23-4.063 1.25-1.797 3.478-2.793 2.226-1.015 4.921-1.015 4.766 0 7.403 2.148 2.636 2.13 2.636 5.938 0 1.972-1.21 3.593-1.211 1.621-3.38 2.559 5.02 1.68 5.02 6.66 0 3.828-2.851 6.074-2.852 2.246-7.618 2.246-2.832 0-5.156-.996-2.305-1.015-3.594-2.87-1.289-1.856-1.289-4.415h3.75q0 2.246 1.778 3.75 1.777 1.485 4.511 1.485 3.067 0 4.883-1.426 1.836-1.426 1.836-3.77 0-5-6.191-5.097h-3.516v-3.086h3.496q2.852-.059 4.317-1.29 1.464-1.23 1.464-3.476zm21.622 20.801q-.313-.625-.508-2.227-2.52 2.617-6.016 2.617-3.125 0-5.137-1.757-1.992-1.778-1.992-4.493 0-3.3 2.5-5.117 2.52-1.836 7.07-1.836h3.516v-1.66q0-1.894-1.133-3.008-1.132-1.132-3.34-1.132-1.933 0-3.242.976-1.308.977-1.308 2.363h-3.633q0-1.582 1.113-3.046 1.133-1.485 3.047-2.344 1.934-.86 4.238-.86 3.653 0 5.723 1.836 2.07 1.817 2.148 5.02v9.726q0 2.91.743 4.63v.312zm-5.997-2.754q1.7 0 3.223-.879t2.207-2.285v-4.336h-2.832q-6.64 0-6.64 3.887 0 1.699 1.132 2.656 1.133.957 2.91.957zm31.993 2.754h-3.614v-18.145h-9.726v18.145h-3.633V746.55h16.973zm18.847 0q-.312-.625-.508-2.227-2.52 2.617-6.015 2.617-3.125 0-5.137-1.757-1.992-1.778-1.992-4.493 0-3.3 2.5-5.117 2.52-1.836 7.07-1.836h3.516v-1.66q0-1.894-1.133-3.008-1.133-1.132-3.34-1.132-1.933 0-3.242.976-1.309.977-1.309 2.363h-3.632q0-1.582 1.113-3.046 1.133-1.485 3.047-2.344 1.933-.86 4.238-.86 3.652 0 5.723 1.836 2.07 1.817 2.148 5.02v9.726q0 2.91.742 4.63v.312zm-5.996-2.754q1.7 0 3.223-.879t2.207-2.285v-4.336h-2.832q-6.64 0-6.64 3.887 0 1.699 1.132 2.656 1.133.957 2.91.957zm14.531-.195 1.25-1.543q2.11-2.735 2.403-8.203l.332-8.438h13.613v18.184h2.715v9.16h-3.613v-6.211h-14.746v6.21h-3.614l.02-9.16zm4.278 0h9.707V749.89h-6.504l-.215 5.039q-.332 6.309-2.988 9.805z" style="font-family:Roboto;-inkscape-font-specification:Roboto;fill:#fff" aria-label="Запад"/></g><path style="fill:#fff;stroke:#0f0;stroke-width:1.97249;stroke-linecap:butt;stroke-linejoin:miter;stroke-miterlimit:4;stroke-dasharray:none;stroke-opacity:1" d="m790.114 96.617-.228 1386.766"/><g style="font-size:72px;line-height:1.25;font-family:AstrostudiyaFont;-inkscape-font-specification:AstrostudiyaFont;fill:#fff"><path d="M187.41 963.2v-1.335q4.359 0 5.554-1.195 1.266-1.266 1.266-5.133v-31.219q0-4.008-1.266-5.133-1.195-1.195-5.555-1.195v-1.336h20.883v1.336q-4.078 0-5.484 1.195-1.406 1.125-1.406 5.133v31.219q0 3.937 1.406 5.133 1.406 1.195 5.484 1.195v1.336z" style="font-family:aakar;-inkscape-font-specification:aakar;fill:#fff" aria-label="I"/></g><g style="font-size:72px;line-height:1.25;font-family:AstrostudiyaFont;-inkscape-font-specification:AstrostudiyaFont;fill:#fff"><path d="M317.548 1240.447v-1.336q4.36 0 5.554-1.195 1.266-1.266 1.266-5.133v-31.219q0-4.008-1.266-5.133-1.195-1.195-5.554-1.195v-1.336h20.883v1.336q-4.079 0-5.485 1.195-1.406 1.125-1.406 5.133v31.219q0 3.937 1.406 5.133 1.406 1.195 5.485 1.195v1.336zm23.414 0v-1.336q4.36 0 5.555-1.195 1.265-1.266 1.265-5.133v-31.219q0-4.008-1.265-5.133-1.196-1.195-5.555-1.195v-1.336h20.883v1.336q-4.078 0-5.485 1.195-1.406 1.125-1.406 5.133v31.219q0 3.937 1.406 5.133 1.407 1.195 5.485 1.195v1.336z" style="font-family:aakar;-inkscape-font-specification:aakar;fill:#fff" aria-label="II"/></g><g style="font-size:72px;line-height:1.25;font-family:AstrostudiyaFont;-inkscape-font-specification:AstrostudiyaFont;fill:#fff"><path d="M595.682 1408.817v-1.336q4.36 0 5.555-1.195 1.265-1.266 1.265-5.133v-31.218q0-4.008-1.265-5.133-1.195-1.196-5.555-1.196v-1.336h20.883v1.336q-4.078 0-5.484 1.196-1.407 1.125-1.407 5.133v31.218q0 3.938 1.407 5.133 1.406 1.195 5.484 1.195v1.336zm23.414 0v-1.336q4.36 0 5.555-1.195 1.266-1.266 1.266-5.133v-31.218q0-4.008-1.266-5.133-1.195-1.196-5.555-1.196v-1.336h20.883v1.336q-4.078 0-5.484 1.196-1.407 1.125-1.407 5.133v31.218q0 3.938 1.407 5.133 1.406 1.195 5.484 1.195v1.336zm23.414 0v-1.336q4.36 0 5.555-1.195 1.266-1.266 1.266-5.133v-31.218q0-4.008-1.266-5.133-1.195-1.196-5.555-1.196v-1.336h20.883v1.336q-4.078 0-5.484 1.196-1.407 1.125-1.407 5.133v31.218q0 3.938 1.407 5.133 1.406 1.195 5.484 1.195v1.336z" style="font-family:aakar;-inkscape-font-specification:aakar;fill:#fff" aria-label="III"/></g><g style="font-size:72px;line-height:1.25;font-family:AstrostudiyaFont;-inkscape-font-specification:AstrostudiyaFont;fill:#fff"><path d="M908.634 1402.699v-1.336q4.36 0 5.554-1.195 1.266-1.266 1.266-5.133v-31.219q0-4.008-1.266-5.133-1.195-1.195-5.554-1.195v-1.336h20.883v1.336q-4.079 0-5.485 1.195-1.406 1.125-1.406 5.133v31.219q0 3.937 1.406 5.133 1.406 1.195 5.485 1.195v1.336zm71.156-46.547v1.336q-2.461 0-3.656 1.195-1.196 1.196-2.813 5.344l-15.61 39.445h-1.054l-17.297-38.601q-2.039-4.57-3.515-5.977-1.477-1.406-3.938-1.406v-1.336h18.703v1.336q-3.093 0-4.218.492-1.055.422-1.055 2.11 0 .984 1.195 3.796 1.125 2.391 1.688 3.727l10.617 23.766 10.336-25.805q.422-1.336.914-2.742.422-1.547.422-2.11 0-1.968-1.407-2.601-1.335-.633-3.726-.633v-1.336z" style="font-family:aakar;-inkscape-font-specification:aakar;fill:#fff" aria-label="IV"/></g><g style="font-size:72px;line-height:1.25;font-family:AstrostudiyaFont;-inkscape-font-specification:AstrostudiyaFont;fill:#fff"><path d="M1250.411 1194.86v1.336q-2.46 0-3.656 1.195-1.196 1.195-2.813 5.344l-15.61 39.445h-1.054l-17.297-38.602q-2.039-4.57-3.515-5.976-1.477-1.406-3.938-1.406v-1.336h18.703v1.336q-3.093 0-4.218.492-1.055.422-1.055 2.11 0 .984 1.195 3.796 1.125 2.39 1.688 3.727l10.617 23.765 10.336-25.804q.422-1.336.914-2.743.422-1.546.422-2.109 0-1.969-1.406-2.601-1.336-.633-3.727-.633v-1.336z" style="font-family:aakar;-inkscape-font-specification:aakar;fill:#fff" aria-label="V"/></g><g style="font-size:72px;line-height:1.25;font-family:AstrostudiyaFont;-inkscape-font-specification:AstrostudiyaFont;fill:#fff"><path d="M1391.633 907.372v1.336q-2.46 0-3.656 1.195-1.195 1.195-2.812 5.344l-15.61 39.445h-1.055l-17.296-38.601q-2.04-4.57-3.516-5.977-1.477-1.406-3.938-1.406v-1.336h18.704v1.336q-3.094 0-4.22.492-1.054.422-1.054 2.11 0 .984 1.196 3.796 1.125 2.39 1.687 3.727l10.617 23.765 10.336-25.804q.422-1.336.914-2.742.422-1.547.422-2.11 0-1.969-1.406-2.601-1.336-.633-3.727-.633v-1.336zm3.024 46.547v-1.336q4.36 0 5.554-1.195 1.266-1.266 1.266-5.133v-31.219q0-4.008-1.266-5.133-1.195-1.195-5.554-1.195v-1.336h20.883v1.336q-4.079 0-5.485 1.195-1.406 1.125-1.406 5.133v31.219q0 3.937 1.406 5.133 1.406 1.195 5.485 1.195v1.336z" style="font-family:aakar;-inkscape-font-specification:aakar;fill:#fff" aria-label="VI"/></g><g style="font-size:72px;line-height:1.25;font-family:AstrostudiyaFont;-inkscape-font-specification:AstrostudiyaFont;fill:#fff"><path d="M1384.047 597.573v1.336q-2.46 0-3.656 1.195-1.195 1.195-2.813 5.344l-15.609 39.445h-1.055l-17.296-38.601q-2.04-4.57-3.516-5.977-1.477-1.406-3.938-1.406v-1.336h18.704v1.336q-3.094 0-4.22.492-1.054.422-1.054 2.11 0 .984 1.195 3.796 1.125 2.39 1.688 3.727l10.617 23.765 10.336-25.804q.422-1.336.914-2.742.422-1.547.422-2.11 0-1.969-1.406-2.601-1.336-.633-3.727-.633v-1.336zm3.023 46.547v-1.336q4.36 0 5.555-1.196 1.266-1.265 1.266-5.132v-31.22q0-4.007-1.266-5.132-1.195-1.195-5.554-1.195v-1.336h20.883v1.336q-4.079 0-5.485 1.195-1.406 1.125-1.406 5.133v31.219q0 3.937 1.406 5.132 1.406 1.196 5.484 1.196v1.336zm23.415 0v-1.336q4.36 0 5.554-1.196 1.266-1.265 1.266-5.132v-31.22q0-4.007-1.266-5.132-1.195-1.195-5.554-1.195v-1.336h20.883v1.336q-4.079 0-5.485 1.195-1.406 1.125-1.406 5.133v31.219q0 3.937 1.406 5.132 1.406 1.196 5.485 1.196v1.336z" style="font-family:aakar;-inkscape-font-specification:aakar;fill:#fff" aria-label="VII"/></g><g style="font-size:72px;line-height:1.25;font-family:AstrostudiyaFont;-inkscape-font-specification:AstrostudiyaFont;fill:#fff"><path d="M1222.838 332.204v1.336q-2.461 0-3.656 1.195-1.196 1.195-2.813 5.344l-15.61 39.445h-1.054l-17.297-38.602q-2.039-4.57-3.515-5.976-1.477-1.406-3.938-1.406v-1.336h18.703v1.336q-3.094 0-4.219.492-1.054.422-1.054 2.11 0 .984 1.195 3.796 1.125 2.39 1.688 3.727l10.617 23.765 10.336-25.804q.422-1.336.914-2.743.422-1.547.422-2.109 0-1.969-1.407-2.602-1.335-.632-3.726-.632v-1.336zm3.023 46.546v-1.335q4.36 0 5.555-1.196 1.266-1.265 1.266-5.133v-31.218q0-4.008-1.266-5.133-1.195-1.195-5.555-1.195v-1.336h20.883v1.336q-4.078 0-5.484 1.195-1.406 1.125-1.406 5.133v31.218q0 3.938 1.406 5.133 1.406 1.196 5.484 1.196v1.336zm23.414 0v-1.335q4.36 0 5.555-1.196 1.266-1.265 1.266-5.133v-31.218q0-4.008-1.266-5.133-1.195-1.195-5.555-1.195v-1.336h20.883v1.336q-4.078 0-5.484 1.195-1.406 1.125-1.406 5.133v31.218q0 3.938 1.406 5.133 1.406 1.196 5.484 1.196v1.336zm23.415 0v-1.335q4.359 0 5.554-1.196 1.266-1.265 1.266-5.133v-31.218q0-4.008-1.266-5.133-1.195-1.195-5.555-1.195v-1.336h20.883v1.336q-4.078 0-5.484 1.195-1.406 1.125-1.406 5.133v31.218q0 3.938 1.406 5.133 1.406 1.196 5.484 1.196v1.336z" style="font-family:aakar;-inkscape-font-specification:aakar;fill:#fff" aria-label="VIII"/></g><g style="font-size:72px;line-height:1.25;font-family:AstrostudiyaFont;-inkscape-font-specification:AstrostudiyaFont;fill:#fff"><path d="M910.62 217.116v-1.336q4.36 0 5.556-1.195 1.265-1.266 1.265-5.133v-31.219q0-4.008-1.265-5.133-1.196-1.195-5.555-1.195v-1.336h20.883v1.336q-4.078 0-5.485 1.195-1.406 1.125-1.406 5.133v31.219q0 3.937 1.406 5.133 1.407 1.195 5.485 1.195v1.336zm71.087-46.546v1.335q-3.094 0-4.781.984-2.18 1.266-5.696 5.625l-10.265 12.797 13.5 19.266q2.109 3.023 3.515 4.148 1.477 1.055 4.29 1.055v1.336h-20.883v-1.336q2.46 0 3.234-.14 2.18-.352 2.18-2.25 0-.844-1.336-3.165-.914-1.547-2.25-3.515l-6.68-9.844-8.367 10.406q-1.758 2.18-2.39 3.094-1.266 1.828-1.266 2.812 0 1.477 1.476 2.04 1.477.562 3.867.562v1.336h-16.383v-1.336q3.165 0 5.555-2.46.774-.774 4.64-5.556l11.04-13.57-7.664-11.25q-4.29-6.258-7.524-9.351-1.757-1.688-5.203-1.688v-1.336h21.235v1.336q-2.813 0-3.235.07-2.11.352-2.11 2.18 0 1.055 1.266 3.305 1.336 2.25 4.711 7.101l2.954 4.149 7.945-9.703q.844-1.125 1.547-2.04 1.265-1.757 1.265-2.742 0-1.476-1.336-1.898-1.265-.422-3.586-.422v-1.336z" style="font-family:aakar;-inkscape-font-specification:aakar;fill:#fff" aria-label="IX"/></g><g style="font-size:72px;line-height:1.25;font-family:AstrostudiyaFont;-inkscape-font-specification:AstrostudiyaFont;fill:#fff"><path d="M665.125 164.86v1.336q-3.094 0-4.781.984-2.18 1.266-5.696 5.625l-10.265 12.797 13.5 19.266q2.11 3.023 3.515 4.148 1.477 1.055 4.29 1.055v1.336h-20.883v-1.336q2.46 0 3.234-.14 2.18-.352 2.18-2.25 0-.844-1.336-3.165-.914-1.546-2.25-3.515l-6.68-9.844-8.367 10.406q-1.758 2.18-2.39 3.094-1.266 1.828-1.266 2.813 0 1.476 1.476 2.039 1.477.562 3.867.562v1.336h-16.382v-1.336q3.164 0 5.554-2.46.774-.774 4.64-5.556l11.04-13.57-7.664-11.25q-4.29-6.258-7.523-9.351-1.758-1.688-5.204-1.688v-1.336h21.235v1.336q-2.813 0-3.235.07-2.109.352-2.109 2.18 0 1.055 1.266 3.305 1.336 2.25 4.71 7.101l2.954 4.149 7.945-9.703q.844-1.125 1.547-2.04 1.265-1.757 1.265-2.742 0-1.476-1.335-1.898-1.266-.422-3.586-.422v-1.336z" style="font-family:aakar;-inkscape-font-specification:aakar;fill:#fff" aria-label="X"/></g><g style="font-size:72px;line-height:1.25;font-family:AstrostudiyaFont;-inkscape-font-specification:AstrostudiyaFont;fill:#fff"><path d="M370.85 317.91v1.336q-3.095 0-4.782.984-2.18 1.266-5.695 5.625l-10.266 12.797 13.5 19.265q2.11 3.024 3.515 4.149 1.477 1.055 4.29 1.055v1.336h-20.883v-1.336q2.46 0 3.234-.141 2.18-.352 2.18-2.25 0-.844-1.336-3.164-.914-1.547-2.25-3.516l-6.68-9.843-8.367 10.406q-1.758 2.18-2.39 3.094-1.266 1.828-1.266 2.812 0 1.477 1.476 2.04 1.477.562 3.868.562v1.336h-16.383v-1.336q3.164 0 5.554-2.461.774-.774 4.641-5.555l11.04-13.57-7.665-11.25q-4.29-6.258-7.523-9.352-1.758-1.687-5.204-1.687v-1.336h21.235v1.336q-2.813 0-3.235.07-2.109.351-2.109 2.18 0 1.054 1.266 3.304 1.336 2.25 4.71 7.102l2.954 4.148 7.945-9.703q.844-1.125 1.547-2.039 1.266-1.758 1.266-2.742 0-1.477-1.336-1.899-1.266-.421-3.586-.421v-1.336zm3.093 46.547v-1.336q4.36 0 5.555-1.196 1.265-1.265 1.265-5.133v-31.218q0-4.008-1.265-5.133-1.196-1.195-5.555-1.195v-1.336h20.883v1.336q-4.079 0-5.485 1.195-1.406 1.125-1.406 5.133v31.218q0 3.938 1.406 5.133 1.406 1.196 5.485 1.196v1.336z" style="font-family:aakar;-inkscape-font-specification:aakar;fill:#fff" aria-label="XI"/></g><g style="font-size:72px;line-height:1.25;font-family:AstrostudiyaFont;-inkscape-font-specification:AstrostudiyaFont;fill:#fff"><path d="M186.247 652.006h-18.493v-3.093l4.149-.422q1.02-.14 1.02-1.02 0-.246-.141-.492l-9.563-15.047-11.11 15.258q-.175.281-.175.562 0 .704 1.055.809l4.324.352v3.093H142.02v-3.093l4.324-.88 14.485-19.863-13.114-20.53-4.746-.845v-3.093h18.07v3.093l-3.656.352q-1.054.035-1.054.844 0 .316.175.597l8.79 13.536 9.703-13.325q.21-.28.21-.562 0-.88-.984-.95l-3.691-.492v-3.093h15.082v3.093l-4.64.704-13.36 18.386 14.168 22.149 4.465.879zm22.078 0H189.34v-3.093l4.29-.282q.773-.07 1.124-.562.387-.492.387-1.02v-38.39q0-.528-.387-.985-.351-.492-1.125-.527l-4.289-.281v-3.164h18.985v3.164l-4.395.281q-.738.035-1.125.527-.387.457-.387.985v38.39q0 .528.387 1.02t1.125.562l4.395.282zm23.765 0h-18.984v-3.093l4.289-.282q.773-.07 1.125-.562.387-.492.387-1.02v-38.39q0-.528-.387-.985-.352-.492-1.125-.527l-4.29-.281v-3.164h18.985v3.164l-4.394.281q-.739.035-1.125.527-.387.457-.387.985v38.39q0 .528.387 1.02.386.492 1.125.562l4.394.282z" style="fill:#fff" aria-label="XII"/></g><g style="font-size:40px;line-height:1.25;font-family:AstrostudiyaFont;-inkscape-font-specification:AstrostudiyaFont;fill:#fff"><path d="M796.396 54.822q0 4.18-1.406 7.305-1.406 3.105-3.984 4.746-2.578 1.64-6.016 1.64-3.242 0-5.82-1.562-2.559-1.563-4.024-4.473-1.445-2.91-1.601-6.797h-4.082v12.442h-3.75V39.685h3.75v13.047h4.062q.059-4.023 1.465-7.05 1.406-3.048 4.004-4.708 2.598-1.68 5.957-1.68 3.418 0 6.016 1.66 2.617 1.641 4.023 4.786 1.406 3.125 1.406 7.285zm-3.73-1.836q0-5.059-2.031-7.754-2.031-2.715-5.684-2.715-3.555 0-5.605 2.715-2.032 2.695-2.09 7.5v2.09q0 4.902 2.05 7.715 2.071 2.793 5.684 2.793 3.633 0 5.625-2.637 1.992-2.656 2.051-7.598zm21.621-3.008h-9.746v18.145h-3.633V46.99h13.38z" style="font-family:Roboto;-inkscape-font-specification:Roboto;fill:#fff" aria-label="Юг"/></g><g style="font-size:40px;line-height:1.25;font-family:AstrostudiyaFont;-inkscape-font-specification:AstrostudiyaFont;fill:#fff"><path d="M757.129 1540.854q-.527 4.512-3.34 6.973-2.793 2.44-7.441 2.44-5.04 0-8.086-3.612-3.028-3.614-3.028-9.668v-2.735q0-3.964 1.407-6.972 1.425-3.008 4.023-4.61 2.598-1.62 6.016-1.62 4.53 0 7.265 2.538 2.735 2.52 3.184 6.992h-3.77q-.488-3.398-2.129-4.921-1.62-1.524-4.55-1.524-3.594 0-5.645 2.656-2.031 2.657-2.031 7.559v2.754q0 4.629 1.933 7.363 1.934 2.734 5.41 2.734 3.126 0 4.786-1.406 1.68-1.426 2.226-4.941zm13.321 9.414q-4.298 0-6.993-2.813-2.695-2.832-2.695-7.558v-.664q0-3.145 1.191-5.606 1.211-2.48 3.36-3.867 2.167-1.406 4.687-1.406 4.121 0 6.406 2.715 2.285 2.715 2.285 7.773v1.504h-14.316q.078 3.125 1.816 5.059 1.758 1.914 4.454 1.914 1.914 0 3.242-.781 1.328-.782 2.324-2.07l2.207 1.718q-2.656 4.082-7.969 4.082zm-.45-18.945q-2.188 0-3.672 1.601-1.484 1.582-1.836 4.453h10.586v-.273q-.156-2.754-1.484-4.258-1.328-1.523-3.594-1.523zm13.203 18.554v-21.132h8.242q4.22 0 6.465 1.484 2.266 1.465 2.266 4.316 0 1.465-.88 2.656-.878 1.172-2.597 1.797 1.914.45 3.067 1.758 1.172 1.309 1.172 3.125 0 2.91-2.149 4.453-2.129 1.543-6.035 1.543zm3.613-9.277v6.367h5.977q2.266 0 3.379-.84 1.133-.84 1.133-2.363 0-3.164-4.649-3.164zm0-2.89h4.668q5.078 0 5.078-2.97 0-2.968-4.804-3.066h-4.942zm27.676 12.558q-4.297 0-6.992-2.813-2.695-2.832-2.695-7.558v-.664q0-3.145 1.191-5.606 1.211-2.48 3.36-3.867 2.167-1.406 4.687-1.406 4.121 0 6.406 2.715 2.285 2.715 2.285 7.773v1.504h-14.316q.078 3.125 1.816 5.059 1.758 1.914 4.454 1.914 1.914 0 3.242-.781 1.328-.782 2.324-2.07l2.207 1.718q-2.656 4.082-7.969 4.082zm-.449-18.945q-2.188 0-3.672 1.601-1.484 1.582-1.836 4.453h10.586v-.273q-.156-2.754-1.484-4.258-1.328-1.523-3.594-1.523zm30.723 8.222q0 4.824-2.207 7.774-2.207 2.949-5.977 2.949-3.848 0-6.055-2.441v10.175h-3.613v-29.257h3.3l.177 2.343q2.207-2.734 6.132-2.734 3.809 0 6.016 2.871 2.227 2.871 2.227 7.988zm-3.614-.41q0-3.574-1.523-5.644-1.524-2.07-4.18-2.07-3.281 0-4.922 2.91v10.097q1.621 2.89 4.961 2.89 2.598 0 4.121-2.05 1.543-2.07 1.543-6.133z" style="font-family:Roboto;-inkscape-font-specification:Roboto;fill:#fff" aria-label="Север"/></g><g style="font-size:40px;line-height:1.25;font-family:AstrostudiyaFont;-inkscape-font-specification:AstrostudiyaFont;fill:#fff"><path d="M38.734 846.776V818.34h9.297q4.629 0 6.953 1.914 2.344 1.914 2.344 5.664 0 1.992-1.133 3.535-1.133 1.523-3.086 2.363 2.305.645 3.633 2.461 1.347 1.797 1.347 4.297 0 3.828-2.48 6.016-2.48 2.187-7.012 2.187zm3.75-13.3v10.234h6.191q2.617 0 4.121-1.348 1.524-1.367 1.524-3.75 0-5.137-5.586-5.137zm0-3.008h5.664q2.46 0 3.926-1.23 1.484-1.231 1.484-3.34 0-2.345-1.367-3.4-1.367-1.073-4.16-1.073h-5.547zm19.629 5.546q0-3.105 1.21-5.586 1.231-2.48 3.4-3.828 2.187-1.347 4.98-1.347 4.316 0 6.972 2.988 2.676 2.988 2.676 7.95v.253q0 3.086-1.191 5.547-1.172 2.441-3.38 3.809-2.187 1.367-5.038 1.367-4.297 0-6.973-2.989-2.656-2.988-2.656-7.91zm3.633.43q0 3.516 1.62 5.645 1.641 2.129 4.376 2.129 2.754 0 4.375-2.149 1.62-2.168 1.62-6.055 0-3.476-1.66-5.625-1.64-2.168-4.374-2.168-2.676 0-4.317 2.13-1.64 2.128-1.64 6.093zm28.613 7.774q1.933 0 3.379-1.172 1.445-1.172 1.601-2.93h3.418q-.097 1.816-1.25 3.457-1.152 1.64-3.086 2.617-1.914.977-4.062.977-4.317 0-6.875-2.871-2.54-2.891-2.54-7.891v-.605q0-3.086 1.134-5.489 1.132-2.402 3.242-3.73 2.129-1.328 5.02-1.328 3.554 0 5.898 2.129 2.363 2.129 2.52 5.527h-3.419q-.156-2.05-1.562-3.36-1.387-1.328-3.438-1.328-2.754 0-4.277 1.993-1.504 1.972-1.504 5.722v.684q0 3.652 1.504 5.625 1.504 1.973 4.297 1.973zm28.164-15.645h-7.09v18.203h-3.613v-18.203h-6.953v-2.93h17.656zm1.738 7.441q0-3.105 1.211-5.586 1.23-2.48 3.399-3.828 2.187-1.347 4.98-1.347 4.316 0 6.973 2.988 2.675 2.988 2.675 7.95v.253q0 3.086-1.191 5.547-1.172 2.441-3.379 3.809-2.187 1.367-5.039 1.367-4.297 0-6.973-2.989-2.656-2.988-2.656-7.91zm3.633.43q0 3.516 1.621 5.645 1.64 2.129 4.375 2.129 2.754 0 4.375-2.149 1.621-2.168 1.621-6.055 0-3.476-1.66-5.625-1.64-2.168-4.375-2.168-2.676 0-4.316 2.13-1.641 2.128-1.641 6.093zm26.719 1.328h-2.637v9.004h-3.633v-21.133h3.633v8.946h2.363l7.11-8.946h4.375l-8.36 10.157 9.063 10.976h-4.59z" style="font-family:Roboto;-inkscape-font-specification:Roboto;fill:#fff" aria-label="Восток"/></g><g style="font-size:40px;line-height:1.25;font-family:AstrostudiyaFont;-inkscape-font-specification:AstrostudiyaFont;fill:#fff"><path d="M101.127 762.47H89.213l-2.676 7.421H82.67l10.859-28.438h3.281l10.88 28.438h-3.849zm-10.782-3.087h9.668l-4.843-13.3zm29.082 7.949q1.934 0 3.38-1.171 1.445-1.172 1.6-2.93h3.419q-.098 1.816-1.25 3.457-1.153 1.64-3.086 2.617-1.914.977-4.063.977-4.316 0-6.875-2.871-2.539-2.891-2.539-7.891v-.606q0-3.086 1.133-5.488 1.133-2.402 3.242-3.73 2.13-1.328 5.02-1.328 3.555 0 5.898 2.128 2.364 2.13 2.52 5.528h-3.418q-.156-2.051-1.563-3.36-1.386-1.328-3.437-1.328-2.754 0-4.278 1.992-1.503 1.973-1.503 5.723v.684q0 3.652 1.503 5.625 1.504 1.972 4.297 1.972zm12.773-18.574h3.634v18.184h9.726v-18.184h3.613v18.184h2.52l-.352 9.219H148.1v-6.27h-15.898zm32.15 21.524q-4.298 0-6.993-2.813-2.695-2.832-2.695-7.558v-.665q0-3.144 1.191-5.605 1.211-2.48 3.36-3.867 2.167-1.406 4.687-1.406 4.121 0 6.406 2.714 2.285 2.715 2.285 7.774v1.504h-14.316q.078 3.125 1.816 5.058 1.758 1.914 4.454 1.914 1.914 0 3.242-.78 1.328-.782 2.324-2.071l2.207 1.719q-2.656 4.082-7.969 4.082zm-.45-18.946q-2.187 0-3.672 1.602-1.484 1.582-1.836 4.453h10.586v-.273q-.156-2.754-1.484-4.258-1.328-1.524-3.594-1.524zm30.137 18.555h-3.614v-9.023h-9.707v9.023h-3.632v-21.133h3.632v9.16h9.707v-9.16h3.614zm5.625-2.949 1.25-1.543q2.11-2.735 2.402-8.203l.332-8.438h13.613v18.184h2.715v9.16h-3.613v-6.211h-14.746v6.21h-3.613l.02-9.16zm4.277 0h9.707v-14.844h-6.504l-.215 5.04q-.332 6.308-2.988 9.804zm28.809 3.34q-4.297 0-6.993-2.813-2.695-2.832-2.695-7.558v-.665q0-3.144 1.192-5.605 1.21-2.48 3.359-3.867 2.168-1.406 4.687-1.406 4.122 0 6.407 2.714 2.285 2.715 2.285 7.774v1.504h-14.317q.079 3.125 1.817 5.058 1.758 1.914 4.453 1.914 1.914 0 3.242-.78 1.328-.782 2.324-2.071l2.207 1.719q-2.656 4.082-7.968 4.082zm-.45-18.946q-2.187 0-3.671 1.602-1.485 1.582-1.836 4.453h10.586v-.273q-.157-2.754-1.485-4.258-1.328-1.524-3.594-1.524zm30.137 18.555h-3.613v-9.023h-9.707v9.023h-3.633v-21.133h3.633v9.16h9.707v-9.16h3.613zm21.505-18.203h-7.09v18.203h-3.614v-18.203h-6.953v-2.93h17.656z" style="font-family:Roboto;-inkscape-font-specification:Roboto;fill:#fff" aria-label="Асцендент"/></g><g style="font-size:40px;line-height:1.25;font-family:AstrostudiyaFont;-inkscape-font-specification:AstrostudiyaFont;fill:#fff"><path d="M1325.936 837.177h-3.73v-6.973h-20.41v6.992h-3.75l-.02-10.059h2.325q1.836-2.07 2.91-5.546 1.094-3.497 1.367-7.657l.625-12.168h17.012v25.371h3.71zm-21.308-10.04h13.867v-22.285h-9.63l-.41 8.36q-.253 4.902-1.308 8.359-1.035 3.457-2.52 5.566zm34.003 3.457q-4.296 0-6.992-2.812-2.695-2.832-2.695-7.559v-.664q0-3.144 1.191-5.605 1.211-2.48 3.36-3.867 2.168-1.407 4.687-1.407 4.121 0 6.406 2.715 2.286 2.715 2.286 7.774v1.504h-14.317q.078 3.125 1.817 5.058 1.757 1.914 4.453 1.914 1.914 0 3.242-.781t2.324-2.07l2.207 1.718q-2.656 4.082-7.969 4.082zm-.449-18.945q-2.187 0-3.672 1.602-1.484 1.582-1.836 4.453h10.586v-.274q-.156-2.753-1.484-4.257-1.328-1.524-3.594-1.524zm21.348 15.996q1.934 0 3.379-1.172 1.445-1.171 1.601-2.93h3.418q-.098 1.817-1.25 3.458-1.152 1.64-3.086 2.617-1.914.976-4.062.976-4.317 0-6.875-2.87-2.54-2.891-2.54-7.891v-.606q0-3.086 1.134-5.488 1.132-2.402 3.242-3.73 2.129-1.329 5.02-1.329 3.554 0 5.898 2.13 2.363 2.128 2.52 5.527h-3.419q-.156-2.051-1.562-3.36-1.387-1.328-3.438-1.328-2.753 0-4.277 1.992-1.504 1.973-1.504 5.723v.684q0 3.652 1.504 5.625 1.504 1.972 4.297 1.972zm12.773-18.574h3.633v18.184h9.727V809.07h3.613v18.184h2.52l-.352 9.218h-3.242v-6.27h-15.899zm32.149 21.523q-4.297 0-6.992-2.812-2.696-2.832-2.696-7.559v-.664q0-3.144 1.192-5.605 1.21-2.48 3.36-3.867 2.167-1.407 4.687-1.407 4.12 0 6.406 2.715 2.285 2.715 2.285 7.774v1.504h-14.316q.078 3.125 1.816 5.058 1.758 1.914 4.453 1.914 1.914 0 3.242-.781t2.324-2.07l2.207 1.718q-2.656 4.082-7.968 4.082zm-.45-18.945q-2.187 0-3.671 1.602-1.485 1.582-1.836 4.453h10.586v-.274q-.157-2.753-1.485-4.257-1.328-1.524-3.593-1.524zm30.138 18.555h-3.614v-9.024h-9.707v9.024h-3.633V809.07h3.633v9.16h9.707v-9.16h3.613zm5.624-2.949 1.25-1.543q2.11-2.735 2.403-8.203l.332-8.438h13.613v18.184h2.715v9.16h-3.613v-6.211h-14.747v6.21h-3.613l.02-9.16zm4.278 0h9.707V812.41h-6.504l-.215 5.039q-.332 6.309-2.988 9.805zm28.808 3.339q-4.297 0-6.992-2.812-2.695-2.832-2.695-7.559v-.664q0-3.144 1.191-5.605 1.211-2.48 3.36-3.867 2.168-1.407 4.687-1.407 4.121 0 6.406 2.715 2.285 2.715 2.285 7.774v1.504h-14.316q.078 3.125 1.816 5.058 1.758 1.914 4.454 1.914 1.914 0 3.242-.781t2.324-2.07l2.207 1.718q-2.656 4.082-7.969 4.082zm-.449-18.945q-2.188 0-3.672 1.602-1.484 1.582-1.836 4.453h10.586v-.274q-.156-2.753-1.484-4.257-1.328-1.524-3.594-1.524zm30.137 18.555h-3.614v-9.024h-9.707v9.024h-3.632V809.07h3.632v9.16h9.707v-9.16h3.614zM1524.042 812h-7.09v18.204h-3.613V812h-6.954v-2.93h17.657z" style="font-family:Roboto;-inkscape-font-specification:Roboto;fill:#fff" aria-label="Десцендент"/></g><g style="font-size:40px;line-height:1.25;font-family:AstrostudiyaFont;-inkscape-font-specification:AstrostudiyaFont;fill:#fff"><path d="m730.26 238.885 9.297 23.203 9.297-23.203h4.863v28.437h-3.75v-11.074l.351-11.953-9.336 23.027h-2.87l-9.317-22.969.371 11.895v11.074h-3.75v-28.437zm50.996 19.414q-.527 4.511-3.34 6.972-2.793 2.442-7.441 2.442-5.04 0-8.086-3.614-3.028-3.613-3.028-9.668v-2.734q0-3.965 1.407-6.973 1.425-3.007 4.023-4.609 2.598-1.621 6.016-1.621 4.53 0 7.265 2.539 2.735 2.52 3.184 6.992h-3.77q-.488-3.398-2.129-4.922-1.62-1.523-4.55-1.523-3.594 0-5.645 2.656-2.031 2.656-2.031 7.559v2.754q0 4.629 1.933 7.363 1.934 2.734 5.41 2.734 3.126 0 4.786-1.406 1.68-1.426 2.226-4.941z" style="font-family:Roboto;-inkscape-font-specification:Roboto;fill:#fff" aria-label="MC"/></g><g style="font-size:40px;line-height:1.25;font-family:AstrostudiyaFont;-inkscape-font-specification:AstrostudiyaFont;fill:#fff"><path d="M809.118 1331.852h-3.75v-28.437h3.75zm27.774-9.023q-.528 4.512-3.34 6.973-2.793 2.441-7.442 2.441-5.039 0-8.086-3.613-3.027-3.614-3.027-9.668v-2.735q0-3.964 1.406-6.972 1.426-3.008 4.024-4.61 2.597-1.62 6.015-1.62 4.532 0 7.266 2.538 2.734 2.52 3.184 6.992h-3.77q-.488-3.398-2.129-4.921-1.621-1.524-4.55-1.524-3.594 0-5.645 2.656-2.031 2.657-2.031 7.56v2.753q0 4.629 1.933 7.363 1.934 2.735 5.41 2.735 3.125 0 4.785-1.407 1.68-1.425 2.227-4.941z" style="font-family:Roboto;-inkscape-font-specification:Roboto;fill:#fff" aria-label="IC"/></g><path style="fill:#fff;stroke:#0f0;stroke-width:1.93896;stroke-linecap:butt;stroke-linejoin:miter;stroke-miterlimit:4;stroke-dasharray:none;stroke-opacity:1" d="m498.162 284.261 583.676 1011.478m.226-1011.348L497.936 1295.61m797.803-797.448L284.261 1081.838"/></svg>