<svg width="1580" height="1580" xmlns="http://www.w3.org/2000/svg"><path style="fill:none;fill-rule:evenodd;stroke:#f76383;stroke-width:3.91841" d="M447.236 1795.068a20.898 20.898 0 0 1-20.898 20.898 20.898 20.898 0 0 1-20.899-20.898 20.898 20.898 0 0 1 20.899-20.899 20.898 20.898 0 0 1 20.898 20.899z" transform="translate(527.646 -1049.037)"/><g style="font-size:29.8391px;line-height:1.25;font-family:AstrostudiyaFont;-inkscape-font-specification:AstrostudiyaFont;fill:#fff;stroke-width:.745978"><path d="M423.475 1796.146h-2.58v9.528h-2.797v-21.213h2.798v9.354h2.185l7.416-9.354h3.482l-8.1 10.286 8.698 10.927h-3.424z" style="font-family:Roboto;-inkscape-font-specification:Roboto;fill:#f76383" transform="translate(527.646 -1049.037)" aria-label="К"/></g><path style="fill:none;fill-rule:evenodd;stroke:#f76383;stroke-width:3.91841" d="M447.236 1795.068a20.898 20.898 0 0 1-20.898 20.898 20.898 20.898 0 0 1-20.899-20.898 20.898 20.898 0 0 1 20.899-20.899 20.898 20.898 0 0 1 20.898 20.899z" transform="translate(320.239 -1171.342)"/><g style="font-size:29.8391px;line-height:1.25;font-family:AstrostudiyaFont;-inkscape-font-specification:AstrostudiyaFont;fill:#fff;stroke-width:.745978"><path d="M423.475 1796.146h-2.58v9.528h-2.797v-21.213h2.798v9.354h2.185l7.416-9.354h3.482l-8.1 10.286 8.698 10.927h-3.424z" style="font-family:Roboto;-inkscape-font-specification:Roboto;fill:#f76383" transform="translate(320.239 -1171.342)" aria-label="К"/></g><path style="fill:none;fill-rule:evenodd;stroke:#f76383;stroke-width:3.91841" d="M447.236 1795.068a20.898 20.898 0 0 1-20.898 20.898 20.898 20.898 0 0 1-20.899-20.898 20.898 20.898 0 0 1 20.899-20.899 20.898 20.898 0 0 1 20.898 20.899z" transform="translate(196.103 -962.516)"/><g style="font-size:29.8391px;line-height:1.25;font-family:AstrostudiyaFont;-inkscape-font-specification:AstrostudiyaFont;fill:#fff;stroke-width:.745978"><path d="M423.475 1796.146h-2.58v9.528h-2.797v-21.213h2.798v9.354h2.185l7.416-9.354h3.482l-8.1 10.286 8.698 10.927h-3.424z" style="font-family:Roboto;-inkscape-font-specification:Roboto;fill:#f76383" transform="translate(196.103 -962.516)" aria-label="К"/></g><path style="fill:none;fill-rule:evenodd;stroke:#f76383;stroke-width:3.91841" d="M447.236 1795.068a20.898 20.898 0 0 1-20.898 20.898 20.898 20.898 0 0 1-20.899-20.898 20.898 20.898 0 0 1 20.899-20.899 20.898 20.898 0 0 1 20.898 20.899z" transform="translate(407.999 -840.82)"/><g style="font-size:29.8391px;line-height:1.25;font-family:AstrostudiyaFont;-inkscape-font-specification:AstrostudiyaFont;fill:#fff;stroke-width:.745978"><path d="M423.475 1796.146h-2.58v9.528h-2.797v-21.213h2.798v9.354h2.185l7.416-9.354h3.482l-8.1 10.286 8.698 10.927h-3.424z" style="font-family:Roboto;-inkscape-font-specification:Roboto;fill:#f76383" transform="translate(407.999 -840.82)" aria-label="К"/></g><path style="fill:none;fill-rule:evenodd;stroke:#f76383;stroke-width:3.91841" d="M449.39 1734.777a20.898 20.898 0 0 1-20.9 20.899 20.898 20.898 0 0 1-20.898-20.898 20.898 20.898 0 0 1 20.899-20.899 20.898 20.898 0 0 1 20.898 20.898z" transform="translate(481.161 -824.952)"/><g style="font-size:29.8391px;line-height:1.25;font-family:AstrostudiyaFont;-inkscape-font-specification:AstrostudiyaFont;fill:#fff;stroke-width:.745978"><path d="M429.846 1726.298h.451q2.404.015 4.386 1.122 1.981 1.107 3.074 3.06 1.108 1.937 1.108 4.341 0 2.419-1.108 4.386-1.107 1.967-3.06 3.074-1.952 1.093-4.341 1.122h-.51v2.856h-2.71v-2.856h-.408q-2.433 0-4.43-1.107-1.98-1.108-3.088-3.06-1.093-1.953-1.093-4.386t1.093-4.385q1.107-1.953 3.089-3.06 1.996-1.107 4.429-1.107h.408v-3.002h2.71zm-3.118 2.2q-2.74 0-4.342 1.69-1.588 1.675-1.588 4.662 0 3.002 1.588 4.677 1.588 1.661 4.37 1.661h.38v-12.69zm3.118 0v12.69h.408q2.783 0 4.342-1.705 1.573-1.719 1.573-4.662 0-2.914-1.573-4.618-1.56-1.705-4.4-1.705z" style="font-family:Roboto;-inkscape-font-specification:Roboto;fill:#f76383" transform="translate(481.161 -824.952)" aria-label="Ф"/></g><path style="fill:none;fill-rule:evenodd;stroke:#f76383;stroke-width:3.91841" d="M449.39 1734.777a20.898 20.898 0 0 1-20.9 20.899 20.898 20.898 0 0 1-20.898-20.898 20.898 20.898 0 0 1 20.899-20.899 20.898 20.898 0 0 1 20.898 20.898z" transform="translate(481.58 -1067.555)"/><g style="font-size:29.8391px;line-height:1.25;font-family:AstrostudiyaFont;-inkscape-font-specification:AstrostudiyaFont;fill:#fff;stroke-width:.745978"><path d="M429.846 1726.298h.451q2.404.015 4.386 1.122 1.981 1.107 3.074 3.06 1.108 1.937 1.108 4.341 0 2.419-1.108 4.386-1.107 1.967-3.06 3.074-1.952 1.093-4.341 1.122h-.51v2.856h-2.71v-2.856h-.408q-2.433 0-4.43-1.107-1.98-1.108-3.088-3.06-1.093-1.953-1.093-4.386t1.093-4.385q1.107-1.953 3.089-3.06 1.996-1.107 4.429-1.107h.408v-3.002h2.71zm-3.118 2.2q-2.74 0-4.342 1.69-1.588 1.675-1.588 4.662 0 3.002 1.588 4.677 1.588 1.661 4.37 1.661h.38v-12.69zm3.118 0v12.69h.408q2.783 0 4.342-1.705 1.573-1.719 1.573-4.662 0-2.914-1.573-4.618-1.56-1.705-4.4-1.705z" style="font-family:Roboto;-inkscape-font-specification:Roboto;fill:#f76383" transform="translate(481.58 -1067.555)" aria-label="Ф"/></g><path style="fill:none;fill-rule:evenodd;stroke:#f76383;stroke-width:3.91841" d="M449.39 1734.777a20.898 20.898 0 0 1-20.9 20.899 20.898 20.898 0 0 1-20.898-20.898 20.898 20.898 0 0 1 20.899-20.899 20.898 20.898 0 0 1 20.898 20.898z" transform="translate(239.932 -1067.026)"/><g style="font-size:29.8391px;line-height:1.25;font-family:AstrostudiyaFont;-inkscape-font-specification:AstrostudiyaFont;fill:#fff;stroke-width:.745978"><path d="M429.846 1726.298h.451q2.404.015 4.386 1.122 1.981 1.107 3.074 3.06 1.108 1.937 1.108 4.341 0 2.419-1.108 4.386-1.107 1.967-3.06 3.074-1.952 1.093-4.341 1.122h-.51v2.856h-2.71v-2.856h-.408q-2.433 0-4.43-1.107-1.98-1.108-3.088-3.06-1.093-1.953-1.093-4.386t1.093-4.385q1.107-1.953 3.089-3.06 1.996-1.107 4.429-1.107h.408v-3.002h2.71zm-3.118 2.2q-2.74 0-4.342 1.69-1.588 1.675-1.588 4.662 0 3.002 1.588 4.677 1.588 1.661 4.37 1.661h.38v-12.69zm3.118 0v12.69h.408q2.783 0 4.342-1.705 1.573-1.719 1.573-4.662 0-2.914-1.573-4.618-1.56-1.705-4.4-1.705z" style="font-family:Roboto;-inkscape-font-specification:Roboto;fill:#f76383" transform="translate(239.932 -1067.026)" aria-label="Ф"/></g><path style="fill:none;fill-rule:evenodd;stroke:#f76383;stroke-width:3.91841" d="M449.39 1734.777a20.898 20.898 0 0 1-20.9 20.899 20.898 20.898 0 0 1-20.898-20.898 20.898 20.898 0 0 1 20.899-20.899 20.898 20.898 0 0 1 20.898 20.898z" transform="translate(239.66 -824.57)"/><g style="font-size:29.8391px;line-height:1.25;font-family:AstrostudiyaFont;-inkscape-font-specification:AstrostudiyaFont;fill:#fff;stroke-width:.745978"><path d="M429.846 1726.298h.451q2.404.015 4.386 1.122 1.981 1.107 3.074 3.06 1.108 1.937 1.108 4.341 0 2.419-1.108 4.386-1.107 1.967-3.06 3.074-1.952 1.093-4.341 1.122h-.51v2.856h-2.71v-2.856h-.408q-2.433 0-4.43-1.107-1.98-1.108-3.088-3.06-1.093-1.953-1.093-4.386t1.093-4.385q1.107-1.953 3.089-3.06 1.996-1.107 4.429-1.107h.408v-3.002h2.71zm-3.118 2.2q-2.74 0-4.342 1.69-1.588 1.675-1.588 4.662 0 3.002 1.588 4.677 1.588 1.661 4.37 1.661h.38v-12.69zm3.118 0v12.69h.408q2.783 0 4.342-1.705 1.573-1.719 1.573-4.662 0-2.914-1.573-4.618-1.56-1.705-4.4-1.705z" style="font-family:Roboto;-inkscape-font-specification:Roboto;fill:#f76383" transform="translate(239.66 -824.57)" aria-label="Ф"/></g><path style="fill:none;fill-rule:evenodd;stroke:#f76383;stroke-width:3.91841" d="M465.628 1668.904a20.898 20.898 0 0 1-20.899 20.898 20.898 20.898 0 0 1-20.898-20.898 20.898 20.898 0 0 1 20.898-20.899 20.898 20.898 0 0 1 20.899 20.899z" transform="translate(301.666 -713.626)"/><g style="font-size:29.8391px;line-height:1.25;font-family:AstrostudiyaFont;-inkscape-font-specification:AstrostudiyaFont;fill:#fff;stroke-width:.745978"><path d="m437.787 1658.297 6.935 17.309 6.935-17.31h3.628v21.215h-2.797v-8.262l.262-8.916-6.964 17.178h-2.142l-6.95-17.135.277 8.873v8.262h-2.797v-21.214z" style="font-family:Roboto;-inkscape-font-specification:Roboto;fill:#f76383" transform="translate(301.666 -713.626)" aria-label="М"/></g><path style="fill:none;fill-rule:evenodd;stroke:#f76383;stroke-width:3.91841" d="M465.628 1668.904a20.898 20.898 0 0 1-20.899 20.898 20.898 20.898 0 0 1-20.898-20.898 20.898 20.898 0 0 1 20.898-20.899 20.898 20.898 0 0 1 20.899 20.899z" transform="translate(391.678 -1044.513)"/><g style="font-size:29.8391px;line-height:1.25;font-family:AstrostudiyaFont;-inkscape-font-specification:AstrostudiyaFont;fill:#fff;stroke-width:.745978"><path d="m437.787 1658.297 6.935 17.309 6.935-17.31h3.628v21.215h-2.797v-8.262l.262-8.916-6.964 17.178h-2.142l-6.95-17.135.277 8.873v8.262h-2.797v-21.214z" style="font-family:Roboto;-inkscape-font-specification:Roboto;fill:#f76383" transform="translate(391.678 -1044.513)" aria-label="М"/></g><path style="fill:none;fill-rule:evenodd;stroke:#f76383;stroke-width:3.91841" d="M465.628 1668.904a20.898 20.898 0 0 1-20.899 20.898 20.898 20.898 0 0 1-20.898-20.898 20.898 20.898 0 0 1 20.898-20.899 20.898 20.898 0 0 1 20.899 20.899z" transform="translate(177.667 -922.625)"/><g style="font-size:29.8391px;line-height:1.25;font-family:AstrostudiyaFont;-inkscape-font-specification:AstrostudiyaFont;fill:#fff;stroke-width:.745978"><path d="m437.787 1658.297 6.935 17.309 6.935-17.31h3.628v21.215h-2.797v-8.262l.262-8.916-6.964 17.178h-2.142l-6.95-17.135.277 8.873v8.262h-2.797v-21.214z" style="font-family:Roboto;-inkscape-font-specification:Roboto;fill:#f76383" transform="translate(177.667 -922.625)" aria-label="М"/></g><g style="font-size:40px;line-height:1.25;font-family:AstrostudiyaFont;-inkscape-font-specification:AstrostudiyaFont"><path d="M276.594 1689.839q-.41.976-1.036 1.718-1.543 1.817-6.445 1.817h-1.504v-3.32h1.23q2.325 0 3.223-.528.547-.332.899-1.152l.879-2.07-9.356-22.09h4.238l7.247 17.109 7.285-17.11h4.238z" style="font-family:'Padauk Book';-inkscape-font-specification:'Padauk Book, ';fill:#fff" transform="translate(451.659 -1135.1)" aria-label="У"/></g><path style="fill:none;fill-rule:evenodd;stroke:#fff;stroke-width:4.09587" d="M249.127 1657.814h54.406v41.96h-54.406z" transform="translate(451.659 -1135.1)"/><g style="font-size:40px;line-height:1.25;font-family:AstrostudiyaFont;-inkscape-font-specification:AstrostudiyaFont"><path d="M276.594 1689.839q-.41.976-1.036 1.718-1.543 1.817-6.445 1.817h-1.504v-3.32h1.23q2.325 0 3.223-.528.547-.332.899-1.152l.879-2.07-9.356-22.09h4.238l7.247 17.109 7.285-17.11h4.238z" style="font-family:'Padauk Book';-inkscape-font-specification:'Padauk Book, ';fill:#fff" transform="translate(578.472 -648.476)" aria-label="У"/></g><path style="fill:none;fill-rule:evenodd;stroke:#fff;stroke-width:4.09587" d="M249.127 1657.814h54.406v41.96h-54.406z" transform="translate(578.472 -648.476)"/><g style="font-size:40px;line-height:1.25;font-family:AstrostudiyaFont;-inkscape-font-specification:AstrostudiyaFont"><path d="M276.594 1689.839q-.41.976-1.036 1.718-1.543 1.817-6.445 1.817h-1.504v-3.32h1.23q2.325 0 3.223-.528.547-.332.899-1.152l.879-2.07-9.356-22.09h4.238l7.247 17.109 7.285-17.11h4.238z" style="font-family:'Padauk Book';-inkscape-font-specification:'Padauk Book, ';fill:#fff" transform="translate(272.805 -828.506)" aria-label="У"/></g><path style="fill:none;fill-rule:evenodd;stroke:#fff;stroke-width:4.09587" d="M249.127 1657.814h54.406v41.96h-54.406z" transform="translate(272.805 -828.506)"/><g style="font-size:40px;line-height:1.25;font-family:AstrostudiyaFont;-inkscape-font-specification:AstrostudiyaFont"><path d="M276.594 1689.839q-.41.976-1.036 1.718-1.543 1.817-6.445 1.817h-1.504v-3.32h1.23q2.325 0 3.223-.528.547-.332.899-1.152l.879-2.07-9.356-22.09h4.238l7.247 17.109 7.285-17.11h4.238z" style="font-family:'Padauk Book';-inkscape-font-specification:'Padauk Book, ';fill:#fff" transform="translate(755.518 -950.199)" aria-label="У"/></g><path style="fill:none;fill-rule:evenodd;stroke:#fff;stroke-width:4.09587" d="M249.127 1657.814h54.406v41.96h-54.406z" transform="translate(755.518 -950.199)"/><path style="fill:none;fill-rule:evenodd;stroke:#fff;stroke-width:4.09587" d="M321.549 1709.492h54.406v41.959h-54.406z" transform="translate(265.515 -765.09)"/><g aria-label="Пос" style="font-size:40px;line-height:1.25;font-family:AstrostudiyaFont;-inkscape-font-specification:AstrostudiyaFont"><path d="M349.105 1715.778v29.16h-3.945v-25.84h-14.336v25.84h-3.945v-29.16z" style="font-family:'Padauk Book';-inkscape-font-specification:'Padauk Book, ';fill:#fff" transform="translate(265.515 -765.09)"/><path d="M357.93 1737.196q-1.157 0-1.829.906-.672.898-.672 2.469 0 1.57.665 2.476.671.899 1.835.899 1.149 0 1.82-.907.673-.906.673-2.468 0-1.555-.672-2.461-.672-.914-1.82-.914zm0-1.22q1.874 0 2.945 1.22 1.07 1.218 1.07 3.375 0 2.148-1.07 3.375-1.07 1.218-2.946 1.218-1.882 0-2.953-1.218-1.062-1.227-1.062-3.375 0-2.157 1.062-3.375 1.07-1.22 2.953-1.22zM370.625 1736.524v1.344q-.61-.336-1.227-.5-.61-.172-1.234-.172-1.399 0-2.172.89-.773.883-.773 2.485 0 1.601.773 2.492.773.883 2.172.883.625 0 1.234-.164.617-.172 1.227-.508v1.328q-.602.281-1.25.422-.64.14-1.367.14-1.977 0-3.141-1.242t-1.164-3.351q0-2.14 1.172-3.367 1.18-1.227 3.226-1.227.664 0 1.297.14.633.133 1.227.407z" style="font-size:16px;fill:#fff;fill-opacity:1" transform="translate(265.515 -765.09)"/></g><path style="fill:none;fill-rule:evenodd;stroke:#fff;stroke-width:4.09587" d="M321.549 1709.492h54.406v41.959h-54.406z" transform="translate(621.439 -764.242)"/><g aria-label="Пос" style="font-size:40px;line-height:1.25;font-family:AstrostudiyaFont;-inkscape-font-specification:AstrostudiyaFont"><path d="M349.105 1715.778v29.16h-3.945v-25.84h-14.336v25.84h-3.945v-29.16z" style="font-family:'Padauk Book';-inkscape-font-specification:'Padauk Book, ';fill:#fff" transform="translate(621.439 -764.242)"/><path d="M357.93 1737.196q-1.157 0-1.829.906-.672.898-.672 2.469 0 1.57.665 2.476.671.899 1.835.899 1.149 0 1.82-.907.673-.906.673-2.468 0-1.555-.672-2.461-.672-.914-1.82-.914zm0-1.22q1.874 0 2.945 1.22 1.07 1.218 1.07 3.375 0 2.148-1.07 3.375-1.07 1.218-2.946 1.218-1.882 0-2.953-1.218-1.062-1.227-1.062-3.375 0-2.157 1.062-3.375 1.07-1.22 2.953-1.22zM370.625 1736.524v1.344q-.61-.336-1.227-.5-.61-.172-1.234-.172-1.399 0-2.172.89-.773.883-.773 2.485 0 1.601.773 2.492.773.883 2.172.883.625 0 1.234-.164.617-.172 1.227-.508v1.328q-.602.281-1.25.422-.64.14-1.367.14-1.977 0-3.141-1.242t-1.164-3.351q0-2.14 1.172-3.367 1.18-1.227 3.226-1.227.664 0 1.297.14.633.133 1.227.407z" style="font-size:16px;fill:#fff;fill-opacity:1" transform="translate(621.439 -764.242)"/></g><path style="fill:none;fill-rule:evenodd;stroke:#fff;stroke-width:4.09587" d="M321.549 1709.492h54.406v41.959h-54.406z" transform="translate(621.146 -1114.524)"/><g aria-label="Пос" style="font-size:40px;line-height:1.25;font-family:AstrostudiyaFont;-inkscape-font-specification:AstrostudiyaFont"><path d="M349.105 1715.778v29.16h-3.945v-25.84h-14.336v25.84h-3.945v-29.16z" style="font-family:'Padauk Book';-inkscape-font-specification:'Padauk Book, ';fill:#fff" transform="translate(621.146 -1114.524)"/><path d="M357.93 1737.196q-1.157 0-1.829.906-.672.898-.672 2.469 0 1.57.665 2.476.671.899 1.835.899 1.149 0 1.82-.907.673-.906.673-2.468 0-1.555-.672-2.461-.672-.914-1.82-.914zm0-1.22q1.874 0 2.945 1.22 1.07 1.218 1.07 3.375 0 2.148-1.07 3.375-1.07 1.218-2.946 1.218-1.882 0-2.953-1.218-1.062-1.227-1.062-3.375 0-2.157 1.062-3.375 1.07-1.22 2.953-1.22zM370.625 1736.524v1.344q-.61-.336-1.227-.5-.61-.172-1.234-.172-1.399 0-2.172.89-.773.883-.773 2.485 0 1.601.773 2.492.773.883 2.172.883.625 0 1.234-.164.617-.172 1.227-.508v1.328q-.602.281-1.25.422-.64.14-1.367.14-1.977 0-3.141-1.242t-1.164-3.351q0-2.14 1.172-3.367 1.18-1.227 3.226-1.227.664 0 1.297.14.633.133 1.227.407z" style="font-size:16px;fill:#fff;fill-opacity:1" transform="translate(621.146 -1114.524)"/></g><path style="fill:none;fill-rule:evenodd;stroke:#fff;stroke-width:4.09587" d="M321.549 1709.492h54.406v41.959h-54.406z" transform="translate(201.78 -1006.185)"/><g aria-label="Пос" style="font-size:40px;line-height:1.25;font-family:AstrostudiyaFont;-inkscape-font-specification:AstrostudiyaFont"><path d="M349.105 1715.778v29.16h-3.945v-25.84h-14.336v25.84h-3.945v-29.16z" style="font-family:'Padauk Book';-inkscape-font-specification:'Padauk Book, ';fill:#fff" transform="translate(201.78 -1006.185)"/><path d="M357.93 1737.196q-1.157 0-1.829.906-.672.898-.672 2.469 0 1.57.665 2.476.671.899 1.835.899 1.149 0 1.82-.907.673-.906.673-2.468 0-1.555-.672-2.461-.672-.914-1.82-.914zm0-1.22q1.874 0 2.945 1.22 1.07 1.218 1.07 3.375 0 2.148-1.07 3.375-1.07 1.218-2.946 1.218-1.882 0-2.953-1.218-1.062-1.227-1.062-3.375 0-2.157 1.062-3.375 1.07-1.22 2.953-1.22zM370.625 1736.524v1.344q-.61-.336-1.227-.5-.61-.172-1.234-.172-1.399 0-2.172.89-.773.883-.773 2.485 0 1.601.773 2.492.773.883 2.172.883.625 0 1.234-.164.617-.172 1.227-.508v1.328q-.602.281-1.25.422-.64.14-1.367.14-1.977 0-3.141-1.242t-1.164-3.351q0-2.14 1.172-3.367 1.18-1.227 3.226-1.227.664 0 1.297.14.633.133 1.227.407z" style="font-size:16px;fill:#fff;fill-opacity:1" transform="translate(201.78 -1006.185)"/></g><g><path style="fill:none;fill-rule:evenodd;stroke:#fff;stroke-width:4.09587" d="M310.135 1775.524h54.406v41.959h-54.406z" transform="translate(387.281 -765.965)"/><g aria-label="Пад" style="font-size:40px;line-height:1.25;font-family:AstrostudiyaFont;-inkscape-font-specification:AstrostudiyaFont"><path d="M336.473 1780.818v29.16h-3.946v-25.84h-14.336v25.84h-3.945v-29.16z" style="font-family:'Padauk Book';-inkscape-font-specification:'Padauk Book, ';fill:#fff" transform="translate(387.281 -765.965)"/><path d="M345.883 1805.58q-1.742 0-2.414.398-.672.398-.672 1.359 0 .766.5 1.219.508.445 1.375.445 1.195 0 1.914-.844.726-.851.726-2.257v-.32zm2.867-.595v4.993h-1.438v-1.329q-.492.797-1.226 1.18-.735.375-1.797.375-1.344 0-2.14-.75-.79-.758-.79-2.023 0-1.477.985-2.227.992-.75 2.953-.75h2.015v-.14q0-.993-.656-1.532-.648-.547-1.828-.547-.75 0-1.46.18-.712.18-1.368.54v-1.329q.789-.305 1.531-.453.742-.156 1.445-.156 1.899 0 2.836.984.938.984.938 2.984zM353.664 1808.83h4.172v-6.454h-3.024v1.094q0 3.219-.921 4.937zm-2.086 0q.711-.313 1.023-.977.766-1.649.766-4.97v-1.655h5.914v7.601h1.149v3.36h-1.149v-2.211h-7.094v2.21h-1.148v-3.359z" style="font-size:16px;fill:#fff;fill-opacity:1" transform="translate(387.281 -765.965)"/></g></g><g><path style="fill:none;fill-rule:evenodd;stroke:#fff;stroke-width:4.09587" d="M310.135 1775.524h54.406v41.959h-54.406z" transform="translate(276.993 -1185.546)"/><g aria-label="Пад" style="font-size:40px;line-height:1.25;font-family:AstrostudiyaFont;-inkscape-font-specification:AstrostudiyaFont"><path d="M336.473 1780.818v29.16h-3.946v-25.84h-14.336v25.84h-3.945v-29.16z" style="font-family:'Padauk Book';-inkscape-font-specification:'Padauk Book, ';fill:#fff" transform="translate(276.993 -1185.546)"/><path d="M345.883 1805.58q-1.742 0-2.414.398-.672.398-.672 1.359 0 .766.5 1.219.508.445 1.375.445 1.195 0 1.914-.844.726-.851.726-2.257v-.32zm2.867-.595v4.993h-1.438v-1.329q-.492.797-1.226 1.18-.735.375-1.797.375-1.344 0-2.14-.75-.79-.758-.79-2.023 0-1.477.985-2.227.992-.75 2.953-.75h2.015v-.14q0-.993-.656-1.532-.648-.547-1.828-.547-.75 0-1.46.18-.712.18-1.368.54v-1.329q.789-.305 1.531-.453.742-.156 1.445-.156 1.899 0 2.836.984.938.984.938 2.984zM353.664 1808.83h4.172v-6.454h-3.024v1.094q0 3.219-.921 4.937zm-2.086 0q.711-.313 1.023-.977.766-1.649.766-4.97v-1.655h5.914v7.601h1.149v3.36h-1.149v-2.211h-7.094v2.21h-1.148v-3.359z" style="font-size:16px;fill:#fff;fill-opacity:1" transform="translate(276.993 -1185.546)"/></g></g><g><path style="fill:none;fill-rule:evenodd;stroke:#fff;stroke-width:4.09587" d="M310.135 1775.524h54.406v41.959h-54.406z" transform="translate(518.254 -1252.386)"/><g aria-label="Пад" style="font-size:40px;line-height:1.25;font-family:AstrostudiyaFont;-inkscape-font-specification:AstrostudiyaFont"><path d="M336.473 1780.818v29.16h-3.946v-25.84h-14.336v25.84h-3.945v-29.16z" style="font-family:'Padauk Book';-inkscape-font-specification:'Padauk Book, ';fill:#fff" transform="translate(518.254 -1252.386)"/><path d="M345.883 1805.58q-1.742 0-2.414.398-.672.398-.672 1.359 0 .766.5 1.219.508.445 1.375.445 1.195 0 1.914-.844.726-.851.726-2.257v-.32zm2.867-.595v4.993h-1.438v-1.329q-.492.797-1.226 1.18-.735.375-1.797.375-1.344 0-2.14-.75-.79-.758-.79-2.023 0-1.477.985-2.227.992-.75 2.953-.75h2.015v-.14q0-.993-.656-1.532-.648-.547-1.828-.547-.75 0-1.46.18-.712.18-1.368.54v-1.329q.789-.305 1.531-.453.742-.156 1.445-.156 1.899 0 2.836.984.938.984.938 2.984zM353.664 1808.83h4.172v-6.454h-3.024v1.094q0 3.219-.921 4.937zm-2.086 0q.711-.313 1.023-.977.766-1.649.766-4.97v-1.655h5.914v7.601h1.149v3.36h-1.149v-2.211h-7.094v2.21h-1.148v-3.359z" style="font-size:16px;fill:#fff;fill-opacity:1" transform="translate(518.254 -1252.386)"/></g></g><g><path style="fill:none;fill-rule:evenodd;stroke:#fff;stroke-width:4.09587" d="M310.135 1775.524h54.406v41.959h-54.406z" transform="translate(695.543 -941.249)"/><g aria-label="Пад" style="font-size:40px;line-height:1.25;font-family:AstrostudiyaFont;-inkscape-font-specification:AstrostudiyaFont"><path d="M336.473 1780.818v29.16h-3.946v-25.84h-14.336v25.84h-3.945v-29.16z" style="font-family:'Padauk Book';-inkscape-font-specification:'Padauk Book, ';fill:#fff" transform="translate(695.543 -941.249)"/><path d="M345.883 1805.58q-1.742 0-2.414.398-.672.398-.672 1.359 0 .766.5 1.219.508.445 1.375.445 1.195 0 1.914-.844.726-.851.726-2.257v-.32zm2.867-.595v4.993h-1.438v-1.329q-.492.797-1.226 1.18-.735.375-1.797.375-1.344 0-2.14-.75-.79-.758-.79-2.023 0-1.477.985-2.227.992-.75 2.953-.75h2.015v-.14q0-.993-.656-1.532-.648-.547-1.828-.547-.75 0-1.46.18-.712.18-1.368.54v-1.329q.789-.305 1.531-.453.742-.156 1.445-.156 1.899 0 2.836.984.938.984.938 2.984zM353.664 1808.83h4.172v-6.454h-3.024v1.094q0 3.219-.921 4.937zm-2.086 0q.711-.313 1.023-.977.766-1.649.766-4.97v-1.655h5.914v7.601h1.149v3.36h-1.149v-2.211h-7.094v2.21h-1.148v-3.359z" style="font-size:16px;fill:#fff;fill-opacity:1" transform="translate(695.543 -941.249)"/></g></g><g><path style="fill:none;fill-rule:evenodd;stroke:#f76383;stroke-width:3.91841" d="M465.628 1668.904a20.898 20.898 0 0 1-20.899 20.898 20.898 20.898 0 0 1-20.898-20.898 20.898 20.898 0 0 1 20.898-20.899 20.898 20.898 0 0 1 20.899 20.899z" transform="translate(513.385 -835.046)"/><g style="font-size:29.8391px;line-height:1.25;font-family:AstrostudiyaFont;-inkscape-font-specification:AstrostudiyaFont;fill:#fff;stroke-width:.745978"><path d="m437.787 1658.297 6.935 17.309 6.935-17.31h3.628v21.215h-2.797v-8.262l.262-8.916-6.964 17.178h-2.142l-6.95-17.135.277 8.873v8.262h-2.797v-21.214z" style="font-family:Roboto;-inkscape-font-specification:Roboto;fill:#f76383" transform="translate(513.385 -835.046)" aria-label="М"/></g></g><path style="fill:#1463bf;fill-opacity:1;fill-rule:evenodd;stroke:none;stroke-width:4.06015;stroke-miterlimit:4;stroke-dasharray:none;stroke-opacity:1" d="M791.222 852.462c0-31.077.199-56.304.442-56.061.843.843 55.528 95.822 55.71 96.76.265 1.366-11.54 7.017-21.055 10.08-9.227 2.968-23.992 5.725-30.662 5.725h-4.435z"/><path style="fill:#1463bf;fill-opacity:1;fill-rule:evenodd;stroke:none;stroke-width:2.87096;stroke-miterlimit:4;stroke-dasharray:none;stroke-opacity:1" d="M795.837 782.65c1.017-1.706 13.737-23.705 28.267-48.888s26.686-45.792 27.014-45.798c.327-.006 3.557 2.008 7.177 4.476 10.88 7.415 28.492 26.005 33.124 34.962l.972 1.88-48.438 27.963c-26.64 15.38-48.781 28.084-49.201 28.234-.42.149.069-1.125 1.085-2.83zM671.026 782.516c.734-9.002 2.51-18.797 4.816-26.56 2.02-6.804 7.72-20.695 9.478-23.099.775-1.06 5.863 1.692 46.182 24.987a65246.472 65246.472 0 0 0 49.15 28.379l3.838 2.2-56.974.008-56.973.007z"/><path style="fill:#bfe7fb;fill-opacity:1;fill-rule:evenodd;stroke:none;stroke-width:2.87096;stroke-miterlimit:4;stroke-dasharray:none;stroke-opacity:1" d="M736.049 757.215c-26.248-15.176-47.818-27.878-47.934-28.226-.336-1.008 6.491-10.697 12.213-17.332 6.112-7.09 15.03-14.967 23.151-20.452 5.03-3.397 5.82-3.727 6.395-2.667.361.666 12.733 22.14 27.494 47.72 14.76 25.582 27.016 46.98 27.235 47.551.22.572.122 1.03-.216 1.019-.338-.011-22.09-12.437-48.338-27.613zM772.596 907.92c-7.604-1.186-16.249-3.367-23.095-5.827-6.487-2.33-17.925-8.014-17.525-8.708l27.41-47.528c14.912-25.857 27.549-47.65 28.082-48.428.818-1.195.97 7.415.97 55.086v56.503l-4.845-.07c-2.665-.038-7.614-.5-10.997-1.028zM797.429 787.47c.779-.532 21.602-12.606 46.274-26.83 24.673-14.225 46.055-26.57 47.518-27.435l2.658-1.572 3.308 6.587c6.288 12.519 10.764 29.148 11.617 43.155l.43 7.062h-56.61c-47.706 0-56.388-.152-55.195-.967z"/><path style="fill:#60cc1b;fill-opacity:1;fill-rule:evenodd;stroke:none;stroke-width:2.87096;stroke-miterlimit:4;stroke-dasharray:none;stroke-opacity:1" d="M845.857 820.637c-25.857-14.99-47.82-27.707-48.807-28.262-1.553-.874 5.852-1.013 55.195-1.038l56.99-.029-.432 6.998c-.573 9.28-2.665 19.728-5.869 29.314-2.788 8.34-8.157 19.902-9.348 20.132-.394.076-21.873-12.126-47.73-27.115zM759.925 735.156l-28.153-48.92 1.955-1.294c3.223-2.131 16.58-7.522 23.489-9.478 7.69-2.178 16.344-3.704 24.941-4.398l6.28-.508v56.787c0 31.232-.08 56.774-.18 56.758-.098-.015-12.848-22.041-28.332-48.947zM724.228 889.272c-12.497-8.208-24.577-20.24-33.277-33.148-1.649-2.446-2.995-4.707-2.991-5.024.006-.578 97.055-56.884 97.463-56.548.16.132-55.358 96.78-56.16 97.768-.076.093-2.342-1.279-5.035-3.048z"/><path style="fill:#dd3730;fill-opacity:1;fill-rule:evenodd;stroke:none;stroke-width:2.87096;stroke-miterlimit:4;stroke-dasharray:none;stroke-opacity:1" d="M791.308 727.59v-56.862l2.333.006c3.734.009 14.73 1.385 20.606 2.578 12.701 2.579 34.362 11.327 33.515 13.536-.436 1.135-54.064 94.097-55.488 96.187-.813 1.191-.966-7.593-.966-55.446zM682.88 842.169c-3.377-6.716-7.958-20.047-9.585-27.893-1.271-6.131-2.994-22.063-2.444-22.612.2-.2 25.81-.282 56.91-.18l56.544.183-48.815 28.171c-26.849 15.495-49.009 28.172-49.245 28.172-.235 0-1.75-2.629-3.365-5.841zM849.912 890.914c-4.634-7.371-55.037-95.517-54.77-95.783.266-.266 88.253 50.064 95.772 54.783l1.634 1.025-4.398 6.423c-8.168 11.925-18.786 22.519-30.96 30.889l-6.25 4.297z"/></svg>