<svg viewBox="-60 -55 980 940" class="natal" version="1.1" id="svg413" width="980" height="940" xmlns="http://www.w3.org/2000/svg"><style id="style2">@font-face{font-family:&apos;astrostyle&apos;;src:url(../fonts/astrostyle.eot);src:url(../fonts/astrostyle.eot?#iefix) format(&apos;embedded-opentype&apos;),url(../fonts/astrostyle.svg#astrostyle) format(&apos;svg&apos;),url(../fonts/astrostyle.woff) format(&apos;woff&apos;),url(../fonts/astrostyle.ttf) format(&apos;truetype&apos;);font-weight:400;font-style:normal}#house path{stroke:#0f0}</style><defs id="defs355"><ellipse id="ellipse20" cx="357.938" cy="102.644" rx="30.587" ry="15.314" style="fill:none;stroke:#fe0c00;stroke-width:1px"/></defs><g id="g3664" transform="translate(-53.1 -57.047)" style="fill:#fff"><g id="g5518" style="fill:#fff"><g id="house" transform="matrix(1.0113 0 0 1 115.842 95.742)" style="fill:#fff"><path d="M365-26v160" transform="rotate(7.5 365 365)" id="house1" style="fill:#fff"/><path d="M365-26v160" transform="rotate(-15.33 365 365)" id="house2" style="fill:#fff"/><path d="M365-26v160" transform="rotate(-57.06 365 365)" id="house3" style="fill:#fff"/><path d="M365-26v160" transform="rotate(-125.11 365 365)" id="house4" style="fill:#fff"/><path d="M365-26v160" transform="rotate(-140.1 365 365)" id="house5" style="fill:#fff"/><path d="M365-26v160" transform="rotate(-155.37 365 365)" id="house6" style="fill:#fff"/><path d="M365-26v160" transform="rotate(-172.5 365 365)" id="house7" style="fill:#fff"/><path d="M365-26v160" transform="rotate(164.67 365 365)" id="house8" style="fill:#fff"/><path d="M365-26v160" transform="rotate(122.94 365 365)" id="house9" style="fill:#fff"/><path d="M365-26v160" transform="rotate(54.89 365 365)" id="house10" style="fill:#fff"/><path d="M365-26v160" transform="rotate(39.9 365 365)" id="house11" style="fill:#fff"/><path d="M365-26v160" transform="rotate(24.63 365 365)" id="house12" style="fill:#fff"/></g><g transform="matrix(1.7951 0 0 1.77504 -181.637 -173.996)" style="letter-spacing:0;word-spacing:0;line-height:125%;font-family:astrostyle;fill:#fff" id="g56"><g aria-label="^" id="hn1" style="font-size:14px;fill:#fff"><path d="M389.473 144.617v-10.022h1.326v10.022z" id="path9079" style="fill:#fff"/></g><g aria-label="^^" id="hn2" style="font-size:14px;fill:#fff"><path d="M301.515 153.085v-10.021h1.326v10.021z" id="path9074" style="fill:#fff"/><path d="M305.405 153.085v-10.021h1.326v10.021z" id="path9076" style="fill:#fff"/></g><g aria-label="^^^" id="hn3" style="font-size:14px;fill:#fff"><path d="M176.36 250.87v-10.022h1.326v10.021z" id="path9693" style="fill:#fff"/><path d="M180.25 250.87v-10.022h1.325v10.021z" id="path9695" style="fill:#fff"/><path d="M184.139 250.87v-10.022h1.326v10.021z" id="path9697" style="fill:#fff"/></g><g aria-label="^«" id="hn4" style="font-size:14px;fill:#fff"><path d="M189.328 498.361V488.34h1.327v10.021z" id="path9287" style="fill:#fff"/><path d="m195.857 498.361-3.883-10.021h1.435l2.605 7.28q.314.875.526 1.64.233-.82.54-1.64l2.707-7.28h1.354l-3.924 10.021z" id="path9289" style="fill:#fff"/></g><g aria-label="«" id="hn5" style="font-size:14px;fill:#fff"><path d="m232.514 539.62-3.883-10.022h1.436l2.604 7.28q.315.875.526 1.64.233-.82.54-1.64l2.708-7.28h1.353l-3.924 10.021z" id="path9284" style="fill:#fff"/></g><g aria-label="«^" id="hn6" style="font-size:14px;fill:#fff"><path d="m282.358 568.979-3.883-10.022h1.435l2.605 7.28q.314.875.526 1.641.233-.82.54-1.64l2.707-7.28h1.354l-3.924 10.02z" id="path9251" style="fill:#fff"/><path d="M289.057 568.979v-10.022h1.326v10.022z" id="path9253" style="fill:#fff"/></g><g aria-label="«^^" id="hn7" style="font-size:14px;fill:#fff"><path d="m345.778 585.383-3.883-10.021h1.436l2.604 7.28q.315.875.527 1.64.232-.82.54-1.64l2.707-7.28h1.353l-3.923 10.021z" id="path9238" style="fill:#fff"/><path d="M352.477 585.383v-10.021h1.327v10.021z" id="path9240" style="fill:#fff"/><path d="M356.367 585.383v-10.021h1.326v10.021z" id="path9242" style="fill:#fff"/></g><g aria-label="«^^^" id="hn8" style="font-size:14px;fill:#fff"><path d="m433.731 576.913-3.882-10.021h1.435l2.605 7.28q.314.875.526 1.64.232-.82.54-1.64l2.707-7.28h1.354l-3.924 10.021z" id="path9226" style="fill:#fff"/><path d="M440.43 576.913v-10.021h1.327v10.021z" id="path9228" style="fill:#fff"/><path d="M444.32 576.913v-10.021h1.326v10.021z" id="path9230" style="fill:#fff"/><path d="M448.21 576.913v-10.021h1.326v10.021z" id="path9232" style="fill:#fff"/></g><g aria-label="^»" id="hn9" style="font-size:14px;fill:#fff"><path d="M556.25 479.128v-10.022h1.327v10.022z" id="path9193" style="fill:#fff"/><path d="m558.896 479.128 3.876-5.223-3.418-4.799h1.58l1.818 2.57q.567.8.806 1.231.335-.547.793-1.141l2.017-2.66h1.442l-3.52 4.724 3.794 5.298h-1.64l-2.523-3.575q-.212-.308-.438-.67-.335.547-.478.752l-2.516 3.493z" id="path9195" style="fill:#fff"/></g><g aria-label="»" id="hn10" style="font-size:14px;fill:#fff"><path d="m542.035 231.64 3.876-5.222-3.418-4.799h1.58l1.818 2.57q.567.8.806 1.23.335-.546.793-1.14l2.017-2.66h1.442l-3.52 4.724 3.794 5.298h-1.64l-2.523-3.576q-.212-.307-.438-.67-.335.547-.478.752l-2.516 3.494z" id="path9137" style="fill:#fff"/></g><g aria-label="»^" id="hn11" style="font-size:14px;fill:#fff"><path d="m501.493 190.38 3.876-5.223-3.418-4.799h1.579l1.818 2.57q.568.8.807 1.231.335-.547.793-1.142l2.016-2.659h1.443l-3.52 4.724 3.793 5.298h-1.64l-2.523-3.575q-.212-.308-.437-.67-.335.546-.479.752l-2.516 3.493z" id="path9120" style="fill:#fff"/><path d="M512.075 190.38v-10.022h1.326v10.022z" id="path9122" style="fill:#fff"/></g><g aria-label="»^^" id="hn12" style="font-size:14px;fill:#fff"><path d="m451.647 161.018 3.876-5.222-3.418-4.8h1.58l1.818 2.571q.567.8.806 1.23.335-.546.793-1.141l2.017-2.66h1.442l-3.52 4.724 3.794 5.298h-1.64l-2.523-3.575q-.212-.308-.438-.67-.335.547-.478.752l-2.516 3.493z" id="path9088" style="fill:#fff"/><path d="M462.23 161.018v-10.021h1.325v10.021z" id="path9090" style="fill:#fff"/><path d="M466.119 161.018v-10.021h1.326v10.021z" id="path9092" style="fill:#fff"/></g></g><g transform="matrix(1.19088 0 0 1.16713 40.345 43.489)" style="letter-spacing:0;word-spacing:0;line-height:125%;font-family:astrostyle;fill:#fff" id="g86"><g aria-label="Q" id="text270" style="font-size:18px;fill:#fff"><path d="M454.983 155.109v-.018q-1.793 1.828-4.395 1.828-2.557 0-4.368-1.793-1.81-1.793-1.81-4.35 0-2.567 1.81-4.36 1.81-1.793 4.368-1.793 2.584 0 4.386 1.793t1.802 4.351q0 2.549-1.793 4.342zm-4.395-9.396q-2.118 0-3.603 1.468-1.486 1.468-1.486 3.586t1.486 3.586q1.485 1.468 3.603 1.468 2.136 0 3.613-1.468 1.476-1.468 1.476-3.604 0-1.256-.606-2.381-.607-1.134-1.661-1.829-1.266-.826-2.822-.826zm-.659 4.368q.29-.28.677-.28.395 0 .677.28.28.282.28.677 0 .387-.28.66-.282.272-.677.272-.387 0-.677-.273-.281-.272-.281-.659 0-.395.281-.677z" id="path9098" style="fill:#fff"/></g><g aria-label="W" id="text274" style="font-size:18px;fill:#fff"><path d="M539.236 220.915v.018q-2.584 0-4.483-1.89 1.908-.088 3.358-1.09 1.67-1.134 1.67-2.944 0-1.82-1.67-2.988-1.433-1.002-3.358-1.082 1.908-1.88 4.465-1.88 1.828 0 3.375.975 1.547.967 2.294 2.628.475 1.055.475 2.312 0 2.505-1.81 4.227-1.811 1.714-4.316 1.714zm0-10.749-.018.009q-.676 0-1.66.255 3.304 1.705 3.304 4.588 0 2.856-3.305 4.57.967.264 1.679.264 2.057 0 3.533-1.398 1.485-1.406 1.485-3.445 0-2.048-1.485-3.445-1.476-1.398-3.533-1.398z" id="path9134" style="fill:#fff"/></g><g aria-label="E" id="text278" style="font-size:18px;fill:#fff"><path d="M441.121 150.608v1.881h1.942v1.02h-1.942v1.467h-1.002v-1.467h-1.951v-1.02h1.951l-.017-1.88q-1.301-.238-2.136-1.179-.826-.949-.826-2.258 0-1.705 1.538-2.874-1.468-.88-1.52-2.32h1.01q.123 1.722 2.46 1.722.968 0 1.61-.387.738-.44.843-1.336h1.02q-.07 1.477-1.547 2.303 1.547 1.187 1.529 2.91-.018 1.318-.835 2.24-.809.923-2.127 1.178zm1.23-5.159v-.018q-.711-.711-1.722-.711-1.037 0-1.758.711-.712.712-.712 1.74 0 1.02.712 1.74.72.722 1.74.722 1.029 0 1.75-.712.72-.712.72-1.74 0-1.038-.73-1.732z" id="path9095" style="fill:#fff"/></g><g aria-label="R" id="text282" style="font-size:18px;fill:#fff"><path d="m295.801 149.86.018.018q-.844.844-2.171 1.09v2.11h2.17v1.124h-2.17v1.653h-1.143v-1.653h-2.17v-1.125h2.17v-2.109q-1.459-.264-2.382-1.31-.914-1.054-.914-2.53 0-1.61 1.125-2.734 1.125-1.125 2.734-1.125 1.608 0 2.742 1.125t1.134 2.733q0 1.591-1.143 2.734zm-.765-4.64h.018q-.809-.809-1.969-.809-1.142 0-1.933.8-.782.791-.782 1.934 0 1.142.79 1.951.8.8 1.943.8 1.142 0 1.933-.791.8-.8.8-1.943 0-1.142-.8-1.942z" id="path9062" style="fill:#fff"/></g><g aria-label="T" id="text286" style="font-size:18px;fill:#fff"><path d="M515.615 185.075v-3.7l-3.876 3.867q.765 1.151.765 2.4 0 1.687-1.17 2.864-1.168 1.178-2.856 1.178-1.687 0-2.856-1.178-1.17-1.177-1.17-2.865 0-1.687 1.179-2.856 1.177-1.17 2.865-1.17 1.266 0 2.4.81l3.946-3.973h-3.85v-1.17h5.792v5.793zm-5.106.553-.018.018q-.861-.861-2.03-.861-1.187 0-2.013.843-.826.844-.826 2.03 0 1.17.844 2.013.843.844 2.012.844 1.187 0 2.03-.844.844-.843.844-2.03 0-1.169-.843-2.013z" id="path9131" style="fill:#fff"/></g><g aria-label="Y" id="text290" style="font-size:18px;fill:#fff"><path d="M193.905 230.758v3.718h-1.31v-3.718h-6.873l.017-1.371q2.163-1.02 2.962-2.98.229-.545.229-1.037 0-1.31-.984-2.083-.88-.694-2.224-.73v-1.309q1.916.08 3.164 1.125 1.345 1.116 1.345 2.98 0 1.933-2.224 4.122h4.588v-6.126h1.31v6.126h1.96v1.283z" id="path9335" style="fill:#fff"/></g><g aria-label="U" id="text294" style="font-size:18px;fill:#fff"><path d="M238.545 185.86v-.018q-.184.272-.958 1.09-.95.975-.95 1.907 0 .888.8 1.476.15.106.168.29 0 .168-.123.273-.352.29-.677.07-.598-.413-.967-1.476-.167-.492-.167-.633 0-1.213.932-2.1 1.063-1.029 1.45-1.9.123-.28.123-.623 0-.475-.202-.818-.818-1.353-2.567-1.353-.94 0-1.722.44-.782.43-1.152 1.142v4.825h-1.195v-9.096h-2.768v-.985h2.768v-1.494h1.195v1.494h2.751v.985h-2.75l-.018 2.671q1.432-.949 2.935-.949 1.46 0 2.576.88 1.116.87 1.116 2.073 0 .932-.598 1.828z" id="path9338" style="fill:#fff"/></g><g aria-label="I" id="text298" style="font-size:18px;fill:#fff"><path d="M203.068 501.375v-2.856h-2.769v3.26q1.099.264 1.81 1.099.712.826.712 1.934 0 1.274-.905 2.18-.905.905-2.188.905-1.275 0-2.18-.906-.896-.905-.896-2.18 0-1.107.703-1.933.712-.835 1.801-1.099v-3.26h-2.768v2.856h-1.143v-7.435h1.143v3.436h2.768v-2.716h1.143v2.716h2.769v-3.436h1.133v7.435zm-1.97 2.065v.018q-.597-.598-1.379-.598-.809 0-1.371.572-.563.571-.563 1.38 0 .808.563 1.38.562.562 1.362.562.809 0 1.38-.554.571-.562.589-1.37 0-.774-.58-1.39z" id="path9292" style="fill:#fff"/></g><g aria-label="O" id="text302" style="font-size:18px;fill:#fff"><path d="M158.107 315.861q-1.53 1.53-3.797 1.802v1.767h2.742v1.213h-2.742v2.109h-1.222v-2.11h-2.812v-1.212h2.812l.018-1.767q-1.776-.22-3.173-1.257-1.389-1.046-2.04-2.707-.421-1.054-.421-2.232v-1.547h1.204v1.547q0 1.907 1.248 3.313 1.257 1.398 3.164 1.67v-6.495h1.222v6.513q1.415-.237 2.513-1.081 1.1-.853 1.591-2.162.308-.818.308-1.758v-1.547h1.204l.018 1.53q.035 2.54-1.837 4.411z" id="path9326" style="fill:#fff"/></g><g aria-label="P" id="text306" style="font-size:18px;fill:#fff"><path d="M282.618 153.755q-.58.563-1.011.703-.29.115-.958.115-1.16 0-1.96-.8-.791-.809-.791-1.96 0-1.16.808-1.951.818-.8 1.97-.8 1.16 0 1.95.808.8.8.8 1.952 0 1.142-.808 1.933zm-1.416 3.815v2.021h2.804v1.116h-2.804v2.189h-1.15v-2.189h-2.787v-1.116h2.786l.018-2.004q-2.26-.29-3.7-1.89-1.433-1.599-1.503-3.893h1.098q.062 1.969 1.389 3.322 1.327 1.345 3.296 1.345 1.986 0 3.313-1.353 1.327-1.363 1.363-3.314h1.116q-.053 2.312-1.503 3.894-1.442 1.582-3.735 1.872zm.633-6.917v-.018q-.466-.475-1.169-.475-.685 0-1.169.484-.474.474-.474 1.16 0 .686.474 1.169.484.475 1.17.475.685 0 1.16-.475.483-.483.483-1.169t-.475-1.151z" id="path9059" style="fill:#fff"/></g><g aria-label="C" id="text310" style="font-size:18px;fill:#fff"><path d="M300.319 148.366v2.557h2.206v1.143h-2.206v1.635h-.967v-1.635h-2.294v-1.143h2.294v-2.557q-1.863-.326-2.83-1.205 1.098-.105 1.828-.808.738-.703.738-1.793 0-1.064-.738-1.767-.73-.703-1.81-.817 1.388-1.23 3.251-1.23 1.591 0 2.707 1.124 1.125 1.117 1.125 2.716 0 1.424-.94 2.47-.94 1.037-2.364 1.31zm-.545-6.636q-.405 0-1.011.176 1.274 1.212 1.274 2.68 0 1.46-1.274 2.672.606.176 1.01.176 1.179 0 2.013-.835.835-.835.835-2.013 0-1.177-.835-2.012-.834-.844-2.012-.844z" id="path9065" style="fill:#fff"/></g><g aria-label="i" id="text314" style="font-size:18px;fill:#fff"><path d="M307.261 572.297q-1.459-.264-2.4-1.336-.94-1.081-.94-2.54 0-1.626 1.134-2.769 1.134-1.142 2.76-1.142 1.828 0 3.304 1.3-.562-.114-1.098-.114-1.152 0-1.951.791-.791.783-.791 1.934 0 1.151.8 1.951.808.8 1.96.8.518 0 1.08-.123-1.133.984-2.707 1.248l-.017 2.496h2.223v1.134h-2.223v1.687h-1.134v-1.687h-2.224v-1.134h2.224z" id="path9256" style="fill:#fff"/></g><g aria-label="M" id="text318" style="font-size:18px;fill:#fff"><path d="M258.825 553.727q0 .94-.676 1.634-.703.66-1.635.66-.905 0-1.556-.59-.756-.676-.756-1.704 0-.721.422-1.328.422-.606 1.143-.86-.914-1.31-.914-2.919 0-2.004 1.397-3.498.747-.808 1.75-1.248 1.054-.466 2.232-.466 1.898 0 3.41 1.187.905.738 1.415 1.758.545 1.072.545 2.267 0 1.6-.923 2.918.685.229 1.125.835.44.598.44 1.354 0 .975-.713 1.67-.676.624-1.59.624-.958 0-1.635-.668t-.677-1.626q0-.58.273-1.09.272-.51.747-.826.73-.528 1.186-1.371.466-.853.466-1.82 0-1.74-1.336-2.918-1.178-1.037-2.733-1.037-1.81 0-3.024 1.31-1.054 1.125-1.054 2.645 0 .993.457 1.837.465.844 1.239 1.38.334.264.615.65.36.572.36 1.24zm5.116-1.002q-.422 0-.721.299-.29.29-.29.703 0 .404.299.703.307.299.712.299.404 0 .694-.29.299-.3.299-.712 0-.422-.29-.712-.281-.29-.703-.29zm-7.427 0q-.44 0-.72.307-.282.282-.282.695t.29.712q.299.29.712.29.395 0 .712-.3.29-.307.29-.702 0-.422-.308-.73-.307-.272-.694-.272z" id="path9259" style="fill:#fff"/></g><g aria-label="Z" id="text322" style="font-size:18px;fill:#fff"><path d="M480.422 161.897q0 .668-.36 1.24-.282.386-.616.64-.773.546-1.24 1.39-.456.843-.456 1.828 0 1.52 1.054 2.654 1.213 1.3 3.024 1.3 1.555 0 2.733-1.036 1.336-1.17 1.336-2.918 0-.967-.466-1.81-.457-.845-1.186-1.372-.475-.325-.747-.835-.273-.51-.273-1.081 0-.967.677-1.635t1.635-.668q.914 0 1.59.624.713.695.713 1.679 0 .747-.44 1.353-.44.598-1.125.835.923 1.31.923 2.91 0 1.195-.545 2.276-.51 1.02-1.415 1.749-1.512 1.187-3.41 1.187-1.178 0-2.233-.457-1.002-.44-1.749-1.257-1.397-1.486-1.397-3.498 0-1.609.914-2.91-.72-.254-1.143-.86-.421-.607-.421-1.328 0-1.037.755-1.705.65-.598 1.556-.598.932 0 1.635.668.677.695.677 1.635zm5.115.993q.422 0 .703-.29.29-.29.29-.703 0-.422-.299-.712-.29-.29-.694-.29-.404 0-.712.299-.299.29-.299.703t.29.703q.299.29.72.29zm-7.427 0q.387 0 .694-.264.308-.316.308-.729 0-.404-.29-.712-.316-.29-.712-.29-.413 0-.712.29-.29.29-.29.712 0 .413.281.686.282.307.721.307z" id="path9128" style="fill:#fff"/></g></g><g transform="matrix(1.13183 0 0 1.11789 71.648 52.713)" id="g352" style="fill:#fff"><circle r=".5" cy="158.123" cx="444.41" id="1" style="stroke:red;fill:#fff"/><circle r=".5" cy="222.559" cx="534.753" id="circle326" style="stroke:red;fill:#fff"/><circle r=".5" cy="155.477" cx="437.14" id="circle328" style="stroke:red;fill:#fff"/><circle r=".5" cy="156.769" cx="289.209" id="circle330" style="stroke:red;fill:#fff"/><circle r=".5" cy="192.783" cx="504.453" id="circle332" style="stroke:red;fill:#fff"/><circle r=".5" cy="234.748" cx="185.722" id="circle334" style="stroke:red;fill:#fff"/><circle r=".5" cy="190.377" cx="228.57" id="circle336" style="stroke:red;fill:#fff"/><circle r=".5" cy="507.44" cx="195.245" id="circle338" style="stroke:red;fill:#fff"/><circle r=".5" cy="322.717" cx="147.472" id="circle340" style="stroke:red;fill:#fff"/><circle r=".5" cy="162.562" cx="274.866" id="circle342" style="stroke:red;fill:#fff"/><circle r=".5" cy="154.245" cx="296.522" id="circle344" style="stroke:red;fill:#fff"/><circle r=".5" cy="578.01" cx="303.921" id="circle346" style="stroke:red;fill:#fff"/><circle r=".5" cy="556.908" cx="254.202" id="circle348" style="stroke:red;fill:#fff"/><circle r=".5" cy="173.094" cx="475.799" id="circle350" style="stroke:red;fill:#fff"/></g><path stroke="#00С" stroke-dasharray="18, 12, 0" stroke-width="1.006" id="line389" d="m565.272 253.866 91.364 64.435" style="fill:#fff"/><path stroke="#00С" stroke-dasharray="18, 12, 0" stroke-width="1.006" id="line391" d="m656.636 318.301-98.717-67.081" style="fill:#fff"/></g></g></svg>