<svg width="64" height="64" xmlns="http://www.w3.org/2000/svg"><defs><linearGradient id="a"><stop stop-color="#fff"/><stop offset="1" stop-color="#fff" stop-opacity="0"/></linearGradient></defs><path style="fill:#5d5bb3;fill-opacity:1;fill-rule:evenodd;stroke-width:15.7341;-inkscape-stroke:none;stop-color:#000" d="M0 0h64v64H0z"/><g fill="#fff"><path d="M17.83 7.821v1.463c4.726 0 7.09 1.462 7.09 4.385v4.663H20.69v4.664h4.228v6.457h1.993v6.94h-1.993v4.18l-.973-.002s.019.578.019 1.474v1.472h.954v3.022h2.769v7.036h-4.295v-.115c-1.175.844-3.024 1.268-5.564 1.268v1.463H40.85c5.844 0 10.462-1.145 13.88-3.436 3.47-2.339 5.197-5.652 5.197-9.938h.003c0-3.265-1.169-5.894-3.508-7.893-2.336-2.046-5.23-3.412-8.7-4.094 6.478-1.607 9.719-5.165 9.719-10.67 0-8.233-6.699-12.35-20.099-12.35zm18.34 2.923c1.364 0 2.534.048 3.508.147 1.024.048 2.217.267 3.58.658 1.414.341 2.559.828 3.436 1.462.877.633 1.631 1.583 2.265 2.85.634 1.267.95 2.778.95 4.53 0 2.925-1.024 5.165-3.07 6.724-1.997 1.56-4.848 2.34-8.55 2.34h-5.993v-16.59c0-.83.292-1.39.877-1.682.585-.292 1.583-.439 2.997-.439M26.086 12.68h2.863v2.862l-1.432-.011h-1.43v-1.42m6.207 18.265h3.58c10.428 0 15.642 3.453 15.642 10.376l-.002.002c0 3.946-1.169 6.724-3.508 8.331-2.29 1.607-5.53 2.412-9.72 2.412-2.484 0-4.117-.292-4.895-.877-.73-.585-1.097-1.61-1.097-3.07z"/><path d="m13.505 48.268 7.74-3.974-2.775 7.57-4.965-3.596M6.147 22.872l2.237-5.214 3.902 3.643-6.14 1.57M18.159 22.41l3.137-.683-1.568 2.933-1.57-2.25M8.764 27.057l-3.121 2.147 4.625 3.584-1.504-5.731M14.21 41.182l2.07 2.27-3.102-.081 1.033-2.19M14.054 11.564l-.01 3.574 4.976-.722-4.966-2.852M4.07 35.625l3.432 5.57 2.224-2.572-5.656-3M11.316 45.883 8.377 48.82 5.44 45.883l2.938-2.939 2.939 2.939M20.224 28.412l-2.939 2.938-2.938-2.938 2.938-2.939 2.939 2.939M21.232 34.104l-.081 3.29-2.728-1.574 2.809-1.715"/></g></svg>