<?xml version="1.0" standalone="no"?>
<!DOCTYPE svg PUBLIC "-//W3C//DTD SVG 20010904//EN"
 "http://www.w3.org/TR/2001/REC-SVG-20010904/DTD/svg10.dtd">
<svg version="1.0" xmlns="http://www.w3.org/2000/svg"
 width="700.000000pt" height="700.000000pt" viewBox="0 0 700.000000 700.000000"
 preserveAspectRatio="xMidYMid meet">
<metadata>
Created by potrace 1.14, written by Peter Selinger 2001-2017
</metadata>
<g transform="translate(0.000000,700.000000) scale(0.100000,-0.100000)"
fill="#000000" stroke="none">
<path d="M3649 6907 c-4 -17 -20 -19 -204 -22 -210 -4 -253 -7 -425 -32 -58
-8 -118 -17 -135 -19 -16 -2 -37 -7 -47 -10 -16 -5 -38 -10 -88 -19 -80 -15
-416 -116 -445 -134 -5 -3 -12 -6 -15 -6 -25 -2 -330 -143 -435 -202 -187
-105 -448 -287 -565 -395 -62 -57 -82 -69 -98 -56 -13 11 -14 10 -5 -6 9 -16
-2 -31 -76 -105 -228 -229 -393 -445 -560 -731 -64 -111 -212 -428 -226 -485
-1 -5 -7 -22 -13 -38 -50 -121 -133 -442 -156 -602 -4 -22 -9 -58 -12 -80 -3
-22 -7 -51 -9 -65 -5 -33 -17 -175 -19 -220 -1 -27 -6 -35 -26 -41 l-25 -7 25
-1 25 -1 0 -163 c1 -139 7 -258 19 -357 2 -14 6 -50 10 -80 4 -30 9 -66 12
-80 2 -14 6 -36 9 -50 3 -14 9 -47 15 -75 6 -27 12 -59 14 -70 27 -130 136
-477 157 -499 5 -6 9 -16 9 -24 0 -7 12 -39 26 -70 57 -123 127 -267 133 -272
3 -3 17 -27 31 -54 64 -127 281 -436 387 -551 57 -62 58 -63 37 -87 l-19 -22
25 15 c24 16 26 14 115 -75 172 -172 388 -352 407 -339 6 3 8 2 5 -3 -6 -10
114 -97 247 -177 98 -60 286 -158 286 -150 0 3 8 -1 18 -9 9 -8 53 -29 97 -48
44 -18 94 -39 112 -46 51 -23 332 -114 361 -118 15 -2 34 -6 42 -9 8 -4 26 -9
40 -11 14 -3 56 -12 93 -21 38 -8 83 -17 100 -20 101 -17 242 -35 312 -41 44
-3 88 -7 98 -7 10 -1 21 -8 26 -15 7 -11 9 -11 14 1 3 9 16 13 33 11 16 -1 35
3 43 9 12 9 13 9 8 0 -6 -10 28 -11 150 -8 87 3 178 7 203 9 25 3 70 8 100 11
30 3 80 10 110 15 30 5 73 12 95 16 22 3 69 12 105 20 36 8 76 17 90 20 14 2
33 7 42 10 10 3 30 8 45 10 40 7 317 101 388 131 33 14 69 29 80 34 76 31 241
112 243 120 2 5 9 9 16 9 28 0 299 171 441 279 66 50 70 54 165 134 62 53 66
55 84 39 18 -16 18 -16 7 6 -11 21 -5 30 91 125 57 57 126 130 153 162 28 33
56 66 63 73 34 37 147 189 210 282 128 191 237 399 323 614 22 56 44 110 49
121 41 91 131 446 154 600 2 17 8 50 12 75 9 58 11 84 19 200 7 101 9 105 40
113 18 4 18 5 -2 6 -13 0 -23 4 -23 9 0 4 -3 95 -5 202 -3 107 -7 213 -9 236
-6 70 -17 158 -22 179 -2 11 -6 36 -8 55 -8 65 -46 246 -70 335 -9 33 -19 69
-21 80 -8 35 -108 320 -114 325 -3 3 -7 10 -8 15 -1 6 -11 31 -22 58 -11 26
-21 49 -21 52 -2 13 -144 282 -175 330 -19 30 -35 57 -35 60 0 5 -131 198
-139 205 -3 3 -18 23 -33 45 -15 22 -38 52 -50 67 -13 14 -39 46 -58 69 -19
24 -49 59 -67 78 -24 27 -29 38 -21 48 8 10 7 12 -5 8 -10 -4 -47 26 -114 92
-55 54 -121 117 -149 140 -27 23 -62 54 -79 69 -94 81 -409 304 -431 304 -3 0
-18 8 -32 19 -43 29 -208 115 -312 161 -52 23 -108 48 -125 55 -37 17 -290
103 -319 110 -12 2 -48 12 -81 21 -33 9 -64 17 -70 19 -5 1 -21 5 -35 8 -14 4
-36 9 -50 11 -14 2 -36 7 -50 10 -14 3 -42 8 -64 11 -21 3 -41 7 -45 9 -3 2
-34 7 -68 11 -35 4 -75 9 -90 11 -16 2 -66 6 -113 10 -116 9 -113 8 -120 30
-7 18 -8 18 -11 1z"/>
</g>
</svg>
