<?xml version="1.0" standalone="no"?>
<!DOCTYPE svg PUBLIC "-//W3C//DTD SVG 20010904//EN"
 "http://www.w3.org/TR/2001/REC-SVG-20010904/DTD/svg10.dtd">
<svg version="1.0" xmlns="http://www.w3.org/2000/svg"
 width="700.000000pt" height="700.000000pt" viewBox="0 0 700.000000 700.000000"
 preserveAspectRatio="xMidYMid meet">
<metadata>
Created by potrace 1.14, written by Peter Selinger 2001-2017
</metadata>
<g transform="translate(0.000000,700.000000) scale(0.100000,-0.100000)"
fill="#000000" stroke="none">
<path d="M0 3500 l0 -3500 3500 0 3500 0 0 3500 0 3500 -3500 0 -3500 0 0
-3500z m4545 2631 c674 -60 1136 -224 1414 -502 230 -229 331 -512 318 -888
-6 -188 -34 -308 -102 -450 -148 -306 -426 -510 -875 -642 l-75 -22 45 -10
c252 -51 557 -181 755 -322 265 -189 421 -399 491 -660 36 -136 45 -400 19
-557 -19 -120 -69 -277 -119 -375 -217 -428 -713 -717 -1398 -812 -247 -35
-504 -41 -1810 -41 l-1258 0 0 79 0 80 43 5 c23 3 86 8 139 11 117 6 267 43
351 85 l62 31 243 -1 242 -1 0 386 0 385 -150 0 -150 0 0 165 0 165 -55 0 -55
0 0 159 0 160 53 3 52 3 3 228 2 227 105 0 105 0 0 380 0 380 -105 0 -105 0 0
350 0 350 -230 0 c-126 0 -233 1 -237 2 -5 1 -28 -35 -53 -81 -25 -46 -49 -83
-54 -83 -10 0 -168 223 -162 230 3 2 55 15 118 28 62 14 121 27 131 30 15 5
17 23 17 194 l0 190 233 2 232 3 3 240 c4 376 -14 465 -121 568 -112 109 -329
177 -569 177 l-88 0 0 80 0 80 383 3 c761 7 2080 -1 2212 -12z m-2803 -512
c106 -62 224 -130 261 -151 38 -22 67 -42 64 -44 -4 -5 -481 -74 -508 -74 -18
0 -19 11 -19 190 0 105 2 190 4 190 3 0 91 -50 198 -111z m-606 -754 c166
-154 201 -191 187 -198 -28 -12 -638 -166 -642 -162 -7 7 233 555 241 553 5
-2 101 -89 214 -193z m917 -813 l157 -157 -160 -160 -160 -160 -160 160 -160
160 157 157 c87 87 160 158 163 158 3 0 76 -71 163 -158z m-1013 -323 c44
-166 78 -304 77 -305 -5 -5 -486 371 -488 380 -1 9 323 237 329 231 2 -1 39
-139 82 -306z m1275 -755 l-6 -62 -137 80 c-75 44 -140 82 -144 86 -4 4 59 48
140 97 l147 90 3 -115 c2 -63 0 -143 -3 -176z m-1553 -39 c210 -111 296 -161
290 -169 -12 -22 -226 -266 -232 -266 -3 0 -77 118 -165 261 -211 345 -211
344 -200 337 6 -3 144 -76 307 -163z m999 -667 c9 -17 1 -18 -119 -18 -131 0
-192 6 -192 20 0 4 23 56 52 116 l51 108 99 -105 c54 -57 103 -112 109 -121z
m-686 -448 l-160 -160 -160 160 -160 160 160 160 160 160 160 -160 160 -160
-160 -160z m1241 314 c-3 -8 -69 -189 -147 -402 -78 -213 -144 -390 -148 -394
-7 -8 -531 369 -531 382 0 7 805 427 824 429 4 1 5 -6 2 -15z"/>
<path d="M3737 5810 c-82 -15 -150 -54 -178 -102 l-24 -43 -3 -943 -2 -944
467 5 c481 5 519 8 698 52 366 90 639 330 725 635 49 177 49 423 1 615 -41
160 -159 359 -271 457 -125 109 -385 205 -688 254 -112 18 -646 28 -725 14z"/>
<path d="M2850 5455 l0 -155 160 0 160 0 0 155 0 155 -160 0 -160 0 0 -155z"/>
<path d="M3530 2498 c0 -605 4 -987 10 -1028 14 -84 61 -181 108 -220 41 -33
122 -63 227 -82 110 -20 561 -17 705 5 734 113 1050 455 1050 1138 0 156 -16
279 -51 382 -155 459 -601 705 -1374 757 -82 5 -268 10 -412 10 l-263 0 0
-962z"/>
</g>
</svg>
