<svg xmlns="http://www.w3.org/2000/svg" width="32" height="32"><g transform="translate(-.356 -326.228) scale(.34074)"><circle r="45.457" cy="1004.362" cx="48" style="color:#000;clip-rule:nonzero;display:inline;overflow:visible;visibility:visible;opacity:.95;isolation:auto;mix-blend-mode:normal;color-interpolation:sRGB;color-interpolation-filters:linearRGB;solid-color:#000;solid-opacity:1;fill:#83a9d3;fill-opacity:1;fill-rule:nonzero;stroke:none;stroke-width:2.53261065px;stroke-linecap:butt;stroke-linejoin:miter;stroke-miterlimit:4;stroke-dasharray:none;stroke-dashoffset:0;stroke-opacity:1;color-rendering:auto;image-rendering:auto;shape-rendering:auto;text-rendering:auto;enable-background:accumulate"/><path style="fill:#fff;fill-opacity:1" d="m1.833 1002.5 7.308-.459 7.721.827 7.308-2.85 6.94.369-3.355-3.034-6.435-1.287-5.377-4.917-5.7-3.31 6.16 2.023 6.204 3.309h6.94l3.585 1.195-2.941-6.526-5.837-4.459-3.493-6.986-4.183-6.02 5.47 4.917 4.871 6.16 7.124 3.032 4.596 5.01-.184-4.734-3.493-5.331-.46-6.848-1.562-6.618 3.125 5.974 1.93 6.665 4.918 4.78 1.563 3.814 2.666-6.848-1.195-7.124 2.665-7.721 1.38-7.308.183 7.308-.827 7.721 2.895 7.308-.46 7.032 3.126-3.447 1.47-6.25 4.643-5.47 3.4-5.515-2.022 6.158-3.17 6.205-.185 6.848-.46 1.747-.827 2.022 6.665-3.125 4.136-5.746 7.308-3.492 5.974-4.275-4.871 5.561-6.021 4.596-3.217 7.4-5.24 4.504c1.51.054 3.154-.032 4.504-.184l5.837-3.493 6.986-.643 6.48-1.287-6.02 2.85-6.802 2.206-4.734 4.642-3.401 2.114 6.572 2.114 7.262-1.103 7.583 2.574 7.308 1.378-7.308.506-7.767-.965-7.308 2.895-6.802-.367 3.217 3.033 6.205 1.287 5.515 4.918 5.561 3.309-5.928-2.023-6.251-3.263h-5.745l-5.148-1.103 3.218 6.389 5.883 4.228 3.63 7.308 3.953 5.974-5.331-4.871-4.918-6.205-7.262-3.125-4.642-5.056.184 4.412 3.585 5.286c.758 2.423.414 5.028.414 7.537l1.562 6.205-2.895-5.745-1.93-6.618-5.056-5.102-1.839-3.585-2.252 6.94 1.103 7.262-2.573 7.491-1.38 7.124-.183-7.308.643-7.767-2.665-7.307.092-6.71-2.942 3.4-1.333 6.205-4.687 5.515-3.493 5.561 1.93-6.204 3.309-5.975v-6.02l1.838-5.056-3.309 1.562-3.585 1.747c-1.502 1.821-2.838 3.76-4.182 5.699l-7.262 3.63-6.296 4.137 5.101-5.515c2.022-1.509 3.994-3.082 5.975-4.642l3.125-7.262 5.286-4.458h-4.412l-7.032 3.815-5.837.184-6.343 1.562 5.975-2.895 6.573-2.206 4.871-4.872 3.631-1.563-6.664-2.436-7.308 1.103-7.537-2.665zm7.308.185c2.966.86 5.843 2.039 8.87 2.665l6.343-2.206 6.664 2.206.735 4.183-4.458 1.379-4.872 4.595-6.664 1.563 6.848-.919 5.515-4.412 4.458-.184 2.482 3.769-5.975 3.998-3.355 7.262-6.434 3.998 7.078-3.539 3.998-6.894 6.159-3.079 3.63 2.436-2.71 5.791.183 5.101-3.677 5.7 4.412-5.516.368-5.56 2.987-4.873 4.596 1.38-1.286 6.847 2.85 7.262-1.564 7.583 2.39-7.583-1.93-7.491 2.206-6.619 3.999-.735 1.287 4.044 4.871 5.102 1.287 6.618-.643-6.802-4.596-5.837v-3.953l3.493-2.39 4.274 5.7 6.986 3.309 4.274 6.48-3.539-7.124-6.894-3.768-3.08-6.389 2.437-3.4 5.147 2.205 5.745.091 5.516 3.723-5.332-4.458-6.756-.92-3.677-2.849.92-4.182 7.077 1.333 7.308-2.896 7.491 1.563-8.594-2.39-6.48 2.206-6.619-2.206-.367-4.228 3.952-1.103 4.826-5.102 6.894-1.103-7.078.643-5.285 4.459-4.229.46-2.711-4 6.02-4.228 3.034-7.124 6.48-4.136-6.848 3.493-3.952 7.124-6.297 3.033-3.493-2.85 2.206-3.492V978.6l3.815-5.837-4.458 5.377-.644 7.124-2.665 3.125-4.458-1.011 1.149-6.848-2.896-7.308 1.747-7.445-2.39 7.445 1.93 7.584-2.206 6.572-4.136.735-1.104-4.274-4.917-4.872-1.38-6.848.736 7.124 4.09 5.423.46 4.55-3.722 2.023-4.137-5.791-6.94-3.172-4.136-6.342 3.493 6.802 6.848 3.999 2.941 6.158-2.482 3.54-3.493-2.161c-2.51-.22-4.747.178-7.123 0l-5.745-3.769 5.56 4.412 7.308.92 3.034 2.895-1.103 4.137-7.032-1.287-7.308 2.85-7.537-1.747zm24.542-3.126 3.585-2.573 7.032 2.573 1.747 4.045-3.217-3.769c-1.552-.962-3.45-1.243-5.194-1.746zm2.482 1.38 3.723-.644 3.31 2.206-2.39-.46-1.334 1.747-1.562-1.563.46-.644zm6.573 13.741 3.768-.643 1.195-.644.736.46.46-.46 1.01.644 3.907.643zm2.206.184 2.022.643h2.85l1.976-.643-2.16 1.379h-2.206zm0-4.688.919-1.654-.276 1.654.827 1.195zm1.838 1.195v-1.103l1.011 1.287zm2.022.184.828-1.287.183 1.103zm.368-6.02 2.436-6.62 7.537-1.93 3.08 2.574-3.264-1.287-6.158 1.287-3.355 5.791 1.976 4.183-.92 1.562.277-1.562zm2.895-3.034 3.31-2.482 3.768.92-2.206.459.184.643-1.287 1.563-1.287-1.839z"/></g></svg>