<?xml version="1.0" encoding="utf-8"?>
<svg xmlns="http://www.w3.org/2000/svg" xmlns:xlink="http://www.w3.org/1999/xlink">

  <!--default-->
  <symbol viewBox="0 0 32 16" id="ico-menu">
    <path fill-rule="evenodd" clip-rule="evenodd" d="M0 1C0 0.447715 0.447715 0 1 0H31C31.5523 0 32 0.447715 32 1C32 1.55228 31.5523 2 31 2H1C0.447715 2 0 1.55228 0 1ZM0 8C0 7.44772 0.447715 7 1 7H31C31.5523 7 32 7.44772 32 8C32 8.55229 31.5523 9 31 9H1C0.447715 9 0 8.55229 0 8ZM1 14C0.447715 14 0 14.4477 0 15C0 15.5523 0.447715 16 1 16H15C15.5523 16 16 15.5523 16 15C16 14.4477 15.5523 14 15 14H1Z"/>
  </symbol>
  <symbol viewBox="0 0 20 20" id="ico-email">
    <path fill-rule="evenodd" clip-rule="evenodd" d="M0 20H2H18H20V18V7L10 0L0 7V18V20ZM16.0855 18L10 13.2669L3.91454 18H16.0855ZM18 16.9554V11.8685L14.4783 14.2163L18 16.9554ZM12.8142 12.922L18 9.46482V8.04131L10 2.44131L2 8.04131V9.46482L7.18576 12.922L9.38606 11.2106L10 10.7331L10.6139 11.2106L12.8142 12.922ZM5.52166 14.2163L2 16.9554V11.8685L5.52166 14.2163Z"/>
  </symbol>
  <symbol viewBox="0 0 32 24" id="ico-arrow-left">
    <path fill-rule="evenodd" clip-rule="evenodd" d="M2.26023 11.3271L12.2602 0.327148L13.7401 1.67249L5.26061 10.9999H32V12.9999H5.26082L13.7401 22.3273L12.2602 23.6726L2.26023 12.6725L1.64871 11.9998L2.26023 11.3271Z"/>
  </symbol>
  <symbol viewBox="0 0 32 24" id="ico-arrow">
    <path fill-rule="evenodd" clip-rule="evenodd" d="M29.74 11.327l-10-11-1.48 1.346L26.74 11H0v2h26.74l-8.48 9.327 1.48 1.346 10-11 .61-.673-.611-.673z"/>
  </symbol>
  <symbol viewBox="0 0 10 10" id="ico-delete">
    <path fill-rule="evenodd" clip-rule="evenodd" d="M0.978553 0.271447C0.783291 0.0761845 0.466709 0.0761845 0.271447 0.271447C0.0761845 0.466709 0.0761845 0.783291 0.271447 0.978553L4.29296 5.00007L0.271524 9.0215C0.0762612 9.21676 0.0762611 9.53335 0.271524 9.72861C0.466786 9.92387 0.783369 9.92387 0.978631 9.72861L5.00007 5.70717L9.02145 9.72855C9.21671 9.92382 9.53329 9.92382 9.72855 9.72855C9.92382 9.53329 9.92382 9.21671 9.72855 9.02145L5.70717 5.00007L9.72863 0.978606C9.92389 0.783344 9.92389 0.466761 9.72863 0.271499C9.53337 0.0762373 9.21679 0.0762373 9.02152 0.271499L5.00007 4.29296L0.978553 0.271447Z" />
  </symbol>
  <symbol viewBox="0 0 24 24" id="ico-close">
    <path fill-rule="evenodd" clip-rule="evenodd" d="M1.707.293A1 1 0 0 0 .293 1.707L10.586 12 .293 22.293a1 1 0 1 0 1.414 1.414L12 13.414l10.293 10.293a1 1 0 0 0 1.414-1.414L13.414 12 23.707 1.707A1 1 0 0 0 22.293.293L12 10.586 1.707.293z"/>
  </symbol>
  <symbol viewBox="0 0 16 16" id="ico-close-small">
    <path fill-rule="evenodd" clip-rule="evenodd" d="M1.70711 0.292954C1.31658 -0.0975701 0.683417 -0.0975701 0.292893 0.292954C-0.0976311 0.683479 -0.0976311 1.31664 0.292893 1.70717L6.58586 8.00014L0.292971 14.293C-0.0975538 14.6836 -0.0975539 15.3167 0.292971 15.7072C0.683495 16.0978 1.31666 16.0978 1.70718 15.7072L8.00008 9.41435L14.2929 15.7072C14.6834 16.0977 15.3166 16.0977 15.7071 15.7072C16.0976 15.3166 16.0976 14.6835 15.7071 14.293L9.41429 8.00014L15.7072 1.70724C16.0977 1.31672 16.0977 0.683554 15.7072 0.29303C15.3167 -0.0974943 14.6835 -0.0974943 14.293 0.29303L8.00008 6.58592L1.70711 0.292954Z"/>
  </symbol>
  <symbol viewBox="0 0 80 60" id="ico-quote">
    <path d="M34 0V24.6367C34 43.65 21.293 56.5367 3.40579 60L0.017025 52.83C8.29991 49.7733 13.6232 40.7033 13.6232 33.3333H0V0H34Z"/>
    <path d="M80 0V24.6367C80 43.65 67.293 56.5367 49.4058 60L46.017 52.83C54.2999 49.7733 59.6232 40.7033 59.6232 33.3333H46V0H80Z"/>
  </symbol>
  <symbol viewBox="0 0 48 36" id="ico-quote-small">
    <path d="M20.4004 0V14.782C20.4004 26.19 12.7762 33.922 2.04387 36L0.0106068 31.698C4.98033 29.864 8.17429 24.422 8.17429 20H0.000391006V0H20.4004Z"/>
    <path d="M48 0V14.782C48 26.19 40.3758 33.922 29.6435 36L27.6102 31.698C32.5799 29.864 35.7739 24.422 35.7739 20H27.6V0H48Z"/>
  </symbol>
  <symbol viewBox="0 0 15 17" id="ico-tag">
    <path d="M11.4 9.824L11.712 7.832H14.112L14.544 5.048H12.144L12.792 0.991999H9.6L8.952 5.048H6.912L7.584 0.991999H4.416L3.768 5.048H1.344L0.912 7.832H3.336L3 9.824H0.576L0.144 12.632H2.592L1.872 17H5.04L5.736 12.632H7.776L7.056 17H10.272L10.968 12.632H13.416L13.824 9.824H11.4ZM8.208 9.824H6.168L6.48 7.832H8.52L8.208 9.824Z"/>
  </symbol>
  <symbol viewBox="0 0 32 32" id="ico-upload">
    <line x1="4" y1="31" x2="28" y2="31" stroke-width="2"/>
    <rect x="1" y="1" width="30" height="22" stroke-width="2"/>
    <path d="M2 17L8 13L13 15L22 9L30 15" stroke-width="2"/>
  </symbol>

  <!--Photo album-->
  <symbol viewBox="0 0 32 30" id="ico-album-prev">
    <path d="M0.585785 13.5858C-0.195263 14.3668 -0.195263 15.6332 0.585785 16.4142L13.3137 29.1421C14.0948 29.9232 15.3611 29.9232 16.1421 29.1421C16.9232 28.3611 16.9232 27.0948 16.1421 26.3137L4.82842 15L16.1421 3.68629C16.9232 2.90524 16.9232 1.63891 16.1421 0.857863C15.3611 0.0768142 14.0948 0.076814 13.3137 0.857863L0.585785 13.5858ZM32 13L2 13L2 17L32 17L32 13Z" />
  </symbol>
  <symbol viewBox="0 0 32 30" id="ico-album-next">
    <path d="M31.4142 16.4142C32.1953 15.6332 32.1953 14.3668 31.4142 13.5858L18.6863 0.857864C17.9052 0.0768156 16.6389 0.0768156 15.8579 0.857864C15.0768 1.63891 15.0768 2.90524 15.8579 3.68629L27.1716 15L15.8579 26.3137C15.0768 27.0948 15.0768 28.3611 15.8579 29.1421C16.6389 29.9232 17.9052 29.9232 18.6863 29.1421L31.4142 16.4142ZM0 17H30V13H0V17Z" />
  </symbol>

  <!--player-->
  <symbol viewBox="0 0 14 20" id="ico-play">
    <path d="M0 18.057V1.943a1 1 0 0 1 1.581-.814l11.28 8.057a1 1 0 0 1 0 1.628L1.58 18.87A1 1 0 0 1 0 18.057z"/>
  </symbol>
  <symbol viewBox="0 0 14 16" id="ico-pause">
    <path d="M1 0C0.447715 0 0 0.447715 0 1V15C0 15.5523 0.447715 16 1 16H4C4.55228 16 5 15.5523 5 15V1C5 0.447715 4.55228 0 4 0H1ZM10 0C9.44771 0 9 0.447715 9 1V15C9 15.5523 9.44771 16 10 16H13C13.5523 16 14 15.5523 14 15V1C14 0.447715 13.5523 0 13 0H10Z"/>
  </symbol>
  <symbol viewBox="0 0 24 16" id="ico-next">
    <path fill-rule="evenodd" clip-rule="evenodd" d="M0 0l11 8-11 8V0zm22 8l-11 8V0l11 8zm0 0V0h2v16h-2V8z"/>
  </symbol>
  <symbol viewBox="0 0 24 16" id="ico-prev">
    <path fill-rule="evenodd" clip-rule="evenodd" d="M2 8v8H0V0h2v8zm11 0V0L2 8l11 8V8zm0 0l11-8v16L13 8z"/>
  </symbol>
  <symbol viewBox="0 0 18 16" id="ico-volume">
    <path fill-rule="evenodd" clip-rule="evenodd" d="M16 8a6.002 6.002 0 0 1-5 5.917v2.021A8.001 8.001 0 0 0 11 .062v2.021c2.838.476 5 2.944 5 5.917zm-2 0a4.002 4.002 0 0 1-3 3.874V4.126c1.725.444 3 2.01 3 3.874zm-7 5.8L4 12H0V5h4l3-2.4L9 1v14l-2-1.2zM4 10H2V7h2.702l.547-.438L7 5.162v6.306l-1.971-1.183L4.554 10H4z"/>
  </symbol>
  <symbol viewBox="0 0 16 10" id="ico-list">
    <path fill-rule="evenodd" clip-rule="evenodd" d="M16 2H0V0h16v2zm0 4H0V4h16v2zM0 10h8V8H0v2z"/>
  </symbol>
  <symbol viewBox="0 0 9 14" fill="none" id="ico-nav-prev">
    <path d="M8 1L2 7L8 13" stroke-width="2" stroke-linecap="round"/>
  </symbol>
  <symbol viewBox="0 0 9 14" fill="none" id="ico-nav-next">
    <path d="M1 1L7 7L1 13" stroke-width="2" stroke-linecap="round"/>
  </symbol>
  <symbol viewBox="0 0 14 12" id="ico-eq">
    <path fill-rule="evenodd" clip-rule="evenodd" d="M6 0v12h2V0H6zM0 12V5h2v7H0zm3 0V7h2v5H3zm6 0V5h2v7H9zm3-3v3h2V9h-2z"/>
  </symbol>
  <symbol viewBox="0 0 24 24" id="ico-eq-mute">
    <path fill-rule="evenodd" clip-rule="evenodd" d="M5 15V9h2v6H5zm3 0V9h2v6H8zm3-6v6h2V9h-2zm3 6V9h2v6h-2zm3-6v6h2V9h-2zM5.586 17L.293 22.293l1.414 1.414L8.414 17H5.586zm10-10h2.828l5.293-5.293L22.293.293 15.586 7z"/>
  </symbol>
  <symbol viewBox="0 0 18 14" id="ico-mute">
    <path fill-rule="evenodd" clip-rule="evenodd" d="M4 11L7 12.8L9 14V11.6676V2.33238V0L7 1.2L4 3H2H0V5V9V11H2H4ZM2 9H4H4.55397L5.02899 9.28501L7 10.4676V3.53238L5.02899 4.71499L4.55397 5H4H2V9ZM12.5858 7L10.2929 4.70711L11.7071 3.29289L14 5.58579L16.2929 3.29289L17.7071 4.70711L15.4142 7L17.7071 9.29289L16.2929 10.7071L14 8.41421L11.7071 10.7071L10.2929 9.29289L12.5858 7Z"/>
  </symbol>

  <!--gallery-->
  <symbol viewBox="0 0 31 24" id="ico-arrow-left">
    <path fill-rule="evenodd" clip-rule="evenodd" d="M1.26023 11.3272L11.2602 0.327209L12.7401 1.67256L4.26061 11H31V13H4.26082L12.7401 22.3273L11.2602 23.6727L1.26023 12.6726L0.648714 11.9999L1.26023 11.3272Z"/>
  </symbol>
  <symbol viewBox="0 0 31 24" id="ico-arrow-right">
    <path fill-rule="evenodd" clip-rule="evenodd" d="M29.7398 11.3272L19.7398 0.327209L18.2599 1.67256L26.7394 11H0V13H26.7392L18.2599 22.3273L19.7398 23.6727L29.7398 12.6726L30.3513 11.9999L29.7398 11.3272Z"/>
  </symbol>

  <!--social-->
  <symbol viewBox="0 0 14 22" id="ico-social-ok">
    <path fill-rule="evenodd" clip-rule="evenodd" d="M12.526 5.33418C12.526 8.27578 10.0477 10.6667 7.00071 10.6667C3.95374 10.6667 1.47546 8.27411 1.47546 5.33418C1.47546 2.39257 3.95374 0 7.00071 0C10.0477 0 12.526 2.39257 12.526 5.33418ZM9.28768 5.33418C9.28768 4.1169 8.26159 3.1263 7.00071 3.1263C5.73984 3.1263 4.71374 4.1169 4.71374 5.33418C4.71374 6.55145 5.73984 7.54206 7.00071 7.54206C8.26159 7.54206 9.28768 6.55145 9.28768 5.33418ZM12.4442 13.7342C11.446 14.3403 10.3607 14.7702 9.23551 15.017L12.3242 17.9989C12.9573 18.6084 12.9573 19.5973 12.3242 20.2084C11.6929 20.8179 10.6686 20.8179 10.0373 20.2084L7.00071 17.2786L3.96591 20.2084C3.65113 20.5123 3.23721 20.6651 2.82156 20.6651C2.40764 20.6651 1.99373 20.514 1.6772 20.2084C1.0459 19.5973 1.0459 18.6084 1.6772 17.9989L4.76418 15.017C3.64069 14.7702 2.55547 14.3403 1.5572 13.7342C0.800677 13.2742 0.57285 12.3104 1.05111 11.5801C1.5259 10.848 2.5259 10.6281 3.28243 11.0881C5.54331 12.4615 8.45811 12.4615 10.7207 11.0881C11.4773 10.6281 12.4755 10.848 12.9521 11.5801C13.4286 12.3104 13.2007 13.2742 12.4442 13.7342Z"/>
  </symbol>
  <symbol viewBox="0 0 22 22" id="ico-social-fb">
    <path d="M22 11c0-6.075-4.925-11-11-11S0 4.925 0 11c0 5.49 4.023 10.041 9.281 10.866V14.18H6.488V11h2.793V8.577c0-2.757 1.643-4.28 4.155-4.28 1.204 0 2.462.215 2.462.215v2.707h-1.387c-1.366 0-1.792.848-1.792 1.718V11h3.05l-.487 3.18h-2.563v7.686C17.977 21.041 22 16.49 22 11z"/>
  </symbol>
  <symbol viewBox="0 0 22 13" id="ico-social-vk">
    <path d="M21 12.508l-2.938.037s-.628.126-1.469-.452c-1.105-.753-2.134-2.712-2.95-2.46-.816.263-.791 2.02-.791 2.02s0 .377-.176.578c-.201.226-.603.277-.603.277h-1.306s-2.9.175-5.461-2.486C2.519 7.122.058 1.358.058 1.358S-.08.982.07.794C.246.593.71.58.71.58L3.85.555s.3.05.502.2c.188.139.289.378.289.378s.502 1.28 1.18 2.448c1.318 2.272 1.92 2.762 2.373 2.523.653-.351.452-3.214.452-3.214s.012-1.03-.327-1.494c-.263-.364-.753-.464-.98-.49-.175-.025.114-.439.49-.615C8.396.015 9.4-.01 10.58.003c.917.012 1.18.062 1.544.15 1.08.264.716 1.268.716 3.691 0 .779-.138 1.871.427 2.235.239.151.829.025 2.298-2.473.703-1.18 1.218-2.586 1.218-2.586s.113-.252.288-.352c.176-.113.427-.075.427-.075l3.315-.025s.992-.126 1.155.326c.163.477-.377 1.57-1.72 3.377-2.223 2.963-2.461 2.687-.628 4.395 1.758 1.632 2.122 2.435 2.185 2.523.728 1.218-.804 1.319-.804 1.319z"/>
  </symbol>
  <symbol viewBox="0 0 18 15" id="ico-social-tw">
    <path d="M15.877 2.314A7.412 7.412 0 0 0 18 1.74a7.163 7.163 0 0 1-1.847 1.907c.012.155.012.311.012.48 0 4.88-3.717 10.504-10.505 10.504-2.086 0-4.03-.611-5.66-1.655a7.2 7.2 0 0 0 .887.048 7.364 7.364 0 0 0 4.581-1.583 3.708 3.708 0 0 1-3.441-2.566c.228.048.455.06.695.06.336 0 .66-.048.972-.132a3.68 3.68 0 0 1-2.962-3.61v-.047A3.618 3.618 0 0 0 2.41 5.6 3.668 3.668 0 0 1 .767 2.53c0-.671.18-1.307.504-1.858a10.511 10.511 0 0 0 7.603 3.861A3.695 3.695 0 0 1 12.472 0c1.055 0 2.014.444 2.698 1.163a7.181 7.181 0 0 0 2.338-.9 3.703 3.703 0 0 1-1.63 2.051z"/>
  </symbol>
  <symbol viewBox="0 0 18 18" id="ico-social-in">
    <path fill-rule="evenodd" clip-rule="evenodd" d="M5 0a5 5 0 0 0-5 5v8a5 5 0 0 0 5 5h8a5 5 0 0 0 5-5V5a5 5 0 0 0-5-5H5zm10 4.304c0 .652-.522 1.044-1.044 1.044s-1.043-.522-1.043-1.044c0-.652.521-1.043 1.043-1.043.522 0 1.044.391 1.044 1.043zM9 12.13c-1.696 0-3-1.304-3-3s1.304-3 3-3c1.695 0 3 1.304 3 3s-1.305 3-3 3zm0-7.696A4.676 4.676 0 0 0 4.303 9.13a4.676 4.676 0 0 0 4.695 4.696 4.676 4.676 0 0 0 4.696-4.696 4.676 4.676 0 0 0-4.696-4.696z"/>
  </symbol>
  <symbol viewBox="0 0 20 20" id="ico-social-mail">
    <path fill-rule="evenodd" clip-rule="evenodd" d="M13.008 9.972c0 1.654-1.35 3-3.008 3a3.007 3.007 0 0 1-3.008-3c0-1.654 1.35-3 3.008-3a3.007 3.007 0 0 1 3.008 3zM10 0C4.486 0 0 4.473 0 9.972c0 5.498 4.486 9.971 10 9.971 2.02 0 3.968-.6 5.633-1.734l.029-.02-1.348-1.562-.023.015A7.932 7.932 0 0 1 10 17.9c-4.384 0-7.95-3.556-7.95-7.927C2.05 5.6 5.616 2.044 10 2.044c4.383 0 7.95 3.557 7.95 7.928 0 .566-.063 1.14-.188 1.704-.251 1.028-.973 1.344-1.516 1.302-.545-.044-1.184-.432-1.188-1.38V9.972c0-2.782-2.27-5.044-5.058-5.044-2.79 0-5.058 2.262-5.058 5.044 0 2.78 2.269 5.044 5.058 5.044a5.025 5.025 0 0 0 3.584-1.49 3.252 3.252 0 0 0 2.767 1.5c.727 0 1.448-.242 2.03-.682.599-.454 1.046-1.11 1.293-1.899.04-.127.113-.419.113-.42l.002-.01c.146-.634.21-1.264.21-2.043C20 4.473 15.515 0 10 0z"/>
  </symbol>
  <symbol viewBox="0 0 16 20" id="ico-social-all">
    <path d="M9.26752 4.83914L5.66797 7.54004L6.86837 9.13984L10.4679 6.43894L9.26752 4.83914Z"/>
    <path d="M4 14C1.8 14 0 12.2 0 10C0 7.8 1.8 6 4 6C6.2 6 8 7.8 8 10C8 12.2 6.2 14 4 14ZM4 8C2.9 8 2 8.9 2 10C2 11.1 2.9 12 4 12C5.1 12 6 11.1 6 10C6 8.9 5.1 8 4 8Z"/>
    <path d="M12 8C9.8 8 8 6.2 8 4C8 1.8 9.8 0 12 0C14.2 0 16 1.8 16 4C16 6.2 14.2 8 12 8ZM12 2C10.9 2 10 2.9 10 4C10 5.1 10.9 6 12 6C13.1 6 14 5.1 14 4C14 2.9 13.1 2 12 2Z"/>
    <path d="M12 20C9.8 20 8 18.2 8 16C8 13.8 9.8 12 12 12C14.2 12 16 13.8 16 16C16 18.2 14.2 20 12 20ZM12 14C10.9 14 10 14.9 10 16C10 17.1 10.9 18 12 18C13.1 18 14 17.1 14 16C14 14.9 13.1 14 12 14Z"/>
    <path d="M6.83752 10.8986L5.63672 12.498L8.83552 14.8996L10.0363 13.3002L6.83752 10.8986Z"/>
  </symbol>

  <!---->
  <symbol viewBox="0 0 18 18" id="ico-fail">
    <path fill-rule="evenodd" clip-rule="evenodd" d="M7.5859 8.99998L0.292969 16.2929L1.70718 17.7071L9.00011 10.4142L16.293 17.7071L17.7073 16.2929L10.4143 8.99998L17.7072 1.70712L16.293 0.292908L9.00011 7.58576L1.70726 0.292922L0.293044 1.70714L7.5859 8.99998Z"/>
  </symbol>
  <symbol viewBox="0 0 16 16" id="ico-search">
    <path  fill-rule="evenodd" clip-rule="evenodd" d="M6.03031 12.046C7.44141 12.051 8.8081 11.553 9.88529 10.6415L14.5652 15.3225C14.6152 15.3739 14.6752 15.4147 14.7414 15.4423C14.8076 15.4698 14.8785 15.4837 14.9502 15.483C15.0227 15.4837 15.0945 15.4699 15.1615 15.4424C15.2285 15.4148 15.2893 15.374 15.3403 15.3225C15.3913 15.2717 15.4319 15.2113 15.4595 15.1447C15.4872 15.0782 15.5015 15.0068 15.5015 14.9347C15.5015 14.8627 15.4872 14.7913 15.4595 14.7248C15.4319 14.6583 15.3913 14.5978 15.3403 14.547L10.6603 9.8665C11.5343 8.81198 12.0228 7.49104 12.0452 6.12158C12.0676 4.75211 11.6227 3.4159 10.7836 2.33334C9.94457 1.25077 8.76162 0.486507 7.42985 0.166599C6.09808 -0.153308 4.69702 -0.00975186 3.4578 0.57359C2.21859 1.15693 1.21526 2.14522 0.6132 3.37545C0.0111353 4.60567 -0.153763 6.00437 0.145915 7.34083C0.445592 8.6773 1.19192 9.8717 2.26164 10.7271C3.33136 11.5824 4.66066 12.0476 6.03031 12.046ZM6.03031 1.0795C7.00636 1.0795 7.96046 1.36893 8.77201 1.9112C9.58357 2.45346 10.2161 3.2242 10.5896 4.12596C10.9632 5.02771 11.0608 6.01998 10.8704 6.97728C10.68 7.93457 10.21 8.8139 9.51982 9.50407C8.82964 10.1942 7.95038 10.6643 6.99308 10.8547C6.03579 11.0451 5.04352 10.9474 4.14176 10.5738C3.24001 10.2003 2.46931 9.56779 1.92704 8.75624C1.38478 7.94468 1.09526 6.99055 1.09526 6.0145C1.09631 4.70598 1.61665 3.45136 2.54191 2.5261C3.46717 1.60084 4.7218 1.08056 6.03031 1.0795Z"/>
  </symbol>
</svg>