<?xml version="1.0" encoding="utf-8"?>
<svg xmlns="http://www.w3.org/2000/svg" xmlns:xlink="http://www.w3.org/1999/xlink">
  
  <symbol viewBox="0 0 512 512" id="ico-practice">
    <path d="M465.668 0H100.833C79.49 0 62.124 17.365 62.124 38.708v76.201c0 4.142 3.357 7.5 7.5 7.5s7.5-3.358 7.5-7.5V38.708C77.124 25.636 87.76 15 100.833 15H439.24c-7.336 12.253-3.309-3.881-4.368 427.063 0 13.146-10.694 23.84-23.84 23.84H302.328V449.84h77.981a7.5 7.5 0 0 0 7.5-7.5c0-12.958 10.542-23.5 23.5-23.5a7.5 7.5 0 0 0 7.5-7.5V265.455c0-4.142-3.357-7.5-7.5-7.5s-7.5 3.358-7.5 7.5v139.119c-15.225 3.018-27.249 15.042-30.267 30.267h-71.215v-29.793c23.346-15.203 38.825-41.516 38.825-71.393 0-46.955-38.2-85.156-85.155-85.156s-85.155 38.201-85.155 85.156c0 29.877 15.479 56.19 38.825 71.393v29.793h-71.215c-3.018-15.225-15.041-27.249-30.267-30.267V76.329c15.226-3.018 27.249-15.042 30.267-30.267h235.09c3.018 15.225 15.041 27.249 30.267 30.267v156.439c0 4.142 3.357 7.5 7.5 7.5s7.5-3.358 7.5-7.5V69.562a7.5 7.5 0 0 0-7.5-7.5c-12.958 0-23.5-10.542-23.5-23.5a7.5 7.5 0 0 0-7.5-7.5H131.687a7.5 7.5 0 0 0-7.5 7.5c0 12.958-10.542 23.5-23.5 23.5a7.5 7.5 0 0 0-7.5 7.5V411.34a7.5 7.5 0 0 0 7.5 7.5c12.958 0 23.5 10.542 23.5 23.5a7.5 7.5 0 0 0 7.5 7.5h77.981v16.062l-136.912.031c6.416-10.715 3.783-15.17 4.369-54.625l-.001-.019V147.28c0-4.142-3.357-7.5-7.5-7.5s-7.5 3.358-7.5 7.5v256.529H23.032a7.5 7.5 0 0 0-7.5 7.5v38.828c0 16.974 13.805 30.785 30.777 30.796l.02.001c211.998-.067 47.054-.013 163.34-.031v23.594a7.5 7.5 0 0 0 12.185 5.857L256 483.04l34.146 27.314a7.5 7.5 0 0 0 12.185-5.857v-23.594h108.703c21.416 0 38.84-17.423 38.84-38.84V77.125h39.094a7.5 7.5 0 0 0 7.5-7.5V30.797C496.465 13.815 482.65 0 465.668 0zM30.532 450.137v-31.328h31.593v31.328c0 4.518-1.917 8.588-4.968 11.47-2.831 2.674-6.636 4.326-10.828 4.326-8.711.001-15.797-7.086-15.797-15.796zm155.311-116.483c0-38.684 31.472-70.156 70.155-70.156s70.155 31.472 70.155 70.156c0 38.744-31.554 70.155-70.155 70.155-38.682 0-70.155-31.489-70.155-70.155zm101.485 155.239-26.646-21.314a7.499 7.499 0 0 0-9.369 0l-26.646 21.314v-76.081c9.705 3.855 20.269 5.998 31.33 5.998s21.625-2.143 31.33-5.998v76.081zM481.465 62.125h-31.594V30.797c0-8.71 7.087-15.797 15.797-15.797s15.797 7.086 15.797 15.797z"/><path d="M349.185 108.718H162.812c-4.143 0-7.5 3.358-7.5 7.5s3.357 7.5 7.5 7.5h186.373a7.5 7.5 0 0 0 0-15zM349.185 139.78H162.812c-4.143 0-7.5 3.358-7.5 7.5s3.357 7.5 7.5 7.5h186.373a7.5 7.5 0 0 0 0-15zM356.685 178.342a7.5 7.5 0 0 0-7.5-7.5H162.812c-4.143 0-7.5 3.358-7.5 7.5s3.357 7.5 7.5 7.5h186.373a7.5 7.5 0 0 0 7.5-7.5zM294.967 77.125c4.143 0 7.5-3.358 7.5-7.5s-3.357-7.5-7.5-7.5H217.03c-4.143 0-7.5 3.358-7.5 7.5s3.357 7.5 7.5 7.5zM255.998 387.747c29.827 0 54.094-24.266 54.094-54.093 0-29.828-24.267-54.094-54.094-54.094a54.103 54.103 0 0 0-26.752 7.07 7.498 7.498 0 0 0-2.802 10.229 7.498 7.498 0 0 0 10.229 2.802 39.082 39.082 0 0 1 19.324-5.101c21.557 0 39.094 17.538 39.094 39.094s-17.537 39.093-39.094 39.093-39.094-17.537-39.094-39.093c0-5.042.944-9.948 2.808-14.58a7.499 7.499 0 0 0-4.161-9.756 7.504 7.504 0 0 0-9.757 4.161 53.838 53.838 0 0 0-3.89 20.176c.002 29.826 24.268 54.092 54.095 54.092zM217.03 201.598c-4.143 0-7.5 3.358-7.5 7.5s3.357 7.5 7.5 7.5h77.938c4.143 0 7.5-3.358 7.5-7.5s-3.357-7.5-7.5-7.5z"/>
  </symbol>

  <symbol viewBox="0 0 512 512" id="ico-clock">
    <path d="M437.02 74.98C388.667 26.628 324.38 0 256 0S123.333 26.628 74.98 74.98 0 187.62 0 256s26.628 132.667 74.98 181.02S187.62 512 256 512s132.667-26.628 181.02-74.98S512 324.38 512 256s-26.628-132.667-74.98-181.02zm-11.314 350.726C380.376 471.036 320.106 496 256 496s-124.376-24.964-169.706-70.294C40.964 380.376 16 320.106 16 256S40.964 131.624 86.294 86.294C131.624 40.964 191.894 16 256 16s124.376 24.964 169.706 70.294C471.036 131.624 496 191.894 496 256s-24.964 124.376-70.294 169.706z"/><path d="M48 256c0-114.691 93.309-208 208-208 41.368 0 81.326 12.111 115.555 35.024a8 8 0 0 0 11.098-2.198 8 8 0 0 0-2.198-11.098C343.584 45.046 300.548 32 256 32c-59.833 0-116.084 23.3-158.392 65.608C55.3 139.916 32 196.167 32 256c0 55.2 20.254 108.232 57.032 149.328a7.98 7.98 0 0 0 5.964 2.665 7.966 7.966 0 0 0 5.332-2.039 8 8 0 0 0 .626-11.296C66.807 356.5 48 307.257 48 256zM442.273 131.547a8 8 0 0 0-13.296 8.9C451.889 174.675 464 214.633 464 256c0 114.691-93.309 208-208 208-47.583 0-94.096-16.479-130.969-46.401a8 8 0 1 0-10.082 12.424C154.664 462.251 204.757 480 256 480c59.833 0 116.084-23.3 158.392-65.608C456.7 372.084 480 315.833 480 256c0-44.547-13.046-87.583-37.727-124.453zM394.658 100.955a209.82 209.82 0 0 1 15.414 15.308 7.98 7.98 0 0 0 5.927 2.624 8.002 8.002 0 0 0 5.922-13.377 226.283 226.283 0 0 0-16.593-16.478 8 8 0 0 0-10.67 11.923z"/><path d="M256 104a8 8 0 0 0 8-8V72a8 8 0 0 0-16 0v24a8 8 0 0 0 8 8zM248 416v24a8 8 0 0 0 16 0v-24a8 8 0 0 0-16 0zM104 256a8 8 0 0 0-8-8H72a8 8 0 0 0 0 16h24a8 8 0 0 0 8-8zM408 256a8 8 0 0 0 8 8h24a8 8 0 0 0 0-16h-24a8 8 0 0 0-8 8zM182.928 113.436l-12-20.785a8 8 0 0 0-13.856 8l12 20.785a7.998 7.998 0 0 0 10.929 2.928 8 8 0 0 0 2.927-10.928zM342.928 390.564a8 8 0 0 0-13.856 8l12 20.785a7.998 7.998 0 0 0 10.929 2.928 8 8 0 0 0 2.928-10.928l-12.001-20.785zM96.659 356.001a7.97 7.97 0 0 0 3.993-1.073l20.785-12a8 8 0 0 0-8-13.856l-20.785 12a8 8 0 0 0 4.007 14.929zM394.571 184.001a7.97 7.97 0 0 0 3.993-1.073l20.785-12a8 8 0 0 0-8-13.856l-20.785 12a8 8 0 0 0 4.007 14.929zM352 89.723a7.998 7.998 0 0 0-10.928 2.928l-12 20.785a8 8 0 0 0 13.857 8l12-20.785A8.001 8.001 0 0 0 352 89.723zM180 387.636a8 8 0 0 0-10.928 2.928l-12 20.785a8 8 0 0 0 13.857 8l12-20.785A8.001 8.001 0 0 0 180 387.636zM390.564 342.928l20.785 12A7.998 7.998 0 0 0 422.278 352a8 8 0 0 0-2.928-10.928l-20.785-12A8 8 0 0 0 387.637 332a7.999 7.999 0 0 0 2.927 10.928zM121.436 169.072l-20.785-12a8 8 0 0 0-8 13.856l20.785 12A7.998 7.998 0 0 0 124.365 180a8.001 8.001 0 0 0-2.929-10.928zM311.692 360.451a8 8 0 0 0 6.921-12.001l-44.38-76.869C277.824 267.384 280 261.943 280 256c0-10.429-6.689-19.322-16-22.624V128a8 8 0 0 0-16 0v105.376c-9.311 3.302-16 12.195-16 22.624 0 13.234 10.766 24 24 24 1.497 0 2.961-.145 4.383-.408l44.374 76.858a7.998 7.998 0 0 0 6.935 4.001zM248 256c0-4.411 3.589-8 8-8s8 3.589 8 8-3.589 8-8 8-8-3.589-8-8z"/>
  </symbol>

  <symbol viewBox="0 0 504 504" id="ico-maintenance">
    <path d="M283.929 153.071a7.5 7.5 0 0 0-10.606-.001l-8.242 8.241a7.498 7.498 0 0 0-.001 10.606 7.476 7.476 0 0 0 5.304 2.197 7.477 7.477 0 0 0 5.303-2.196l8.242-8.241a7.5 7.5 0 0 0 0-10.606zM290.835 194.567a7.478 7.478 0 0 0 5.304-2.197l8.241-8.242a7.498 7.498 0 0 0-.001-10.606 7.5 7.5 0 0 0-10.606.001l-8.241 8.242a7.498 7.498 0 0 0 5.303 12.802zM314.225 193.974l-8.241 8.242a7.498 7.498 0 0 0 5.304 12.802 7.478 7.478 0 0 0 5.304-2.197l8.241-8.242a7.5 7.5 0 0 0-10.608-10.605zM326.435 233.275c1.465 1.464 3.385 2.196 5.304 2.196s3.839-.732 5.304-2.196l8.242-8.242a7.5 7.5 0 0 0-10.607-10.607l-8.242 8.242a7.5 7.5 0 0 0-.001 10.607zM61.89 425.858l-13.838 13.837a7.498 7.498 0 0 0-.001 10.606 7.5 7.5 0 0 0 10.606.001l13.838-13.837a7.5 7.5 0 0 0-10.605-10.607zM348.78 369.616l-44.807-25.869a16.316 16.316 0 0 0-16.273 0l-44.809 25.869a16.32 16.32 0 0 0-8.135 14.093v51.739a16.32 16.32 0 0 0 8.136 14.093L287.7 475.41c2.51 1.449 5.323 2.173 8.137 2.173s5.627-.724 8.137-2.173l44.807-25.869a16.318 16.318 0 0 0 8.137-14.093v-51.739a16.327 16.327 0 0 0-8.138-14.093zm-6.864 65.833c0 .453-.244.876-.637 1.103l-44.807 25.869a1.275 1.275 0 0 1-1.273 0l-44.807-25.869a1.277 1.277 0 0 1-.637-1.103V383.71c0-.453.244-.876.636-1.103l44.808-25.869a1.277 1.277 0 0 1 1.274 0l44.807 25.869c.393.227.637.649.637 1.103v51.739z"/><path d="M295.836 381.896c-15.265 0-27.684 12.419-27.684 27.684s12.419 27.683 27.684 27.683 27.683-12.418 27.683-27.683-12.418-27.684-27.683-27.684zm0 40.366c-6.994 0-12.684-5.689-12.684-12.683s5.689-12.684 12.684-12.684c6.993 0 12.683 5.689 12.683 12.684 0 6.994-5.69 12.683-12.683 12.683zM423.214 349.067c0 15.265 12.419 27.684 27.684 27.684s27.683-12.419 27.683-27.684-12.418-27.683-27.683-27.683-27.684 12.418-27.684 27.683zm40.366 0c0 6.994-5.689 12.684-12.683 12.684s-12.684-5.689-12.684-12.684c0-6.993 5.689-12.683 12.684-12.683 6.994 0 12.683 5.69 12.683 12.683z"/><path d="m503.841 309.105-44.807-25.869a16.319 16.319 0 0 0-16.273 0l-44.809 25.869a16.32 16.32 0 0 0-8.136 14.093v51.739a16.32 16.32 0 0 0 8.137 14.093l44.807 25.869a16.272 16.272 0 0 0 8.138 2.174c2.813 0 5.627-.725 8.136-2.174l16.074-9.28a7.5 7.5 0 0 0-7.5-12.99l-16.075 9.28a1.271 1.271 0 0 1-1.271 0l-44.807-25.869a1.275 1.275 0 0 1-.638-1.103v-51.739c0-.453.244-.876.637-1.103l44.809-25.869a1.271 1.271 0 0 1 1.271 0l44.807 25.869c.394.227.638.649.638 1.103v51.739c0 .453-.244.876-.636 1.103l-2.693 1.555a7.498 7.498 0 0 0-2.746 10.244 7.5 7.5 0 0 0 10.244 2.746l2.695-1.556a16.317 16.317 0 0 0 8.136-14.092v-51.739a16.321 16.321 0 0 0-8.138-14.093zM322.554 280.089c44.431 9.216 90.304-4.315 122.577-36.588 37.988-37.986 48.732-93.366 31.268-141.294a7.501 7.501 0 0 0-12.351-2.735l-61.606 61.607-51.396-13.771-13.772-51.396 7.386-7.385a7.5 7.5 0 0 0-10.607-10.607l-10.447 10.447a7.5 7.5 0 0 0-1.94 7.245l16.014 59.761a7.5 7.5 0 0 0 5.303 5.303l59.761 16.013a7.504 7.504 0 0 0 7.245-1.94l55.869-55.87c10.241 40.488-1.453 84.139-31.331 114.016-28.575 28.576-69.293 40.73-108.924 32.508-21.826-4.527-44.445 2.914-59.032 19.42l-159.29 180.214a2.53 2.53 0 0 0-.068.078c-4.959 5.769-10.955 10.296-17.821 13.454a7.498 7.498 0 0 0-3.68 9.947 7.499 7.499 0 0 0 9.947 3.68c8.823-4.058 16.526-9.866 22.895-17.264L277.81 294.756c11.031-12.483 28.174-18.107 44.744-14.667z"/><path d="M63.143 483.185a52.433 52.433 0 0 1-32.801-15.174c-21.48-21.478-20.41-56.832 2.898-76.867a2.53 2.53 0 0 0 .078-.068l180.214-159.29c16.505-14.588 23.946-37.208 19.42-59.033-8.221-39.629 3.931-80.348 32.507-108.923 29.877-29.878 73.525-41.574 114.016-31.331l-24.219 24.218a7.5 7.5 0 0 0 10.607 10.607l33.018-33.018a7.501 7.501 0 0 0-2.735-12.351C348.213 4.49 292.839 15.237 254.852 53.222c-32.16 32.161-45.838 77.983-36.587 122.576 3.436 16.569-2.184 33.716-14.666 44.749L23.421 379.805c-29.688 25.56-31.413 71.085-3.686 98.812a67.45 67.45 0 0 0 42.194 19.519c4.118.332 7.746-2.73 8.082-6.869a7.498 7.498 0 0 0-6.868-8.082z"/>
  </symbol>

  <symbol viewBox="0 0 314 314" id="ico-appearance">
    <path d="M298.482 170.108c-24.717-35.701-29.412-80.906-12.563-120.925l2.736-6.499a17.166 17.166 0 0 0-.305-13.99 17.168 17.168 0 0 0-10.626-9.103L230.723 5.665a3.997 3.997 0 0 0-4.162 1.219L157.193 87.09 87.825 6.884a3.996 3.996 0 0 0-4.162-1.219L36.66 19.592a17.166 17.166 0 0 0-10.626 9.104 17.171 17.171 0 0 0-.305 13.989l2.736 6.5c16.851 40.019 12.154 85.224-12.562 120.924a4.003 4.003 0 0 0-.623 3.111l29.409 138a4 4 0 0 0 3.912 3.166h217.181a4 4 0 0 0 3.912-3.166l29.41-138a4.005 4.005 0 0 0-.622-3.112zm-275.02 3.12c25.421-37.733 30.068-85.13 12.376-127.147l-2.736-6.499c-1.022-2.43-.965-5.08.163-7.463s3.141-4.107 5.668-4.856L83.461 14.07l69.731 80.626v211.691H51.839L23.462 173.228zm239.083 133.158H161.193V94.694l69.731-80.626 44.527 13.193a9.038 9.038 0 0 1 5.668 4.855 9.035 9.035 0 0 1 .163 7.464l-2.736 6.498c-17.691 42.018-13.045 89.415 12.377 127.148l-28.378 133.16z"/><path d="M124.278 42.514a4.002 4.002 0 0 0 4 0l28.183-16.271 28.184 16.271a4.002 4.002 0 0 0 4 0 4 4 0 0 0 2-3.464V4a4 4 0 0 0-6-3.464L156.46 16.808 128.278.536a3.998 3.998 0 0 0-6 3.464v35.05a4 4 0 0 0 2 3.464zm58.366-31.586v21.194l-18.355-10.597 18.355-10.597zm-52.366.001 18.354 10.597-18.354 10.597V10.929zM258.346 106.881 225.554 76.74a4.002 4.002 0 0 0-5.414 0l-33.025 30.354a4 4 0 0 0 2.707 6.945h66.071a4 4 0 0 0 2.453-7.158zm-58.262-.841 22.763-20.922 22.763 20.922h-45.526zM134.07 196.009c7.444 0 13.5-6.056 13.5-13.5s-6.056-13.5-13.5-13.5-13.5 6.056-13.5 13.5 6.055 13.5 13.5 13.5zm0-19c3.032 0 5.5 2.468 5.5 5.5s-2.468 5.5-5.5 5.5-5.5-2.468-5.5-5.5 2.468-5.5 5.5-5.5zM134.07 221.583c-7.444 0-13.5 6.056-13.5 13.5s6.056 13.5 13.5 13.5 13.5-6.056 13.5-13.5-6.056-13.5-13.5-13.5zm0 19c-3.032 0-5.5-2.468-5.5-5.5s2.468-5.5 5.5-5.5 5.5 2.468 5.5 5.5-2.468 5.5-5.5 5.5z"/>
  </symbol>

  <symbol viewBox="0 0 512 512" id="ico-recommendation">
    <path d="M488.337 383.643a7.5 7.5 0 0 0-7.5 7.5V497H31.163V391.143a7.5 7.5 0 0 0-15 0V504.5a7.5 7.5 0 0 0 7.5 7.5h464.675a7.5 7.5 0 0 0 7.5-7.5V391.143a7.502 7.502 0 0 0-7.501-7.5zM492.308 227.78a7.48 7.48 0 0 0-3.97-1.122v-.016h-.013l-32.895.053v-63.98a7.5 7.5 0 0 0-15 0v86.527l-184.425 90.266-184.436-90.564V15H440.43v112.696a7.5 7.5 0 0 0 15 0V7.5a7.5 7.5 0 0 0-7.5-7.5H64.069a7.5 7.5 0 0 0-7.5 7.5v218.826l-32.896-.049h-.012v.015c-1.38 0-2.756.367-3.965 1.12a7.501 7.501 0 0 0-3.534 6.366v122.349a7.5 7.5 0 0 0 15 0V245.814l221.532 108.778a7.503 7.503 0 0 0 6.603.004l221.541-108.432v109.96a7.5 7.5 0 0 0 15 0v-121.98a7.506 7.506 0 0 0-3.53-6.364z"/><path d="M126.699 480.685a7.5 7.5 0 0 0 7.5-7.5v-70.711a7.5 7.5 0 0 0-7.5-7.5H55.988a7.5 7.5 0 0 0-7.5 7.5v70.711a7.5 7.5 0 0 0 7.5 7.5zm-63.211-70.711h55.711v55.711H63.488zM162.055 448.36h40.407a7.5 7.5 0 0 0 0-15h-40.407a7.5 7.5 0 0 0 0 15zM162.055 409.974h60.61a7.5 7.5 0 0 0 0-15h-60.61a7.5 7.5 0 0 0 0 15zM256 312.998c53.152 0 96.395-43.242 96.395-96.395 0-53.152-43.242-96.394-96.395-96.394s-96.395 43.242-96.395 96.394c0 53.153 43.243 96.395 96.395 96.395zm-55.042-36.497c10.709-20.325 31.791-33.204 55.042-33.204s44.333 12.879 55.042 33.204c-14.501 13.337-33.834 21.497-55.042 21.497s-40.541-8.16-55.042-21.497zm24.661-78.585c0-16.752 13.629-30.381 30.381-30.381s30.381 13.629 30.381 30.381-13.629 30.381-30.381 30.381-30.381-13.629-30.381-30.381zM256 135.209c44.881 0 81.395 36.513 81.395 81.394 0 17.999-5.883 34.644-15.812 48.136a77.123 77.123 0 0 0-37.54-31.183c10.548-8.317 17.339-21.197 17.339-35.64 0-25.023-20.358-45.381-45.381-45.381s-45.381 20.358-45.381 45.381c0 14.444 6.791 27.323 17.339 35.64a77.124 77.124 0 0 0-37.54 31.183c-9.929-13.492-15.812-30.137-15.812-48.136-.002-44.88 36.512-81.394 81.393-81.394zM293.267 59.002a10.856 10.856 0 0 0-8.818-7.436l-12.889-1.873-5.764-11.68c-1.854-3.756-5.607-6.089-9.795-6.089s-7.941 2.333-9.795 6.089l-5.764 11.68-12.89 1.873a10.856 10.856 0 0 0-8.817 7.436 10.856 10.856 0 0 0 2.764 11.196l9.327 9.092-2.202 12.835a10.859 10.859 0 0 0 4.345 10.685 10.88 10.88 0 0 0 6.411 2.098c1.736 0 3.481-.419 5.093-1.267L256 97.582l11.527 6.06a10.854 10.854 0 0 0 11.505-.831 10.853 10.853 0 0 0 4.345-10.684l-2.202-12.836 9.326-9.091c3-2.924 4.06-7.214 2.766-11.198zm-24.094 11.041a10.92 10.92 0 0 0-3.144 9.67l1.167 6.808-6.114-3.214a10.923 10.923 0 0 0-10.166 0l-6.114 3.214 1.167-6.809a10.918 10.918 0 0 0-3.142-9.668l-4.946-4.822 6.835-.993a10.922 10.922 0 0 0 8.225-5.976L256 52.06l3.057 6.194a10.92 10.92 0 0 0 8.225 5.976l6.835.993zM386.202 80.216a10.857 10.857 0 0 0-8.819-7.436l-12.888-1.873-5.764-11.68c-1.854-3.756-5.608-6.089-9.796-6.089s-7.941 2.333-9.794 6.089l-5.764 11.68-12.89 1.873a10.855 10.855 0 0 0-8.817 7.435 10.856 10.856 0 0 0 2.764 11.197l9.327 9.092-2.202 12.837a10.856 10.856 0 0 0 4.347 10.684 10.883 10.883 0 0 0 6.409 2.097c1.736 0 3.481-.419 5.093-1.267l11.528-6.061 11.528 6.06a10.854 10.854 0 0 0 11.503-.83 10.857 10.857 0 0 0 4.347-10.685l-2.202-12.836 9.326-9.091a10.856 10.856 0 0 0 2.764-11.196zm-24.096 11.042a10.921 10.921 0 0 0-3.142 9.669l1.167 6.808-6.113-3.213a10.917 10.917 0 0 0-10.167-.001l-6.114 3.214 1.168-6.809a10.917 10.917 0 0 0-3.142-9.668l-4.947-4.822 6.836-.993a10.922 10.922 0 0 0 8.225-5.976l3.057-6.194 3.058 6.196a10.923 10.923 0 0 0 8.224 5.973l6.835.993zM140.034 124.025a10.883 10.883 0 0 0 6.409 2.097c1.736 0 3.481-.419 5.093-1.267l11.529-6.061 11.527 6.06a10.852 10.852 0 0 0 11.503-.83 10.857 10.857 0 0 0 4.347-10.685l-2.202-12.836 9.327-9.092c3-2.923 4.059-7.214 2.764-11.197a10.858 10.858 0 0 0-8.818-7.435l-12.889-1.873-5.764-11.679a10.856 10.856 0 0 0-9.795-6.09h-.001a10.856 10.856 0 0 0-9.795 6.089l-5.764 11.68-12.889 1.873a10.857 10.857 0 0 0-8.818 7.436 10.856 10.856 0 0 0 2.764 11.196l9.327 9.091-2.202 12.837a10.858 10.858 0 0 0 4.347 10.686zm11.75-38.582a10.923 10.923 0 0 0 8.224-5.976l3.057-6.194 3.057 6.193a10.92 10.92 0 0 0 8.225 5.976l6.835.993-4.944 4.82a10.92 10.92 0 0 0-3.144 9.671l1.168 6.808-6.114-3.214a10.92 10.92 0 0 0-10.166 0l-6.114 3.214 1.167-6.809a10.922 10.922 0 0 0-3.141-9.668l-4.947-4.822z"/>
  </symbol>

  <symbol viewBox="0 0 512 512" id="ico-croupier">
    <path d="M477.706 340.959h-72.717a40.987 40.987 0 0 0-8.257-19.55v-96.477a66.91 66.91 0 0 0-51.032-65.414 154.616 154.616 0 0 1-38.416-15.394l-9.006-5V124.9a53.369 53.369 0 0 0 15.338-37.513v-29.1C313.619 28.9 289.94 5 260.835 5S208.05 28.9 208.05 58.286v29.1a53.374 53.374 0 0 0 15.458 37.64v14.893c0 .266.013.531.015.8l-11.57 5.871a163.808 163.808 0 0 1-35.986 12.933 66.91 66.91 0 0 0-51.029 65.414v96.853a41 41 0 0 0-7.964 19.174h-82.68a24.49 24.49 0 0 0 0 48.979h28.585V501a6 6 0 1 0 12 0v-81.521H432.2V501a6 6 0 0 0 12 0V389.938h33.5a24.49 24.49 0 0 0 0-48.979zm-124.273-23.3h11.32a28.777 28.777 0 0 1 28.022 23.011h-39.342zm-47.956-160.893-9.659 29.092-9.369-9.061a54.417 54.417 0 0 0 10.978-24.424l4.034 2.241c1.339.743 2.677 1.448 4.016 2.152zm-40.429 36.128h-8.426l-4.09-9.772h16.606zm-5.451 12h4.118l12.794 94.5-15.885 18.75-15.431-18.662zm15.949-33.772h-29.217a50.278 50.278 0 0 1-10.821-31.2v-5.8a52.235 52.235 0 0 0 50.773-.07v8.6a42.732 42.732 0 0 1-10.735 28.47zM220.05 58.286c0-22.765 18.3-41.286 40.785-41.286s40.784 18.521 40.784 41.286v29.1c0 22.765-18.3 41.285-40.784 41.285S220.05 110.15 220.05 87.385zm4.943 95.139a62.156 62.156 0 0 0 10.438 23.194L225.9 185.9l-9.618-28.073c.363-.181.736-.352 1.1-.535zm-46.2 17.756a188.566 188.566 0 0 0 26.5-8.418l12.33 35.986a6 6 0 0 0 9.861 2.354l13.9-13.533 4.464 10.662a9.445 9.445 0 0 0 2.076 3.6l-15 98.494a6.007 6.007 0 0 0 1.307 4.727l21.711 26.258a6 6 0 0 0 4.588 2.176h.036a6 6 0 0 0 4.578-2.122l22.245-26.258a6 6 0 0 0 1.367-4.682l-13.614-100.571a9.534 9.534 0 0 0 .679-1.622l4.476-10.691 14.038 13.576a6 6 0 0 0 9.865-2.417l12.167-36.646a156.1 156.1 0 0 0 26.512 9.132 54.942 54.942 0 0 1 41.853 53.751v86.046a40.093 40.093 0 0 0-19.979-5.32h-11.32v-63.22a6 6 0 0 0-12 0v98.521h-161.2V233.685a6 6 0 0 0-12 0v71.973h-11.022a40.088 40.088 0 0 0-20.273 5.491v-86.217a54.941 54.941 0 0 1 41.853-53.751zm-21.58 146.477h11.026v23.011h-39.051a28.778 28.778 0 0 1 28.023-23.011zM432.2 407.479H74.879v-17.541H432.2zm45.5-29.541H34.294a12.491 12.491 0 0 1 0-24.979h443.412a12.491 12.491 0 0 1 0 24.979z"/><path d="m161.833 456.994 2.57-14.979a6 6 0 0 0-8.7-6.327l-13.462 7.075-13.462-7.075a6 6 0 0 0-8.705 6.327l2.571 14.979-10.893 10.606a6 6 0 0 0 3.325 10.235l15.05 2.186 6.73 13.631a6 6 0 0 0 10.76 0l6.73-13.631 15.05-2.186a6 6 0 0 0 3.326-10.235zM149.5 468.6a6 6 0 0 0-4.518 3.281l-2.746 5.562-2.747-5.562a6 6 0 0 0-4.517-3.281l-6.136-.892 4.438-4.325a6 6 0 0 0 1.726-5.308l-1.049-6.109 5.493 2.887a6 6 0 0 0 5.582 0l5.493-2.887-1.048 6.109a6 6 0 0 0 1.725 5.313l4.44 4.324zM275.6 456.994l2.57-14.979a6 6 0 0 0-8.7-6.327L256 442.763l-13.462-7.075a6 6 0 0 0-8.705 6.327l2.57 14.979-10.888 10.606a6 6 0 0 0 3.325 10.235l15.05 2.186 6.73 13.631a6 6 0 0 0 10.76 0l6.73-13.631 15.05-2.186a6 6 0 0 0 3.325-10.235zM263.265 468.6a6 6 0 0 0-4.518 3.281L256 477.448l-2.747-5.563a6 6 0 0 0-4.518-3.281l-6.135-.892 4.438-4.325a6 6 0 0 0 1.727-5.312l-1.049-6.109 5.493 2.887a6 6 0 0 0 5.582 0l5.493-2.887-1.049 6.109a6 6 0 0 0 1.727 5.312l4.438 4.325zM389.359 456.994l2.571-14.979a6 6 0 0 0-8.7-6.327l-13.462 7.075-13.468-7.075a6 6 0 0 0-8.7 6.327l2.57 14.979-10.89 10.61a6 6 0 0 0 3.326 10.235l15.05 2.186 6.73 13.631a6 6 0 0 0 10.76 0l6.73-13.631 15.05-2.186a6 6 0 0 0 3.325-10.235zM377.027 468.6a6 6 0 0 0-4.517 3.281l-2.747 5.562-2.746-5.562a6 6 0 0 0-4.517-3.281l-6.137-.892 4.44-4.324a6 6 0 0 0 1.725-5.313l-1.048-6.109 5.493 2.887a6 6 0 0 0 5.582 0l5.493-2.887-1.048 6.113a6 6 0 0 0 1.727 5.312l4.438 4.325zM73.837 313.658a7 7 0 1 0-7-7 7.008 7.008 0 0 0 7 7z"/><path d="M51.686 275.658h-2.86a6 6 0 0 0-6 6v50a6 6 0 0 0 6 6h50.022a6 6 0 0 0 6-6v-50a6 6 0 0 0-6-6H87.439l21.206-8.566a6 6 0 0 0 3.315-7.813l-18.743-46.357a6 6 0 0 0-7.81-3.314l-46.378 18.735a6 6 0 0 0-3.315 7.812zm41.162 50H54.826v-38h38.022zM84.34 222.981l14.245 35.232-35.251 14.241-14.245-35.233z"/><path d="M73.846 254.717a7 7 0 1 0-6.5-4.377 6.98 6.98 0 0 0 6.5 4.377zM432.624 337.658h30.013a6 6 0 1 0 0-12h-30.013a6 6 0 0 0 0 12zM432.624 321.658h30.013a6 6 0 1 0 0-12h-30.013a6 6 0 0 0 0 12zM432.624 305.658h30.013a6 6 0 1 0 0-12h-30.013a6 6 0 0 0 0 12zM432.624 289.658h30.013a6 6 0 1 0 0-12h-30.013a6 6 0 0 0 0 12zM432.624 273.658h30.013a6 6 0 1 0 0-12h-30.013a6 6 0 0 0 0 12z"/>
  </symbol>

  <symbol viewBox="0 0 512 512" id="ico-wedding">
    <path d="M443.165 158.846c-14.651-22.727-35.07-41.029-59.176-53.076l-12.774-30.841a22.507 22.507 0 0 0-12.844-13.32l16.773-19.17a7.499 7.499 0 0 0 1.063-8.293l-15-30A7.496 7.496 0 0 0 354.5 0h-75a7.499 7.499 0 0 0-6.708 4.146l-15 30a7.503 7.503 0 0 0 1.063 8.293l16.773 19.17a22.509 22.509 0 0 0-12.844 13.321l-12.774 30.84c-24.105 12.047-44.524 30.349-59.176 53.076a149.134 149.134 0 0 0-21.605 55.37c-33.504 5.812-64.16 22.948-86.819 48.667C58.286 290.266 45 325.467 45 362c0 82.71 67.29 150 150 150 73.92 0 135.516-53.75 147.775-124.217 33.503-5.812 64.158-22.948 86.815-48.667C453.714 311.733 467 276.533 467 240c0-28.904-8.242-56.967-23.835-81.154zM281.028 45h71.943L317 86.11zm3.108-30h65.729l7.5 15h-80.729zM195 497c-74.439 0-135-60.561-135-135 0-64.077 45.52-119.283 107.351-132.165A151.398 151.398 0 0 0 167 240c0 37.996 14.233 74.244 40.078 102.065 23.742 25.558 55.261 41.882 89.502 46.545C284.769 433.663 243.706 467 195 467c-57.897 0-105-47.103-105-105 0-40.292 22.465-76.4 58.627-94.232a7.5 7.5 0 0 0 3.409-10.043 7.5 7.5 0 0 0-10.044-3.41 120.33 120.33 0 0 0-48.373 43.457C81.438 316.96 75 339.17 75 362c0 66.168 53.832 120 120 120s120-53.832 120-120c0-30.205-11.262-59.067-31.71-81.271-18.846-20.464-43.943-33.631-71.234-37.518A103.816 103.816 0 0 1 212 240c0-4.005.233-7.957.672-11.847C279.007 236.869 330 294.346 330 362c0 74.439-60.561 135-135 135zm109.921-237.066c-23.741-25.558-55.261-41.882-89.501-46.544C227.231 168.336 268.294 135 317 135c57.897 0 105 47.103 105 105 0 48.162-32.519 89.655-78.39 101.583-4.149-30.422-17.521-58.862-38.689-81.649zm-6.628 83.392c-42.943-7.797-76.784-42.185-84.586-84.652 42.943 7.797 76.784 42.186 84.586 84.652zm46.355 28.839c.226-3.36.352-6.748.352-10.165 0-1.76-.041-3.515-.102-5.266C398.649 343.979 437 295.913 437 240c0-66.168-53.832-120-120-120s-120 53.832-120 120c0 30.206 11.263 59.069 31.712 81.273 18.846 20.463 43.942 33.629 71.232 37.515.033 1.067.056 2.137.056 3.211 0 4.005-.233 7.957-.672 11.847C232.993 365.131 182 307.653 182 240c0-51.813 30.254-99.686 77.075-121.963a7.497 7.497 0 0 0 3.706-3.902l13.939-33.653c.059-.14.111-.281.161-.423a7.499 7.499 0 0 1 7.079-5.058c2.004 0 3.887.78 5.333 2.227l22.062 25.212a7.504 7.504 0 0 0 11.29-.001s22.086-25.237 22.093-25.243A7.446 7.446 0 0 1 350.04 75a7.499 7.499 0 0 1 7.079 5.058c.05.143.103.284.161.423l13.939 33.653a7.494 7.494 0 0 0 3.706 3.902C421.746 140.314 452 188.188 452 240c0 64.077-45.521 119.284-107.352 132.165z"/>
  </symbol>

  <symbol viewBox="0 0 512 512" id="ico-team-building">
    <path d="M448 204.658a91.44 91.44 0 0 0 16.824 18.442l18.054 15.046a8 8 0 1 0 10.244-12.292l-18.055-15.045a75 75 0 0 1-26.105-45.776 91.691 91.691 0 0 0 17.275 18.2l8.763 7.014a8 8 0 0 0 10-12.494l-8.766-7.012a74.807 74.807 0 0 1-27.052-45.409 91.7 91.7 0 0 0 17.057 17.9l8.761 7.015a8 8 0 0 0 10-12.494l-8.766-7.012A74.815 74.815 0 0 1 449.494 87 71.385 71.385 0 0 0 460.8 97.6l6.4 4.8a8 8 0 0 0 9.6-12.8l-6.4-4.8A56.268 56.268 0 0 1 448 40a8 8 0 0 0-16 0 56.268 56.268 0 0 1-22.4 44.8l-6.4 4.8a8 8 0 1 0 9.6 12.8l6.4-4.8A71.385 71.385 0 0 0 430.506 87a74.815 74.815 0 0 1-26.738 43.739L395 137.753a8 8 0 0 0 10 12.494l8.765-7.012a91.7 91.7 0 0 0 17.057-17.9 74.807 74.807 0 0 1-27.052 45.409l-8.77 7.009a8 8 0 0 0 10 12.494l8.765-7.012a91.691 91.691 0 0 0 17.275-18.2 75 75 0 0 1-26.105 45.776l-18.055 15.045a8 8 0 0 0 10.244 12.292l18.052-15.048A91.445 91.445 0 0 0 432 204.658v159.124L328 255.448v-43.789a91.627 91.627 0 0 0 18.237 19.576l8.763 7.012a8 8 0 0 0 10-12.494l-8.766-7.012a74.807 74.807 0 0 1-27.052-45.409 91.7 91.7 0 0 0 17.057 17.9l8.761 7.015a8 8 0 0 0 10-12.494l-8.766-7.012A74.815 74.815 0 0 1 329.494 135a71.385 71.385 0 0 0 11.306 10.6l6.4 4.8a8 8 0 1 0 9.6-12.8l-6.4-4.8A56.268 56.268 0 0 1 328 88a8 8 0 0 0-16 0 56.268 56.268 0 0 1-22.4 44.8l-6.4 4.8a8 8 0 1 0 9.6 12.8l6.4-4.8a71.385 71.385 0 0 0 11.306-10.6 74.815 74.815 0 0 1-26.738 43.739L275 185.753a8 8 0 0 0 10 12.494l8.765-7.012a91.7 91.7 0 0 0 17.057-17.9 74.681 74.681 0 0 1-22.158 41.139l-26.893-28.014-.018-.006a7.962 7.962 0 0 0-11.51.009h-.014l-192 200A8 8 0 0 0 56 392v60.687L28.687 480H24a8 8 0 0 0 0 16h464a8 8 0 0 0 0-16h-4.687L456 452.687V392a8 8 0 0 0-2.229-5.54L448 380.449zM184 441.889V452a28.044 28.044 0 0 1-18.161 26.211zm64-128v30.671a72.335 72.335 0 0 1-46.719 67.416l-2.861 1.072zm16 0 49.58 99.159-2.861-1.072A72.335 72.335 0 0 1 264 344.56zm64 128 18.161 36.322A28.044 28.044 0 0 1 328 452zM79.71 448 191.9 293.734 248 216.6v61.509L163.056 448zM200 452v-22.456l6.9-2.587a88.3 88.3 0 0 0 49.1-45.933 88.3 88.3 0 0 0 49.1 45.933l6.9 2.587V452a43.8 43.8 0 0 0 10.084 28H189.916A43.8 43.8 0 0 0 200 452zm64-173.889V216.6l56.1 77.132L432.29 448h-83.346zM444.687 464l16 16H440v-16zM440 395.218V431.4L331.46 282.156zM312 211.659v27.123l-12.257-12.768A91.233 91.233 0 0 0 312 211.659zM72 395.218l108.54-113.062L72 431.4zM67.313 464H72v16H51.313zM88 464h67.056l-8 16H88zm276.944 16-8-16H424v16zM43.2 240h64a27.2 27.2 0 0 0 .639-54.393 33.6 33.6 0 0 0-59.318-12.42 24.136 24.136 0 0 0-18.381 15.752A27.2 27.2 0 0 0 43.2 240zm-3.639-37.792a8 8 0 0 0 5.329-6.494 8.012 8.012 0 0 1 7.732-6.912c.1 0 .2.008.3.009a7.924 7.924 0 0 0 7.028-4A17.6 17.6 0 0 1 92.8 193.6a8 8 0 0 0 8 8h6.4a11.2 11.2 0 1 1 0 22.4h-64a11.2 11.2 0 0 1-3.639-21.792zM121.728 156.474a72.011 72.011 0 0 0 84.266-31.96 8 8 0 0 0-8.7-11.847 48.017 48.017 0 0 1-42.854-82.494 8 8 0 0 0-4.689-13.925 71.986 71.986 0 0 0-28.023 140.226zM90.481 71.646a55.74 55.74 0 0 1 40.874-38.227 64.056 64.056 0 0 0 49.978 96.269 55.924 55.924 0 0 1-90.852-58.042zM200 80h16v16h-16zM224 56h16v16h-16zM248 80h16v16h-16zM224 104h16v16h-16zM16 136h16v16H16zM48 112h16v16H48zM152 192h16v16h-16zM184 192h16v16h-16zM168 208h16v16h-16zM168 176h16v16h-16z"/>
  </symbol>

  <symbol viewBox="0 0 504 504" id="ico-bachelor-party">
    <path d="m153.132 344.08-56-8A8 8 0 0 0 88 344v24h-8a24 24 0 1 0 24 24v-38.776l40 5.714V376h-8a24 24 0 1 0 24 24v-48a8 8 0 0 0-6.868-7.92zM88 392a8 8 0 1 1-8-8h8zm56 8a8 8 0 1 1-8-8h8zM473.94 240.239 448 233.754v-7.508l22.06 5.515a8 8 0 0 0 3.88-15.522l-32-8A8 8 0 0 0 432 216v32h-8a24 24 0 1 0 24 24v-21.754l22.06 5.515a8 8 0 0 0 3.88-15.522zM432 272a8 8 0 1 1-8-8h8z"/><path d="M392 72V40a7.994 7.994 0 0 0-.845-3.578l-8-16A8 8 0 0 0 376 16h-24a8 8 0 0 0-8 8v14.111l-7.155 14.311a8 8 0 0 0 0 7.156l6.772 13.545-6.552 32.756-40.715 13.571-13.738-5.87-7.08-10.619A31.9 31.9 0 0 0 285.277 80V43.777a27.777 27.777 0 0 0-52.622-12.422l-.386.772a26.9 26.9 0 0 0-16.391 45.788l5.6 5.6a31.892 31.892 0 0 0 8.224 18.1l-4.023 12.068s-20.863 7-21.1 7.116c-.121.057-72.458 40.216-72.458 40.216a8 8 0 0 0-3.96 5.424l-16 80A8.026 8.026 0 0 0 112 248v24a8 8 0 0 0 6.06 7.761l32 8a7.992 7.992 0 0 0 9.095-4.183l8-16a8 8 0 0 0 0-7.156l-6.608-13.216 14.277-49.971 31.1-18.662 8.086 10.781a50.235 50.235 0 0 1 9.99 29.954V240a8 8 0 0 0 8 8h8v16.408a45.671 45.671 0 0 0 8.652 26.847l22.47 67.41-37.632 52.685a7.986 7.986 0 0 0-.541 8.386l-14.606 14.607a8 8 0 0 0-1.771 8.628l16 40a8 8 0 0 0 3.85 4.184l16 8A7.994 7.994 0 0 0 256 496h8a8 8 0 0 0 5.657-2.343l4.576-4.576 9.658 5.782A7.993 7.993 0 0 0 288 496h32a8 8 0 0 0 7.245-11.392l-16.71-35.7 46.609-63.5A55.631 55.631 0 0 0 368 352.274V349.3a56.02 56.02 0 0 0-7.98-28.812L320 253.784v-32.939a102.889 102.889 0 0 0-12.31-48.9l71.281-28.512a8 8 0 0 0 4.967-6.436S392 72.332 392 72zm-88 61.767 16-5.334v21.351l-16 6.4zm-37.261-15.152a22.233 22.233 0 0 1-25.515-.988l2.376-7.127a31.942 31.942 0 0 0 18 .4zM269.277 80a16 16 0 0 1-31.7 3.02L256.591 64h12.686zm-44.716-24.55A10.879 10.879 0 0 1 234.9 48h2.381a8 8 0 0 0 7.156-4.423l2.533-5.066a11.777 11.777 0 0 1 22.311 5.266V48h-16a8 8 0 0 0-5.657 2.343l-18.347 18.344-2.086-2.087a10.836 10.836 0 0 1-2.63-11.15zM200 141.6v21.874l-12.691 7.615-8.743-17.589zm-39.692 48.2-16 56a8 8 0 0 0 .537 5.776L151.056 264l-3.341 6.683L128 265.754v-16.962l15.119-75.6 21.446-11.914 8.981 18.061-9.662 5.8a8 8 0 0 0-3.576 4.661zm66.507-10.048L216 165.333v-31.567l13.972-4.658a38.24 38.24 0 0 0 49.031.329l9 3.844V168a8.005 8.005 0 0 0 1.344 4.438A86.994 86.994 0 0 1 304 220.845V232h-64v-12.692a66.34 66.34 0 0 0-13.185-39.554zm59.695 184.9a8.007 8.007 0 0 0 1.08-7.18l-13.235-39.7 35.49 35.4-47.772 76.657-11.957-14.229zM257.889 480l-11.591-5.8-12.911-32.278 9.756-9.755 10.05 11.956a7.963 7.963 0 0 0 6.486 11.839l-5.7 12.769a8 8 0 0 0 3.194 10.127l1.9 1.137zm32.323 0-18.735-11.218L277.188 456h19l11.235 24zM346.3 328.716A40.016 40.016 0 0 1 352 349.3v2.979a39.735 39.735 0 0 1-7.755 23.669L297.226 440h-22.64l52.2-83.769a8 8 0 0 0-1.139-9.895l-61-60.857A29.819 29.819 0 0 1 256 264.408V248h48v8a8.009 8.009 0 0 0 1.14 4.116zM376 71.5l-7.353 58.823L336 143.384V123.1l10.529-3.51a8 8 0 0 0 5.316-6.021l8-40a8 8 0 0 0-.69-5.147L352.944 56l6.211-12.422A7.994 7.994 0 0 0 360 40v-8h11.056L376 41.889z"/><path d="m221.657 298.343-4.686-4.687A30.423 30.423 0 0 1 208 272a8 8 0 0 0-16 0 46.325 46.325 0 0 0 13.656 32.971l4.687 4.686a8 8 0 1 0 11.314-11.314zM101.471 175.59a7.994 7.994 0 0 0 10.119-5.061l2.343-7.028a34.952 34.952 0 0 1 17.644-20.346 8 8 0 0 0-7.154-14.31 50.847 50.847 0 0 0-25.67 29.6l-2.343 7.03a8 8 0 0 0 5.061 10.115zM152.006 132a7.973 7.973 0 0 0 3.572-.847l8-4a8 8 0 1 0-7.156-14.31l-8 4A8 8 0 0 0 152.006 132zM410.314 154.356l5.276-15.826a8 8 0 0 0-15.18-5.06l-5.275 15.83a10.555 10.555 0 0 1-6.106 6.475 8 8 0 1 0 5.942 14.856 26.525 26.525 0 0 0 15.343-16.275zM365.028 165.372l-8 3.2a8 8 0 1 0 5.944 14.856l8-3.2a8 8 0 0 0-5.944-14.856zM200 248a8 8 0 0 0 8-8v-8a8 8 0 0 0-16 0v8a8 8 0 0 0 8 8z"/>
  </symbol>

  <symbol viewBox="0 0 512 512" id="ico-wellcome">
    <path d="M504.5 136.349H370.32l-98.41-98.41c-4.082-4.066-9.707-6.59-15.91-6.59s-11.828 2.523-15.902 6.597c-.007-.007-98.418 98.403-98.418 98.403H7.5a7.5 7.5 0 0 0-7.5 7.5v329.303a7.5 7.5 0 0 0 7.5 7.5h497a7.5 7.5 0 0 0 7.5-7.5V143.849a7.5 7.5 0 0 0-7.5-7.5zm-7.5 30H337.213c-9.777 0-18.114-6.271-21.21-15H497zm-241-120c4.136 0 7.5 3.364 7.5 7.5s-3.364 7.5-7.5 7.5-7.5-3.364-7.5-7.5 3.364-7.5 7.5-7.5zm-20.301 17.194c3.628 7.567 11.364 12.806 20.301 12.806s16.673-5.238 20.301-12.805l72.805 72.805H162.893zm64.769 87.806c3.484 17.096 18.635 30 36.745 30H497v15H256c-20.784 0-41.596-4.913-60.187-14.208-20.662-10.331-43.793-15.792-66.895-15.792H84.613a7.5 7.5 0 0 0 0 15h44.305c20.785 0 41.597 4.913 60.187 14.208 20.663 10.331 43.794 15.792 66.895 15.792h241v15H15v-45h39.613a7.5 7.5 0 0 0 0-15H15v-15zM15 241.349h482v134.303H15zm0 224.302v-75h482v15H140.679c-12.407 0-22.5 10.093-22.5 22.5s10.093 22.5 22.5 22.5H497v15zm482-45v15H140.679c-4.135 0-7.5-3.364-7.5-7.5s3.365-7.5 7.5-7.5z"/><path d="M311.509 271.528c-20.402 0-37 16.598-37 37s16.598 37 37 37 37-16.598 37-37-16.598-37-37-37zm0 59c-12.131 0-22-9.869-22-22s9.869-22 22-22 22 9.869 22 22-9.869 22-22 22zM420.357 278.475a8.848 8.848 0 0 0-8.164-7.056 8.862 8.862 0 0 0-8.982 6.355l-10.523 36.917-10.914-36.993a8.845 8.845 0 0 0-9.049-6.27c-4.004.267-7.331 3.205-8.108 7.234l-10.413 57.695a7.501 7.501 0 0 0 6.049 8.713c4.073.732 7.978-1.972 8.713-6.049l5.792-32.096 9.57 32.437c.026.09.055.179.084.268a8.822 8.822 0 0 0 8.378 6.022c3.866-.02 7.227-2.474 8.406-6.108.028-.086.055-.173.08-.261l9.238-32.409 6.158 32.223a7.499 7.499 0 1 0 14.732-2.815zM102.152 271.93c-4.074-.733-7.978 1.972-8.713 6.049l-5.792 32.095-9.57-32.436a8.821 8.821 0 0 0-8.461-6.29c-3.868.02-7.228 2.475-8.407 6.11a7.677 7.677 0 0 0-.079.258l-9.238 32.408-6.158-32.222a7.5 7.5 0 1 0-14.733 2.815l11.047 57.802a8.846 8.846 0 0 0 8.663 7.075 8.846 8.846 0 0 0 8.484-6.369l10.523-36.917L80.632 339.3c.026.089.054.178.083.266 1.278 3.805 4.978 6.283 8.97 6.004 4.004-.269 7.33-3.208 8.103-7.233l10.414-57.695a7.5 7.5 0 0 0-6.05-8.712zM199.426 330.602h-13.247v-51.697a7.5 7.5 0 0 0-15 0v59.197a7.5 7.5 0 0 0 7.5 7.5h20.747a7.5 7.5 0 0 0 0-15zM267.053 324.046a7.5 7.5 0 0 0-10.566.92 16.648 16.648 0 0 1-1.649 1.703c-2.968 2.643-6.76 3.983-11.271 3.983-12.199 0-22.123-9.924-22.123-22.123s9.924-22.124 22.123-22.124c4.434 0 8.709 1.305 12.364 3.774a7.5 7.5 0 1 0 8.397-12.43 36.95 36.95 0 0 0-20.761-6.344c-20.47 0-37.123 16.653-37.123 37.124 0 20.47 16.653 37.123 37.123 37.123 8.184 0 15.53-2.69 21.249-7.783a31.581 31.581 0 0 0 3.157-3.256 7.5 7.5 0 0 0-.92-10.567zM150.416 286.405a7.5 7.5 0 0 0 0-15H125.68a7.5 7.5 0 0 0-7.5 7.5v58.706a7.5 7.5 0 0 0 7.5 7.5h24.736a7.5 7.5 0 0 0 0-15H133.18v-14.353h15.413a7.5 7.5 0 0 0 0-15H133.18v-14.353zM473.634 330.189h-17.236v-14.353h15.412c4.143 0 7.5-3.358 7.5-7.5s-3.357-7.5-7.5-7.5h-15.412v-14.353h17.236c4.143 0 7.5-3.358 7.5-7.5s-3.357-7.5-7.5-7.5h-24.736a7.5 7.5 0 0 0-7.5 7.5v58.706a7.5 7.5 0 0 0 7.5 7.5h24.736a7.5 7.5 0 0 0 0-15z"/>
  </symbol>

  <symbol viewBox="0 0 512 512" id="ico-company-birthday">
    <path d="M472.143 1.403a8 8 0 0 0-5.167 1.887 580.833 580.833 0 0 1-7.904 6.56A777.953 777.953 0 0 1 10.937 185.225l-3.296.184a8 8 0 0 0-5.16 13.64l88 88a8.002 8.002 0 0 0 5.656 2.36 8.38 8.38 0 0 0 1.664-.168 8.002 8.002 0 0 0 5.808-4.96l36.192-94.12 87.536 65.648a8 8 0 0 0 12.496-4.208l28.928-101.264 94.824 65.648a7.999 7.999 0 0 0 12.552-6.072l7.2-115.944 85.224 42.64a8 8 0 0 0 7.776-.392 7.999 7.999 0 0 0 3.8-6.808v-120a8 8 0 0 0-7.994-8.006zM93.089 267.049l-66.848-66.848a805.965 805.965 0 0 0 97.832-13.712l-30.984 80.56zm134.552-31.016-74.664-56a788.89 788.89 0 0 0 99.584-31.2l-24.92 87.2zm133.392-41.272-82.008-56.8a792.948 792.948 0 0 0 88.36-44.76l-6.352 101.56zm103.104-78.296-74.12-37.064a803.178 803.178 0 0 0 74.12-53.056v90.12z"/><path d="M479.288 368.246a7.997 7.997 0 0 0-5.247-1.333l-3.144.304a724.546 724.546 0 0 1-450.144-103.36 568.743 568.743 0 0 1-8.52-5.24 8 8 0 0 0-12.16 7.864l16.136 120a8 8 0 0 0 12.632 5.408l77.896-56.656 21.56 107.776a8 8 0 0 0 12.968 4.584l87.408-72.856 36 93.6a8 8 0 0 0 13.392 2.512l72.664-79.928 50.496 86.488a8 8 0 0 0 6.648 4h.264a8.001 8.001 0 0 0 6.624-3.512l66.68-98.544a8.001 8.001 0 0 0-2.153-11.107zm-449.007 2.803-12.112-90.088a772.385 772.385 0 0 0 79.36 41.184l-67.248 48.904zm111.064 55.608-18.768-93.856a745.732 745.732 0 0 0 94.184 31.008l-75.416 62.848zm133.6 23.768-30.808-80.16a731.673 731.673 0 0 0 91.2 13.768l-60.392 66.392zm133.688 8-42.184-72.32a734.825 734.825 0 0 0 92.264-1.696l-50.08 74.016zM416.137 249.409c-13.255 0-24 10.745-24 24s10.745 24 24 24 24-10.745 24-24-10.746-24-24-24zm0 32a8 8 0 1 1 0-16 8 8 0 0 1 0 16zM48.137 417.409c-13.255 0-24 10.745-24 24s10.745 24 24 24 24-10.745 24-24-10.746-24-24-24zm0 32a8 8 0 1 1 0-16 8 8 0 0 1 0 16zM112.137 41.409c-13.255 0-24 10.745-24 24s10.745 24 24 24 24-10.745 24-24-10.746-24-24-24zm0 32a8 8 0 1 1 0-16 8 8 0 0 1 0 16zM10.48 87.066l11.313-11.314L37.791 91.75l-11.314 11.313zM328.137 33.409h16v24h-16zM218.479 27.754l15.997-15.997L245.79 23.07l-15.997 15.998zM146.483 131.748l15.997-15.998 11.314 11.314-15.998 15.998zM426.482 159.069l11.313-11.314 15.998 15.998-11.314 11.313zM288.137 225.409h16v24h-16zM330.48 323.74l15.998-15.998 11.314 11.314-15.998 15.997z"/><path d="m146.482 279.062 11.314-11.313 15.997 15.997-11.313 11.314zM200.137 433.409h16v24h-16zM74.437 391.067l11.314-11.314 15.997 15.998-11.313 11.313zM82.447 467.75l15.997-15.998 11.314 11.313-15.998 15.998zM330.479 459.745l15.997-15.997 11.314 11.313-15.997 15.998z"/>
  </symbol>

  <symbol viewBox="0 0 64 64" id="ico-corporate">
    <path d="M35 43h-6a1 1 0 0 0-1 1v17H1v2h62v-2H36V44a1 1 0 0 0-1-1zm-5 18V45h4v16z"/><path d="M58.29 11H63V9h-3.633l3.514-6.526-1.762-.947L57.095 9h-4.19l-4.024-7.474-1.762.947L50.633 9H47V8a1 1 0 0 0-1-1h-8V4c0-1.654-1.346-3-3-3h-6c-1.654 0-3 1.346-3 3v3h-8a1 1 0 0 0-1 1v1h-3.633l3.514-6.526-1.762-.947L11.095 9h-4.19L2.881 1.526l-1.762.948L4.633 9H1v2h4.71L8 15.252V49H1v2h13.586l-3.293 3.293a.999.999 0 0 0 0 1.414l4 4a.997.997 0 0 0 1.414 0l11-11a.997.997 0 0 0 0-1.414l-4-4a.999.999 0 0 0-1.414 0L16.586 49H10V15.252L12.29 11H17v1a1 1 0 0 0 1 1h1v13a5.01 5.01 0 0 0 4 4.899V32c0 4.963 4.037 9 9 9s9-4.037 9-9v-1.101A5.009 5.009 0 0 0 45 26V13h1a1 1 0 0 0 1-1v-1h4.71L54 15.252V49h-6.586l-5.707-5.707a.999.999 0 0 0-1.414 0l-4 4a.997.997 0 0 0 0 1.414l11 11a.997.997 0 0 0 1.414 0l4-4a.999.999 0 0 0 0-1.414L49.414 51H63v-2h-7V15.252zM23 45.414 25.586 48 16 57.586 13.414 55zM9 12.891 7.982 11h2.036zM28 4a1 1 0 0 1 1-1h6a1 1 0 0 1 1 1v3h-8zm2 33c0-1.103.897-2 2-2s2 .897 2 2-.897 2-2 2-2-.897-2-2zm9-5a6.997 6.997 0 0 1-3.081 5.796A4.004 4.004 0 0 0 32 33a4.004 4.004 0 0 0-3.919 4.796A6.997 6.997 0 0 1 25 32v-3.586l3.293 3.293 1.414-1.414-1.438-1.438L32 22.887l3.731 5.969-1.438 1.438 1.414 1.414L39 28.414zm4-6a2.996 2.996 0 0 1-2 2.816V26a.999.999 0 0 0-1.707-.707l-2.111 2.111-4.334-6.935c-.365-.584-1.33-.584-1.695 0l-4.334 6.935-2.111-2.111A1.001 1.001 0 0 0 23 26v2.816A2.996 2.996 0 0 1 21 26V13h22zm2-15H19V9h26zm3 46.586L38.414 48 41 45.414 50.586 55zM53.982 11h2.036L55 12.891z"/>
  </symbol>

  <symbol viewBox="0 0 60 60" id="ico-birthday-poker">
    <path d="M11 17.163C0 18.779 0 21.193 0 22v32c0 5.932 27.816 6 29 6s29-.068 29-6V22c0-.807-.005-3.221-11-4.837V14a3 3 0 0 0-6 0v2.485c-2.9-.244-5.913-.393-9-.445V15a3 3 0 0 0-6 0v1.04a134 134 0 0 0-9 .445V14a3 3 0 0 0-6 0zm45 25.822C55.62 44.387 46.015 47 29 47c-16.995 0-26.6-2.607-27-4.01v-2.529c8.578 4.684 45.424 4.685 54 0zm0-5C55.619 39.387 46.014 42 29 42c-16.995 0-26.6-2.607-27-4.01v-6.931c2.639.718 3.645-.578 4.911-.962C8 29.768 8.342 30.213 9 31.127a3.922 3.922 0 0 0 2.347 1.853 3.438 3.438 0 0 0 3.163-1.308c1.119-1.082 1.541-1.405 3.352.61.131.146.259.289.38.417a3.747 3.747 0 0 0 5.24.684c1.124-.833 1.845-1.761 2.758-1.454a2.969 2.969 0 0 1 1.612 2.671c.09 1.543 0 3.684 1.267 4.807a2.422 2.422 0 0 0 1.645.6c3.558 0 2.7-5.2 3.4-6.4a1.5 1.5 0 0 1 .977-.77c.974-.187 1.494.792 2.575 1.445.97.619 2.216.602 3.169-.043 1.12-.708 1.816-2.03 2.676-2.131 1.4-.156 2.907 2.621 5.622 2.236 3.022-.437 4.025-3.834 6.4-3.205.142.039.277.1.415.151zm0-13.524V29.2c-2.245-.545-3.661.721-4.8 1.747-2.144 1.934-2.819 1.785-4.666.381-4.933-3.734-5.849 2.41-7.787 1.251-.372-.224-.8-.656-1.235-.985a3.328 3.328 0 0 0-5.074 1.006c-.881 1.495-.452 5.3-1.585 5.4a.468.468 0 0 1-.406-.1c-.591-.524-.553-2.624-.6-3.423a4.874 4.874 0 0 0-2.971-4.453c-3.572-1.193-4.567 4.111-7.169 1.3-1.289-1.37-2.439-2.866-4.455-2.454-1.782.376-2.536 2.333-3.507 2.139-.915-.185-1.363-2.129-3.022-2.8a3.635 3.635 0 0 0-2.4-.035c-1.644.5-2.261 1.663-4.329.762v-4.475c8.584 4.684 45.428 4.684 54.006 0zM29 58c-17.018 0-26.624-2.614-27-4v-8.539c8.578 4.684 45.425 4.684 54 0v8.524C55.624 55.386 46.018 58 29 58zm14-44a1 1 0 0 1 2 0v6a1 1 0 0 1-2 0zm-15 1a1 1 0 0 1 2 0v6a1 1 0 0 1-2 0zm-2 3.04V21a3 3 0 0 0 6 0v-2.96c3.09.053 6.107.2 9 .451V20a3 3 0 0 0 6 0v-.814c6.969 1.057 8.891 2.415 9 2.8-.548 2.025-15.273 4.6-33.027 3.9C9.78 25.368 2.392 23.228 2.006 22c.15-.43 2.1-1.769 8.994-2.814V20a3 3 0 0 0 6 0v-1.509c2.893-.247 5.91-.398 9-.451zM13 14a1 1 0 0 1 2 0v6a1 1 0 0 1-2 0zM15.063 10a4.019 4.019 0 0 0 3.145-1.506c1.215-1.5 1.7-6.433 1.788-7.407A1 1 0 0 0 18.725.039c-.92.263-5.569 1.653-6.791 3.16a4.224 4.224 0 0 0 .522 5.831c.724.626 1.65.97 2.607.97zm-1.575-5.541c.438-.542 2.383-1.387 4.352-2.049-.278 2.128-.741 4.276-1.186 4.824-.345.432-.85.706-1.4.758a2.006 2.006 0 0 1-1.5-.482 2.209 2.209 0 0 1-.266-3.051zM45.063 10a4.019 4.019 0 0 0 3.145-1.506c1.215-1.5 1.7-6.433 1.788-7.407A1 1 0 0 0 48.725.039c-.92.263-5.569 1.653-6.791 3.16a4.224 4.224 0 0 0 .522 5.831c.724.626 1.65.97 2.607.97zm-1.575-5.541c.438-.542 2.383-1.387 4.352-2.049-.278 2.128-.741 4.276-1.186 4.824-.345.432-.85.706-1.4.758a2 2 0 0 1-1.495-.482 2.209 2.209 0 0 1-.271-3.051z"/><path d="M30.063 11a4.019 4.019 0 0 0 3.145-1.506c1.215-1.5 1.7-6.433 1.788-7.407a1 1 0 0 0-1.271-1.048c-.92.263-5.569 1.653-6.791 3.16a4.224 4.224 0 0 0 .522 5.831c.724.626 1.65.97 2.607.97zm-1.575-5.541c.438-.542 2.383-1.387 4.352-2.049-.278 2.128-.741 4.276-1.186 4.824-.345.432-.85.706-1.4.758a2 2 0 0 1-1.5-.482 2.209 2.209 0 0 1-.266-3.051z"/>
  </symbol>
</svg>