<?xml version="1.0" encoding="utf-8"?>
<svg xmlns="http://www.w3.org/2000/svg" xmlns:xlink="http://www.w3.org/1999/xlink">

  <!--default-->
  <symbol viewBox="0 0 32 16" id="ico-menu">
    <path d="M0 1C0 0.447715 0.447715 0 1 0H31C31.5523 0 32 0.447715 32 1C32 1.55228 31.5523 2 31 2H1C0.447715 2 0 1.55228 0 1ZM0 8C0 7.44772 0.447715 7 1 7H31C31.5523 7 32 7.44772 32 8C32 8.55229 31.5523 9 31 9H1C0.447715 9 0 8.55229 0 8ZM1 14C0.447715 14 0 14.4477 0 15C0 15.5523 0.447715 16 1 16H15C15.5523 16 16 15.5523 16 15C16 14.4477 15.5523 14 15 14H1Z"/>
  </symbol>
  <symbol viewBox="0 0 24 24" id="ico-copy">
    <path d="M20.5 24h-12A2.503 2.503 0 0 1 6 21.5v-15C6 5.121 7.122 4 8.5 4h12C21.878 4 23 5.121 23 6.5v15c0 1.379-1.122 2.5-2.5 2.5zM8.5 5C7.673 5 7 5.673 7 6.5v15c0 .827.673 1.5 1.5 1.5h12c.827 0 1.5-.673 1.5-1.5v-15c0-.827-.673-1.5-1.5-1.5z"/><path d="M4.5 21h-1A2.503 2.503 0 0 1 1 18.5v-16C1 1.121 2.122 0 3.5 0h12C16.878 0 18 1.121 18 2.5a.5.5 0 0 1-1 0c0-.827-.673-1.5-1.5-1.5h-12C2.673 1 2 1.673 2 2.5v16c0 .827.673 1.5 1.5 1.5h1a.5.5 0 0 1 0 1zM18.5 17h-8a.5.5 0 0 1 0-1h8a.5.5 0 0 1 0 1zM18.5 21h-8a.5.5 0 0 1 0-1h8a.5.5 0 0 1 0 1z"/><path d="M18.5 13h-8a.5.5 0 0 1 0-1h8a.5.5 0 0 1 0 1zM18.5 9h-8a.5.5 0 0 1 0-1h8a.5.5 0 0 1 0 1z"/>
  </symbol>
  <symbol viewBox="0 0 16 16" id="ico-email">
    <path d="M13.932 2.028H2.072c-1.06 0-1.92.86-1.92 1.919v8.106c0 1.059.86 1.92 1.92 1.92h11.856c1.06 0 1.92-.861 1.92-1.92V3.95a1.919 1.919 0 0 0-1.916-1.922zm1.042 10.025c0 .575-.467 1.042-1.042 1.042H2.072a1.044 1.044 0 0 1-1.043-1.042V3.95c0-.575.468-1.042 1.043-1.042h11.856c.575 0 1.043.467 1.043 1.042v8.103z"/>
    <path d="m10.05 7.9 3.84-3.443a.44.44 0 0 0 .032-.62.44.44 0 0 0-.62-.033L8.008 8.555l-1.033-.922c-.003-.003-.006-.006-.006-.01a.65.65 0 0 0-.072-.061L2.695 3.8a.438.438 0 0 0-.62.036.438.438 0 0 0 .036.62l3.884 3.472-3.868 3.62a.44.44 0 0 0 .6.644L6.655 8.52l1.065.951a.438.438 0 0 0 .585-.003l1.094-.98 3.904 3.708a.438.438 0 1 0 .604-.637z"/>
  </symbol>
  <symbol viewBox="0 0 16 16" id="ico-close">
    <path d="M1.70711 0.292954C1.31658 -0.0975701 0.683417 -0.0975701 0.292893 0.292954C-0.0976311 0.683479 -0.0976311 1.31664 0.292893 1.70717L6.58586 8.00014L0.292971 14.293C-0.0975538 14.6836 -0.0975539 15.3167 0.292971 15.7072C0.683495 16.0978 1.31666 16.0978 1.70718 15.7072L8.00008 9.41435L14.2929 15.7072C14.6834 16.0977 15.3166 16.0977 15.7071 15.7072C16.0976 15.3166 16.0976 14.6835 15.7071 14.293L9.41429 8.00014L15.7072 1.70724C16.0977 1.31672 16.0977 0.683554 15.7072 0.29303C15.3167 -0.0974943 14.6835 -0.0974943 14.293 0.29303L8.00008 6.58592L1.70711 0.292954Z"/>
  </symbol>
  <symbol viewBox="0 0 80 60" id="ico-quote">
    <path d="M34 0V24.6367C34 43.65 21.293 56.5367 3.40579 60L0.017025 52.83C8.29991 49.7733 13.6232 40.7033 13.6232 33.3333H0V0H34Z"/>
    <path d="M80 0V24.6367C80 43.65 67.293 56.5367 49.4058 60L46.017 52.83C54.2999 49.7733 59.6232 40.7033 59.6232 33.3333H46V0H80Z"/>
  </symbol>

  <!--gallery-->
  <symbol viewBox="0 0 31 24" id="ico-arrow-left">
    <path d="M1.26023 11.3272L11.2602 0.327209L12.7401 1.67256L4.26061 11H31V13H4.26082L12.7401 22.3273L11.2602 23.6727L1.26023 12.6726L0.648714 11.9999L1.26023 11.3272Z"/>
  </symbol>
  <symbol viewBox="0 0 31 24" id="ico-arrow-right">
    <path d="M29.7398 11.3272L19.7398 0.327209L18.2599 1.67256L26.7394 11H0V13H26.7392L18.2599 22.3273L19.7398 23.6727L29.7398 12.6726L30.3513 11.9999L29.7398 11.3272Z"/>
  </symbol>

  <!--social-->
  <symbol viewBox="0 0 14 22" id="ico-social-ok">
    <path d="M12.526 5.33418C12.526 8.27578 10.0477 10.6667 7.00071 10.6667C3.95374 10.6667 1.47546 8.27411 1.47546 5.33418C1.47546 2.39257 3.95374 0 7.00071 0C10.0477 0 12.526 2.39257 12.526 5.33418ZM9.28768 5.33418C9.28768 4.1169 8.26159 3.1263 7.00071 3.1263C5.73984 3.1263 4.71374 4.1169 4.71374 5.33418C4.71374 6.55145 5.73984 7.54206 7.00071 7.54206C8.26159 7.54206 9.28768 6.55145 9.28768 5.33418ZM12.4442 13.7342C11.446 14.3403 10.3607 14.7702 9.23551 15.017L12.3242 17.9989C12.9573 18.6084 12.9573 19.5973 12.3242 20.2084C11.6929 20.8179 10.6686 20.8179 10.0373 20.2084L7.00071 17.2786L3.96591 20.2084C3.65113 20.5123 3.23721 20.6651 2.82156 20.6651C2.40764 20.6651 1.99373 20.514 1.6772 20.2084C1.0459 19.5973 1.0459 18.6084 1.6772 17.9989L4.76418 15.017C3.64069 14.7702 2.55547 14.3403 1.5572 13.7342C0.800677 13.2742 0.57285 12.3104 1.05111 11.5801C1.5259 10.848 2.5259 10.6281 3.28243 11.0881C5.54331 12.4615 8.45811 12.4615 10.7207 11.0881C11.4773 10.6281 12.4755 10.848 12.9521 11.5801C13.4286 12.3104 13.2007 13.2742 12.4442 13.7342Z"/>
  </symbol>
  <symbol viewBox="0 0 22 22" id="ico-social-fb">
    <path d="M22 11c0-6.075-4.925-11-11-11S0 4.925 0 11c0 5.49 4.023 10.041 9.281 10.866V14.18H6.488V11h2.793V8.577c0-2.757 1.643-4.28 4.155-4.28 1.204 0 2.462.215 2.462.215v2.707h-1.387c-1.366 0-1.792.848-1.792 1.718V11h3.05l-.487 3.18h-2.563v7.686C17.977 21.041 22 16.49 22 11z"/>
  </symbol>
  <symbol viewBox="0 0 22 13" id="ico-social-vk">
    <path d="M21 12.508l-2.938.037s-.628.126-1.469-.452c-1.105-.753-2.134-2.712-2.95-2.46-.816.263-.791 2.02-.791 2.02s0 .377-.176.578c-.201.226-.603.277-.603.277h-1.306s-2.9.175-5.461-2.486C2.519 7.122.058 1.358.058 1.358S-.08.982.07.794C.246.593.71.58.71.58L3.85.555s.3.05.502.2c.188.139.289.378.289.378s.502 1.28 1.18 2.448c1.318 2.272 1.92 2.762 2.373 2.523.653-.351.452-3.214.452-3.214s.012-1.03-.327-1.494c-.263-.364-.753-.464-.98-.49-.175-.025.114-.439.49-.615C8.396.015 9.4-.01 10.58.003c.917.012 1.18.062 1.544.15 1.08.264.716 1.268.716 3.691 0 .779-.138 1.871.427 2.235.239.151.829.025 2.298-2.473.703-1.18 1.218-2.586 1.218-2.586s.113-.252.288-.352c.176-.113.427-.075.427-.075l3.315-.025s.992-.126 1.155.326c.163.477-.377 1.57-1.72 3.377-2.223 2.963-2.461 2.687-.628 4.395 1.758 1.632 2.122 2.435 2.185 2.523.728 1.218-.804 1.319-.804 1.319z"/>
  </symbol>
  <symbol viewBox="0 0 18 15" id="ico-social-tw">
    <path d="M15.877 2.314A7.412 7.412 0 0 0 18 1.74a7.163 7.163 0 0 1-1.847 1.907c.012.155.012.311.012.48 0 4.88-3.717 10.504-10.505 10.504-2.086 0-4.03-.611-5.66-1.655a7.2 7.2 0 0 0 .887.048 7.364 7.364 0 0 0 4.581-1.583 3.708 3.708 0 0 1-3.441-2.566c.228.048.455.06.695.06.336 0 .66-.048.972-.132a3.68 3.68 0 0 1-2.962-3.61v-.047A3.618 3.618 0 0 0 2.41 5.6 3.668 3.668 0 0 1 .767 2.53c0-.671.18-1.307.504-1.858a10.511 10.511 0 0 0 7.603 3.861A3.695 3.695 0 0 1 12.472 0c1.055 0 2.014.444 2.698 1.163a7.181 7.181 0 0 0 2.338-.9 3.703 3.703 0 0 1-1.63 2.051z"/>
  </symbol>
  <symbol viewBox="0 0 18 18" id="ico-social-in">
    <path d="M5 0a5 5 0 0 0-5 5v8a5 5 0 0 0 5 5h8a5 5 0 0 0 5-5V5a5 5 0 0 0-5-5H5zm10 4.304c0 .652-.522 1.044-1.044 1.044s-1.043-.522-1.043-1.044c0-.652.521-1.043 1.043-1.043.522 0 1.044.391 1.044 1.043zM9 12.13c-1.696 0-3-1.304-3-3s1.304-3 3-3c1.695 0 3 1.304 3 3s-1.305 3-3 3zm0-7.696A4.676 4.676 0 0 0 4.303 9.13a4.676 4.676 0 0 0 4.695 4.696 4.676 4.676 0 0 0 4.696-4.696 4.676 4.676 0 0 0-4.696-4.696z"/>
  </symbol>
  <symbol viewBox="0 0 20 20" id="ico-social-mail">
    <path d="M13.008 9.972c0 1.654-1.35 3-3.008 3a3.007 3.007 0 0 1-3.008-3c0-1.654 1.35-3 3.008-3a3.007 3.007 0 0 1 3.008 3zM10 0C4.486 0 0 4.473 0 9.972c0 5.498 4.486 9.971 10 9.971 2.02 0 3.968-.6 5.633-1.734l.029-.02-1.348-1.562-.023.015A7.932 7.932 0 0 1 10 17.9c-4.384 0-7.95-3.556-7.95-7.927C2.05 5.6 5.616 2.044 10 2.044c4.383 0 7.95 3.557 7.95 7.928 0 .566-.063 1.14-.188 1.704-.251 1.028-.973 1.344-1.516 1.302-.545-.044-1.184-.432-1.188-1.38V9.972c0-2.782-2.27-5.044-5.058-5.044-2.79 0-5.058 2.262-5.058 5.044 0 2.78 2.269 5.044 5.058 5.044a5.025 5.025 0 0 0 3.584-1.49 3.252 3.252 0 0 0 2.767 1.5c.727 0 1.448-.242 2.03-.682.599-.454 1.046-1.11 1.293-1.899.04-.127.113-.419.113-.42l.002-.01c.146-.634.21-1.264.21-2.043C20 4.473 15.515 0 10 0z"/>
  </symbol>
  <symbol viewBox="0 0 16 20" id="ico-social-all">
    <path d="M9.26752 4.83914L5.66797 7.54004L6.86837 9.13984L10.4679 6.43894L9.26752 4.83914Z"/>
    <path d="M4 14C1.8 14 0 12.2 0 10C0 7.8 1.8 6 4 6C6.2 6 8 7.8 8 10C8 12.2 6.2 14 4 14ZM4 8C2.9 8 2 8.9 2 10C2 11.1 2.9 12 4 12C5.1 12 6 11.1 6 10C6 8.9 5.1 8 4 8Z"/>
    <path d="M12 8C9.8 8 8 6.2 8 4C8 1.8 9.8 0 12 0C14.2 0 16 1.8 16 4C16 6.2 14.2 8 12 8ZM12 2C10.9 2 10 2.9 10 4C10 5.1 10.9 6 12 6C13.1 6 14 5.1 14 4C14 2.9 13.1 2 12 2Z"/>
    <path d="M12 20C9.8 20 8 18.2 8 16C8 13.8 9.8 12 12 12C14.2 12 16 13.8 16 16C16 18.2 14.2 20 12 20ZM12 14C10.9 14 10 14.9 10 16C10 17.1 10.9 18 12 18C13.1 18 14 17.1 14 16C14 14.9 13.1 14 12 14Z"/>
    <path d="M6.83752 10.8986L5.63672 12.498L8.83552 14.8996L10.0363 13.3002L6.83752 10.8986Z"/>
  </symbol>

  <!---->
  <symbol viewBox="0 0 16 16" id="ico-search">
    <path  d="M6.03031 12.046C7.44141 12.051 8.8081 11.553 9.88529 10.6415L14.5652 15.3225C14.6152 15.3739 14.6752 15.4147 14.7414 15.4423C14.8076 15.4698 14.8785 15.4837 14.9502 15.483C15.0227 15.4837 15.0945 15.4699 15.1615 15.4424C15.2285 15.4148 15.2893 15.374 15.3403 15.3225C15.3913 15.2717 15.4319 15.2113 15.4595 15.1447C15.4872 15.0782 15.5015 15.0068 15.5015 14.9347C15.5015 14.8627 15.4872 14.7913 15.4595 14.7248C15.4319 14.6583 15.3913 14.5978 15.3403 14.547L10.6603 9.8665C11.5343 8.81198 12.0228 7.49104 12.0452 6.12158C12.0676 4.75211 11.6227 3.4159 10.7836 2.33334C9.94457 1.25077 8.76162 0.486507 7.42985 0.166599C6.09808 -0.153308 4.69702 -0.00975186 3.4578 0.57359C2.21859 1.15693 1.21526 2.14522 0.6132 3.37545C0.0111353 4.60567 -0.153763 6.00437 0.145915 7.34083C0.445592 8.6773 1.19192 9.8717 2.26164 10.7271C3.33136 11.5824 4.66066 12.0476 6.03031 12.046ZM6.03031 1.0795C7.00636 1.0795 7.96046 1.36893 8.77201 1.9112C9.58357 2.45346 10.2161 3.2242 10.5896 4.12596C10.9632 5.02771 11.0608 6.01998 10.8704 6.97728C10.68 7.93457 10.21 8.8139 9.51982 9.50407C8.82964 10.1942 7.95038 10.6643 6.99308 10.8547C6.03579 11.0451 5.04352 10.9474 4.14176 10.5738C3.24001 10.2003 2.46931 9.56779 1.92704 8.75624C1.38478 7.94468 1.09526 6.99055 1.09526 6.0145C1.09631 4.70598 1.61665 3.45136 2.54191 2.5261C3.46717 1.60084 4.7218 1.08056 6.03031 1.0795Z"/>
  </symbol>
  <symbol viewBox="0 0 16 16" id="ico-heart">
    <path d="M302 384c32 0 59-11 81-33s33-49.333 33-82c0-19.333-3.5-37.833-10.5-55.5s-20.333-37.833-40-60.5-37.167-41.333-52.5-56c-15.333-14.667-40.333-38-75-70L208 0l-30 27c-34.667 32-59.667 55.333-75 70-15.333 14.667-32.833 33.333-52.5 56s-33 42.833-40 60.5S0 249.667 0 269c0 32.667 11 60 33 82s49 33 81 33c38 0 69.333-14.667 94-44 24.667 29.333 56 44 94 44z" transform="matrix(.03546 0 0 -.03546 .624 14.72)"/>
  </symbol>
  <symbol viewBox="0 0 16 16" id="ico-view">
    <path d="m 15.808 7.701 c -2.072 -2.089 -4.834 -3.239 -7.777 -3.239 c -0.007 0 -0.014 0.001 -0.021 0.001 -0.004 0 -0.007 -0.001 -0.01 -0.001 -0.01 0 -0.019 0.001 -0.029 0.001 -2.92 0.016 -5.659 1.163 -7.717 3.238 l -0.063 0.063 c -0.106 0.107 -0.105 0.279 0.002 0.385 0.053 0.053 0.122 0.079 0.192 0.079 0.07 0 0.14 -0.027 0.193 -0.081 l 0.063 -0.063 c 1.428 -1.439 3.201 -2.407 5.133 -2.832 -0.8 0.649 -1.313 1.639 -1.313 2.748 c 0 1.951 1.588 3.539 3.539 3.539 1.951 0 3.539 -1.588 3.539 -3.539 0 -1.12 -0.525 -2.119 -1.34 -2.768 1.967 0.414 3.772 1.39 5.222 2.852 0.106 0.107 0.278 0.108 0.385 0.002 0.107 -0.106 0.108 -0.278 0.002 -0.385 z m -7.8 2.477 c -1.201 0 -2.178 -0.977 -2.178 -2.178 0 -1.201 0.977 -2.178 2.178 -2.178 0.15 0 0.272 0.122 0.272 0.272 0 0.15 -0.122 0.272 -0.272 0.272 -0.901 0 -1.633 0.733 -1.633 1.633 0 0.901 0.733 1.633 1.633 1.633 0.901 0 1.633 -0.733 1.633 -1.633 0 -0.15 0.122 -0.272 0.272 -0.272 0.15 0 0.272 0.122 0.272 0.272 0 1.201 -0.977 2.178 -2.178 2.178 z"/>
  </symbol>
  <symbol viewBox="0 0 16 16" id="ico-textarea">
    <path d="M16 2.49782C15.9994 1.82936 15.7381 1.20131 15.2641 0.729264C14.2866 -0.244368 12.6975 -0.243025 11.7211 0.732926L1.63509 10.8424C1.30702 11.1697 1.0566 11.5748 0.910844 12.0142L0.901429 12.0427L0 16L3.97499 15.1116L4.00459 15.1018C4.44478 14.9563 4.85087 14.7065 5.17979 14.3783L15.2672 4.26759C15.7403 3.79469 16.0006 3.16615 16 2.49782ZM2.20429 14.2273L1.7828 13.8063L2.08715 12.4699L3.54629 13.9274L2.20429 14.2273ZM14.3813 3.38551L4.58822 13.2013L2.81483 11.4298L9.52309 4.70607L10.5446 5.72584L11.4293 4.84266L10.4059 3.82106L11.3576 2.86732L12.3828 3.89076L13.2675 3.00758L12.2405 1.98231L12.6069 1.615C13.0954 1.12672 13.8911 1.12599 14.3804 1.61342C14.6177 1.84975 14.7485 2.1642 14.7489 2.49879C14.7491 2.83351 14.6189 3.14808 14.3813 3.38551ZM6.5817 14.7374H16V15.9864H5.33484L6.5817 14.7374Z"/>
  </symbol>
  <symbol viewBox="0 0 16 16" id="ico-delete">
    <path d="m 310.94 369.93 l 0 -13.668 l -18.224 0 l -21.869 -265.16 q 0 -10.934 -7.745 -18.68 -7.745 -7.745 -18.68 -7.745 l -128.48 0 q -10.934 0 -18.68 7.745 -7.745 7.745 -7.745 18.68 l -21.869 265.16 l -19.14 0 l 0 13.668 l 72.896 0 l 0 18.224 q 0 10.934 7.745 18.68 7.745 7.745 18.68 7.745 l 63.784 0 q 10.934 0 18.68 -7.745 7.745 -7.745 7.745 -18.68 l 0 -18.224 z m -175.86 18.224 l 0 -18.224 l 89.3 0 l 0 18.224 q 0 12.757 -12.757 12.757 l -63.784 0 q -12.757 0 -12.757 -12.757 z m 123.01 -296.14 20.958 264.25 l -197.73 0 l 20.958 -264.25 l 0 -0.911 q 0 -12.757 13.668 -12.757 l 128.48 0 q 13.668 0 13.668 12.757 z m -84.74 15.49 l 0 219.6 l 12.757 0 l 0 -219.6 m 51.938 219.6 -10.02 -219.6 l -12.757 0 l 9.112 219.6 z m -103.88 0 10.02 -219.6 l -12.757 0 l -10.02 219.6 z" stroke-width="0.911" transform="matrix(0.0451 0 0 -0.0451 -0.106 18.808)"/>
  </symbol>
  <symbol viewBox="0 0 16 16" id="ico-edit">
    <path d="M12.684 9.556 11.07 7.943l2.668-2.669 1.34-1.34c.223-.222.345-.52.345-.837 0-.317-.122-.614-.345-.837L13.739.92a1.176 1.176 0 0 0-.837-.345c-.317 0-.615.123-.838.346L8.056 4.929 3.772.644a.237.237 0 0 0-.335 0L.644 3.437a.237.237 0 0 0 0 .335l3.782 3.782a.236.236 0 1 0 .335-.335L1.147 3.605l.335-.335 3.614 3.614a.236.236 0 1 0 .335-.335L1.817 2.935l1.787-1.788.556.556-.503.502a.237.237 0 1 0 .335.335l.503-.502.555.555-.503.503a.237.237 0 1 0 .335.335l.503-.503.556.556-.503.502a.237.237 0 1 0 .335.335l.503-.502.555.555-.503.503a.237.237 0 1 0 .336.335l.502-.503.556.556-5.738 5.737a.234.234 0 0 0-.017.02l-.004.005a.236.236 0 0 0-.012.016l-.003.006a.226.226 0 0 0-.01.017l-.002.007a.237.237 0 0 0-.008.017l-.001.005-1.34 4.018a.237.237 0 0 0 .3.3l4.019-1.34.004-.001a.253.253 0 0 0 .041-.02l.007-.003a.244.244 0 0 0 .015-.011l.006-.004a.239.239 0 0 0 .02-.018l5.737-5.737.555.555-.502.503a.237.237 0 1 0 .335.335l.502-.503.556.556-.503.502a.237.237 0 1 0 .335.335l.503-.502.555.555-.502.503a.237.237 0 1 0 .335.335l.503-.503.555.556-.503.502a.237.237 0 1 0 .335.336l.503-.503.555.555-1.787 1.787-3.614-3.614a.237.237 0 0 0-.335.335l3.614 3.614-.335.335-3.615-3.614a.237.237 0 0 0-.335.335l3.782 3.782a.236.236 0 0 0 .335 0l2.793-2.793a.237.237 0 0 0 0-.335zm-.284-8.3a.705.705 0 0 1 .502-.207c.19 0 .369.074.502.207l1.34 1.34a.711.711 0 0 1 0 1.004l-1.172 1.172-2.344-2.344zM1.187 14.813l.398-1.196.798.797zm1.698-.566-1.132-1.133.502-1.506 2.137 2.137zm1.946-.734L2.486 11.17 10 3.656l1.004 1.004-7.01 7.011a.237.237 0 1 0 .334.335l7.011-7.01.502.502a.236.236 0 1 0 .336-.336l-.67-.67-1.172-1.171.558-.558 2.344 2.344z"/>
  </symbol>
  <symbol viewBox="0 0 16 16" id="ico-phone">
    <path d="M12.2567 10.1102C12.1164 9.95395 11.9454 9.82822 11.7545 9.74083C11.5635 9.65344 11.3566 9.60626 11.1467 9.60221C10.9358 9.60743 10.728 9.65475 10.5357 9.74139C10.3434 9.82803 10.1703 9.95223 10.0267 10.1067L8.99164 11.1352C8.90664 11.0892 8.82164 11.0472 8.73664 11.0042C8.62164 10.9457 8.50669 10.8897 8.41169 10.8312C7.38574 10.1648 6.47537 9.33539 5.71662 8.37571C5.36452 7.94967 5.06719 7.48119 4.83161 6.98121C5.10161 6.73571 5.34662 6.4812 5.59162 6.2347C5.68162 6.1432 5.77664 6.0482 5.86664 5.9567C6.02885 5.8159 6.15897 5.64189 6.24811 5.44647C6.33726 5.25104 6.38337 5.03875 6.38337 4.82396C6.38337 4.60916 6.33726 4.39687 6.24811 4.20144C6.15897 4.00601 6.02885 3.83201 5.86664 3.6912L4.97162 2.7977C4.87162 2.6977 4.76669 2.59121 4.66669 2.48621C4.47169 2.28321 4.2617 2.0737 4.0517 1.8777C3.90926 1.72874 3.73868 1.60949 3.54987 1.52684C3.36106 1.44419 3.15768 1.39979 2.9516 1.39621C2.53135 1.4051 2.13123 1.57789 1.83661 1.8777C1.83161 1.8807 1.83161 1.88071 1.83161 1.88421L0.716619 3.00721C0.302677 3.41127 0.0502876 3.95239 0.00665789 4.52921C-0.0336944 5.35991 0.109757 6.18928 0.426702 6.9582C1.01161 8.48602 1.85929 9.89968 2.93158 11.1352C4.33852 12.8258 6.09116 14.1955 8.0716 15.1522C8.97062 15.616 9.94972 15.9045 10.9566 16.0022C11.0216 16.0057 11.0967 16.0087 11.1617 16.0087C11.5166 16.0174 11.8691 15.9494 12.1953 15.8093C12.5214 15.6693 12.8136 15.4605 13.0517 15.1972C13.0567 15.1907 13.0616 15.1872 13.0666 15.1807C13.246 14.9717 13.4381 14.7738 13.6417 14.5882C13.7817 14.4542 13.9266 14.3132 14.0666 14.1657C14.3739 13.8679 14.5517 13.4611 14.5616 13.0332C14.5571 12.8218 14.51 12.6134 14.4233 12.4206C14.3365 12.2277 14.2118 12.0543 14.0566 11.9107L12.2567 10.1102ZM13.4316 13.5572C13.4266 13.5572 13.4266 13.5602 13.4316 13.5572C13.3016 13.6947 13.1717 13.8192 13.0317 13.9572C12.8087 14.1643 12.5967 14.3829 12.3967 14.6122C12.2422 14.7837 12.0521 14.9192 11.8395 15.0091C11.627 15.0991 11.3973 15.1413 11.1667 15.1327C11.1167 15.1327 11.0617 15.1327 11.0117 15.1292C10.1195 15.0369 9.25259 14.7772 8.45661 14.3637C6.59288 13.4602 4.94298 12.17 3.61664 10.5792C2.60961 9.4165 1.8112 8.08845 1.25666 6.65371C0.981475 6.00678 0.856685 5.30585 0.891668 4.6037C0.916422 4.23523 1.07668 3.88898 1.34162 3.6317L2.46161 2.51521C2.59099 2.37751 2.76803 2.29435 2.95661 2.2827C3.1405 2.29292 3.31295 2.3752 3.43659 2.5117C3.44159 2.5152 3.4416 2.51821 3.4466 2.52171C3.6466 2.70821 3.83669 2.9017 4.03669 3.1077C4.13669 3.2127 4.24162 3.31721 4.34662 3.42571L5.24164 4.3192C5.32275 4.37662 5.38886 4.45265 5.43451 4.54091C5.48017 4.62917 5.50409 4.72709 5.50409 4.82645C5.50409 4.92582 5.48017 5.02374 5.43451 5.112C5.38886 5.20026 5.32275 5.27629 5.24164 5.33371C5.14664 5.42871 5.05661 5.5237 4.96161 5.6152C4.68661 5.8967 4.42166 6.1587 4.13666 6.4152C4.13166 6.4217 4.12665 6.42521 4.12165 6.43171C4.02093 6.52344 3.95062 6.64377 3.92023 6.77658C3.88985 6.90938 3.90079 7.0483 3.9516 7.1747C3.9566 7.1842 3.95661 7.1942 3.96161 7.2037C4.23171 7.82603 4.58865 8.40696 5.02167 8.9292V8.9327C5.84133 9.96863 6.82612 10.8623 7.93659 11.5777C8.07159 11.6627 8.20661 11.7312 8.33661 11.7967C8.45661 11.8557 8.56669 11.9117 8.66169 11.9707C8.6757 11.9769 8.68901 11.9845 8.7016 11.9932C8.83516 12.0659 8.98941 12.0913 9.13923 12.0652C9.28904 12.039 9.42566 11.9629 9.52668 11.8492L10.6467 10.7297C10.774 10.5873 10.9513 10.4994 11.1417 10.4842C11.2323 10.4894 11.3208 10.5133 11.4017 10.5544C11.4826 10.5955 11.5541 10.653 11.6116 10.7232L11.6216 10.7297L13.4267 12.5337C13.505 12.5936 13.5686 12.6706 13.6125 12.7589C13.6564 12.8472 13.6794 12.9444 13.6799 13.043C13.6804 13.1416 13.6582 13.239 13.6152 13.3277C13.5721 13.4164 13.5093 13.4941 13.4316 13.5547V13.5572ZM8.37665 4.1912C9.23273 4.34 10.022 4.74937 10.6368 5.36342C11.2516 5.97748 11.6618 6.7663 11.8116 7.6222C11.8283 7.7252 11.8814 7.8188 11.9612 7.88604C12.041 7.95327 12.1423 7.9897 12.2466 7.98871C12.2718 7.98828 12.2968 7.98611 12.3216 7.9822C12.3792 7.973 12.4346 7.95243 12.4842 7.9217C12.5338 7.89098 12.5768 7.85071 12.6108 7.80322C12.6447 7.75573 12.6689 7.70198 12.682 7.64507C12.695 7.58816 12.6965 7.52923 12.6866 7.47171C12.5058 6.4354 12.0091 5.48033 11.2643 4.73738C10.5196 3.99443 9.56342 3.49995 8.52668 3.32171C8.41142 3.3032 8.29351 3.33057 8.19819 3.39795C8.10286 3.46533 8.03768 3.56737 8.01667 3.68221C8.00699 3.73911 8.00856 3.79736 8.02143 3.85362C8.03429 3.90989 8.05818 3.96306 8.09162 4.01011C8.12506 4.05715 8.16747 4.09714 8.21637 4.12779C8.26528 4.15843 8.31973 4.17914 8.37665 4.18871V4.1912ZM15.4966 7.34371C15.1993 5.63784 14.3821 4.06553 13.1568 2.84201C11.9315 1.61849 10.358 0.803538 8.65168 0.508706C8.59361 0.497 8.5338 0.4971 8.47577 0.508999C8.41774 0.520898 8.36268 0.544351 8.31391 0.577965C8.26513 0.611579 8.22362 0.654667 8.19184 0.704659C8.16006 0.754651 8.13858 0.810526 8.12885 0.868958C8.11912 0.92739 8.12134 0.98718 8.1352 1.04477C8.14905 1.10237 8.17429 1.15658 8.20954 1.20419C8.24478 1.2518 8.28924 1.29183 8.34028 1.3219C8.39132 1.35197 8.44793 1.37146 8.50666 1.3792C10.0323 1.64069 11.4394 2.36848 12.5345 3.46245C13.6295 4.55643 14.3587 5.96283 14.6216 7.4882C14.6403 7.59122 14.6946 7.68439 14.7751 7.7514C14.8555 7.81841 14.9569 7.85497 15.0616 7.8547C15.0867 7.85382 15.1118 7.85164 15.1367 7.8482C15.1938 7.83908 15.2486 7.81864 15.2978 7.78809C15.347 7.75754 15.3895 7.71749 15.423 7.67028C15.4566 7.62308 15.4804 7.56965 15.493 7.51315C15.5056 7.45665 15.5069 7.39819 15.4966 7.34121V7.34371Z"/>
  </symbol>

  <symbol viewBox="0 0 16 16" id="ico-map">
    <path d="M31.614 6.607C28.714 2.408 24.116 0 19.001 0 13.887 0 9.29 2.408 6.388 6.607c-2.887 4.177-3.553 9.466-1.787 14.138.473 1.276 1.224 2.516 2.228 3.678l11.16 13.11a1.328 1.328 0 0 0 2.024 0L31.17 24.425c1.008-1.168 1.759-2.406 2.227-3.672 1.77-4.681 1.104-9.97-1.783-14.147z" transform="matrix(.3644 0 0 .38481 1.076 .689)"/>
    <path style="fill:var(--map-layer)" d="M19 22.391a7.08 7.08 0 0 1-7.071-7.072A7.08 7.08 0 0 1 19 8.248a7.08 7.08 0 0 1 7.072 7.071A7.08 7.08 0 0 1 19 22.391z" transform="matrix(.3644 0 0 .38481 1.076 .689)"/>
  </symbol>

  <symbol viewBox="0 0 16 16" id="ico-send">
    <path d="M15.68 1.305a.247.247 0 0 0-.262-.053L.403 7.083a.247.247 0 0 0-.032.446l3.112 1.754 1.08 5.278a.247.247 0 0 0 .42.13l2.342-2.349a.248.248 0 0 0-.35-.35l-1.84 1.845.397-3.404 5.62 3.084a.247.247 0 0 0 .353-.138L15.74 1.566a.247.247 0 0 0-.06-.26zM1.07 7.355 13.342 2.59 3.694 8.833m1.48 1.013a.248.248 0 0 0-.091.17l-.343 2.94-.761-3.718 8.334-5.393m-1.177 9.099-5.37-2.948 9.2-7.734"/>
  </symbol>
  <symbol viewBox="0 0 16 16" id="ico-home">
    <path d="m15.32 7.35-2.216-2.058v-3.37h-2.552v1.001L8 .553.682 7.35a.255.255 0 0 0 .348.374l.846-.786v8.51h12.248v-8.51l.847.786a.254.254 0 0 0 .36-.014.256.256 0 0 0-.013-.36zm-4.256-4.917h1.53V4.82l-1.53-1.422M6.47 14.936V9.56a.24.24 0 0 1 .239-.238h2.583a.24.24 0 0 1 .24.238v5.375zm7.144 0h-3.572V9.56a.75.75 0 0 0-.75-.749H6.71a.75.75 0 0 0-.75.75v5.374H2.388V6.463L8.002 1.25l3.643 3.384 1.46 1.355.51.473z"/>
  </symbol>
  <symbol viewBox="0 0 16 16" id="ico-create">
    <path d="M14.533 1.466a2.356 2.356 0 0 0-3.327 0l-9.427 9.427c-.005.005-.007.01-.01.015-.007.006-.011.013-.016.02a.26.26 0 0 0-.033.062c-.002.007-.006.013-.007.02l-.004.008L.785 14.9a.256.256 0 0 0-.005.052l-.001.01c0 .03.006.059.017.087l.007.019a.265.265 0 0 0 .051.077.262.262 0 0 0 .246.07l3.882-.924.02-.008a.252.252 0 0 0 .078-.042l.019-.015.007-.005 9.427-9.427a2.355 2.355 0 0 0 0-3.328zm-.37.37c.651.65.707 1.672.17 2.388l-2.558-2.558a1.833 1.833 0 0 1 2.389.17M12.87 5.718 10.282 3.13l.37-.37 2.588 2.588M2.076 13.925a.261.261 0 0 0-.37 0l-.198.198.668-2.805 1.156-.128-.15 1.34c0 .01.003.019.003.028 0 .01-.003.019-.002.029 0 .008.005.016.007.024a.261.261 0 0 0 .105.159c.012.008.023.016.036.022a.29.29 0 0 0 .054.017c.01.002.018.008.028.009l.029.002c.01 0 .02 0 .03-.002l1.339-.149-.129 1.156-2.804.668.197-.198a.261.261 0 0 0 0-.37zm3.28-1.432 5.85-5.85a.261.261 0 1 0-.37-.37l-5.85 5.85-1.247.138.138-1.247 5.85-5.85a.261.261 0 1 0-.369-.37l-5.85 5.85-.832.093 7.237-7.238 2.588 2.588-7.237 7.238m8.345-8.346L11.02 2.391l.37-.37 2.588 2.589"/>
  </symbol> 

  <symbol viewBox="0 0 16 16" id="ico-back">
    <path d="m15.548 15.293-.398-.667c-3.053-5.13-7.232-4.816-8.255-4.649v4.043L.221 7.331 6.895.707v3.98h.102c3.71 0 5.422 1.56 5.496 1.629 4.083 3.398 3.211 8.167 3.202 8.214zM7.778 9.33c1.72 0 4.885.57 7.408 4.252.038-1.444-.265-4.474-3.085-6.82-.03-.026-1.76-1.59-5.493-1.475l-.305.009V2.131L1.06 7.334l5.243 5.254V9.501l.225-.055c.016-.004.493-.115 1.25-.115z"/>
  </symbol> 
  <symbol viewBox="0 0 16 16" id="ico-arrow-up">
    <path d="M7.483 2.37v12.724a.517.517 0 1 0 1.035 0V2.369l4.292 4.292.731-.73L8 .388 2.459 5.93l.73.731z"/>
  </symbol> 

</svg>