<svg xmlns="http://www.w3.org/2000/svg" viewBox="0 0 60.000002 60.000003"><g fill="#fff"><path d="m 32.186,18.794 -7.726,2.067 -2.463,-1.422 2.627,-0.703 c 0.269,-0.071 0.426,-0.346 0.354,-0.612 -0.072,-0.266 -0.345,-0.426 -0.612,-0.354 l -3.594,0.962 -2.458,-1.418 2.46,-1.42 3.592,0.963 c 0.044,0.012 0.087,0.017 0.13,0.017 0.221,0 0.424,-0.147 0.483,-0.371 0.07,-0.267 -0.087,-0.541 -0.354,-0.612 l -2.627,-0.704 2.465,-1.422 7.724,2.069 c 0.043,0.012 0.086,0.017 0.129,0.017 0.221,0 0.423,-0.147 0.481,-0.371 0.072,-0.267 -0.086,-0.541 -0.354,-0.612 l -6.757,-1.81 3.019,-1.742 2.948,0.791 c 0.044,0.012 0.087,0.017 0.13,0.017 0.221,0 0.424,-0.147 0.483,-0.371 0.07,-0.267 -0.087,-0.541 -0.354,-0.612 L 29.93,10.609 32.127,9.34 C 32.365,9.202 32.447,8.896 32.311,8.657 32.172,8.417 31.867,8.336 31.627,8.474 L 29.432,9.742 29.961,7.763 C 30.033,7.496 29.875,7.222 29.607,7.151 29.338,7.082 29.066,7.238 28.994,7.505 l -0.789,2.947 -3.018,1.743 1.811,-6.755 C 27.069,5.173 26.912,4.899 26.644,4.828 26.373,4.758 26.103,4.914 26.031,5.182 l -2.068,7.721 -2.465,1.423 0.705,-2.626 c 0.07,-0.267 -0.088,-0.541 -0.354,-0.612 -0.271,-0.07 -0.54,0.087 -0.613,0.354 l -0.963,3.592 -2.458,1.416 v -2.84 l 2.63,-2.631 c 0.195,-0.195 0.195,-0.512 0,-0.707 -0.194,-0.195 -0.512,-0.195 -0.707,0 l -1.923,1.924 V 9.349 l 5.651,-5.653 c 0.195,-0.195 0.195,-0.512 0,-0.707 -0.194,-0.195 -0.512,-0.195 -0.707,0 L 17.815,7.935 V 4.451 l 2.158,-2.158 c 0.194,-0.195 0.194,-0.512 0,-0.707 -0.195,-0.195 -0.513,-0.195 -0.707,0 L 17.815,3.037 V 0.5 c 0,-0.276 -0.226,-0.5 -0.5,-0.5 -0.275,0 -0.5,0.224 -0.5,0.5 V 3.036 L 15.363,1.585 c -0.195,-0.195 -0.512,-0.195 -0.707,0 -0.195,0.195 -0.195,0.512 0,0.707 L 16.814,4.45 V 7.934 L 11.87,2.988 c -0.195,-0.195 -0.512,-0.195 -0.707,0 -0.195,0.195 -0.195,0.512 0,0.707 l 5.652,5.653 v 2.847 l -1.923,-1.924 c -0.195,-0.195 -0.514,-0.195 -0.707,0 -0.195,0.195 -0.195,0.512 0,0.707 l 2.63,2.631 v 2.839 l -2.459,-1.42 -0.963,-3.592 c -0.072,-0.267 -0.345,-0.424 -0.613,-0.354 -0.267,0.071 -0.425,0.346 -0.354,0.612 L 13.129,14.32 10.664,12.897 8.597,5.176 C 8.525,4.909 8.253,4.752 7.984,4.822 7.716,4.893 7.559,5.168 7.629,5.434 L 9.441,12.189 6.421,10.446 5.633,7.499 C 5.563,7.231 5.291,7.075 5.022,7.145 4.754,7.216 4.597,7.491 4.667,7.757 L 5.198,9.738 3.003,8.47 C 2.766,8.334 2.458,8.414 2.32,8.653 2.181,8.892 2.263,9.198 2.503,9.336 L 4.7,10.605 2.716,11.137 c -0.267,0.071 -0.424,0.346 -0.354,0.612 0.061,0.224 0.264,0.371 0.481,0.371 0.045,0 0.088,-0.005 0.132,-0.017 l 2.948,-0.791 3.019,1.742 -6.757,1.81 c -0.27,0.071 -0.428,0.346 -0.354,0.612 0.061,0.224 0.262,0.371 0.482,0.371 0.043,0 0.086,-0.005 0.129,-0.017 l 7.724,-2.069 2.463,1.422 -2.627,0.704 c -0.267,0.071 -0.424,0.346 -0.354,0.612 0.061,0.224 0.264,0.371 0.481,0.371 0.043,0 0.086,-0.005 0.132,-0.017 l 3.592,-0.963 2.46,1.42 -2.459,1.42 -3.596,-0.962 c -0.262,-0.072 -0.538,0.087 -0.61,0.354 -0.07,0.267 0.087,0.541 0.354,0.61 l 2.627,0.705 -2.465,1.422 -7.723,-2.067 c -0.261,-0.069 -0.54,0.086 -0.611,0.354 -0.073,0.268 0.086,0.541 0.354,0.61 l 6.757,1.812 -3.02,1.742 -2.946,-0.789 c -0.269,-0.072 -0.54,0.086 -0.613,0.354 -0.07,0.268 0.087,0.541 0.354,0.611 l 1.982,0.531 -2.198,1.27 c -0.237,0.139 -0.319,0.443 -0.183,0.684 0.093,0.16 0.261,0.25 0.433,0.25 0.086,0 0.172,-0.021 0.25,-0.066 l 2.197,-1.27 -0.531,1.98 c -0.069,0.268 0.088,0.541 0.354,0.611 0.043,0.012 0.086,0.018 0.129,0.018 0.222,0 0.423,-0.146 0.482,-0.371 L 6.42,24.176 9.438,22.436 7.626,29.19 c -0.069,0.269 0.088,0.541 0.354,0.611 0.044,0.014 0.087,0.018 0.13,0.018 0.221,0 0.424,-0.146 0.481,-0.371 l 2.068,-7.721 2.465,-1.424 -0.703,2.627 c -0.069,0.268 0.088,0.541 0.354,0.611 0.043,0.012 0.086,0.018 0.129,0.018 0.222,0 0.423,-0.146 0.483,-0.371 l 0.962,-3.592 2.459,-1.42 v 2.838 l -2.63,2.631 c -0.195,0.194 -0.195,0.512 0,0.707 0.194,0.194 0.512,0.194 0.707,0 l 1.926,-1.918 v 2.846 l -5.652,5.654 c -0.195,0.194 -0.195,0.512 0,0.707 0.195,0.194 0.512,0.194 0.707,0 l 4.945,-4.947 v 3.484 l -2.158,2.157 c -0.195,0.194 -0.195,0.513 0,0.707 0.195,0.194 0.512,0.194 0.707,0 l 1.451,-1.451 v 2.537 c 0,0.274 0.225,0.5 0.5,0.5 0.274,0 0.5,-0.226 0.5,-0.5 v -2.537 l 1.451,1.451 c 0.098,0.099 0.226,0.146 0.354,0.146 0.129,0 0.256,-0.049 0.354,-0.146 0.193,-0.194 0.193,-0.513 0,-0.707 l -2.159,-2.157 v -3.484 l 4.944,4.947 c 0.099,0.098 0.227,0.146 0.354,0.146 0.129,0 0.256,-0.05 0.354,-0.146 0.195,-0.195 0.195,-0.513 0,-0.707 L 17.812,25.28 v -2.846 l 1.923,1.924 c 0.099,0.098 0.226,0.146 0.354,0.146 0.127,0 0.257,-0.049 0.354,-0.146 0.195,-0.195 0.195,-0.512 0,-0.707 L 17.812,21.02 v -2.84 l 2.459,1.42 0.962,3.592 c 0.062,0.225 0.263,0.371 0.482,0.371 0.041,0 0.087,-0.004 0.13,-0.017 0.268,-0.071 0.426,-0.347 0.354,-0.612 l -0.703,-2.625 2.463,1.422 2.068,7.723 c 0.061,0.223 0.264,0.369 0.483,0.369 0.043,0 0.086,-0.004 0.13,-0.016 0.268,-0.072 0.425,-0.347 0.354,-0.613 l -1.812,-6.756 3.021,1.744 0.789,2.946 c 0.062,0.224 0.262,0.371 0.482,0.371 0.042,0 0.086,-0.006 0.129,-0.019 0.268,-0.069 0.426,-0.346 0.354,-0.61 l -0.529,-1.981 2.195,1.27 c 0.08,0.045 0.166,0.066 0.25,0.066 0.172,0 0.342,-0.088 0.435,-0.25 0.139,-0.238 0.057,-0.545 -0.185,-0.683 l -2.195,-1.271 1.98,-0.531 c 0.268,-0.069 0.426,-0.346 0.354,-0.61 -0.072,-0.269 -0.344,-0.426 -0.613,-0.354 l -2.946,0.791 -3.02,-1.744 6.757,-1.809 c 0.269,-0.072 0.427,-0.347 0.354,-0.613 -0.068,-0.269 -0.342,-0.426 -0.608,-0.357 z" fill="#fff" transform="matrix(1.65912 0 0 1.65912 1.275 1.274)"/></g></svg>