<svg xmlns="http://www.w3.org/2000/svg" viewBox="0 0 59.999999 59.999999"><g transform="matrix(0.37655 0.37655 -0.37655 0.37655 30 1.985)" fill="#fff"><path d="m 18.149,28.569 c -0.394,0 -0.779,-0.193 -1.009,-0.549 L 0.23,1.851 c -0.307,-0.476 -0.24,-1.1 0.159,-1.5 0.4,-0.4 1.024,-0.466 1.5,-0.159 l 26.169,16.91 c 0.557,0.359 0.716,1.102 0.357,1.659 -0.359,0.558 -1.104,0.716 -1.659,0.356 L 5.276,5.238 19.156,26.717 c 0.359,0.557 0.2,1.3 -0.356,1.659 -0.202,0.131 -0.428,0.193 -0.651,0.193 z"/><path d="m 56.25 28.569 c -0.224 0 -0.449 -0.063 -0.65 -0.192 -0.557 -0.359 -0.716 -1.102 -0.356 -1.659 l 13.878 -21.48 -21.479 13.88 c -0.555 0.359 -1.3 0.201 -1.659 -0.356 -0.359 -0.557 -0.2 -1.3 0.356 -1.659 l 26.17 -16.91 c 0.476 -0.306 1.101 -0.24 1.5 0.159 0.399 0.4 0.466 1.024 0.159 1.5 l -16.909 26.17 c -0.229 0.356 -0.615 0.549 -1.01 0.549 z"/><path d="m 1.238,74.4 c -0.309,0 -0.617,-0.12 -0.849,-0.352 -0.399,-0.4 -0.466,-1.024 -0.159,-1.5 L 17.14,46.38 c 0.359,-0.558 1.104,-0.715 1.659,-0.356 0.557,0.359 0.716,1.103 0.356,1.659 l -13.88,21.48 21.479,-13.88 c 0.556,-0.358 1.3,-0.2 1.659,0.356 0.359,0.557 0.2,1.3 -0.357,1.659 L 1.889,74.208 C 1.689,74.337 1.463,74.4 1.238,74.4 Z"/><path d="m 73.16 74.4 c -0.226 0 -0.451 -0.063 -0.651 -0.192 l -26.17 -16.91 c -0.557 -0.359 -0.716 -1.103 -0.356 -1.659 0.359 -0.557 1.104 -0.715 1.659 -0.356 l 21.479 13.88 -13.879 -21.48 c -0.359 -0.557 -0.2 -1.3 0.356 -1.659 0.555 -0.358 1.3 -0.201 1.659 0.356 l 16.91 26.17 c 0.307 0.476 0.24 1.1 -0.159 1.5 c -0.231 0.231 -0.539 0.351 -0.849 0.351"/><path d="m 37.2 70.787 c -0.527 0 -0.993 -0.345 -1.147 -0.849 l -7.401 -24.19 -24.19 -7.401 c -0.504 -0.154 -0.849 -0.62 -0.849 -1.147 0 -0.527 0.345 -0.993 0.849 -1.147 l 24.19 -7.401 7.401 -24.19 c 0.154 -0.504 0.62 -0.849 1.147 -0.849 0.527 0 0.993 0.345 1.148 0.849 l 7.401 24.19 24.19 7.401 c 0.504 0.154 0.849 0.62 0.849 1.147 0 0.527 -0.345 0.993 -0.849 1.147 l -24.19 7.401 -7.401 24.19 c -0.155 0.504 -0.621 0.849 -1.148 0.849 z m -28.29 -33.587 l 21.05 6.44 c 0.381 0.116 0.68 0.415 0.796 0.796 l 6.44 21.05 6.441 -21.05 c 0.116 -0.381 0.415 -0.68 0.796 -0.796 l 21.05 -6.44 -21.05 -6.44 c -0.381 -0.116 -0.68 -0.415 -0.796 -0.796 l -6.44 -21.05 -6.44 21.05 c -0.116 0.381 -0.415 0.68 -0.796 0.796 z"/></g></svg>