<svg xmlns="http://www.w3.org/2000/svg" xmlns:xlink="http://www.w3.org/1999/xlink" viewBox="0 0 75.999997 43.999998"><defs><linearGradient xlink:href="#0" id="4" x1="-83.74" x2="114.23" gradientUnits="userSpaceOnUse"/><linearGradient xlink:href="#0" id="5" x1="-99.23" x2="98.74" gradientUnits="userSpaceOnUse"/><linearGradient xlink:href="#0" id="3" x1="-52.749" x2="145.22" gradientUnits="userSpaceOnUse"/><linearGradient id="1" x1="-67.06" x2="-26.38" gradientUnits="userSpaceOnUse"><stop stop-color="#5d5bb3"/><stop offset="1" stop-color="#4051ab"/></linearGradient><linearGradient id="0"><stop stop-color="#fff"/><stop offset="1" stop-color="#fff" stop-opacity="0"/></linearGradient><linearGradient xlink:href="#0" id="2" x1="-68.24" x2="129.73" gradientUnits="userSpaceOnUse"/></defs><g transform="matrix(-0.12885 0.08606 -0.15125 -0.03416 47.24 19.575)"><path d="m 135.35 64.69 -186.41 -186.41 c -2.259 -2.26 -2.259 -5.92 0 -8.177 2.257 -2.259 5.919 -2.259 8.176 0 l 186.41 186.41 c 2.257 2.259 2.257 5.92 0 8.177 -2.257 2.257 -5.919 2.257 -8.177 0" fill="url(#3)"/><path d="m 119.86 80.19 -186.41 -186.41 c -2.259 -2.259 -2.259 -5.919 0 -8.177 2.257 -2.259 5.919 -2.259 8.176 0 l 186.41 186.41 c 2.257 2.257 2.257 5.919 0 8.176 -2.257 2.259 -5.919 2.259 -8.177 0" fill="url(#2)"/><path d="m 104.36 95.68 -186.41 -186.41 c -2.257 -2.259 -2.257 -5.919 0 -8.177 2.259 -2.259 5.92 -2.259 8.177 0 l 186.41 186.41 c 2.257 2.257 2.257 5.919 0 8.176 -2.257 2.259 -5.92 2.259 -8.177 0" fill="url(#4)"/><path d="m 88.87 111.18 -186.41 -186.41 c -2.257 -2.259 -2.257 -5.919 0 -8.177 2.259 -2.259 5.92 -2.259 8.177 0 l 186.41 186.41 c 2.257 2.257 2.257 5.919 0 8.176 -2.259 2.259 -5.92 2.259 -8.177 0" fill="url(#5)"/></g><g transform="translate(29.13 -203.87)" aria-label="Big" fill="#fff" stroke-width="0.265"><path d="m 17.913 238.01 l -10.03 0 l 0 -0.544 c 1.242 -0.078 2.075 -0.311 2.498 -0.699 0.451 -0.388 0.677 -1.01 0.677 -1.865 l 0 -9.442 c 0 -1.113 -0.099 -1.878 -0.296 -2.293 -0.169 -0.414 -0.536 -0.621 -1.101 -0.621 -0.367 0 -0.959 0.104 -1.778 0.311 l 0 -0.544 l 6.589 -1.739 0.184 14.327 c 0.011 0.88 0.226 1.515 0.677 1.904 0.451 0.363 1.312 0.583 2.582 0.661 z" stroke-width="0.254"/><path d="M 38.544,221.67 H 35.03 q 0.804,1.736 0.804,3.641 0,2.963 -1.99,4.741 -1.99,1.736 -4.868,1.736 -0.296,0 -2.286,-0.296 -0.677,0.169 -1.566,1.101 -0.847,0.889 -0.847,1.609 0,0.296 0.254,0.508 0.296,0.169 0.804,0.296 0.508,0.127 0.889,0.169 0.423,0.042 1.058,0.127 0.635,0.042 0.804,0.042 0.635,0.042 1.82,0.085 1.185,0 1.736,0.042 0.55,0.042 1.524,0.127 0.974,0.085 1.439,0.212 0.508,0.127 1.185,0.339 0.677,0.212 1.016,0.55 0.339,0.339 0.677,0.804 0.381,0.466 0.508,1.101 0.169,0.677 0.169,1.482 0,2.244 -1.99,3.937 -1.99,1.736 -4.445,2.455 -2.455,0.72 -4.614,0.72 -3.344,0 -5.334,-1.439 -1.947,-1.397 -1.947,-2.921 0,-0.593 0.381,-1.27 0.423,-0.635 0.804,-1.016 0.381,-0.381 1.439,-1.312 1.058,-0.889 1.524,-1.312 -2.201,-0.889 -2.201,-2.201 0,-1.863 3.768,-4.614 -3.979,-1.609 -3.979,-5.63 0,-3.048 2.159,-4.953 2.159,-1.905 5.249,-1.905 1.524,0 3.556,0.804 2.032,0.762 3.937,0.762 0.889,0 2.074,-0.127 z m -5.969,4.826 q 0,-2.159 -1.143,-4.403 -1.101,-2.286 -3.048,-2.286 -3.302,0 -3.302,4.02 0,2.54 1.016,4.699 1.058,2.117 3.344,2.117 3.133,0 3.133,-4.149 z m 4.403,14.393 q 0,-0.762 -0.466,-1.27 -0.423,-0.466 -1.397,-0.677 -0.974,-0.212 -1.736,-0.296 -0.762,-0.042 -2.117,-0.042 -3.979,0 -6.392,-0.466 -2.074,2.286 -2.074,3.725 0,1.228 1.482,2.074 1.482,0.889 4.53,0.889 3.725,0 5.927,-1.101 2.244,-1.058 2.244,-2.836 z"/></g><g fill="#fff"><path d="m 8.704 6.243 l 0 0.847 c 2.737 0 4.106 0.847 4.106 2.54 l 0 2.701 l -1.098 0 -1.351 0 l 0 1.351 0 1.351 l 1.351 0 1.098 0 l 0 3.74 l 1.154 0 l 0 2.01 0 2.01 l -1.154 0 l 0 2.421 l -0.564 -0.001 c 0 0 0.011 0.335 0.011 0.854 l 0 0.853 l 0.553 0 l 0 1.75 l 1.154 0 0.45 0 l 0 2.038 0 2.038 l -0.45 0 -2.038 0 l 0 -0.067 c -0.681 0.489 -1.752 0.735 -3.223 0.735 l 0 0.847 l 13.335 0 c 3.385 0 6.06 -0.663 8.04 -1.99 2.01 -1.355 3.01 -3.274 3.01 -5.757 l 0.002 0 c 0 -1.891 -0.677 -3.414 -2.032 -4.572 -1.353 -1.185 -3.03 -1.976 -5.04 -2.371 3.753 -0.931 5.63 -2.992 5.63 -6.181 0 -4.769 -3.88 -7.154 -11.642 -7.154 z m 10.623 1.693 c 0.79 0 1.468 0.028 2.032 0.085 0.593 0.028 1.284 0.155 2.074 0.381 0.819 0.198 1.482 0.48 1.99 0.847 0.508 0.367 0.945 0.917 1.312 1.651 0.367 0.734 0.55 1.609 0.55 2.624 c 0 1.694 -0.593 2.992 -1.778 3.895 -1.157 0.903 -2.808 1.355 -4.953 1.355 l -3.471 0 l 0 -9.61 c 0 -0.48 0.169 -0.805 0.508 -0.974 0.339 -0.169 0.917 -0.254 1.736 -0.254 m -5.841 1.121 l 0.829 0 0.829 0 l 0 0.829 0 0.829 l -0.829 0 -0.829 0 l 0 -0.829 m 3.596 10.58 l 2.074 0 c 6.04 0 9.06 2 9.06 6.01 l -0.001 0.001 c 0 2.286 -0.677 3.895 -2.032 4.826 -1.326 0.931 -3.203 1.397 -5.63 1.397 -1.439 0 -2.385 -0.169 -2.836 -0.508 -0.423 -0.339 -0.635 -0.932 -0.635 -1.778 z" stroke-width="1"/><g transform="matrix(0.79654 0.20139 -0.20139 0.79654 97.92 10.542)" fill-rule="evenodd"><path d="m -58.877 23.925 c -0.339 -0.233 -0.544 -0.584 -1 -1.723 -0.868 -2.148 -1.642 -4.555 -2.271 -7.06 -0.617 -2.453 -0.608 -2.699 0.099 -2.699 0.374 0 0.378 0.009 1.091 2.369 0.394 1.303 0.816 2.47 0.939 2.592 0.211 0.211 0.287 0.192 1.366 -0.342 2.158 -1.067 3.485 -2.802 3.882 -5.076 0.167 -0.958 0.167 -1.178 -0.004 -1.844 -0.357 -1.394 -1.036 -2.326 -1.842 -2.528 -1.036 -0.26 -2.571 0.328 -4.293 1.645 -2.753 2.105 -4.065 3.972 -4.544 6.465 -0.32 1.666 -0.024 2.149 1.112 1.816 0.451 -0.132 0.675 -0.146 0.774 -0.047 0.448 0.448 -0.303 1.126 -1.249 1.127 -0.672 0.001 -1.519 -0.6 -1.908 -1.354 -0.717 -1.388 -0.247 -3.663 1.189 -5.753 0.536 -0.781 2.282 -2.553 3.213 -3.262 1.264 -0.963 3.11 -1.748 4.529 -1.925 1.843 -0.23 2.717 0.426 3.515 2.637 1.089 3.02 0.483 5.774 -1.734 7.889 -0.878 0.837 -1.643 1.225 -2.636 1.336 -0.376 0.042 -0.756 0.115 -0.846 0.162 -0.117 0.061 0.131 0.69 0.88 2.226 0.573 1.177 1.112 2.368 1.197 2.646 0.142 0.466 0.131 0.524 -0.146 0.748 -0.397 0.322 -0.791 0.307 -1.309 -0.05 z" paint-order="normal"/><path d="m -49.19 16.912 c -0.858 -0.472 -1.546 -1.492 -1.954 -2.896 -0.331 -1.139 -0.23 -3.061 0.202 -3.841 0.493 -0.89 1.038 -1.195 2.058 -1.148 1.02 0.046 1.192 0.225 1.594 1.664 0.371 1.326 0.825 2.132 1.367 2.424 0.503 0.271 0.782 0.177 1.056 -0.355 0.267 -0.519 0.19 -1.224 -0.375 -3.419 l -0.54 -2.097 -0.565 -0.352 c -0.612 -0.381 -1.347 -1.405 -1.347 -1.877 0 -0.355 0.453 -0.697 0.924 -0.697 0.305 0 0.374 0.087 0.589 0.738 0.134 0.406 0.344 0.8 0.468 0.876 0.169 0.104 0.582 0.045 1.657 -0.234 1.196 -0.311 1.466 -0.344 1.637 -0.202 0.277 0.23 0.561 0.8 0.8 1.604 0.298 1 0.886 2.086 1.342 2.47 1.188 1 1.837 -0.338 1.371 -2.824 -0.282 -1.504 -0.628 -2.402 -1.161 -3.02 -0.43 -0.498 -0.437 -0.5 -0.96 -0.343 -1.228 0.368 -1.296 -0.452 -0.105 -1.271 0.783 -0.538 0.823 -0.756 0.322 -1.742 -0.44 -0.867 -0.456 -1.408 -0.047 -1.565 0.354 -0.136 0.675 0.152 1.035 0.928 0.469 1.01 0.615 1.111 1.238 0.861 0.641 -0.256 1.1 -0.196 1.1 0.144 0 0.165 -0.302 0.482 -0.845 0.886 -0.465 0.346 -0.862 0.703 -0.883 0.793 -0.061 0.268 0.745 2.539 1.277 3.598 0.271 0.54 0.665 1.166 0.876 1.391 0.666 0.713 1.452 0.697 1.934 -0.038 0.483 -0.737 0.127 -3.036 -0.805 -5.207 -0.462 -1.075 -0.491 -1.422 -0.155 -1.842 0.072 -0.089 0.263 -0.163 0.425 -0.163 0.545 0 0.8 0.392 1.102 1.691 0.357 1.537 0.903 2.712 1.504 3.24 0.377 0.331 0.507 0.38 0.715 0.269 0.224 -0.12 0.254 -0.276 0.25 -1.335 -0.005 -1.44 -0.235 -2.805 -0.695 -4.135 -0.188 -0.542 -0.341 -1.085 -0.341 -1.207 0 -0.551 0.787 -0.314 1.515 0.458 0.302 0.319 0.48 0.711 0.678 1.486 0.38 1.486 1.078 3.073 1.872 4.256 l 0.682 1.016 0.735 -0.084 c 0.924 -0.106 1.313 0.07 1.256 0.565 -0.039 0.335 -0.071 0.349 -0.821 0.349 l -0.78 0 l -0.041 0.497 c -0.023 0.273 0.087 1.229 0.244 2.124 0.65 3.707 -0.082 5.098 -2.749 5.225 -2.848 0.136 -3.96 -1.317 -2.914 -3.806 0.395 -0.939 1.206 -1.979 2.429 -3.112 1.191 -1.104 1.209 -1.13 1.197 -1.706 -0.014 -0.66 -0.551 -1.819 -1.326 -2.864 l -0.482 -0.65 -0.065 1.93 c -0.065 1.919 -0.067 1.932 -0.43 2.244 -0.469 0.403 -1.038 0.401 -1.749 -0.006 l -0.553 -0.316 l 0 0.619 c 0 1.361 -0.658 2.614 -1.482 2.821 -0.405 0.102 -1 -0.119 -1.535 -0.569 -0.212 -0.178 -0.426 -0.269 -0.482 -0.205 -0.056 0.064 -0.176 0.467 -0.268 0.896 -0.353 1.659 -0.945 2.225 -1.907 1.823 -1.088 -0.454 -1.822 -1.479 -2.656 -3.709 -0.307 -0.823 -0.594 -1.537 -0.636 -1.588 -0.074 -0.089 -1.601 0.405 -1.768 0.572 -0.045 0.045 0.1 0.717 0.323 1.492 1.181 4.116 0.986 6.296 -0.565 6.285 -0.476 -0.003 -1.369 -0.384 -1.624 -0.692 -0.32 -0.386 -0.407 -0.231 -0.41 0.727 -0.005 1.747 -0.776 2.696 -1.753 2.158 z m 1.155 -3.249 c -0.012 -1.197 -0.071 -1.624 -0.31 -2.246 -0.393 -1.026 -1.012 -1.706 -1.452 -1.596 -0.436 0.109 -0.652 0.619 -0.726 1.714 -0.135 2 1.291 4.406 2.242 3.778 0.236 -0.156 0.259 -0.306 0.245 -1.65 z m 18.565 -0.318 c 0.731 -0.694 0.958 -1.293 0.958 -2.525 0.001 -1.331 -0.422 -2.751 -0.915 -3.073 -0.453 -0.297 -1.142 -0.024 -1.895 0.749 -0.924 0.948 -1.35 1.915 -1.35 3.063 0 1.044 0.192 1.426 0.988 1.973 0.635 0.436 1.65 0.351 2.214 -0.185 z" paint-order="normal"/></g><path d="m 6.198 29.672 4.484 -2.302 -1.608 4.385 -2.876 -2.083"/><path d="m 1.936 14.961 1.296 -3.02 2.26 2.11 -3.556 0.91"/><path d="m 8.894 14.694 1.817 -0.396 -0.908 1.699 -0.909 -1.303"/><path d="m 3.452 17.385 -1.808 1.244 2.679 2.076 -0.871 -3.32"/><path d="m 6.607 25.567 1.199 1.315 -1.797 -0.047 0.598 -1.268"/><path d="m 6.516 8.411 -0.005 2.07 2.882 -0.418 -2.877 -1.652"/><path d="m 0.733 22.348 1.988 3.227 1.288 -1.49 -3.276 -1.738"/><path d="m 4.93 28.29 -1.702 1.702 -1.702 -1.702 1.702 -1.702 1.702 1.702"/><path d="m 10.09 18.17 -1.702 1.702 -1.702 -1.702 1.702 -1.702 1.702 1.702"/><path d="m 10.674 21.467 -0.047 1.906 -1.58 -0.912 1.627 -0.993"/></g></svg>