<svg xmlns="http://www.w3.org/2000/svg" viewBox="0 0 59.999998 59.999998"><g transform="matrix(0.43243 0 0 0.43243 1.927 1.927)" fill="#fff"><path d="m 64.92,18.919 c -0.663,0 -1.2,-0.537 -1.2,-1.2 v -5.447 c 0,-0.663 0.537,-1.2 1.2,-1.2 0.663,0 1.2,0.537 1.2,1.2 v 5.447 c 0,0.663 -0.537,1.2 -1.2,1.2 z"/><path d="m 64.92,7.848 c -0.663,0 -1.2,-0.537 -1.2,-1.2 V 1.2 c 0,-0.663 0.537,-1.2 1.2,-1.2 0.663,0 1.2,0.537 1.2,1.2 v 5.447 c 0,0.664 -0.537,1.201 -1.2,1.201 z"/><path d="m 64.92,42.189 c -0.663,0 -1.2,-0.537 -1.2,-1.2 V 24.427 c 0,-0.663 0.537,-1.2 1.2,-1.2 0.663,0 1.2,0.537 1.2,1.2 V 40.99 c 0,0.662 -0.537,1.199 -1.2,1.199 z"/><path d="m 64.92,118.768 c -0.663,0 -1.2,-0.537 -1.2,-1.2 v -5.448 c 0,-0.663 0.537,-1.2 1.2,-1.2 0.663,0 1.2,0.537 1.2,1.2 v 5.448 c 0,0.662 -0.537,1.2 -1.2,1.2 z"/><path d="m 64.92,129.839 c -0.663,0 -1.2,-0.537 -1.2,-1.2 v -5.448 c 0,-0.663 0.537,-1.2 1.2,-1.2 0.663,0 1.2,0.537 1.2,1.2 v 5.448 c 0,0.663 -0.537,1.2 -1.2,1.2 z"/><path d="m 64.92,106.612 c -0.663,0 -1.2,-0.537 -1.2,-1.2 V 88.849 c 0,-0.663 0.537,-1.2 1.2,-1.2 0.663,0 1.2,0.537 1.2,1.2 v 16.563 c 0,0.663 -0.537,1.2 -1.2,1.2 z"/><path d="m 46.858 22.513 c -0.471 0 -0.917 -0.279 -1.108 -0.741 l -2.085 -5.03 c -0.254 -0.612 0.037 -1.314 0.649 -1.567 0.608 -0.254 1.313 0.038 1.567 0.649 l 2.085 5.03 c 0.254 0.612 -0.037 1.314 -0.65 1.567 -0.149 0.062 -0.305 0.092 -0.458 0.092 z"/><path d="m 55.763 44.01 c -0.471 0 -0.917 -0.278 -1.108 -0.741 l -6.339 -15.302 c -0.254 -0.612 0.037 -1.314 0.649 -1.567 0.609 -0.253 1.314 0.036 1.567 0.649 l 6.339 15.302 c 0.254 0.612 -0.037 1.314 -0.649 1.567 -0.15 0.062 -0.306 0.092 -0.459 0.092 z"/><path d="m 85.07 114.76 c -0.471 0 -0.917 -0.279 -1.108 -0.741 l -2.085 -5.03 c -0.254 -0.612 0.037 -1.314 0.649 -1.567 0.609 -0.253 1.314 0.037 1.567 0.649 l 2.085 5.03 c 0.254 0.612 -0.037 1.314 -0.649 1.567 -0.149 0.062 -0.305 0.092 -0.459 0.092 z"/><path d="m 80.42 103.53 c -0.471 0 -0.917 -0.279 -1.108 -0.741 l -6.339 -15.303 c -0.254 -0.612 0.037 -1.314 0.649 -1.567 0.613 -0.253 1.314 0.037 1.567 0.649 l 6.339 15.303 c 0.254 0.612 -0.037 1.314 -0.649 1.567 -0.15 0.063 -0.306 0.092 -0.459 0.092 z"/><path d="m 31.545 32.744 c -0.307 0 -0.614 -0.117 -0.849 -0.352 l -3.852 -3.853 c -0.469 -0.469 -0.469 -1.229 0 -1.697 0.469 -0.469 1.228 -0.469 1.697 0 l 3.852 3.853 c 0.469 0.469 0.469 1.229 0 1.697 -0.234 0.235 -0.541 0.352 -0.848 0.352 z"/><path d="m 23.716 24.915 c -0.307 0 -0.614 -0.117 -0.849 -0.352 l -3.852 -3.851 c -0.469 -0.469 -0.469 -1.229 0 -1.697 0.469 -0.468 1.228 -0.469 1.697 0 l 3.853 3.852 c 0.469 0.469 0.469 1.229 0 1.697 -0.235 0.234 -0.541 0.351 -0.849 0.351 z"/><path d="m 47.999,49.198 c -0.307,0 -0.614,-0.117 -0.849,-0.352 L 35.438,37.135 c -0.469,-0.469 -0.469,-1.229 0,-1.697 0.469,-0.469 1.229,-0.469 1.697,0 L 48.848,47.15 c 0.469,0.469 0.469,1.228 0,1.697 -0.235,0.234 -0.542,0.351 -0.849,0.351 z"/><path d="m 102.15 103.35 c -0.307 0 -0.614 -0.117 -0.849 -0.352 l -3.853 -3.852 c -0.469 -0.469 -0.469 -1.229 0 -1.697 0.468 -0.467 1.228 -0.469 1.697 0 l 3.853 3.852 c 0.469 0.469 0.469 1.229 0 1.697 -0.233 0.234 -0.54 0.352 -0.848 0.352 z"/><path d="m 109.98 111.18 c -0.307 0 -0.614 -0.117 -0.849 -0.351 l -3.853 -3.853 c -0.469 -0.469 -0.469 -1.229 0 -1.697 0.469 -0.469 1.229 -0.469 1.697 0 l 3.852 3.853 c 0.469 0.469 0.469 1.229 0 1.697 -0.233 0.234 -0.541 0.351 -0.847 0.351 z"/><path d="m 93.55 94.75 c -0.307 0 -0.614 -0.117 -0.849 -0.352 l -11.712 -11.712 c -0.469 -0.469 -0.469 -1.229 0 -1.697 0.469 -0.469 1.229 -0.469 1.697 0 l 11.712 11.712 c 0.469 0.469 0.469 1.229 0 1.697 -0.234 0.235 -0.542 0.352 -0.848 0.352 z"/><path d="m 21.313 48.06 c -0.153 0 -0.309 -0.029 -0.459 -0.092 l -5.03 -2.085 c -0.612 -0.253 -0.903 -0.955 -0.649 -1.567 0.254 -0.612 0.956 -0.903 1.567 -0.649 l 5.03 2.085 c 0.612 0.253 0.903 0.955 0.649 1.567 -0.19 0.461 -0.637 0.741 -1.107 0.741 z"/><path d="m 11.084,43.82 c -0.153,0 -0.309,-0.029 -0.459,-0.092 L 5.592,41.643 C 4.98,41.39 4.689,40.688 4.943,40.076 5.197,39.464 5.899,39.172 6.51,39.427 l 5.033,2.085 c 0.612,0.253 0.903,0.955 0.649,1.567 -0.191,0.462 -0.637,0.741 -1.108,0.741 z"/><path d="m 42.812,56.962 c -0.153,0 -0.309,-0.029 -0.459,-0.092 L 27.05,50.531 c -0.612,-0.253 -0.903,-0.955 -0.649,-1.567 0.254,-0.612 0.955,-0.902 1.567,-0.649 l 15.303,6.339 c 0.612,0.253 0.903,0.955 0.65,1.567 -0.192,0.462 -0.639,0.741 -1.109,0.741 z"/><path d="m 113.56 86.27 c -0.153 0 -0.31 -0.029 -0.459 -0.092 l -5.03 -2.085 c -0.612 -0.254 -0.903 -0.955 -0.649 -1.567 0.254 -0.612 0.96 -0.903 1.567 -0.649 l 5.03 2.085 c 0.612 0.254 0.903 0.955 0.649 1.567 -0.191 0.461 -0.638 0.741 -1.108 0.741 z"/><path d="m 102.33 81.61 c -0.153 0 -0.309 -0.029 -0.459 -0.092 l -15.302 -6.339 c -0.612 -0.253 -0.903 -0.955 -0.649 -1.567 0.254 -0.612 0.956 -0.903 1.567 -0.649 l 15.302 6.339 c 0.612 0.253 0.903 0.955 0.649 1.567 -0.191 0.462 -0.637 0.741 -1.108 0.741 z"/><path d="m 17.72,66.119 h -5.447 c -0.663,0 -1.2,-0.537 -1.2,-1.2 0,-0.663 0.537,-1.2 1.2,-1.2 h 5.447 c 0.663,0 1.2,0.537 1.2,1.2 0,0.663 -0.537,1.2 -1.2,1.2 z"/><path d="M 6.649,66.119 H 1.2 c -0.663,0 -1.2,-0.537 -1.2,-1.2 0,-0.663 0.537,-1.2 1.2,-1.2 h 5.448 c 0.663,0 1.2,0.537 1.2,1.2 0,0.663 -0.536,1.2 -1.199,1.2 z"/><path d="M 40.99,66.119 H 24.427 c -0.663,0 -1.2,-0.537 -1.2,-1.2 0,-0.663 0.537,-1.2 1.2,-1.2 H 40.99 c 0.663,0 1.2,0.537 1.2,1.2 0,0.663 -0.537,1.2 -1.2,1.2 z"/><path d="m 117.567,66.119 h -5.448 c -0.663,0 -1.2,-0.537 -1.2,-1.2 0,-0.663 0.537,-1.2 1.2,-1.2 h 5.448 c 0.663,0 1.2,0.537 1.2,1.2 0,0.663 -0.537,1.2 -1.2,1.2 z"/><path d="m 128.639,66.119 h -5.447 c -0.663,0 -1.2,-0.537 -1.2,-1.2 0,-0.663 0.537,-1.2 1.2,-1.2 h 5.447 c 0.663,0 1.2,0.537 1.2,1.2 0,0.663 -0.537,1.2 -1.2,1.2 z"/><path d="M 105.413,66.119 H 88.85 c -0.663,0 -1.2,-0.537 -1.2,-1.2 0,-0.663 0.537,-1.2 1.2,-1.2 h 16.563 c 0.663,0 1.2,0.537 1.2,1.2 0,0.663 -0.537,1.2 -1.2,1.2 z"/><path d="m 16.279 86.27 c -0.471 0 -0.917 -0.279 -1.108 -0.741 -0.254 -0.612 0.037 -1.314 0.649 -1.567 l 5.03 -2.085 c 0.61 -0.253 1.313 0.037 1.567 0.649 0.254 0.612 -0.037 1.314 -0.649 1.567 l -5.03 2.085 c -0.149 0.062 -0.305 0.092 -0.459 0.092 z"/><path d="m 27.509 81.61 c -0.471 0 -0.917 -0.279 -1.108 -0.741 -0.254 -0.612 0.037 -1.314 0.649 -1.567 l 15.303 -6.339 c 0.614 -0.253 1.313 0.037 1.567 0.649 0.254 0.612 -0.037 1.314 -0.65 1.567 l -15.303 6.339 c -0.15 0.063 -0.305 0.092 -0.458 0.092 z"/><path d="m 108.53 48.06 c -0.471 0 -0.917 -0.278 -1.108 -0.741 -0.254 -0.612 0.037 -1.313 0.649 -1.567 l 5.03 -2.085 c 0.609 -0.254 1.314 0.036 1.567 0.649 0.254 0.612 -0.037 1.313 -0.649 1.567 l -5.03 2.085 c -0.149 0.062 -0.305 0.092 -0.459 0.092 z"/><path d="m 87.03 56.962 c -0.471 0 -0.917 -0.278 -1.108 -0.741 -0.254 -0.612 0.037 -1.314 0.649 -1.567 l 15.302 -6.339 c 0.61 -0.253 1.313 0.036 1.567 0.649 0.254 0.612 -0.037 1.314 -0.649 1.567 l -15.302 6.339 c -0.149 0.063 -0.305 0.092 -0.459 0.092 z"/><path d="m 27.692 103.35 c -0.308 0 -0.614 -0.117 -0.849 -0.352 -0.469 -0.469 -0.469 -1.229 0 -1.697 l 3.852 -3.852 c 0.471 -0.469 1.231 -0.467 1.697 0 0.469 0.469 0.469 1.229 0 1.697 l -3.852 3.852 c -0.233 0.234 -0.541 0.352 -0.848 0.352 z"/><path d="m 19.863 111.18 c -0.307 0 -0.614 -0.117 -0.849 -0.351 -0.469 -0.469 -0.469 -1.229 0 -1.697 l 3.852 -3.853 c 0.469 -0.469 1.229 -0.469 1.697 0 0.469 0.469 0.469 1.229 0 1.697 l -3.853 3.853 c -0.232 0.234 -0.54 0.351 -0.847 0.351 z"/><path d="m 36.287,94.752 c -0.307,0 -0.614,-0.117 -0.849,-0.352 -0.469,-0.469 -0.469,-1.229 0,-1.697 L 47.15,80.991 c 0.469,-0.469 1.228,-0.469 1.697,0 0.469,0.469 0.469,1.229 0,1.697 L 37.136,94.4 c -0.235,0.235 -0.542,0.352 -0.849,0.352 z"/><path d="m 98.3 32.744 c -0.307 0 -0.614 -0.117 -0.849 -0.352 -0.469 -0.469 -0.469 -1.229 0 -1.697 l 3.853 -3.853 c 0.469 -0.469 1.229 -0.469 1.697 0 0.469 0.469 0.469 1.229 0 1.697 l -3.853 3.853 c -0.234 0.235 -0.541 0.352 -0.848 0.352 z"/><path d="m 106.12 24.915 c -0.308 0 -0.614 -0.117 -0.849 -0.352 -0.469 -0.469 -0.469 -1.229 0 -1.697 l 3.853 -3.852 c 0.47 -0.469 1.229 -0.468 1.697 0 0.469 0.469 0.469 1.229 0 1.697 l -3.852 3.851 c -0.235 0.236 -0.542 0.353 -0.849 0.353 z"/><path d="m 81.84 49.2 c -0.307 0 -0.614 -0.117 -0.849 -0.352 -0.469 -0.469 -0.469 -1.229 0 -1.697 l 11.712 -11.712 c 0.469 -0.469 1.229 -0.469 1.697 0 0.469 0.469 0.469 1.229 0 1.697 l -11.712 11.713 c -0.234 0.234 -0.542 0.351 -0.848 0.351 z"/><path d="m 44.772 114.76 c -0.153 0 -0.309 -0.029 -0.459 -0.092 -0.612 -0.253 -0.903 -0.955 -0.649 -1.567 l 2.085 -5.03 c 0.254 -0.612 0.955 -0.902 1.567 -0.649 0.612 0.253 0.903 0.955 0.65 1.567 l -2.085 5.03 c -0.192 0.461 -0.638 0.741 -1.109 0.741 z"/><path d="m 49.42 103.53 c -0.153 0 -0.309 -0.029 -0.459 -0.092 -0.612 -0.253 -0.903 -0.955 -0.649 -1.567 l 6.339 -15.303 c 0.254 -0.612 0.955 -0.902 1.567 -0.649 0.612 0.253 0.903 0.955 0.649 1.567 l -6.339 15.303 c -0.191 0.462 -0.637 0.741 -1.108 0.741 z"/><path d="m 82.982 22.513 c -0.153 0 -0.309 -0.029 -0.459 -0.092 -0.612 -0.253 -0.903 -0.955 -0.649 -1.567 l 2.085 -5.03 c 0.254 -0.611 0.955 -0.903 1.567 -0.649 0.612 0.253 0.903 0.955 0.649 1.567 l -2.085 5.03 c -0.191 0.461 -0.637 0.741 -1.108 0.741 z"/><path d="m 74.08 44.01 c -0.153 0 -0.309 -0.029 -0.459 -0.092 -0.612 -0.253 -0.903 -0.955 -0.649 -1.567 l 6.339 -15.302 c 0.254 -0.612 0.957 -0.902 1.567 -0.649 0.612 0.253 0.903 0.955 0.649 1.567 l -6.338 15.302 c -0.192 0.461 -0.638 0.741 -1.109 0.741 z"/><path d="M 61.64 62.763 64.92 52.04 68.2 62.763 78.92 66.04 68.2 69.32 64.92 80.04 61.64 69.32 50.92 66.04"/></g></svg>