<svg width="200" height="200" viewBox="0 0 52.917 52.917" xmlns="http://www.w3.org/2000/svg"><defs><clipPath clipPathUnits="userSpaceOnUse" id="b"><path d="M0 500h500V0H0z"/></clipPath><clipPath clipPathUnits="userSpaceOnUse" id="c"><path d="M0 500h500V0H0z"/></clipPath><clipPath clipPathUnits="userSpaceOnUse" id="d"><path d="M500 0H0v500h500z"/></clipPath><linearGradient x1="0" y1="0" x2="1" y2="0" gradientUnits="userSpaceOnUse" gradientTransform="matrix(0 814.16498 814.16498 0 250 31.57)" spreadMethod="pad" id="a"><stop style="stop-opacity:0;stop-color:#fff" offset="0"/><stop style="stop-opacity:1;stop-color:#fff" offset="1"/></linearGradient><mask maskUnits="userSpaceOnUse" x="0" y="0" width="1" height="1" id="e"><path d="M-32768 32767h65535v-65535h-65535z" style="fill:url(#a);stroke:none"/></mask></defs><path style="mix-blend-mode:screen;fill:#3f3d56;fill-opacity:1;fill-rule:evenodd;stroke-width:.0247621;stroke-miterlimit:4;stroke-dasharray:none;stop-color:#000" transform="rotate(90)" d="M51.792-26.458A25.334 25.334 0 0 1 26.597-1.125 25.334 25.334 0 0 1 1.127-26.18a25.334 25.334 0 0 1 24.915-25.608 25.334 25.334 0 0 1 25.744 24.774"/><path style="fill:none;stroke:#fff;stroke-width:.1;stroke-linecap:butt;stroke-linejoin:miter;stroke-miterlimit:4;stroke-dasharray:.6,.1;stroke-dashoffset:0;stroke-opacity:1" d="m28.99 7.814 3.48 6.146M24.998 19.675l7.472-5.715M20.073 16.08l4.925 3.595M20.073 16.08l8.918-8.266M14.947 15.667l5.126.413M10.248 16.113l4.7-.446"/><path d="M32.419 14.35c.507 0 .508-.723 0-.723-.507 0-.508.723 0 .723M29.03 8.166c.508 0 .509-.722 0-.722-.507 0-.507.722 0 .722M24.993 20.025c.508 0 .508-.723 0-.723-.507 0-.508.723 0 .723M20.083 16.423c.508 0 .508-.723 0-.723-.507 0-.508.723 0 .723M14.951 16.053c.508 0 .509-.723 0-.723-.507 0-.508.723 0 .723M10.239 16.546c.507 0 .508-.722 0-.722-.507 0-.508.722 0 .722M5.522 21.467c.508 0 .508-.723 0-.723-.507 0-.508.723 0 .723" style="fill:#fff;fill-opacity:1;fill-rule:nonzero;stroke:none;stroke-width:.225767"/><path d="M11000.082 14900.61c417.206 64.483 719.664 23.147 783.586-135.025 63.818-158.131-124.725-397.967-469.382-641.42 0-16.308-.208-32.595-.832-48.83 411.385 275.237 642.542 552.065 570.306 730.733-72.237 178.7-430.925 217.095-918.081 129.133 9.458-9.074 18.709-18.304 27.855-27.71 2.183-2.256 4.366-4.594 6.548-6.881" style="fill:#ceaa93;fill-opacity:1;fill-rule:nonzero;stroke:none;stroke-width:1.03938" transform="matrix(.00324 0 0 -.00324 2.029 91.825)"/><path d="M8477.897 13429.311c72.173-178.686 430.833-217.075 917.957-129.135-11.647 11.24-23.117 22.798-34.41 34.586-417.069-64.47-719.525-23.116-783.405 135.038-63.88 158.146 124.759 397.993 469.39 641.458 0 1.924-.088 3.856-.088 5.788 0 14.382.441 28.746.97 43.075-411.421-275.264-642.675-552.125-570.414-730.81" style="fill:#ceaa93;fill-opacity:1;fill-rule:nonzero;stroke:none;stroke-width:.882312" transform="matrix(.00324 0 0 -.00324 2.029 91.825)"/><path d="M11314.171 14124.135c-.1 11.1-.3 22.2-.7 33.33-239.3-176.47-567-356.99-943-509-376-151.99-737.2-249.9-1031.8-289.31 3.5-3.9 7-7.82 10.6-11.67 4-4.32 8.1-8.49 12.1-12.74 296.1 45.75 649.9 144.78 1017.3 293.32 367.5 148.56 690.8 323.22 935.5 496.07" style="fill:#d3c0b4;fill-opacity:1;fill-rule:nonzero;stroke:none" transform="matrix(.00324 0 0 -.00324 2.029 91.825)"/><path d="M68.392 151.468c-3.497-8.646 8.214-22.21 28.728-35.517.06-.951.152-1.899.271-2.842-24.565 15.11-38.947 30.91-34.964 40.769 3.987 9.859 25.307 11.225 53.473 5.022a48.717 48.717 0 0 1-2.169-1.855c-24 4.687-41.846 3.069-45.34-5.577" style="fill:#ddb294;fill-opacity:1;fill-rule:nonzero;stroke:none;stroke-width:.0398727" transform="matrix(.07212 0 0 .07212 24.373 37.438)"/><path d="M110.1 153.41c-16.646 2.225-28.58.298-31.2-6.19-2.624-6.488 4.62-16.167 18.135-26.133-.015-.5-.027-.999-.031-1.497-15.5 10.948-23.981 21.733-21.108 28.844 2.874 7.112 16.473 8.972 35.226 6.073-.178-.191-.368-.38-.546-.573-.163-.173-.317-.35-.475-.525" style="fill:#d3c0b4;fill-opacity:1;fill-rule:nonzero;stroke:none;stroke-width:.0395796" transform="matrix(.07212 0 0 .07212 24.373 37.438)"/><path d="M86.402 144.187c-1.969-4.877 2.312-11.776 10.929-19.147a45.383 45.383 0 0 1-.217-2.415c-11.544 8.956-17.58 17.528-15.214 23.382 2.368 5.854 12.657 7.826 27.18 6.244a50.172 50.172 0 0 1-1.523-1.888c-11.315.686-19.182-1.3-21.155-6.176" style="fill:#544032;fill-opacity:1;fill-rule:nonzero;stroke:none;stroke-width:.0394543" transform="matrix(.07212 0 0 .07212 24.373 37.438)"/><path d="M233.51 84.724c-3.99-9.859-25.314-11.225-53.477-5.022a50.046 50.046 0 0 1 2.168 1.857c24.002-4.69 41.847-3.07 45.344 5.575 3.493 8.645-8.212 22.208-28.72 35.514-.067.95-.157 1.898-.27 2.84 24.555-15.109 38.935-30.907 34.954-40.764" style="fill:#ddb294;fill-opacity:1;fill-rule:nonzero;stroke:none;stroke-width:.0473322" transform="matrix(.07212 0 0 .07212 24.373 37.438)"/><path d="M15627.8 7854.27c224.7 100.39 445.3 212.76 672.2 307.18-44.5-77.72-98.3-150.44-160.4-216.33-296-119.01-591.8-238-887.8-357a1145.19 1145.19 0 0 0-260.8 43.58c218.6 48.57 432 131.04 636.8 222.57" style="fill:#f4b990;fill-opacity:1;fill-rule:nonzero;stroke:none" transform="matrix(.00321 0 0 -.00321 -14.357 73.745)"/><path d="M15013.5 7878.48c222.3 95.01 436.9 206.74 651.3 318.36 202.1 105.27 414.5 212.67 635.2 255.6-13.3-70.78-33.2-139.99-59.4-206.72-276.2-82.38-551.3-169.84-812.9-290.1-240.2-110.42-471.7-249.19-723.9-322.71-47.1 21.99-92.7 47.07-136.3 75.32 150.2 52.53 299.6 107.68 446 170.25" style="fill:#cea080;fill-opacity:1;fill-rule:nonzero;stroke:none" transform="matrix(.00324 0 0 -.00324 -14.357 73.745)"/><path d="M14695.4 8518.03c142.6 62.25 298.3 85.8 449.5 121.88 385 91.85 742.7 265.6 1090.3 458.01 1.5-3.53 3-7.01 4.4-10.56 26.7-66.02 46.7-133.07 60.4-200.42-229-134.68-445.9-304.48-696-393.53-217-77.26-451.8-90.97-671.9-158.68-240.4-73.94-465.6-212.27-704.3-278.62-31.8 50.49-59.9 104.17-84.1 160.75 195 64.91 359.7 217.3 551.7 301.17" style="fill:#ceaa91;fill-opacity:1;fill-rule:nonzero;stroke:none" transform="matrix(.00324 0 0 -.00324 -14.357 73.745)"/><path d="M15927.3 10444.8c-45.4-15.1-92.2-26-139.3-35 95.2 78.6 203.9 144.2 324.5 192.9 43.3 17.5 86.9 32.4 130.8 44.7 18.9 5.3 37.8 10.1 56.7 14.5-114.1-90.7-235.1-171.6-372.7-217.1" style="fill:#edc3a4;fill-opacity:1;fill-rule:nonzero;stroke:none" transform="matrix(.00297 0 0 -.00297 -14.357 73.745)"/><path d="M15058.6 8139.71c178 76.46 365 129.3 551.4 181.93l690 194.82c-2.9-23.38-6.6-46.61-10.9-69.68-220.5-42.9-432.8-150.22-634.8-255.43-214.3-111.55-428.7-223.2-650.9-318.14-146.2-62.53-295.5-117.64-445.7-170.14-78.4 50.73-150.9 111.33-215.3 180.9 92.2 4.4 184.9 26.33 272.1 57.24 153 54.12 295.1 134.47 444.1 198.5" style="fill:#d3b49f;fill-opacity:1;fill-rule:nonzero;stroke:none" transform="matrix(.00324 0 0 -.00324 -14.357 73.745)"/><path d="M14905.8 8320.05c219.7 67.59 454.1 81.27 670.7 158.4 249.6 88.89 466.2 258.4 694.8 392.84 24.6-121.33 28.7-243.61 14-362.5l-689.4-194.64c-186.1-52.58-373-105.38-550.8-181.76-148.9-63.97-290.9-144.26-443.7-198.33-87.2-30.87-179.8-52.79-271.9-57.18-46.8 50.42-89.3 105.52-126.8 165.05 238.3 66.23 463.2 204.31 703.1 278.12" style="fill:#edc3a4;fill-opacity:1;fill-rule:nonzero;stroke:none" transform="matrix(.00324 0 0 -.00324 -14.357 73.745)"/><path d="M16009.8 7801.44c-37.4-20.21-76.3-38.55-116.7-54.88-160.6-64.92-327.3-91.09-489.6-83 298.8 120.18 597.6 240.35 896.5 360.54-82.5-87.54-179.9-163.18-290.2-222.66" style="fill:#edc3a4;fill-opacity:1;fill-rule:nonzero;stroke:none" transform="matrix(.00318 0 0 -.00318 -14.357 73.745)"/><path d="M15484.1 7984.71c262.6 120.7 538.7 208.48 815.9 291.16-20.4-51.86-44.5-102.21-72.3-150.62-225.9-94-445.5-205.87-669.2-305.81-203.9-91.13-416.4-173.23-634-221.59-57.2 16.57-113.1 37.73-167 62.97 253.2 73.79 485.5 213.07 726.6 323.89" style="fill:#d1beb2;fill-opacity:1;fill-rule:nonzero;stroke:none" transform="matrix(.00323 0 0 -.00323 -14.357 73.745)"/><path d="M15286.4 9415.1c142.2 97.35 248 241.34 392 336.14 123.8 81.56 271.1 123.59 405.1 186.3a1167.61 1167.61 0 0 0 216.5-134.06c-99.2-30.71-198.5-61.41-297.7-92.11-92.9-28.75-186.7-57.87-271.1-106.25-95.6-54.77-175.8-132.25-255.2-208.54-185.4-177.97-389.9-362.33-644.2-399.46-77.4-11.3-156.9-8.28-232.9-26.68-65.6-15.84-125.3-46.7-181.6-84.14 0 87.38 9.8 173.9 29 257.97 145 8.82 291.2 52.94 431.4 96.86 141.8 44.45 286 90.03 408.7 173.97" style="fill:#ba8d6e;fill-opacity:1;fill-rule:nonzero;stroke:none" transform="matrix(.00316 0 0 -.00316 -14.357 73.745)"/><path d="M15443.1 9961c-79.6-46.72-150.7-108.08-235.1-145.32-33.6-14.83-68.3-25.48-103.9-32.96 73.9 142.88 176.4 271.48 303.5 376.28 46.1 8.8 91.7 19.5 136 34.2 134.3 44.4 252.4 123.3 363.7 211.8 131.2 30.2 263.7 37.6 392.7 24.3-66.8-53.8-123.4-122.2-191.3-175.5-191.5-150.2-455.8-169.5-665.6-292.8" style="fill:#cca68b;fill-opacity:1;fill-rule:nonzero;stroke:none" transform="matrix(.00304 0 0 -.00304 -14.357 73.745)"/><path d="M15401 9686.91c-108.2-47.5-225.6-69.18-339.4-100.87-72.7-20.23-145.6-45.62-210.8-82.78 18.9 54.78 41.6 108.17 68.3 159.65 35.2 7.39 69.5 17.9 102.7 32.56 83.3 36.78 153.6 97.39 232.2 143.53 207.2 121.75 468.3 140.81 657.4 289.2 67.1 52.7 123 120.2 189 173.4 67.7-7 134.5-19.7 199.6-37.9-186.6-96-365.1-207.6-532.9-333.49-117.6-88.14-231.6-184.27-366.1-243.3" style="fill:#c6afa1;fill-opacity:1;fill-rule:nonzero;stroke:none" transform="matrix(.00308 0 0 -.00308 -14.357 73.745)"/><path d="M16300 10071.3c-135.8-63.5-285.1-106.13-410.6-188.79-145.9-96.08-253.1-242.01-397.2-340.66-124.4-85.08-270.5-131.27-414.2-176.32-142.1-44.51-290.3-89.22-437.2-98.16 9.5 42.12 21.5 83.58 35.6 124.29 64.4 36.73 136.5 61.82 208.3 81.82 112.5 31.32 228.5 52.74 335.4 99.68 132.9 58.34 245.7 153.34 361.8 240.44 165.9 124.4 342.3 234.7 526.7 329.5 65.8-18.4 129.8-42.4 191.4-71.8" style="fill:#ddb294;fill-opacity:1;fill-rule:nonzero;stroke:none" transform="matrix(.00311 0 0 -.00311 -14.357 73.745)"/><path d="M15370 9125.71c281.8 150.42 557.2 314.8 844.6 453.23 30.1-30.96 58.6-63.68 85.4-98.27-13.8-13.14-27.2-26.53-40.4-40.01-87.9-90.09-170.5-188.32-278.1-253.54-95.3-57.75-205-86.33-312.3-116.23-482.3-134.35-953.2-309.59-1406.1-523.01-10.8 52.64-17.8 105.45-21.1 158.11 398 59.73 772.3 229.87 1128 419.72" style="fill:#ceaa93;fill-opacity:1;fill-rule:nonzero;stroke:none" transform="matrix(.0032 0 0 -.0032 -14.357 73.745)"/><path d="M14495 8906.62c75.5 18.27 154.5 15.27 231.3 26.49 252.5 36.87 455.5 219.91 639.6 396.62 78.9 75.74 158.4 152.68 253.3 207.06 83.8 48.03 177 76.94 269.3 105.49 98.5 30.48 197 60.97 295.5 91.45 40.8-31.92 79.6-66.82 116-104.32-288.9-139.16-565.8-304.41-849.1-455.62-357.5-190.85-733.8-361.89-1133.9-421.94-1.4 23.78-2.3 47.54-2.3 71.23 55.9 37.17 115.2 67.81 180.3 83.54" style="fill:#d3c0b4;fill-opacity:1;fill-rule:nonzero;stroke:none" transform="matrix(.00318 0 0 -.00318 -14.357 73.745)"/><path d="M15524.9 8987.35c106.4 29.63 215 57.94 309.4 115.16 106.6 64.62 188.5 161.95 275.6 251.21 13 13.36 26.3 26.62 40 39.64 59.9-77.65 110.7-164.31 150.1-259.11-349-193.19-708.1-367.63-1094.6-459.84-151.9-36.23-308.2-59.87-451.3-122.37-192.8-84.21-358.2-237.21-553.9-302.37-2.8 6.63-5.7 13.27-8.4 19.99-19.8 48.83-35.8 98.24-48.4 147.91-4.3 17.17-8.1 34.37-11.7 51.59 448.8 211.46 915.4 385.08 1393.2 518.19" style="fill:#edd4c3;fill-opacity:1;fill-rule:nonzero;stroke:none" transform="matrix(.00323 0 0 -.00323 -14.357 73.745)"/><path d="M217.028 91.384c2.629 6.487-4.616 16.164-18.129 26.13.014.5.028.999.028 1.498 15.5-10.947 23.98-21.731 21.11-28.842-2.879-7.112-16.476-8.971-35.236-6.071.343.36.682.726 1.021 1.097 16.648-2.227 28.587-.3 31.206 6.188" style="fill:#d3c0b4;fill-opacity:1;fill-rule:nonzero;stroke:none;stroke-width:.0464376" transform="matrix(.07212 0 0 .07212 24.373 37.438)"/><path d="M188.37 88.24c11.311-.686 19.188 1.301 21.154 6.177 1.975 4.876-2.306 11.773-10.915 19.142.092.806.16 1.611.211 2.416 11.547-8.955 17.578-17.525 15.211-23.378-2.366-5.856-12.66-7.826-27.194-6.243.497.584.985 1.178 1.46 1.788.022.033.05.066.073.099" style="fill:#544032;fill-opacity:1;fill-rule:nonzero;stroke:none;stroke-width:.0460382" transform="matrix(.07212 0 0 .07212 24.373 37.438)"/><path d="M157.793 143.612c-15.65 6.325-30.797 10.844-44.07 13.435.707.64 1.43 1.258 2.172 1.856 13.084-2.883 27.646-7.398 42.636-13.456 14.99-6.06 28.603-12.934 40.019-19.957.112-.942.206-1.89.27-2.841-11.344 7.358-25.38 14.637-41.027 20.963" style="fill:#ddb294;fill-opacity:1;fill-rule:nonzero;stroke:none;stroke-width:.0449598" transform="matrix(.07212 0 0 .07212 24.373 37.438)"/><path d="M156.863 141.318c-16.52 6.68-32.43 11.132-45.74 13.189.504.53 1.02 1.05 1.547 1.555 13.315-2.403 28.76-6.905 44.75-13.368 15.991-6.464 30.228-13.962 41.474-21.487.031-.73.04-1.462.036-2.196-11.004 7.773-25.541 15.626-42.067 22.307" style="fill:#ceaa93;fill-opacity:1;fill-rule:nonzero;stroke:none;stroke-width:.0449668" transform="matrix(.07212 0 0 .07212 24.373 37.438)"/><path d="M155.563 138.108c-18.037 7.292-35.221 11.48-48.008 12.256a50.6 50.6 0 0 0 1.525 1.887c13.132-1.43 29.718-5.764 47.041-12.767 17.323-7.003 32.263-15.412 42.698-23.507a48.806 48.806 0 0 0-.216-2.416c-9.733 8.327-25.002 17.256-43.04 24.547" style="fill:#544032;fill-opacity:1;fill-rule:nonzero;stroke:none;stroke-width:.0449598" transform="matrix(.07212 0 0 .07212 24.373 37.438)"/><g><path style="fill:none;stroke:#000;stroke-width:.264583px;stroke-linecap:butt;stroke-linejoin:miter;stroke-opacity:1" d="M-206.927 460.955c-3.026-5.728 88.917-47.543 135.233-72.516 11.126.331 27.45 24.832 22.134 42.576-40.127 19.766-109.643 56.7-130.557 66.095-3.98 1.789-6.865 1.456-8.845 1.24" transform="matrix(.08073 0 0 .08073 23.571 -2.035)"/><path style="fill:#294146;fill-opacity:1;fill-rule:evenodd;stroke-width:.528331;stroke-miterlimit:4;stroke-dasharray:none;stop-color:#000" d="M-335.973 1573.664c5.038-19.378.21-50.981-12.255-80.21-9.53-22.345-21.122-40.35-35.514-55.16-9.121-9.388-16.348-15.055-25.494-19.994l-3.852-2.08 4.21-2.19 4.21-2.19 4.013 2.114c17.53 9.231 34.54 26.805 48.292 49.89 21.21 35.601 31.198 79.374 24.165 105.89l-1.092 4.114-3.614 1.82c-1.988 1.001-3.716 1.82-3.839 1.82-.123 0 .223-1.72.77-3.824z" transform="matrix(.02136 0 0 .02136 25.208 -.178)"/><path style="fill:#294146;fill-opacity:1;fill-rule:evenodd;stroke-width:.373586;stroke-miterlimit:4;stroke-dasharray:none;stop-color:#000" d="M-795.98 1795.231c-14.705-3.207-29.67-15.492-42.699-35.05-17.854-26.804-28.454-61.883-25.892-85.682.61-5.661 1.918-10.391 4.09-14.789l1.908-3.863 2.856.254c5.788.516 9.804 1.879 13.22 4.486l1.694 1.294-1.069 1.974c-1.327 2.45-3.462 8.812-4.286 12.774-.825 3.967-1.126 13.183-.59 18.08 1.241 11.324 4.961 23.345 10.912 35.26 12.952 25.93 33.573 46.913 48.252 49.096l2.864.426-.25 1.722c-.444 3.04-2.497 8.604-4.26 11.544-1.582 2.64-1.814 2.864-3.02 2.931-.717.04-2.396-.166-3.73-.457z" transform="matrix(.02136 0 0 .02136 25.208 -.178)"/><path style="fill:#8da1a8;fill-opacity:1;fill-rule:evenodd;stroke-width:4.22664;stroke-miterlimit:4;stroke-dasharray:none;stop-color:#000" d="M-769.494 1782.903c8.98-18.002 4.624-43.123-13.9-80.15-15.602-31.187-35.731-51.27-54.971-54.843l-11.36-2.11 16.577-10.95c58.25-38.47 412.49-216.303 423.752-212.728 13.5 4.285 42.533 39.752 55.87 68.253 8.917 19.054 13.521 36.336 14.931 56.038l2.038 28.487-64.876 33.856c-118.22 61.694-355.905 181.756-365.336 184.543-9.077 2.683-9.136 2.456-2.725-10.396z" transform="matrix(.02136 0 0 .02136 25.208 -.178)"/><path style="fill:#294146;fill-opacity:1;fill-rule:evenodd;stroke-width:4.22664;stroke-miterlimit:4;stroke-dasharray:none;stop-color:#000" d="M-325.67 1539.245c-2.3-38.974-22.727-82.83-50.816-109.105-11.41-10.673-20.147-19.857-19.415-20.41.732-.553 12.518-6.97 26.19-14.259 24.25-12.928 25.211-13.087 39.182-6.457 37.883 17.977 76.22 97.75 67.047 139.516-2.166 9.862-7.96 14.82-30.04 25.71-15.047 7.419-28.057 13.49-28.912 13.49-.854 0-2.31-12.819-3.235-28.485z" transform="matrix(.02136 0 0 .02136 25.208 -.178)"/><path style="fill:#98cddb;fill-opacity:1;fill-rule:evenodd;stroke-width:.747172;stroke-miterlimit:4;stroke-dasharray:none;stop-color:#000" d="M-790.011 1776.944c-14.474-4.49-32.816-24.175-44.638-47.906-8.361-16.782-12.327-34.976-10.528-48.29.808-5.972 3.703-15.619 5.112-17.027 1.259-1.259 10.326 5.254 17.976 12.912 9.616 9.626 16.007 18.87 23.463 33.94 9.728 19.661 14.32 35.453 15.077 51.846.444 9.604-.418 15.714-2.202 15.616-.497-.027-2.414-.519-4.26-1.091z" transform="matrix(.02136 0 0 .02136 25.208 -.178)"/><path style="fill:#d3dddf;fill-opacity:1;fill-rule:evenodd;stroke-width:.528331;stroke-miterlimit:4;stroke-dasharray:none;stop-color:#000" d="M-788.78 1795.005c2.878-5.853 4.116-8.892 4.59-11.264.318-1.596.996-4.8 1.506-7.121 1.204-5.474 1.151-16.938-.112-24.265-3.929-22.798-14.009-46.237-28.085-65.31-5.496-7.448-16.013-17.76-22.305-21.873-2.756-1.801-6.43-4.286-8.162-5.52-3.418-2.437-8.94-4.581-11.883-4.616-3.396-.04-3.614-.799-.75-2.616 10.973-6.96 25.313-2.552 41.016 12.605 21.456 20.711 39.52 55.143 44.444 84.715 1.148 6.89 1.147 18.18-.002 23.45-1.991 9.14-7.213 16.38-14.255 19.769-4.11 1.977-6.341 2.738-6.002 2.047z" transform="matrix(.02136 0 0 .02136 25.208 -.178)"/><path style="fill:none;stroke:#000;stroke-width:.264583px;stroke-linecap:butt;stroke-linejoin:miter;stroke-opacity:1" d="M-171.732 508.387c26.123 25.868 35.855 60.22 37.414 82.424M134.199 341.554c32.136 14.695 66.576 96.349 58.227 127.64" transform="matrix(.08073 0 0 .08073 23.26 -1.678)"/><path style="fill:none;stroke:#000;stroke-width:.264583px;stroke-linecap:butt;stroke-linejoin:miter;stroke-opacity:1" d="M123.774 345.852c30.31 14.339 68.487 98.414 58.217 128.117" transform="matrix(.08073 0 0 .08073 23.26 -1.678)"/><path style="fill:none;stroke:#000;stroke-width:.264583px;stroke-linecap:butt;stroke-linejoin:miter;stroke-opacity:1" d="M113.337 350.665c29.903 14.145 67.628 94.537 58.608 127.852M-193.74 519.698c28.784 28.605 35.57 62.498 36.923 80.338-21.59 2.276-53.246-65.833-36.924-80.338z" transform="matrix(.08073 0 0 .08073 23.26 -1.678)"/><path style="fill:none;stroke:#000;stroke-width:.264583px;stroke-linecap:butt;stroke-linejoin:miter;stroke-opacity:1" d="M-193.74 519.698 86.186 376.562c26.869-5.185 72.124 93.105 48.014 106.454l-291.018 117.02" transform="matrix(.08073 0 0 .08073 23.26 -1.678)"/><path style="fill:none;stroke:#000;stroke-width:.264583px;stroke-linecap:butt;stroke-linejoin:miter;stroke-opacity:1" d="M76.446 382.334c.127-6.976-.12-14.048 8.706-18.808 29.512-13.507 90.951 114.113 55.65 128.999-9.296 1.3-16.228-3.444-16.732-5.307" transform="matrix(.08073 0 0 .08073 23.26 -1.678)"/><path style="fill:none;stroke:#000;stroke-width:.264583px;stroke-linecap:butt;stroke-linejoin:miter;stroke-opacity:1" d="m85.152 363.526 128.19-58.668c40.19 8.378 76.955 103.254 58.155 128.379l-130.694 59.288" transform="matrix(.08073 0 0 .08073 23.26 -1.678)"/><path style="fill:none;stroke:#000;stroke-width:.264583px;stroke-linecap:butt;stroke-linejoin:miter;stroke-opacity:1" d="M103.653 355.072c36.357 23.615 65.035 91.536 57.806 128.246M-180.607 513c26.123 25.868 35.624 59.513 37.183 81.717M-136.238 490.23c-.423-.422-13.093-14.5-13.093-14.5 9.11-12.414 22.154-18.359 37.008-21.327l14.98 15.93" transform="matrix(.08073 0 0 .08073 23.26 -1.678)"/><path style="fill:none;stroke:#000;stroke-width:.264583px;stroke-linecap:butt;stroke-linejoin:miter;stroke-opacity:1" d="M-147.524 477.58c9.81-11.124 22.286-18.132 37.13-21.078" transform="matrix(.08073 0 0 .08073 23.26 -1.678)"/><path style="fill:#294146;fill-opacity:1;fill-rule:evenodd;stroke-width:2.98869;stroke-miterlimit:4;stroke-dasharray:none;stop-color:#000" d="M-620.67 2259.05c-15.854-8.281-44.724-37.676-61.71-62.834-51.657-76.505-79.315-185.89-56-221.474l5.278-8.055 19.121 20.584c23.61 25.415 56.569 74.26 72.105 106.858 22.487 47.182 40.713 110.243 46.106 159.53 1.254 11.455.766 12.668-5.042 12.542-3.536-.076-12.472-3.295-19.858-7.152zM-541.574 2231.051c-3.485-27.459-16.973-85.132-25.84-110.483-19.754-56.483-58.152-122.103-94.942-162.253l-17.572-19.177 15.849-7.773 15.85-7.773 18.488 21.428c59.748 69.25 98.37 152.422 115.261 248.212 6.678 37.87 6.525 38.53-10.553 45.627l-14.772 6.139z" transform="matrix(.02136 0 0 .02136 23.26 -1.678)"/><path style="fill:#294146;fill-opacity:1;fill-rule:evenodd;stroke-width:1.49434;stroke-miterlimit:4;stroke-dasharray:none;stop-color:#000" d="M501.89 1859.043c-13.014-2.831-30.425-12.08-30.416-16.158.002-.97 8.402-5.062 18.666-9.094 11.076-4.35 20.973-9.308 24.346-12.195 7.633-6.534 14.41-19.768 17.284-33.75 16.66-81.05-61.18-266.092-142.792-339.449-18.145-16.31-34.962-25.003-51.762-26.759-8.37-.875-9.124-.634-27.9 8.89l-19.299 9.787.491-9.222c1.19-22.345 6.374-35.485 18.194-46.111 11.601-10.431 16.6-12.347 32.219-12.347 12.734 0 14.083.322 26.11 6.22 81.791 40.12 189.097 238.695 202.995 375.654 5.142 50.665-6.467 87.71-32.091 102.407-6.277 3.6-9.145 4.302-17.229 4.215-5.334-.058-13.8-.997-18.816-2.088z" transform="matrix(.02136 0 0 .02136 23.26 -1.678)"/><path style="fill:#294146;fill-opacity:1;fill-rule:evenodd;stroke-width:1.49434;stroke-miterlimit:4;stroke-dasharray:none;stop-color:#000" d="M612.314 1820.298c.533-2.123 1.616-12.335 2.407-22.691 6.946-91.009-37.385-230.214-106.354-333.96-30.498-45.877-66.98-86.537-99.56-110.964-6.975-5.23-12.833-9.929-13.017-10.444-.37-1.031 30.7-15.16 33.27-15.129 4.19.05 30.301 19.423 44.677 33.149 80.489 76.847 161.346 244.153 177.452 367.175 3.48 26.588 2.763 63.1-1.52 77.312-.622 2.062-14.375 9.195-33.288 17.265l-5.036 2.149z" transform="matrix(.02136 0 0 .02136 23.26 -1.678)"/><path style="fill:#294146;fill-opacity:1;fill-rule:evenodd;stroke-width:1.49434;stroke-miterlimit:4;stroke-dasharray:none;stop-color:#000" d="M690.794 1787.374c0-.39 1.087-6.92 2.416-14.51 6.499-37.129-3.122-99.867-25.455-165.986-43.428-128.574-119.864-249.663-184.332-292.019-6.145-4.037-11.358-7.525-11.583-7.75-.225-.226 7.354-3.927 16.843-8.225l17.252-7.814 11.024 6.308c31.157 17.826 64.248 52.611 96.822 101.779 18.787 28.356 29.883 48.024 47.289 83.817 48.13 98.976 75.302 204.457 68.782 267.01-.98 9.406-2.219 18.239-2.751 19.627-1.082 2.82-36.307 20.053-36.307 17.763z" transform="matrix(.02136 0 0 .02136 23.26 -1.678)"/><path style="fill:#294146;fill-opacity:1;fill-rule:evenodd;stroke-width:.373586;stroke-miterlimit:4;stroke-dasharray:none;stop-color:#000" d="m-560.721 1801.123-2.842-3.211 1.92-2.454c10.646-13.603 22.386-25.266 35.155-34.923 25.306-19.138 57.166-32.792 96.196-41.223l5.557-1.2 3.074 3.317c1.692 1.824 3.03 3.366 2.975 3.427-.055.06-2.68.69-5.834 1.401-51.95 11.702-96.099 37.127-130.92 75.397l-2.44 2.681z" transform="matrix(.02136 0 0 .02136 23.26 -1.678)"/><path style="fill:#d3dddf;fill-opacity:1;fill-rule:evenodd;stroke-width:4.22664;stroke-miterlimit:4;stroke-dasharray:none;stop-color:#000" d="M-511.538 2189.206c-15.886-92.674-51.544-168.276-118.885-252.056-6.707-8.344-11.454-15.812-10.55-16.597.904-.785 219.78-112.944 486.39-249.24 544.687-278.458 494.922-257.565 535.208-224.699 32.389 26.425 63.757 70.278 94.18 131.666 55.687 112.362 71.191 201.426 40.791 234.318-9.08 9.825-109.738 51.795-511.376 213.22-275.038 110.542-502.01 201.803-504.38 202.8-2.516 1.059-7.255-15.36-11.378-39.412zM-592.944 2242.159c-11.015-81.992-51.865-177.344-103.125-240.71l-29.706-36.722 19.01-11.14c10.455-6.127 21.646-10.129 24.869-8.892 9.791 3.757 52.467 59.337 72.442 94.347 30.83 54.035 53.897 122.566 63.094 187.45l2.755 19.431-18.323 7.406a9738.323 9738.323 0 0 1-23.162 9.338c-3.078 1.228-5.937-6.236-7.854-20.508z" transform="matrix(.02136 0 0 .02136 23.26 -1.678)"/><path style="fill:none;stroke:#000;stroke-width:.264583px;stroke-linecap:butt;stroke-linejoin:miter;stroke-opacity:1" d="M-250.07 570.531c10.323-4.093 26.508 29.25 17.573 35.543-10.076 5.362-28.08-28.683-17.574-35.543z" transform="matrix(.08073 0 0 .08073 23.542 -1.612)"/><path style="fill:none;stroke:#000;stroke-width:.264583px;stroke-linecap:butt;stroke-linejoin:miter;stroke-opacity:1" d="m-231.802 606.139 58.45-26.188c1.358-10.082-4.53-32.487-17.483-36.68-19.745 9.086-60.323 25.637-59.236 27.26" transform="matrix(.08073 0 0 .08073 23.542 -1.612)"/><path style="fill:#294146;fill-opacity:1;fill-rule:evenodd;stroke-width:2.98869;stroke-miterlimit:4;stroke-dasharray:none;stop-color:#000" d="M-999.97 2350.784c-20.75-19.41-38.76-56.643-40.733-84.206-1.29-18.03-.715-20.787 5.957-28.543 6.944-8.073 7.942-8.356 16.697-4.73 35.581 14.739 73.296 99.53 55.543 124.875-7.843 11.198-20.192 8.76-37.464-7.396z" transform="matrix(.02136 0 0 .02136 25.397 -3.212)"/><path style="fill:#8da1a8;fill-opacity:1;fill-rule:evenodd;stroke-width:4.22664;stroke-miterlimit:4;stroke-dasharray:none;stop-color:#000" d="M-954.513 2334.714c-1.011-12.185-6.726-32.827-12.698-45.871-12.218-26.683-38.914-58.574-49.034-58.574-14.527 0 5.472-10.282 105.918-54.456 102.289-44.985 103.946-45.541 114.684-38.497 25.712 16.867 47.858 63.31 49.726 104.283l1.087 23.843-101.28 45.622c-55.704 25.091-102.469 45.662-103.922 45.713-1.454.051-3.47-9.877-4.481-22.063z" transform="matrix(.02136 0 0 .02136 25.397 -3.212)"/><path style="fill:#8da1a8;fill-opacity:1;fill-rule:evenodd;stroke-width:4.22664;stroke-miterlimit:4;stroke-dasharray:none;stop-color:#000" d="M-533.365 1828.995c-10.7-11.901-19.455-23.155-19.455-25.009 0-5.65 38.682-35.995 63.3-49.658 12.766-7.085 33.61-15.913 46.321-19.617l23.112-6.735 24.33 24.331 24.332 24.331-71.243 36.997-71.243 36.998zM731.867 1723.998c-.628-92.385-48.818-226.498-119.143-331.576-23.603-35.268-65.085-79.558-89.444-95.5l-10.55-6.905 44.31-20.744c24.37-11.41 91.17-42.179 148.444-68.376l104.134-47.63 24.091 11.029c28.985 13.27 84.114 66.913 111.025 108.034 60.708 92.761 101.12 218.525 96.53 300.406-3.335 59.504 4.784 53.072-163.504 129.543l-145.59 66.157z" transform="matrix(.02136 0 0 .02136 23.26 -1.678)"/><path style="fill:#8da1a8;fill-opacity:1;fill-rule:evenodd;stroke-width:4.22664;stroke-miterlimit:4;stroke-dasharray:none;stop-color:#000" d="M655.768 1760.338c-.69-66.886-24.654-150.382-69.228-241.214-38.946-79.363-99.7-160.373-138.041-184.07l-14.934-9.23 16.134-8.277c15.675-8.041 16.538-8.06 30.323-.636 21.286 11.463 66.73 61.818 94.714 104.948 73.837 113.8 126.617 271.883 115.508 345.96-2.542 16.955-4.912 20.468-18.475 27.384l-15.56 7.934z" transform="matrix(.02136 0 0 .02136 23.26 -1.678)"/><path style="fill:#8da1a8;fill-opacity:1;fill-rule:evenodd;stroke-width:4.22664;stroke-miterlimit:4;stroke-dasharray:none;stop-color:#000" d="M563.898 1832.568c31.505-60.924-14.199-227.352-96.864-352.72-42.806-64.92-74.028-95.571-109.917-107.91l-14.682-5.047 25.058-11.075 25.058-11.075 20 15.846c100.727 79.808 189.868 259.671 198.058 399.628 3.407 58.228 2.058 62.033-26.652 75.177-13.044 5.971-24.486 10.857-25.425 10.857-.94 0 1.475-6.156 5.366-13.68z" transform="matrix(.02136 0 0 .02136 23.26 -1.678)"/><g><path style="fill:none;stroke:#000;stroke-width:.264583px;stroke-linecap:butt;stroke-linejoin:miter;stroke-opacity:1" d="M2.553 561.536c-3.799-18.016-7.76-36.033-13.04-54.049-6.868-19.439-25.625-19.597-34.933-14.738l-10.35 6.791c-2.89 2.362-5.757 4.749-4.437 12.085 7.334 22.963 13.871 45.99 15.126 69.448 14.705-2.51 28.954-3.466 47.634-19.537z" transform="matrix(.08073 0 0 .08073 25.287 -2.337)"/><path style="fill:none;stroke:#000;stroke-width:.264583px;stroke-linecap:butt;stroke-linejoin:miter;stroke-opacity:1" d="M-58.086 501.508c-2.426 2.4-6.944 7.935-5.192 16.314 4.387 11.964 8.444 24.606 11.031 40.26l-19.9 7.913 2.381 9.017 21.503 5.72 3.182.341" transform="matrix(.08073 0 0 .08073 25.287 -2.337)"/><path style="fill:none;stroke:#000;stroke-width:.265;stroke-linecap:butt;stroke-linejoin:miter;stroke-miterlimit:4;stroke-dasharray:none;stroke-opacity:1" d="M-45.07 513.131c5.807-16.175 26.5-4.89 20.603 7.922-7.036 12.204-24.248 5.188-20.604-7.922z" transform="matrix(.08073 0 0 .08073 25.287 -2.337)"/><path style="fill:none;stroke:#000;stroke-width:.265;stroke-linecap:butt;stroke-linejoin:miter;stroke-miterlimit:4;stroke-dasharray:none;stroke-opacity:1" d="M-49.266 511.995c8.109-22.587 37.004-6.828 28.77 11.062-9.825 17.041-33.86 7.243-28.77-11.062z" transform="matrix(.08073 0 0 .08073 25.287 -2.337)"/><path style="fill:none;stroke:#000;stroke-width:.264583px;stroke-linecap:butt;stroke-linejoin:miter;stroke-opacity:1" d="m-72.79 671.183-.132-60.883c-1.044-6.118 6.925-20.146 19.766-20.735l35.53-.053c8.49-.133 20.393 8.743 20.737 19.861l-.045 61.68zM-57.91 578.182l-.164 12.197M-14.158 572.872l.002 17.041" transform="matrix(.08073 0 0 .08073 25.287 -2.337)"/><path style="fill:#294146;fill-opacity:1;fill-rule:evenodd;stroke-width:1.49434;stroke-miterlimit:4;stroke-dasharray:none;stop-color:#000" d="M3.327 2255.821c-11.008-2.964-16.164-5.911-25.062-14.326-23.773-22.484-21.796-62.084 4.276-85.646 16.566-14.971 41.857-16.652 63.153-4.196 8.818 5.157 21.006 18.623 25.254 27.903 14.05 30.69-4.65 67.364-38.896 76.284-10.686 2.784-18.334 2.779-28.725-.019zm33.049-16.996c8.182-3.961 17.549-13.067 21.202-20.612 1.487-3.072 2.977-10.065 3.31-15.54.504-8.261-.022-11.333-3.09-18.034-12.577-27.47-47.93-36.415-67.315-17.03-13.504 13.504-18.167 34.114-11.319 50.032 4.149 9.643 15.587 20.27 25.103 23.324 9.253 2.97 23.518 2.018 32.109-2.14zM-71.616 2432.614c-20.925-5.631-39.034-10.831-40.243-11.555-1.77-1.061-11.262-31.622-10.073-32.432.184-.125 16.952-6.835 37.261-14.912 28.81-11.457 36.927-15.266 36.927-17.327 0-4.784-8.805-46.039-14.245-66.745-2.936-11.175-10.254-35.09-16.262-53.143-6.008-18.053-11.323-35.543-11.812-38.867-1.182-8.039 1.039-20.942 5.292-30.746l3.457-7.97.846 11.936c.622 8.769 3.471 20.446 10.742 44.013 27.729 89.886 40.402 149.313 46.533 218.205l.896 10.07-5.636-.143c-3.1-.08-22.758-4.752-43.683-10.384z" transform="matrix(.02136 0 0 .02136 22.102 -7.653)"/><path style="fill:#8da1a8;fill-opacity:1;fill-rule:evenodd;stroke-width:4.22664;stroke-miterlimit:4;stroke-dasharray:none;stop-color:#000" d="M-122.38 2660.541c0-139.613 1.209-145.472 34.574-167.572 17.42-11.538 18.035-11.617 100.142-12.888 80.112-1.24 83.19-.974 101.604 8.764 10.444 5.523 24.687 18.127 31.65 28.007l12.66 17.965 1.34 124.136 1.342 124.136H-122.38zM-21.1 2425.421c0-35.417-20.891-133.447-44.558-209.084-14.133-45.167-13.604-59.487 2.747-74.422 21.485-19.624 61.718-38.246 82.63-38.246 32.854 0 65.32 19.483 80.307 48.193 8.405 16.1 22.84 68.803 41.43 151.27l15 66.531-11.763 10.374c-29.571 26.081-92.399 51.648-145.748 59.311l-20.045 2.88zm70.456-173.866c51.98-31.695 29.779-109.906-31.2-109.906-25.701 0-41.027 9.156-51.484 30.758-10.808 22.327-11.239 38.824-1.487 56.954 15.747 29.276 55.405 39.733 84.17 22.194z" transform="matrix(.02136 0 0 .02136 22.102 -7.653)"/><path style="fill:#8da1a8;fill-opacity:1;fill-rule:evenodd;stroke-width:4.22664;stroke-miterlimit:4;stroke-dasharray:none;stop-color:#000" d="M-8.765 2226.374c-8.043-8.043-12.335-16.655-12.335-24.75 0-14.587 13.733-33.667 28.186-39.162 23.582-8.966 56.263 20.685 50.056 45.415-7.737 30.826-43.532 40.872-65.907 18.497z" transform="matrix(.02136 0 0 .02136 22.102 -7.653)"/><path style="fill:#294146;fill-opacity:1;fill-rule:evenodd;stroke-width:4.22664;stroke-miterlimit:4;stroke-dasharray:none;stop-color:#000" d="M-67.52 2455.588c0-16.793 1.006-19.052 7.385-16.58 26.345 10.206 78.349 5.698 127.26-11.034 12.55-4.293 23.468-7.805 24.266-7.805.797 0 1.449 12.344 1.449 27.43v27.43H-67.52z" transform="matrix(.02136 0 0 .02136 22.102 -7.653)"/></g><g><path style="fill:none;stroke:#000;stroke-width:.264583px;stroke-linecap:butt;stroke-linejoin:miter;stroke-opacity:1" d="M-252.896 537.802c10.48-1.317 19.743-5.725 27.914-12.903-10.34 1.863-19.756 5.901-27.914 12.903zM-240.37 569.203c9.917-2.256 20.625-6.68 32.266-15.083M-252.896 537.802l-1.458 2.696M-224.982 524.899l2.551-.14" transform="matrix(.08073 0 0 .08073 23.727 -1.559)"/><path style="fill:none;stroke:#000;stroke-width:.264583px;stroke-linecap:butt;stroke-linejoin:miter;stroke-opacity:1" d="M-250.343 537.363c7.098-5.344 14.671-9.164 23.027-10.477" transform="matrix(.08073 0 0 .08073 23.727 -1.559)"/><g><path style="fill:none;stroke:#000;stroke-width:.264583px;stroke-linecap:butt;stroke-linejoin:miter;stroke-opacity:1" d="m-254.354 540.498 14.766 30.5c12.099-1.945 22.32-7.143 32.521-14.908l-15.364-31.332c-8.47 9.188-19.764 13.248-31.923 15.74z" transform="matrix(.08073 0 0 .08073 23.736 -1.562)"/><path style="fill:#294146;fill-opacity:1;fill-rule:evenodd;stroke-width:.373586;stroke-miterlimit:4;stroke-dasharray:none;stop-color:#000" d="M-932.8 2116.076c-.657-1.442-1.067-2.73-.912-2.863.156-.132 3.136-.965 6.624-1.85 33.938-8.618 66.954-23.514 99.59-44.936 3.488-2.289 8.164-5.462 10.393-7.05 2.228-1.59 4.097-2.838 4.153-2.776.055.062.788 1.487 1.628 3.166l1.526 3.051-4.747 3.515c-24.283 17.978-49.43 32.028-72.536 40.528-13.752 5.058-27.31 8.778-40.588 11.138l-3.938.7z" transform="matrix(.02136 0 0 .02136 24.3 -.736)"/><path style="fill:#8da1a8;fill-opacity:1;fill-rule:evenodd;stroke-width:4.22664;stroke-miterlimit:4;stroke-dasharray:none;stop-color:#000" d="M-956.881 2062.825c-12.013-25.116-22.387-48.153-23.055-51.193-.774-3.524 9.805-9.073 29.187-15.31 33.16-10.67 62.258-26.163 74.455-39.64 7.689-8.496 8.111-7.942 34.25 44.927l26.466 53.53-19.486 12.312c-26.025 16.443-67.04 34.861-85.23 38.273l-14.747 2.767z" transform="matrix(.02136 0 0 .02136 24.3 -.736)"/><path style="fill:#294146;fill-opacity:1;fill-rule:evenodd;stroke-width:.528331;stroke-miterlimit:4;stroke-dasharray:none;stop-color:#000" d="M-979.04 1992.457c0-.489 9.305-7.627 15.14-11.614 18.52-12.655 38.432-22.05 60.556-28.57 8.926-2.63 21.652-5.667 22.75-5.429.413.09-.595 1.226-2.334 2.629-2.893 2.335-3.422 2.544-9.636 3.802-24.636 4.988-49.852 16.487-74.053 33.77-5.893 4.207-7.3 4.98-9.66 5.305-1.52.209-2.763.257-2.763.107z" transform="matrix(.02136 0 0 .02136 24.3 -.736)"/><path style="fill:#98cddb;fill-opacity:1;fill-rule:evenodd;stroke-width:.747172;stroke-miterlimit:4;stroke-dasharray:none;stop-color:#000" d="M-967.1 1989.302c10.515-8.228 33.082-20.732 47.927-26.555 8.304-3.257 28.653-9.028 29.355-8.325.176.176-2.809 2.493-6.633 5.15-20.442 14.204-40.534 23.493-63.295 29.262-8.787 2.228-9.675 2.284-7.354.468z" transform="matrix(.02136 0 0 .02136 24.3 -.736)"/><path style="fill:#d3dddf;fill-opacity:1;fill-rule:evenodd;stroke-width:.264165;stroke-miterlimit:4;stroke-dasharray:none;stop-color:#000" d="M-986.144 2002.48c.658-1.286 4.134-7.721 4.237-7.844.048-.058 1.96-.381 4.247-.719 27.974-4.13 54.721-14.62 78.8-30.9 7.057-4.772 15.106-10.903 20.159-15.356l2.102-1.852 3.904-.23c2.146-.127 3.934-.203 3.973-.169.19.166-9.998 9.864-12.995 12.371-6.946 5.809-15.127 11.607-22.945 16.261-4.451 2.65-14.964 8.045-20.024 10.277-15.952 7.033-34.806 13.002-55.409 17.54-3.046.67-5.755 1.282-6.02 1.36-.46.135-.46.104-.029-.74z" transform="matrix(.02136 0 0 .02136 24.3 -.736)"/></g></g></g><g><g clip-path="url(#b)" transform="matrix(.15015 0 0 -.13761 -9.4 64.169)"><path d="m0 0-.589-.744a.172.172 0 0 1 .243-.242l.744.589C.684-.171.227.286 0 0" style="fill:#fff;fill-opacity:1;fill-rule:nonzero;stroke:none" transform="translate(120.134 233.598)"/><path d="m0 0 .667.016c.241.005.241.37 0 .375L0 .406C-.262.413-.262-.006 0 0" style="fill:#fff;fill-opacity:1;fill-rule:nonzero;stroke:none" transform="translate(248.333 111.863)"/><path d="M0 0c.342 0 .342.531 0 .531S-.343 0 0 0" style="fill:#fff;fill-opacity:1;fill-rule:nonzero;stroke:none" transform="translate(289.667 195.134)"/><path d="M0 0c.342 0 .342.531 0 .531S-.342 0 0 0" style="fill:#fff;fill-opacity:1;fill-rule:nonzero;stroke:none" transform="translate(223 127.467)"/><path d="M0 0c.573 0 .574.891 0 .891C-.573.891-.574 0 0 0" style="fill:#fff;fill-opacity:1;fill-rule:nonzero;stroke:none" transform="translate(307 195.62)"/><path d="M0 0c.573 0 .574.891 0 .891C-.573.891-.574 0 0 0" style="fill:#fff;fill-opacity:1;fill-rule:nonzero;stroke:none" transform="translate(266 208.288)"/><path d="M0 0c.392 0 .393.609 0 .609C-.392.609-.393 0 0 0" style="fill:#fff;fill-opacity:1;fill-rule:nonzero;stroke:none" transform="translate(125.666 347.762)"/><path d="M0 0c.292 0 .292.453 0 .453S-.292 0 0 0" style="fill:#fff;fill-opacity:1;fill-rule:nonzero;stroke:none" transform="translate(137 359.173)"/><path d="M0 0c.292 0 .292.453 0 .453S-.292 0 0 0" style="fill:#fff;fill-opacity:1;fill-rule:nonzero;stroke:none" transform="translate(181.667 384.506)"/><path d="m0 0-.636-.113c-.112-.02-.112-.206 0-.226L0-.452C.378-.519.38.067 0 0" style="fill:#fff;fill-opacity:1;fill-rule:nonzero;stroke:none" transform="translate(159.605 412.959)"/><path d="M0 0c.523 0 .524.812 0 .812C-.522.812-.523 0 0 0" style="fill:#fff;fill-opacity:1;fill-rule:nonzero;stroke:none" transform="translate(221.667 367.66)"/><path d="M0 0c.636.064 1.09.361 1.455.885.092.132-.112.285-.221.17C.883.686.504.558 0 .578-.377.593-.366-.037 0 0" style="fill:#fff;fill-opacity:1;fill-rule:nonzero;stroke:none" transform="translate(207.667 344.444)"/><path d="M0 0c.271 0 .272.422 0 .422C-.271.422-.271 0 0 0" style="fill:#fff;fill-opacity:1;fill-rule:nonzero;stroke:none" transform="translate(340.333 404.522)"/><path d="M0 0c.382 0 .383.594 0 .594S-.383 0 0 0" style="fill:#fff;fill-opacity:1;fill-rule:nonzero;stroke:none" transform="translate(315.667 383.103)"/><path d="M0 0c-.222.029-.444.06-.667.086-.843.097-.845-1.41 0-1.313.223.026.445.057.667.086C.731-1.043.733-.098 0 0" style="fill:#fff;fill-opacity:1;fill-rule:nonzero;stroke:none" transform="translate(149 302.637)"/><path d="M0 0c.604 0 .604.937 0 .937C-.603.937-.604 0 0 0" style="fill:#fff;fill-opacity:1;fill-rule:nonzero;stroke:none" transform="translate(326.333 356.93)"/><path d="M0 0c.24.015.474.019.708.076.149.036.149.265 0 .301C.475.434.239.438 0 .453-.292.471-.292-.019 0 0" style="fill:#fff;fill-opacity:1;fill-rule:nonzero;stroke:none" transform="translate(377 313.84)"/><path d="M0 0c.312 0 .312.484 0 .484S-.312 0 0 0" style="fill:#fff;fill-opacity:1;fill-rule:nonzero;stroke:none" transform="translate(385.667 347.824)"/><path d="M0 0c.613 0 .614.953 0 .953C-.613.953-.614 0 0 0" style="fill:#fff;fill-opacity:1;fill-rule:nonzero;stroke:none" transform="translate(97.666 232.256)"/><path d="M0 0c.804 0 .806 1.25 0 1.25C-.805 1.25-.806 0 0 0" style="fill:#fff;fill-opacity:1;fill-rule:nonzero;stroke:none" transform="translate(251.667 318.774)"/><path d="M0 0c.679 0 .68 1.055 0 1.055C-.679 1.055-.68 0 0 0" style="fill:#fff;fill-opacity:1;fill-rule:nonzero;stroke:none" transform="translate(278.333 376.872)"/><path d="m0 0 .111.47c.267 1.129-1.621 1.136-1.352 0L-1.13 0C-.998-.558-.132-.559 0 0" style="fill:#fff;fill-opacity:1;fill-rule:nonzero;stroke:none" transform="translate(222.898 403.244)"/><path d="M0 0c1.081 0 1.083 1.68 0 1.68C-1.08 1.68-1.082 0 0 0" style="fill:#fff;fill-opacity:1;fill-rule:nonzero;stroke:none" transform="translate(280.333 447.893)"/><path d="M0 0c1.372 0 1.375 2.133 0 2.133C-1.372 2.133-1.375 0 0 0" style="fill:#fff;fill-opacity:1;fill-rule:nonzero;stroke:none" transform="translate(355 392.333)"/><path d="M0 0c2.152 0 2.155 3.344 0 3.344C-2.151 3.344-2.155 0 0 0" style="fill:#fff;fill-opacity:1;fill-rule:nonzero;stroke:none" transform="translate(95.666 291.728)"/><path d="M0 0c-.009.243-.008.476-.061.712-.036.164-.295.164-.331 0C-.444.476-.444.241-.453 0-.464-.292.011-.292 0 0" style="fill:#fff;fill-opacity:1;fill-rule:nonzero;stroke:none" transform="translate(247.227 438.733)"/><path d="M0 0c.402 0 .402.625 0 .625S-.402 0 0 0" style="fill:#fff;fill-opacity:1;fill-rule:nonzero;stroke:none" transform="translate(284 333.42)"/><path d="M0 0c.805 0 .806 1.25 0 1.25C-.805 1.25-.806 0 0 0" style="fill:#fff;fill-opacity:1;fill-rule:nonzero;stroke:none" transform="translate(305 332.774)"/><path d="M0 0c.765 0 .766 1.187 0 1.187C-.764 1.187-.765 0 0 0" style="fill:#fff;fill-opacity:1;fill-rule:nonzero;stroke:none" transform="translate(312.333 316.806)"/><path d="M0 0c2.061 0 2.064 3.203 0 3.203C-2.061 3.203-2.064 0 0 0" style="fill:#fff;fill-opacity:1;fill-rule:nonzero;stroke:none" transform="translate(134.333 335.131)"/><path d="M0 0c1.75 0 1.752 2.719 0 2.719C-1.75 2.719-1.752 0 0 0" style="fill:#fff;fill-opacity:1;fill-rule:nonzero;stroke:none" transform="translate(183 442.04)"/><path d="M0 0c1.156 0 1.158 1.797 0 1.797C-1.156 1.797-1.158 0 0 0" style="fill:#fff;fill-opacity:1;fill-rule:nonzero;stroke:none" transform="translate(294.333 405.168)"/><path d="M0 0c1.779 0 1.782 2.766 0 2.766C-1.78 2.766-1.783 0 0 0" style="fill:#fff;fill-opacity:1;fill-rule:nonzero;stroke:none" transform="translate(287.667 315.35)"/><path d="M0 0c.159.03.319.059.463.143.076.044.51.517.272.275C.522.202.877.532.912.577a.978.978 0 0 1 .183.396L.765.544.856.6c.318.192.471.749.131 1.011l-.003-.007c-.128.262-.504.494-.798.459-.27-.033-.488-.071-.723-.211-.652-.391-.627-1.314 0-1.709C-.354.027-.22-.042 0 0" style="fill:#fff;fill-opacity:1;fill-rule:nonzero;stroke:none" transform="translate(386.469 232.244)"/><path d="M0 0c1.132 0 1.133 1.758 0 1.758C-1.131 1.758-1.133 0 0 0" style="fill:#fff;fill-opacity:1;fill-rule:nonzero;stroke:none" transform="translate(354.333 339.188)"/><path d="M0 0c1.709 0 1.712 2.656 0 2.656C-1.709 2.656-1.712 0 0 0" style="fill:#fff;fill-opacity:1;fill-rule:nonzero;stroke:none" transform="translate(222.333 354.738)"/><path d="M0 0c.072.327.16.592.056.921a.512.512 0 0 1-.979 0C-1.026.594-.939.328-.867 0c.096-.428.772-.428.867 0" style="fill:#fff;fill-opacity:1;fill-rule:nonzero;stroke:none" transform="translate(186.1 304.613)"/><path d="M0 0c1.207 0 1.208 1.875 0 1.875C-1.207 1.875-1.208 0 0 0" style="fill:#fff;fill-opacity:1;fill-rule:nonzero;stroke:none" transform="translate(161 390.462)"/><path d="M0 0c1.081 0 1.083 1.68 0 1.68C-1.081 1.68-1.083 0 0 0" style="fill:#fff;fill-opacity:1;fill-rule:nonzero;stroke:none" transform="translate(187.667 423.893)"/><path d="M0 0c1.005 0 1.007 1.562 0 1.562C-1.005 1.562-1.007 0 0 0" style="fill:#fff;fill-opacity:1;fill-rule:nonzero;stroke:none" transform="translate(115.666 269.952)"/><path d="m0 0 .17-.401c.341-.806 1.782-.806 2.122 0l.17.401c.206.486.283.956 0 1.439a1.436 1.436 0 0 1-1.231.707c-.502 0-.977-.273-1.231-.707C-.283.956-.206.486 0 0" style="fill:#fff;fill-opacity:1;fill-rule:nonzero;stroke:none" transform="translate(149.102 260.013)"/><path d="M0 0c-.053.428-.037.746-.398 1.021a.391.391 0 0 1-.414 0C-1.174.746-1.158.428-1.211 0-1.307-.778.096-.779 0 0" style="fill:#fff;fill-opacity:1;fill-rule:nonzero;stroke:none" transform="translate(138.939 192.733)"/><path d="M0 0a1.608 1.608 0 0 1-.343.493.674.674 0 0 1-.932 0A1.61 1.61 0 0 1-1.619 0c-.31-.624.062-1.411.81-1.411C-.062-1.411.31-.624 0 0" style="fill:#fff;fill-opacity:1;fill-rule:nonzero;stroke:none" transform="translate(207.143 176.54)"/><path d="M0 0c1.684 0 1.687 2.617 0 2.617C-1.684 2.617-1.687 0 0 0" style="fill:#fff;fill-opacity:1;fill-rule:nonzero;stroke:none" transform="translate(183.667 199.424)"/><path d="M0 0c1.005 0 1.007 1.562 0 1.562C-1.005 1.562-1.007 0 0 0" style="fill:#fff;fill-opacity:1;fill-rule:nonzero;stroke:none" transform="translate(238.333 143.952)"/><path d="M0 0c.854 0 .856 1.328 0 1.328C-.854 1.328-.856 0 0 0" style="fill:#fff;fill-opacity:1;fill-rule:nonzero;stroke:none" transform="translate(271 170.069)"/><path d="M0 0c.854 0 .856 1.328 0 1.328C-.854 1.328-.856 0 0 0" style="fill:#fff;fill-opacity:1;fill-rule:nonzero;stroke:none" transform="translate(222 217.069)"/><path d="M0 0c1.784 0 1.787 2.773 0 2.773C-1.784 2.773-1.787 0 0 0" style="fill:#fff;fill-opacity:1;fill-rule:nonzero;stroke:none" transform="translate(377 180.013)"/><path d="M0 0c1.785 0 1.788 2.773 0 2.773C-1.785 2.773-1.788 0 0 0" style="fill:#fff;fill-opacity:1;fill-rule:nonzero;stroke:none" transform="translate(238 203.346)"/><path d="M0 0c.081.436.155.715-.042 1.128-.189.395-.857.395-1.046 0C-1.285.715-1.211.436-1.13 0-1.026-.559-.104-.56 0 0" style="fill:#fff;fill-opacity:1;fill-rule:nonzero;stroke:none" transform="translate(348.898 191.244)"/><path d="M0 0c.754 0 .756 1.172 0 1.172C-.754 1.172-.755 0 0 0" style="fill:#fff;fill-opacity:1;fill-rule:nonzero;stroke:none" transform="translate(294.333 129.48)"/><path d="M0 0c.679 0 .68 1.055 0 1.055C-.679 1.055-.68 0 0 0" style="fill:#fff;fill-opacity:1;fill-rule:nonzero;stroke:none" transform="translate(264.333 90.873)"/><path d="M0 0c.704 0 .705 1.094 0 1.094C-.703 1.094-.705 0 0 0" style="fill:#fff;fill-opacity:1;fill-rule:nonzero;stroke:none" transform="translate(318.333 186.853)"/><path d="M0 0c1.709 0 1.712 2.656 0 2.656C-1.709 2.656-1.712 0 0 0" style="fill:#fff;fill-opacity:1;fill-rule:nonzero;stroke:none" transform="translate(351 237.405)"/><path d="M0 0c.604 0 .604.937 0 .937S-.604 0 0 0" style="fill:#fff;fill-opacity:1;fill-rule:nonzero;stroke:none" transform="translate(357 278.264)"/></g></g><g><path d="M14563.2 5673.86c260.2-5.64 520 22.71 778.8 51.03 319.3 34.93 638.7 69.86 958 104.8-15.4 27.66-31.6 54.77-48.6 81.35-296.5-57.64-615.1-30.81-919.9-1.48-323.2 31.08-646.7 62.18-971.4 68.62-213.7 4.24-427.5-2.27-641.2-12.53-72.1-102.7-131.9-214.74-177.2-333.91 117.2 41.01 243.7 60.33 368.1 65.8 217.8 9.58 435.4-18.97 653.4-23.68" style="fill:#e6c986;fill-opacity:1;fill-rule:nonzero;stroke:none" transform="matrix(.00253 0 0 -.00253 3.158 27.752)"/><path d="M14338.7 5315.67c305.1 26.23 601.3 126.3 907.3 139.17 352.6 14.85 704.6-86.39 1054-138.31-30.1 162.15-86.1 315.19-163.6 454.65-316.1-34.58-632.2-69.17-948.4-103.74-256.2-28.04-513.3-56.1-771-50.52-215.8 4.67-431.2 32.93-646.8 23.44-123.1-5.42-248.4-24.53-364.4-65.14-32.5-85.58-57.5-174.85-74.1-267.07 171.3 19.45 347.9 12.76 525 6.06 161.4-6.09 323.2-12.19 482 1.46" style="fill:#fbf2c6;fill-opacity:1;fill-rule:nonzero;stroke:none" transform="matrix(.00255 0 0 -.00255 3.158 27.752)"/><path d="M15292 6489.08c335.8-12.12 672.4-41.48 1008-44.88-222.6 175.02-493.9 290.9-790.3 323.78-57.1 6.36-115.2 9.62-174.1 9.62-363.6 0-698.2-124.26-963.6-332.63 301.5 50.31 613.8 55.15 920 44.11" style="fill:#f7ebbc;fill-opacity:1;fill-rule:nonzero;stroke:none" transform="matrix(.00247 0 0 -.00247 3.158 27.752)"/><path d="M14403.1 5996.08c325.6-6.46 650.1-37.65 974.3-68.83 305.7-29.42 625.2-56.33 922.6 1.49-92.8 144.98-209.5 273.24-344.3 379.32-328.5 3.34-658.1 32.07-986.7 43.93-299.8 10.81-605.5 6.08-900.6-43.17-118-92.66-222-202.35-308.4-325.31 214.3 10.29 428.7 16.82 643.1 12.57" style="fill:#f1b55c;fill-opacity:1;fill-rule:nonzero;stroke:none" transform="matrix(.00252 0 0 -.00252 3.158 27.752)"/><path d="M14116.2 4964.02c206.4-5.7 409.8 42.78 613.9 73.62 519.5 78.48 1046.2 42.63 1569.7-21.27.1 5.06.2 10.12.2 15.19 0 94.53-8.8 186.99-25.4 276.68-348.9 51.84-700.3 152.92-1052.4 138.1-305.5-12.86-601.2-112.77-905.9-138.96-158.5-13.63-320.1-7.54-481.2-1.45-176.9 6.69-353.1 13.37-524.2-6.06-14-77.95-22-158.01-23.5-239.66 272.3 17.11 550.9-88.46 828.8-96.19" style="fill:#d69254;fill-opacity:1;fill-rule:nonzero;stroke:none" transform="matrix(.00256 0 0 -.00256 3.158 27.752)"/><path d="M15511.8 4295.32c-143.1 19.56-278.4 74.33-412.4 127.97-312.5 125.18-651.3 248.72-978.4 168.91-99.6-24.25-194.6-66.94-296.1-81.98-87.3-12.87-175-4.78-261.8 13.04 42.9-106.15 97.4-206.3 161.9-299.06 180.4 60.51 379.7 78.68 571.5 94.16 194 15.64 391.5 31.12 581.8-10.61 220.5-48.42 419.7-171.35 641-215.86 124.3-24.95 252.6-24.52 380.4-24.17 68 .26 135.9.43 203.1-3.22 75.1 82.07 141.3 172.22 197.2 269.15-135.6-11.38-271.2-22.86-406.8-34.25-127-10.78-255.2-21.38-381.4-4.08" style="fill:#e6ae67;fill-opacity:1;fill-rule:nonzero;stroke:none" transform="matrix(.00252 0 0 -.00252 3.158 27.752)"/><path d="M15028.4 4039.08c-119.5 17.7-236.1 57.26-357 61.14-48.1 1.54-95.6-2.71-142.5-11.02 160.1-137.37 347.8-243.22 553.7-308.25 60.4 12.02 121 21.32 182.1 25.3 185 12.01 367.3-25.93 546.2-78.76 174.1 27.73 338.7 83.81 489.1 163.38-107.7 32.6-210 87.88-318.8 119.3-171.7 49.59-350.9 38.03-530.8 26.47-141.3-9.03-283-18.15-422 2.44" style="fill:#e1b67b;fill-opacity:1;fill-rule:nonzero;stroke:none" transform="matrix(.00243 0 0 -.00243 3.158 27.752)"/><path d="M15709.3 4141.99c-224 45.06-425.6 169.49-648.9 218.51-192.5 42.24-392.4 26.57-588.9 10.73-194.1-15.66-395.8-34.05-578.5-95.3 75.2-108.07 163.8-206.1 263.5-291.55 45.7 8.1 92 12.24 138.9 10.74 117.7-3.78 231.3-42.33 347.8-59.58 135.4-20.06 273.4-11.17 411.2-2.37 175.3 11.26 349.8 22.53 517.1-25.79 106.1-30.62 205.8-84.48 310.7-116.25 157.3 83.25 298.6 192.99 417.8 323.14-68 3.7-136.8 3.52-205.6 3.26-129.4-.35-259.2-.79-385.1 24.46" style="fill:#fbebbc;fill-opacity:1;fill-rule:nonzero;stroke:none" transform="matrix(.0025 0 0 -.0025 3.158 27.752)"/><path d="M15767.3 4841.09c-144.6 23.42-292.3 4.3-437.8-12.15-654.1-73.93-1314.3-92.28-1971.4-55.32 18.5-100.72 46.9-197.91 84.3-290.62 85.9-17.67 172.9-25.68 259.5-12.93 100.5 14.91 194.7 57.22 293.4 81.25 324.2 79.1 660-43.34 969.7-167.41 132.8-53.16 266.9-107.44 408.7-126.83 125.1-17.15 252.2-6.63 378.1 4.05 134.4 11.29 268.7 22.66 403.1 33.95 62 107.44 111 223.16 145.1 345.16-23.2 9.22-46.2 18.96-68.8 28.87-151.5 66.51-300.7 145.52-463.9 171.98" style="fill:#eda157;fill-opacity:1;fill-rule:nonzero;stroke:none" transform="matrix(.00255 0 0 -.00255 3.158 27.752)"/><path d="M14730.3 5037.69c-204.1-30.83-407.6-79.32-613.9-73.61-278 7.72-556.6 113.3-828.9 96.18-.2-9.52-.3-19.06-.3-28.65 0-69.64 4.8-138.15 14-205.27 3.2-23.19 7-46.2 11.2-69.04 654.8-36.84 1312.8-18.55 1964.7 55.13 145 16.4 292.2 35.45 436.3 12.11 162.7-26.37 311.3-105.11 462.3-171.4 22.5-9.87 45.5-19.57 68.6-28.76 35 124.85 54.3 256.29 55.7 392.04-523.5 63.9-1050.2 99.75-1569.7 21.27" style="fill:#dfb774;fill-opacity:1;fill-rule:nonzero;stroke:none" transform="matrix(.00256 0 0 -.00256 3.158 27.752)"/><path d="M15587.1 4736.13c98.6 26.05 198.5 59.93 299.8 49.39 135.5-14.02 249.2-104.17 354.4-190.67 27.9-23 58.7-53.14 52.9-88.76-6.7-40.33-54.5-57.32-94.5-65.42-377-75.61-782.4-50-1125.6 123.43-37.8 19.16-97.1 80.14-35.7 114.02 18.9 10.46 49.4 5.23 78.1 0 17.3-3.13 34-6.27 46.8-6.01 142.5 3.75 286.3 27.79 423.8 64.02" style="fill:#e6ae67;fill-opacity:1;fill-rule:nonzero;stroke:none" transform="matrix(.00252 0 0 -.00252 3.158 27.752)"/><path d="M16165.7 4527.44c30 .61 61.4 1.76 87.9 15.85 26.5 14.1 46.4 45.36 37.5 74.08-5.3 17-19.4 29.68-33.8 40.16-67.8 49.06-154.3 65.53-238 65.27-83.7-.27-166.4-15.86-249.6-24.66-75.4-8.02-151.3-10.57-227.1-7.58-26.1 1.06-54.2 2.29-75.9-11.98-13.6-8.89-25.3-29.77-20.8-46.33 5.9-21.49 29-22.9 48.2-29.76 50.8-18.33 102.9-32.51 155.7-43.25 107.5-22.02 217.1-30.21 326.6-32.5 63.1-1.32 126.2-.62 189.3.7" style="fill:#e6c986;fill-opacity:1;fill-rule:nonzero;stroke:none" transform="matrix(.0025 0 0 -.0025 3.158 27.752)"/><path d="M15719.1 4634.12c162.2-44.51 332-61.62 499.9-50.54 29 1.95 64.2 9.58 72.5 37.42 8.5 28.37-18.7 54.87-45.8 66.84-41.5 18.26-88.6 20.75-133.9 16.58-45.2-4.17-89.7-14.54-134.8-21.01-69.8-9.93-141.1-10.2-211.1-.71-20 2.75-73.9 17.29-87.2-4.43-14.6-24.12 23.9-39.63 40.4-44.15" style="fill:#dfb774;fill-opacity:1;fill-rule:nonzero;stroke:none" transform="matrix(.00248 0 0 -.00248 3.158 27.752)"/><path d="M16081.7 3832.01H16073.6c-.7 0-1.4 0-2.3.09H16061.3c-.5.09-1.1.09-1.7.09h-.4c-51.4.65-102.1 3.74-152.2 9.06-8.5.93-17 1.86-25.5 2.89-100.8 12.32-198.9 33.79-293.2 63.56 62.3 12.42 124.9 22.04 188.1 26.14 23.9 1.59 47.9 2.34 71.8 2.34h.4c16.8 0 33.6-.38 50.4-1.12 8.5-.38 17.1-.84 25.6-1.31 126.6-8.03 251.7-34.72 375.4-69.45-11.9-7.56-23.8-14.93-35.7-22.21-60-6.63-120.9-10.08-182.6-10.08" style="fill:#fae1a9;fill-opacity:1;fill-rule:nonzero;stroke:none" transform="matrix(.00235 0 0 -.00235 3.158 27.752)"/><path d="M16188.5 4635.34c-23.8 0-47.5 1.42-70.9 5.62-13.8 2.4-24.8 9.54-32.8 21.32-13.3 19.63 6.2 28.82 23.9 30.07l136.5 10.17c5.6.44 11.4.8 17.1.8 8.4 0 16.7-.89 24.6-4.02 4.8-1.87 9.4-4.81 13.1-8.56-4.6-16.06-9.3-31.94-14.3-47.82-8.6-3.03-18.1-3.75-27.4-4.46-23.1-1.7-46.4-3.12-69.8-3.12" style="fill:#eda157;fill-opacity:1;fill-rule:nonzero;stroke:none" transform="matrix(.00246 0 0 -.00246 3.158 27.752)"/></g><g><path d="M15846.4 9022.13c-13.5 72.52-38.6 140.95-73.2 203.32-6.8 12.25-14 24.26-21.5 36.02-41 64-92.5 120.62-152 167.44-96.2 75.63-213.4 125.7-341.5 139.9-24.7 2.75-49.8 4.16-75.2 4.16-157.1 0-301.7-53.69-416.4-143.72-52.1-40.9-98-89.32-136.1-143.6-31.9-45.47-58.4-95.07-78.5-147.83-14.5-38.28-25.7-78.2-33.1-119.44-6.3-34.92-9.8-70.78-10.5-107.34-.1-4.27-.2-8.55-.2-12.85 0-31.19 2.2-61.88 6.3-91.94 1.4-10.4 3.1-20.68 5-30.93 8.3-44.94 20.9-88.35 37.6-129.7 19-46.96 43.1-91.3 71.6-132.32 32.9-47.23 71.6-90.07 115.2-127.43 68.1-58.48 148.1-103.58 235.8-131.26 64.2-20.25 132.4-31.19 203.3-31.19 25.4 0 50.5 1.41 75.2 4.16 10.6 1.18 21.2 2.6 31.6 4.27 74.2 11.79 144.3 35.69 208.3 69.57 68.8 36.39 130.5 84.33 182.6 141.24 33.2 36.27 62.5 76.18 87.3 119.06 27.6 47.95 49.5 99.63 64.7 154.06 15.7 55.95 24.4 114.82 25 175.61 0 2.28.1 4.54.1 6.8 0 42.34-4 83.76-11.4 123.94" style="fill:#db5931;fill-opacity:1;fill-rule:nonzero;stroke:none" transform="matrix(.00333 0 0 -.00333 -42.446 56.417)"/><path d="M15123.7 9402.47c-44-8.08-86.6-42.5-88.4-87.16-1.5-37.88 25.9-71.35 57.5-92.32s68.2-33.33 100.3-53.47c32.1-20.13 61-51.71 62.4-89.59 2.6-67.58-80.6-118.08-72-185.15 6.9-53.52 68.3-81.29 122-86.63 95.5-9.48 190.1 19.23 281.7 47.61 39.7 12.29 81.9 26.27 107.5 59 25.3 32.23 28.8 78.47 13.7 116.48-15.2 38-47.2 67.84-84.1 85.59-35.5 17.1-78.6 26.12-100.6 58.89-10.5 15.64-14.5 34.59-20.3 52.52-23.5 72.24-82.5 130.7-152.9 157.9-34.3 13.25-62.7 13.34-98.2 11.45-18.6-.99-37 1.25-55.4 3.48-24.3 2.96-48.6 5.92-73.2 1.4" style="fill:#bc4524;fill-opacity:1;fill-rule:nonzero;stroke:none" transform="matrix(.00333 0 0 -.00333 -42.446 56.417)"/><path d="M15252.5 9225.38c15.8-12.04 34.1-20.68 49.8-32.86 31.7-24.5 51.9-68.52 36.7-105.58-12.9-31.49-49-55.83-44.1-89.51 3.1-21.49 23.5-37.13 44.7-41.7 21.2-4.58 43.3-.44 64.6 3.7 23.8 4.63 51.9 12.9 58.8 36.17 5.7 18.94-5.9 38.18-11 57.27-7.2 26.72-1.7 55.01-2.2 82.68-.9 48.07-21 95.51-54.9 129.57-30.8 30.96-85.4 60.39-130.8 57.52-56.9-3.59-46.5-70.7-11.6-97.26" style="fill:#a8351b;fill-opacity:1;fill-rule:nonzero;stroke:none" transform="matrix(.00333 0 0 -.00333 -42.446 56.417)"/><path d="M15118.3 8815.41c15.4-21.63 40.2-34.09 63.6-46.58 23.4-12.5 47.6-27.08 59.7-50.67 9.6-18.75 10.3-40.65 10.8-61.72.5-25.3-2.7-56.73-26.2-66.03-28.1-11.08-53.9 19.9-82.7 28.76-24.7 7.58-51.3-1.82-74.1-13.87-22.8-12.06-44.7-27.12-70.1-31.96-35.8-6.85-72 7.85-104.5 24.34-34.6 17.56-69.4 38.91-89.2 72.25-19.9 33.35-19.5 81.57 10.3 106.4 25.8 21.5 63.9 19.49 93.8 34.83 24 12.31 40.9 34.86 55.6 57.48 14.7 22.62 28.4 46.53 48.9 64.07 20.5 17.55 49.9 27.69 74.9 17.56 59.8-24.24.2-93.99 29.2-134.86M15029.6 8510.01c21.5 16.42 40.2 38.33 66.1 45.88 42.7 12.42 84.8-18.17 128.1-28.17 43.3-9.99 88.5 1 130.4 15.71 41.9 14.7 83 33.31 127 39.16 44 5.85 93.1-3.47 122.6-36.64 15.3-17.25 23.7-44.77 9.7-63.08-11.8-15.3-34.6-18.38-46.8-33.34-10.5-12.94-10.4-31.23-15.4-47.17-9.2-29.94-36.9-51.36-66.7-61.04-29.8-9.67-61.8-9.39-93.1-8.32-31.3 1.06-63 2.77-93.6-4.3-40.8-9.44-80.6-34.43-121.5-25.52-18.3 3.96-34.4 14.43-52.2 20.17-26.8 8.68-55.7 6.25-83.8 7.19-53.1 1.76-105.7 16.04-152.4 41.35-23.2 12.61-50.4 31.9-53.2 60.63-2.2 23.08 10 44.6 33.6 46.39 11.7.9 23.3-.58 34.9-2.06 12.8-1.61 25.6-3.23 38.8-1.73 31.6 3.62 62.2 15.57 87.5 34.89" style="fill:#bc4524;fill-opacity:1;fill-rule:nonzero;stroke:none" transform="matrix(.00333 0 0 -.00333 -42.446 56.417)"/><path d="M15239.4 8377.24c-2.2 0-4.4.03-6.6.11-34 1.16-66.9 11.69-100.1 19.08-17.7 3.92-34 5.53-50.4 5.53-13.1 0-26.2-1.02-40.3-2.69-2-.23-4-.35-6-.35-18.6 0-36.4 10.16-18.3 31.41 28.6 33.38 93.6 38.39 143 38.39 11.8 0 22.7-.28 31.9-.53 29.9-.82 60-2.88 89.9-2.88 28.2 0 56.3 1.84 83.8 8.28 16.4 3.85 32.7 9.37 49.6 9.45h.4c16.8 0 34.8-6.66 42.9-21.31 12.9-23.2-6.2-53.21-30.6-63.51-24.5-10.3-52.1-7.61-78.6-8.97-37.1-1.89-73.6-12.01-110.6-12.01" style="fill:#a8351b;fill-opacity:1;fill-rule:nonzero;stroke:none" transform="matrix(.00333 0 0 -.00333 -42.446 56.417)"/></g><path style="fill:none;stroke:#fff;stroke-width:.1;stroke-linecap:butt;stroke-linejoin:miter;stroke-miterlimit:4;stroke-dasharray:.6,.1;stroke-dashoffset:0;stroke-opacity:1" d="m5.531 21.034 4.717-4.92"/></svg>