<svg xmlns="http://www.w3.org/2000/svg" viewBox="0 0 1580 1580"><path fill="#0f0" stroke="#0f0" stroke-width="2" d="M60 790h1460"/><path fill="#0f0" stroke="#0f0" stroke-width="1.9" d="m284 498 1012 584"/><g><path d="m1409 747-1-4-5-1-4 1-2 4h-4q0-3 2-4l3-3 5-1q5 0 7 2 3 2 3 6l-1 4-4 2q5 2 5 7 0 4-2 6-3 2-8 2l-5-1-4-3-1-4h4l1 4 5 1 5-1 2-4q0-5-7-5h-3v-3h3q3 0 5-2l1-3zm22 21-1-3q-2 3-6 3-3 0-5-2-2-1-2-4t3-5q2-2 7-2h3v-2l-1-3-3-1-3 1-2 2h-3l1-3 3-2 4-1q4 0 6 2t2 5v10l1 4v1zm-6-3 3-1 2-2v-5h-3q-6 0-6 4l1 3 3 1zm32 3h-4v-18h-9v18h-4v-21h17zm19 0-1-3q-2 3-6 3-3 0-5-2-2-1-2-4t3-5q2-2 7-2h3v-2l-1-3-3-1-4 1-1 2h-4l2-3 3-2 4-1q4 0 6 2t2 5v15zm-6-3 3-1 2-2v-5h-3q-6 0-6 4l1 3 3 1zm14 0 1-2q3-3 3-8v-8h14v18h3v9h-4v-6h-15v6h-3v-9zm5 0h9v-15h-6l-1 5q0 6-2 10z"/></g><path fill="#0f0" stroke="#0f0" stroke-width="2" d="M790 97v1386"/><g><path d="M187 963v-1l6-1 1-5v-32l-1-5-6-1v-1h21v1l-5 1q-2 1-2 5v32q0 3 2 5l5 1v1z"/></g><g><path d="M318 1240v-1l5-1 1-5v-31l-1-6-5-1v-1h20v1l-5 1-1 6v31l1 5 5 1v1zm23 0v-1l6-1 1-5v-31l-1-6-6-1v-1h21v1l-6 1-1 6v31l1 5 6 1v1z"/></g><g><path d="M596 1409v-2l5-1q2-1 2-5v-31q0-4-2-5l-5-1v-2h21v2l-6 1-1 5v31l1 5 6 1v2zm23 0v-2l6-1 1-5v-31l-1-5-6-1v-2h21v2l-6 1-1 5v31l1 5 6 1v2zm24 0v-2l5-1 1-5v-31l-1-5-5-1v-2h20v2l-5 1-1 5v31l1 5 5 1v2z"/></g><g><path d="M909 1403v-2l5-1 1-5v-31l-1-5q-1-2-5-2v-1h21v1q-5 0-6 2l-1 5v31l1 5 6 1v2zm71-47v1q-3 0-4 2l-3 5-15 39h-1l-18-38-3-6-4-2v-1h19v1l-5 1-1 2 2 4 1 4 11 23 10-25 1-3 1-2q0-2-2-3l-4-1v-1z"/></g><g><path d="M1250 1195v1l-3 1-3 6-16 39h-1l-17-38q-2-5-4-6-1-2-3-2v-1h18v1l-4 1-1 2 1 4 2 3 10 24 11-26 1-2v-3l-1-2-4-1v-1z"/></g><g><path d="M1392 907v2l-4 1-3 5-15 40h-1l-18-39-3-6-4-1v-2h18v2h-4l-1 2 1 4 2 4 11 24 10-26 1-3v-2l-1-3h-4v-2zm3 47v-1q4 0 5-2l1-5v-31l-1-5-5-1v-2h21v2l-6 1-1 5v31l1 5q1 2 6 2v1z"/></g><g><path d="M1384 598v1l-4 1-2 5-16 40h-1l-17-39-4-6-4-1v-1h19v1h-4l-1 3 1 3 1 4 11 24 10-26 1-3 1-2q0-2-2-2l-3-1v-1zm3 46v-1l6-1 1-6v-31l-1-5-6-1v-1h21v1l-6 1-1 5v31l1 6 6 1v1zm23 0v-1l6-1 1-6v-31l-1-5-6-1v-1h21v1l-5 1q-2 1-2 5v31q0 4 2 6l5 1v1z"/></g><g><path d="M1223 332v2l-4 1-3 5-15 40h-1l-18-39-3-6-4-1v-2h19v2h-5l-1 2 2 4 1 4 11 23 10-25 1-3 1-2q0-2-2-3h-4v-2zm3 47v-2l5-1q2-1 2-5v-31q0-4-2-5l-5-1v-2h21v2l-6 1-1 5v31l1 5 6 1v2zm23 0v-2l6-1 1-5v-31l-1-5-6-1v-2h21v2l-5 1q-2 1-2 5v31q0 4 2 5l5 1v2zm24 0v-2l5-1q2-1 2-5v-31q0-4-2-5l-5-1v-2h21v2l-6 1-1 5v31l1 5 6 1v2z"/></g><g><path d="M911 217v-1l5-1 1-6v-31l-1-5-5-1v-1h21v1l-6 1-1 5v31l1 6 6 1v1zm71-46v1l-5 1-6 6-10 12 13 20 4 4 4 1v1h-21v-1h4q2-1 2-3l-2-3-2-3-6-10-9 10-2 3-1 3 1 2 4 1v1h-17v-1q4 0 6-3l5-5 11-14-8-11-7-9q-2-2-6-2v-1h22v1h-4q-2 0-2 2l1 3 5 8 3 4 8-10 2-2 1-3-1-2h-4v-1z"/></g><g><path d="M665 165v1l-5 1-5 6-11 13 14 19 3 4 5 1v1h-21v-1h3q2 0 2-2l-1-3-2-4-7-10-8 11-3 3-1 2 1 3h4v1h-16v-1q3 0 5-2l5-6 11-14-8-11-7-9q-2-2-5-2v-1h21v1h-3l-2 2 1 4 5 7 3 4 8-10 1-2 1-2-1-2-4-1v-1z"/></g><g><path d="M371 318v1l-5 1-6 6-10 13 14 19 3 4 4 1v1h-20v-1h3q2 0 2-2l-1-3-3-4-6-10-9 11-2 3-1 3 1 2h4v1h-16v-1q3 0 5-2l5-6 11-13-8-12-7-9q-2-2-6-2v-1h22v1h-4l-2 2 2 4 4 7 3 4 8-10 2-2 1-2-1-2-4-1v-1zm3 46v-1l5-1q2-1 2-5v-31q0-4-2-6l-5-1v-1h21v1l-6 1-1 6v31l1 5 6 1v1z"/></g><g><path d="M186 652h-18v-3l4-1 1-1-10-15-11 15v1l1 1h4v3h-15v-3l4-1 15-20-13-20-5-1v-3h18v3h-4l-1 1 1 1 8 13 10-13v-1l-1-1h-3v-3h15v3h-5l-13 19 14 22 4 1zm22 0h-19v-3h5l1-1v-40l-1-1h-5v-3h19v3h-4l-1 1-1 1v38l1 1 1 1h4zm24 0h-19v-3h4l2-1v-40l-2-1h-4v-3h19v3h-4l-1 1-1 1v38l1 1 1 1h4z"/></g><g><path d="m796 55-1 7q-1 3-4 5l-6 2-6-2-4-5-1-6h-5v12h-3V40h3v13h5l1-7q1-3 4-5l6-2 6 2q3 2 4 5l1 7zm-3-2q0-5-2-8-2-2-6-2t-6 2q-2 3-2 8v2q0 5 2 8 2 2 6 2t6-2q2-3 2-8zm21-3h-9v18h-4V47h13z"/></g><g><path d="M757 1541q0 4-3 7-3 2-8 2t-8-3q-3-4-3-10v-3q0-4 2-7 1-3 4-4 2-2 6-2t7 3q3 2 3 7h-4q0-4-2-5-1-2-4-2-4 0-6 3-2 2-2 7v3q0 5 2 7 2 3 5 3l5-1q2-2 2-5zm13 9q-4 0-7-3-2-2-2-7v-1l1-5 3-4q2-2 5-2 4 0 6 3 3 3 3 8v1h-15q0 3 2 5t5 2h3l2-3 2 2q-2 4-8 4zm0-19-4 2-2 4h11l-1-4-4-2zm13 19v-21h8l7 1q2 2 2 5l-1 2-2 2q2 0 3 2l1 3q0 3-2 4-2 2-6 2zm4-9v6h6l3-1 1-2q0-3-4-3zm0-3h4q6 0 6-3t-5-3h-5zm27 12q-4 0-6-3-3-2-3-7v-1l1-5 3-4 5-2q4 0 6 3 3 3 3 8v1h-15q0 3 2 5t5 2h3l2-3 2 2q-2 4-8 4zm0-19-4 2-1 4h10l-1-4-4-2zm31 9q0 4-2 7-3 3-6 3-4 0-6-2v10h-4v-29h3v2q3-3 7-3 3 0 6 3 2 3 2 8zm-4-1-1-6q-2-2-5-2t-4 3v10q1 3 4 3t5-2l1-6z"/></g><g><path d="M39 847v-29h9q5 0 7 2t2 6l-1 3-3 3 4 2 1 5-2 6q-3 2-7 2zm3-14v11h7l4-2 1-3q0-6-5-6zm0-3h6l4-1q2-1 2-3l-2-4-4-1h-6zm20 6 1-6 4-3q2-2 5-2 4 0 7 3 2 3 2 8l-1 6-3 4-5 1q-5 0-7-3-3-3-3-8zm4 0 1 6q2 2 5 2l4-2q2-2 2-6l-2-6-4-2q-3 0-5 2l-1 6zm28 8 4-1 1-3h4l-1 4-4 2-4 1q-4 0-7-3-2-3-2-8l1-6 3-3q2-2 5-2 4 0 6 2 3 3 3 6h-4l-1-3-4-2-4 2-1 6v1l1 5 4 2zm29-15h-8v18h-3v-18h-7v-3h18zm1 7 1-6 4-3q2-2 5-2 4 0 7 3 2 3 2 8l-1 6-3 4-5 1q-4 0-7-3t-3-8zm4 0q0 4 2 6 1 2 4 2t4-2q2-2 2-6l-2-6q-1-2-4-2t-4 2q-2 2-2 6zm27 2h-3v9h-4v-21h4v9h2l7-9h5l-9 10 10 11h-5z"/></g><g><path fill="green" d="M101 762H89l-2 8h-4l11-29h3l11 29h-4zm-11-3h10l-5-13Zm29 8 4-1 1-3h4l-1 4-4 2-4 1q-4 0-6-3-3-2-3-7v-1l1-6 3-3 5-2q4 0 6 2 3 3 3 6h-4l-1-3-4-2-4 2-1 6v1l1 5 4 2zm13-18h4v18h10v-18h3v18h3l-1 9h-3v-6h-16zm32 21q-4 0-7-3-2-2-2-7v-1l1-5 3-4q2-2 5-2 4 0 6 3 3 3 3 8v1h-15q0 3 2 5t5 2h3l2-3 2 2q-2 4-8 4zm0-19-4 2-2 4h11q0-3-2-4-1-2-3-2zm30 19h-4v-9h-9v9h-4v-21h4v9h9v-9h4zm6-3 1-2q2-2 2-8l1-8h13v18h3v9h-4v-6h-14v6h-4v-9zm4 0h10v-15h-7v5q0 6-3 10zm29 3q-5 0-7-3-3-2-3-7v-1l1-5q1-3 4-4l4-2q4 0 7 3 2 3 2 8v1h-14l1 5q2 2 5 2h3l3-3 2 2q-3 4-8 4zm-1-19q-2 0-3 2l-2 4h10l-1-4q-1-2-4-2zm30 19h-3v-9h-10v9h-4v-21h4v9h10v-9h3zm22-18h-7v18h-4v-18h-7v-3h18z"/></g><g><path fill="green" d="M1326 837h-4v-7h-20v7h-4v-10h2l3-5 2-8v-12h17v25h4zm-21-10h13v-22h-9l-1 8-1 9-2 5zm34 4q-5 0-7-3-3-3-3-8l1-6 3-4 5-1q4 0 7 2 2 3 2 8v2h-14l1 5q2 2 5 2l3-1 2-2 3 2q-3 4-8 4zm-1-19-3 1q-2 2-2 5h10v-1l-1-4-4-1zm22 16 3-2 2-2h3l-1 3-3 3-4 1q-5 0-7-3-3-3-3-8v-1l1-5 3-4 6-1q3 0 5 2 3 2 3 5h-3l-2-3-3-1q-3 0-5 2l-1 5v1l1 6q2 2 5 2zm12-19h4v18h10v-18h3v18h3l-1 9h-3v-6h-16zm32 22q-4 0-7-3-2-3-2-8l1-6 3-4 5-1q4 0 6 2 3 3 3 8v2h-15q0 3 2 5t5 2l3-1 2-2 2 2q-2 4-8 4zm0-19-4 1-2 5h11v-1l-1-4-4-1zm30 18h-3v-9h-10v9h-4v-21h4v9h10v-9h3zm6-3 1-1q2-3 2-8l1-9h13v18h3v9h-4v-6h-14v6h-4v-9zm4 0h10v-15h-7v5q0 7-3 10zm29 4q-4 0-7-3t-3-8l1-6 4-4 4-1q5 0 7 2 2 3 2 8v2h-14q0 3 2 5 1 2 4 2l3-1 3-2 2 2q-3 4-8 4zm-1-19-3 1q-2 2-2 5h10v-1l-1-4-4-1zm31 18h-4v-9h-10v9h-3v-21h3v9h10v-9h4zm21-18h-7v18h-4v-18h-7v-3h18z"/></g><g><path fill="green" d="m730 239 10 23 9-23h5v28h-4v-23l-9 23h-3l-9-23v23h-4v-28zm51 19q0 5-3 7-3 3-8 3t-8-4q-3-4-3-10v-2q0-4 2-7 1-3 4-5 2-2 6-2t7 3q3 3 3 7h-4q0-3-2-5l-4-1q-4 0-6 2-2 3-2 8v3q0 4 2 7t5 3q4 0 5-2 2-1 2-5z"/></g><g><path fill="green" d="M809 1332h-4v-29h4zm28-9-3 7q-3 2-8 2t-8-3q-3-4-3-10v-3l1-7 4-4 6-2q5 0 8 3 2 2 3 7h-4q0-4-2-5-2-2-5-2t-5 3q-2 2-2 7v3q0 5 2 7 2 3 5 3l5-1q2-2 2-5z"/></g><path fill="#0f0" stroke="#0f0" stroke-width="1.9" d="m498 284 584 1012m0-1012L498 1296m798-798L284 1082"/></svg>