<svg xmlns="http://www.w3.org/2000/svg" xmlns:xlink="http://www.w3.org/1999/xlink" viewBox="0 0 1580 1580"><defs><path id="a" fill="#f76383" d="M423 1796h-2v10h-3v-22h3v10h2l7-10h4l-8 11 9 11h-4z"/><path id="b" fill="#f76383" d="m430 1726 5 1 3 3 1 5-1 4-3 3-5 1v3h-3v-3l-5-1-3-3-1-4 1-5 3-3 5-1v-3h3zm-3 2q-3 0-5 2l-1 5 1 5 5 1v-13zm3 0v13q3 0 5-2l1-4-1-5q-2-2-5-2z"/><path id="c" fill="#f76383" d="m438 1658 7 18 7-18h3v22h-3v-9l1-9-7 18h-2l-7-18v18h-3v-22z"/><path id="d" fill="#6567a4" d="m277 1690-1 2-7 1h-1v-3h4l1-2 1-2-10-22h5l7 17 7-17h4z"/><path id="e" d="M349 1716v29h-4v-26h-14v26h-4v-29z"/><path id="f" d="M336 1781v29h-3v-26h-15v26h-4v-29z"/></defs><path fill="none" stroke="#f76383" stroke-width="3.9" d="M975 746a21 21 0 0 1-21 21 21 21 0 0 1-21-21 21 21 0 0 1 21-21 21 21 0 0 1 21 21z"/><g><use xlink:href="#a" fill="#6567a4" stroke-width=".7" transform="translate(528 -1049)"/></g><path fill="none" stroke="#f76383" stroke-width="3.9" d="M767 624a21 21 0 0 1-20 21 21 21 0 0 1-21-21 21 21 0 0 1 21-21 21 21 0 0 1 20 21z"/><g><use xlink:href="#a" fill="#6567a4" stroke-width=".7" transform="translate(320 -1171)"/></g><path fill="none" stroke="#f76383" stroke-width="3.9" d="M643 833a21 21 0 0 1-21 20 21 21 0 0 1-20-20 21 21 0 0 1 20-21 21 21 0 0 1 21 21z"/><g><use xlink:href="#a" fill="#6567a4" stroke-width=".7" transform="translate(196 -963)"/></g><path fill="none" stroke="#f76383" stroke-width="3.9" d="M855 954a21 21 0 0 1-21 21 21 21 0 0 1-21-21 21 21 0 0 1 21-21 21 21 0 0 1 21 21z"/><g><use xlink:href="#a" fill="#6567a4" stroke-width=".7" transform="translate(408 -841)"/></g><path fill="none" stroke="#f76383" stroke-width="3.9" d="M931 910a21 21 0 0 1-21 21 21 21 0 0 1-21-21 21 21 0 0 1 21-21 21 21 0 0 1 21 21z"/><g><use xlink:href="#b" fill="#6567a4" stroke-width=".7" transform="translate(481 -825)"/></g><path fill="none" stroke="#f76383" stroke-width="3.9" d="M931 667a21 21 0 0 1-21 21 21 21 0 0 1-21-21 21 21 0 0 1 21-21 21 21 0 0 1 21 21z"/><g><use xlink:href="#b" fill="#6567a4" stroke-width=".7" transform="translate(482 -1068)"/></g><path fill="none" stroke="#f76383" stroke-width="3.9" d="M689 668a21 21 0 0 1-21 21 21 21 0 0 1-20-21 21 21 0 0 1 20-21 21 21 0 0 1 21 21z"/><g><use xlink:href="#b" fill="#6567a4" stroke-width=".7" transform="translate(240 -1067)"/></g><path fill="none" stroke="#f76383" stroke-width="3.9" d="M689 910a21 21 0 0 1-21 21 21 21 0 0 1-21-21 21 21 0 0 1 21-21 21 21 0 0 1 21 21z"/><g><use xlink:href="#b" fill="#6567a4" stroke-width=".7" transform="translate(240 -825)"/></g><path fill="none" stroke="#f76383" stroke-width="3.9" d="M767 955a21 21 0 0 1-21 21 21 21 0 0 1-21-21 21 21 0 0 1 21-21 21 21 0 0 1 21 21z"/><g><use xlink:href="#c" fill="#6567a4" stroke-width=".7" transform="translate(302 -714)"/></g><path fill="none" stroke="#f76383" stroke-width="3.9" d="M857 624a21 21 0 0 1-21 21 21 21 0 0 1-20-21 21 21 0 0 1 20-21 21 21 0 0 1 21 21z"/><g><use xlink:href="#c" fill="#6567a4" stroke-width=".7" transform="translate(392 -1045)"/></g><path fill="none" stroke="#f76383" stroke-width="3.9" d="M643 746a21 21 0 0 1-21 21 21 21 0 0 1-21-21 21 21 0 0 1 21-21 21 21 0 0 1 21 21z"/><g><use xlink:href="#c" fill="#6567a4" stroke-width=".7" transform="translate(178 -923)"/></g><g><use xlink:href="#d" transform="translate(452 -1135)"/></g><path fill="none" stroke="#6567a4" stroke-width="4.1" d="M701 523h54v42h-54Z"/><g><use xlink:href="#d" transform="translate(578 -648)"/></g><path fill="none" stroke="#6567a4" stroke-width="4.1" d="M828 1009h54v42h-54Z"/><g><use xlink:href="#d" transform="translate(273 -829)"/></g><path fill="none" stroke="#6567a4" stroke-width="4.1" d="M522 829h54v42h-54Z"/><g><use xlink:href="#d" transform="translate(756 -950)"/></g><path fill="none" stroke="#6567a4" stroke-width="4.1" d="M1005 708h54v42h-54ZM587 944h54v42h-54z"/><g fill="#6567a4"><use xlink:href="#e" transform="translate(266 -765)"/><path d="m623 972-1 1-1 2 1 3 1 1 2-1 1-3-1-2-2-1zm0-1 3 1 1 3-1 4-3 1-3-1-1-4 1-3 3-1zm13 0v2l-1-1h-1l-2 1-1 2 1 3 2 1h1l1-1v2h-2l-4-1-1-4 1-3 4-1h2z"/></g><path fill="none" stroke="#6567a4" stroke-width="4.1" d="M943 945h54v42h-54z"/><g fill="#6567a4"><use xlink:href="#e" transform="translate(621 -764)"/><path d="m979 973-1 1-1 2 1 3 1 1 2-1 1-3-1-2-2-1zm0-1 3 1 1 3-1 4-3 1-3-1-1-4 1-3 3-1zm13 0v2l-1-1h-1l-3 1v5l3 1h1l1-1v1l-1 1h-2l-3-1-1-4 1-3 4-1h2z"/></g><path fill="none" stroke="#6567a4" stroke-width="4.1" d="M943 595h54v42h-54z"/><g fill="#6567a4"><use xlink:href="#e" transform="translate(621 -1115)"/><path d="m979 623-2 1v5h4l1-3-1-2-2-1zm0-2q2 0 3 2l1 3-1 3q-1 2-3 2t-3-2l-1-3 1-3q1-2 3-2zm13 1v1h-3l-2 1-1 2 1 3h5v1l-1 1h-2q-2 0-3-2l-1-3 1-3q1-2 3-2l2 1h1z" font-size="16"/></g><path fill="none" stroke="#6567a4" stroke-width="4.1" d="M523 703h55v42h-55z"/><g fill="#6567a4"><use xlink:href="#e" transform="translate(202 -1006)"/><path d="m560 731-2 1-1 2 1 3 2 1 2-1v-5l-2-1zm0-1 3 1 1 3-1 4-3 1-3-1-1-4 1-3 3-1zm12 0v2l-1-1h-1l-2 1-1 2 1 3 2 1h1l1-1v1l-1 1h-1l-3-1-2-4q0-2 2-3l3-1h2z"/></g><path fill="none" stroke="#6567a4" stroke-width="4.1" d="M697 1010h55v42h-55Z"/><g fill="#6567a4"><use xlink:href="#f" transform="translate(387 -766)"/><path d="M733 1040h-2l-1 1 1 2h1l2-1 1-2zm3-1v5h-1v-1l-2 1h-1l-3-1v-2l1-2 3-1h2l-1-1-2-1h-1l-2 1v-1l2-1h1l3 1 1 3zm5 4h4v-7h-3v2l-1 4zm-2 0 1-1 1-5v-2h6v8h1v3h-1v-2h-8v2h-1v-3z" font-size="16"/></g><path fill="none" stroke="#6567a4" stroke-width="4.1" d="M587 590h55v42h-55Z"/><g fill="#6567a4"><use xlink:href="#f" transform="translate(277 -1186)"/><path d="M623 620h-3v3h4v-3zm3-1v5h-2v-1l-1 1-2 1-2-1-1-2 1-2 3-1h2v-2h-5v-1h2l1-1 3 1 1 3zm5 4h4v-6h-3v1l-1 5zm-2 0 1-1v-6h6v7h1v4h-1v-3h-7v3h-1v-4z" font-size="16"/></g><path fill="none" stroke="#6567a4" stroke-width="4.1" d="M828 523h55v42h-55Z"/><g fill="#6567a4"><use xlink:href="#f" transform="translate(518 -1252)"/><path d="m864 553-2 1-1 1 1 1 1 1 2-1 1-2v-1zm3 0v5h-1v-2l-2 1-1 1-3-1v-2l1-2 3-1h2l-1-2h-3l-2 1v-2h3l3 1 1 3zm5 3h4v-6h-3v1l-1 5zm-2 0 1-1 1-5v-1h6v7h1v4h-1v-2h-8v2h-1v-4z"/></g><path fill="none" stroke="#6567a4" stroke-width="4.1" d="M1006 834h54v42h-54Z"/><g fill="#6567a4"><use xlink:href="#f" transform="translate(696 -941)"/><path d="m1041 864-2 1-1 1 1 1 1 1 2-1 1-2v-1zm3 0v5h-1v-2l-1 2h-2l-2-1-1-2 1-2 3-1h2l-1-1-2-1h-1l-1 1v-2h3l2 1 1 3zm5 4h4v-7h-3v1l-1 5zm-2 0 1-1 1-5v-2h6v8h1v3h-1v-2h-7v2h-1v-3z"/></g><path fill="none" stroke="#f76383" stroke-width="3.9" d="M979 834a21 21 0 0 1-21 21 21 21 0 0 1-21-21 21 21 0 0 1 21-21 21 21 0 0 1 21 21z"/><g><use xlink:href="#c" fill="#6567a4" stroke-width=".7" transform="translate(513 -835)"/></g><path fill="#1463bf" fill-rule="evenodd" d="m791 852 1-56 55 97c1 2-11 7-21 10-9 3-24 6-30 6h-5zm5-69a17290 17290 0 0 0 55-95l7 4c11 8 29 26 33 35l1 2-48 28a5650 5650 0 0 1-48 26zm-125 0a138 138 0 0 1 14-50c1-1 6 2 47 25l49 28 3 2H671z"/><path fill="#bfe7fb" fill-rule="evenodd" d="m736 757-48-28 12-17c6-7 15-15 23-21 6-3 6-4 7-2a21921 21921 0 0 0 54 96l-48-28zm37 151c-8-1-17-3-23-6-7-2-18-8-18-9a12128073 12128073 0 0 0 55-96c1-1 1 8 1 56v56h-4l-11-1zm24-121a5814 5814 0 0 1 94-54l3-1 3 6c6 13 11 29 12 43v7h-56c-48 0-57 0-56-1z"/><path fill="#60cc1b" fill-rule="evenodd" d="m846 821-49-29 55-1h57v7a119 119 0 0 1-15 50l-48-27zm-86-86-28-49 2-1a138 138 0 0 1 48-14h6v113l-28-49zm-36 154a123 123 0 0 1-36-38l97-56-56 97-5-3z"/><path fill="#dd3730" fill-rule="evenodd" d="M791 728v-57h3l20 2c13 3 35 12 34 14l-56 96c-1 1-1-8-1-55zM683 842l-10-28-2-22 57-1 56 1-49 28-49 28-3-6zm167 49-55-96 96 55 2 1-5 6c-8 12-19 23-31 31l-6 5z"/></svg>