<svg xmlns="http://www.w3.org/2000/svg" viewBox="0 0 1580 1580"><path fill="none" stroke="#6567a4" stroke-width="4.1" d="M47 1439h55v42H47z"/><g fill="#6567a4"><path d="M349 1716v29h-4v-26h-14v26h-4v-29z" transform="translate(-274 -271)"/><path d="M84 1467h-2l-1 3 1 2 2 1 1-1 1-2-1-2-1-1zm0-2 2 2q2 1 2 3t-2 3l-2 2q-2 0-3-2l-1-3 1-3q1-2 3-2zm12 1v1h-4l-1 3 1 2 2 1h2v1h-1l-1 1-4-2-1-3 1-3 4-2 1 1h1z" font-size="16"/></g><path fill="none" stroke="#6567a4" stroke-width="4.1" d="M47 1498h55v42H47Z"/><g fill="#6567a4"><path d="M336 1781v29h-3v-26h-15v26h-4v-29z" transform="translate(-263 -278)"/><path d="M83 1528h-2l-1 2v1h2l2-1v-2zm3-1v5h-2v-1l-1 1h-4l-1-2 1-3h5v-2l-2-1-2 1h-1v-1l2-1h1l3 1 1 3zm5 4h4v-6h-3v1l-1 5zm-2 0 1-1v-7h6v8h1v3h-1v-2h-7v2h-1v-3z" font-size="16"/></g><g><path fill="#6567a4" d="m277 1690-1 2-7 1h-1v-3h4l1-2 1-2-10-22h5l7 17 7-17h4z" transform="translate(-202 -278)"/></g><path fill="none" stroke="#6567a4" stroke-width="4.1" d="M47 1380h55v42H47Z"/><g><path fill="#6567a4" d="M391 1682h-9v-3h9zm24-1 6-17h5l-10 24-2 3-2 2h-5v-3h2q2 0 3-2v-1l1-2-10-21h4zm26-6h-9v18h-4v-21h13zm20-3v21h-4v-18h-7v8l-2 7q-2 3-5 3h-1v-3h1l2-2 1-7 1-9zm5 10 1-6 3-3 5-2q5 0 7 3 3 3 3 8l-1 6-4 4-5 1q-4 0-7-3-2-3-2-8zm3 0q0 4 2 6l4 2q3 0 5-2l1-6-1-6q-2-2-5-2l-4 2-2 6zm21 11v-21h8l7 1 2 4-1 3-3 2q2 0 3 2 2 1 2 3 0 3-3 4-2 2-6 2zm4-9v6h5l4-1 1-2q0-3-5-3zm0-3h4q5 0 5-3t-5-3h-4zm22-2h6l6 2q2 2 2 5t-3 5q-2 2-5 2h-9v-21h3zm21 14h-3v-21h3zm-21-11v8h6l3-1 1-3-1-3-3-1zm36 11q-4 0-7-3-2-2-2-7v-1l1-5 3-4q2-2 5-2 4 0 6 3t2 8v1h-14q0 3 2 5l4 2 4-1 2-2 2 2q-2 4-8 4zm0-19-4 2-2 4h11q0-3-2-4-1-2-3-2z" transform="translate(-263 -278)"/></g><g><path fill="#6567a4" d="M391 1738h-9v-3h9zm36 11h-4v-26h-14v26h-4v-29h22zm5-11 1-6 4-3q2-2 5-2 4 0 7 3 2 3 2 8l-1 6-3 4-5 1q-5 0-7-3-3-3-3-8zm4 0 1 6q2 2 5 2l4-2q2-2 2-6l-2-6-4-2q-3 0-5 2l-1 6zm28 8 4-1 1-3h4l-2 4-3 2-4 1q-4 0-7-3-2-3-2-8l1-6 3-3q2-2 5-2 4 0 6 2 3 2 3 6h-4l-1-3-4-2-4 2-1 6v1l1 5 4 2zm30-18v21h-4v-18h-7v8l-2 7q-1 3-5 3h-1v-3l1-1q2 0 2-2l1-6 1-9zm15 21q-5 0-7-3-3-2-3-7v-1l1-5q1-3 4-4l4-2q4 0 7 3 2 3 2 8v1h-14l1 5q2 2 5 2l3-1 2-2 3 2q-3 4-8 4zm-1-19q-2 0-3 2-2 1-2 4h10l-1-4-4-2zm13 16 1-2q2-2 3-8v-8h14v18h2v9h-3v-6h-15v6h-4v-9zm4 0h10v-15h-7v5q0 6-3 10zm19-8 1-6 4-3q2-2 5-2 4 0 7 3t3 8q0 4-2 6l-3 4-5 1q-4 0-7-3t-3-8zm4 0q0 4 2 6 1 2 4 2t4-2q2-2 2-6l-2-6q-1-2-4-2t-4 2q-2 2-2 6zm20 11v-21h9l6 1 2 4-1 3-2 2q2 0 3 2l1 3q0 3-2 4-2 2-6 2zm4-10v7h6l3-1 1-2q0-4-4-4zm0-2h5q5 0 5-3t-5-3h-5zm32 12-1-2q-2 2-6 2-3 0-5-2-2-1-2-4t3-5q2-2 7-2h3v-2l-1-3-3-1-3 1-2 2h-3l1-3 3-2 4-1q4 0 6 2t2 5v10l1 4v1zm-6-3 3-1 2-2v-4h-2q-7 0-7 3l1 3 3 1zm30-15h-7v18h-4v-18h-7v-3h18zm11 18q-5 0-7-3-3-2-3-7v-1l1-5q1-3 4-4l4-2q4 0 7 3 2 3 2 8v1h-14l1 5q2 2 5 2l3-1q2 0 3-2l2 2q-3 4-8 4zm-1-19q-2 0-3 2-2 1-2 4h10l-1-4q-1-2-4-2zm31-2v21h-4v-18h-7l-1 8q0 5-2 7-1 3-4 3h-2v-3l1-1q2 0 3-2l1-6v-9zm9 7h6q3 0 5 2 3 2 3 5t-3 5q-2 2-5 2h-9v-21h3zm0 3v8h6l3-1 1-3-1-3-3-1zm35 11h-3v-9h-10v9h-4v-21h4v9h10v-9h3zm10-14h6q3 0 5 2t2 5q0 3-2 5t-6 2h-9v-21h4zm21 14h-4v-21h4zm-21-11v8h5l4-1 1-3-1-3-3-1zm36 11q-4 0-7-3-3-2-3-7v-1l1-5 4-4 4-2q5 0 7 3t2 8v1h-14q0 3 2 5 1 2 4 2l3-1q2 0 3-2l2 2q-3 4-8 4zm-1-19q-2 0-3 2-2 1-2 4h11l-2-4q-1-2-4-2z" transform="translate(-263 -278)"/></g><g><path fill="#6567a4" d="M391 1797h-9v-3h9zm36 11h-4v-26h-14v26h-4v-29h22zm19 0v-3q-3 3-6 3-4 0-6-2l-2-4q0-4 3-5 2-2 7-2h3v-2l-1-3-3-1-3 1-2 2h-3l1-3 3-2 4-1q4 0 6 2t2 5v10l1 4v1zm-6-3 3-1 2-2v-5h-2q-7 0-7 4l1 3 3 1zm15 0 1-2q2-3 2-8l1-9h13v19h3v9h-4v-6h-14v6h-4v-9zm4 0h10v-15h-7v5q0 6-3 10zm33 3-1-3q-2 3-6 3-3 0-5-2l-2-4q0-4 3-5 2-2 7-2h3v-2l-1-3-3-1-3 1-2 2h-3l1-3 3-2 4-1q4 0 6 2t2 5v10l1 4v1zm-6-3 3-1 2-2v-5h-2q-7 0-7 4l1 3 3 1zm19-10h5q0-4 3-6 2-3 6-3t7 3q3 3 3 7v1l-1 6-4 4-5 1q-4 0-6-3-3-2-3-7h-5v10h-4v-22h4zm8 2q0 4 2 6l4 2q3 0 5-2l1-6-1-6q-2-2-5-2l-4 2q-2 2-2 6zm24-11v19h8v-19h3v19h8v-19h4v19h3l-1 9h-3v-6h-26v-22zm43 0h4v22h-4v-16l-10 16h-3v-22h3v16zm18 22q-4 0-7-3-2-3-2-7v-1l1-6 3-4 5-1q4 0 6 3 2 2 2 8v1h-14q0 3 2 5l4 2 4-1 2-2 2 2q-2 4-8 4zm0-19-4 2-2 4h11q0-3-2-4-1-2-3-2z" transform="translate(-263 -278)"/></g><g><path fill="#f76383" d="M487 1674h-9v-3h9zm19-18 9 23 10-23h5v28h-4v-23l-9 23h-3l-9-23v23h-4v-28Zm37 23 5-16h3l-8 24q-2 6-6 6h-1l-1-1v-3l1 1 2-1 2-3 1-2-8-21h4zm27-13h-7v18h-3v-18h-7v-3h17zm17 18-1-2q-2 3-6 3-3 0-5-2t-2-5q0-3 2-5 3-2 8-2h3v-1l-1-3-3-1-4 1-1 2h-4l1-3 4-2 4-1q3 0 5 2 3 1 3 5v14zm-6-3h3l2-3v-4h-3q-6 0-6 4l1 2 3 1zm24-17q4 0 6 3t2 7l-1 6-3 3q-2 2-5 2-4 0-7-3t-3-8v-2q0-6 3-10 2-4 7-5l4-1 1-2h3l-1 4-4 2h-2q-4 1-5 3-2 2-2 5 2-4 7-4zm-1 3q-3 0-4 2-2 2-2 5 0 4 2 6 1 2 4 2t4-2q2-2 2-6 0-3-2-5-1-2-4-2zm22 18q-4 0-7-3t-3-8q0-4 2-6l3-4 5-1q4 0 6 2 2 3 2 8v2h-14q0 3 2 5l4 2 4-1 2-2 2 2q-3 4-8 4zm0-19-4 1-2 5h11v-1l-2-4-3-1zm30-3v21h-4v-18h-7v8l-2 8q-2 2-5 2h-1v-3h1q2 0 2-2l1-7 1-9zm10 7h5q4 0 6 2t2 5q0 3-2 5t-6 2h-9v-21h4zm0 3v8h5l3-1 1-3-1-3-3-1zm35 11h-4v-9h-10v9h-3v-21h3v9h10v-9h4zm9-14h6q4 0 6 2t2 5q0 3-2 5l-6 2h-9v-21h3zm21 14h-3v-21h3zm-21-11v8h6l3-1 1-3-1-3-3-1zm36 12q-4 0-7-3-2-3-2-8l1-6 3-4 5-1q4 0 6 2 3 3 3 8v2h-15q0 3 2 5t5 2l3-1 2-2 2 2q-2 4-8 4zm0-19-4 1-2 5h11v-1l-2-4-3-1z" transform="translate(730 -261)"/></g><g><path fill="#f76383" d="M487 1730h-9v-3h9zm28-15h1l6 1 4 4 1 6-1 6q-1 3-4 4l-6 1h-1v4h-3v-4h-1l-6-1-4-4-1-6 1-6 4-4 6-1h1v-4h3zm-4 3-6 2q-2 2-2 6t2 6q3 3 6 3h1v-17zm4 0v17h1q4 0 6-3 2-2 2-6t-2-6q-2-2-6-2zm30 1h4v21h-4v-15l-9 15h-4v-21h4v15zm16 12h-2v9h-4v-21h4v9h2l7-9h5l-9 10 9 11h-4zm24 7 3-2 1-3h4l-1 4-3 3-4 1q-5 0-7-3-3-3-3-8v-1l1-5 3-4 5-1q4 0 6 2 3 2 3 5h-4l-1-3-4-1-4 2-1 5v1l1 6q2 2 5 2zm26-19h3v21h-3v-15l-10 15h-4v-21h4v15zm27 11q0 5-2 8-3 3-6 3-4 0-6-3v10h-4v-29h3l1 2q2-2 6-2l6 2q2 3 2 8zm-4-1-1-5-4-2q-4 0-5 3v10q1 3 5 3l4-2 1-7zm8 0 1-5 3-4 5-1q4 0 7 3t3 8l-1 5-4 4q-2 2-5 2-4 0-7-3-2-3-2-8zm3 1q0 3 2 5 1 3 4 3t5-3l1-6q0-3-2-5-1-2-4-2t-4 2q-2 2-2 6zm21 10v-21h8q4 0 6 2 3 1 3 4l-1 2q-1 2-3 2l3 2 1 3q0 3-2 5l-6 1zm3-9v6h6l4-1 1-2q0-3-5-3zm0-3h5q5 0 5-3t-5-3h-5zm32 12v-2q-3 3-6 3t-5-2q-2-2-2-5t2-5q3-2 7-2h4v-1l-1-3-4-1-3 1-1 2h-4l1-3 3-3h4l6 1q2 2 2 5v10l1 5zm-6-3h3l3-3v-4h-3q-7 0-7 4l1 2 3 1zm32 3h-3v-9h-10v9h-4v-21h4v9h10v-9h3zm23 0h-3v-9h-10v9h-4v-21h4v9h10v-9h3zm10-14h5q4 0 6 2t2 5q0 3-2 5t-6 2h-9v-21h4zm21 14h-4v-21h4zm-21-11v8h5l4-1 1-3-1-3-4-1zm36 12q-4 0-7-3t-3-8l1-6 4-4 4-1q5 0 7 2 2 3 2 8v2h-14q0 3 2 5 1 2 4 2l3-1 3-2 2 1q-3 5-8 5zm-1-19-3 1q-2 2-2 5h10v-1l-1-4-4-1z" transform="translate(730 -261)"/></g><g><path fill="#f76383" d="M487 1788h-9v-3h9zm22-2h-4v13h-3v-28h3v12h3l10-12h5l-11 13 12 15h-5zm31 13-1-2q-2 2-6 2l-5-1q-2-2-2-5t2-5q3-2 7-2h4v-1l-1-4-3-1-4 1-1 3h-4l1-3 3-3 5-1q3 0 5 2 3 2 3 5v15zm-6-3 3-1 2-2v-4h-3q-6 0-6 4l1 2 3 1zm32-7q0 4-2 7t-6 3q-4 0-6-2v10h-4v-29h4v2q2-3 6-3t6 3q2 3 2 8zm-4-1-1-5-4-2q-3 0-5 2v11q1 2 5 2l4-2 1-6zm8 8 1-2q3-2 3-8v-8h14v18h2v9h-3v-6h-15v6h-3v-9zm4 0h10v-15h-6l-1 5q0 7-3 10zm34-18h4v21h-4v-15l-10 15h-3v-21h3v15zm27 21h-4v-9h-9v9h-4v-21h4v9h9v-9h4zm19 0-1-2q-2 2-6 2l-5-1q-2-2-2-5t3-5q2-2 7-2h3v-1l-1-4-3-1-4 1-1 3h-4q0-2 2-3l3-3 4-1q4 0 6 2t2 5v15zm-6-3 3-1 2-2v-4h-3q-6 0-6 4l1 2 3 1zm32-18v21h-4v-18h-7l-1 8-1 8q-2 2-5 2h-1v-3h1l2-2 1-7v-9zm9 7h6q4 0 6 2t2 5q0 3-2 5l-6 2h-9v-21h3zm0 3v8h6l3-1 1-3-1-3-3-1zm36 11h-4v-9h-10v9h-3v-21h3v9h10v-9h4zm9-14h6q3 0 5 2 3 2 3 5t-3 5q-2 2-5 2h-9v-21h3zm21 14h-4v-21h4zm-21-11v8h6l3-1 1-3-1-3-3-1zm36 11q-4 0-7-2-3-3-3-8v-1q0-3 2-5l3-4q2-2 5-2 4 0 6 3t2 8v1h-14q0 4 2 6l4 1h4l2-2 2 1q-3 4-8 4zm0-19q-3 0-4 2l-2 4h11q0-3-2-4-1-2-3-2z" transform="translate(730 -261)"/></g><path fill="none" stroke="#f76383" stroke-width="3.9" d="M1195 1413a21 21 0 0 1-21 21 21 21 0 0 1-21-21 21 21 0 0 1 21-21 21 21 0 0 1 21 21z"/><g><path fill="#f76383" d="m438 1658 7 18 7-18h3v22h-3v-9l1-9-7 18h-2l-7-18v18h-3v-22z" transform="translate(730 -256)"/></g><path fill="none" stroke="#f76383" stroke-width="3.9" d="M1195 1469a21 21 0 0 1-21 21 21 21 0 0 1-21-21 21 21 0 0 1 21-21 21 21 0 0 1 21 21z"/><g><path fill="#f76383" d="m430 1726 5 1 3 3 1 5-1 4-3 3-5 1v3h-3v-3l-5-1-3-3-1-4 1-5 3-3 5-1v-3h3zm-3 2q-3 0-5 2l-1 5 1 5 5 1v-13zm3 0v13q3 0 5-2l1-4-1-5q-2-2-5-2z" transform="translate(746 -266)"/></g><path fill="none" stroke="#f76383" stroke-width="3.9" d="M1195 1528a21 21 0 0 1-21 21 21 21 0 0 1-21-21 21 21 0 0 1 21-21 21 21 0 0 1 21 21z"/><g><path fill="#f76383" d="M423 1796h-2v10h-3v-22h3v10h2l7-10h4l-8 11 9 11h-4z" transform="translate(748 -267)"/></g><path fill="#dd3730" fill-rule="evenodd" d="m1311 46 67 17-66 19h-1l-1-5c-2-9-2-18 0-27v-5z"/><path fill="#1463bf" fill-rule="evenodd" d="M1376 120a10723 10723 0 0 0-65 17l-2-5c-1-8-1-24 1-30l1-1 33 9a3501 3501 0 0 1 32 10z"/><path fill="#bfe7fb" fill-rule="evenodd" d="M1344 185c-18 4-33 8-34 7l-1-13c-1-5 0-13 1-19l2-4a13564 13564 0 0 0 66 20l-34 9z"/><path fill="#60cc1b" fill-rule="evenodd" d="M1310 244a77 77 0 0 1 1-32l67 19-68 17v-4z"/><g><path fill="#666" d="M1230-455h-9v-3h9zm36-3-1 7q-1 3-4 5l-6 2-6-2q-3-2-4-5-2-3-2-7v-2q0-4 2-7 1-3 4-5l6-2 6 2q3 2 4 5l1 7zm-3-2q0-5-2-8-2-2-6-2t-6 2q-2 3-2 8v2q0 5 2 8 2 2 6 2t6-2q2-3 2-8zm22-3h-10v18h-3v-21h13zm2 7 1-5 3-4 5-1q5 0 7 3 3 3 3 8l-1 5q-1 3-4 4-2 2-5 2-4 0-7-3-2-3-2-8zm3 1 2 6 4 2q3 0 5-2l1-7-1-5q-2-2-5-2l-4 2q-2 2-2 6zm38 10h-4v-9h-9v9h-4v-21h4v9h9v-9h4zm10-14h5q4 0 6 2t2 5q0 3-2 5t-6 2h-9v-21h4zm0 3v8h5l3-1 1-3-1-2q-1-2-3-2z" transform="translate(172 520)"/></g><g><path fill="#666" d="M1230-399h-10v-3h10zm13 10v-28h10q4 0 7 2 2 2 2 5l-1 4-3 2 3 3q2 1 2 4 0 4-3 6-2 2-7 2zm4-13v10h6l5-1 1-4q0-5-6-5zm0-3h6l4-1 1-4-1-3-4-1h-6zm20 5 1-5 3-4 5-1q5 0 7 3 3 3 3 8l-1 5-3 4-6 2q-4 0-6-3-3-3-3-8zm3 1 2 5q2 3 4 3 3 0 5-3l1-6-1-5q-2-2-5-2l-4 2-1 6zm19 7 1-1 3-9v-8h14v18h2v9h-3v-6h-15v6h-4v-9zm4 0h10v-15h-6l-1 5q0 7-3 10zm33 3v-2q-3 3-6 3t-5-2q-2-2-2-5t2-5q3-2 7-2h4v-1l-1-3-4-1-3 1-1 2h-4l1-3 3-3h5l5 1q2 2 2 5v10l1 5zm-6-3h4l2-3v-4h-3q-7 0-7 4l2 2 2 1z" transform="translate(172 520)"/></g><g><path fill="#666" d="M1230-344h-9v-3h9zm14 11v-29h10q4 0 7 2 2 2 2 6l-1 3-3 3q2 0 3 2l2 4q0 4-3 6-2 3-7 3zm4-14v11h6q3 0 5-2l1-4q0-5-6-5zm0-3h6l4-1 1-3-1-4-4-1h-6zm20 6 1-6 3-4 5-1q5 0 7 3 3 3 3 8l-1 6-3 4-6 1q-4 0-7-3-2-3-2-8zm3 0q0 4 2 6l4 2q3 0 5-2l1-6-1-6q-2-2-5-2l-4 2q-2 2-2 6zm32-5-1-2-3-1-3 1-1 2h-4l2-4 6-2q4 0 6 2 2 1 2 4l-1 3-2 2q3 1 3 5 0 3-2 4-2 2-6 2t-6-2q-2-2-2-5h3q0 2 2 3l3 1 3-1 2-2-1-3-4-1h-3v-3h4q3 0 3-3zm9 13 1-2q2-3 2-8l1-8h13v18h3v9h-4v-6h-14v6h-4v-9zm4 0h10v-15h-7v5q0 6-3 10zm27-3 5-15h4l-9 24q-2 5-6 5h-2v-3h1l3-1 1-2 1-3-7-20h4zm19-8 5-7h4l-7 10 7 11h-4l-5-8-5 8h-4l7-11-7-10h4z" transform="translate(172 520)"/></g><g><path fill="#666" d="M1230-288h-9v-3h9zm29-10-2-4-4-1-4 1-2 4h-4l1-4 4-3 5-1q5 0 7 2 3 2 3 6l-1 4-4 2q5 2 5 7 0 4-3 6-2 2-7 2l-5-1-4-3-1-4h3l2 4 5 1 5-1 1-4q0-5-6-5h-3v-3h3q3 0 5-2l1-3zm17 21q-4 0-7-3-2-3-2-7v-1l1-6 3-3q2-2 5-2 4 0 6 3 3 3 3 8v1h-15q0 3 2 5t5 2l3-1 2-2 2 2q-2 4-8 4zm0-19-4 2-2 4h11l-1-4-4-2zm25 14 7-16h5v21h-4v-16l-7 16h-2l-7-16v16h-4v-21h5zm35-16v21h-4v-18h-7v7l-2 8q-2 3-5 3h-1v-3l1-1 2-2 1-6 1-9zm22 0v21h-4v-9h-5l-5 9h-4l5-9-3-2-1-4q0-3 2-5l6-1zm-13 6 1 3 2 1h6v-7h-5l-3 1-1 2z" transform="translate(172 520)"/></g></svg>